%TF.GenerationSoftware,KiCad,Pcbnew,10.0.3*%
%TF.CreationDate,2026-06-24T00:16:39-04:00*%
%TF.ProjectId,board-D-smp,626f6172-642d-4442-9d73-6d702e6b6963,rev?*%
%TF.SameCoordinates,Original*%
%TF.FileFunction,Copper,L2,Inr*%
%TF.FilePolarity,Positive*%
%FSLAX46Y46*%
G04 Gerber Fmt 4.6, Leading zero omitted, Abs format (unit mm)*
G04 Created by KiCad (PCBNEW 10.0.3) date 2026-06-24 00:16:39*
%MOMM*%
%LPD*%
G01*
G04 APERTURE LIST*
%TA.AperFunction,ViaPad*%
%ADD10C,0.600000*%
%TD*%
G04 APERTURE END LIST*
D10*
%TO.N,SIPM_K21*%
X67800000Y-62000000D03*
%TO.N,GNDA*%
X77925000Y-127075000D03*
X35925000Y-127075000D03*
X41925000Y-12925000D03*
X53925000Y-127075000D03*
X41925000Y-127075000D03*
X77925000Y-12925000D03*
X53925000Y-12925000D03*
X17925000Y-127075000D03*
X65925000Y-127075000D03*
X17925000Y-12925000D03*
X29925000Y-127075000D03*
X11925000Y-12925000D03*
X47925000Y-12925000D03*
X59925000Y-12925000D03*
X65925000Y-12925000D03*
X29925000Y-12925000D03*
X59925000Y-127075000D03*
X11925000Y-127075000D03*
X47925000Y-127075000D03*
X35925000Y-12925000D03*
%TO.N,SIPM_K7*%
X67800000Y-118000000D03*
%TO.N,SIPM_K23*%
X51415000Y-63600000D03*
%TO.N,SIPM_K12*%
X25300000Y-66000000D03*
%TO.N,SIPM_K8*%
X25300000Y-106000000D03*
%TO.N,SIPM_K20*%
X67800000Y-54000000D03*
%TO.N,SIPM_K17*%
X67800000Y-30000000D03*
%TO.N,SIPM_K9*%
X25300000Y-90000000D03*
%TO.N,IV*%
X67800000Y-70000000D03*
%TO.N,SIPM_K3*%
X67800000Y-86000000D03*
%TO.N,SIPM_K4*%
X67800000Y-94000000D03*
%TO.N,SIPM_K11*%
X25300000Y-74000000D03*
%TO.N,SIPM_K16*%
X67800000Y-22000000D03*
%TO.N,SIPM_K0*%
X51415000Y-76400000D03*
%TO.N,SIPM_K14*%
X25300000Y-50000000D03*
%TO.N,SIPM_K22*%
X51415000Y-62000000D03*
%TO.N,SIPM_K15*%
X25300000Y-34000000D03*
%TO.N,SIPM_K18*%
X67800000Y-38000000D03*
%TO.N,SIPM_K1*%
X51415000Y-78000000D03*
%TO.N,SIPM_K10*%
X25300000Y-82000000D03*
%TO.N,SIPM_K19*%
X67800000Y-46000000D03*
%TO.N,SIPM_K2*%
X67800000Y-78000000D03*
%TO.N,SIPM_K5*%
X67800000Y-102000000D03*
%TO.N,SIPM_K13*%
X25300000Y-58000000D03*
%TO.N,SIPM_K6*%
X67800000Y-110000000D03*
%TD*%
%TA.AperFunction,Conductor*%
%TO.N,GNDA*%
G36*
X83542539Y-10520185D02*
G01*
X83588294Y-10572989D01*
X83599500Y-10624500D01*
X83599500Y-129375500D01*
X83579815Y-129442539D01*
X83527011Y-129488294D01*
X83475500Y-129499500D01*
X9624500Y-129499500D01*
X9557461Y-129479815D01*
X9511706Y-129427011D01*
X9500500Y-129375500D01*
X9500500Y-124878711D01*
X19449500Y-124878711D01*
X19449500Y-125121288D01*
X19481161Y-125361785D01*
X19543947Y-125596104D01*
X19636773Y-125820205D01*
X19636776Y-125820212D01*
X19758064Y-126030289D01*
X19758066Y-126030292D01*
X19758067Y-126030293D01*
X19905733Y-126222736D01*
X19905739Y-126222743D01*
X20077256Y-126394260D01*
X20077262Y-126394265D01*
X20269711Y-126541936D01*
X20479788Y-126663224D01*
X20703900Y-126756054D01*
X20938211Y-126818838D01*
X21118586Y-126842584D01*
X21178711Y-126850500D01*
X21178712Y-126850500D01*
X21421289Y-126850500D01*
X21469388Y-126844167D01*
X21661789Y-126818838D01*
X21896100Y-126756054D01*
X22120212Y-126663224D01*
X22330289Y-126541936D01*
X22522738Y-126394265D01*
X22694265Y-126222738D01*
X22841936Y-126030289D01*
X22963224Y-125820212D01*
X23056054Y-125596100D01*
X23118838Y-125361789D01*
X23150500Y-125121288D01*
X23150500Y-124878712D01*
X23150500Y-124878711D01*
X69949500Y-124878711D01*
X69949500Y-125121288D01*
X69981161Y-125361785D01*
X70043947Y-125596104D01*
X70136773Y-125820205D01*
X70136776Y-125820212D01*
X70258064Y-126030289D01*
X70258066Y-126030292D01*
X70258067Y-126030293D01*
X70405733Y-126222736D01*
X70405739Y-126222743D01*
X70577256Y-126394260D01*
X70577262Y-126394265D01*
X70769711Y-126541936D01*
X70979788Y-126663224D01*
X71203900Y-126756054D01*
X71438211Y-126818838D01*
X71618586Y-126842584D01*
X71678711Y-126850500D01*
X71678712Y-126850500D01*
X71921289Y-126850500D01*
X71969388Y-126844167D01*
X72161789Y-126818838D01*
X72396100Y-126756054D01*
X72620212Y-126663224D01*
X72830289Y-126541936D01*
X73022738Y-126394265D01*
X73194265Y-126222738D01*
X73341936Y-126030289D01*
X73463224Y-125820212D01*
X73556054Y-125596100D01*
X73618838Y-125361789D01*
X73650500Y-125121288D01*
X73650500Y-124878712D01*
X73618838Y-124638211D01*
X73556054Y-124403900D01*
X73463224Y-124179788D01*
X73341936Y-123969711D01*
X73194265Y-123777262D01*
X73194260Y-123777256D01*
X73022743Y-123605739D01*
X73022736Y-123605733D01*
X72830293Y-123458067D01*
X72830292Y-123458066D01*
X72830289Y-123458064D01*
X72620212Y-123336776D01*
X72620205Y-123336773D01*
X72396104Y-123243947D01*
X72161785Y-123181161D01*
X71921289Y-123149500D01*
X71921288Y-123149500D01*
X71678712Y-123149500D01*
X71678711Y-123149500D01*
X71438214Y-123181161D01*
X71203895Y-123243947D01*
X70979794Y-123336773D01*
X70979785Y-123336777D01*
X70769706Y-123458067D01*
X70577263Y-123605733D01*
X70577256Y-123605739D01*
X70405739Y-123777256D01*
X70405733Y-123777263D01*
X70258067Y-123969706D01*
X70136777Y-124179785D01*
X70136773Y-124179794D01*
X70043947Y-124403895D01*
X69981161Y-124638214D01*
X69949500Y-124878711D01*
X23150500Y-124878711D01*
X23118838Y-124638211D01*
X23056054Y-124403900D01*
X22963224Y-124179788D01*
X22841936Y-123969711D01*
X22694265Y-123777262D01*
X22694260Y-123777256D01*
X22522743Y-123605739D01*
X22522736Y-123605733D01*
X22330293Y-123458067D01*
X22330292Y-123458066D01*
X22330289Y-123458064D01*
X22120212Y-123336776D01*
X22120205Y-123336773D01*
X21896104Y-123243947D01*
X21661785Y-123181161D01*
X21421289Y-123149500D01*
X21421288Y-123149500D01*
X21178712Y-123149500D01*
X21178711Y-123149500D01*
X20938214Y-123181161D01*
X20703895Y-123243947D01*
X20479794Y-123336773D01*
X20479785Y-123336777D01*
X20269706Y-123458067D01*
X20077263Y-123605733D01*
X20077256Y-123605739D01*
X19905739Y-123777256D01*
X19905733Y-123777263D01*
X19758067Y-123969706D01*
X19636777Y-124179785D01*
X19636773Y-124179794D01*
X19543947Y-124403895D01*
X19481161Y-124638214D01*
X19449500Y-124878711D01*
X9500500Y-124878711D01*
X9500500Y-117920943D01*
X67199500Y-117920943D01*
X67199500Y-118079056D01*
X67240423Y-118231783D01*
X67240426Y-118231790D01*
X67319475Y-118368709D01*
X67319479Y-118368714D01*
X67319480Y-118368716D01*
X67431284Y-118480520D01*
X67431286Y-118480521D01*
X67431290Y-118480524D01*
X67568209Y-118559573D01*
X67568216Y-118559577D01*
X67720943Y-118600500D01*
X67720945Y-118600500D01*
X67879055Y-118600500D01*
X67879057Y-118600500D01*
X68031784Y-118559577D01*
X68168716Y-118480520D01*
X68280520Y-118368716D01*
X68359577Y-118231784D01*
X68400500Y-118079057D01*
X68400500Y-117920943D01*
X68359577Y-117768216D01*
X68359573Y-117768209D01*
X68280524Y-117631290D01*
X68280518Y-117631282D01*
X68168717Y-117519481D01*
X68168709Y-117519475D01*
X68031790Y-117440426D01*
X68031786Y-117440424D01*
X68031784Y-117440423D01*
X67879057Y-117399500D01*
X67720943Y-117399500D01*
X67568216Y-117440423D01*
X67568209Y-117440426D01*
X67431290Y-117519475D01*
X67431282Y-117519481D01*
X67319481Y-117631282D01*
X67319475Y-117631290D01*
X67240426Y-117768209D01*
X67240423Y-117768216D01*
X67199500Y-117920943D01*
X9500500Y-117920943D01*
X9500500Y-109920943D01*
X67199500Y-109920943D01*
X67199500Y-110079056D01*
X67240423Y-110231783D01*
X67240426Y-110231790D01*
X67319475Y-110368709D01*
X67319479Y-110368714D01*
X67319480Y-110368716D01*
X67431284Y-110480520D01*
X67431286Y-110480521D01*
X67431290Y-110480524D01*
X67568209Y-110559573D01*
X67568216Y-110559577D01*
X67720943Y-110600500D01*
X67720945Y-110600500D01*
X67879055Y-110600500D01*
X67879057Y-110600500D01*
X68031784Y-110559577D01*
X68168716Y-110480520D01*
X68280520Y-110368716D01*
X68359577Y-110231784D01*
X68400500Y-110079057D01*
X68400500Y-109920943D01*
X68359577Y-109768216D01*
X68359573Y-109768209D01*
X68280524Y-109631290D01*
X68280518Y-109631282D01*
X68168717Y-109519481D01*
X68168709Y-109519475D01*
X68031790Y-109440426D01*
X68031786Y-109440424D01*
X68031784Y-109440423D01*
X67879057Y-109399500D01*
X67720943Y-109399500D01*
X67568216Y-109440423D01*
X67568209Y-109440426D01*
X67431290Y-109519475D01*
X67431282Y-109519481D01*
X67319481Y-109631282D01*
X67319475Y-109631290D01*
X67240426Y-109768209D01*
X67240423Y-109768216D01*
X67199500Y-109920943D01*
X9500500Y-109920943D01*
X9500500Y-105920943D01*
X24699500Y-105920943D01*
X24699500Y-106079056D01*
X24740423Y-106231783D01*
X24740426Y-106231790D01*
X24819475Y-106368709D01*
X24819479Y-106368714D01*
X24819480Y-106368716D01*
X24931284Y-106480520D01*
X24931286Y-106480521D01*
X24931290Y-106480524D01*
X25068209Y-106559573D01*
X25068216Y-106559577D01*
X25220943Y-106600500D01*
X25220945Y-106600500D01*
X25379055Y-106600500D01*
X25379057Y-106600500D01*
X25531784Y-106559577D01*
X25668716Y-106480520D01*
X25780520Y-106368716D01*
X25859577Y-106231784D01*
X25900500Y-106079057D01*
X25900500Y-105920943D01*
X25859577Y-105768216D01*
X25859573Y-105768209D01*
X25780524Y-105631290D01*
X25780518Y-105631282D01*
X25668717Y-105519481D01*
X25668709Y-105519475D01*
X25531790Y-105440426D01*
X25531786Y-105440424D01*
X25531784Y-105440423D01*
X25379057Y-105399500D01*
X25220943Y-105399500D01*
X25068216Y-105440423D01*
X25068209Y-105440426D01*
X24931290Y-105519475D01*
X24931282Y-105519481D01*
X24819481Y-105631282D01*
X24819475Y-105631290D01*
X24740426Y-105768209D01*
X24740423Y-105768216D01*
X24699500Y-105920943D01*
X9500500Y-105920943D01*
X9500500Y-101920943D01*
X67199500Y-101920943D01*
X67199500Y-102079056D01*
X67240423Y-102231783D01*
X67240426Y-102231790D01*
X67319475Y-102368709D01*
X67319479Y-102368714D01*
X67319480Y-102368716D01*
X67431284Y-102480520D01*
X67431286Y-102480521D01*
X67431290Y-102480524D01*
X67568209Y-102559573D01*
X67568216Y-102559577D01*
X67720943Y-102600500D01*
X67720945Y-102600500D01*
X67879055Y-102600500D01*
X67879057Y-102600500D01*
X68031784Y-102559577D01*
X68168716Y-102480520D01*
X68280520Y-102368716D01*
X68359577Y-102231784D01*
X68400500Y-102079057D01*
X68400500Y-101920943D01*
X68359577Y-101768216D01*
X68359573Y-101768209D01*
X68280524Y-101631290D01*
X68280518Y-101631282D01*
X68168717Y-101519481D01*
X68168709Y-101519475D01*
X68031790Y-101440426D01*
X68031786Y-101440424D01*
X68031784Y-101440423D01*
X67879057Y-101399500D01*
X67720943Y-101399500D01*
X67568216Y-101440423D01*
X67568209Y-101440426D01*
X67431290Y-101519475D01*
X67431282Y-101519481D01*
X67319481Y-101631282D01*
X67319475Y-101631290D01*
X67240426Y-101768209D01*
X67240423Y-101768216D01*
X67199500Y-101920943D01*
X9500500Y-101920943D01*
X9500500Y-93920943D01*
X67199500Y-93920943D01*
X67199500Y-94079056D01*
X67240423Y-94231783D01*
X67240426Y-94231790D01*
X67319475Y-94368709D01*
X67319479Y-94368714D01*
X67319480Y-94368716D01*
X67431284Y-94480520D01*
X67431286Y-94480521D01*
X67431290Y-94480524D01*
X67568209Y-94559573D01*
X67568216Y-94559577D01*
X67720943Y-94600500D01*
X67720945Y-94600500D01*
X67879055Y-94600500D01*
X67879057Y-94600500D01*
X68031784Y-94559577D01*
X68168716Y-94480520D01*
X68280520Y-94368716D01*
X68359577Y-94231784D01*
X68400500Y-94079057D01*
X68400500Y-93920943D01*
X68359577Y-93768216D01*
X68359573Y-93768209D01*
X68280524Y-93631290D01*
X68280518Y-93631282D01*
X68168717Y-93519481D01*
X68168709Y-93519475D01*
X68031790Y-93440426D01*
X68031786Y-93440424D01*
X68031784Y-93440423D01*
X67879057Y-93399500D01*
X67720943Y-93399500D01*
X67568216Y-93440423D01*
X67568209Y-93440426D01*
X67431290Y-93519475D01*
X67431282Y-93519481D01*
X67319481Y-93631282D01*
X67319475Y-93631290D01*
X67240426Y-93768209D01*
X67240423Y-93768216D01*
X67199500Y-93920943D01*
X9500500Y-93920943D01*
X9500500Y-89920943D01*
X24699500Y-89920943D01*
X24699500Y-90079056D01*
X24740423Y-90231783D01*
X24740426Y-90231790D01*
X24819475Y-90368709D01*
X24819479Y-90368714D01*
X24819480Y-90368716D01*
X24931284Y-90480520D01*
X24931286Y-90480521D01*
X24931290Y-90480524D01*
X25051264Y-90549790D01*
X25068216Y-90559577D01*
X25220943Y-90600500D01*
X25220945Y-90600500D01*
X25379055Y-90600500D01*
X25379057Y-90600500D01*
X25531784Y-90559577D01*
X25668716Y-90480520D01*
X25780520Y-90368716D01*
X25859577Y-90231784D01*
X25900500Y-90079057D01*
X25900500Y-89990092D01*
X48459500Y-89990092D01*
X48459500Y-90139907D01*
X48488723Y-90286822D01*
X48488725Y-90286830D01*
X48546051Y-90425229D01*
X48546056Y-90425238D01*
X48629280Y-90549790D01*
X48629283Y-90549794D01*
X48735205Y-90655716D01*
X48735209Y-90655719D01*
X48859761Y-90738943D01*
X48859767Y-90738946D01*
X48859768Y-90738947D01*
X48998170Y-90796275D01*
X49145092Y-90825499D01*
X49145096Y-90825500D01*
X49145097Y-90825500D01*
X49294904Y-90825500D01*
X49294905Y-90825499D01*
X49441830Y-90796275D01*
X49580232Y-90738947D01*
X49704791Y-90655719D01*
X49810719Y-90549791D01*
X49893947Y-90425232D01*
X49951275Y-90286830D01*
X49980500Y-90139903D01*
X49980500Y-89990097D01*
X49951275Y-89843170D01*
X49893947Y-89704768D01*
X49893946Y-89704767D01*
X49893943Y-89704761D01*
X49810719Y-89580209D01*
X49810716Y-89580205D01*
X49704794Y-89474283D01*
X49704790Y-89474280D01*
X49580238Y-89391056D01*
X49580229Y-89391051D01*
X49441830Y-89333725D01*
X49441822Y-89333723D01*
X49294907Y-89304500D01*
X49294903Y-89304500D01*
X49145097Y-89304500D01*
X49145092Y-89304500D01*
X48998177Y-89333723D01*
X48998169Y-89333725D01*
X48859770Y-89391051D01*
X48859761Y-89391056D01*
X48735209Y-89474280D01*
X48735205Y-89474283D01*
X48629283Y-89580205D01*
X48629280Y-89580209D01*
X48546056Y-89704761D01*
X48546051Y-89704770D01*
X48488725Y-89843169D01*
X48488723Y-89843177D01*
X48459500Y-89990092D01*
X25900500Y-89990092D01*
X25900500Y-89920943D01*
X25859577Y-89768216D01*
X25822942Y-89704761D01*
X25780524Y-89631290D01*
X25780518Y-89631282D01*
X25668717Y-89519481D01*
X25668709Y-89519475D01*
X25531790Y-89440426D01*
X25531786Y-89440424D01*
X25531784Y-89440423D01*
X25379057Y-89399500D01*
X25220943Y-89399500D01*
X25068216Y-89440423D01*
X25068209Y-89440426D01*
X24931290Y-89519475D01*
X24931282Y-89519481D01*
X24819481Y-89631282D01*
X24819475Y-89631290D01*
X24740426Y-89768209D01*
X24740423Y-89768216D01*
X24699500Y-89920943D01*
X9500500Y-89920943D01*
X9500500Y-85920943D01*
X67199500Y-85920943D01*
X67199500Y-86079056D01*
X67240423Y-86231783D01*
X67240426Y-86231790D01*
X67319475Y-86368709D01*
X67319479Y-86368714D01*
X67319480Y-86368716D01*
X67431284Y-86480520D01*
X67431286Y-86480521D01*
X67431290Y-86480524D01*
X67568209Y-86559573D01*
X67568216Y-86559577D01*
X67720943Y-86600500D01*
X67720945Y-86600500D01*
X67879055Y-86600500D01*
X67879057Y-86600500D01*
X68031784Y-86559577D01*
X68168716Y-86480520D01*
X68280520Y-86368716D01*
X68359577Y-86231784D01*
X68400500Y-86079057D01*
X68400500Y-85920943D01*
X68359577Y-85768216D01*
X68359573Y-85768209D01*
X68280524Y-85631290D01*
X68280518Y-85631282D01*
X68168717Y-85519481D01*
X68168709Y-85519475D01*
X68031790Y-85440426D01*
X68031786Y-85440424D01*
X68031784Y-85440423D01*
X67879057Y-85399500D01*
X67720943Y-85399500D01*
X67568216Y-85440423D01*
X67568209Y-85440426D01*
X67431290Y-85519475D01*
X67431282Y-85519481D01*
X67319481Y-85631282D01*
X67319475Y-85631290D01*
X67240426Y-85768209D01*
X67240423Y-85768216D01*
X67199500Y-85920943D01*
X9500500Y-85920943D01*
X9500500Y-81920943D01*
X24699500Y-81920943D01*
X24699500Y-82079056D01*
X24740423Y-82231783D01*
X24740426Y-82231790D01*
X24819475Y-82368709D01*
X24819479Y-82368714D01*
X24819480Y-82368716D01*
X24931284Y-82480520D01*
X24931286Y-82480521D01*
X24931290Y-82480524D01*
X25068209Y-82559573D01*
X25068216Y-82559577D01*
X25220943Y-82600500D01*
X25220945Y-82600500D01*
X25379055Y-82600500D01*
X25379057Y-82600500D01*
X25531784Y-82559577D01*
X25668716Y-82480520D01*
X25780520Y-82368716D01*
X25859577Y-82231784D01*
X25900500Y-82079057D01*
X25900500Y-81920943D01*
X25859577Y-81768216D01*
X25859573Y-81768209D01*
X25780524Y-81631290D01*
X25780518Y-81631282D01*
X25668717Y-81519481D01*
X25668709Y-81519475D01*
X25531790Y-81440426D01*
X25531786Y-81440424D01*
X25531784Y-81440423D01*
X25379057Y-81399500D01*
X25220943Y-81399500D01*
X25068216Y-81440423D01*
X25068209Y-81440426D01*
X24931290Y-81519475D01*
X24931282Y-81519481D01*
X24819481Y-81631282D01*
X24819475Y-81631290D01*
X24740426Y-81768209D01*
X24740423Y-81768216D01*
X24699500Y-81920943D01*
X9500500Y-81920943D01*
X9500500Y-77920943D01*
X50814500Y-77920943D01*
X50814500Y-78079056D01*
X50855423Y-78231783D01*
X50855426Y-78231790D01*
X50934475Y-78368709D01*
X50934479Y-78368714D01*
X50934480Y-78368716D01*
X51046284Y-78480520D01*
X51046286Y-78480521D01*
X51046290Y-78480524D01*
X51183209Y-78559573D01*
X51183216Y-78559577D01*
X51335943Y-78600500D01*
X51335945Y-78600500D01*
X51494055Y-78600500D01*
X51494057Y-78600500D01*
X51646784Y-78559577D01*
X51783716Y-78480520D01*
X51895520Y-78368716D01*
X51974577Y-78231784D01*
X52015500Y-78079057D01*
X52015500Y-77920943D01*
X67199500Y-77920943D01*
X67199500Y-78079056D01*
X67240423Y-78231783D01*
X67240426Y-78231790D01*
X67319475Y-78368709D01*
X67319479Y-78368714D01*
X67319480Y-78368716D01*
X67431284Y-78480520D01*
X67431286Y-78480521D01*
X67431290Y-78480524D01*
X67568209Y-78559573D01*
X67568216Y-78559577D01*
X67720943Y-78600500D01*
X67720945Y-78600500D01*
X67879055Y-78600500D01*
X67879057Y-78600500D01*
X68031784Y-78559577D01*
X68168716Y-78480520D01*
X68280520Y-78368716D01*
X68359577Y-78231784D01*
X68400500Y-78079057D01*
X68400500Y-77920943D01*
X68359577Y-77768216D01*
X68359573Y-77768209D01*
X68280524Y-77631290D01*
X68280518Y-77631282D01*
X68168717Y-77519481D01*
X68168709Y-77519475D01*
X68031790Y-77440426D01*
X68031786Y-77440424D01*
X68031784Y-77440423D01*
X67879057Y-77399500D01*
X67720943Y-77399500D01*
X67568216Y-77440423D01*
X67568209Y-77440426D01*
X67431290Y-77519475D01*
X67431282Y-77519481D01*
X67319481Y-77631282D01*
X67319475Y-77631290D01*
X67240426Y-77768209D01*
X67240423Y-77768216D01*
X67199500Y-77920943D01*
X52015500Y-77920943D01*
X51974577Y-77768216D01*
X51974573Y-77768209D01*
X51895524Y-77631290D01*
X51895518Y-77631282D01*
X51783717Y-77519481D01*
X51783709Y-77519475D01*
X51646790Y-77440426D01*
X51646786Y-77440424D01*
X51646784Y-77440423D01*
X51494057Y-77399500D01*
X51335943Y-77399500D01*
X51183216Y-77440423D01*
X51183209Y-77440426D01*
X51046290Y-77519475D01*
X51046282Y-77519481D01*
X50934481Y-77631282D01*
X50934475Y-77631290D01*
X50855426Y-77768209D01*
X50855423Y-77768216D01*
X50814500Y-77920943D01*
X9500500Y-77920943D01*
X9500500Y-76320943D01*
X50814500Y-76320943D01*
X50814500Y-76479056D01*
X50855423Y-76631783D01*
X50855426Y-76631790D01*
X50934475Y-76768709D01*
X50934479Y-76768714D01*
X50934480Y-76768716D01*
X51046284Y-76880520D01*
X51046286Y-76880521D01*
X51046290Y-76880524D01*
X51183209Y-76959573D01*
X51183216Y-76959577D01*
X51335943Y-77000500D01*
X51335945Y-77000500D01*
X51494055Y-77000500D01*
X51494057Y-77000500D01*
X51646784Y-76959577D01*
X51783716Y-76880520D01*
X51895520Y-76768716D01*
X51974577Y-76631784D01*
X52015500Y-76479057D01*
X52015500Y-76320943D01*
X51974577Y-76168216D01*
X51974573Y-76168209D01*
X51895524Y-76031290D01*
X51895518Y-76031282D01*
X51783717Y-75919481D01*
X51783709Y-75919475D01*
X51646790Y-75840426D01*
X51646786Y-75840424D01*
X51646784Y-75840423D01*
X51494057Y-75799500D01*
X51335943Y-75799500D01*
X51183216Y-75840423D01*
X51183209Y-75840426D01*
X51046290Y-75919475D01*
X51046282Y-75919481D01*
X50934481Y-76031282D01*
X50934475Y-76031290D01*
X50855426Y-76168209D01*
X50855423Y-76168216D01*
X50814500Y-76320943D01*
X9500500Y-76320943D01*
X9500500Y-73920943D01*
X24699500Y-73920943D01*
X24699500Y-74079056D01*
X24740423Y-74231783D01*
X24740426Y-74231790D01*
X24819475Y-74368709D01*
X24819479Y-74368714D01*
X24819480Y-74368716D01*
X24931284Y-74480520D01*
X24931286Y-74480521D01*
X24931290Y-74480524D01*
X25068209Y-74559573D01*
X25068216Y-74559577D01*
X25220943Y-74600500D01*
X25220945Y-74600500D01*
X25379055Y-74600500D01*
X25379057Y-74600500D01*
X25531784Y-74559577D01*
X25668716Y-74480520D01*
X25780520Y-74368716D01*
X25859577Y-74231784D01*
X25900500Y-74079057D01*
X25900500Y-73920943D01*
X25859577Y-73768216D01*
X25859573Y-73768209D01*
X25780524Y-73631290D01*
X25780518Y-73631282D01*
X25668717Y-73519481D01*
X25668709Y-73519475D01*
X25531790Y-73440426D01*
X25531786Y-73440424D01*
X25531784Y-73440423D01*
X25379057Y-73399500D01*
X25220943Y-73399500D01*
X25068216Y-73440423D01*
X25068209Y-73440426D01*
X24931290Y-73519475D01*
X24931282Y-73519481D01*
X24819481Y-73631282D01*
X24819475Y-73631290D01*
X24740426Y-73768209D01*
X24740423Y-73768216D01*
X24699500Y-73920943D01*
X9500500Y-73920943D01*
X9500500Y-69920943D01*
X67199500Y-69920943D01*
X67199500Y-70079056D01*
X67240423Y-70231783D01*
X67240426Y-70231790D01*
X67319475Y-70368709D01*
X67319479Y-70368714D01*
X67319480Y-70368716D01*
X67431284Y-70480520D01*
X67431286Y-70480521D01*
X67431290Y-70480524D01*
X67568209Y-70559573D01*
X67568216Y-70559577D01*
X67720943Y-70600500D01*
X67720945Y-70600500D01*
X67879055Y-70600500D01*
X67879057Y-70600500D01*
X68031784Y-70559577D01*
X68168716Y-70480520D01*
X68280520Y-70368716D01*
X68359577Y-70231784D01*
X68400500Y-70079057D01*
X68400500Y-69920943D01*
X68359577Y-69768216D01*
X68359573Y-69768209D01*
X68280524Y-69631290D01*
X68280518Y-69631282D01*
X68168717Y-69519481D01*
X68168709Y-69519475D01*
X68031790Y-69440426D01*
X68031786Y-69440424D01*
X68031784Y-69440423D01*
X67879057Y-69399500D01*
X67720943Y-69399500D01*
X67568216Y-69440423D01*
X67568209Y-69440426D01*
X67431290Y-69519475D01*
X67431282Y-69519481D01*
X67319481Y-69631282D01*
X67319475Y-69631290D01*
X67240426Y-69768209D01*
X67240423Y-69768216D01*
X67199500Y-69920943D01*
X9500500Y-69920943D01*
X9500500Y-65920943D01*
X24699500Y-65920943D01*
X24699500Y-66079056D01*
X24740423Y-66231783D01*
X24740426Y-66231790D01*
X24819475Y-66368709D01*
X24819479Y-66368714D01*
X24819480Y-66368716D01*
X24931284Y-66480520D01*
X24931286Y-66480521D01*
X24931290Y-66480524D01*
X25068209Y-66559573D01*
X25068216Y-66559577D01*
X25220943Y-66600500D01*
X25220945Y-66600500D01*
X25379055Y-66600500D01*
X25379057Y-66600500D01*
X25531784Y-66559577D01*
X25668716Y-66480520D01*
X25780520Y-66368716D01*
X25859577Y-66231784D01*
X25900500Y-66079057D01*
X25900500Y-65920943D01*
X25859577Y-65768216D01*
X25859573Y-65768209D01*
X25780524Y-65631290D01*
X25780518Y-65631282D01*
X25668717Y-65519481D01*
X25668709Y-65519475D01*
X25531790Y-65440426D01*
X25531786Y-65440424D01*
X25531784Y-65440423D01*
X25379057Y-65399500D01*
X25220943Y-65399500D01*
X25068216Y-65440423D01*
X25068209Y-65440426D01*
X24931290Y-65519475D01*
X24931282Y-65519481D01*
X24819481Y-65631282D01*
X24819475Y-65631290D01*
X24740426Y-65768209D01*
X24740423Y-65768216D01*
X24699500Y-65920943D01*
X9500500Y-65920943D01*
X9500500Y-63520943D01*
X50814500Y-63520943D01*
X50814500Y-63679056D01*
X50855423Y-63831783D01*
X50855426Y-63831790D01*
X50934475Y-63968709D01*
X50934479Y-63968714D01*
X50934480Y-63968716D01*
X51046284Y-64080520D01*
X51046286Y-64080521D01*
X51046290Y-64080524D01*
X51183209Y-64159573D01*
X51183216Y-64159577D01*
X51335943Y-64200500D01*
X51335945Y-64200500D01*
X51494055Y-64200500D01*
X51494057Y-64200500D01*
X51646784Y-64159577D01*
X51783716Y-64080520D01*
X51895520Y-63968716D01*
X51974577Y-63831784D01*
X52015500Y-63679057D01*
X52015500Y-63520943D01*
X51974577Y-63368216D01*
X51974573Y-63368209D01*
X51895524Y-63231290D01*
X51895518Y-63231282D01*
X51783717Y-63119481D01*
X51783709Y-63119475D01*
X51646790Y-63040426D01*
X51646786Y-63040424D01*
X51646784Y-63040423D01*
X51494057Y-62999500D01*
X51335943Y-62999500D01*
X51183216Y-63040423D01*
X51183209Y-63040426D01*
X51046290Y-63119475D01*
X51046282Y-63119481D01*
X50934481Y-63231282D01*
X50934475Y-63231290D01*
X50855426Y-63368209D01*
X50855423Y-63368216D01*
X50814500Y-63520943D01*
X9500500Y-63520943D01*
X9500500Y-61920943D01*
X50814500Y-61920943D01*
X50814500Y-62079056D01*
X50855423Y-62231783D01*
X50855426Y-62231790D01*
X50934475Y-62368709D01*
X50934479Y-62368714D01*
X50934480Y-62368716D01*
X51046284Y-62480520D01*
X51046286Y-62480521D01*
X51046290Y-62480524D01*
X51183209Y-62559573D01*
X51183216Y-62559577D01*
X51335943Y-62600500D01*
X51335945Y-62600500D01*
X51494055Y-62600500D01*
X51494057Y-62600500D01*
X51646784Y-62559577D01*
X51783716Y-62480520D01*
X51895520Y-62368716D01*
X51974577Y-62231784D01*
X52015500Y-62079057D01*
X52015500Y-61920943D01*
X67199500Y-61920943D01*
X67199500Y-62079056D01*
X67240423Y-62231783D01*
X67240426Y-62231790D01*
X67319475Y-62368709D01*
X67319479Y-62368714D01*
X67319480Y-62368716D01*
X67431284Y-62480520D01*
X67431286Y-62480521D01*
X67431290Y-62480524D01*
X67568209Y-62559573D01*
X67568216Y-62559577D01*
X67720943Y-62600500D01*
X67720945Y-62600500D01*
X67879055Y-62600500D01*
X67879057Y-62600500D01*
X68031784Y-62559577D01*
X68168716Y-62480520D01*
X68280520Y-62368716D01*
X68359577Y-62231784D01*
X68400500Y-62079057D01*
X68400500Y-61920943D01*
X68359577Y-61768216D01*
X68359573Y-61768209D01*
X68280524Y-61631290D01*
X68280518Y-61631282D01*
X68168717Y-61519481D01*
X68168709Y-61519475D01*
X68031790Y-61440426D01*
X68031786Y-61440424D01*
X68031784Y-61440423D01*
X67879057Y-61399500D01*
X67720943Y-61399500D01*
X67568216Y-61440423D01*
X67568209Y-61440426D01*
X67431290Y-61519475D01*
X67431282Y-61519481D01*
X67319481Y-61631282D01*
X67319475Y-61631290D01*
X67240426Y-61768209D01*
X67240423Y-61768216D01*
X67199500Y-61920943D01*
X52015500Y-61920943D01*
X51974577Y-61768216D01*
X51974573Y-61768209D01*
X51895524Y-61631290D01*
X51895518Y-61631282D01*
X51783717Y-61519481D01*
X51783709Y-61519475D01*
X51646790Y-61440426D01*
X51646786Y-61440424D01*
X51646784Y-61440423D01*
X51494057Y-61399500D01*
X51335943Y-61399500D01*
X51183216Y-61440423D01*
X51183209Y-61440426D01*
X51046290Y-61519475D01*
X51046282Y-61519481D01*
X50934481Y-61631282D01*
X50934475Y-61631290D01*
X50855426Y-61768209D01*
X50855423Y-61768216D01*
X50814500Y-61920943D01*
X9500500Y-61920943D01*
X9500500Y-57920943D01*
X24699500Y-57920943D01*
X24699500Y-58079056D01*
X24740423Y-58231783D01*
X24740426Y-58231790D01*
X24819475Y-58368709D01*
X24819479Y-58368714D01*
X24819480Y-58368716D01*
X24931284Y-58480520D01*
X24931286Y-58480521D01*
X24931290Y-58480524D01*
X25068209Y-58559573D01*
X25068216Y-58559577D01*
X25220943Y-58600500D01*
X25220945Y-58600500D01*
X25379055Y-58600500D01*
X25379057Y-58600500D01*
X25531784Y-58559577D01*
X25668716Y-58480520D01*
X25780520Y-58368716D01*
X25859577Y-58231784D01*
X25900500Y-58079057D01*
X25900500Y-57920943D01*
X25859577Y-57768216D01*
X25859573Y-57768209D01*
X25780524Y-57631290D01*
X25780518Y-57631282D01*
X25668717Y-57519481D01*
X25668709Y-57519475D01*
X25531790Y-57440426D01*
X25531786Y-57440424D01*
X25531784Y-57440423D01*
X25379057Y-57399500D01*
X25220943Y-57399500D01*
X25068216Y-57440423D01*
X25068209Y-57440426D01*
X24931290Y-57519475D01*
X24931282Y-57519481D01*
X24819481Y-57631282D01*
X24819475Y-57631290D01*
X24740426Y-57768209D01*
X24740423Y-57768216D01*
X24699500Y-57920943D01*
X9500500Y-57920943D01*
X9500500Y-53920943D01*
X67199500Y-53920943D01*
X67199500Y-54079056D01*
X67240423Y-54231783D01*
X67240426Y-54231790D01*
X67319475Y-54368709D01*
X67319479Y-54368714D01*
X67319480Y-54368716D01*
X67431284Y-54480520D01*
X67431286Y-54480521D01*
X67431290Y-54480524D01*
X67568209Y-54559573D01*
X67568216Y-54559577D01*
X67720943Y-54600500D01*
X67720945Y-54600500D01*
X67879055Y-54600500D01*
X67879057Y-54600500D01*
X68031784Y-54559577D01*
X68168716Y-54480520D01*
X68280520Y-54368716D01*
X68359577Y-54231784D01*
X68400500Y-54079057D01*
X68400500Y-53920943D01*
X68359577Y-53768216D01*
X68359573Y-53768209D01*
X68280524Y-53631290D01*
X68280518Y-53631282D01*
X68168717Y-53519481D01*
X68168709Y-53519475D01*
X68031790Y-53440426D01*
X68031786Y-53440424D01*
X68031784Y-53440423D01*
X67879057Y-53399500D01*
X67720943Y-53399500D01*
X67568216Y-53440423D01*
X67568209Y-53440426D01*
X67431290Y-53519475D01*
X67431282Y-53519481D01*
X67319481Y-53631282D01*
X67319475Y-53631290D01*
X67240426Y-53768209D01*
X67240423Y-53768216D01*
X67199500Y-53920943D01*
X9500500Y-53920943D01*
X9500500Y-49920943D01*
X24699500Y-49920943D01*
X24699500Y-50079056D01*
X24740423Y-50231783D01*
X24740426Y-50231790D01*
X24819475Y-50368709D01*
X24819479Y-50368714D01*
X24819480Y-50368716D01*
X24931284Y-50480520D01*
X24931286Y-50480521D01*
X24931290Y-50480524D01*
X25068209Y-50559573D01*
X25068216Y-50559577D01*
X25220943Y-50600500D01*
X25220945Y-50600500D01*
X25379055Y-50600500D01*
X25379057Y-50600500D01*
X25531784Y-50559577D01*
X25668716Y-50480520D01*
X25780520Y-50368716D01*
X25859577Y-50231784D01*
X25900500Y-50079057D01*
X25900500Y-49920943D01*
X25884195Y-49860092D01*
X48459500Y-49860092D01*
X48459500Y-50009907D01*
X48488723Y-50156822D01*
X48488725Y-50156830D01*
X48546051Y-50295229D01*
X48546056Y-50295238D01*
X48629280Y-50419790D01*
X48629283Y-50419794D01*
X48735205Y-50525716D01*
X48735209Y-50525719D01*
X48859761Y-50608943D01*
X48859767Y-50608946D01*
X48859768Y-50608947D01*
X48998170Y-50666275D01*
X49145092Y-50695499D01*
X49145096Y-50695500D01*
X49145097Y-50695500D01*
X49294904Y-50695500D01*
X49294905Y-50695499D01*
X49441830Y-50666275D01*
X49580232Y-50608947D01*
X49704791Y-50525719D01*
X49810719Y-50419791D01*
X49893947Y-50295232D01*
X49951275Y-50156830D01*
X49980500Y-50009903D01*
X49980500Y-49860097D01*
X49951275Y-49713170D01*
X49893947Y-49574768D01*
X49893946Y-49574767D01*
X49893943Y-49574761D01*
X49810719Y-49450209D01*
X49810716Y-49450205D01*
X49704794Y-49344283D01*
X49704790Y-49344280D01*
X49580238Y-49261056D01*
X49580229Y-49261051D01*
X49441830Y-49203725D01*
X49441822Y-49203723D01*
X49294907Y-49174500D01*
X49294903Y-49174500D01*
X49145097Y-49174500D01*
X49145092Y-49174500D01*
X48998177Y-49203723D01*
X48998169Y-49203725D01*
X48859770Y-49261051D01*
X48859761Y-49261056D01*
X48735209Y-49344280D01*
X48735205Y-49344283D01*
X48629283Y-49450205D01*
X48629280Y-49450209D01*
X48546056Y-49574761D01*
X48546051Y-49574770D01*
X48488725Y-49713169D01*
X48488723Y-49713177D01*
X48459500Y-49860092D01*
X25884195Y-49860092D01*
X25859577Y-49768216D01*
X25827801Y-49713177D01*
X25780524Y-49631290D01*
X25780518Y-49631282D01*
X25668717Y-49519481D01*
X25668709Y-49519475D01*
X25531790Y-49440426D01*
X25531786Y-49440424D01*
X25531784Y-49440423D01*
X25379057Y-49399500D01*
X25220943Y-49399500D01*
X25068216Y-49440423D01*
X25068209Y-49440426D01*
X24931290Y-49519475D01*
X24931282Y-49519481D01*
X24819481Y-49631282D01*
X24819475Y-49631290D01*
X24740426Y-49768209D01*
X24740423Y-49768216D01*
X24699500Y-49920943D01*
X9500500Y-49920943D01*
X9500500Y-45920943D01*
X67199500Y-45920943D01*
X67199500Y-46079056D01*
X67240423Y-46231783D01*
X67240426Y-46231790D01*
X67319475Y-46368709D01*
X67319479Y-46368714D01*
X67319480Y-46368716D01*
X67431284Y-46480520D01*
X67431286Y-46480521D01*
X67431290Y-46480524D01*
X67568209Y-46559573D01*
X67568216Y-46559577D01*
X67720943Y-46600500D01*
X67720945Y-46600500D01*
X67879055Y-46600500D01*
X67879057Y-46600500D01*
X68031784Y-46559577D01*
X68168716Y-46480520D01*
X68280520Y-46368716D01*
X68359577Y-46231784D01*
X68400500Y-46079057D01*
X68400500Y-45920943D01*
X68359577Y-45768216D01*
X68359573Y-45768209D01*
X68280524Y-45631290D01*
X68280518Y-45631282D01*
X68168717Y-45519481D01*
X68168709Y-45519475D01*
X68031790Y-45440426D01*
X68031786Y-45440424D01*
X68031784Y-45440423D01*
X67879057Y-45399500D01*
X67720943Y-45399500D01*
X67568216Y-45440423D01*
X67568209Y-45440426D01*
X67431290Y-45519475D01*
X67431282Y-45519481D01*
X67319481Y-45631282D01*
X67319475Y-45631290D01*
X67240426Y-45768209D01*
X67240423Y-45768216D01*
X67199500Y-45920943D01*
X9500500Y-45920943D01*
X9500500Y-37920943D01*
X67199500Y-37920943D01*
X67199500Y-38079056D01*
X67240423Y-38231783D01*
X67240426Y-38231790D01*
X67319475Y-38368709D01*
X67319479Y-38368714D01*
X67319480Y-38368716D01*
X67431284Y-38480520D01*
X67431286Y-38480521D01*
X67431290Y-38480524D01*
X67568209Y-38559573D01*
X67568216Y-38559577D01*
X67720943Y-38600500D01*
X67720945Y-38600500D01*
X67879055Y-38600500D01*
X67879057Y-38600500D01*
X68031784Y-38559577D01*
X68168716Y-38480520D01*
X68280520Y-38368716D01*
X68359577Y-38231784D01*
X68400500Y-38079057D01*
X68400500Y-37920943D01*
X68359577Y-37768216D01*
X68359573Y-37768209D01*
X68280524Y-37631290D01*
X68280518Y-37631282D01*
X68168717Y-37519481D01*
X68168709Y-37519475D01*
X68031790Y-37440426D01*
X68031786Y-37440424D01*
X68031784Y-37440423D01*
X67879057Y-37399500D01*
X67720943Y-37399500D01*
X67568216Y-37440423D01*
X67568209Y-37440426D01*
X67431290Y-37519475D01*
X67431282Y-37519481D01*
X67319481Y-37631282D01*
X67319475Y-37631290D01*
X67240426Y-37768209D01*
X67240423Y-37768216D01*
X67199500Y-37920943D01*
X9500500Y-37920943D01*
X9500500Y-33920943D01*
X24699500Y-33920943D01*
X24699500Y-34079056D01*
X24740423Y-34231783D01*
X24740426Y-34231790D01*
X24819475Y-34368709D01*
X24819479Y-34368714D01*
X24819480Y-34368716D01*
X24931284Y-34480520D01*
X24931286Y-34480521D01*
X24931290Y-34480524D01*
X25068209Y-34559573D01*
X25068216Y-34559577D01*
X25220943Y-34600500D01*
X25220945Y-34600500D01*
X25379055Y-34600500D01*
X25379057Y-34600500D01*
X25531784Y-34559577D01*
X25668716Y-34480520D01*
X25780520Y-34368716D01*
X25859577Y-34231784D01*
X25900500Y-34079057D01*
X25900500Y-33920943D01*
X25859577Y-33768216D01*
X25859573Y-33768209D01*
X25780524Y-33631290D01*
X25780518Y-33631282D01*
X25668717Y-33519481D01*
X25668709Y-33519475D01*
X25531790Y-33440426D01*
X25531786Y-33440424D01*
X25531784Y-33440423D01*
X25379057Y-33399500D01*
X25220943Y-33399500D01*
X25068216Y-33440423D01*
X25068209Y-33440426D01*
X24931290Y-33519475D01*
X24931282Y-33519481D01*
X24819481Y-33631282D01*
X24819475Y-33631290D01*
X24740426Y-33768209D01*
X24740423Y-33768216D01*
X24699500Y-33920943D01*
X9500500Y-33920943D01*
X9500500Y-29920943D01*
X67199500Y-29920943D01*
X67199500Y-30079056D01*
X67240423Y-30231783D01*
X67240426Y-30231790D01*
X67319475Y-30368709D01*
X67319479Y-30368714D01*
X67319480Y-30368716D01*
X67431284Y-30480520D01*
X67431286Y-30480521D01*
X67431290Y-30480524D01*
X67568209Y-30559573D01*
X67568216Y-30559577D01*
X67720943Y-30600500D01*
X67720945Y-30600500D01*
X67879055Y-30600500D01*
X67879057Y-30600500D01*
X68031784Y-30559577D01*
X68168716Y-30480520D01*
X68280520Y-30368716D01*
X68359577Y-30231784D01*
X68400500Y-30079057D01*
X68400500Y-29920943D01*
X68359577Y-29768216D01*
X68359573Y-29768209D01*
X68280524Y-29631290D01*
X68280518Y-29631282D01*
X68168717Y-29519481D01*
X68168709Y-29519475D01*
X68031790Y-29440426D01*
X68031786Y-29440424D01*
X68031784Y-29440423D01*
X67879057Y-29399500D01*
X67720943Y-29399500D01*
X67568216Y-29440423D01*
X67568209Y-29440426D01*
X67431290Y-29519475D01*
X67431282Y-29519481D01*
X67319481Y-29631282D01*
X67319475Y-29631290D01*
X67240426Y-29768209D01*
X67240423Y-29768216D01*
X67199500Y-29920943D01*
X9500500Y-29920943D01*
X9500500Y-21920943D01*
X67199500Y-21920943D01*
X67199500Y-22079056D01*
X67240423Y-22231783D01*
X67240426Y-22231790D01*
X67319475Y-22368709D01*
X67319479Y-22368714D01*
X67319480Y-22368716D01*
X67431284Y-22480520D01*
X67431286Y-22480521D01*
X67431290Y-22480524D01*
X67568209Y-22559573D01*
X67568216Y-22559577D01*
X67720943Y-22600500D01*
X67720945Y-22600500D01*
X67879055Y-22600500D01*
X67879057Y-22600500D01*
X68031784Y-22559577D01*
X68168716Y-22480520D01*
X68280520Y-22368716D01*
X68359577Y-22231784D01*
X68400500Y-22079057D01*
X68400500Y-21920943D01*
X68359577Y-21768216D01*
X68359573Y-21768209D01*
X68280524Y-21631290D01*
X68280518Y-21631282D01*
X68168717Y-21519481D01*
X68168709Y-21519475D01*
X68031790Y-21440426D01*
X68031786Y-21440424D01*
X68031784Y-21440423D01*
X67879057Y-21399500D01*
X67720943Y-21399500D01*
X67568216Y-21440423D01*
X67568209Y-21440426D01*
X67431290Y-21519475D01*
X67431282Y-21519481D01*
X67319481Y-21631282D01*
X67319475Y-21631290D01*
X67240426Y-21768209D01*
X67240423Y-21768216D01*
X67199500Y-21920943D01*
X9500500Y-21920943D01*
X9500500Y-14878711D01*
X19449500Y-14878711D01*
X19449500Y-15121288D01*
X19481161Y-15361785D01*
X19543947Y-15596104D01*
X19636773Y-15820205D01*
X19636776Y-15820212D01*
X19758064Y-16030289D01*
X19758066Y-16030292D01*
X19758067Y-16030293D01*
X19905733Y-16222736D01*
X19905739Y-16222743D01*
X20077256Y-16394260D01*
X20077262Y-16394265D01*
X20269711Y-16541936D01*
X20479788Y-16663224D01*
X20703900Y-16756054D01*
X20938211Y-16818838D01*
X21118586Y-16842584D01*
X21178711Y-16850500D01*
X21178712Y-16850500D01*
X21421289Y-16850500D01*
X21469388Y-16844167D01*
X21661789Y-16818838D01*
X21896100Y-16756054D01*
X22120212Y-16663224D01*
X22330289Y-16541936D01*
X22522738Y-16394265D01*
X22694265Y-16222738D01*
X22841936Y-16030289D01*
X22963224Y-15820212D01*
X23056054Y-15596100D01*
X23118838Y-15361789D01*
X23150500Y-15121288D01*
X23150500Y-14878712D01*
X23150500Y-14878711D01*
X69949500Y-14878711D01*
X69949500Y-15121288D01*
X69981161Y-15361785D01*
X70043947Y-15596104D01*
X70136773Y-15820205D01*
X70136776Y-15820212D01*
X70258064Y-16030289D01*
X70258066Y-16030292D01*
X70258067Y-16030293D01*
X70405733Y-16222736D01*
X70405739Y-16222743D01*
X70577256Y-16394260D01*
X70577262Y-16394265D01*
X70769711Y-16541936D01*
X70979788Y-16663224D01*
X71203900Y-16756054D01*
X71438211Y-16818838D01*
X71618586Y-16842584D01*
X71678711Y-16850500D01*
X71678712Y-16850500D01*
X71921289Y-16850500D01*
X71969388Y-16844167D01*
X72161789Y-16818838D01*
X72396100Y-16756054D01*
X72620212Y-16663224D01*
X72830289Y-16541936D01*
X73022738Y-16394265D01*
X73194265Y-16222738D01*
X73341936Y-16030289D01*
X73463224Y-15820212D01*
X73556054Y-15596100D01*
X73618838Y-15361789D01*
X73650500Y-15121288D01*
X73650500Y-14878712D01*
X73618838Y-14638211D01*
X73556054Y-14403900D01*
X73463224Y-14179788D01*
X73341936Y-13969711D01*
X73194265Y-13777262D01*
X73194260Y-13777256D01*
X73022743Y-13605739D01*
X73022736Y-13605733D01*
X72830293Y-13458067D01*
X72830292Y-13458066D01*
X72830289Y-13458064D01*
X72620212Y-13336776D01*
X72620205Y-13336773D01*
X72396104Y-13243947D01*
X72161785Y-13181161D01*
X71921289Y-13149500D01*
X71921288Y-13149500D01*
X71678712Y-13149500D01*
X71678711Y-13149500D01*
X71438214Y-13181161D01*
X71203895Y-13243947D01*
X70979794Y-13336773D01*
X70979785Y-13336777D01*
X70769706Y-13458067D01*
X70577263Y-13605733D01*
X70577256Y-13605739D01*
X70405739Y-13777256D01*
X70405733Y-13777263D01*
X70258067Y-13969706D01*
X70136777Y-14179785D01*
X70136773Y-14179794D01*
X70043947Y-14403895D01*
X69981161Y-14638214D01*
X69949500Y-14878711D01*
X23150500Y-14878711D01*
X23118838Y-14638211D01*
X23056054Y-14403900D01*
X22963224Y-14179788D01*
X22841936Y-13969711D01*
X22694265Y-13777262D01*
X22694260Y-13777256D01*
X22522743Y-13605739D01*
X22522736Y-13605733D01*
X22330293Y-13458067D01*
X22330292Y-13458066D01*
X22330289Y-13458064D01*
X22120212Y-13336776D01*
X22120205Y-13336773D01*
X21896104Y-13243947D01*
X21661785Y-13181161D01*
X21421289Y-13149500D01*
X21421288Y-13149500D01*
X21178712Y-13149500D01*
X21178711Y-13149500D01*
X20938214Y-13181161D01*
X20703895Y-13243947D01*
X20479794Y-13336773D01*
X20479785Y-13336777D01*
X20269706Y-13458067D01*
X20077263Y-13605733D01*
X20077256Y-13605739D01*
X19905739Y-13777256D01*
X19905733Y-13777263D01*
X19758067Y-13969706D01*
X19636777Y-14179785D01*
X19636773Y-14179794D01*
X19543947Y-14403895D01*
X19481161Y-14638214D01*
X19449500Y-14878711D01*
X9500500Y-14878711D01*
X9500500Y-10624500D01*
X9520185Y-10557461D01*
X9572989Y-10511706D01*
X9624500Y-10500500D01*
X83475500Y-10500500D01*
X83542539Y-10520185D01*
G37*
%TD.AperFunction*%
%TD*%
M02*
