%TF.GenerationSoftware,KiCad,Pcbnew,10.0.3*%
%TF.CreationDate,2026-06-22T23:05:32-04:00*%
%TF.ProjectId,board-D-smp,626f6172-642d-4442-9d73-6d702e6b6963,rev?*%
%TF.SameCoordinates,Original*%
%TF.FileFunction,Copper,L4,Bot*%
%TF.FilePolarity,Positive*%
%FSLAX46Y46*%
G04 Gerber Fmt 4.6, Leading zero omitted, Abs format (unit mm)*
G04 Created by KiCad (PCBNEW 10.0.3) date 2026-06-22 23:05:32*
%MOMM*%
%LPD*%
G01*
G04 APERTURE LIST*
%TA.AperFunction,SMDPad,CuDef*%
%ADD10R,2.270000X0.410000*%
%TD*%
%TA.AperFunction,SMDPad,CuDef*%
%ADD11R,0.430000X2.540000*%
%TD*%
%TA.AperFunction,SMDPad,CuDef*%
%ADD12R,0.430000X4.700000*%
%TD*%
%TA.AperFunction,ViaPad*%
%ADD13C,0.600000*%
%TD*%
%TA.AperFunction,Conductor*%
%ADD14C,0.340000*%
%TD*%
G04 APERTURE END LIST*
D10*
%TO.P,J5,01*%
%TO.N,GNDA*%
X42985000Y-83585000D03*
%TO.P,J5,02*%
%TO.N,SIPM_K7*%
X48715000Y-83585000D03*
%TO.P,J5,03*%
%TO.N,GNDA*%
X42985000Y-82785000D03*
%TO.P,J5,04*%
X48715000Y-82785000D03*
%TO.P,J5,05*%
X42985000Y-81985000D03*
%TO.P,J5,06*%
%TO.N,SIPM_K6*%
X48715000Y-81985000D03*
%TO.P,J5,07*%
%TO.N,GNDA*%
X42985000Y-81185000D03*
%TO.P,J5,08*%
X48715000Y-81185000D03*
%TO.P,J5,09*%
X42985000Y-80385000D03*
%TO.P,J5,10*%
%TO.N,SIPM_K5*%
X48715000Y-80385000D03*
%TO.P,J5,11*%
%TO.N,GNDA*%
X42985000Y-79585000D03*
%TO.P,J5,12*%
X48715000Y-79585000D03*
%TO.P,J5,13*%
X42985000Y-78785000D03*
%TO.P,J5,14*%
%TO.N,SIPM_K4*%
X48715000Y-78785000D03*
%TO.P,J5,15*%
%TO.N,GNDA*%
X42985000Y-77985000D03*
%TO.P,J5,16*%
X48715000Y-77985000D03*
%TO.P,J5,17*%
X42985000Y-77185000D03*
%TO.P,J5,18*%
%TO.N,SIPM_K3*%
X48715000Y-77185000D03*
%TO.P,J5,19*%
%TO.N,GNDA*%
X42985000Y-76385000D03*
%TO.P,J5,20*%
X48715000Y-76385000D03*
%TO.P,J5,21*%
X42985000Y-75585000D03*
%TO.P,J5,22*%
%TO.N,SIPM_K2*%
X48715000Y-75585000D03*
%TO.P,J5,23*%
%TO.N,GNDA*%
X42985000Y-74785000D03*
%TO.P,J5,24*%
X48715000Y-74785000D03*
%TO.P,J5,25*%
X42985000Y-73985000D03*
%TO.P,J5,26*%
%TO.N,SIPM_K1*%
X48715000Y-73985000D03*
%TO.P,J5,27*%
%TO.N,SIPM_K8*%
X42985000Y-73185000D03*
%TO.P,J5,28*%
%TO.N,GNDA*%
X48715000Y-73185000D03*
%TO.P,J5,29*%
X42985000Y-72385000D03*
%TO.P,J5,30*%
%TO.N,SIPM_K0*%
X48715000Y-72385000D03*
%TO.P,J5,31*%
%TO.N,SIPM_K9*%
X42985000Y-71585000D03*
%TO.P,J5,32*%
%TO.N,GNDA*%
X48715000Y-71585000D03*
%TO.P,J5,33*%
X42985000Y-70785000D03*
%TO.P,J5,34*%
X48715000Y-70785000D03*
%TO.P,J5,35*%
%TO.N,SIPM_K10*%
X42985000Y-69985000D03*
%TO.P,J5,36*%
%TO.N,GNDA*%
X48715000Y-69985000D03*
%TO.P,J5,37*%
X42985000Y-69185000D03*
%TO.P,J5,38*%
X48715000Y-69185000D03*
%TO.P,J5,39*%
%TO.N,SIPM_K11*%
X42985000Y-68385000D03*
%TO.P,J5,40*%
%TO.N,IV*%
X48715000Y-68385000D03*
%TO.P,J5,41*%
%TO.N,SIPM_K12*%
X42985000Y-63585000D03*
%TO.P,J5,42*%
%TO.N,IV*%
X48715000Y-63585000D03*
%TO.P,J5,43*%
%TO.N,GNDA*%
X42985000Y-62785000D03*
%TO.P,J5,44*%
X48715000Y-62785000D03*
%TO.P,J5,45*%
%TO.N,SIPM_K13*%
X42985000Y-61985000D03*
%TO.P,J5,46*%
%TO.N,GNDA*%
X48715000Y-61985000D03*
%TO.P,J5,47*%
X42985000Y-61185000D03*
%TO.P,J5,48*%
X48715000Y-61185000D03*
%TO.P,J5,49*%
%TO.N,SIPM_K14*%
X42985000Y-60385000D03*
%TO.P,J5,50*%
%TO.N,GNDA*%
X48715000Y-60385000D03*
%TO.P,J5,51*%
X42985000Y-59585000D03*
%TO.P,J5,52*%
%TO.N,SIPM_K23*%
X48715000Y-59585000D03*
%TO.P,J5,53*%
%TO.N,SIPM_K15*%
X42985000Y-58785000D03*
%TO.P,J5,54*%
%TO.N,GNDA*%
X48715000Y-58785000D03*
%TO.P,J5,55*%
X42985000Y-57985000D03*
%TO.P,J5,56*%
%TO.N,SIPM_K22*%
X48715000Y-57985000D03*
%TO.P,J5,57*%
%TO.N,GNDA*%
X42985000Y-57185000D03*
%TO.P,J5,58*%
X48715000Y-57185000D03*
%TO.P,J5,59*%
X42985000Y-56385000D03*
%TO.P,J5,60*%
%TO.N,SIPM_K21*%
X48715000Y-56385000D03*
%TO.P,J5,61*%
%TO.N,GNDA*%
X42985000Y-55585000D03*
%TO.P,J5,62*%
X48715000Y-55585000D03*
%TO.P,J5,63*%
X42985000Y-54785000D03*
%TO.P,J5,64*%
%TO.N,SIPM_K20*%
X48715000Y-54785000D03*
%TO.P,J5,65*%
%TO.N,GNDA*%
X42985000Y-53985000D03*
%TO.P,J5,66*%
X48715000Y-53985000D03*
%TO.P,J5,67*%
X42985000Y-53185000D03*
%TO.P,J5,68*%
%TO.N,SIPM_K19*%
X48715000Y-53185000D03*
%TO.P,J5,69*%
%TO.N,GNDA*%
X42985000Y-52385000D03*
%TO.P,J5,70*%
X48715000Y-52385000D03*
%TO.P,J5,71*%
X42985000Y-51585000D03*
%TO.P,J5,72*%
%TO.N,SIPM_K18*%
X48715000Y-51585000D03*
%TO.P,J5,73*%
%TO.N,GNDA*%
X42985000Y-50785000D03*
%TO.P,J5,74*%
X48715000Y-50785000D03*
%TO.P,J5,75*%
X42985000Y-49985000D03*
%TO.P,J5,76*%
%TO.N,SIPM_K17*%
X48715000Y-49985000D03*
%TO.P,J5,77*%
%TO.N,THERM4*%
X42985000Y-49185000D03*
%TO.P,J5,78*%
%TO.N,GNDA*%
X48715000Y-49185000D03*
%TO.P,J5,79*%
%TO.N,THERM5*%
X42985000Y-48385000D03*
%TO.P,J5,80*%
%TO.N,SIPM_K16*%
X48715000Y-48385000D03*
D11*
%TO.P,J5,G1*%
%TO.N,GNDA*%
X45850000Y-84050000D03*
D12*
%TO.P,J5,G2*%
X45850000Y-79160000D03*
%TO.P,J5,G3*%
X45850000Y-72810000D03*
D11*
%TO.P,J5,G4*%
X45850000Y-67920000D03*
%TO.P,J5,G5*%
X45850000Y-64050000D03*
D12*
%TO.P,J5,G6*%
X45850000Y-59160000D03*
%TO.P,J5,G7*%
X45850000Y-52810000D03*
D11*
%TO.P,J5,G8*%
X45850000Y-47920000D03*
%TD*%
D13*
%TO.N,SIPM_K19*%
X74715000Y-44985000D03*
%TO.N,GNDA*%
X29925000Y-12925000D03*
X65925000Y-119045000D03*
X59925000Y-12925000D03*
X41925000Y-119045000D03*
X11925000Y-119045000D03*
X29925000Y-119045000D03*
X11925000Y-12925000D03*
X77925000Y-119045000D03*
X65925000Y-12925000D03*
X53925000Y-119045000D03*
X35925000Y-119045000D03*
X77925000Y-12925000D03*
X23925000Y-12925000D03*
X53925000Y-12925000D03*
X35925000Y-12925000D03*
X59925000Y-119045000D03*
X23925000Y-119045000D03*
X41925000Y-12925000D03*
X47925000Y-119045000D03*
X47925000Y-12925000D03*
%TO.N,SIPM_K16*%
X74715000Y-23985000D03*
%TO.N,SIPM_K20*%
X74715000Y-51985000D03*
%TO.N,SIPM_K8*%
X16985000Y-97485000D03*
%TO.N,SIPM_K22*%
X16985000Y-27485000D03*
X20985000Y-27485000D03*
X50715000Y-57985000D03*
%TO.N,SIPM_K4*%
X74715000Y-86985000D03*
%TO.N,SIPM_K15*%
X16985000Y-34485000D03*
%TO.N,SIPM_K9*%
X16985000Y-83485000D03*
%TO.N,IV*%
X74715000Y-65985000D03*
%TO.N,SIPM_K13*%
X16985000Y-55485000D03*
%TO.N,SIPM_K3*%
X74715000Y-79985000D03*
%TO.N,SIPM_K5*%
X74715000Y-93985000D03*
%TO.N,SIPM_K6*%
X74715000Y-100985000D03*
%TO.N,SIPM_K0*%
X20985000Y-90485000D03*
X16985000Y-90485000D03*
X50715000Y-72385000D03*
%TO.N,SIPM_K2*%
X74715000Y-72985000D03*
%TO.N,SIPM_K14*%
X16985000Y-48485000D03*
%TO.N,SIPM_K7*%
X74715000Y-107985000D03*
%TO.N,SIPM_K1*%
X20985000Y-104485000D03*
X16985000Y-104485000D03*
X50715000Y-73985000D03*
%TO.N,SIPM_K11*%
X16985000Y-69485000D03*
%TO.N,SIPM_K21*%
X74715000Y-58985000D03*
%TO.N,SIPM_K10*%
X16985000Y-76485000D03*
%TO.N,SIPM_K23*%
X20985000Y-41485000D03*
X50715000Y-59585000D03*
X16985000Y-41485000D03*
%TO.N,SIPM_K12*%
X16985000Y-62485000D03*
%TO.N,SIPM_K17*%
X74715000Y-30985000D03*
%TO.N,SIPM_K18*%
X74715000Y-37985000D03*
%TD*%
%TO.N,SIPM_K19*%
D14*
X48715000Y-53185000D02*
X50715000Y-53185000D01*
X50715000Y-53185000D02*
X70715000Y-44985000D01*
X70715000Y-44985000D02*
X74715000Y-44985000D01*
%TO.N,SIPM_K16*%
X70715000Y-23985000D02*
X74715000Y-23985000D01*
X48715000Y-48385000D02*
X50715000Y-48385000D01*
X50715000Y-48385000D02*
X70715000Y-23985000D01*
%TO.N,SIPM_K20*%
X48715000Y-54785000D02*
X50715000Y-54785000D01*
X50715000Y-54785000D02*
X70715000Y-51985000D01*
X70715000Y-51985000D02*
X74715000Y-51985000D01*
%TO.N,SIPM_K8*%
X40985000Y-73185000D02*
X20985000Y-97485000D01*
X42985000Y-73185000D02*
X40985000Y-73185000D01*
X20985000Y-97485000D02*
X16985000Y-97485000D01*
%TO.N,SIPM_K22*%
X48715000Y-57985000D02*
X50715000Y-57985000D01*
X20985000Y-27485000D02*
X16985000Y-27485000D01*
%TO.N,SIPM_K4*%
X70715000Y-86985000D02*
X74715000Y-86985000D01*
X48715000Y-78785000D02*
X50715000Y-78785000D01*
X50715000Y-78785000D02*
X70715000Y-86985000D01*
%TO.N,SIPM_K15*%
X42985000Y-58785000D02*
X40985000Y-58785000D01*
X20985000Y-34485000D02*
X16985000Y-34485000D01*
X40985000Y-58785000D02*
X20985000Y-34485000D01*
%TO.N,SIPM_K9*%
X20985000Y-83485000D02*
X16985000Y-83485000D01*
X42985000Y-71585000D02*
X40985000Y-71585000D01*
X40985000Y-71585000D02*
X20985000Y-83485000D01*
%TO.N,IV*%
X48715000Y-68385000D02*
X48715000Y-63585000D01*
X50715000Y-68385000D02*
X70715000Y-65985000D01*
X70715000Y-65985000D02*
X74715000Y-65985000D01*
X48715000Y-68385000D02*
X50715000Y-68385000D01*
%TO.N,SIPM_K13*%
X42985000Y-61985000D02*
X40985000Y-61985000D01*
X40985000Y-61985000D02*
X20985000Y-55485000D01*
X20985000Y-55485000D02*
X16985000Y-55485000D01*
%TO.N,SIPM_K3*%
X70715000Y-79985000D02*
X74715000Y-79985000D01*
X50715000Y-77185000D02*
X70715000Y-79985000D01*
X48715000Y-77185000D02*
X50715000Y-77185000D01*
%TO.N,SIPM_K5*%
X50715000Y-80385000D02*
X70715000Y-93985000D01*
X70715000Y-93985000D02*
X74715000Y-93985000D01*
X48715000Y-80385000D02*
X50715000Y-80385000D01*
%TO.N,SIPM_K6*%
X70715000Y-100985000D02*
X74715000Y-100985000D01*
X50715000Y-81985000D02*
X70715000Y-100985000D01*
X48715000Y-81985000D02*
X50715000Y-81985000D01*
%TO.N,SIPM_K0*%
X48715000Y-72385000D02*
X50715000Y-72385000D01*
X20985000Y-90485000D02*
X16985000Y-90485000D01*
%TO.N,SIPM_K2*%
X70715000Y-72985000D02*
X74715000Y-72985000D01*
X50715000Y-75585000D02*
X70715000Y-72985000D01*
X48715000Y-75585000D02*
X50715000Y-75585000D01*
%TO.N,SIPM_K14*%
X20985000Y-48485000D02*
X16985000Y-48485000D01*
X40985000Y-60385000D02*
X20985000Y-48485000D01*
X42985000Y-60385000D02*
X40985000Y-60385000D01*
%TO.N,SIPM_K7*%
X48715000Y-83585000D02*
X50715000Y-83585000D01*
X70715000Y-107985000D02*
X74715000Y-107985000D01*
X50715000Y-83585000D02*
X70715000Y-107985000D01*
%TO.N,SIPM_K1*%
X20985000Y-104485000D02*
X16985000Y-104485000D01*
X48715000Y-73985000D02*
X50715000Y-73985000D01*
%TO.N,SIPM_K11*%
X42985000Y-68385000D02*
X40985000Y-68385000D01*
X20985000Y-69485000D02*
X16985000Y-69485000D01*
X40985000Y-68385000D02*
X20985000Y-69485000D01*
%TO.N,SIPM_K21*%
X48715000Y-56385000D02*
X50715000Y-56385000D01*
X50715000Y-56385000D02*
X70715000Y-58985000D01*
X70715000Y-58985000D02*
X74715000Y-58985000D01*
%TO.N,SIPM_K10*%
X40985000Y-69985000D02*
X20985000Y-76485000D01*
X20985000Y-76485000D02*
X16985000Y-76485000D01*
X42985000Y-69985000D02*
X40985000Y-69985000D01*
%TO.N,SIPM_K23*%
X48715000Y-59585000D02*
X50715000Y-59585000D01*
X20985000Y-41485000D02*
X16985000Y-41485000D01*
%TO.N,SIPM_K12*%
X40985000Y-63585000D02*
X20985000Y-62485000D01*
X20985000Y-62485000D02*
X16985000Y-62485000D01*
X42985000Y-63585000D02*
X40985000Y-63585000D01*
%TO.N,SIPM_K17*%
X48715000Y-49985000D02*
X50715000Y-49985000D01*
X50715000Y-49985000D02*
X70715000Y-30985000D01*
X70715000Y-30985000D02*
X74715000Y-30985000D01*
%TO.N,SIPM_K18*%
X48715000Y-51585000D02*
X50715000Y-51585000D01*
X50715000Y-51585000D02*
X70715000Y-37985000D01*
X70715000Y-37985000D02*
X74715000Y-37985000D01*
%TD*%
%TA.AperFunction,Conductor*%
%TO.N,GNDA*%
G36*
X82142539Y-10520185D02*
G01*
X82188294Y-10572989D01*
X82199500Y-10624500D01*
X82199500Y-121345500D01*
X82179815Y-121412539D01*
X82127011Y-121458294D01*
X82075500Y-121469500D01*
X9624500Y-121469500D01*
X9557461Y-121449815D01*
X9511706Y-121397011D01*
X9500500Y-121345500D01*
X9500500Y-116848711D01*
X15134500Y-116848711D01*
X15134500Y-117091288D01*
X15166161Y-117331785D01*
X15228947Y-117566104D01*
X15321773Y-117790205D01*
X15321776Y-117790212D01*
X15443064Y-118000289D01*
X15443066Y-118000292D01*
X15443067Y-118000293D01*
X15590733Y-118192736D01*
X15590739Y-118192743D01*
X15762256Y-118364260D01*
X15762262Y-118364265D01*
X15954711Y-118511936D01*
X16164788Y-118633224D01*
X16388900Y-118726054D01*
X16623211Y-118788838D01*
X16803586Y-118812584D01*
X16863711Y-118820500D01*
X16863712Y-118820500D01*
X17106289Y-118820500D01*
X17154388Y-118814167D01*
X17346789Y-118788838D01*
X17581100Y-118726054D01*
X17805212Y-118633224D01*
X18015289Y-118511936D01*
X18207738Y-118364265D01*
X18379265Y-118192738D01*
X18526936Y-118000289D01*
X18648224Y-117790212D01*
X18741054Y-117566100D01*
X18803838Y-117331789D01*
X18835500Y-117091288D01*
X18835500Y-116848712D01*
X18835500Y-116848711D01*
X72864500Y-116848711D01*
X72864500Y-117091288D01*
X72896161Y-117331785D01*
X72958947Y-117566104D01*
X73051773Y-117790205D01*
X73051776Y-117790212D01*
X73173064Y-118000289D01*
X73173066Y-118000292D01*
X73173067Y-118000293D01*
X73320733Y-118192736D01*
X73320739Y-118192743D01*
X73492256Y-118364260D01*
X73492262Y-118364265D01*
X73684711Y-118511936D01*
X73894788Y-118633224D01*
X74118900Y-118726054D01*
X74353211Y-118788838D01*
X74533586Y-118812584D01*
X74593711Y-118820500D01*
X74593712Y-118820500D01*
X74836289Y-118820500D01*
X74884388Y-118814167D01*
X75076789Y-118788838D01*
X75311100Y-118726054D01*
X75535212Y-118633224D01*
X75745289Y-118511936D01*
X75937738Y-118364265D01*
X76109265Y-118192738D01*
X76256936Y-118000289D01*
X76378224Y-117790212D01*
X76471054Y-117566100D01*
X76533838Y-117331789D01*
X76565500Y-117091288D01*
X76565500Y-116848712D01*
X76533838Y-116608211D01*
X76471054Y-116373900D01*
X76378224Y-116149788D01*
X76256936Y-115939711D01*
X76109265Y-115747262D01*
X76109260Y-115747256D01*
X75937743Y-115575739D01*
X75937736Y-115575733D01*
X75745293Y-115428067D01*
X75745292Y-115428066D01*
X75745289Y-115428064D01*
X75535212Y-115306776D01*
X75535205Y-115306773D01*
X75311104Y-115213947D01*
X75076785Y-115151161D01*
X74836289Y-115119500D01*
X74836288Y-115119500D01*
X74593712Y-115119500D01*
X74593711Y-115119500D01*
X74353214Y-115151161D01*
X74118895Y-115213947D01*
X73894794Y-115306773D01*
X73894785Y-115306777D01*
X73684706Y-115428067D01*
X73492263Y-115575733D01*
X73492256Y-115575739D01*
X73320739Y-115747256D01*
X73320733Y-115747263D01*
X73173067Y-115939706D01*
X73051777Y-116149785D01*
X73051773Y-116149794D01*
X72958947Y-116373895D01*
X72896161Y-116608214D01*
X72864500Y-116848711D01*
X18835500Y-116848711D01*
X18803838Y-116608211D01*
X18741054Y-116373900D01*
X18648224Y-116149788D01*
X18526936Y-115939711D01*
X18379265Y-115747262D01*
X18379260Y-115747256D01*
X18207743Y-115575739D01*
X18207736Y-115575733D01*
X18015293Y-115428067D01*
X18015292Y-115428066D01*
X18015289Y-115428064D01*
X17805212Y-115306776D01*
X17805205Y-115306773D01*
X17581104Y-115213947D01*
X17346785Y-115151161D01*
X17106289Y-115119500D01*
X17106288Y-115119500D01*
X16863712Y-115119500D01*
X16863711Y-115119500D01*
X16623214Y-115151161D01*
X16388895Y-115213947D01*
X16164794Y-115306773D01*
X16164785Y-115306777D01*
X15954706Y-115428067D01*
X15762263Y-115575733D01*
X15762256Y-115575739D01*
X15590739Y-115747256D01*
X15590733Y-115747263D01*
X15443067Y-115939706D01*
X15321777Y-116149785D01*
X15321773Y-116149794D01*
X15228947Y-116373895D01*
X15166161Y-116608214D01*
X15134500Y-116848711D01*
X9500500Y-116848711D01*
X9500500Y-104405943D01*
X16384500Y-104405943D01*
X16384500Y-104564056D01*
X16425423Y-104716783D01*
X16425426Y-104716790D01*
X16504475Y-104853709D01*
X16504479Y-104853714D01*
X16504480Y-104853716D01*
X16616284Y-104965520D01*
X16616286Y-104965521D01*
X16616290Y-104965524D01*
X16753209Y-105044573D01*
X16753216Y-105044577D01*
X16905943Y-105085500D01*
X16905945Y-105085500D01*
X17064055Y-105085500D01*
X17064057Y-105085500D01*
X17216784Y-105044577D01*
X17264454Y-105017054D01*
X17342298Y-104972113D01*
X17404297Y-104955500D01*
X20565703Y-104955500D01*
X20627702Y-104972113D01*
X20753209Y-105044573D01*
X20753216Y-105044577D01*
X20905943Y-105085500D01*
X20905945Y-105085500D01*
X21064055Y-105085500D01*
X21064057Y-105085500D01*
X21216784Y-105044577D01*
X21353716Y-104965520D01*
X21465520Y-104853716D01*
X21544577Y-104716784D01*
X21585500Y-104564057D01*
X21585500Y-104405943D01*
X21544577Y-104253216D01*
X21544573Y-104253209D01*
X21465524Y-104116290D01*
X21465518Y-104116282D01*
X21353717Y-104004481D01*
X21353709Y-104004475D01*
X21216790Y-103925426D01*
X21216786Y-103925424D01*
X21216784Y-103925423D01*
X21064057Y-103884500D01*
X20905943Y-103884500D01*
X20753216Y-103925423D01*
X20753209Y-103925426D01*
X20627702Y-103997887D01*
X20565703Y-104014500D01*
X17404297Y-104014500D01*
X17342298Y-103997887D01*
X17216790Y-103925426D01*
X17216786Y-103925424D01*
X17216784Y-103925423D01*
X17064057Y-103884500D01*
X16905943Y-103884500D01*
X16753216Y-103925423D01*
X16753209Y-103925426D01*
X16616290Y-104004475D01*
X16616282Y-104004481D01*
X16504481Y-104116282D01*
X16504475Y-104116290D01*
X16425426Y-104253209D01*
X16425423Y-104253216D01*
X16384500Y-104405943D01*
X9500500Y-104405943D01*
X9500500Y-97405943D01*
X16384500Y-97405943D01*
X16384500Y-97564056D01*
X16425423Y-97716783D01*
X16425426Y-97716790D01*
X16504475Y-97853709D01*
X16504479Y-97853714D01*
X16504480Y-97853716D01*
X16616284Y-97965520D01*
X16616286Y-97965521D01*
X16616290Y-97965524D01*
X16753209Y-98044573D01*
X16753216Y-98044577D01*
X16905943Y-98085500D01*
X16905945Y-98085500D01*
X17064055Y-98085500D01*
X17064057Y-98085500D01*
X17216784Y-98044577D01*
X17264454Y-98017054D01*
X17342298Y-97972113D01*
X17404297Y-97955500D01*
X20946084Y-97955500D01*
X20968803Y-97959284D01*
X21007786Y-97955500D01*
X21046943Y-97955500D01*
X21059277Y-97952194D01*
X21079395Y-97948549D01*
X21092109Y-97947315D01*
X21128783Y-97933570D01*
X21166606Y-97923436D01*
X21186548Y-97911922D01*
X21208115Y-97903840D01*
X21239978Y-97881074D01*
X21273894Y-97861494D01*
X21290179Y-97845208D01*
X21308916Y-97831822D01*
X21329983Y-97806224D01*
X21338046Y-97797341D01*
X21361494Y-97773894D01*
X21367880Y-97762831D01*
X21379521Y-97746034D01*
X31067540Y-85975092D01*
X47759500Y-85975092D01*
X47759500Y-86124907D01*
X47788723Y-86271822D01*
X47788725Y-86271830D01*
X47846051Y-86410229D01*
X47846056Y-86410238D01*
X47929280Y-86534790D01*
X47929283Y-86534794D01*
X48035205Y-86640716D01*
X48035209Y-86640719D01*
X48159761Y-86723943D01*
X48159767Y-86723946D01*
X48159768Y-86723947D01*
X48298170Y-86781275D01*
X48445092Y-86810499D01*
X48445096Y-86810500D01*
X48445097Y-86810500D01*
X48594904Y-86810500D01*
X48594905Y-86810499D01*
X48741830Y-86781275D01*
X48880232Y-86723947D01*
X49004791Y-86640719D01*
X49110719Y-86534791D01*
X49193947Y-86410232D01*
X49251275Y-86271830D01*
X49280500Y-86124903D01*
X49280500Y-85975097D01*
X49251275Y-85828170D01*
X49193947Y-85689768D01*
X49193946Y-85689767D01*
X49193943Y-85689761D01*
X49110719Y-85565209D01*
X49110716Y-85565205D01*
X49004794Y-85459283D01*
X49004790Y-85459280D01*
X48880238Y-85376056D01*
X48880229Y-85376051D01*
X48741830Y-85318725D01*
X48741822Y-85318723D01*
X48594907Y-85289500D01*
X48594903Y-85289500D01*
X48445097Y-85289500D01*
X48445092Y-85289500D01*
X48298177Y-85318723D01*
X48298169Y-85318725D01*
X48159770Y-85376051D01*
X48159761Y-85376056D01*
X48035209Y-85459280D01*
X48035205Y-85459283D01*
X47929283Y-85565205D01*
X47929280Y-85565209D01*
X47846056Y-85689761D01*
X47846051Y-85689770D01*
X47788725Y-85828169D01*
X47788723Y-85828177D01*
X47759500Y-85975092D01*
X31067540Y-85975092D01*
X34557220Y-81735131D01*
X47279500Y-81735131D01*
X47279500Y-82234856D01*
X47279502Y-82234882D01*
X47282413Y-82259987D01*
X47282415Y-82259991D01*
X47327793Y-82362764D01*
X47327794Y-82362765D01*
X47407235Y-82442206D01*
X47510009Y-82487585D01*
X47535135Y-82490500D01*
X49894864Y-82490499D01*
X49894879Y-82490497D01*
X49894882Y-82490497D01*
X49919987Y-82487586D01*
X49919988Y-82487585D01*
X49919991Y-82487585D01*
X49957824Y-82470879D01*
X49968730Y-82466065D01*
X50018815Y-82455500D01*
X50477631Y-82455500D01*
X50544670Y-82475185D01*
X50563036Y-82489600D01*
X51051390Y-82953537D01*
X51086436Y-83013982D01*
X51083239Y-83083778D01*
X51042815Y-83140767D01*
X50977998Y-83166854D01*
X50923488Y-83159928D01*
X50913343Y-83156227D01*
X50896606Y-83146564D01*
X50859876Y-83136722D01*
X50854753Y-83134853D01*
X50854601Y-83134741D01*
X50853500Y-83134387D01*
X50823045Y-83122903D01*
X50823042Y-83122902D01*
X50814220Y-83122027D01*
X50809722Y-83121581D01*
X50789870Y-83117963D01*
X50776947Y-83114500D01*
X50776943Y-83114500D01*
X50744388Y-83114500D01*
X50732161Y-83113896D01*
X50716478Y-83112341D01*
X50699758Y-83110685D01*
X50699757Y-83110685D01*
X50686559Y-83112856D01*
X50666434Y-83114500D01*
X50018815Y-83114500D01*
X49968729Y-83103935D01*
X49919991Y-83082415D01*
X49894865Y-83079500D01*
X47535143Y-83079500D01*
X47535117Y-83079502D01*
X47510012Y-83082413D01*
X47510008Y-83082415D01*
X47407235Y-83127793D01*
X47327794Y-83207234D01*
X47282415Y-83310006D01*
X47282415Y-83310008D01*
X47279500Y-83335131D01*
X47279500Y-83834856D01*
X47279502Y-83834882D01*
X47282413Y-83859987D01*
X47282415Y-83859991D01*
X47327793Y-83962764D01*
X47327794Y-83962765D01*
X47407235Y-84042206D01*
X47510009Y-84087585D01*
X47535135Y-84090500D01*
X49894864Y-84090499D01*
X49894879Y-84090497D01*
X49894882Y-84090497D01*
X49919987Y-84087586D01*
X49919988Y-84087585D01*
X49919991Y-84087585D01*
X49957824Y-84070879D01*
X49968730Y-84066065D01*
X50018815Y-84055500D01*
X50433603Y-84055500D01*
X50500642Y-84075185D01*
X50529504Y-84100893D01*
X70296627Y-108216784D01*
X70326752Y-108253536D01*
X70338506Y-108273894D01*
X70365863Y-108301251D01*
X70390386Y-108331169D01*
X70401259Y-108338970D01*
X70416646Y-108352034D01*
X70426106Y-108361494D01*
X70459613Y-108380839D01*
X70491042Y-108403389D01*
X70513033Y-108411680D01*
X70521805Y-108416745D01*
X70521806Y-108416746D01*
X70521808Y-108416747D01*
X70533394Y-108423436D01*
X70564850Y-108431864D01*
X70576492Y-108435609D01*
X70606960Y-108447098D01*
X70606964Y-108447098D01*
X70606967Y-108447099D01*
X70615148Y-108447909D01*
X70630351Y-108449416D01*
X70653057Y-108455500D01*
X70691744Y-108455500D01*
X70730241Y-108459315D01*
X70743440Y-108457144D01*
X70763565Y-108455500D01*
X74295703Y-108455500D01*
X74357702Y-108472113D01*
X74483209Y-108544573D01*
X74483216Y-108544577D01*
X74635943Y-108585500D01*
X74635945Y-108585500D01*
X74794055Y-108585500D01*
X74794057Y-108585500D01*
X74946784Y-108544577D01*
X75083716Y-108465520D01*
X75195520Y-108353716D01*
X75274577Y-108216784D01*
X75315500Y-108064057D01*
X75315500Y-107905943D01*
X75274577Y-107753216D01*
X75274573Y-107753209D01*
X75195524Y-107616290D01*
X75195518Y-107616282D01*
X75083717Y-107504481D01*
X75083709Y-107504475D01*
X74946790Y-107425426D01*
X74946786Y-107425424D01*
X74946784Y-107425423D01*
X74794057Y-107384500D01*
X74635943Y-107384500D01*
X74483216Y-107425423D01*
X74483209Y-107425426D01*
X74357702Y-107497887D01*
X74295703Y-107514500D01*
X70996397Y-107514500D01*
X70929358Y-107494815D01*
X70900496Y-107469107D01*
X51203563Y-83438848D01*
X51176289Y-83374522D01*
X51188122Y-83305661D01*
X51235305Y-83254130D01*
X51302858Y-83236287D01*
X51369334Y-83257800D01*
X51384864Y-83270337D01*
X70386552Y-101321940D01*
X70426106Y-101361494D01*
X70431406Y-101364553D01*
X70435846Y-101368771D01*
X70435848Y-101368772D01*
X70435849Y-101368773D01*
X70435852Y-101368775D01*
X70483623Y-101394746D01*
X70486332Y-101396265D01*
X70509639Y-101409721D01*
X70533390Y-101423434D01*
X70533391Y-101423434D01*
X70533394Y-101423436D01*
X70533396Y-101423436D01*
X70539040Y-101425773D01*
X70544689Y-101427946D01*
X70544691Y-101427947D01*
X70597591Y-101440677D01*
X70600521Y-101441422D01*
X70653057Y-101455500D01*
X70659106Y-101456296D01*
X70665136Y-101456933D01*
X70665137Y-101456932D01*
X70665138Y-101456933D01*
X70719435Y-101455540D01*
X70722613Y-101455500D01*
X74295703Y-101455500D01*
X74357702Y-101472113D01*
X74483209Y-101544573D01*
X74483216Y-101544577D01*
X74635943Y-101585500D01*
X74635945Y-101585500D01*
X74794055Y-101585500D01*
X74794057Y-101585500D01*
X74946784Y-101544577D01*
X75083716Y-101465520D01*
X75195520Y-101353716D01*
X75274577Y-101216784D01*
X75315500Y-101064057D01*
X75315500Y-100905943D01*
X75274577Y-100753216D01*
X75274573Y-100753209D01*
X75195524Y-100616290D01*
X75195518Y-100616282D01*
X75083717Y-100504481D01*
X75083709Y-100504475D01*
X74946790Y-100425426D01*
X74946786Y-100425424D01*
X74946784Y-100425423D01*
X74794057Y-100384500D01*
X74635943Y-100384500D01*
X74483216Y-100425423D01*
X74483209Y-100425426D01*
X74357702Y-100497887D01*
X74295703Y-100514500D01*
X70952369Y-100514500D01*
X70885330Y-100494815D01*
X70866964Y-100480400D01*
X70809093Y-100425423D01*
X51043447Y-81648059D01*
X51003894Y-81608506D01*
X50998590Y-81605444D01*
X50994153Y-81601229D01*
X50994149Y-81601225D01*
X50971481Y-81588902D01*
X50946395Y-81575264D01*
X50943656Y-81573728D01*
X50896609Y-81546565D01*
X50890979Y-81544232D01*
X50885312Y-81542053D01*
X50832486Y-81529340D01*
X50832486Y-81529339D01*
X50830881Y-81528952D01*
X50776943Y-81514500D01*
X50770825Y-81514500D01*
X50764862Y-81513065D01*
X50710544Y-81514459D01*
X50707364Y-81514500D01*
X50018815Y-81514500D01*
X49968729Y-81503935D01*
X49919991Y-81482415D01*
X49894865Y-81479500D01*
X47535143Y-81479500D01*
X47535117Y-81479502D01*
X47510012Y-81482413D01*
X47510008Y-81482415D01*
X47407235Y-81527793D01*
X47327794Y-81607234D01*
X47282415Y-81710006D01*
X47282415Y-81710008D01*
X47279500Y-81735131D01*
X34557220Y-81735131D01*
X35874092Y-80135131D01*
X47279500Y-80135131D01*
X47279500Y-80634856D01*
X47279502Y-80634882D01*
X47282413Y-80659987D01*
X47282415Y-80659991D01*
X47327793Y-80762764D01*
X47327794Y-80762765D01*
X47407235Y-80842206D01*
X47510009Y-80887585D01*
X47535135Y-80890500D01*
X49894864Y-80890499D01*
X49894879Y-80890497D01*
X49894882Y-80890497D01*
X49919987Y-80887586D01*
X49919988Y-80887585D01*
X49919991Y-80887585D01*
X49957824Y-80870879D01*
X49968730Y-80866065D01*
X50018815Y-80855500D01*
X50532019Y-80855500D01*
X50599058Y-80875185D01*
X50601745Y-80876961D01*
X57340451Y-85459281D01*
X70413708Y-94349096D01*
X70426106Y-94361494D01*
X70464752Y-94383806D01*
X70501655Y-94408900D01*
X70518211Y-94414670D01*
X70533394Y-94423436D01*
X70576500Y-94434986D01*
X70618638Y-94449673D01*
X70624446Y-94450100D01*
X70647429Y-94453991D01*
X70653057Y-94455500D01*
X70653060Y-94455500D01*
X70697681Y-94455500D01*
X70742187Y-94458781D01*
X70759412Y-94455500D01*
X74295703Y-94455500D01*
X74357702Y-94472113D01*
X74483209Y-94544573D01*
X74483216Y-94544577D01*
X74635943Y-94585500D01*
X74635945Y-94585500D01*
X74794055Y-94585500D01*
X74794057Y-94585500D01*
X74946784Y-94544577D01*
X75083716Y-94465520D01*
X75195520Y-94353716D01*
X75274577Y-94216784D01*
X75315500Y-94064057D01*
X75315500Y-93905943D01*
X75274577Y-93753216D01*
X75274573Y-93753209D01*
X75195524Y-93616290D01*
X75195518Y-93616282D01*
X75083717Y-93504481D01*
X75083709Y-93504475D01*
X74946790Y-93425426D01*
X74946786Y-93425424D01*
X74946784Y-93425423D01*
X74794057Y-93384500D01*
X74635943Y-93384500D01*
X74483216Y-93425423D01*
X74483209Y-93425426D01*
X74357702Y-93497887D01*
X74295703Y-93514500D01*
X70897981Y-93514500D01*
X70830942Y-93494815D01*
X70828255Y-93493039D01*
X51025969Y-80027484D01*
X51016290Y-80020902D01*
X51003894Y-80008506D01*
X50965247Y-79986193D01*
X50928345Y-79961100D01*
X50928344Y-79961099D01*
X50922838Y-79959180D01*
X50911788Y-79955329D01*
X50896606Y-79946564D01*
X50853499Y-79935013D01*
X50827197Y-79925845D01*
X50811360Y-79920326D01*
X50805550Y-79919898D01*
X50782579Y-79916010D01*
X50776944Y-79914500D01*
X50776943Y-79914500D01*
X50732319Y-79914500D01*
X50687812Y-79911219D01*
X50670587Y-79914500D01*
X50018815Y-79914500D01*
X49968729Y-79903935D01*
X49919991Y-79882415D01*
X49894865Y-79879500D01*
X47535143Y-79879500D01*
X47535117Y-79879502D01*
X47510012Y-79882413D01*
X47510008Y-79882415D01*
X47407235Y-79927793D01*
X47327794Y-80007234D01*
X47282415Y-80110006D01*
X47282415Y-80110008D01*
X47279500Y-80135131D01*
X35874092Y-80135131D01*
X37190965Y-78535131D01*
X47279500Y-78535131D01*
X47279500Y-79034856D01*
X47279502Y-79034882D01*
X47282413Y-79059987D01*
X47282415Y-79059991D01*
X47327793Y-79162764D01*
X47327794Y-79162765D01*
X47407235Y-79242206D01*
X47510009Y-79287585D01*
X47535135Y-79290500D01*
X49894864Y-79290499D01*
X49894879Y-79290497D01*
X49894882Y-79290497D01*
X49919987Y-79287586D01*
X49919988Y-79287585D01*
X49919991Y-79287585D01*
X49957824Y-79270879D01*
X49968730Y-79266065D01*
X50018815Y-79255500D01*
X50597858Y-79255500D01*
X50644898Y-79264769D01*
X53866191Y-80585499D01*
X70507193Y-87408309D01*
X70533394Y-87423436D01*
X70564258Y-87431705D01*
X70571569Y-87434703D01*
X70593827Y-87443829D01*
X70623834Y-87447669D01*
X70653057Y-87455500D01*
X70685012Y-87455500D01*
X70692841Y-87456502D01*
X70692847Y-87456503D01*
X70693762Y-87456620D01*
X70716709Y-87459557D01*
X70738415Y-87456619D01*
X70755041Y-87455500D01*
X74295703Y-87455500D01*
X74357702Y-87472113D01*
X74483209Y-87544573D01*
X74483216Y-87544577D01*
X74635943Y-87585500D01*
X74635945Y-87585500D01*
X74794055Y-87585500D01*
X74794057Y-87585500D01*
X74946784Y-87544577D01*
X75083716Y-87465520D01*
X75195520Y-87353716D01*
X75274577Y-87216784D01*
X75315500Y-87064057D01*
X75315500Y-86905943D01*
X75274577Y-86753216D01*
X75257679Y-86723947D01*
X75195524Y-86616290D01*
X75195518Y-86616282D01*
X75083717Y-86504481D01*
X75083709Y-86504475D01*
X74946790Y-86425426D01*
X74946786Y-86425424D01*
X74946784Y-86425423D01*
X74794057Y-86384500D01*
X74635943Y-86384500D01*
X74483216Y-86425423D01*
X74483209Y-86425426D01*
X74357702Y-86497887D01*
X74295703Y-86514500D01*
X70832142Y-86514500D01*
X70785102Y-86505231D01*
X50930531Y-78364857D01*
X50930531Y-78364856D01*
X50922799Y-78361686D01*
X50896606Y-78346564D01*
X50865745Y-78338294D01*
X50858424Y-78335293D01*
X50836174Y-78326171D01*
X50836167Y-78326169D01*
X50814448Y-78323389D01*
X50814448Y-78323390D01*
X50806164Y-78322329D01*
X50776943Y-78314500D01*
X50744988Y-78314500D01*
X50737150Y-78313496D01*
X50719131Y-78311190D01*
X50713291Y-78310443D01*
X50713290Y-78310443D01*
X50713289Y-78310443D01*
X50702404Y-78311916D01*
X50691584Y-78313380D01*
X50674959Y-78314500D01*
X50018815Y-78314500D01*
X49968729Y-78303935D01*
X49919991Y-78282415D01*
X49894865Y-78279500D01*
X47535143Y-78279500D01*
X47535117Y-78279502D01*
X47510012Y-78282413D01*
X47510008Y-78282415D01*
X47407235Y-78327793D01*
X47327794Y-78407234D01*
X47282415Y-78510006D01*
X47282415Y-78510008D01*
X47279500Y-78535131D01*
X37190965Y-78535131D01*
X38507837Y-76935131D01*
X47279500Y-76935131D01*
X47279500Y-77434856D01*
X47279502Y-77434882D01*
X47282413Y-77459987D01*
X47282415Y-77459991D01*
X47327793Y-77562764D01*
X47327794Y-77562765D01*
X47407235Y-77642206D01*
X47510009Y-77687585D01*
X47535135Y-77690500D01*
X49894864Y-77690499D01*
X49894879Y-77690497D01*
X49894882Y-77690497D01*
X49919987Y-77687586D01*
X49919988Y-77687585D01*
X49919991Y-77687585D01*
X49957824Y-77670879D01*
X49968730Y-77666065D01*
X50018815Y-77655500D01*
X50673586Y-77655500D01*
X50690778Y-77656698D01*
X50911400Y-77687585D01*
X70621142Y-80446948D01*
X70653057Y-80455500D01*
X70682225Y-80455500D01*
X70711111Y-80459544D01*
X70734189Y-80456698D01*
X70736347Y-80456432D01*
X70751522Y-80455500D01*
X74295703Y-80455500D01*
X74357702Y-80472113D01*
X74483209Y-80544573D01*
X74483216Y-80544577D01*
X74635943Y-80585500D01*
X74635945Y-80585500D01*
X74794055Y-80585500D01*
X74794057Y-80585500D01*
X74946784Y-80544577D01*
X75083716Y-80465520D01*
X75195520Y-80353716D01*
X75274577Y-80216784D01*
X75315500Y-80064057D01*
X75315500Y-79905943D01*
X75274577Y-79753216D01*
X75274573Y-79753209D01*
X75195524Y-79616290D01*
X75195518Y-79616282D01*
X75083717Y-79504481D01*
X75083709Y-79504475D01*
X74946790Y-79425426D01*
X74946786Y-79425424D01*
X74946784Y-79425423D01*
X74794057Y-79384500D01*
X74635943Y-79384500D01*
X74483216Y-79425423D01*
X74483209Y-79425426D01*
X74357702Y-79497887D01*
X74295703Y-79514500D01*
X70756414Y-79514500D01*
X70739222Y-79513302D01*
X50816402Y-76724107D01*
X50808857Y-76723051D01*
X50776943Y-76714500D01*
X50747775Y-76714500D01*
X50739217Y-76713301D01*
X50739216Y-76713301D01*
X50718890Y-76710456D01*
X50718889Y-76710456D01*
X50708394Y-76711750D01*
X50693653Y-76713568D01*
X50678478Y-76714500D01*
X50018815Y-76714500D01*
X49968729Y-76703935D01*
X49919991Y-76682415D01*
X49894865Y-76679500D01*
X47535143Y-76679500D01*
X47535117Y-76679502D01*
X47510012Y-76682413D01*
X47510008Y-76682415D01*
X47407235Y-76727793D01*
X47327794Y-76807234D01*
X47282415Y-76910006D01*
X47282415Y-76910008D01*
X47279500Y-76935131D01*
X38507837Y-76935131D01*
X39824709Y-75335131D01*
X47279500Y-75335131D01*
X47279500Y-75834856D01*
X47279502Y-75834882D01*
X47282413Y-75859987D01*
X47282415Y-75859991D01*
X47327793Y-75962764D01*
X47327794Y-75962765D01*
X47407235Y-76042206D01*
X47510009Y-76087585D01*
X47535135Y-76090500D01*
X49894864Y-76090499D01*
X49894879Y-76090497D01*
X49894882Y-76090497D01*
X49919987Y-76087586D01*
X49919988Y-76087585D01*
X49919991Y-76087585D01*
X49957824Y-76070879D01*
X49968730Y-76066065D01*
X50018815Y-76055500D01*
X50683780Y-76055500D01*
X50714228Y-76059559D01*
X50745451Y-76055500D01*
X50776943Y-76055500D01*
X50798678Y-76049675D01*
X50814776Y-76046487D01*
X70737496Y-73456534D01*
X70753481Y-73455500D01*
X74295703Y-73455500D01*
X74357702Y-73472113D01*
X74483209Y-73544573D01*
X74483216Y-73544577D01*
X74635943Y-73585500D01*
X74635945Y-73585500D01*
X74794055Y-73585500D01*
X74794057Y-73585500D01*
X74946784Y-73544577D01*
X75083716Y-73465520D01*
X75195520Y-73353716D01*
X75274577Y-73216784D01*
X75315500Y-73064057D01*
X75315500Y-72905943D01*
X75274577Y-72753216D01*
X75256950Y-72722684D01*
X75195524Y-72616290D01*
X75195518Y-72616282D01*
X75083717Y-72504481D01*
X75083709Y-72504475D01*
X74946790Y-72425426D01*
X74946786Y-72425424D01*
X74946784Y-72425423D01*
X74794057Y-72384500D01*
X74635943Y-72384500D01*
X74483216Y-72425423D01*
X74483209Y-72425426D01*
X74357702Y-72497887D01*
X74295703Y-72514500D01*
X70746220Y-72514500D01*
X70715772Y-72510441D01*
X70684549Y-72514500D01*
X70653052Y-72514500D01*
X70631321Y-72520323D01*
X70615217Y-72523512D01*
X57450834Y-74234882D01*
X50765812Y-75103935D01*
X50692504Y-75113465D01*
X50676519Y-75114500D01*
X50018815Y-75114500D01*
X49968729Y-75103935D01*
X49919991Y-75082415D01*
X49894865Y-75079500D01*
X47535143Y-75079500D01*
X47535117Y-75079502D01*
X47510012Y-75082413D01*
X47510008Y-75082415D01*
X47407235Y-75127793D01*
X47327794Y-75207234D01*
X47282415Y-75310006D01*
X47282415Y-75310008D01*
X47279500Y-75335131D01*
X39824709Y-75335131D01*
X41141582Y-73735131D01*
X47279500Y-73735131D01*
X47279500Y-74234856D01*
X47279502Y-74234882D01*
X47282413Y-74259987D01*
X47282415Y-74259991D01*
X47327793Y-74362764D01*
X47327794Y-74362765D01*
X47407235Y-74442206D01*
X47510009Y-74487585D01*
X47535135Y-74490500D01*
X49894864Y-74490499D01*
X49894879Y-74490497D01*
X49894882Y-74490497D01*
X49919987Y-74487586D01*
X49919988Y-74487585D01*
X49919991Y-74487585D01*
X49957824Y-74470879D01*
X49968730Y-74466065D01*
X50018815Y-74455500D01*
X50295703Y-74455500D01*
X50357702Y-74472113D01*
X50483209Y-74544573D01*
X50483216Y-74544577D01*
X50635943Y-74585500D01*
X50635945Y-74585500D01*
X50794055Y-74585500D01*
X50794057Y-74585500D01*
X50946784Y-74544577D01*
X51083716Y-74465520D01*
X51195520Y-74353716D01*
X51274577Y-74216784D01*
X51315500Y-74064057D01*
X51315500Y-73905943D01*
X51274577Y-73753216D01*
X51244257Y-73700700D01*
X51195524Y-73616290D01*
X51195518Y-73616282D01*
X51083717Y-73504481D01*
X51083709Y-73504475D01*
X50946790Y-73425426D01*
X50946786Y-73425424D01*
X50946784Y-73425423D01*
X50794057Y-73384500D01*
X50635943Y-73384500D01*
X50483216Y-73425423D01*
X50483209Y-73425426D01*
X50357702Y-73497887D01*
X50295703Y-73514500D01*
X50018815Y-73514500D01*
X49968729Y-73503935D01*
X49919991Y-73482415D01*
X49894865Y-73479500D01*
X47535143Y-73479500D01*
X47535117Y-73479502D01*
X47510012Y-73482413D01*
X47510008Y-73482415D01*
X47407235Y-73527793D01*
X47327794Y-73607234D01*
X47282415Y-73710006D01*
X47282415Y-73710008D01*
X47279500Y-73735131D01*
X41141582Y-73735131D01*
X41169921Y-73700699D01*
X41227722Y-73661447D01*
X41265663Y-73655500D01*
X41681185Y-73655500D01*
X41731270Y-73666064D01*
X41780009Y-73687585D01*
X41805135Y-73690500D01*
X44164864Y-73690499D01*
X44164879Y-73690497D01*
X44164882Y-73690497D01*
X44189987Y-73687586D01*
X44189988Y-73687585D01*
X44189991Y-73687585D01*
X44292765Y-73642206D01*
X44372206Y-73562765D01*
X44417585Y-73459991D01*
X44420500Y-73434865D01*
X44420499Y-72935136D01*
X44418286Y-72916051D01*
X44417586Y-72910012D01*
X44417585Y-72910010D01*
X44417585Y-72910009D01*
X44372206Y-72807235D01*
X44292765Y-72727794D01*
X44254087Y-72710716D01*
X44189992Y-72682415D01*
X44164865Y-72679500D01*
X41805143Y-72679500D01*
X41805117Y-72679502D01*
X41780012Y-72682413D01*
X41780010Y-72682414D01*
X41731270Y-72703935D01*
X41681185Y-72714500D01*
X41023916Y-72714500D01*
X41001197Y-72710716D01*
X40962214Y-72714500D01*
X40923055Y-72714500D01*
X40910709Y-72717807D01*
X40890613Y-72721449D01*
X40877891Y-72722684D01*
X40846836Y-72734322D01*
X40841216Y-72736429D01*
X40803394Y-72746564D01*
X40783451Y-72758077D01*
X40778709Y-72759854D01*
X40773848Y-72761676D01*
X40773849Y-72761676D01*
X40761885Y-72766160D01*
X40761882Y-72766161D01*
X40761880Y-72766163D01*
X40734907Y-72785434D01*
X40724825Y-72791925D01*
X40696102Y-72808507D01*
X40679812Y-72824796D01*
X40661084Y-72838178D01*
X40636209Y-72868399D01*
X40631957Y-72872652D01*
X40608509Y-72896101D01*
X40608508Y-72896102D01*
X40602116Y-72907173D01*
X40590474Y-72923967D01*
X28557052Y-87544577D01*
X20836192Y-96925423D01*
X20800079Y-96969300D01*
X20742278Y-97008553D01*
X20704337Y-97014500D01*
X17404297Y-97014500D01*
X17342298Y-96997887D01*
X17216790Y-96925426D01*
X17216786Y-96925424D01*
X17216784Y-96925423D01*
X17064057Y-96884500D01*
X16905943Y-96884500D01*
X16753216Y-96925423D01*
X16753209Y-96925426D01*
X16616290Y-97004475D01*
X16616282Y-97004481D01*
X16504481Y-97116282D01*
X16504475Y-97116290D01*
X16425426Y-97253209D01*
X16425423Y-97253216D01*
X16384500Y-97405943D01*
X9500500Y-97405943D01*
X9500500Y-90405943D01*
X16384500Y-90405943D01*
X16384500Y-90564056D01*
X16425423Y-90716783D01*
X16425426Y-90716790D01*
X16504475Y-90853709D01*
X16504479Y-90853714D01*
X16504480Y-90853716D01*
X16616284Y-90965520D01*
X16616286Y-90965521D01*
X16616290Y-90965524D01*
X16753209Y-91044573D01*
X16753216Y-91044577D01*
X16905943Y-91085500D01*
X16905945Y-91085500D01*
X17064055Y-91085500D01*
X17064057Y-91085500D01*
X17216784Y-91044577D01*
X17264454Y-91017054D01*
X17342298Y-90972113D01*
X17404297Y-90955500D01*
X20565703Y-90955500D01*
X20627702Y-90972113D01*
X20753209Y-91044573D01*
X20753216Y-91044577D01*
X20905943Y-91085500D01*
X20905945Y-91085500D01*
X21064055Y-91085500D01*
X21064057Y-91085500D01*
X21216784Y-91044577D01*
X21353716Y-90965520D01*
X21465520Y-90853716D01*
X21544577Y-90716784D01*
X21585500Y-90564057D01*
X21585500Y-90405943D01*
X21544577Y-90253216D01*
X21544573Y-90253209D01*
X21465524Y-90116290D01*
X21465518Y-90116282D01*
X21353717Y-90004481D01*
X21353709Y-90004475D01*
X21216790Y-89925426D01*
X21216786Y-89925424D01*
X21216784Y-89925423D01*
X21064057Y-89884500D01*
X20905943Y-89884500D01*
X20753216Y-89925423D01*
X20753209Y-89925426D01*
X20627702Y-89997887D01*
X20565703Y-90014500D01*
X17404297Y-90014500D01*
X17342298Y-89997887D01*
X17216790Y-89925426D01*
X17216786Y-89925424D01*
X17216784Y-89925423D01*
X17064057Y-89884500D01*
X16905943Y-89884500D01*
X16753216Y-89925423D01*
X16753209Y-89925426D01*
X16616290Y-90004475D01*
X16616282Y-90004481D01*
X16504481Y-90116282D01*
X16504475Y-90116290D01*
X16425426Y-90253209D01*
X16425423Y-90253216D01*
X16384500Y-90405943D01*
X9500500Y-90405943D01*
X9500500Y-83405943D01*
X16384500Y-83405943D01*
X16384500Y-83564056D01*
X16425423Y-83716783D01*
X16425426Y-83716790D01*
X16504475Y-83853709D01*
X16504479Y-83853714D01*
X16504480Y-83853716D01*
X16616284Y-83965520D01*
X16616286Y-83965521D01*
X16616290Y-83965524D01*
X16749109Y-84042206D01*
X16753216Y-84044577D01*
X16905943Y-84085500D01*
X16905945Y-84085500D01*
X17064055Y-84085500D01*
X17064057Y-84085500D01*
X17216784Y-84044577D01*
X17264454Y-84017054D01*
X17342298Y-83972113D01*
X17404297Y-83955500D01*
X20926199Y-83955500D01*
X20929243Y-83956273D01*
X20988061Y-83955500D01*
X21046943Y-83955500D01*
X21047220Y-83955500D01*
X21049148Y-83955220D01*
X21050795Y-83954992D01*
X21052844Y-83954722D01*
X21053116Y-83954645D01*
X21053118Y-83954645D01*
X21109015Y-83938877D01*
X21110483Y-83938473D01*
X21130394Y-83933138D01*
X21166597Y-83923439D01*
X21166601Y-83923437D01*
X21166606Y-83923436D01*
X21166610Y-83923433D01*
X21170253Y-83921924D01*
X21170279Y-83921913D01*
X21172115Y-83921152D01*
X21172349Y-83921013D01*
X21222234Y-83891330D01*
X21223526Y-83890572D01*
X21273894Y-83861494D01*
X21273895Y-83861492D01*
X21274411Y-83861195D01*
X21285397Y-83853748D01*
X40980553Y-72135131D01*
X47279500Y-72135131D01*
X47279500Y-72634856D01*
X47279502Y-72634882D01*
X47282413Y-72659987D01*
X47282415Y-72659991D01*
X47327793Y-72762764D01*
X47327794Y-72762765D01*
X47407235Y-72842206D01*
X47510009Y-72887585D01*
X47535135Y-72890500D01*
X49894864Y-72890499D01*
X49894879Y-72890497D01*
X49894882Y-72890497D01*
X49919987Y-72887586D01*
X49919988Y-72887585D01*
X49919991Y-72887585D01*
X49957824Y-72870879D01*
X49968730Y-72866065D01*
X50018815Y-72855500D01*
X50295703Y-72855500D01*
X50357702Y-72872113D01*
X50483209Y-72944573D01*
X50483216Y-72944577D01*
X50635943Y-72985500D01*
X50635945Y-72985500D01*
X50794055Y-72985500D01*
X50794057Y-72985500D01*
X50946784Y-72944577D01*
X51083716Y-72865520D01*
X51195520Y-72753716D01*
X51274577Y-72616784D01*
X51315500Y-72464057D01*
X51315500Y-72305943D01*
X51274577Y-72153216D01*
X51249630Y-72110006D01*
X51195524Y-72016290D01*
X51195518Y-72016282D01*
X51083717Y-71904481D01*
X51083709Y-71904475D01*
X50946790Y-71825426D01*
X50946786Y-71825424D01*
X50946784Y-71825423D01*
X50794057Y-71784500D01*
X50635943Y-71784500D01*
X50483216Y-71825423D01*
X50483209Y-71825426D01*
X50357702Y-71897887D01*
X50295703Y-71914500D01*
X50018815Y-71914500D01*
X49968729Y-71903935D01*
X49919991Y-71882415D01*
X49894865Y-71879500D01*
X47535143Y-71879500D01*
X47535117Y-71879502D01*
X47510012Y-71882413D01*
X47510008Y-71882415D01*
X47407235Y-71927793D01*
X47327794Y-72007234D01*
X47282415Y-72110006D01*
X47282415Y-72110008D01*
X47279500Y-72135131D01*
X40980553Y-72135131D01*
X41085082Y-72072936D01*
X41148487Y-72055500D01*
X41681185Y-72055500D01*
X41731270Y-72066064D01*
X41780009Y-72087585D01*
X41805135Y-72090500D01*
X44164864Y-72090499D01*
X44164879Y-72090497D01*
X44164882Y-72090497D01*
X44189987Y-72087586D01*
X44189988Y-72087585D01*
X44189991Y-72087585D01*
X44292765Y-72042206D01*
X44372206Y-71962765D01*
X44417585Y-71859991D01*
X44420500Y-71834865D01*
X44420499Y-71335136D01*
X44420497Y-71335117D01*
X44417586Y-71310012D01*
X44417585Y-71310010D01*
X44417585Y-71310009D01*
X44372206Y-71207235D01*
X44292765Y-71127794D01*
X44189992Y-71082415D01*
X44164865Y-71079500D01*
X41805143Y-71079500D01*
X41805117Y-71079502D01*
X41780012Y-71082413D01*
X41780010Y-71082414D01*
X41731270Y-71103935D01*
X41681185Y-71114500D01*
X41043801Y-71114500D01*
X41040757Y-71113727D01*
X40981939Y-71114500D01*
X40922771Y-71114500D01*
X40920827Y-71114782D01*
X40919210Y-71115006D01*
X40917162Y-71115275D01*
X40860993Y-71131118D01*
X40860992Y-71131117D01*
X40860101Y-71131368D01*
X40803394Y-71146564D01*
X40800679Y-71148131D01*
X40797652Y-71148985D01*
X40747827Y-71178631D01*
X40746426Y-71179453D01*
X40696106Y-71208506D01*
X40696104Y-71208507D01*
X40695591Y-71208804D01*
X40684606Y-71216247D01*
X20884918Y-82997063D01*
X20821513Y-83014500D01*
X17404297Y-83014500D01*
X17342298Y-82997887D01*
X17216790Y-82925426D01*
X17216786Y-82925424D01*
X17216784Y-82925423D01*
X17064057Y-82884500D01*
X16905943Y-82884500D01*
X16753216Y-82925423D01*
X16753209Y-82925426D01*
X16616290Y-83004475D01*
X16616282Y-83004481D01*
X16504481Y-83116282D01*
X16504475Y-83116290D01*
X16425426Y-83253209D01*
X16425423Y-83253216D01*
X16384500Y-83405943D01*
X9500500Y-83405943D01*
X9500500Y-76405943D01*
X16384500Y-76405943D01*
X16384500Y-76564057D01*
X16424562Y-76713568D01*
X16425423Y-76716783D01*
X16425426Y-76716790D01*
X16504475Y-76853709D01*
X16504479Y-76853714D01*
X16504480Y-76853716D01*
X16616284Y-76965520D01*
X16616286Y-76965521D01*
X16616290Y-76965524D01*
X16753209Y-77044573D01*
X16753216Y-77044577D01*
X16905943Y-77085500D01*
X16905945Y-77085500D01*
X17064055Y-77085500D01*
X17064057Y-77085500D01*
X17216784Y-77044577D01*
X17264454Y-77017054D01*
X17342298Y-76972113D01*
X17404297Y-76955500D01*
X20935569Y-76955500D01*
X20947801Y-76958099D01*
X20997329Y-76955500D01*
X21046943Y-76955500D01*
X21046944Y-76955500D01*
X21059028Y-76952261D01*
X21071515Y-76951607D01*
X21118688Y-76936275D01*
X21166606Y-76923436D01*
X21166611Y-76923433D01*
X21168568Y-76922623D01*
X21189824Y-76913155D01*
X41040855Y-70461572D01*
X41079182Y-70455500D01*
X41681185Y-70455500D01*
X41731270Y-70466064D01*
X41780009Y-70487585D01*
X41805135Y-70490500D01*
X44164864Y-70490499D01*
X44164879Y-70490497D01*
X44164882Y-70490497D01*
X44189987Y-70487586D01*
X44189988Y-70487585D01*
X44189991Y-70487585D01*
X44292765Y-70442206D01*
X44372206Y-70362765D01*
X44417585Y-70259991D01*
X44420500Y-70234865D01*
X44420499Y-69735136D01*
X44420497Y-69735117D01*
X44417586Y-69710012D01*
X44417585Y-69710010D01*
X44417585Y-69710009D01*
X44372206Y-69607235D01*
X44292765Y-69527794D01*
X44271474Y-69518393D01*
X44189992Y-69482415D01*
X44164865Y-69479500D01*
X41805143Y-69479500D01*
X41805117Y-69479502D01*
X41780012Y-69482413D01*
X41780010Y-69482414D01*
X41731270Y-69503935D01*
X41681185Y-69514500D01*
X41034436Y-69514500D01*
X41022199Y-69511900D01*
X40972660Y-69514500D01*
X40923054Y-69514500D01*
X40921077Y-69514760D01*
X40900482Y-69518022D01*
X40898480Y-69518394D01*
X40854389Y-69532723D01*
X40851299Y-69533726D01*
X40803394Y-69546564D01*
X40792562Y-69552816D01*
X40780172Y-69556844D01*
X20929145Y-76008428D01*
X20890818Y-76014500D01*
X17404297Y-76014500D01*
X17342298Y-75997887D01*
X17216790Y-75925426D01*
X17216786Y-75925424D01*
X17216784Y-75925423D01*
X17064057Y-75884500D01*
X16905943Y-75884500D01*
X16753216Y-75925423D01*
X16753209Y-75925426D01*
X16616290Y-76004475D01*
X16616282Y-76004481D01*
X16504481Y-76116282D01*
X16504475Y-76116290D01*
X16425426Y-76253209D01*
X16425423Y-76253216D01*
X16384500Y-76405943D01*
X9500500Y-76405943D01*
X9500500Y-69405943D01*
X16384500Y-69405943D01*
X16384500Y-69564057D01*
X16423609Y-69710012D01*
X16425423Y-69716783D01*
X16425426Y-69716790D01*
X16504475Y-69853709D01*
X16504479Y-69853714D01*
X16504480Y-69853716D01*
X16616284Y-69965520D01*
X16616286Y-69965521D01*
X16616290Y-69965524D01*
X16753209Y-70044573D01*
X16753216Y-70044577D01*
X16905943Y-70085500D01*
X16905945Y-70085500D01*
X17064055Y-70085500D01*
X17064057Y-70085500D01*
X17216784Y-70044577D01*
X17264454Y-70017054D01*
X17342298Y-69972113D01*
X17404297Y-69955500D01*
X20936161Y-69955500D01*
X20948989Y-69958192D01*
X20997934Y-69955500D01*
X21046943Y-69955500D01*
X21047161Y-69955441D01*
X21072452Y-69951401D01*
X40994524Y-68855686D01*
X41001334Y-68855500D01*
X41681185Y-68855500D01*
X41731270Y-68866064D01*
X41780009Y-68887585D01*
X41805135Y-68890500D01*
X44164864Y-68890499D01*
X44164879Y-68890497D01*
X44164882Y-68890497D01*
X44189987Y-68887586D01*
X44189988Y-68887585D01*
X44189991Y-68887585D01*
X44292765Y-68842206D01*
X44372206Y-68762765D01*
X44417585Y-68659991D01*
X44420500Y-68634865D01*
X44420499Y-68135136D01*
X44420497Y-68135117D01*
X44417586Y-68110012D01*
X44417585Y-68110010D01*
X44417585Y-68110009D01*
X44372206Y-68007235D01*
X44292765Y-67927794D01*
X44270337Y-67917891D01*
X44189992Y-67882415D01*
X44164865Y-67879500D01*
X41805143Y-67879500D01*
X41805117Y-67879502D01*
X41780012Y-67882413D01*
X41780010Y-67882414D01*
X41731270Y-67903935D01*
X41681185Y-67914500D01*
X41033839Y-67914500D01*
X41021011Y-67911808D01*
X40972066Y-67914500D01*
X40923053Y-67914500D01*
X40922823Y-67914562D01*
X40897553Y-67918597D01*
X20975476Y-69014313D01*
X20968666Y-69014500D01*
X17404297Y-69014500D01*
X17342298Y-68997887D01*
X17216790Y-68925426D01*
X17216786Y-68925424D01*
X17216784Y-68925423D01*
X17064057Y-68884500D01*
X16905943Y-68884500D01*
X16753216Y-68925423D01*
X16753209Y-68925426D01*
X16616290Y-69004475D01*
X16616282Y-69004481D01*
X16504481Y-69116282D01*
X16504475Y-69116290D01*
X16425426Y-69253209D01*
X16425423Y-69253216D01*
X16384500Y-69405943D01*
X9500500Y-69405943D01*
X9500500Y-62405943D01*
X16384500Y-62405943D01*
X16384500Y-62564056D01*
X16425423Y-62716783D01*
X16425426Y-62716790D01*
X16504475Y-62853709D01*
X16504479Y-62853714D01*
X16504480Y-62853716D01*
X16616284Y-62965520D01*
X16616286Y-62965521D01*
X16616290Y-62965524D01*
X16753209Y-63044573D01*
X16753216Y-63044577D01*
X16905943Y-63085500D01*
X16905945Y-63085500D01*
X17064055Y-63085500D01*
X17064057Y-63085500D01*
X17216784Y-63044577D01*
X17264454Y-63017054D01*
X17342298Y-62972113D01*
X17404297Y-62955500D01*
X20968666Y-62955500D01*
X20975475Y-62955686D01*
X40910399Y-64052108D01*
X40923057Y-64055500D01*
X40972066Y-64055500D01*
X41021011Y-64058192D01*
X41021209Y-64058150D01*
X41021245Y-64058143D01*
X41046711Y-64055500D01*
X41681185Y-64055500D01*
X41731270Y-64066064D01*
X41780009Y-64087585D01*
X41805135Y-64090500D01*
X44164864Y-64090499D01*
X44164879Y-64090497D01*
X44164882Y-64090497D01*
X44189987Y-64087586D01*
X44189988Y-64087585D01*
X44189991Y-64087585D01*
X44292765Y-64042206D01*
X44372206Y-63962765D01*
X44417585Y-63859991D01*
X44420500Y-63834865D01*
X44420499Y-63335136D01*
X44420499Y-63335135D01*
X44420499Y-63335131D01*
X47279500Y-63335131D01*
X47279500Y-63834856D01*
X47279502Y-63834882D01*
X47282413Y-63859987D01*
X47282415Y-63859991D01*
X47327793Y-63962764D01*
X47327794Y-63962765D01*
X47407235Y-64042206D01*
X47510009Y-64087585D01*
X47535135Y-64090500D01*
X48120500Y-64090499D01*
X48187539Y-64110183D01*
X48233294Y-64162987D01*
X48244500Y-64214499D01*
X48244500Y-67755500D01*
X48224815Y-67822539D01*
X48172011Y-67868294D01*
X48120500Y-67879500D01*
X47535143Y-67879500D01*
X47535117Y-67879502D01*
X47510012Y-67882413D01*
X47510008Y-67882415D01*
X47407235Y-67927793D01*
X47327794Y-68007234D01*
X47282415Y-68110006D01*
X47282415Y-68110008D01*
X47279500Y-68135131D01*
X47279500Y-68634856D01*
X47279502Y-68634882D01*
X47282413Y-68659987D01*
X47282415Y-68659991D01*
X47327793Y-68762764D01*
X47327794Y-68762765D01*
X47407235Y-68842206D01*
X47510009Y-68887585D01*
X47535135Y-68890500D01*
X49894864Y-68890499D01*
X49894879Y-68890497D01*
X49894882Y-68890497D01*
X49919987Y-68887586D01*
X49919988Y-68887585D01*
X49919991Y-68887585D01*
X49957824Y-68870879D01*
X49968730Y-68866065D01*
X50018815Y-68855500D01*
X50681450Y-68855500D01*
X50709556Y-68859529D01*
X50743131Y-68855500D01*
X50776943Y-68855500D01*
X50776944Y-68855500D01*
X50795822Y-68850441D01*
X50813143Y-68847097D01*
X70000851Y-66544573D01*
X70735768Y-66456383D01*
X70750542Y-66455500D01*
X74295703Y-66455500D01*
X74357702Y-66472113D01*
X74483209Y-66544573D01*
X74483216Y-66544577D01*
X74635943Y-66585500D01*
X74635945Y-66585500D01*
X74794055Y-66585500D01*
X74794057Y-66585500D01*
X74946784Y-66544577D01*
X75083716Y-66465520D01*
X75195520Y-66353716D01*
X75274577Y-66216784D01*
X75315500Y-66064057D01*
X75315500Y-65905943D01*
X75274577Y-65753216D01*
X75274573Y-65753209D01*
X75195524Y-65616290D01*
X75195518Y-65616282D01*
X75083717Y-65504481D01*
X75083709Y-65504475D01*
X74946790Y-65425426D01*
X74946786Y-65425424D01*
X74946784Y-65425423D01*
X74794057Y-65384500D01*
X74635943Y-65384500D01*
X74483216Y-65425423D01*
X74483209Y-65425426D01*
X74357702Y-65497887D01*
X74295703Y-65514500D01*
X70748550Y-65514500D01*
X70720444Y-65510471D01*
X70686869Y-65514500D01*
X70653057Y-65514500D01*
X70634170Y-65519560D01*
X70616857Y-65522901D01*
X50694231Y-67913617D01*
X50679457Y-67914500D01*
X50018815Y-67914500D01*
X49968729Y-67903935D01*
X49919991Y-67882415D01*
X49913709Y-67881686D01*
X49894868Y-67879500D01*
X49894865Y-67879500D01*
X49309500Y-67879500D01*
X49242461Y-67859815D01*
X49196706Y-67807011D01*
X49185500Y-67755500D01*
X49185500Y-64214499D01*
X49205185Y-64147460D01*
X49257989Y-64101705D01*
X49309500Y-64090499D01*
X49894856Y-64090499D01*
X49894864Y-64090499D01*
X49894879Y-64090497D01*
X49894882Y-64090497D01*
X49919987Y-64087586D01*
X49919988Y-64087585D01*
X49919991Y-64087585D01*
X50022765Y-64042206D01*
X50102206Y-63962765D01*
X50147585Y-63859991D01*
X50150500Y-63834865D01*
X50150499Y-63335136D01*
X50150497Y-63335117D01*
X50147586Y-63310012D01*
X50147585Y-63310010D01*
X50147585Y-63310009D01*
X50102206Y-63207235D01*
X50022765Y-63127794D01*
X49992657Y-63114500D01*
X49919992Y-63082415D01*
X49894865Y-63079500D01*
X47535143Y-63079500D01*
X47535117Y-63079502D01*
X47510012Y-63082413D01*
X47510008Y-63082415D01*
X47407235Y-63127793D01*
X47327794Y-63207234D01*
X47282415Y-63310006D01*
X47282415Y-63310008D01*
X47279500Y-63335131D01*
X44420499Y-63335131D01*
X44420499Y-63335130D01*
X44417586Y-63310012D01*
X44417585Y-63310010D01*
X44417585Y-63310009D01*
X44372206Y-63207235D01*
X44292765Y-63127794D01*
X44262657Y-63114500D01*
X44189992Y-63082415D01*
X44164865Y-63079500D01*
X41805143Y-63079500D01*
X41805117Y-63079502D01*
X41780012Y-63082413D01*
X41780010Y-63082414D01*
X41731270Y-63103935D01*
X41681185Y-63114500D01*
X41001334Y-63114500D01*
X40994524Y-63114313D01*
X21072449Y-62018597D01*
X21072449Y-62018596D01*
X21059593Y-62017889D01*
X21046943Y-62014500D01*
X20997938Y-62014500D01*
X20994536Y-62014313D01*
X20994535Y-62014313D01*
X20948989Y-62011808D01*
X20948986Y-62011808D01*
X20948755Y-62011857D01*
X20923289Y-62014500D01*
X17404297Y-62014500D01*
X17342298Y-61997887D01*
X17216790Y-61925426D01*
X17216786Y-61925424D01*
X17216784Y-61925423D01*
X17064057Y-61884500D01*
X16905943Y-61884500D01*
X16753216Y-61925423D01*
X16753209Y-61925426D01*
X16616290Y-62004475D01*
X16616282Y-62004481D01*
X16504481Y-62116282D01*
X16504475Y-62116290D01*
X16425426Y-62253209D01*
X16425423Y-62253216D01*
X16384500Y-62405943D01*
X9500500Y-62405943D01*
X9500500Y-55405943D01*
X16384500Y-55405943D01*
X16384500Y-55564056D01*
X16425423Y-55716783D01*
X16425426Y-55716790D01*
X16504475Y-55853709D01*
X16504479Y-55853714D01*
X16504480Y-55853716D01*
X16616284Y-55965520D01*
X16616286Y-55965521D01*
X16616290Y-55965524D01*
X16688535Y-56007234D01*
X16753216Y-56044577D01*
X16905943Y-56085500D01*
X16905945Y-56085500D01*
X17064055Y-56085500D01*
X17064057Y-56085500D01*
X17216784Y-56044577D01*
X17281465Y-56007234D01*
X17342298Y-55972113D01*
X17404297Y-55955500D01*
X20890818Y-55955500D01*
X20929145Y-55961572D01*
X21069647Y-56007235D01*
X40792561Y-62417181D01*
X40803394Y-62423436D01*
X40851311Y-62436275D01*
X40898485Y-62451607D01*
X40910974Y-62452262D01*
X40923057Y-62455500D01*
X40972660Y-62455500D01*
X40997977Y-62456828D01*
X41022198Y-62458100D01*
X41022198Y-62458099D01*
X41022199Y-62458100D01*
X41022199Y-62458099D01*
X41024283Y-62457936D01*
X41047464Y-62455500D01*
X41681185Y-62455500D01*
X41731270Y-62466064D01*
X41780009Y-62487585D01*
X41805135Y-62490500D01*
X44164864Y-62490499D01*
X44164879Y-62490497D01*
X44164882Y-62490497D01*
X44189987Y-62487586D01*
X44189988Y-62487585D01*
X44189991Y-62487585D01*
X44292765Y-62442206D01*
X44372206Y-62362765D01*
X44417585Y-62259991D01*
X44420500Y-62234865D01*
X44420499Y-61735136D01*
X44420497Y-61735117D01*
X44417586Y-61710012D01*
X44417585Y-61710010D01*
X44417585Y-61710009D01*
X44372206Y-61607235D01*
X44292765Y-61527794D01*
X44248905Y-61508428D01*
X44189992Y-61482415D01*
X44164865Y-61479500D01*
X41805143Y-61479500D01*
X41805117Y-61479502D01*
X41780012Y-61482413D01*
X41780010Y-61482414D01*
X41731270Y-61503935D01*
X41681185Y-61514500D01*
X41079182Y-61514500D01*
X41040855Y-61508428D01*
X21189829Y-55056845D01*
X21177437Y-55052817D01*
X21166606Y-55046564D01*
X21118692Y-55033725D01*
X21115578Y-55032713D01*
X21115577Y-55032712D01*
X21071521Y-55018394D01*
X21069462Y-55018012D01*
X21048984Y-55014768D01*
X21046944Y-55014500D01*
X21046943Y-55014500D01*
X21046941Y-55014500D01*
X20997329Y-55014500D01*
X20947801Y-55011901D01*
X20935569Y-55014500D01*
X17404297Y-55014500D01*
X17342298Y-54997887D01*
X17216790Y-54925426D01*
X17216786Y-54925424D01*
X17216784Y-54925423D01*
X17064057Y-54884500D01*
X16905943Y-54884500D01*
X16753216Y-54925423D01*
X16753209Y-54925426D01*
X16616290Y-55004475D01*
X16616282Y-55004481D01*
X16504481Y-55116282D01*
X16504475Y-55116290D01*
X16425426Y-55253209D01*
X16425423Y-55253216D01*
X16384500Y-55405943D01*
X9500500Y-55405943D01*
X9500500Y-48405943D01*
X16384500Y-48405943D01*
X16384500Y-48564057D01*
X16410206Y-48659991D01*
X16425423Y-48716783D01*
X16425426Y-48716790D01*
X16504475Y-48853709D01*
X16504479Y-48853714D01*
X16504480Y-48853716D01*
X16616284Y-48965520D01*
X16616286Y-48965521D01*
X16616290Y-48965524D01*
X16697005Y-49012124D01*
X16753216Y-49044577D01*
X16905943Y-49085500D01*
X16905945Y-49085500D01*
X17064055Y-49085500D01*
X17064057Y-49085500D01*
X17216784Y-49044577D01*
X17272995Y-49012124D01*
X17342298Y-48972113D01*
X17404297Y-48955500D01*
X20821513Y-48955500D01*
X20884917Y-48972936D01*
X40693883Y-60759271D01*
X40696106Y-60761494D01*
X40747093Y-60790931D01*
X40797651Y-60821013D01*
X40797890Y-60821155D01*
X40799734Y-60821919D01*
X40801241Y-60822555D01*
X40803120Y-60823362D01*
X40803392Y-60823434D01*
X40803394Y-60823436D01*
X40860259Y-60838673D01*
X40916882Y-60854645D01*
X40920020Y-60854686D01*
X40923057Y-60855500D01*
X40923060Y-60855500D01*
X40981939Y-60855500D01*
X41040757Y-60856273D01*
X41043801Y-60855500D01*
X41681185Y-60855500D01*
X41731270Y-60866064D01*
X41780009Y-60887585D01*
X41805135Y-60890500D01*
X44164864Y-60890499D01*
X44164879Y-60890497D01*
X44164882Y-60890497D01*
X44189987Y-60887586D01*
X44189988Y-60887585D01*
X44189991Y-60887585D01*
X44292765Y-60842206D01*
X44372206Y-60762765D01*
X44417585Y-60659991D01*
X44420500Y-60634865D01*
X44420499Y-60135136D01*
X44420497Y-60135117D01*
X44417586Y-60110012D01*
X44417585Y-60110010D01*
X44417585Y-60110009D01*
X44372206Y-60007235D01*
X44292765Y-59927794D01*
X44262657Y-59914500D01*
X44189992Y-59882415D01*
X44164865Y-59879500D01*
X41805143Y-59879500D01*
X41805117Y-59879502D01*
X41780012Y-59882413D01*
X41780010Y-59882414D01*
X41731270Y-59903935D01*
X41681185Y-59914500D01*
X41148487Y-59914500D01*
X41085082Y-59897063D01*
X41022769Y-59859987D01*
X40140658Y-59335131D01*
X47279500Y-59335131D01*
X47279500Y-59834856D01*
X47279502Y-59834882D01*
X47282413Y-59859987D01*
X47282415Y-59859991D01*
X47327793Y-59962764D01*
X47327794Y-59962765D01*
X47407235Y-60042206D01*
X47510009Y-60087585D01*
X47535135Y-60090500D01*
X49894864Y-60090499D01*
X49894879Y-60090497D01*
X49894882Y-60090497D01*
X49919987Y-60087586D01*
X49919988Y-60087585D01*
X49919991Y-60087585D01*
X49957824Y-60070879D01*
X49968730Y-60066065D01*
X50018815Y-60055500D01*
X50295703Y-60055500D01*
X50357702Y-60072113D01*
X50483209Y-60144573D01*
X50483216Y-60144577D01*
X50635943Y-60185500D01*
X50635945Y-60185500D01*
X50794055Y-60185500D01*
X50794057Y-60185500D01*
X50946784Y-60144577D01*
X51083716Y-60065520D01*
X51195520Y-59953716D01*
X51274577Y-59816784D01*
X51315500Y-59664057D01*
X51315500Y-59505943D01*
X51274577Y-59353216D01*
X51249630Y-59310006D01*
X51195524Y-59216290D01*
X51195518Y-59216282D01*
X51083717Y-59104481D01*
X51083709Y-59104475D01*
X50946790Y-59025426D01*
X50946786Y-59025424D01*
X50946784Y-59025423D01*
X50794057Y-58984500D01*
X50635943Y-58984500D01*
X50483216Y-59025423D01*
X50483209Y-59025426D01*
X50357702Y-59097887D01*
X50295703Y-59114500D01*
X50018815Y-59114500D01*
X49968729Y-59103935D01*
X49919991Y-59082415D01*
X49894865Y-59079500D01*
X47535143Y-59079500D01*
X47535117Y-59079502D01*
X47510012Y-59082413D01*
X47510008Y-59082415D01*
X47407235Y-59127793D01*
X47327794Y-59207234D01*
X47282415Y-59310006D01*
X47282415Y-59310008D01*
X47279500Y-59335131D01*
X40140658Y-59335131D01*
X21276116Y-48110728D01*
X21273894Y-48108506D01*
X21222924Y-48079078D01*
X21222278Y-48078694D01*
X21222235Y-48078669D01*
X21172349Y-48048987D01*
X21172347Y-48048986D01*
X21172101Y-48048840D01*
X21170265Y-48048079D01*
X21168782Y-48047454D01*
X21166882Y-48046638D01*
X21110523Y-48031535D01*
X21109740Y-48031326D01*
X21053118Y-48015355D01*
X21049979Y-48015313D01*
X21046943Y-48014500D01*
X21046941Y-48014500D01*
X20988061Y-48014500D01*
X20929243Y-48013727D01*
X20926199Y-48014500D01*
X17404297Y-48014500D01*
X17342298Y-47997887D01*
X17216790Y-47925426D01*
X17216786Y-47925424D01*
X17216784Y-47925423D01*
X17064057Y-47884500D01*
X16905943Y-47884500D01*
X16753216Y-47925423D01*
X16753209Y-47925426D01*
X16616290Y-48004475D01*
X16616282Y-48004481D01*
X16504481Y-48116282D01*
X16504475Y-48116290D01*
X16425426Y-48253209D01*
X16425423Y-48253216D01*
X16384500Y-48405943D01*
X9500500Y-48405943D01*
X9500500Y-41405943D01*
X16384500Y-41405943D01*
X16384500Y-41564056D01*
X16425423Y-41716783D01*
X16425426Y-41716790D01*
X16504475Y-41853709D01*
X16504479Y-41853714D01*
X16504480Y-41853716D01*
X16616284Y-41965520D01*
X16616286Y-41965521D01*
X16616290Y-41965524D01*
X16753209Y-42044573D01*
X16753216Y-42044577D01*
X16905943Y-42085500D01*
X16905945Y-42085500D01*
X17064055Y-42085500D01*
X17064057Y-42085500D01*
X17216784Y-42044577D01*
X17264454Y-42017054D01*
X17342298Y-41972113D01*
X17404297Y-41955500D01*
X20565703Y-41955500D01*
X20627702Y-41972113D01*
X20753209Y-42044573D01*
X20753216Y-42044577D01*
X20905943Y-42085500D01*
X20905945Y-42085500D01*
X21064055Y-42085500D01*
X21064057Y-42085500D01*
X21216784Y-42044577D01*
X21353716Y-41965520D01*
X21465520Y-41853716D01*
X21544577Y-41716784D01*
X21585500Y-41564057D01*
X21585500Y-41405943D01*
X21544577Y-41253216D01*
X21544573Y-41253209D01*
X21465524Y-41116290D01*
X21465518Y-41116282D01*
X21353717Y-41004481D01*
X21353709Y-41004475D01*
X21216790Y-40925426D01*
X21216786Y-40925424D01*
X21216784Y-40925423D01*
X21064057Y-40884500D01*
X20905943Y-40884500D01*
X20753216Y-40925423D01*
X20753209Y-40925426D01*
X20627702Y-40997887D01*
X20565703Y-41014500D01*
X17404297Y-41014500D01*
X17342298Y-40997887D01*
X17216790Y-40925426D01*
X17216786Y-40925424D01*
X17216784Y-40925423D01*
X17064057Y-40884500D01*
X16905943Y-40884500D01*
X16753216Y-40925423D01*
X16753209Y-40925426D01*
X16616290Y-41004475D01*
X16616282Y-41004481D01*
X16504481Y-41116282D01*
X16504475Y-41116290D01*
X16425426Y-41253209D01*
X16425423Y-41253216D01*
X16384500Y-41405943D01*
X9500500Y-41405943D01*
X9500500Y-34405943D01*
X16384500Y-34405943D01*
X16384500Y-34564056D01*
X16425423Y-34716783D01*
X16425426Y-34716790D01*
X16504475Y-34853709D01*
X16504479Y-34853714D01*
X16504480Y-34853716D01*
X16616284Y-34965520D01*
X16616286Y-34965521D01*
X16616290Y-34965524D01*
X16633024Y-34975185D01*
X16753216Y-35044577D01*
X16905943Y-35085500D01*
X16905945Y-35085500D01*
X17064055Y-35085500D01*
X17064057Y-35085500D01*
X17216784Y-35044577D01*
X17292782Y-35000700D01*
X17342298Y-34972113D01*
X17404297Y-34955500D01*
X20704337Y-34955500D01*
X20771376Y-34975185D01*
X20800077Y-35000698D01*
X26071885Y-41405945D01*
X40590470Y-59046027D01*
X40590471Y-59046027D01*
X40596990Y-59053948D01*
X40608506Y-59073894D01*
X40636200Y-59101588D01*
X40661084Y-59131822D01*
X40671481Y-59139250D01*
X40687075Y-59152463D01*
X40696103Y-59161491D01*
X40696102Y-59161491D01*
X40696104Y-59161492D01*
X40696106Y-59161494D01*
X40724831Y-59178077D01*
X40734906Y-59184564D01*
X40761883Y-59203839D01*
X40761884Y-59203839D01*
X40761885Y-59203840D01*
X40783451Y-59211922D01*
X40803394Y-59223436D01*
X40841216Y-59233570D01*
X40846838Y-59235677D01*
X40846841Y-59235678D01*
X40877890Y-59247315D01*
X40890603Y-59248549D01*
X40890604Y-59248549D01*
X40900814Y-59249540D01*
X40923057Y-59255500D01*
X40962214Y-59255500D01*
X41001197Y-59259284D01*
X41010609Y-59257716D01*
X41013800Y-59257185D01*
X41034171Y-59255500D01*
X41681185Y-59255500D01*
X41731270Y-59266064D01*
X41780009Y-59287585D01*
X41805135Y-59290500D01*
X44164864Y-59290499D01*
X44164879Y-59290497D01*
X44164882Y-59290497D01*
X44189987Y-59287586D01*
X44189988Y-59287585D01*
X44189991Y-59287585D01*
X44292765Y-59242206D01*
X44372206Y-59162765D01*
X44417585Y-59059991D01*
X44420500Y-59034865D01*
X44420499Y-58535136D01*
X44417986Y-58513465D01*
X44417586Y-58510012D01*
X44417585Y-58510010D01*
X44417585Y-58510009D01*
X44372206Y-58407235D01*
X44292765Y-58327794D01*
X44262657Y-58314500D01*
X44189992Y-58282415D01*
X44164865Y-58279500D01*
X41805143Y-58279500D01*
X41805117Y-58279502D01*
X41780012Y-58282413D01*
X41780010Y-58282414D01*
X41731270Y-58303935D01*
X41681185Y-58314500D01*
X41265663Y-58314500D01*
X41198624Y-58294815D01*
X41169921Y-58269300D01*
X41162259Y-58259991D01*
X40730275Y-57735131D01*
X47279500Y-57735131D01*
X47279500Y-58234856D01*
X47279502Y-58234882D01*
X47282413Y-58259987D01*
X47282415Y-58259991D01*
X47327793Y-58362764D01*
X47327794Y-58362765D01*
X47407235Y-58442206D01*
X47510009Y-58487585D01*
X47535135Y-58490500D01*
X49894864Y-58490499D01*
X49894879Y-58490497D01*
X49894882Y-58490497D01*
X49919987Y-58487586D01*
X49919988Y-58487585D01*
X49919991Y-58487585D01*
X49957824Y-58470879D01*
X49968730Y-58466065D01*
X50018815Y-58455500D01*
X50295703Y-58455500D01*
X50357702Y-58472113D01*
X50483209Y-58544573D01*
X50483216Y-58544577D01*
X50635943Y-58585500D01*
X50635945Y-58585500D01*
X50794055Y-58585500D01*
X50794057Y-58585500D01*
X50946784Y-58544577D01*
X51083716Y-58465520D01*
X51195520Y-58353716D01*
X51274577Y-58216784D01*
X51315500Y-58064057D01*
X51315500Y-57905943D01*
X51274577Y-57753216D01*
X51249630Y-57710006D01*
X51195524Y-57616290D01*
X51195518Y-57616282D01*
X51083717Y-57504481D01*
X51083709Y-57504475D01*
X50946790Y-57425426D01*
X50946786Y-57425424D01*
X50946784Y-57425423D01*
X50794057Y-57384500D01*
X50635943Y-57384500D01*
X50483216Y-57425423D01*
X50483209Y-57425426D01*
X50357702Y-57497887D01*
X50295703Y-57514500D01*
X50018815Y-57514500D01*
X49968729Y-57503935D01*
X49919991Y-57482415D01*
X49894865Y-57479500D01*
X47535143Y-57479500D01*
X47535117Y-57479502D01*
X47510012Y-57482413D01*
X47510008Y-57482415D01*
X47407235Y-57527793D01*
X47327794Y-57607234D01*
X47282415Y-57710006D01*
X47282415Y-57710008D01*
X47279500Y-57735131D01*
X40730275Y-57735131D01*
X39413403Y-56135131D01*
X47279500Y-56135131D01*
X47279500Y-56634856D01*
X47279502Y-56634882D01*
X47282413Y-56659987D01*
X47282415Y-56659991D01*
X47327793Y-56762764D01*
X47327794Y-56762765D01*
X47407235Y-56842206D01*
X47510009Y-56887585D01*
X47535135Y-56890500D01*
X49894864Y-56890499D01*
X49894879Y-56890497D01*
X49894882Y-56890497D01*
X49919987Y-56887586D01*
X49919988Y-56887585D01*
X49919991Y-56887585D01*
X49957824Y-56870879D01*
X49968730Y-56866065D01*
X50018815Y-56855500D01*
X50676519Y-56855500D01*
X50692503Y-56856534D01*
X70623380Y-59447548D01*
X70653057Y-59455500D01*
X70684549Y-59455500D01*
X70692511Y-59456535D01*
X70715770Y-59459559D01*
X70715771Y-59459559D01*
X70715771Y-59459558D01*
X70715772Y-59459559D01*
X70738067Y-59456586D01*
X70754451Y-59455500D01*
X74295703Y-59455500D01*
X74357702Y-59472113D01*
X74483209Y-59544573D01*
X74483216Y-59544577D01*
X74635943Y-59585500D01*
X74635945Y-59585500D01*
X74794055Y-59585500D01*
X74794057Y-59585500D01*
X74946784Y-59544577D01*
X75083716Y-59465520D01*
X75195520Y-59353716D01*
X75274577Y-59216784D01*
X75315500Y-59064057D01*
X75315500Y-58905943D01*
X75274577Y-58753216D01*
X75274573Y-58753209D01*
X75195524Y-58616290D01*
X75195518Y-58616282D01*
X75083717Y-58504481D01*
X75083709Y-58504475D01*
X74946790Y-58425426D01*
X74946786Y-58425424D01*
X74946784Y-58425423D01*
X74794057Y-58384500D01*
X74635943Y-58384500D01*
X74483216Y-58425423D01*
X74483209Y-58425426D01*
X74357702Y-58497887D01*
X74295703Y-58514500D01*
X70753481Y-58514500D01*
X70737496Y-58513465D01*
X70710934Y-58510012D01*
X69309258Y-58327794D01*
X50814780Y-55923511D01*
X50806619Y-55922451D01*
X50776943Y-55914500D01*
X50745451Y-55914500D01*
X50737490Y-55913465D01*
X50714229Y-55910440D01*
X50714228Y-55910440D01*
X50694619Y-55913054D01*
X50691932Y-55913413D01*
X50675549Y-55914500D01*
X50018815Y-55914500D01*
X49968729Y-55903935D01*
X49919991Y-55882415D01*
X49894865Y-55879500D01*
X47535143Y-55879500D01*
X47535117Y-55879502D01*
X47510012Y-55882413D01*
X47510008Y-55882415D01*
X47407235Y-55927793D01*
X47327794Y-56007234D01*
X47282415Y-56110006D01*
X47282415Y-56110008D01*
X47279500Y-56135131D01*
X39413403Y-56135131D01*
X38096530Y-54535131D01*
X47279500Y-54535131D01*
X47279500Y-55034856D01*
X47279502Y-55034882D01*
X47282413Y-55059987D01*
X47282415Y-55059991D01*
X47327793Y-55162764D01*
X47327794Y-55162765D01*
X47407235Y-55242206D01*
X47510009Y-55287585D01*
X47535135Y-55290500D01*
X49894864Y-55290499D01*
X49894879Y-55290497D01*
X49894882Y-55290497D01*
X49919987Y-55287586D01*
X49919988Y-55287585D01*
X49919991Y-55287585D01*
X49957824Y-55270879D01*
X49968730Y-55266065D01*
X50018815Y-55255500D01*
X50686097Y-55255500D01*
X50718889Y-55259544D01*
X50747775Y-55255500D01*
X50776943Y-55255500D01*
X50801513Y-55248915D01*
X50816397Y-55245892D01*
X69819214Y-52585499D01*
X70739222Y-52456698D01*
X70756414Y-52455500D01*
X74295703Y-52455500D01*
X74357702Y-52472113D01*
X74483209Y-52544573D01*
X74483216Y-52544577D01*
X74635943Y-52585500D01*
X74635945Y-52585500D01*
X74794055Y-52585500D01*
X74794057Y-52585500D01*
X74946784Y-52544577D01*
X75083716Y-52465520D01*
X75195520Y-52353716D01*
X75274577Y-52216784D01*
X75315500Y-52064057D01*
X75315500Y-51905943D01*
X75274577Y-51753216D01*
X75274573Y-51753209D01*
X75195524Y-51616290D01*
X75195518Y-51616282D01*
X75083717Y-51504481D01*
X75083709Y-51504475D01*
X74946790Y-51425426D01*
X74946786Y-51425424D01*
X74946784Y-51425423D01*
X74794057Y-51384500D01*
X74635943Y-51384500D01*
X74483216Y-51425423D01*
X74483209Y-51425426D01*
X74357702Y-51497887D01*
X74295703Y-51514500D01*
X70743903Y-51514500D01*
X70711111Y-51510456D01*
X70682225Y-51514500D01*
X70653057Y-51514500D01*
X70628493Y-51521081D01*
X70613598Y-51524107D01*
X50690778Y-54313302D01*
X50673586Y-54314500D01*
X50018815Y-54314500D01*
X49968729Y-54303935D01*
X49919991Y-54282415D01*
X49894865Y-54279500D01*
X47535143Y-54279500D01*
X47535117Y-54279502D01*
X47510012Y-54282413D01*
X47510008Y-54282415D01*
X47407235Y-54327793D01*
X47327794Y-54407234D01*
X47282415Y-54510006D01*
X47282415Y-54510008D01*
X47279500Y-54535131D01*
X38096530Y-54535131D01*
X36779658Y-52935131D01*
X47279500Y-52935131D01*
X47279500Y-53434856D01*
X47279502Y-53434882D01*
X47282413Y-53459987D01*
X47282415Y-53459991D01*
X47327793Y-53562764D01*
X47327794Y-53562765D01*
X47407235Y-53642206D01*
X47510009Y-53687585D01*
X47535135Y-53690500D01*
X49894864Y-53690499D01*
X49894879Y-53690497D01*
X49894882Y-53690497D01*
X49919987Y-53687586D01*
X49919988Y-53687585D01*
X49919991Y-53687585D01*
X49957824Y-53670879D01*
X49968730Y-53666065D01*
X50018815Y-53655500D01*
X50683309Y-53655500D01*
X50713291Y-53659557D01*
X50744988Y-53655500D01*
X50776943Y-53655500D01*
X50776944Y-53655500D01*
X50798094Y-53649832D01*
X50798094Y-53649831D01*
X50806165Y-53647669D01*
X50836173Y-53643829D01*
X50865739Y-53631706D01*
X50896606Y-53623436D01*
X50915573Y-53612484D01*
X50930527Y-53605143D01*
X68234011Y-46510716D01*
X70785102Y-45464769D01*
X70832142Y-45455500D01*
X74295703Y-45455500D01*
X74357702Y-45472113D01*
X74483209Y-45544573D01*
X74483216Y-45544577D01*
X74635943Y-45585500D01*
X74635945Y-45585500D01*
X74794055Y-45585500D01*
X74794057Y-45585500D01*
X74946784Y-45544577D01*
X75083716Y-45465520D01*
X75195520Y-45353716D01*
X75274577Y-45216784D01*
X75315500Y-45064057D01*
X75315500Y-44905943D01*
X75274577Y-44753216D01*
X75274573Y-44753209D01*
X75195524Y-44616290D01*
X75195518Y-44616282D01*
X75083717Y-44504481D01*
X75083709Y-44504475D01*
X74946790Y-44425426D01*
X74946786Y-44425424D01*
X74946784Y-44425423D01*
X74794057Y-44384500D01*
X74635943Y-44384500D01*
X74483216Y-44425423D01*
X74483209Y-44425426D01*
X74357702Y-44497887D01*
X74295703Y-44514500D01*
X70746691Y-44514500D01*
X70716709Y-44510443D01*
X70685012Y-44514500D01*
X70653053Y-44514500D01*
X70631898Y-44520169D01*
X70615556Y-44523389D01*
X70593827Y-44526171D01*
X70571568Y-44535297D01*
X70571567Y-44535297D01*
X70564257Y-44538293D01*
X70533394Y-44546564D01*
X70507199Y-44561686D01*
X70499468Y-44564856D01*
X50644898Y-52705231D01*
X50597858Y-52714500D01*
X50018815Y-52714500D01*
X49968729Y-52703935D01*
X49919991Y-52682415D01*
X49894865Y-52679500D01*
X47535143Y-52679500D01*
X47535117Y-52679502D01*
X47510012Y-52682413D01*
X47510008Y-52682415D01*
X47407235Y-52727793D01*
X47327794Y-52807234D01*
X47282415Y-52910006D01*
X47282415Y-52910008D01*
X47279500Y-52935131D01*
X36779658Y-52935131D01*
X35462786Y-51335131D01*
X47279500Y-51335131D01*
X47279500Y-51834856D01*
X47279502Y-51834882D01*
X47282413Y-51859987D01*
X47282415Y-51859991D01*
X47327793Y-51962764D01*
X47327794Y-51962765D01*
X47407235Y-52042206D01*
X47510009Y-52087585D01*
X47535135Y-52090500D01*
X49894864Y-52090499D01*
X49894879Y-52090497D01*
X49894882Y-52090497D01*
X49919987Y-52087586D01*
X49919988Y-52087585D01*
X49919991Y-52087585D01*
X49957824Y-52070879D01*
X49968730Y-52066065D01*
X50018815Y-52055500D01*
X50670587Y-52055500D01*
X50687812Y-52058781D01*
X50732319Y-52055500D01*
X50776943Y-52055500D01*
X50793879Y-52050961D01*
X50811362Y-52049673D01*
X50853499Y-52034986D01*
X50896606Y-52023436D01*
X50901649Y-52020523D01*
X50922850Y-52010815D01*
X50928342Y-52008901D01*
X50928341Y-52008901D01*
X50928345Y-52008900D01*
X50965247Y-51983806D01*
X51003894Y-51961494D01*
X51016291Y-51949096D01*
X70668640Y-38585499D01*
X70828255Y-38476961D01*
X70894760Y-38455542D01*
X70897981Y-38455500D01*
X74295703Y-38455500D01*
X74357702Y-38472113D01*
X74483209Y-38544573D01*
X74483216Y-38544577D01*
X74635943Y-38585500D01*
X74635945Y-38585500D01*
X74794055Y-38585500D01*
X74794057Y-38585500D01*
X74946784Y-38544577D01*
X75083716Y-38465520D01*
X75195520Y-38353716D01*
X75274577Y-38216784D01*
X75315500Y-38064057D01*
X75315500Y-37905943D01*
X75274577Y-37753216D01*
X75274573Y-37753209D01*
X75195524Y-37616290D01*
X75195518Y-37616282D01*
X75083717Y-37504481D01*
X75083709Y-37504475D01*
X74946790Y-37425426D01*
X74946786Y-37425424D01*
X74946784Y-37425423D01*
X74794057Y-37384500D01*
X74635943Y-37384500D01*
X74483216Y-37425423D01*
X74483209Y-37425426D01*
X74357702Y-37497887D01*
X74295703Y-37514500D01*
X70759412Y-37514500D01*
X70742187Y-37511219D01*
X70697681Y-37514500D01*
X70653057Y-37514500D01*
X70653049Y-37514501D01*
X70647423Y-37516008D01*
X70647424Y-37516009D01*
X70636120Y-37519038D01*
X70618638Y-37520327D01*
X70576500Y-37535013D01*
X70572093Y-37536193D01*
X70572092Y-37536193D01*
X70533396Y-37546563D01*
X70533392Y-37546564D01*
X70528345Y-37549477D01*
X70528346Y-37549478D01*
X70518211Y-37555329D01*
X70501655Y-37561100D01*
X70464770Y-37586180D01*
X70460808Y-37588468D01*
X70460808Y-37588469D01*
X70426105Y-37608506D01*
X70426101Y-37608509D01*
X70421975Y-37612635D01*
X70404029Y-37627484D01*
X50601745Y-51093039D01*
X50535240Y-51114458D01*
X50532019Y-51114500D01*
X50018815Y-51114500D01*
X49968729Y-51103935D01*
X49919991Y-51082415D01*
X49894865Y-51079500D01*
X47535143Y-51079500D01*
X47535117Y-51079502D01*
X47510012Y-51082413D01*
X47510008Y-51082415D01*
X47407235Y-51127793D01*
X47327794Y-51207234D01*
X47282415Y-51310006D01*
X47282415Y-51310008D01*
X47279500Y-51335131D01*
X35462786Y-51335131D01*
X32829041Y-48135131D01*
X41549500Y-48135131D01*
X41549500Y-48634856D01*
X41549502Y-48634882D01*
X41552413Y-48659987D01*
X41552415Y-48659991D01*
X41585496Y-48734913D01*
X41594568Y-48804191D01*
X41585497Y-48835085D01*
X41552415Y-48910009D01*
X41549500Y-48935131D01*
X41549500Y-49434856D01*
X41549502Y-49434882D01*
X41552413Y-49459987D01*
X41552415Y-49459991D01*
X41597793Y-49562764D01*
X41597794Y-49562765D01*
X41677235Y-49642206D01*
X41780009Y-49687585D01*
X41805135Y-49690500D01*
X44164864Y-49690499D01*
X44164879Y-49690497D01*
X44164882Y-49690497D01*
X44189987Y-49687586D01*
X44189988Y-49687585D01*
X44189991Y-49687585D01*
X44292765Y-49642206D01*
X44372206Y-49562765D01*
X44417585Y-49459991D01*
X44420500Y-49434865D01*
X44420499Y-48935136D01*
X44419389Y-48925563D01*
X44417586Y-48910012D01*
X44417585Y-48910011D01*
X44417585Y-48910009D01*
X44384502Y-48835084D01*
X44375431Y-48765809D01*
X44384501Y-48734918D01*
X44417585Y-48659991D01*
X44420500Y-48634865D01*
X44420499Y-48135136D01*
X44420499Y-48135135D01*
X44420499Y-48135131D01*
X47279500Y-48135131D01*
X47279500Y-48634856D01*
X47279502Y-48634882D01*
X47282413Y-48659987D01*
X47282415Y-48659991D01*
X47327793Y-48762764D01*
X47327794Y-48762765D01*
X47407235Y-48842206D01*
X47510009Y-48887585D01*
X47535135Y-48890500D01*
X49894864Y-48890499D01*
X49894879Y-48890497D01*
X49894882Y-48890497D01*
X49919987Y-48887586D01*
X49919988Y-48887585D01*
X49919991Y-48887585D01*
X49957824Y-48870879D01*
X49968730Y-48866065D01*
X50018815Y-48855500D01*
X50676564Y-48855500D01*
X50699758Y-48859315D01*
X50738255Y-48855500D01*
X50776943Y-48855500D01*
X50789869Y-48852036D01*
X50809725Y-48848417D01*
X50823040Y-48847098D01*
X50853601Y-48835573D01*
X50854760Y-48835144D01*
X50859881Y-48833275D01*
X50896606Y-48823436D01*
X50913343Y-48813771D01*
X50923491Y-48810070D01*
X50948007Y-48808493D01*
X50971881Y-48802700D01*
X50982257Y-48806290D01*
X50993216Y-48805586D01*
X51014692Y-48817514D01*
X51037909Y-48825548D01*
X51044697Y-48834179D01*
X51054297Y-48839511D01*
X51065915Y-48861156D01*
X51081103Y-48880467D01*
X51082147Y-48891398D01*
X51087341Y-48901074D01*
X51085412Y-48925563D01*
X51087749Y-48950020D01*
X51082717Y-48959781D01*
X51081855Y-48970728D01*
X51066991Y-48990288D01*
X51055736Y-49012124D01*
X51051393Y-49016460D01*
X50709573Y-49341189D01*
X50610950Y-49434882D01*
X50563036Y-49480400D01*
X50500875Y-49512302D01*
X50477631Y-49514500D01*
X50018815Y-49514500D01*
X49968729Y-49503935D01*
X49919991Y-49482415D01*
X49894865Y-49479500D01*
X47535143Y-49479500D01*
X47535117Y-49479502D01*
X47510012Y-49482413D01*
X47510008Y-49482415D01*
X47407235Y-49527793D01*
X47327794Y-49607234D01*
X47282415Y-49710006D01*
X47282415Y-49710008D01*
X47279500Y-49735131D01*
X47279500Y-50234856D01*
X47279502Y-50234882D01*
X47282413Y-50259987D01*
X47282415Y-50259991D01*
X47327793Y-50362764D01*
X47327794Y-50362765D01*
X47407235Y-50442206D01*
X47510009Y-50487585D01*
X47535135Y-50490500D01*
X49894864Y-50490499D01*
X49894879Y-50490497D01*
X49894882Y-50490497D01*
X49919987Y-50487586D01*
X49919988Y-50487585D01*
X49919991Y-50487585D01*
X49957824Y-50470879D01*
X49968730Y-50466065D01*
X50018815Y-50455500D01*
X50708945Y-50455500D01*
X50764862Y-50456934D01*
X50770821Y-50455500D01*
X50776943Y-50455500D01*
X50829463Y-50441426D01*
X50832398Y-50440679D01*
X50885308Y-50427947D01*
X50885318Y-50427941D01*
X50890960Y-50425772D01*
X50896589Y-50423440D01*
X50896606Y-50423436D01*
X50945036Y-50395474D01*
X50994148Y-50368775D01*
X50998584Y-50364558D01*
X51001693Y-50362764D01*
X51003894Y-50361494D01*
X51042350Y-50323036D01*
X51044546Y-50320895D01*
X70866964Y-31489599D01*
X70929125Y-31457698D01*
X70952369Y-31455500D01*
X74295703Y-31455500D01*
X74357702Y-31472113D01*
X74483209Y-31544573D01*
X74483216Y-31544577D01*
X74635943Y-31585500D01*
X74635945Y-31585500D01*
X74794055Y-31585500D01*
X74794057Y-31585500D01*
X74946784Y-31544577D01*
X75083716Y-31465520D01*
X75195520Y-31353716D01*
X75274577Y-31216784D01*
X75315500Y-31064057D01*
X75315500Y-30905943D01*
X75274577Y-30753216D01*
X75214490Y-30649141D01*
X75195524Y-30616290D01*
X75195518Y-30616282D01*
X75083717Y-30504481D01*
X75083709Y-30504475D01*
X74946790Y-30425426D01*
X74946786Y-30425424D01*
X74946784Y-30425423D01*
X74794057Y-30384500D01*
X74635943Y-30384500D01*
X74483216Y-30425423D01*
X74483209Y-30425426D01*
X74357702Y-30497887D01*
X74295703Y-30514500D01*
X70721034Y-30514500D01*
X70665138Y-30513067D01*
X70659183Y-30514500D01*
X70653057Y-30514500D01*
X70600587Y-30528559D01*
X70597511Y-30529341D01*
X70544685Y-30542054D01*
X70539048Y-30544221D01*
X70533395Y-30546563D01*
X70486355Y-30573720D01*
X70483589Y-30575270D01*
X70435850Y-30601226D01*
X70430911Y-30604817D01*
X70426106Y-30608505D01*
X70387686Y-30646924D01*
X70385412Y-30649141D01*
X51384865Y-48699661D01*
X51322704Y-48731563D01*
X51253163Y-48724794D01*
X51198321Y-48681503D01*
X51175590Y-48615434D01*
X51192187Y-48547564D01*
X51203552Y-48531162D01*
X67995837Y-28044577D01*
X70900496Y-24500893D01*
X70958218Y-24461524D01*
X70996397Y-24455500D01*
X74295703Y-24455500D01*
X74357702Y-24472113D01*
X74483209Y-24544573D01*
X74483216Y-24544577D01*
X74635943Y-24585500D01*
X74635945Y-24585500D01*
X74794055Y-24585500D01*
X74794057Y-24585500D01*
X74946784Y-24544577D01*
X75083716Y-24465520D01*
X75195520Y-24353716D01*
X75274577Y-24216784D01*
X75315500Y-24064057D01*
X75315500Y-23905943D01*
X75274577Y-23753216D01*
X75274573Y-23753209D01*
X75195524Y-23616290D01*
X75195518Y-23616282D01*
X75083717Y-23504481D01*
X75083709Y-23504475D01*
X74946790Y-23425426D01*
X74946786Y-23425424D01*
X74946784Y-23425423D01*
X74794057Y-23384500D01*
X74635943Y-23384500D01*
X74483216Y-23425423D01*
X74483209Y-23425426D01*
X74357702Y-23497887D01*
X74295703Y-23514500D01*
X70753435Y-23514500D01*
X70730241Y-23510685D01*
X70691744Y-23514500D01*
X70653057Y-23514500D01*
X70640125Y-23517964D01*
X70620282Y-23521580D01*
X70606968Y-23522900D01*
X70606961Y-23522901D01*
X70606960Y-23522902D01*
X70606958Y-23522902D01*
X70606957Y-23522903D01*
X70576492Y-23534390D01*
X70576491Y-23534389D01*
X70570747Y-23536554D01*
X70533394Y-23546564D01*
X70513042Y-23558312D01*
X70503564Y-23561887D01*
X70503564Y-23561888D01*
X70491048Y-23566607D01*
X70491034Y-23566615D01*
X70464585Y-23585591D01*
X70454306Y-23592223D01*
X70426105Y-23608505D01*
X70416640Y-23617970D01*
X70409477Y-23625132D01*
X70390386Y-23638831D01*
X70365875Y-23668732D01*
X70361533Y-23673075D01*
X70361534Y-23673075D01*
X70338507Y-23696102D01*
X70338505Y-23696106D01*
X70331816Y-23707691D01*
X70320333Y-23724293D01*
X50529504Y-47869107D01*
X50471782Y-47908476D01*
X50433603Y-47914500D01*
X50018815Y-47914500D01*
X49968729Y-47903935D01*
X49919991Y-47882415D01*
X49894865Y-47879500D01*
X47535143Y-47879500D01*
X47535117Y-47879502D01*
X47510012Y-47882413D01*
X47510008Y-47882415D01*
X47407235Y-47927793D01*
X47327794Y-48007234D01*
X47282415Y-48110006D01*
X47282415Y-48110008D01*
X47279500Y-48135131D01*
X44420499Y-48135131D01*
X44420499Y-48135130D01*
X44417586Y-48110012D01*
X44417585Y-48110010D01*
X44417585Y-48110009D01*
X44372206Y-48007235D01*
X44292765Y-47927794D01*
X44249014Y-47908476D01*
X44189992Y-47882415D01*
X44164865Y-47879500D01*
X41805143Y-47879500D01*
X41805117Y-47879502D01*
X41780012Y-47882413D01*
X41780008Y-47882415D01*
X41677235Y-47927793D01*
X41597794Y-48007234D01*
X41552415Y-48110006D01*
X41552415Y-48110008D01*
X41549500Y-48135131D01*
X32829041Y-48135131D01*
X30944235Y-45845092D01*
X47759500Y-45845092D01*
X47759500Y-45994907D01*
X47788723Y-46141822D01*
X47788725Y-46141830D01*
X47846051Y-46280229D01*
X47846056Y-46280238D01*
X47929280Y-46404790D01*
X47929283Y-46404794D01*
X48035205Y-46510716D01*
X48035209Y-46510719D01*
X48159761Y-46593943D01*
X48159767Y-46593946D01*
X48159768Y-46593947D01*
X48298170Y-46651275D01*
X48445092Y-46680499D01*
X48445096Y-46680500D01*
X48445097Y-46680500D01*
X48594904Y-46680500D01*
X48594905Y-46680499D01*
X48741830Y-46651275D01*
X48880232Y-46593947D01*
X49004791Y-46510719D01*
X49110719Y-46404791D01*
X49193947Y-46280232D01*
X49251275Y-46141830D01*
X49280500Y-45994903D01*
X49280500Y-45845097D01*
X49251275Y-45698170D01*
X49193947Y-45559768D01*
X49193946Y-45559767D01*
X49193943Y-45559761D01*
X49110719Y-45435209D01*
X49110716Y-45435205D01*
X49004794Y-45329283D01*
X49004790Y-45329280D01*
X48880238Y-45246056D01*
X48880229Y-45246051D01*
X48741830Y-45188725D01*
X48741822Y-45188723D01*
X48594907Y-45159500D01*
X48594903Y-45159500D01*
X48445097Y-45159500D01*
X48445092Y-45159500D01*
X48298177Y-45188723D01*
X48298169Y-45188725D01*
X48159770Y-45246051D01*
X48159761Y-45246056D01*
X48035209Y-45329280D01*
X48035205Y-45329283D01*
X47929283Y-45435205D01*
X47929280Y-45435209D01*
X47846056Y-45559761D01*
X47846051Y-45559770D01*
X47788725Y-45698169D01*
X47788723Y-45698177D01*
X47759500Y-45845092D01*
X30944235Y-45845092D01*
X21373009Y-34216051D01*
X21361494Y-34196106D01*
X21333799Y-34168411D01*
X21308916Y-34138178D01*
X21308911Y-34138173D01*
X21298522Y-34130751D01*
X21282925Y-34117537D01*
X21273895Y-34108507D01*
X21273894Y-34108506D01*
X21245176Y-34091926D01*
X21245176Y-34091925D01*
X21239970Y-34088919D01*
X21208115Y-34066160D01*
X21186550Y-34058077D01*
X21177665Y-34052948D01*
X21166611Y-34046567D01*
X21166606Y-34046564D01*
X21166600Y-34046562D01*
X21166597Y-34046561D01*
X21134574Y-34037979D01*
X21123159Y-34034320D01*
X21092116Y-34022686D01*
X21092111Y-34022685D01*
X21089255Y-34022407D01*
X21079394Y-34021450D01*
X21072253Y-34020757D01*
X21069185Y-34020459D01*
X21046943Y-34014500D01*
X21007787Y-34014500D01*
X21001811Y-34013920D01*
X20968806Y-34010716D01*
X20968798Y-34010716D01*
X20956200Y-34012815D01*
X20935829Y-34014500D01*
X17404297Y-34014500D01*
X17342298Y-33997887D01*
X17216790Y-33925426D01*
X17216786Y-33925424D01*
X17216784Y-33925423D01*
X17064057Y-33884500D01*
X16905943Y-33884500D01*
X16753216Y-33925423D01*
X16753209Y-33925426D01*
X16616290Y-34004475D01*
X16616282Y-34004481D01*
X16504481Y-34116282D01*
X16504475Y-34116290D01*
X16425426Y-34253209D01*
X16425423Y-34253216D01*
X16384500Y-34405943D01*
X9500500Y-34405943D01*
X9500500Y-27405943D01*
X16384500Y-27405943D01*
X16384500Y-27564056D01*
X16425423Y-27716783D01*
X16425426Y-27716790D01*
X16504475Y-27853709D01*
X16504479Y-27853714D01*
X16504480Y-27853716D01*
X16616284Y-27965520D01*
X16616286Y-27965521D01*
X16616290Y-27965524D01*
X16753209Y-28044573D01*
X16753216Y-28044577D01*
X16905943Y-28085500D01*
X16905945Y-28085500D01*
X17064055Y-28085500D01*
X17064057Y-28085500D01*
X17216784Y-28044577D01*
X17264454Y-28017054D01*
X17342298Y-27972113D01*
X17404297Y-27955500D01*
X20565703Y-27955500D01*
X20627702Y-27972113D01*
X20753209Y-28044573D01*
X20753216Y-28044577D01*
X20905943Y-28085500D01*
X20905945Y-28085500D01*
X21064055Y-28085500D01*
X21064057Y-28085500D01*
X21216784Y-28044577D01*
X21353716Y-27965520D01*
X21465520Y-27853716D01*
X21544577Y-27716784D01*
X21585500Y-27564057D01*
X21585500Y-27405943D01*
X21544577Y-27253216D01*
X21544573Y-27253209D01*
X21465524Y-27116290D01*
X21465518Y-27116282D01*
X21353717Y-27004481D01*
X21353709Y-27004475D01*
X21216790Y-26925426D01*
X21216786Y-26925424D01*
X21216784Y-26925423D01*
X21064057Y-26884500D01*
X20905943Y-26884500D01*
X20753216Y-26925423D01*
X20753209Y-26925426D01*
X20627702Y-26997887D01*
X20565703Y-27014500D01*
X17404297Y-27014500D01*
X17342298Y-26997887D01*
X17216790Y-26925426D01*
X17216786Y-26925424D01*
X17216784Y-26925423D01*
X17064057Y-26884500D01*
X16905943Y-26884500D01*
X16753216Y-26925423D01*
X16753209Y-26925426D01*
X16616290Y-27004475D01*
X16616282Y-27004481D01*
X16504481Y-27116282D01*
X16504475Y-27116290D01*
X16425426Y-27253209D01*
X16425423Y-27253216D01*
X16384500Y-27405943D01*
X9500500Y-27405943D01*
X9500500Y-14878711D01*
X15134500Y-14878711D01*
X15134500Y-15121288D01*
X15166161Y-15361785D01*
X15228947Y-15596104D01*
X15321773Y-15820205D01*
X15321776Y-15820212D01*
X15443064Y-16030289D01*
X15443066Y-16030292D01*
X15443067Y-16030293D01*
X15590733Y-16222736D01*
X15590739Y-16222743D01*
X15762256Y-16394260D01*
X15762262Y-16394265D01*
X15954711Y-16541936D01*
X16164788Y-16663224D01*
X16388900Y-16756054D01*
X16623211Y-16818838D01*
X16803586Y-16842584D01*
X16863711Y-16850500D01*
X16863712Y-16850500D01*
X17106289Y-16850500D01*
X17154388Y-16844167D01*
X17346789Y-16818838D01*
X17581100Y-16756054D01*
X17805212Y-16663224D01*
X18015289Y-16541936D01*
X18207738Y-16394265D01*
X18379265Y-16222738D01*
X18526936Y-16030289D01*
X18648224Y-15820212D01*
X18741054Y-15596100D01*
X18803838Y-15361789D01*
X18835500Y-15121288D01*
X18835500Y-14878712D01*
X18835500Y-14878711D01*
X72864500Y-14878711D01*
X72864500Y-15121288D01*
X72896161Y-15361785D01*
X72958947Y-15596104D01*
X73051773Y-15820205D01*
X73051776Y-15820212D01*
X73173064Y-16030289D01*
X73173066Y-16030292D01*
X73173067Y-16030293D01*
X73320733Y-16222736D01*
X73320739Y-16222743D01*
X73492256Y-16394260D01*
X73492262Y-16394265D01*
X73684711Y-16541936D01*
X73894788Y-16663224D01*
X74118900Y-16756054D01*
X74353211Y-16818838D01*
X74533586Y-16842584D01*
X74593711Y-16850500D01*
X74593712Y-16850500D01*
X74836289Y-16850500D01*
X74884388Y-16844167D01*
X75076789Y-16818838D01*
X75311100Y-16756054D01*
X75535212Y-16663224D01*
X75745289Y-16541936D01*
X75937738Y-16394265D01*
X76109265Y-16222738D01*
X76256936Y-16030289D01*
X76378224Y-15820212D01*
X76471054Y-15596100D01*
X76533838Y-15361789D01*
X76565500Y-15121288D01*
X76565500Y-14878712D01*
X76533838Y-14638211D01*
X76471054Y-14403900D01*
X76378224Y-14179788D01*
X76256936Y-13969711D01*
X76109265Y-13777262D01*
X76109260Y-13777256D01*
X75937743Y-13605739D01*
X75937736Y-13605733D01*
X75745293Y-13458067D01*
X75745292Y-13458066D01*
X75745289Y-13458064D01*
X75535212Y-13336776D01*
X75535205Y-13336773D01*
X75311104Y-13243947D01*
X75076785Y-13181161D01*
X74836289Y-13149500D01*
X74836288Y-13149500D01*
X74593712Y-13149500D01*
X74593711Y-13149500D01*
X74353214Y-13181161D01*
X74118895Y-13243947D01*
X73894794Y-13336773D01*
X73894785Y-13336777D01*
X73684706Y-13458067D01*
X73492263Y-13605733D01*
X73492256Y-13605739D01*
X73320739Y-13777256D01*
X73320733Y-13777263D01*
X73173067Y-13969706D01*
X73051777Y-14179785D01*
X73051773Y-14179794D01*
X72958947Y-14403895D01*
X72896161Y-14638214D01*
X72864500Y-14878711D01*
X18835500Y-14878711D01*
X18803838Y-14638211D01*
X18741054Y-14403900D01*
X18648224Y-14179788D01*
X18526936Y-13969711D01*
X18379265Y-13777262D01*
X18379260Y-13777256D01*
X18207743Y-13605739D01*
X18207736Y-13605733D01*
X18015293Y-13458067D01*
X18015292Y-13458066D01*
X18015289Y-13458064D01*
X17805212Y-13336776D01*
X17805205Y-13336773D01*
X17581104Y-13243947D01*
X17346785Y-13181161D01*
X17106289Y-13149500D01*
X17106288Y-13149500D01*
X16863712Y-13149500D01*
X16863711Y-13149500D01*
X16623214Y-13181161D01*
X16388895Y-13243947D01*
X16164794Y-13336773D01*
X16164785Y-13336777D01*
X15954706Y-13458067D01*
X15762263Y-13605733D01*
X15762256Y-13605739D01*
X15590739Y-13777256D01*
X15590733Y-13777263D01*
X15443067Y-13969706D01*
X15321777Y-14179785D01*
X15321773Y-14179794D01*
X15228947Y-14403895D01*
X15166161Y-14638214D01*
X15134500Y-14878711D01*
X9500500Y-14878711D01*
X9500500Y-10624500D01*
X9520185Y-10557461D01*
X9572989Y-10511706D01*
X9624500Y-10500500D01*
X82075500Y-10500500D01*
X82142539Y-10520185D01*
G37*
%TD.AperFunction*%
%TD*%
M02*
