%TF.GenerationSoftware,KiCad,Pcbnew,10.0.3*%
%TF.CreationDate,2026-06-24T00:16:39-04:00*%
%TF.ProjectId,board-D-smp,626f6172-642d-4442-9d73-6d702e6b6963,rev?*%
%TF.SameCoordinates,Original*%
%TF.FileFunction,Other,User*%
%FSLAX46Y46*%
G04 Gerber Fmt 4.6, Leading zero omitted, Abs format (unit mm)*
G04 Created by KiCad (PCBNEW 10.0.3) date 2026-06-24 00:16:39*
%MOMM*%
%LPD*%
G01*
G04 APERTURE LIST*
%ADD10C,0.050000*%
G04 APERTURE END LIST*
%TO.C,K21*%
D10*
X70125000Y-61435000D02*
X71915000Y-61435000D01*
X70125000Y-62565000D02*
X70125000Y-61435000D01*
X71915000Y-58500000D02*
X78915000Y-58500000D01*
X71915000Y-61435000D02*
X71915000Y-58500000D01*
X71915000Y-62565000D02*
X70125000Y-62565000D01*
X71915000Y-65500000D02*
X71915000Y-62565000D01*
X78915000Y-58500000D02*
X78915000Y-65500000D01*
X78915000Y-65500000D02*
X71915000Y-65500000D01*
%TO.C,K7*%
X70125000Y-117435000D02*
X71915000Y-117435000D01*
X70125000Y-118565000D02*
X70125000Y-117435000D01*
X71915000Y-114500000D02*
X78915000Y-114500000D01*
X71915000Y-117435000D02*
X71915000Y-114500000D01*
X71915000Y-118565000D02*
X70125000Y-118565000D01*
X71915000Y-121500000D02*
X71915000Y-118565000D01*
X78915000Y-114500000D02*
X78915000Y-121500000D01*
X78915000Y-121500000D02*
X71915000Y-121500000D01*
%TO.C,MH1*%
X24750000Y-15000000D02*
G75*
G02*
X17850000Y-15000000I-3450000J0D01*
G01*
X17850000Y-15000000D02*
G75*
G02*
X24750000Y-15000000I3450000J0D01*
G01*
%TO.C,K23*%
X14185000Y-38500000D02*
X21185000Y-38500000D01*
X14185000Y-45500000D02*
X14185000Y-38500000D01*
X21185000Y-38500000D02*
X21185000Y-41435000D01*
X21185000Y-41435000D02*
X22975000Y-41435000D01*
X21185000Y-42565000D02*
X21185000Y-45500000D01*
X21185000Y-45500000D02*
X14185000Y-45500000D01*
X22975000Y-41435000D02*
X22975000Y-42565000D01*
X22975000Y-42565000D02*
X21185000Y-42565000D01*
%TO.C,K12*%
X14185000Y-62500000D02*
X21185000Y-62500000D01*
X14185000Y-69500000D02*
X14185000Y-62500000D01*
X21185000Y-62500000D02*
X21185000Y-65435000D01*
X21185000Y-65435000D02*
X22975000Y-65435000D01*
X21185000Y-66565000D02*
X21185000Y-69500000D01*
X21185000Y-69500000D02*
X14185000Y-69500000D01*
X22975000Y-65435000D02*
X22975000Y-66565000D01*
X22975000Y-66565000D02*
X21185000Y-66565000D01*
%TO.C,K8*%
X14185000Y-102500000D02*
X21185000Y-102500000D01*
X14185000Y-109500000D02*
X14185000Y-102500000D01*
X21185000Y-102500000D02*
X21185000Y-105435000D01*
X21185000Y-105435000D02*
X22975000Y-105435000D01*
X21185000Y-106565000D02*
X21185000Y-109500000D01*
X21185000Y-109500000D02*
X14185000Y-109500000D01*
X22975000Y-105435000D02*
X22975000Y-106565000D01*
X22975000Y-106565000D02*
X21185000Y-106565000D01*
%TO.C,K20*%
X70125000Y-53435000D02*
X71915000Y-53435000D01*
X70125000Y-54565000D02*
X70125000Y-53435000D01*
X71915000Y-50500000D02*
X78915000Y-50500000D01*
X71915000Y-53435000D02*
X71915000Y-50500000D01*
X71915000Y-54565000D02*
X70125000Y-54565000D01*
X71915000Y-57500000D02*
X71915000Y-54565000D01*
X78915000Y-50500000D02*
X78915000Y-57500000D01*
X78915000Y-57500000D02*
X71915000Y-57500000D01*
%TO.C,K17*%
X70125000Y-29435000D02*
X71915000Y-29435000D01*
X70125000Y-30565000D02*
X70125000Y-29435000D01*
X71915000Y-26500000D02*
X78915000Y-26500000D01*
X71915000Y-29435000D02*
X71915000Y-26500000D01*
X71915000Y-30565000D02*
X70125000Y-30565000D01*
X71915000Y-33500000D02*
X71915000Y-30565000D01*
X78915000Y-26500000D02*
X78915000Y-33500000D01*
X78915000Y-33500000D02*
X71915000Y-33500000D01*
%TO.C,K9*%
X14185000Y-86500000D02*
X21185000Y-86500000D01*
X14185000Y-93500000D02*
X14185000Y-86500000D01*
X21185000Y-86500000D02*
X21185000Y-89435000D01*
X21185000Y-89435000D02*
X22975000Y-89435000D01*
X21185000Y-90565000D02*
X21185000Y-93500000D01*
X21185000Y-93500000D02*
X14185000Y-93500000D01*
X22975000Y-89435000D02*
X22975000Y-90565000D01*
X22975000Y-90565000D02*
X21185000Y-90565000D01*
%TO.C,IV*%
X70125000Y-69435000D02*
X71915000Y-69435000D01*
X70125000Y-70565000D02*
X70125000Y-69435000D01*
X71915000Y-66500000D02*
X78915000Y-66500000D01*
X71915000Y-69435000D02*
X71915000Y-66500000D01*
X71915000Y-70565000D02*
X70125000Y-70565000D01*
X71915000Y-73500000D02*
X71915000Y-70565000D01*
X78915000Y-66500000D02*
X78915000Y-73500000D01*
X78915000Y-73500000D02*
X71915000Y-73500000D01*
%TO.C,K3*%
X70125000Y-85435000D02*
X71915000Y-85435000D01*
X70125000Y-86565000D02*
X70125000Y-85435000D01*
X71915000Y-82500000D02*
X78915000Y-82500000D01*
X71915000Y-85435000D02*
X71915000Y-82500000D01*
X71915000Y-86565000D02*
X70125000Y-86565000D01*
X71915000Y-89500000D02*
X71915000Y-86565000D01*
X78915000Y-82500000D02*
X78915000Y-89500000D01*
X78915000Y-89500000D02*
X71915000Y-89500000D01*
%TO.C,K4*%
X70125000Y-93435000D02*
X71915000Y-93435000D01*
X70125000Y-94565000D02*
X70125000Y-93435000D01*
X71915000Y-90500000D02*
X78915000Y-90500000D01*
X71915000Y-93435000D02*
X71915000Y-90500000D01*
X71915000Y-94565000D02*
X70125000Y-94565000D01*
X71915000Y-97500000D02*
X71915000Y-94565000D01*
X78915000Y-90500000D02*
X78915000Y-97500000D01*
X78915000Y-97500000D02*
X71915000Y-97500000D01*
%TO.C,K11*%
X14185000Y-70500000D02*
X21185000Y-70500000D01*
X14185000Y-77500000D02*
X14185000Y-70500000D01*
X21185000Y-70500000D02*
X21185000Y-73435000D01*
X21185000Y-73435000D02*
X22975000Y-73435000D01*
X21185000Y-74565000D02*
X21185000Y-77500000D01*
X21185000Y-77500000D02*
X14185000Y-77500000D01*
X22975000Y-73435000D02*
X22975000Y-74565000D01*
X22975000Y-74565000D02*
X21185000Y-74565000D01*
%TO.C,MH2*%
X75250000Y-15000000D02*
G75*
G02*
X68350000Y-15000000I-3450000J0D01*
G01*
X68350000Y-15000000D02*
G75*
G02*
X75250000Y-15000000I3450000J0D01*
G01*
%TO.C,K16*%
X70125000Y-21435000D02*
X71915000Y-21435000D01*
X70125000Y-22565000D02*
X70125000Y-21435000D01*
X71915000Y-18500000D02*
X78915000Y-18500000D01*
X71915000Y-21435000D02*
X71915000Y-18500000D01*
X71915000Y-22565000D02*
X70125000Y-22565000D01*
X71915000Y-25500000D02*
X71915000Y-22565000D01*
X78915000Y-18500000D02*
X78915000Y-25500000D01*
X78915000Y-25500000D02*
X71915000Y-25500000D01*
%TO.C,K0*%
X14185000Y-94500000D02*
X21185000Y-94500000D01*
X14185000Y-101500000D02*
X14185000Y-94500000D01*
X21185000Y-94500000D02*
X21185000Y-97435000D01*
X21185000Y-97435000D02*
X22975000Y-97435000D01*
X21185000Y-98565000D02*
X21185000Y-101500000D01*
X21185000Y-101500000D02*
X14185000Y-101500000D01*
X22975000Y-97435000D02*
X22975000Y-98565000D01*
X22975000Y-98565000D02*
X21185000Y-98565000D01*
%TO.C,K14*%
X14185000Y-46500000D02*
X21185000Y-46500000D01*
X14185000Y-53500000D02*
X14185000Y-46500000D01*
X21185000Y-46500000D02*
X21185000Y-49435000D01*
X21185000Y-49435000D02*
X22975000Y-49435000D01*
X21185000Y-50565000D02*
X21185000Y-53500000D01*
X21185000Y-53500000D02*
X14185000Y-53500000D01*
X22975000Y-49435000D02*
X22975000Y-50565000D01*
X22975000Y-50565000D02*
X21185000Y-50565000D01*
%TO.C,K22*%
X14185000Y-22500000D02*
X21185000Y-22500000D01*
X14185000Y-29500000D02*
X14185000Y-22500000D01*
X21185000Y-22500000D02*
X21185000Y-25435000D01*
X21185000Y-25435000D02*
X22975000Y-25435000D01*
X21185000Y-26565000D02*
X21185000Y-29500000D01*
X21185000Y-29500000D02*
X14185000Y-29500000D01*
X22975000Y-25435000D02*
X22975000Y-26565000D01*
X22975000Y-26565000D02*
X21185000Y-26565000D01*
%TO.C,K15*%
X14185000Y-30500000D02*
X21185000Y-30500000D01*
X14185000Y-37500000D02*
X14185000Y-30500000D01*
X21185000Y-30500000D02*
X21185000Y-33435000D01*
X21185000Y-33435000D02*
X22975000Y-33435000D01*
X21185000Y-34565000D02*
X21185000Y-37500000D01*
X21185000Y-37500000D02*
X14185000Y-37500000D01*
X22975000Y-33435000D02*
X22975000Y-34565000D01*
X22975000Y-34565000D02*
X21185000Y-34565000D01*
%TO.C,K18*%
X70125000Y-37435000D02*
X71915000Y-37435000D01*
X70125000Y-38565000D02*
X70125000Y-37435000D01*
X71915000Y-34500000D02*
X78915000Y-34500000D01*
X71915000Y-37435000D02*
X71915000Y-34500000D01*
X71915000Y-38565000D02*
X70125000Y-38565000D01*
X71915000Y-41500000D02*
X71915000Y-38565000D01*
X78915000Y-34500000D02*
X78915000Y-41500000D01*
X78915000Y-41500000D02*
X71915000Y-41500000D01*
%TO.C,K1*%
X14185000Y-110500000D02*
X21185000Y-110500000D01*
X14185000Y-117500000D02*
X14185000Y-110500000D01*
X21185000Y-110500000D02*
X21185000Y-113435000D01*
X21185000Y-113435000D02*
X22975000Y-113435000D01*
X21185000Y-114565000D02*
X21185000Y-117500000D01*
X21185000Y-117500000D02*
X14185000Y-117500000D01*
X22975000Y-113435000D02*
X22975000Y-114565000D01*
X22975000Y-114565000D02*
X21185000Y-114565000D01*
%TO.C,K10*%
X14185000Y-78500000D02*
X21185000Y-78500000D01*
X14185000Y-85500000D02*
X14185000Y-78500000D01*
X21185000Y-78500000D02*
X21185000Y-81435000D01*
X21185000Y-81435000D02*
X22975000Y-81435000D01*
X21185000Y-82565000D02*
X21185000Y-85500000D01*
X21185000Y-85500000D02*
X14185000Y-85500000D01*
X22975000Y-81435000D02*
X22975000Y-82565000D01*
X22975000Y-82565000D02*
X21185000Y-82565000D01*
%TO.C,MH4*%
X75250000Y-125000000D02*
G75*
G02*
X68350000Y-125000000I-3450000J0D01*
G01*
X68350000Y-125000000D02*
G75*
G02*
X75250000Y-125000000I3450000J0D01*
G01*
%TO.C,K19*%
X70125000Y-45435000D02*
X71915000Y-45435000D01*
X70125000Y-46565000D02*
X70125000Y-45435000D01*
X71915000Y-42500000D02*
X78915000Y-42500000D01*
X71915000Y-45435000D02*
X71915000Y-42500000D01*
X71915000Y-46565000D02*
X70125000Y-46565000D01*
X71915000Y-49500000D02*
X71915000Y-46565000D01*
X78915000Y-42500000D02*
X78915000Y-49500000D01*
X78915000Y-49500000D02*
X71915000Y-49500000D01*
%TO.C,K2*%
X70125000Y-77435000D02*
X71915000Y-77435000D01*
X70125000Y-78565000D02*
X70125000Y-77435000D01*
X71915000Y-74500000D02*
X78915000Y-74500000D01*
X71915000Y-77435000D02*
X71915000Y-74500000D01*
X71915000Y-78565000D02*
X70125000Y-78565000D01*
X71915000Y-81500000D02*
X71915000Y-78565000D01*
X78915000Y-74500000D02*
X78915000Y-81500000D01*
X78915000Y-81500000D02*
X71915000Y-81500000D01*
%TO.C,MH3*%
X24750000Y-125000000D02*
G75*
G02*
X17850000Y-125000000I-3450000J0D01*
G01*
X17850000Y-125000000D02*
G75*
G02*
X24750000Y-125000000I3450000J0D01*
G01*
%TO.C,K5*%
X70125000Y-101435000D02*
X71915000Y-101435000D01*
X70125000Y-102565000D02*
X70125000Y-101435000D01*
X71915000Y-98500000D02*
X78915000Y-98500000D01*
X71915000Y-101435000D02*
X71915000Y-98500000D01*
X71915000Y-102565000D02*
X70125000Y-102565000D01*
X71915000Y-105500000D02*
X71915000Y-102565000D01*
X78915000Y-98500000D02*
X78915000Y-105500000D01*
X78915000Y-105500000D02*
X71915000Y-105500000D01*
%TO.C,K13*%
X14185000Y-54500000D02*
X21185000Y-54500000D01*
X14185000Y-61500000D02*
X14185000Y-54500000D01*
X21185000Y-54500000D02*
X21185000Y-57435000D01*
X21185000Y-57435000D02*
X22975000Y-57435000D01*
X21185000Y-58565000D02*
X21185000Y-61500000D01*
X21185000Y-61500000D02*
X14185000Y-61500000D01*
X22975000Y-57435000D02*
X22975000Y-58565000D01*
X22975000Y-58565000D02*
X21185000Y-58565000D01*
%TO.C,K6*%
X70125000Y-109435000D02*
X71915000Y-109435000D01*
X70125000Y-110565000D02*
X70125000Y-109435000D01*
X71915000Y-106500000D02*
X78915000Y-106500000D01*
X71915000Y-109435000D02*
X71915000Y-106500000D01*
X71915000Y-110565000D02*
X70125000Y-110565000D01*
X71915000Y-113500000D02*
X71915000Y-110565000D01*
X78915000Y-106500000D02*
X78915000Y-113500000D01*
X78915000Y-113500000D02*
X71915000Y-113500000D01*
%TD*%
M02*
