%TF.GenerationSoftware,KiCad,Pcbnew,10.0.3*%
%TF.CreationDate,2026-06-24T00:16:39-04:00*%
%TF.ProjectId,board-D-smp,626f6172-642d-4442-9d73-6d702e6b6963,rev?*%
%TF.SameCoordinates,Original*%
%TF.FileFunction,Copper,L1,Top*%
%TF.FilePolarity,Positive*%
%FSLAX46Y46*%
G04 Gerber Fmt 4.6, Leading zero omitted, Abs format (unit mm)*
G04 Created by KiCad (PCBNEW 10.0.3) date 2026-06-24 00:16:39*
%MOMM*%
%LPD*%
G01*
G04 APERTURE LIST*
G04 Aperture macros list*
%AMFreePoly0*
4,1,19,0.318536,1.018536,0.320000,1.015000,0.320000,-0.805000,0.318536,-0.808536,0.110000,-1.017072,0.110000,-1.425000,0.108536,-1.428536,0.105000,-1.430000,-0.105000,-1.430000,-0.108536,-1.428536,-0.110000,-1.425000,-0.110000,-1.017072,-0.318536,-0.808536,-0.320000,-0.805000,-0.320000,1.015000,-0.318536,1.018536,-0.315000,1.020000,0.315000,1.020000,0.318536,1.018536,0.318536,1.018536,
$1*%
%AMFreePoly1*
4,1,52,3.253536,0.568536,3.255000,0.565000,3.255000,-5.935000,3.253536,-5.938536,3.250000,-5.940000,1.365000,-5.940000,1.361464,-5.938536,1.360000,-5.935000,1.360000,-4.307000,1.361464,-4.303464,1.604193,-4.063731,1.806715,-3.784390,1.961345,-3.477125,2.063105,-3.148900,2.110991,-2.807713,2.103010,-2.463517,2.040159,-2.125319,1.922442,-1.802095,1.753842,-1.502805,1.538352,-1.233443,
1.282958,-1.002989,0.992651,-0.817432,0.677391,-0.681751,0.343185,-0.597950,0.000000,-0.570017,-0.343185,-0.597950,-0.677391,-0.681751,-0.992651,-0.817432,-1.282958,-1.002989,-1.538352,-1.233443,-1.753842,-1.502805,-1.922442,-1.802095,-2.040159,-2.125319,-2.103010,-2.463517,-2.110991,-2.807713,-2.063105,-3.148900,-1.961345,-3.477125,-1.806715,-3.784390,-1.604193,-4.063731,-1.361486,-4.303443,
-1.360000,-4.306969,-1.360000,-5.935000,-1.361464,-5.938536,-1.365000,-5.940000,-3.250000,-5.940000,-3.253536,-5.938536,-3.255000,-5.935000,-3.255000,0.565000,-3.253536,0.568536,-3.250000,0.570000,3.250000,0.570000,3.253536,0.568536,3.253536,0.568536,$1*%
G04 Aperture macros list end*
%TA.AperFunction,SMDPad,CuDef*%
%ADD10FreePoly0,270.000000*%
%TD*%
%TA.AperFunction,SMDPad,CuDef*%
%ADD11FreePoly1,270.000000*%
%TD*%
%TA.AperFunction,SMDPad,CuDef*%
%ADD12FreePoly0,90.000000*%
%TD*%
%TA.AperFunction,SMDPad,CuDef*%
%ADD13FreePoly1,90.000000*%
%TD*%
%TA.AperFunction,ViaPad*%
%ADD14C,0.600000*%
%TD*%
%TA.AperFunction,Conductor*%
%ADD15C,0.340000*%
%TD*%
G04 APERTURE END LIST*
D10*
%TO.P,K21,1*%
%TO.N,SIPM_K21*%
X71800000Y-62000000D03*
D11*
%TO.P,K21,2*%
%TO.N,GNDA*%
X78100000Y-62000000D03*
%TD*%
D10*
%TO.P,K7,1*%
%TO.N,SIPM_K7*%
X71800000Y-118000000D03*
D11*
%TO.P,K7,2*%
%TO.N,GNDA*%
X78100000Y-118000000D03*
%TD*%
D12*
%TO.P,K23,1*%
%TO.N,SIPM_K23*%
X21300000Y-42000000D03*
D13*
%TO.P,K23,2*%
%TO.N,GNDA*%
X15000000Y-42000000D03*
%TD*%
D12*
%TO.P,K12,1*%
%TO.N,SIPM_K12*%
X21300000Y-66000000D03*
D13*
%TO.P,K12,2*%
%TO.N,GNDA*%
X15000000Y-66000000D03*
%TD*%
D12*
%TO.P,K8,1*%
%TO.N,SIPM_K8*%
X21300000Y-106000000D03*
D13*
%TO.P,K8,2*%
%TO.N,GNDA*%
X15000000Y-106000000D03*
%TD*%
D10*
%TO.P,K20,1*%
%TO.N,SIPM_K20*%
X71800000Y-54000000D03*
D11*
%TO.P,K20,2*%
%TO.N,GNDA*%
X78100000Y-54000000D03*
%TD*%
D10*
%TO.P,K17,1*%
%TO.N,SIPM_K17*%
X71800000Y-30000000D03*
D11*
%TO.P,K17,2*%
%TO.N,GNDA*%
X78100000Y-30000000D03*
%TD*%
D12*
%TO.P,K9,1*%
%TO.N,SIPM_K9*%
X21300000Y-90000000D03*
D13*
%TO.P,K9,2*%
%TO.N,GNDA*%
X15000000Y-90000000D03*
%TD*%
D10*
%TO.P,IV,1*%
%TO.N,IV*%
X71800000Y-70000000D03*
D11*
%TO.P,IV,2*%
%TO.N,GNDA*%
X78100000Y-70000000D03*
%TD*%
D10*
%TO.P,K3,1*%
%TO.N,SIPM_K3*%
X71800000Y-86000000D03*
D11*
%TO.P,K3,2*%
%TO.N,GNDA*%
X78100000Y-86000000D03*
%TD*%
D10*
%TO.P,K4,1*%
%TO.N,SIPM_K4*%
X71800000Y-94000000D03*
D11*
%TO.P,K4,2*%
%TO.N,GNDA*%
X78100000Y-94000000D03*
%TD*%
D12*
%TO.P,K11,1*%
%TO.N,SIPM_K11*%
X21300000Y-74000000D03*
D13*
%TO.P,K11,2*%
%TO.N,GNDA*%
X15000000Y-74000000D03*
%TD*%
D10*
%TO.P,K16,1*%
%TO.N,SIPM_K16*%
X71800000Y-22000000D03*
D11*
%TO.P,K16,2*%
%TO.N,GNDA*%
X78100000Y-22000000D03*
%TD*%
D12*
%TO.P,K0,1*%
%TO.N,SIPM_K0*%
X21300000Y-98000000D03*
D13*
%TO.P,K0,2*%
%TO.N,GNDA*%
X15000000Y-98000000D03*
%TD*%
D12*
%TO.P,K14,1*%
%TO.N,SIPM_K14*%
X21300000Y-50000000D03*
D13*
%TO.P,K14,2*%
%TO.N,GNDA*%
X15000000Y-50000000D03*
%TD*%
D12*
%TO.P,K22,1*%
%TO.N,SIPM_K22*%
X21300000Y-26000000D03*
D13*
%TO.P,K22,2*%
%TO.N,GNDA*%
X15000000Y-26000000D03*
%TD*%
D12*
%TO.P,K15,1*%
%TO.N,SIPM_K15*%
X21300000Y-34000000D03*
D13*
%TO.P,K15,2*%
%TO.N,GNDA*%
X15000000Y-34000000D03*
%TD*%
D10*
%TO.P,K18,1*%
%TO.N,SIPM_K18*%
X71800000Y-38000000D03*
D11*
%TO.P,K18,2*%
%TO.N,GNDA*%
X78100000Y-38000000D03*
%TD*%
D12*
%TO.P,K1,1*%
%TO.N,SIPM_K1*%
X21300000Y-114000000D03*
D13*
%TO.P,K1,2*%
%TO.N,GNDA*%
X15000000Y-114000000D03*
%TD*%
D12*
%TO.P,K10,1*%
%TO.N,SIPM_K10*%
X21300000Y-82000000D03*
D13*
%TO.P,K10,2*%
%TO.N,GNDA*%
X15000000Y-82000000D03*
%TD*%
D10*
%TO.P,K19,1*%
%TO.N,SIPM_K19*%
X71800000Y-46000000D03*
D11*
%TO.P,K19,2*%
%TO.N,GNDA*%
X78100000Y-46000000D03*
%TD*%
D10*
%TO.P,K2,1*%
%TO.N,SIPM_K2*%
X71800000Y-78000000D03*
D11*
%TO.P,K2,2*%
%TO.N,GNDA*%
X78100000Y-78000000D03*
%TD*%
D10*
%TO.P,K5,1*%
%TO.N,SIPM_K5*%
X71800000Y-102000000D03*
D11*
%TO.P,K5,2*%
%TO.N,GNDA*%
X78100000Y-102000000D03*
%TD*%
D12*
%TO.P,K13,1*%
%TO.N,SIPM_K13*%
X21300000Y-58000000D03*
D13*
%TO.P,K13,2*%
%TO.N,GNDA*%
X15000000Y-58000000D03*
%TD*%
D10*
%TO.P,K6,1*%
%TO.N,SIPM_K6*%
X71800000Y-110000000D03*
D11*
%TO.P,K6,2*%
%TO.N,GNDA*%
X78100000Y-110000000D03*
%TD*%
D14*
%TO.N,SIPM_K21*%
X67800000Y-62000000D03*
%TO.N,GNDA*%
X77925000Y-127075000D03*
X35925000Y-127075000D03*
X41925000Y-12925000D03*
X53925000Y-127075000D03*
X41925000Y-127075000D03*
X77925000Y-12925000D03*
X53925000Y-12925000D03*
X17925000Y-127075000D03*
X65925000Y-127075000D03*
X17925000Y-12925000D03*
X29925000Y-127075000D03*
X11925000Y-12925000D03*
X47925000Y-12925000D03*
X59925000Y-12925000D03*
X65925000Y-12925000D03*
X29925000Y-12925000D03*
X59925000Y-127075000D03*
X11925000Y-127075000D03*
X47925000Y-127075000D03*
X35925000Y-12925000D03*
%TO.N,SIPM_K7*%
X67800000Y-118000000D03*
%TO.N,SIPM_K23*%
X51415000Y-63600000D03*
%TO.N,SIPM_K12*%
X25300000Y-66000000D03*
%TO.N,SIPM_K8*%
X25300000Y-106000000D03*
%TO.N,SIPM_K20*%
X67800000Y-54000000D03*
%TO.N,SIPM_K17*%
X67800000Y-30000000D03*
%TO.N,SIPM_K9*%
X25300000Y-90000000D03*
%TO.N,IV*%
X67800000Y-70000000D03*
%TO.N,SIPM_K3*%
X67800000Y-86000000D03*
%TO.N,SIPM_K4*%
X67800000Y-94000000D03*
%TO.N,SIPM_K11*%
X25300000Y-74000000D03*
%TO.N,SIPM_K16*%
X67800000Y-22000000D03*
%TO.N,SIPM_K0*%
X51415000Y-76400000D03*
%TO.N,SIPM_K14*%
X25300000Y-50000000D03*
%TO.N,SIPM_K22*%
X51415000Y-62000000D03*
%TO.N,SIPM_K15*%
X25300000Y-34000000D03*
%TO.N,SIPM_K18*%
X67800000Y-38000000D03*
%TO.N,SIPM_K1*%
X51415000Y-78000000D03*
%TO.N,SIPM_K10*%
X25300000Y-82000000D03*
%TO.N,SIPM_K19*%
X67800000Y-46000000D03*
%TO.N,SIPM_K2*%
X67800000Y-78000000D03*
%TO.N,SIPM_K5*%
X67800000Y-102000000D03*
%TO.N,SIPM_K13*%
X25300000Y-58000000D03*
%TO.N,SIPM_K6*%
X67800000Y-110000000D03*
%TD*%
%TO.N,SIPM_K21*%
D15*
X67800000Y-62000000D02*
X71800000Y-62000000D01*
%TO.N,SIPM_K7*%
X67800000Y-118000000D02*
X71800000Y-118000000D01*
%TO.N,SIPM_K23*%
X51415000Y-63600000D02*
X25300000Y-42000000D01*
X25300000Y-42000000D02*
X21300000Y-42000000D01*
%TO.N,SIPM_K12*%
X25300000Y-66000000D02*
X21300000Y-66000000D01*
%TO.N,SIPM_K8*%
X25300000Y-106000000D02*
X21300000Y-106000000D01*
%TO.N,SIPM_K20*%
X67800000Y-54000000D02*
X71800000Y-54000000D01*
%TO.N,SIPM_K17*%
X67800000Y-30000000D02*
X71800000Y-30000000D01*
%TO.N,SIPM_K9*%
X25300000Y-90000000D02*
X21300000Y-90000000D01*
%TO.N,IV*%
X67800000Y-70000000D02*
X71800000Y-70000000D01*
%TO.N,SIPM_K3*%
X67800000Y-86000000D02*
X71800000Y-86000000D01*
%TO.N,SIPM_K4*%
X67800000Y-94000000D02*
X71800000Y-94000000D01*
%TO.N,SIPM_K11*%
X25300000Y-74000000D02*
X21300000Y-74000000D01*
%TO.N,SIPM_K16*%
X67800000Y-22000000D02*
X71800000Y-22000000D01*
%TO.N,SIPM_K0*%
X51415000Y-76400000D02*
X25300000Y-98000000D01*
X25300000Y-98000000D02*
X21300000Y-98000000D01*
%TO.N,SIPM_K14*%
X25300000Y-50000000D02*
X21300000Y-50000000D01*
%TO.N,SIPM_K22*%
X51415000Y-62000000D02*
X25300000Y-26000000D01*
X25300000Y-26000000D02*
X21300000Y-26000000D01*
%TO.N,SIPM_K15*%
X25300000Y-34000000D02*
X21300000Y-34000000D01*
%TO.N,SIPM_K18*%
X67800000Y-38000000D02*
X71800000Y-38000000D01*
%TO.N,SIPM_K1*%
X51415000Y-78000000D02*
X25300000Y-114000000D01*
X25300000Y-114000000D02*
X21300000Y-114000000D01*
%TO.N,SIPM_K10*%
X25300000Y-82000000D02*
X21300000Y-82000000D01*
%TO.N,SIPM_K19*%
X67800000Y-46000000D02*
X71800000Y-46000000D01*
%TO.N,SIPM_K2*%
X67800000Y-78000000D02*
X71800000Y-78000000D01*
%TO.N,SIPM_K5*%
X67800000Y-102000000D02*
X71800000Y-102000000D01*
%TO.N,SIPM_K13*%
X25300000Y-58000000D02*
X21300000Y-58000000D01*
%TO.N,SIPM_K6*%
X67800000Y-110000000D02*
X71800000Y-110000000D01*
%TD*%
%TA.AperFunction,Conductor*%
%TO.N,GNDA*%
G36*
X83542539Y-10520185D02*
G01*
X83588294Y-10572989D01*
X83599500Y-10624500D01*
X83599500Y-129375500D01*
X83579815Y-129442539D01*
X83527011Y-129488294D01*
X83475500Y-129499500D01*
X9624500Y-129499500D01*
X9557461Y-129479815D01*
X9511706Y-129427011D01*
X9500500Y-129375500D01*
X9500500Y-124878711D01*
X19449500Y-124878711D01*
X19449500Y-125121288D01*
X19481161Y-125361785D01*
X19543947Y-125596104D01*
X19636773Y-125820205D01*
X19636776Y-125820212D01*
X19758064Y-126030289D01*
X19758066Y-126030292D01*
X19758067Y-126030293D01*
X19905733Y-126222736D01*
X19905739Y-126222743D01*
X20077256Y-126394260D01*
X20077262Y-126394265D01*
X20269711Y-126541936D01*
X20479788Y-126663224D01*
X20703900Y-126756054D01*
X20938211Y-126818838D01*
X21118586Y-126842584D01*
X21178711Y-126850500D01*
X21178712Y-126850500D01*
X21421289Y-126850500D01*
X21469388Y-126844167D01*
X21661789Y-126818838D01*
X21896100Y-126756054D01*
X22120212Y-126663224D01*
X22330289Y-126541936D01*
X22522738Y-126394265D01*
X22694265Y-126222738D01*
X22841936Y-126030289D01*
X22963224Y-125820212D01*
X23056054Y-125596100D01*
X23118838Y-125361789D01*
X23150500Y-125121288D01*
X23150500Y-124878712D01*
X23150500Y-124878711D01*
X69949500Y-124878711D01*
X69949500Y-125121288D01*
X69981161Y-125361785D01*
X70043947Y-125596104D01*
X70136773Y-125820205D01*
X70136776Y-125820212D01*
X70258064Y-126030289D01*
X70258066Y-126030292D01*
X70258067Y-126030293D01*
X70405733Y-126222736D01*
X70405739Y-126222743D01*
X70577256Y-126394260D01*
X70577262Y-126394265D01*
X70769711Y-126541936D01*
X70979788Y-126663224D01*
X71203900Y-126756054D01*
X71438211Y-126818838D01*
X71618586Y-126842584D01*
X71678711Y-126850500D01*
X71678712Y-126850500D01*
X71921289Y-126850500D01*
X71969388Y-126844167D01*
X72161789Y-126818838D01*
X72396100Y-126756054D01*
X72620212Y-126663224D01*
X72830289Y-126541936D01*
X73022738Y-126394265D01*
X73194265Y-126222738D01*
X73341936Y-126030289D01*
X73463224Y-125820212D01*
X73556054Y-125596100D01*
X73618838Y-125361789D01*
X73650500Y-125121288D01*
X73650500Y-124878712D01*
X73618838Y-124638211D01*
X73556054Y-124403900D01*
X73463224Y-124179788D01*
X73341936Y-123969711D01*
X73194265Y-123777262D01*
X73194260Y-123777256D01*
X73022743Y-123605739D01*
X73022736Y-123605733D01*
X72830293Y-123458067D01*
X72830292Y-123458066D01*
X72830289Y-123458064D01*
X72620212Y-123336776D01*
X72620205Y-123336773D01*
X72396104Y-123243947D01*
X72161785Y-123181161D01*
X71921289Y-123149500D01*
X71921288Y-123149500D01*
X71678712Y-123149500D01*
X71678711Y-123149500D01*
X71438214Y-123181161D01*
X71203895Y-123243947D01*
X70979794Y-123336773D01*
X70979785Y-123336777D01*
X70769706Y-123458067D01*
X70577263Y-123605733D01*
X70577256Y-123605739D01*
X70405739Y-123777256D01*
X70405733Y-123777263D01*
X70258067Y-123969706D01*
X70136777Y-124179785D01*
X70136773Y-124179794D01*
X70043947Y-124403895D01*
X69981161Y-124638214D01*
X69949500Y-124878711D01*
X23150500Y-124878711D01*
X23118838Y-124638211D01*
X23056054Y-124403900D01*
X22963224Y-124179788D01*
X22841936Y-123969711D01*
X22694265Y-123777262D01*
X22694260Y-123777256D01*
X22522743Y-123605739D01*
X22522736Y-123605733D01*
X22330293Y-123458067D01*
X22330292Y-123458066D01*
X22330289Y-123458064D01*
X22120212Y-123336776D01*
X22120205Y-123336773D01*
X21896104Y-123243947D01*
X21661785Y-123181161D01*
X21421289Y-123149500D01*
X21421288Y-123149500D01*
X21178712Y-123149500D01*
X21178711Y-123149500D01*
X20938214Y-123181161D01*
X20703895Y-123243947D01*
X20479794Y-123336773D01*
X20479785Y-123336777D01*
X20269706Y-123458067D01*
X20077263Y-123605733D01*
X20077256Y-123605739D01*
X19905739Y-123777256D01*
X19905733Y-123777263D01*
X19758067Y-123969706D01*
X19636777Y-124179785D01*
X19636773Y-124179794D01*
X19543947Y-124403895D01*
X19481161Y-124638214D01*
X19449500Y-124878711D01*
X9500500Y-124878711D01*
X9500500Y-117920943D01*
X67199500Y-117920943D01*
X67199500Y-118079056D01*
X67240423Y-118231783D01*
X67240426Y-118231790D01*
X67319475Y-118368709D01*
X67319479Y-118368714D01*
X67319480Y-118368716D01*
X67431284Y-118480520D01*
X67431286Y-118480521D01*
X67431290Y-118480524D01*
X67539545Y-118543024D01*
X67568216Y-118559577D01*
X67720943Y-118600500D01*
X67720945Y-118600500D01*
X67879055Y-118600500D01*
X67879057Y-118600500D01*
X68031784Y-118559577D01*
X68079454Y-118532054D01*
X68157298Y-118487113D01*
X68219297Y-118470500D01*
X70652953Y-118470500D01*
X70719992Y-118490185D01*
X70740634Y-118506819D01*
X70771922Y-118538107D01*
X70776945Y-118543016D01*
X70776956Y-118543024D01*
X70865159Y-118600499D01*
X70871016Y-118604315D01*
X70878087Y-118607244D01*
X70884641Y-118609870D01*
X70995000Y-118630500D01*
X70995002Y-118630500D01*
X72814970Y-118630500D01*
X72815000Y-118630500D01*
X72822060Y-118630418D01*
X72931913Y-118607244D01*
X72938984Y-118604315D01*
X72951888Y-118598617D01*
X73043022Y-118533047D01*
X73104315Y-118438984D01*
X73107244Y-118431913D01*
X73109870Y-118425359D01*
X73130500Y-118315000D01*
X73130500Y-117685000D01*
X73130418Y-117677940D01*
X73107244Y-117568087D01*
X73104315Y-117561016D01*
X73098617Y-117548112D01*
X73033047Y-117456978D01*
X72938984Y-117395685D01*
X72931913Y-117392756D01*
X72925359Y-117390130D01*
X72815000Y-117369500D01*
X70995000Y-117369500D01*
X70987940Y-117369582D01*
X70878087Y-117392756D01*
X70878086Y-117392756D01*
X70878083Y-117392757D01*
X70870968Y-117395704D01*
X70864534Y-117398457D01*
X70864522Y-117398463D01*
X70771915Y-117461901D01*
X70771902Y-117461912D01*
X70740634Y-117493181D01*
X70679311Y-117526666D01*
X70652953Y-117529500D01*
X68219297Y-117529500D01*
X68157298Y-117512887D01*
X68031790Y-117440426D01*
X68031786Y-117440424D01*
X68031784Y-117440423D01*
X67879057Y-117399500D01*
X67720943Y-117399500D01*
X67568216Y-117440423D01*
X67568209Y-117440426D01*
X67431290Y-117519475D01*
X67431282Y-117519481D01*
X67319481Y-117631282D01*
X67319475Y-117631290D01*
X67240426Y-117768209D01*
X67240423Y-117768216D01*
X67199500Y-117920943D01*
X9500500Y-117920943D01*
X9500500Y-105685001D01*
X19969500Y-105685001D01*
X19969500Y-106314970D01*
X19969582Y-106322059D01*
X19992757Y-106431918D01*
X19995674Y-106438959D01*
X19995684Y-106438982D01*
X19995685Y-106438984D01*
X20001383Y-106451888D01*
X20066953Y-106543022D01*
X20161016Y-106604315D01*
X20168087Y-106607244D01*
X20174641Y-106609870D01*
X20285000Y-106630500D01*
X20285002Y-106630500D01*
X22104970Y-106630500D01*
X22105000Y-106630500D01*
X22112060Y-106630418D01*
X22221913Y-106607244D01*
X22228984Y-106604315D01*
X22235469Y-106601541D01*
X22235474Y-106601537D01*
X22235477Y-106601536D01*
X22328084Y-106538098D01*
X22328087Y-106538095D01*
X22328092Y-106538092D01*
X22328097Y-106538087D01*
X22359366Y-106506819D01*
X22420689Y-106473334D01*
X22447047Y-106470500D01*
X24880703Y-106470500D01*
X24942702Y-106487113D01*
X25068209Y-106559573D01*
X25068216Y-106559577D01*
X25220943Y-106600500D01*
X25220945Y-106600500D01*
X25379055Y-106600500D01*
X25379057Y-106600500D01*
X25531784Y-106559577D01*
X25668716Y-106480520D01*
X25780520Y-106368716D01*
X25859577Y-106231784D01*
X25900500Y-106079057D01*
X25900500Y-105920943D01*
X25859577Y-105768216D01*
X25859573Y-105768209D01*
X25780524Y-105631290D01*
X25780518Y-105631282D01*
X25668717Y-105519481D01*
X25668709Y-105519475D01*
X25531790Y-105440426D01*
X25531786Y-105440424D01*
X25531784Y-105440423D01*
X25379057Y-105399500D01*
X25220943Y-105399500D01*
X25068216Y-105440423D01*
X25068209Y-105440426D01*
X24942702Y-105512887D01*
X24880703Y-105529500D01*
X22447047Y-105529500D01*
X22380008Y-105509815D01*
X22359366Y-105493181D01*
X22328077Y-105461892D01*
X22323054Y-105456983D01*
X22323043Y-105456975D01*
X22228985Y-105395685D01*
X22226468Y-105394643D01*
X22221913Y-105392756D01*
X22215359Y-105390130D01*
X22105000Y-105369500D01*
X20285000Y-105369500D01*
X20277940Y-105369582D01*
X20168081Y-105392757D01*
X20161040Y-105395674D01*
X20152376Y-105399500D01*
X20148112Y-105401383D01*
X20148111Y-105401384D01*
X20056978Y-105466952D01*
X20056978Y-105466953D01*
X19995684Y-105561017D01*
X19993821Y-105565515D01*
X19992756Y-105568087D01*
X19990130Y-105574641D01*
X19990129Y-105574643D01*
X19990129Y-105574645D01*
X19969500Y-105685001D01*
X9500500Y-105685001D01*
X9500500Y-97685000D01*
X19969500Y-97685000D01*
X19969500Y-98315000D01*
X19969582Y-98322060D01*
X19984833Y-98394357D01*
X19992757Y-98431918D01*
X19995674Y-98438959D01*
X19995684Y-98438982D01*
X19995685Y-98438984D01*
X20001383Y-98451888D01*
X20066953Y-98543022D01*
X20161016Y-98604315D01*
X20168087Y-98607244D01*
X20174641Y-98609870D01*
X20285000Y-98630500D01*
X20285002Y-98630500D01*
X22104970Y-98630500D01*
X22105000Y-98630500D01*
X22112060Y-98630418D01*
X22221913Y-98607244D01*
X22228984Y-98604315D01*
X22235469Y-98601541D01*
X22235474Y-98601537D01*
X22235477Y-98601536D01*
X22328084Y-98538098D01*
X22328087Y-98538095D01*
X22328092Y-98538092D01*
X22328097Y-98538087D01*
X22359366Y-98506819D01*
X22420689Y-98473334D01*
X22447047Y-98470500D01*
X25277786Y-98470500D01*
X25317344Y-98474243D01*
X25339486Y-98470500D01*
X25361943Y-98470500D01*
X25400323Y-98460215D01*
X25439496Y-98453594D01*
X25459914Y-98444248D01*
X25469969Y-98441554D01*
X25469970Y-98441554D01*
X25469973Y-98441553D01*
X25473905Y-98440499D01*
X25481606Y-98438436D01*
X25510943Y-98421497D01*
X25521332Y-98416136D01*
X25552142Y-98402035D01*
X25561434Y-98394348D01*
X25578455Y-98382520D01*
X25588894Y-98376494D01*
X25612864Y-98352522D01*
X25621492Y-98344673D01*
X50657556Y-77637074D01*
X50721758Y-77609516D01*
X50790671Y-77621043D01*
X50842411Y-77667997D01*
X50860552Y-77735471D01*
X50856360Y-77764719D01*
X50814500Y-77920943D01*
X50814500Y-77986284D01*
X50794815Y-78053323D01*
X50790872Y-78059095D01*
X25097183Y-113478311D01*
X25041884Y-113521018D01*
X24996811Y-113529500D01*
X22447047Y-113529500D01*
X22380008Y-113509815D01*
X22359366Y-113493181D01*
X22328077Y-113461892D01*
X22323054Y-113456983D01*
X22323043Y-113456975D01*
X22228985Y-113395685D01*
X22226468Y-113394643D01*
X22221913Y-113392756D01*
X22215359Y-113390130D01*
X22105000Y-113369500D01*
X20285000Y-113369500D01*
X20277940Y-113369582D01*
X20168081Y-113392757D01*
X20161040Y-113395674D01*
X20148114Y-113401382D01*
X20148112Y-113401383D01*
X20148111Y-113401384D01*
X20056978Y-113466952D01*
X20056978Y-113466953D01*
X19995684Y-113561017D01*
X19993821Y-113565515D01*
X19992756Y-113568087D01*
X19990130Y-113574641D01*
X19990129Y-113574643D01*
X19990129Y-113574645D01*
X19969500Y-113685001D01*
X19969500Y-114314970D01*
X19969582Y-114322059D01*
X19992757Y-114431918D01*
X19995674Y-114438959D01*
X19995684Y-114438982D01*
X19995685Y-114438984D01*
X20001383Y-114451888D01*
X20066953Y-114543022D01*
X20161016Y-114604315D01*
X20168087Y-114607244D01*
X20174641Y-114609870D01*
X20285000Y-114630500D01*
X20285002Y-114630500D01*
X22104970Y-114630500D01*
X22105000Y-114630500D01*
X22112060Y-114630418D01*
X22221913Y-114607244D01*
X22228984Y-114604315D01*
X22235469Y-114601541D01*
X22235474Y-114601537D01*
X22235477Y-114601536D01*
X22328084Y-114538098D01*
X22328087Y-114538095D01*
X22328092Y-114538092D01*
X22328097Y-114538087D01*
X22359366Y-114506819D01*
X22420689Y-114473334D01*
X22447047Y-114470500D01*
X25275517Y-114470500D01*
X25312772Y-114474388D01*
X25337203Y-114470500D01*
X25361943Y-114470500D01*
X25398124Y-114460805D01*
X25435118Y-114454918D01*
X25457712Y-114444838D01*
X25481606Y-114438436D01*
X25514045Y-114419707D01*
X25548255Y-114404446D01*
X25567468Y-114388864D01*
X25588894Y-114376494D01*
X25615383Y-114350004D01*
X25644474Y-114326412D01*
X25658999Y-114306388D01*
X25676494Y-114288894D01*
X25691999Y-114262035D01*
X25699005Y-114251237D01*
X28840273Y-109920943D01*
X67199500Y-109920943D01*
X67199500Y-110079056D01*
X67240423Y-110231783D01*
X67240426Y-110231790D01*
X67319475Y-110368709D01*
X67319479Y-110368714D01*
X67319480Y-110368716D01*
X67431284Y-110480520D01*
X67431286Y-110480521D01*
X67431290Y-110480524D01*
X67539545Y-110543024D01*
X67568216Y-110559577D01*
X67720943Y-110600500D01*
X67720945Y-110600500D01*
X67879055Y-110600500D01*
X67879057Y-110600500D01*
X68031784Y-110559577D01*
X68079454Y-110532054D01*
X68157298Y-110487113D01*
X68219297Y-110470500D01*
X70652953Y-110470500D01*
X70719992Y-110490185D01*
X70740634Y-110506819D01*
X70771922Y-110538107D01*
X70776945Y-110543016D01*
X70776956Y-110543024D01*
X70865159Y-110600499D01*
X70871016Y-110604315D01*
X70878087Y-110607244D01*
X70884641Y-110609870D01*
X70995000Y-110630500D01*
X70995002Y-110630500D01*
X72814970Y-110630500D01*
X72815000Y-110630500D01*
X72822060Y-110630418D01*
X72931913Y-110607244D01*
X72938984Y-110604315D01*
X72951888Y-110598617D01*
X73043022Y-110533047D01*
X73104315Y-110438984D01*
X73107244Y-110431913D01*
X73109870Y-110425359D01*
X73130500Y-110315000D01*
X73130500Y-109685000D01*
X73130418Y-109677940D01*
X73107244Y-109568087D01*
X73104315Y-109561016D01*
X73098617Y-109548112D01*
X73033047Y-109456978D01*
X72938984Y-109395685D01*
X72931913Y-109392756D01*
X72925359Y-109390130D01*
X72815000Y-109369500D01*
X70995000Y-109369500D01*
X70987940Y-109369582D01*
X70878087Y-109392756D01*
X70878086Y-109392756D01*
X70878083Y-109392757D01*
X70870968Y-109395704D01*
X70864534Y-109398457D01*
X70864522Y-109398463D01*
X70771915Y-109461901D01*
X70771902Y-109461912D01*
X70740634Y-109493181D01*
X70679311Y-109526666D01*
X70652953Y-109529500D01*
X68219297Y-109529500D01*
X68157298Y-109512887D01*
X68031790Y-109440426D01*
X68031786Y-109440424D01*
X68031784Y-109440423D01*
X67879057Y-109399500D01*
X67720943Y-109399500D01*
X67568216Y-109440423D01*
X67568209Y-109440426D01*
X67431290Y-109519475D01*
X67431282Y-109519481D01*
X67319481Y-109631282D01*
X67319475Y-109631290D01*
X67240426Y-109768209D01*
X67240423Y-109768216D01*
X67199500Y-109920943D01*
X28840273Y-109920943D01*
X34643606Y-101920943D01*
X67199500Y-101920943D01*
X67199500Y-102079056D01*
X67240423Y-102231783D01*
X67240426Y-102231790D01*
X67319475Y-102368709D01*
X67319479Y-102368714D01*
X67319480Y-102368716D01*
X67431284Y-102480520D01*
X67431286Y-102480521D01*
X67431290Y-102480524D01*
X67539545Y-102543024D01*
X67568216Y-102559577D01*
X67720943Y-102600500D01*
X67720945Y-102600500D01*
X67879055Y-102600500D01*
X67879057Y-102600500D01*
X68031784Y-102559577D01*
X68079454Y-102532054D01*
X68157298Y-102487113D01*
X68219297Y-102470500D01*
X70652953Y-102470500D01*
X70719992Y-102490185D01*
X70740634Y-102506819D01*
X70771922Y-102538107D01*
X70776945Y-102543016D01*
X70776956Y-102543024D01*
X70865159Y-102600499D01*
X70871016Y-102604315D01*
X70878087Y-102607244D01*
X70884641Y-102609870D01*
X70995000Y-102630500D01*
X70995002Y-102630500D01*
X72814970Y-102630500D01*
X72815000Y-102630500D01*
X72822060Y-102630418D01*
X72931913Y-102607244D01*
X72938984Y-102604315D01*
X72951888Y-102598617D01*
X73043022Y-102533047D01*
X73104315Y-102438984D01*
X73107244Y-102431913D01*
X73109870Y-102425359D01*
X73130500Y-102315000D01*
X73130500Y-101685000D01*
X73130418Y-101677940D01*
X73107244Y-101568087D01*
X73104315Y-101561016D01*
X73098617Y-101548112D01*
X73033047Y-101456978D01*
X72938984Y-101395685D01*
X72931913Y-101392756D01*
X72925359Y-101390130D01*
X72815000Y-101369500D01*
X70995000Y-101369500D01*
X70987940Y-101369582D01*
X70878087Y-101392756D01*
X70878086Y-101392756D01*
X70878083Y-101392757D01*
X70870968Y-101395704D01*
X70864534Y-101398457D01*
X70864522Y-101398463D01*
X70771915Y-101461901D01*
X70771902Y-101461912D01*
X70740634Y-101493181D01*
X70679311Y-101526666D01*
X70652953Y-101529500D01*
X68219297Y-101529500D01*
X68157298Y-101512887D01*
X68031790Y-101440426D01*
X68031786Y-101440424D01*
X68031784Y-101440423D01*
X67879057Y-101399500D01*
X67720943Y-101399500D01*
X67568216Y-101440423D01*
X67568209Y-101440426D01*
X67431290Y-101519475D01*
X67431282Y-101519481D01*
X67319481Y-101631282D01*
X67319475Y-101631290D01*
X67240426Y-101768209D01*
X67240423Y-101768216D01*
X67199500Y-101920943D01*
X34643606Y-101920943D01*
X40446939Y-93920943D01*
X67199500Y-93920943D01*
X67199500Y-94079056D01*
X67240423Y-94231783D01*
X67240426Y-94231790D01*
X67319475Y-94368709D01*
X67319479Y-94368714D01*
X67319480Y-94368716D01*
X67431284Y-94480520D01*
X67431286Y-94480521D01*
X67431290Y-94480524D01*
X67539545Y-94543024D01*
X67568216Y-94559577D01*
X67720943Y-94600500D01*
X67720945Y-94600500D01*
X67879055Y-94600500D01*
X67879057Y-94600500D01*
X68031784Y-94559577D01*
X68079454Y-94532054D01*
X68157298Y-94487113D01*
X68219297Y-94470500D01*
X70652953Y-94470500D01*
X70719992Y-94490185D01*
X70740634Y-94506819D01*
X70771922Y-94538107D01*
X70776945Y-94543016D01*
X70776956Y-94543024D01*
X70865159Y-94600499D01*
X70871016Y-94604315D01*
X70878087Y-94607244D01*
X70884641Y-94609870D01*
X70995000Y-94630500D01*
X70995002Y-94630500D01*
X72814970Y-94630500D01*
X72815000Y-94630500D01*
X72822060Y-94630418D01*
X72931913Y-94607244D01*
X72938984Y-94604315D01*
X72951888Y-94598617D01*
X73043022Y-94533047D01*
X73104315Y-94438984D01*
X73107244Y-94431913D01*
X73109870Y-94425359D01*
X73130500Y-94315000D01*
X73130500Y-93685000D01*
X73130418Y-93677940D01*
X73107244Y-93568087D01*
X73104315Y-93561016D01*
X73098617Y-93548112D01*
X73033047Y-93456978D01*
X72938984Y-93395685D01*
X72931913Y-93392756D01*
X72925359Y-93390130D01*
X72815000Y-93369500D01*
X70995000Y-93369500D01*
X70987940Y-93369582D01*
X70878087Y-93392756D01*
X70878086Y-93392756D01*
X70878083Y-93392757D01*
X70870968Y-93395704D01*
X70864534Y-93398457D01*
X70864522Y-93398463D01*
X70771915Y-93461901D01*
X70771902Y-93461912D01*
X70740634Y-93493181D01*
X70679311Y-93526666D01*
X70652953Y-93529500D01*
X68219297Y-93529500D01*
X68157298Y-93512887D01*
X68031790Y-93440426D01*
X68031786Y-93440424D01*
X68031784Y-93440423D01*
X67879057Y-93399500D01*
X67720943Y-93399500D01*
X67568216Y-93440423D01*
X67568209Y-93440426D01*
X67431290Y-93519475D01*
X67431282Y-93519481D01*
X67319481Y-93631282D01*
X67319475Y-93631290D01*
X67240426Y-93768209D01*
X67240423Y-93768216D01*
X67199500Y-93920943D01*
X40446939Y-93920943D01*
X43298444Y-89990092D01*
X48459500Y-89990092D01*
X48459500Y-90139907D01*
X48488723Y-90286822D01*
X48488725Y-90286830D01*
X48546051Y-90425229D01*
X48546056Y-90425238D01*
X48629280Y-90549790D01*
X48629283Y-90549794D01*
X48735205Y-90655716D01*
X48735209Y-90655719D01*
X48859761Y-90738943D01*
X48859767Y-90738946D01*
X48859768Y-90738947D01*
X48998170Y-90796275D01*
X49145092Y-90825499D01*
X49145096Y-90825500D01*
X49145097Y-90825500D01*
X49294904Y-90825500D01*
X49294905Y-90825499D01*
X49441830Y-90796275D01*
X49580232Y-90738947D01*
X49704791Y-90655719D01*
X49810719Y-90549791D01*
X49893947Y-90425232D01*
X49951275Y-90286830D01*
X49980500Y-90139903D01*
X49980500Y-89990097D01*
X49951275Y-89843170D01*
X49893947Y-89704768D01*
X49893946Y-89704767D01*
X49893943Y-89704761D01*
X49810719Y-89580209D01*
X49810716Y-89580205D01*
X49704794Y-89474283D01*
X49704790Y-89474280D01*
X49580238Y-89391056D01*
X49580229Y-89391051D01*
X49441830Y-89333725D01*
X49441822Y-89333723D01*
X49294907Y-89304500D01*
X49294903Y-89304500D01*
X49145097Y-89304500D01*
X49145092Y-89304500D01*
X48998177Y-89333723D01*
X48998169Y-89333725D01*
X48859770Y-89391051D01*
X48859761Y-89391056D01*
X48735209Y-89474280D01*
X48735205Y-89474283D01*
X48629283Y-89580205D01*
X48629280Y-89580209D01*
X48546056Y-89704761D01*
X48546051Y-89704770D01*
X48488725Y-89843169D01*
X48488723Y-89843177D01*
X48459500Y-89990092D01*
X43298444Y-89990092D01*
X46250273Y-85920943D01*
X67199500Y-85920943D01*
X67199500Y-86079056D01*
X67240423Y-86231783D01*
X67240426Y-86231790D01*
X67319475Y-86368709D01*
X67319479Y-86368714D01*
X67319480Y-86368716D01*
X67431284Y-86480520D01*
X67431286Y-86480521D01*
X67431290Y-86480524D01*
X67539545Y-86543024D01*
X67568216Y-86559577D01*
X67720943Y-86600500D01*
X67720945Y-86600500D01*
X67879055Y-86600500D01*
X67879057Y-86600500D01*
X68031784Y-86559577D01*
X68079454Y-86532054D01*
X68157298Y-86487113D01*
X68219297Y-86470500D01*
X70652953Y-86470500D01*
X70719992Y-86490185D01*
X70740634Y-86506819D01*
X70771922Y-86538107D01*
X70776945Y-86543016D01*
X70776956Y-86543024D01*
X70865159Y-86600499D01*
X70871016Y-86604315D01*
X70878087Y-86607244D01*
X70884641Y-86609870D01*
X70995000Y-86630500D01*
X70995002Y-86630500D01*
X72814970Y-86630500D01*
X72815000Y-86630500D01*
X72822060Y-86630418D01*
X72931913Y-86607244D01*
X72938984Y-86604315D01*
X72951888Y-86598617D01*
X73043022Y-86533047D01*
X73104315Y-86438984D01*
X73107244Y-86431913D01*
X73109870Y-86425359D01*
X73130500Y-86315000D01*
X73130500Y-85685000D01*
X73130418Y-85677940D01*
X73107244Y-85568087D01*
X73104315Y-85561016D01*
X73098617Y-85548112D01*
X73033047Y-85456978D01*
X72938984Y-85395685D01*
X72931913Y-85392756D01*
X72925359Y-85390130D01*
X72815000Y-85369500D01*
X70995000Y-85369500D01*
X70987940Y-85369582D01*
X70878087Y-85392756D01*
X70878086Y-85392756D01*
X70878083Y-85392757D01*
X70870968Y-85395704D01*
X70864534Y-85398457D01*
X70864522Y-85398463D01*
X70771915Y-85461901D01*
X70771902Y-85461912D01*
X70740634Y-85493181D01*
X70679311Y-85526666D01*
X70652953Y-85529500D01*
X68219297Y-85529500D01*
X68157298Y-85512887D01*
X68031790Y-85440426D01*
X68031786Y-85440424D01*
X68031784Y-85440423D01*
X67879057Y-85399500D01*
X67720943Y-85399500D01*
X67568216Y-85440423D01*
X67568209Y-85440426D01*
X67431290Y-85519475D01*
X67431282Y-85519481D01*
X67319481Y-85631282D01*
X67319475Y-85631290D01*
X67240426Y-85768209D01*
X67240423Y-85768216D01*
X67199500Y-85920943D01*
X46250273Y-85920943D01*
X51550897Y-78613937D01*
X51606196Y-78571231D01*
X51619166Y-78566976D01*
X51646784Y-78559577D01*
X51783716Y-78480520D01*
X51895520Y-78368716D01*
X51974577Y-78231784D01*
X52015500Y-78079057D01*
X52015500Y-77920943D01*
X67199500Y-77920943D01*
X67199500Y-78079056D01*
X67240423Y-78231783D01*
X67240426Y-78231790D01*
X67319475Y-78368709D01*
X67319479Y-78368714D01*
X67319480Y-78368716D01*
X67431284Y-78480520D01*
X67431286Y-78480521D01*
X67431290Y-78480524D01*
X67539545Y-78543024D01*
X67568216Y-78559577D01*
X67720943Y-78600500D01*
X67720945Y-78600500D01*
X67879055Y-78600500D01*
X67879057Y-78600500D01*
X68031784Y-78559577D01*
X68079454Y-78532054D01*
X68157298Y-78487113D01*
X68219297Y-78470500D01*
X70652953Y-78470500D01*
X70719992Y-78490185D01*
X70740634Y-78506819D01*
X70771922Y-78538107D01*
X70776945Y-78543016D01*
X70776956Y-78543024D01*
X70865159Y-78600499D01*
X70871016Y-78604315D01*
X70878087Y-78607244D01*
X70884641Y-78609870D01*
X70995000Y-78630500D01*
X70995002Y-78630500D01*
X72814970Y-78630500D01*
X72815000Y-78630500D01*
X72822060Y-78630418D01*
X72931913Y-78607244D01*
X72938984Y-78604315D01*
X72951888Y-78598617D01*
X73043022Y-78533047D01*
X73104315Y-78438984D01*
X73107244Y-78431913D01*
X73109870Y-78425359D01*
X73130500Y-78315000D01*
X73130500Y-77685000D01*
X73130418Y-77677940D01*
X73107244Y-77568087D01*
X73104315Y-77561016D01*
X73098617Y-77548112D01*
X73033047Y-77456978D01*
X72938984Y-77395685D01*
X72931913Y-77392756D01*
X72925359Y-77390130D01*
X72815000Y-77369500D01*
X70995000Y-77369500D01*
X70987940Y-77369582D01*
X70878087Y-77392756D01*
X70878086Y-77392756D01*
X70878083Y-77392757D01*
X70870968Y-77395704D01*
X70864534Y-77398457D01*
X70864522Y-77398463D01*
X70771915Y-77461901D01*
X70771902Y-77461912D01*
X70740634Y-77493181D01*
X70679311Y-77526666D01*
X70652953Y-77529500D01*
X68219297Y-77529500D01*
X68157298Y-77512887D01*
X68031790Y-77440426D01*
X68031786Y-77440424D01*
X68031784Y-77440423D01*
X67879057Y-77399500D01*
X67720943Y-77399500D01*
X67568216Y-77440423D01*
X67568209Y-77440426D01*
X67431290Y-77519475D01*
X67431282Y-77519481D01*
X67319481Y-77631282D01*
X67319475Y-77631290D01*
X67240426Y-77768209D01*
X67240423Y-77768216D01*
X67199500Y-77920943D01*
X52015500Y-77920943D01*
X51974577Y-77768216D01*
X51955672Y-77735471D01*
X51895524Y-77631290D01*
X51895518Y-77631282D01*
X51783717Y-77519481D01*
X51783709Y-77519475D01*
X51646790Y-77440426D01*
X51646786Y-77440424D01*
X51646784Y-77440423D01*
X51494057Y-77399500D01*
X51335943Y-77399500D01*
X51306811Y-77407306D01*
X51236961Y-77405643D01*
X51179099Y-77366480D01*
X51151595Y-77302251D01*
X51163182Y-77233349D01*
X51195687Y-77191980D01*
X51392796Y-77028949D01*
X51457000Y-77001390D01*
X51471827Y-77000500D01*
X51494055Y-77000500D01*
X51494057Y-77000500D01*
X51646784Y-76959577D01*
X51783716Y-76880520D01*
X51895520Y-76768716D01*
X51974577Y-76631784D01*
X52015500Y-76479057D01*
X52015500Y-76320943D01*
X51974577Y-76168216D01*
X51974573Y-76168209D01*
X51895524Y-76031290D01*
X51895518Y-76031282D01*
X51783717Y-75919481D01*
X51783709Y-75919475D01*
X51646790Y-75840426D01*
X51646786Y-75840424D01*
X51646784Y-75840423D01*
X51494057Y-75799500D01*
X51335943Y-75799500D01*
X51183216Y-75840423D01*
X51183209Y-75840426D01*
X51046290Y-75919475D01*
X51046282Y-75919481D01*
X50934481Y-76031282D01*
X50934475Y-76031290D01*
X50855426Y-76168209D01*
X50855421Y-76168220D01*
X50836738Y-76237944D01*
X50800372Y-76297604D01*
X50795995Y-76301400D01*
X33271289Y-90796276D01*
X25206258Y-97466952D01*
X25165031Y-97501051D01*
X25100827Y-97528610D01*
X25086000Y-97529500D01*
X22447047Y-97529500D01*
X22380008Y-97509815D01*
X22359366Y-97493181D01*
X22328077Y-97461892D01*
X22323054Y-97456983D01*
X22323043Y-97456975D01*
X22228985Y-97395685D01*
X22226468Y-97394643D01*
X22221913Y-97392756D01*
X22215359Y-97390130D01*
X22105000Y-97369500D01*
X20285000Y-97369500D01*
X20277940Y-97369582D01*
X20168081Y-97392757D01*
X20161040Y-97395674D01*
X20148114Y-97401382D01*
X20148112Y-97401383D01*
X20148111Y-97401384D01*
X20056978Y-97466952D01*
X20056978Y-97466953D01*
X19995684Y-97561017D01*
X19993821Y-97565515D01*
X19992756Y-97568087D01*
X19990130Y-97574641D01*
X19969500Y-97685000D01*
X9500500Y-97685000D01*
X9500500Y-89685001D01*
X19969500Y-89685001D01*
X19969500Y-90314970D01*
X19969582Y-90322059D01*
X19992757Y-90431918D01*
X19995674Y-90438959D01*
X19995684Y-90438982D01*
X19995685Y-90438984D01*
X20001383Y-90451888D01*
X20066953Y-90543022D01*
X20161016Y-90604315D01*
X20168087Y-90607244D01*
X20174641Y-90609870D01*
X20285000Y-90630500D01*
X20285002Y-90630500D01*
X22104970Y-90630500D01*
X22105000Y-90630500D01*
X22112060Y-90630418D01*
X22221913Y-90607244D01*
X22228984Y-90604315D01*
X22235469Y-90601541D01*
X22235474Y-90601537D01*
X22235477Y-90601536D01*
X22328084Y-90538098D01*
X22328087Y-90538095D01*
X22328092Y-90538092D01*
X22328097Y-90538087D01*
X22359366Y-90506819D01*
X22420689Y-90473334D01*
X22447047Y-90470500D01*
X24880703Y-90470500D01*
X24942702Y-90487113D01*
X25051264Y-90549790D01*
X25068216Y-90559577D01*
X25220943Y-90600500D01*
X25220945Y-90600500D01*
X25379055Y-90600500D01*
X25379057Y-90600500D01*
X25531784Y-90559577D01*
X25668716Y-90480520D01*
X25780520Y-90368716D01*
X25859577Y-90231784D01*
X25900500Y-90079057D01*
X25900500Y-89920943D01*
X25859577Y-89768216D01*
X25822942Y-89704761D01*
X25780524Y-89631290D01*
X25780518Y-89631282D01*
X25668717Y-89519481D01*
X25668709Y-89519475D01*
X25531790Y-89440426D01*
X25531786Y-89440424D01*
X25531784Y-89440423D01*
X25379057Y-89399500D01*
X25220943Y-89399500D01*
X25068216Y-89440423D01*
X25068209Y-89440426D01*
X24942702Y-89512887D01*
X24880703Y-89529500D01*
X22447047Y-89529500D01*
X22380008Y-89509815D01*
X22359366Y-89493181D01*
X22328077Y-89461892D01*
X22323054Y-89456983D01*
X22323043Y-89456975D01*
X22228985Y-89395685D01*
X22226468Y-89394643D01*
X22221913Y-89392756D01*
X22215359Y-89390130D01*
X22105000Y-89369500D01*
X20285000Y-89369500D01*
X20277940Y-89369582D01*
X20168081Y-89392757D01*
X20161040Y-89395674D01*
X20152376Y-89399500D01*
X20148112Y-89401383D01*
X20148111Y-89401384D01*
X20056978Y-89466952D01*
X20056978Y-89466953D01*
X19995684Y-89561017D01*
X19993821Y-89565515D01*
X19992756Y-89568087D01*
X19990130Y-89574641D01*
X19990129Y-89574643D01*
X19990129Y-89574645D01*
X19969500Y-89685001D01*
X9500500Y-89685001D01*
X9500500Y-81685001D01*
X19969500Y-81685001D01*
X19969500Y-82314970D01*
X19969582Y-82322059D01*
X19992757Y-82431918D01*
X19995674Y-82438959D01*
X19995684Y-82438982D01*
X19995685Y-82438984D01*
X20001383Y-82451888D01*
X20066953Y-82543022D01*
X20161016Y-82604315D01*
X20168087Y-82607244D01*
X20174641Y-82609870D01*
X20285000Y-82630500D01*
X20285002Y-82630500D01*
X22104970Y-82630500D01*
X22105000Y-82630500D01*
X22112060Y-82630418D01*
X22221913Y-82607244D01*
X22228984Y-82604315D01*
X22235469Y-82601541D01*
X22235474Y-82601537D01*
X22235477Y-82601536D01*
X22328084Y-82538098D01*
X22328087Y-82538095D01*
X22328092Y-82538092D01*
X22328097Y-82538087D01*
X22359366Y-82506819D01*
X22420689Y-82473334D01*
X22447047Y-82470500D01*
X24880703Y-82470500D01*
X24942702Y-82487113D01*
X25068209Y-82559573D01*
X25068216Y-82559577D01*
X25220943Y-82600500D01*
X25220945Y-82600500D01*
X25379055Y-82600500D01*
X25379057Y-82600500D01*
X25531784Y-82559577D01*
X25668716Y-82480520D01*
X25780520Y-82368716D01*
X25859577Y-82231784D01*
X25900500Y-82079057D01*
X25900500Y-81920943D01*
X25859577Y-81768216D01*
X25859573Y-81768209D01*
X25780524Y-81631290D01*
X25780518Y-81631282D01*
X25668717Y-81519481D01*
X25668709Y-81519475D01*
X25531790Y-81440426D01*
X25531786Y-81440424D01*
X25531784Y-81440423D01*
X25379057Y-81399500D01*
X25220943Y-81399500D01*
X25068216Y-81440423D01*
X25068209Y-81440426D01*
X24942702Y-81512887D01*
X24880703Y-81529500D01*
X22447047Y-81529500D01*
X22380008Y-81509815D01*
X22359366Y-81493181D01*
X22328077Y-81461892D01*
X22323054Y-81456983D01*
X22323043Y-81456975D01*
X22228985Y-81395685D01*
X22226468Y-81394643D01*
X22221913Y-81392756D01*
X22215359Y-81390130D01*
X22105000Y-81369500D01*
X20285000Y-81369500D01*
X20277940Y-81369582D01*
X20168081Y-81392757D01*
X20161040Y-81395674D01*
X20152376Y-81399500D01*
X20148112Y-81401383D01*
X20148111Y-81401384D01*
X20056978Y-81466952D01*
X20056978Y-81466953D01*
X19995684Y-81561017D01*
X19993821Y-81565515D01*
X19992756Y-81568087D01*
X19990130Y-81574641D01*
X19990129Y-81574643D01*
X19990129Y-81574645D01*
X19969500Y-81685001D01*
X9500500Y-81685001D01*
X9500500Y-73685001D01*
X19969500Y-73685001D01*
X19969500Y-74314970D01*
X19969582Y-74322059D01*
X19992757Y-74431918D01*
X19995674Y-74438959D01*
X19995684Y-74438982D01*
X19995685Y-74438984D01*
X20001383Y-74451888D01*
X20066953Y-74543022D01*
X20161016Y-74604315D01*
X20168087Y-74607244D01*
X20174641Y-74609870D01*
X20285000Y-74630500D01*
X20285002Y-74630500D01*
X22104970Y-74630500D01*
X22105000Y-74630500D01*
X22112060Y-74630418D01*
X22221913Y-74607244D01*
X22228984Y-74604315D01*
X22235469Y-74601541D01*
X22235474Y-74601537D01*
X22235477Y-74601536D01*
X22328084Y-74538098D01*
X22328087Y-74538095D01*
X22328092Y-74538092D01*
X22328097Y-74538087D01*
X22359366Y-74506819D01*
X22420689Y-74473334D01*
X22447047Y-74470500D01*
X24880703Y-74470500D01*
X24942702Y-74487113D01*
X25068209Y-74559573D01*
X25068216Y-74559577D01*
X25220943Y-74600500D01*
X25220945Y-74600500D01*
X25379055Y-74600500D01*
X25379057Y-74600500D01*
X25531784Y-74559577D01*
X25668716Y-74480520D01*
X25780520Y-74368716D01*
X25859577Y-74231784D01*
X25900500Y-74079057D01*
X25900500Y-73920943D01*
X25859577Y-73768216D01*
X25859573Y-73768209D01*
X25780524Y-73631290D01*
X25780518Y-73631282D01*
X25668717Y-73519481D01*
X25668709Y-73519475D01*
X25531790Y-73440426D01*
X25531786Y-73440424D01*
X25531784Y-73440423D01*
X25379057Y-73399500D01*
X25220943Y-73399500D01*
X25068216Y-73440423D01*
X25068209Y-73440426D01*
X24942702Y-73512887D01*
X24880703Y-73529500D01*
X22447047Y-73529500D01*
X22380008Y-73509815D01*
X22359366Y-73493181D01*
X22328077Y-73461892D01*
X22323054Y-73456983D01*
X22323043Y-73456975D01*
X22228985Y-73395685D01*
X22226468Y-73394643D01*
X22221913Y-73392756D01*
X22215359Y-73390130D01*
X22105000Y-73369500D01*
X20285000Y-73369500D01*
X20277940Y-73369582D01*
X20168081Y-73392757D01*
X20161040Y-73395674D01*
X20152376Y-73399500D01*
X20148112Y-73401383D01*
X20148111Y-73401384D01*
X20056978Y-73466952D01*
X20056978Y-73466953D01*
X19995684Y-73561017D01*
X19993821Y-73565515D01*
X19992756Y-73568087D01*
X19990130Y-73574641D01*
X19990129Y-73574643D01*
X19990129Y-73574645D01*
X19969500Y-73685001D01*
X9500500Y-73685001D01*
X9500500Y-69920943D01*
X67199500Y-69920943D01*
X67199500Y-70079056D01*
X67240423Y-70231783D01*
X67240426Y-70231790D01*
X67319475Y-70368709D01*
X67319479Y-70368714D01*
X67319480Y-70368716D01*
X67431284Y-70480520D01*
X67431286Y-70480521D01*
X67431290Y-70480524D01*
X67539545Y-70543024D01*
X67568216Y-70559577D01*
X67720943Y-70600500D01*
X67720945Y-70600500D01*
X67879055Y-70600500D01*
X67879057Y-70600500D01*
X68031784Y-70559577D01*
X68079454Y-70532054D01*
X68157298Y-70487113D01*
X68219297Y-70470500D01*
X70652953Y-70470500D01*
X70719992Y-70490185D01*
X70740634Y-70506819D01*
X70771922Y-70538107D01*
X70776945Y-70543016D01*
X70776956Y-70543024D01*
X70865159Y-70600499D01*
X70871016Y-70604315D01*
X70878087Y-70607244D01*
X70884641Y-70609870D01*
X70995000Y-70630500D01*
X70995002Y-70630500D01*
X72814970Y-70630500D01*
X72815000Y-70630500D01*
X72822060Y-70630418D01*
X72931913Y-70607244D01*
X72938984Y-70604315D01*
X72951888Y-70598617D01*
X73043022Y-70533047D01*
X73104315Y-70438984D01*
X73107244Y-70431913D01*
X73109870Y-70425359D01*
X73130500Y-70315000D01*
X73130500Y-69685000D01*
X73130418Y-69677940D01*
X73107244Y-69568087D01*
X73104315Y-69561016D01*
X73098617Y-69548112D01*
X73033047Y-69456978D01*
X72938984Y-69395685D01*
X72931913Y-69392756D01*
X72925359Y-69390130D01*
X72815000Y-69369500D01*
X70995000Y-69369500D01*
X70987940Y-69369582D01*
X70878087Y-69392756D01*
X70878086Y-69392756D01*
X70878083Y-69392757D01*
X70870968Y-69395704D01*
X70864534Y-69398457D01*
X70864522Y-69398463D01*
X70771915Y-69461901D01*
X70771902Y-69461912D01*
X70740634Y-69493181D01*
X70679311Y-69526666D01*
X70652953Y-69529500D01*
X68219297Y-69529500D01*
X68157298Y-69512887D01*
X68031790Y-69440426D01*
X68031786Y-69440424D01*
X68031784Y-69440423D01*
X67879057Y-69399500D01*
X67720943Y-69399500D01*
X67568216Y-69440423D01*
X67568209Y-69440426D01*
X67431290Y-69519475D01*
X67431282Y-69519481D01*
X67319481Y-69631282D01*
X67319475Y-69631290D01*
X67240426Y-69768209D01*
X67240423Y-69768216D01*
X67199500Y-69920943D01*
X9500500Y-69920943D01*
X9500500Y-65685001D01*
X19969500Y-65685001D01*
X19969500Y-66314970D01*
X19969582Y-66322059D01*
X19992757Y-66431918D01*
X19995674Y-66438959D01*
X19995684Y-66438982D01*
X19995685Y-66438984D01*
X20001383Y-66451888D01*
X20066953Y-66543022D01*
X20161016Y-66604315D01*
X20168087Y-66607244D01*
X20174641Y-66609870D01*
X20285000Y-66630500D01*
X20285002Y-66630500D01*
X22104970Y-66630500D01*
X22105000Y-66630500D01*
X22112060Y-66630418D01*
X22221913Y-66607244D01*
X22228984Y-66604315D01*
X22235469Y-66601541D01*
X22235474Y-66601537D01*
X22235477Y-66601536D01*
X22328084Y-66538098D01*
X22328087Y-66538095D01*
X22328092Y-66538092D01*
X22328097Y-66538087D01*
X22359366Y-66506819D01*
X22420689Y-66473334D01*
X22447047Y-66470500D01*
X24880703Y-66470500D01*
X24942702Y-66487113D01*
X25068209Y-66559573D01*
X25068216Y-66559577D01*
X25220943Y-66600500D01*
X25220945Y-66600500D01*
X25379055Y-66600500D01*
X25379057Y-66600500D01*
X25531784Y-66559577D01*
X25668716Y-66480520D01*
X25780520Y-66368716D01*
X25859577Y-66231784D01*
X25900500Y-66079057D01*
X25900500Y-65920943D01*
X25859577Y-65768216D01*
X25859573Y-65768209D01*
X25780524Y-65631290D01*
X25780518Y-65631282D01*
X25668717Y-65519481D01*
X25668709Y-65519475D01*
X25531790Y-65440426D01*
X25531786Y-65440424D01*
X25531784Y-65440423D01*
X25379057Y-65399500D01*
X25220943Y-65399500D01*
X25068216Y-65440423D01*
X25068209Y-65440426D01*
X24942702Y-65512887D01*
X24880703Y-65529500D01*
X22447047Y-65529500D01*
X22380008Y-65509815D01*
X22359366Y-65493181D01*
X22328077Y-65461892D01*
X22323054Y-65456983D01*
X22323043Y-65456975D01*
X22228985Y-65395685D01*
X22226468Y-65394643D01*
X22221913Y-65392756D01*
X22215359Y-65390130D01*
X22105000Y-65369500D01*
X20285000Y-65369500D01*
X20277940Y-65369582D01*
X20168081Y-65392757D01*
X20161040Y-65395674D01*
X20152376Y-65399500D01*
X20148112Y-65401383D01*
X20148111Y-65401384D01*
X20056978Y-65466952D01*
X20056978Y-65466953D01*
X19995684Y-65561017D01*
X19993821Y-65565515D01*
X19992756Y-65568087D01*
X19990130Y-65574641D01*
X19990129Y-65574643D01*
X19990129Y-65574645D01*
X19969500Y-65685001D01*
X9500500Y-65685001D01*
X9500500Y-57685001D01*
X19969500Y-57685001D01*
X19969500Y-58314970D01*
X19969582Y-58322059D01*
X19992757Y-58431918D01*
X19995674Y-58438959D01*
X19995684Y-58438982D01*
X19995685Y-58438984D01*
X20001383Y-58451888D01*
X20066953Y-58543022D01*
X20161016Y-58604315D01*
X20168087Y-58607244D01*
X20174641Y-58609870D01*
X20285000Y-58630500D01*
X20285002Y-58630500D01*
X22104970Y-58630500D01*
X22105000Y-58630500D01*
X22112060Y-58630418D01*
X22221913Y-58607244D01*
X22228984Y-58604315D01*
X22235469Y-58601541D01*
X22235474Y-58601537D01*
X22235477Y-58601536D01*
X22328084Y-58538098D01*
X22328087Y-58538095D01*
X22328092Y-58538092D01*
X22328097Y-58538087D01*
X22359366Y-58506819D01*
X22420689Y-58473334D01*
X22447047Y-58470500D01*
X24880703Y-58470500D01*
X24942702Y-58487113D01*
X25068209Y-58559573D01*
X25068216Y-58559577D01*
X25220943Y-58600500D01*
X25220945Y-58600500D01*
X25379055Y-58600500D01*
X25379057Y-58600500D01*
X25531784Y-58559577D01*
X25668716Y-58480520D01*
X25780520Y-58368716D01*
X25859577Y-58231784D01*
X25900500Y-58079057D01*
X25900500Y-57920943D01*
X25859577Y-57768216D01*
X25859573Y-57768209D01*
X25780524Y-57631290D01*
X25780518Y-57631282D01*
X25668717Y-57519481D01*
X25668709Y-57519475D01*
X25531790Y-57440426D01*
X25531786Y-57440424D01*
X25531784Y-57440423D01*
X25379057Y-57399500D01*
X25220943Y-57399500D01*
X25068216Y-57440423D01*
X25068209Y-57440426D01*
X24942702Y-57512887D01*
X24880703Y-57529500D01*
X22447047Y-57529500D01*
X22380008Y-57509815D01*
X22359366Y-57493181D01*
X22328077Y-57461892D01*
X22323054Y-57456983D01*
X22323043Y-57456975D01*
X22228985Y-57395685D01*
X22226468Y-57394643D01*
X22221913Y-57392756D01*
X22215359Y-57390130D01*
X22105000Y-57369500D01*
X20285000Y-57369500D01*
X20277940Y-57369582D01*
X20168081Y-57392757D01*
X20161040Y-57395674D01*
X20152376Y-57399500D01*
X20148112Y-57401383D01*
X20148111Y-57401384D01*
X20056978Y-57466952D01*
X20056978Y-57466953D01*
X19995684Y-57561017D01*
X19993821Y-57565515D01*
X19992756Y-57568087D01*
X19990130Y-57574641D01*
X19990129Y-57574643D01*
X19990129Y-57574645D01*
X19969500Y-57685001D01*
X9500500Y-57685001D01*
X9500500Y-49685001D01*
X19969500Y-49685001D01*
X19969500Y-50314970D01*
X19969582Y-50322059D01*
X19992757Y-50431918D01*
X19995674Y-50438959D01*
X19995684Y-50438982D01*
X19995685Y-50438984D01*
X20001383Y-50451888D01*
X20052588Y-50523057D01*
X20054501Y-50525716D01*
X20066953Y-50543022D01*
X20161016Y-50604315D01*
X20168087Y-50607244D01*
X20174641Y-50609870D01*
X20285000Y-50630500D01*
X20285002Y-50630500D01*
X22104970Y-50630500D01*
X22105000Y-50630500D01*
X22112060Y-50630418D01*
X22221913Y-50607244D01*
X22228984Y-50604315D01*
X22235469Y-50601541D01*
X22235474Y-50601537D01*
X22235477Y-50601536D01*
X22328084Y-50538098D01*
X22328087Y-50538095D01*
X22328092Y-50538092D01*
X22340468Y-50525716D01*
X22359366Y-50506819D01*
X22420689Y-50473334D01*
X22447047Y-50470500D01*
X24880703Y-50470500D01*
X24942702Y-50487113D01*
X25068209Y-50559573D01*
X25068216Y-50559577D01*
X25220943Y-50600500D01*
X25220945Y-50600500D01*
X25379055Y-50600500D01*
X25379057Y-50600500D01*
X25531784Y-50559577D01*
X25668716Y-50480520D01*
X25780520Y-50368716D01*
X25859577Y-50231784D01*
X25900500Y-50079057D01*
X25900500Y-49920943D01*
X25859577Y-49768216D01*
X25827801Y-49713177D01*
X25780524Y-49631290D01*
X25780518Y-49631282D01*
X25668717Y-49519481D01*
X25668709Y-49519475D01*
X25531790Y-49440426D01*
X25531786Y-49440424D01*
X25531784Y-49440423D01*
X25379057Y-49399500D01*
X25220943Y-49399500D01*
X25068216Y-49440423D01*
X25068209Y-49440426D01*
X24942702Y-49512887D01*
X24880703Y-49529500D01*
X22447047Y-49529500D01*
X22380008Y-49509815D01*
X22359366Y-49493181D01*
X22328077Y-49461892D01*
X22323054Y-49456983D01*
X22323043Y-49456975D01*
X22228985Y-49395685D01*
X22226468Y-49394643D01*
X22221913Y-49392756D01*
X22215359Y-49390130D01*
X22105000Y-49369500D01*
X20285000Y-49369500D01*
X20277940Y-49369582D01*
X20168081Y-49392757D01*
X20161040Y-49395674D01*
X20152376Y-49399500D01*
X20148112Y-49401383D01*
X20148111Y-49401384D01*
X20056978Y-49466952D01*
X20056978Y-49466953D01*
X19995684Y-49561017D01*
X19993821Y-49565515D01*
X19992756Y-49568087D01*
X19990130Y-49574641D01*
X19990129Y-49574643D01*
X19990129Y-49574645D01*
X19969500Y-49685001D01*
X9500500Y-49685001D01*
X9500500Y-33685001D01*
X19969500Y-33685001D01*
X19969500Y-34314970D01*
X19969582Y-34322059D01*
X19992757Y-34431918D01*
X19995674Y-34438959D01*
X19995684Y-34438982D01*
X19995685Y-34438984D01*
X20001383Y-34451888D01*
X20066953Y-34543022D01*
X20161016Y-34604315D01*
X20168087Y-34607244D01*
X20174641Y-34609870D01*
X20285000Y-34630500D01*
X20285002Y-34630500D01*
X22104970Y-34630500D01*
X22105000Y-34630500D01*
X22112060Y-34630418D01*
X22221913Y-34607244D01*
X22228984Y-34604315D01*
X22235469Y-34601541D01*
X22235474Y-34601537D01*
X22235477Y-34601536D01*
X22328084Y-34538098D01*
X22328087Y-34538095D01*
X22328092Y-34538092D01*
X22328097Y-34538087D01*
X22359366Y-34506819D01*
X22420689Y-34473334D01*
X22447047Y-34470500D01*
X24880703Y-34470500D01*
X24942702Y-34487113D01*
X25068209Y-34559573D01*
X25068216Y-34559577D01*
X25220943Y-34600500D01*
X25220945Y-34600500D01*
X25379055Y-34600500D01*
X25379057Y-34600500D01*
X25531784Y-34559577D01*
X25668716Y-34480520D01*
X25780520Y-34368716D01*
X25859577Y-34231784D01*
X25900500Y-34079057D01*
X25900500Y-33920943D01*
X25859577Y-33768216D01*
X25859573Y-33768209D01*
X25780524Y-33631290D01*
X25780518Y-33631282D01*
X25668717Y-33519481D01*
X25668709Y-33519475D01*
X25531790Y-33440426D01*
X25531786Y-33440424D01*
X25531784Y-33440423D01*
X25379057Y-33399500D01*
X25220943Y-33399500D01*
X25068216Y-33440423D01*
X25068209Y-33440426D01*
X24942702Y-33512887D01*
X24880703Y-33529500D01*
X22447047Y-33529500D01*
X22380008Y-33509815D01*
X22359366Y-33493181D01*
X22328077Y-33461892D01*
X22323054Y-33456983D01*
X22323043Y-33456975D01*
X22228985Y-33395685D01*
X22226468Y-33394643D01*
X22221913Y-33392756D01*
X22215359Y-33390130D01*
X22105000Y-33369500D01*
X20285000Y-33369500D01*
X20277940Y-33369582D01*
X20168081Y-33392757D01*
X20161040Y-33395674D01*
X20152376Y-33399500D01*
X20148112Y-33401383D01*
X20148111Y-33401384D01*
X20056978Y-33466952D01*
X20056978Y-33466953D01*
X19995684Y-33561017D01*
X19993821Y-33565515D01*
X19992756Y-33568087D01*
X19990130Y-33574641D01*
X19990129Y-33574643D01*
X19990129Y-33574645D01*
X19969500Y-33685001D01*
X9500500Y-33685001D01*
X9500500Y-25685001D01*
X19969500Y-25685001D01*
X19969500Y-26314970D01*
X19969582Y-26322059D01*
X19992757Y-26431918D01*
X19995674Y-26438959D01*
X19995684Y-26438982D01*
X19995685Y-26438984D01*
X20001383Y-26451888D01*
X20066953Y-26543022D01*
X20161016Y-26604315D01*
X20168087Y-26607244D01*
X20174641Y-26609870D01*
X20285000Y-26630500D01*
X20285002Y-26630500D01*
X22104970Y-26630500D01*
X22105000Y-26630500D01*
X22112060Y-26630418D01*
X22221913Y-26607244D01*
X22228984Y-26604315D01*
X22235469Y-26601541D01*
X22235474Y-26601537D01*
X22235477Y-26601536D01*
X22328084Y-26538098D01*
X22328087Y-26538095D01*
X22328092Y-26538092D01*
X22328097Y-26538087D01*
X22359366Y-26506819D01*
X22420689Y-26473334D01*
X22447047Y-26470500D01*
X24996811Y-26470500D01*
X25063850Y-26490185D01*
X25097183Y-26521689D01*
X38790706Y-45398457D01*
X50776392Y-61920943D01*
X50790872Y-61940903D01*
X50814303Y-62006726D01*
X50814500Y-62013714D01*
X50814500Y-62079056D01*
X50856360Y-62235280D01*
X50854697Y-62305129D01*
X50815534Y-62362992D01*
X50751306Y-62390496D01*
X50682404Y-62378909D01*
X50657554Y-62362924D01*
X25621498Y-41655330D01*
X25621497Y-41655329D01*
X25616987Y-41651599D01*
X25588894Y-41623506D01*
X25569448Y-41612278D01*
X25561426Y-41605643D01*
X25561424Y-41605641D01*
X25552147Y-41597968D01*
X25552142Y-41597965D01*
X25521331Y-41583862D01*
X25521331Y-41583861D01*
X25516002Y-41581421D01*
X25481606Y-41561564D01*
X25459923Y-41555753D01*
X25450460Y-41551422D01*
X25450458Y-41551422D01*
X25439499Y-41546406D01*
X25439493Y-41546405D01*
X25406100Y-41540760D01*
X25394677Y-41538270D01*
X25361947Y-41529500D01*
X25361943Y-41529500D01*
X25339486Y-41529500D01*
X25317344Y-41525757D01*
X25277786Y-41529500D01*
X22447047Y-41529500D01*
X22380008Y-41509815D01*
X22359366Y-41493181D01*
X22328077Y-41461892D01*
X22323054Y-41456983D01*
X22323043Y-41456975D01*
X22228985Y-41395685D01*
X22226468Y-41394643D01*
X22221913Y-41392756D01*
X22215359Y-41390130D01*
X22105000Y-41369500D01*
X20285000Y-41369500D01*
X20277940Y-41369582D01*
X20168081Y-41392757D01*
X20161040Y-41395674D01*
X20148114Y-41401382D01*
X20148112Y-41401383D01*
X20148111Y-41401384D01*
X20056978Y-41466952D01*
X20056978Y-41466953D01*
X19995684Y-41561017D01*
X19993821Y-41565515D01*
X19992756Y-41568087D01*
X19990130Y-41574641D01*
X19990129Y-41574643D01*
X19990129Y-41574645D01*
X19969500Y-41685001D01*
X19969500Y-42314970D01*
X19969582Y-42322059D01*
X19992757Y-42431918D01*
X19995674Y-42438959D01*
X19995684Y-42438982D01*
X19995685Y-42438984D01*
X20001383Y-42451888D01*
X20066953Y-42543022D01*
X20161016Y-42604315D01*
X20168087Y-42607244D01*
X20174641Y-42609870D01*
X20285000Y-42630500D01*
X20285002Y-42630500D01*
X22104970Y-42630500D01*
X22105000Y-42630500D01*
X22112060Y-42630418D01*
X22221913Y-42607244D01*
X22228984Y-42604315D01*
X22235469Y-42601541D01*
X22235474Y-42601537D01*
X22235477Y-42601536D01*
X22328084Y-42538098D01*
X22328087Y-42538095D01*
X22328092Y-42538092D01*
X22328097Y-42538087D01*
X22359366Y-42506819D01*
X22420689Y-42473334D01*
X22447047Y-42470500D01*
X25086000Y-42470500D01*
X25153039Y-42490185D01*
X25165027Y-42498946D01*
X50772367Y-63679055D01*
X50795995Y-63698598D01*
X50835108Y-63756494D01*
X50836739Y-63762054D01*
X50855424Y-63831786D01*
X50855426Y-63831790D01*
X50934475Y-63968709D01*
X50934479Y-63968714D01*
X50934480Y-63968716D01*
X51046284Y-64080520D01*
X51046286Y-64080521D01*
X51046290Y-64080524D01*
X51183209Y-64159573D01*
X51183216Y-64159577D01*
X51335943Y-64200500D01*
X51335945Y-64200500D01*
X51494055Y-64200500D01*
X51494057Y-64200500D01*
X51646784Y-64159577D01*
X51783716Y-64080520D01*
X51895520Y-63968716D01*
X51974577Y-63831784D01*
X52015500Y-63679057D01*
X52015500Y-63520943D01*
X51974577Y-63368216D01*
X51974573Y-63368209D01*
X51895524Y-63231290D01*
X51895518Y-63231282D01*
X51783717Y-63119481D01*
X51783709Y-63119475D01*
X51646790Y-63040426D01*
X51646786Y-63040424D01*
X51646784Y-63040423D01*
X51494057Y-62999500D01*
X51494056Y-62999500D01*
X51471827Y-62999500D01*
X51404788Y-62979815D01*
X51392806Y-62971059D01*
X51195685Y-62808018D01*
X51156574Y-62750123D01*
X51154971Y-62680272D01*
X51191387Y-62620642D01*
X51254260Y-62590167D01*
X51306809Y-62592693D01*
X51335943Y-62600500D01*
X51335945Y-62600500D01*
X51494055Y-62600500D01*
X51494057Y-62600500D01*
X51646784Y-62559577D01*
X51783716Y-62480520D01*
X51895520Y-62368716D01*
X51974577Y-62231784D01*
X52015500Y-62079057D01*
X52015500Y-61920943D01*
X67199500Y-61920943D01*
X67199500Y-62079056D01*
X67240423Y-62231783D01*
X67240426Y-62231790D01*
X67319475Y-62368709D01*
X67319479Y-62368714D01*
X67319480Y-62368716D01*
X67431284Y-62480520D01*
X67431286Y-62480521D01*
X67431290Y-62480524D01*
X67539545Y-62543024D01*
X67568216Y-62559577D01*
X67720943Y-62600500D01*
X67720945Y-62600500D01*
X67879055Y-62600500D01*
X67879057Y-62600500D01*
X68031784Y-62559577D01*
X68079454Y-62532054D01*
X68157298Y-62487113D01*
X68219297Y-62470500D01*
X70652953Y-62470500D01*
X70719992Y-62490185D01*
X70740634Y-62506819D01*
X70771922Y-62538107D01*
X70776945Y-62543016D01*
X70776956Y-62543024D01*
X70865159Y-62600499D01*
X70871016Y-62604315D01*
X70878087Y-62607244D01*
X70884641Y-62609870D01*
X70995000Y-62630500D01*
X70995002Y-62630500D01*
X72814970Y-62630500D01*
X72815000Y-62630500D01*
X72822060Y-62630418D01*
X72931913Y-62607244D01*
X72938984Y-62604315D01*
X72951888Y-62598617D01*
X73043022Y-62533047D01*
X73104315Y-62438984D01*
X73107244Y-62431913D01*
X73109870Y-62425359D01*
X73130500Y-62315000D01*
X73130500Y-61685000D01*
X73130418Y-61677940D01*
X73107244Y-61568087D01*
X73104315Y-61561016D01*
X73098617Y-61548112D01*
X73033047Y-61456978D01*
X72938984Y-61395685D01*
X72931913Y-61392756D01*
X72925359Y-61390130D01*
X72815000Y-61369500D01*
X70995000Y-61369500D01*
X70987940Y-61369582D01*
X70878087Y-61392756D01*
X70878086Y-61392756D01*
X70878083Y-61392757D01*
X70870968Y-61395704D01*
X70864534Y-61398457D01*
X70864522Y-61398463D01*
X70771915Y-61461901D01*
X70771902Y-61461912D01*
X70740634Y-61493181D01*
X70679311Y-61526666D01*
X70652953Y-61529500D01*
X68219297Y-61529500D01*
X68157298Y-61512887D01*
X68031790Y-61440426D01*
X68031786Y-61440424D01*
X68031784Y-61440423D01*
X67879057Y-61399500D01*
X67720943Y-61399500D01*
X67568216Y-61440423D01*
X67568209Y-61440426D01*
X67431290Y-61519475D01*
X67431282Y-61519481D01*
X67319481Y-61631282D01*
X67319475Y-61631290D01*
X67240426Y-61768209D01*
X67240423Y-61768216D01*
X67199500Y-61920943D01*
X52015500Y-61920943D01*
X51974577Y-61768216D01*
X51974573Y-61768209D01*
X51895524Y-61631290D01*
X51895518Y-61631282D01*
X51783717Y-61519481D01*
X51783709Y-61519475D01*
X51646790Y-61440426D01*
X51646786Y-61440424D01*
X51646784Y-61440423D01*
X51646782Y-61440422D01*
X51646781Y-61440422D01*
X51619173Y-61433024D01*
X51559513Y-61396658D01*
X51550897Y-61386061D01*
X51538883Y-61369500D01*
X46135576Y-53920943D01*
X67199500Y-53920943D01*
X67199500Y-54079056D01*
X67240423Y-54231783D01*
X67240426Y-54231790D01*
X67319475Y-54368709D01*
X67319479Y-54368714D01*
X67319480Y-54368716D01*
X67431284Y-54480520D01*
X67431286Y-54480521D01*
X67431290Y-54480524D01*
X67539545Y-54543024D01*
X67568216Y-54559577D01*
X67720943Y-54600500D01*
X67720945Y-54600500D01*
X67879055Y-54600500D01*
X67879057Y-54600500D01*
X68031784Y-54559577D01*
X68079454Y-54532054D01*
X68157298Y-54487113D01*
X68219297Y-54470500D01*
X70652953Y-54470500D01*
X70719992Y-54490185D01*
X70740634Y-54506819D01*
X70771922Y-54538107D01*
X70776945Y-54543016D01*
X70776956Y-54543024D01*
X70865159Y-54600499D01*
X70871016Y-54604315D01*
X70878087Y-54607244D01*
X70884641Y-54609870D01*
X70995000Y-54630500D01*
X70995002Y-54630500D01*
X72814970Y-54630500D01*
X72815000Y-54630500D01*
X72822060Y-54630418D01*
X72931913Y-54607244D01*
X72938984Y-54604315D01*
X72951888Y-54598617D01*
X73043022Y-54533047D01*
X73104315Y-54438984D01*
X73107244Y-54431913D01*
X73109870Y-54425359D01*
X73130500Y-54315000D01*
X73130500Y-53685000D01*
X73130418Y-53677940D01*
X73107244Y-53568087D01*
X73104315Y-53561016D01*
X73098617Y-53548112D01*
X73033047Y-53456978D01*
X72938984Y-53395685D01*
X72931913Y-53392756D01*
X72925359Y-53390130D01*
X72815000Y-53369500D01*
X70995000Y-53369500D01*
X70987940Y-53369582D01*
X70878087Y-53392756D01*
X70878086Y-53392756D01*
X70878083Y-53392757D01*
X70870968Y-53395704D01*
X70864534Y-53398457D01*
X70864522Y-53398463D01*
X70771915Y-53461901D01*
X70771902Y-53461912D01*
X70740634Y-53493181D01*
X70679311Y-53526666D01*
X70652953Y-53529500D01*
X68219297Y-53529500D01*
X68157298Y-53512887D01*
X68031790Y-53440426D01*
X68031786Y-53440424D01*
X68031784Y-53440423D01*
X67879057Y-53399500D01*
X67720943Y-53399500D01*
X67568216Y-53440423D01*
X67568209Y-53440426D01*
X67431290Y-53519475D01*
X67431282Y-53519481D01*
X67319481Y-53631282D01*
X67319475Y-53631290D01*
X67240426Y-53768209D01*
X67240423Y-53768216D01*
X67199500Y-53920943D01*
X46135576Y-53920943D01*
X43729639Y-50604315D01*
X43238170Y-49926816D01*
X43189767Y-49860092D01*
X48459500Y-49860092D01*
X48459500Y-50009907D01*
X48488723Y-50156822D01*
X48488725Y-50156830D01*
X48546051Y-50295229D01*
X48546056Y-50295238D01*
X48629280Y-50419790D01*
X48629283Y-50419794D01*
X48735205Y-50525716D01*
X48735209Y-50525719D01*
X48859761Y-50608943D01*
X48859767Y-50608946D01*
X48859768Y-50608947D01*
X48998170Y-50666275D01*
X49145092Y-50695499D01*
X49145096Y-50695500D01*
X49145097Y-50695500D01*
X49294904Y-50695500D01*
X49294905Y-50695499D01*
X49441830Y-50666275D01*
X49580232Y-50608947D01*
X49704791Y-50525719D01*
X49810719Y-50419791D01*
X49893947Y-50295232D01*
X49951275Y-50156830D01*
X49980500Y-50009903D01*
X49980500Y-49860097D01*
X49951275Y-49713170D01*
X49893947Y-49574768D01*
X49893946Y-49574767D01*
X49893943Y-49574761D01*
X49810719Y-49450209D01*
X49810716Y-49450205D01*
X49704794Y-49344283D01*
X49704790Y-49344280D01*
X49580238Y-49261056D01*
X49580229Y-49261051D01*
X49441830Y-49203725D01*
X49441822Y-49203723D01*
X49294907Y-49174500D01*
X49294903Y-49174500D01*
X49145097Y-49174500D01*
X49145092Y-49174500D01*
X48998177Y-49203723D01*
X48998169Y-49203725D01*
X48859770Y-49261051D01*
X48859761Y-49261056D01*
X48735209Y-49344280D01*
X48735205Y-49344283D01*
X48629283Y-49450205D01*
X48629280Y-49450209D01*
X48546056Y-49574761D01*
X48546051Y-49574770D01*
X48488725Y-49713169D01*
X48488723Y-49713177D01*
X48459500Y-49860092D01*
X43189767Y-49860092D01*
X40379166Y-45985627D01*
X40332243Y-45920943D01*
X67199500Y-45920943D01*
X67199500Y-46079056D01*
X67240423Y-46231783D01*
X67240426Y-46231790D01*
X67319475Y-46368709D01*
X67319479Y-46368714D01*
X67319480Y-46368716D01*
X67431284Y-46480520D01*
X67431286Y-46480521D01*
X67431290Y-46480524D01*
X67539545Y-46543024D01*
X67568216Y-46559577D01*
X67720943Y-46600500D01*
X67720945Y-46600500D01*
X67879055Y-46600500D01*
X67879057Y-46600500D01*
X68031784Y-46559577D01*
X68079454Y-46532054D01*
X68157298Y-46487113D01*
X68219297Y-46470500D01*
X70652953Y-46470500D01*
X70719992Y-46490185D01*
X70740634Y-46506819D01*
X70771922Y-46538107D01*
X70776945Y-46543016D01*
X70776956Y-46543024D01*
X70865159Y-46600499D01*
X70871016Y-46604315D01*
X70878087Y-46607244D01*
X70884641Y-46609870D01*
X70995000Y-46630500D01*
X70995002Y-46630500D01*
X72814970Y-46630500D01*
X72815000Y-46630500D01*
X72822060Y-46630418D01*
X72931913Y-46607244D01*
X72938984Y-46604315D01*
X72951888Y-46598617D01*
X73043022Y-46533047D01*
X73104315Y-46438984D01*
X73107244Y-46431913D01*
X73109870Y-46425359D01*
X73130500Y-46315000D01*
X73130500Y-45685000D01*
X73130418Y-45677940D01*
X73107244Y-45568087D01*
X73104315Y-45561016D01*
X73098617Y-45548112D01*
X73033047Y-45456978D01*
X72938984Y-45395685D01*
X72931913Y-45392756D01*
X72925359Y-45390130D01*
X72815000Y-45369500D01*
X70995000Y-45369500D01*
X70987940Y-45369582D01*
X70878087Y-45392756D01*
X70878086Y-45392756D01*
X70878083Y-45392757D01*
X70870968Y-45395704D01*
X70864534Y-45398457D01*
X70864522Y-45398463D01*
X70771915Y-45461901D01*
X70771902Y-45461912D01*
X70740634Y-45493181D01*
X70679311Y-45526666D01*
X70652953Y-45529500D01*
X68219297Y-45529500D01*
X68157298Y-45512887D01*
X68031790Y-45440426D01*
X68031786Y-45440424D01*
X68031784Y-45440423D01*
X67879057Y-45399500D01*
X67720943Y-45399500D01*
X67568216Y-45440423D01*
X67568209Y-45440426D01*
X67431290Y-45519475D01*
X67431282Y-45519481D01*
X67319481Y-45631282D01*
X67319475Y-45631290D01*
X67240426Y-45768209D01*
X67240423Y-45768216D01*
X67199500Y-45920943D01*
X40332243Y-45920943D01*
X35043574Y-38630418D01*
X34528909Y-37920943D01*
X67199500Y-37920943D01*
X67199500Y-38079056D01*
X67240423Y-38231783D01*
X67240426Y-38231790D01*
X67319475Y-38368709D01*
X67319479Y-38368714D01*
X67319480Y-38368716D01*
X67431284Y-38480520D01*
X67431286Y-38480521D01*
X67431290Y-38480524D01*
X67539545Y-38543024D01*
X67568216Y-38559577D01*
X67720943Y-38600500D01*
X67720945Y-38600500D01*
X67879055Y-38600500D01*
X67879057Y-38600500D01*
X68031784Y-38559577D01*
X68079454Y-38532054D01*
X68157298Y-38487113D01*
X68219297Y-38470500D01*
X70652953Y-38470500D01*
X70719992Y-38490185D01*
X70740634Y-38506819D01*
X70771922Y-38538107D01*
X70776945Y-38543016D01*
X70776956Y-38543024D01*
X70865159Y-38600499D01*
X70871016Y-38604315D01*
X70878087Y-38607244D01*
X70884641Y-38609870D01*
X70995000Y-38630500D01*
X70995002Y-38630500D01*
X72814970Y-38630500D01*
X72815000Y-38630500D01*
X72822060Y-38630418D01*
X72931913Y-38607244D01*
X72938984Y-38604315D01*
X72951888Y-38598617D01*
X73043022Y-38533047D01*
X73104315Y-38438984D01*
X73107244Y-38431913D01*
X73109870Y-38425359D01*
X73130500Y-38315000D01*
X73130500Y-37685000D01*
X73130418Y-37677940D01*
X73107244Y-37568087D01*
X73104315Y-37561016D01*
X73098617Y-37548112D01*
X73033047Y-37456978D01*
X72938984Y-37395685D01*
X72931913Y-37392756D01*
X72925359Y-37390130D01*
X72815000Y-37369500D01*
X70995000Y-37369500D01*
X70987940Y-37369582D01*
X70878087Y-37392756D01*
X70878086Y-37392756D01*
X70878083Y-37392757D01*
X70870968Y-37395704D01*
X70864534Y-37398457D01*
X70864522Y-37398463D01*
X70771915Y-37461901D01*
X70771902Y-37461912D01*
X70740634Y-37493181D01*
X70679311Y-37526666D01*
X70652953Y-37529500D01*
X68219297Y-37529500D01*
X68157298Y-37512887D01*
X68031790Y-37440426D01*
X68031786Y-37440424D01*
X68031784Y-37440423D01*
X67879057Y-37399500D01*
X67720943Y-37399500D01*
X67568216Y-37440423D01*
X67568209Y-37440426D01*
X67431290Y-37519475D01*
X67431282Y-37519481D01*
X67319481Y-37631282D01*
X67319475Y-37631290D01*
X67240426Y-37768209D01*
X67240423Y-37768216D01*
X67199500Y-37920943D01*
X34528909Y-37920943D01*
X30891750Y-32907053D01*
X28772499Y-29985627D01*
X28725576Y-29920943D01*
X67199500Y-29920943D01*
X67199500Y-30079056D01*
X67240423Y-30231783D01*
X67240426Y-30231790D01*
X67319475Y-30368709D01*
X67319479Y-30368714D01*
X67319480Y-30368716D01*
X67431284Y-30480520D01*
X67431286Y-30480521D01*
X67431290Y-30480524D01*
X67539545Y-30543024D01*
X67568216Y-30559577D01*
X67720943Y-30600500D01*
X67720945Y-30600500D01*
X67879055Y-30600500D01*
X67879057Y-30600500D01*
X68031784Y-30559577D01*
X68079454Y-30532054D01*
X68157298Y-30487113D01*
X68219297Y-30470500D01*
X70652953Y-30470500D01*
X70719992Y-30490185D01*
X70740634Y-30506819D01*
X70771922Y-30538107D01*
X70776945Y-30543016D01*
X70776956Y-30543024D01*
X70865159Y-30600499D01*
X70871016Y-30604315D01*
X70878087Y-30607244D01*
X70884641Y-30609870D01*
X70995000Y-30630500D01*
X70995002Y-30630500D01*
X72814970Y-30630500D01*
X72815000Y-30630500D01*
X72822060Y-30630418D01*
X72931913Y-30607244D01*
X72938984Y-30604315D01*
X72951888Y-30598617D01*
X73043022Y-30533047D01*
X73104315Y-30438984D01*
X73107244Y-30431913D01*
X73109870Y-30425359D01*
X73130500Y-30315000D01*
X73130500Y-29685000D01*
X73130418Y-29677940D01*
X73107244Y-29568087D01*
X73104315Y-29561016D01*
X73098617Y-29548112D01*
X73033047Y-29456978D01*
X72938984Y-29395685D01*
X72931913Y-29392756D01*
X72925359Y-29390130D01*
X72815000Y-29369500D01*
X70995000Y-29369500D01*
X70987940Y-29369582D01*
X70878087Y-29392756D01*
X70878086Y-29392756D01*
X70878083Y-29392757D01*
X70870968Y-29395704D01*
X70864534Y-29398457D01*
X70864522Y-29398463D01*
X70771915Y-29461901D01*
X70771902Y-29461912D01*
X70740634Y-29493181D01*
X70679311Y-29526666D01*
X70652953Y-29529500D01*
X68219297Y-29529500D01*
X68157298Y-29512887D01*
X68031790Y-29440426D01*
X68031786Y-29440424D01*
X68031784Y-29440423D01*
X67879057Y-29399500D01*
X67720943Y-29399500D01*
X67568216Y-29440423D01*
X67568209Y-29440426D01*
X67431290Y-29519475D01*
X67431282Y-29519481D01*
X67319481Y-29631282D01*
X67319475Y-29631290D01*
X67240426Y-29768209D01*
X67240423Y-29768216D01*
X67199500Y-29920943D01*
X28725576Y-29920943D01*
X26338574Y-26630418D01*
X25695224Y-25743548D01*
X25676494Y-25711106D01*
X25658999Y-25693611D01*
X25653241Y-25685673D01*
X25644477Y-25673591D01*
X25644474Y-25673589D01*
X25644474Y-25673588D01*
X25620382Y-25654049D01*
X25610828Y-25645440D01*
X25588894Y-25623506D01*
X25588893Y-25623505D01*
X25575955Y-25616035D01*
X25575955Y-25616034D01*
X25567464Y-25611132D01*
X25548255Y-25595554D01*
X25514050Y-25580294D01*
X25508462Y-25577068D01*
X25508456Y-25577065D01*
X25481607Y-25561564D01*
X25474482Y-25559655D01*
X25467178Y-25557697D01*
X25448757Y-25551166D01*
X25435123Y-25545083D01*
X25435116Y-25545081D01*
X25404493Y-25540206D01*
X25404493Y-25540207D01*
X25398120Y-25539193D01*
X25361943Y-25529500D01*
X25337203Y-25529500D01*
X25312772Y-25525612D01*
X25312771Y-25525612D01*
X25312770Y-25525612D01*
X25292407Y-25527737D01*
X25281935Y-25528830D01*
X25269066Y-25529500D01*
X22447047Y-25529500D01*
X22380008Y-25509815D01*
X22359366Y-25493181D01*
X22328077Y-25461892D01*
X22323054Y-25456983D01*
X22323043Y-25456975D01*
X22228985Y-25395685D01*
X22226468Y-25394643D01*
X22221913Y-25392756D01*
X22215359Y-25390130D01*
X22105000Y-25369500D01*
X20285000Y-25369500D01*
X20277940Y-25369582D01*
X20168081Y-25392757D01*
X20161040Y-25395674D01*
X20148114Y-25401382D01*
X20148112Y-25401383D01*
X20148111Y-25401384D01*
X20056978Y-25466952D01*
X20056978Y-25466953D01*
X19995684Y-25561017D01*
X19993821Y-25565515D01*
X19992756Y-25568087D01*
X19990130Y-25574641D01*
X19990129Y-25574643D01*
X19990129Y-25574645D01*
X19969500Y-25685001D01*
X9500500Y-25685001D01*
X9500500Y-21920943D01*
X67199500Y-21920943D01*
X67199500Y-22079056D01*
X67240423Y-22231783D01*
X67240426Y-22231790D01*
X67319475Y-22368709D01*
X67319479Y-22368714D01*
X67319480Y-22368716D01*
X67431284Y-22480520D01*
X67431286Y-22480521D01*
X67431290Y-22480524D01*
X67539545Y-22543024D01*
X67568216Y-22559577D01*
X67720943Y-22600500D01*
X67720945Y-22600500D01*
X67879055Y-22600500D01*
X67879057Y-22600500D01*
X68031784Y-22559577D01*
X68079454Y-22532054D01*
X68157298Y-22487113D01*
X68219297Y-22470500D01*
X70652953Y-22470500D01*
X70719992Y-22490185D01*
X70740634Y-22506819D01*
X70771922Y-22538107D01*
X70776945Y-22543016D01*
X70776956Y-22543024D01*
X70865159Y-22600499D01*
X70871016Y-22604315D01*
X70878087Y-22607244D01*
X70884641Y-22609870D01*
X70995000Y-22630500D01*
X70995002Y-22630500D01*
X72814970Y-22630500D01*
X72815000Y-22630500D01*
X72822060Y-22630418D01*
X72931913Y-22607244D01*
X72938984Y-22604315D01*
X72951888Y-22598617D01*
X73043022Y-22533047D01*
X73104315Y-22438984D01*
X73107244Y-22431913D01*
X73109870Y-22425359D01*
X73130500Y-22315000D01*
X73130500Y-21685000D01*
X73130418Y-21677940D01*
X73107244Y-21568087D01*
X73104315Y-21561016D01*
X73098617Y-21548112D01*
X73033047Y-21456978D01*
X72938984Y-21395685D01*
X72931913Y-21392756D01*
X72925359Y-21390130D01*
X72815000Y-21369500D01*
X70995000Y-21369500D01*
X70987940Y-21369582D01*
X70878087Y-21392756D01*
X70878086Y-21392756D01*
X70878083Y-21392757D01*
X70870968Y-21395704D01*
X70864534Y-21398457D01*
X70864522Y-21398463D01*
X70771915Y-21461901D01*
X70771902Y-21461912D01*
X70740634Y-21493181D01*
X70679311Y-21526666D01*
X70652953Y-21529500D01*
X68219297Y-21529500D01*
X68157298Y-21512887D01*
X68031790Y-21440426D01*
X68031786Y-21440424D01*
X68031784Y-21440423D01*
X67879057Y-21399500D01*
X67720943Y-21399500D01*
X67568216Y-21440423D01*
X67568209Y-21440426D01*
X67431290Y-21519475D01*
X67431282Y-21519481D01*
X67319481Y-21631282D01*
X67319475Y-21631290D01*
X67240426Y-21768209D01*
X67240423Y-21768216D01*
X67199500Y-21920943D01*
X9500500Y-21920943D01*
X9500500Y-14878711D01*
X19449500Y-14878711D01*
X19449500Y-15121288D01*
X19481161Y-15361785D01*
X19543947Y-15596104D01*
X19636773Y-15820205D01*
X19636776Y-15820212D01*
X19758064Y-16030289D01*
X19758066Y-16030292D01*
X19758067Y-16030293D01*
X19905733Y-16222736D01*
X19905739Y-16222743D01*
X20077256Y-16394260D01*
X20077262Y-16394265D01*
X20269711Y-16541936D01*
X20479788Y-16663224D01*
X20703900Y-16756054D01*
X20938211Y-16818838D01*
X21118586Y-16842584D01*
X21178711Y-16850500D01*
X21178712Y-16850500D01*
X21421289Y-16850500D01*
X21469388Y-16844167D01*
X21661789Y-16818838D01*
X21896100Y-16756054D01*
X22120212Y-16663224D01*
X22330289Y-16541936D01*
X22522738Y-16394265D01*
X22694265Y-16222738D01*
X22841936Y-16030289D01*
X22963224Y-15820212D01*
X23056054Y-15596100D01*
X23118838Y-15361789D01*
X23150500Y-15121288D01*
X23150500Y-14878712D01*
X23150500Y-14878711D01*
X69949500Y-14878711D01*
X69949500Y-15121288D01*
X69981161Y-15361785D01*
X70043947Y-15596104D01*
X70136773Y-15820205D01*
X70136776Y-15820212D01*
X70258064Y-16030289D01*
X70258066Y-16030292D01*
X70258067Y-16030293D01*
X70405733Y-16222736D01*
X70405739Y-16222743D01*
X70577256Y-16394260D01*
X70577262Y-16394265D01*
X70769711Y-16541936D01*
X70979788Y-16663224D01*
X71203900Y-16756054D01*
X71438211Y-16818838D01*
X71618586Y-16842584D01*
X71678711Y-16850500D01*
X71678712Y-16850500D01*
X71921289Y-16850500D01*
X71969388Y-16844167D01*
X72161789Y-16818838D01*
X72396100Y-16756054D01*
X72620212Y-16663224D01*
X72830289Y-16541936D01*
X73022738Y-16394265D01*
X73194265Y-16222738D01*
X73341936Y-16030289D01*
X73463224Y-15820212D01*
X73556054Y-15596100D01*
X73618838Y-15361789D01*
X73650500Y-15121288D01*
X73650500Y-14878712D01*
X73618838Y-14638211D01*
X73556054Y-14403900D01*
X73463224Y-14179788D01*
X73341936Y-13969711D01*
X73194265Y-13777262D01*
X73194260Y-13777256D01*
X73022743Y-13605739D01*
X73022736Y-13605733D01*
X72830293Y-13458067D01*
X72830292Y-13458066D01*
X72830289Y-13458064D01*
X72620212Y-13336776D01*
X72620205Y-13336773D01*
X72396104Y-13243947D01*
X72161785Y-13181161D01*
X71921289Y-13149500D01*
X71921288Y-13149500D01*
X71678712Y-13149500D01*
X71678711Y-13149500D01*
X71438214Y-13181161D01*
X71203895Y-13243947D01*
X70979794Y-13336773D01*
X70979785Y-13336777D01*
X70769706Y-13458067D01*
X70577263Y-13605733D01*
X70577256Y-13605739D01*
X70405739Y-13777256D01*
X70405733Y-13777263D01*
X70258067Y-13969706D01*
X70136777Y-14179785D01*
X70136773Y-14179794D01*
X70043947Y-14403895D01*
X69981161Y-14638214D01*
X69949500Y-14878711D01*
X23150500Y-14878711D01*
X23118838Y-14638211D01*
X23056054Y-14403900D01*
X22963224Y-14179788D01*
X22841936Y-13969711D01*
X22694265Y-13777262D01*
X22694260Y-13777256D01*
X22522743Y-13605739D01*
X22522736Y-13605733D01*
X22330293Y-13458067D01*
X22330292Y-13458066D01*
X22330289Y-13458064D01*
X22120212Y-13336776D01*
X22120205Y-13336773D01*
X21896104Y-13243947D01*
X21661785Y-13181161D01*
X21421289Y-13149500D01*
X21421288Y-13149500D01*
X21178712Y-13149500D01*
X21178711Y-13149500D01*
X20938214Y-13181161D01*
X20703895Y-13243947D01*
X20479794Y-13336773D01*
X20479785Y-13336777D01*
X20269706Y-13458067D01*
X20077263Y-13605733D01*
X20077256Y-13605739D01*
X19905739Y-13777256D01*
X19905733Y-13777263D01*
X19758067Y-13969706D01*
X19636777Y-14179785D01*
X19636773Y-14179794D01*
X19543947Y-14403895D01*
X19481161Y-14638214D01*
X19449500Y-14878711D01*
X9500500Y-14878711D01*
X9500500Y-10624500D01*
X9520185Y-10557461D01*
X9572989Y-10511706D01*
X9624500Y-10500500D01*
X83475500Y-10500500D01*
X83542539Y-10520185D01*
G37*
%TD.AperFunction*%
%TD*%
M02*
