%TF.GenerationSoftware,KiCad,Pcbnew,10.0.3*%
%TF.CreationDate,2026-06-24T00:16:39-04:00*%
%TF.ProjectId,board-D-smp,626f6172-642d-4442-9d73-6d702e6b6963,rev?*%
%TF.SameCoordinates,Original*%
%TF.FileFunction,Paste,Bot*%
%TF.FilePolarity,Positive*%
%FSLAX46Y46*%
G04 Gerber Fmt 4.6, Leading zero omitted, Abs format (unit mm)*
G04 Created by KiCad (PCBNEW 10.0.3) date 2026-06-24 00:16:39*
%MOMM*%
%LPD*%
G01*
G04 APERTURE LIST*
%ADD10R,2.270000X0.410000*%
%ADD11R,0.430000X2.540000*%
%ADD12R,0.430000X4.700000*%
G04 APERTURE END LIST*
D10*
%TO.C,J5*%
X43685000Y-87600000D03*
X49415000Y-87600000D03*
X43685000Y-86800000D03*
X49415000Y-86800000D03*
X43685000Y-86000000D03*
X49415000Y-86000000D03*
X43685000Y-85200000D03*
X49415000Y-85200000D03*
X43685000Y-84400000D03*
X49415000Y-84400000D03*
X43685000Y-83600000D03*
X49415000Y-83600000D03*
X43685000Y-82800000D03*
X49415000Y-82800000D03*
X43685000Y-82000000D03*
X49415000Y-82000000D03*
X43685000Y-81200000D03*
X49415000Y-81200000D03*
X43685000Y-80400000D03*
X49415000Y-80400000D03*
X43685000Y-79600000D03*
X49415000Y-79600000D03*
X43685000Y-78800000D03*
X49415000Y-78800000D03*
X43685000Y-78000000D03*
X49415000Y-78000000D03*
X43685000Y-77200000D03*
X49415000Y-77200000D03*
X43685000Y-76400000D03*
X49415000Y-76400000D03*
X43685000Y-75600000D03*
X49415000Y-75600000D03*
X43685000Y-74800000D03*
X49415000Y-74800000D03*
X43685000Y-74000000D03*
X49415000Y-74000000D03*
X43685000Y-73200000D03*
X49415000Y-73200000D03*
X43685000Y-72400000D03*
X49415000Y-72400000D03*
X43685000Y-67600000D03*
X49415000Y-67600000D03*
X43685000Y-66800000D03*
X49415000Y-66800000D03*
X43685000Y-66000000D03*
X49415000Y-66000000D03*
X43685000Y-65200000D03*
X49415000Y-65200000D03*
X43685000Y-64400000D03*
X49415000Y-64400000D03*
X43685000Y-63600000D03*
X49415000Y-63600000D03*
X43685000Y-62800000D03*
X49415000Y-62800000D03*
X43685000Y-62000000D03*
X49415000Y-62000000D03*
X43685000Y-61200000D03*
X49415000Y-61200000D03*
X43685000Y-60400000D03*
X49415000Y-60400000D03*
X43685000Y-59600000D03*
X49415000Y-59600000D03*
X43685000Y-58800000D03*
X49415000Y-58800000D03*
X43685000Y-58000000D03*
X49415000Y-58000000D03*
X43685000Y-57200000D03*
X49415000Y-57200000D03*
X43685000Y-56400000D03*
X49415000Y-56400000D03*
X43685000Y-55600000D03*
X49415000Y-55600000D03*
X43685000Y-54800000D03*
X49415000Y-54800000D03*
X43685000Y-54000000D03*
X49415000Y-54000000D03*
X43685000Y-53200000D03*
X49415000Y-53200000D03*
X43685000Y-52400000D03*
X49415000Y-52400000D03*
D11*
X46550000Y-88065000D03*
D12*
X46550000Y-83175000D03*
X46550000Y-76825000D03*
D11*
X46550000Y-71935000D03*
X46550000Y-68065000D03*
D12*
X46550000Y-63175000D03*
X46550000Y-56825000D03*
D11*
X46550000Y-51935000D03*
%TD*%
M02*
