%TF.GenerationSoftware,KiCad,Pcbnew,10.0.3*%
%TF.CreationDate,2026-06-22T23:05:32-04:00*%
%TF.ProjectId,board-D-smp,626f6172-642d-4442-9d73-6d702e6b6963,rev?*%
%TF.SameCoordinates,Original*%
%TF.FileFunction,AssemblyDrawing,Bot*%
%FSLAX46Y46*%
G04 Gerber Fmt 4.6, Leading zero omitted, Abs format (unit mm)*
G04 Created by KiCad (PCBNEW 10.0.3) date 2026-06-22 23:05:32*
%MOMM*%
%LPD*%
G01*
G04 APERTURE LIST*
%ADD10C,0.150000*%
%ADD11C,0.100000*%
%ADD12C,0.200000*%
G04 APERTURE END LIST*
D10*
X40542200Y-60936667D02*
X40589819Y-61079524D01*
X40589819Y-61079524D02*
X40589819Y-61317619D01*
X40589819Y-61317619D02*
X40542200Y-61412857D01*
X40542200Y-61412857D02*
X40494580Y-61460476D01*
X40494580Y-61460476D02*
X40399342Y-61508095D01*
X40399342Y-61508095D02*
X40304104Y-61508095D01*
X40304104Y-61508095D02*
X40208866Y-61460476D01*
X40208866Y-61460476D02*
X40161247Y-61412857D01*
X40161247Y-61412857D02*
X40113628Y-61317619D01*
X40113628Y-61317619D02*
X40066009Y-61127143D01*
X40066009Y-61127143D02*
X40018390Y-61031905D01*
X40018390Y-61031905D02*
X39970771Y-60984286D01*
X39970771Y-60984286D02*
X39875533Y-60936667D01*
X39875533Y-60936667D02*
X39780295Y-60936667D01*
X39780295Y-60936667D02*
X39685057Y-60984286D01*
X39685057Y-60984286D02*
X39637438Y-61031905D01*
X39637438Y-61031905D02*
X39589819Y-61127143D01*
X39589819Y-61127143D02*
X39589819Y-61365238D01*
X39589819Y-61365238D02*
X39637438Y-61508095D01*
X40304104Y-61889048D02*
X40304104Y-62365238D01*
X40589819Y-61793810D02*
X39589819Y-62127143D01*
X39589819Y-62127143D02*
X40589819Y-62460476D01*
X40589819Y-62793810D02*
X39589819Y-62793810D01*
X39589819Y-62793810D02*
X40304104Y-63127143D01*
X40304104Y-63127143D02*
X39589819Y-63460476D01*
X39589819Y-63460476D02*
X40589819Y-63460476D01*
X39589819Y-63793810D02*
X39589819Y-64365238D01*
X40589819Y-64079524D02*
X39589819Y-64079524D01*
X40066009Y-64698572D02*
X40066009Y-65031905D01*
X40589819Y-65174762D02*
X40589819Y-64698572D01*
X40589819Y-64698572D02*
X39589819Y-64698572D01*
X39589819Y-64698572D02*
X39589819Y-65174762D01*
X40494580Y-66174762D02*
X40542200Y-66127143D01*
X40542200Y-66127143D02*
X40589819Y-65984286D01*
X40589819Y-65984286D02*
X40589819Y-65889048D01*
X40589819Y-65889048D02*
X40542200Y-65746191D01*
X40542200Y-65746191D02*
X40446961Y-65650953D01*
X40446961Y-65650953D02*
X40351723Y-65603334D01*
X40351723Y-65603334D02*
X40161247Y-65555715D01*
X40161247Y-65555715D02*
X40018390Y-65555715D01*
X40018390Y-65555715D02*
X39827914Y-65603334D01*
X39827914Y-65603334D02*
X39732676Y-65650953D01*
X39732676Y-65650953D02*
X39637438Y-65746191D01*
X39637438Y-65746191D02*
X39589819Y-65889048D01*
X39589819Y-65889048D02*
X39589819Y-65984286D01*
X39589819Y-65984286D02*
X39637438Y-66127143D01*
X39637438Y-66127143D02*
X39685057Y-66174762D01*
X40685057Y-66365239D02*
X40685057Y-67127143D01*
X40685057Y-68031905D02*
X40637438Y-67936667D01*
X40637438Y-67936667D02*
X40542200Y-67841429D01*
X40542200Y-67841429D02*
X40399342Y-67698572D01*
X40399342Y-67698572D02*
X40351723Y-67603334D01*
X40351723Y-67603334D02*
X40351723Y-67508096D01*
X40589819Y-67555715D02*
X40542200Y-67460477D01*
X40542200Y-67460477D02*
X40446961Y-67365239D01*
X40446961Y-67365239D02*
X40256485Y-67317620D01*
X40256485Y-67317620D02*
X39923152Y-67317620D01*
X39923152Y-67317620D02*
X39732676Y-67365239D01*
X39732676Y-67365239D02*
X39637438Y-67460477D01*
X39637438Y-67460477D02*
X39589819Y-67555715D01*
X39589819Y-67555715D02*
X39589819Y-67746191D01*
X39589819Y-67746191D02*
X39637438Y-67841429D01*
X39637438Y-67841429D02*
X39732676Y-67936667D01*
X39732676Y-67936667D02*
X39923152Y-67984286D01*
X39923152Y-67984286D02*
X40256485Y-67984286D01*
X40256485Y-67984286D02*
X40446961Y-67936667D01*
X40446961Y-67936667D02*
X40542200Y-67841429D01*
X40542200Y-67841429D02*
X40589819Y-67746191D01*
X40589819Y-67746191D02*
X40589819Y-67555715D01*
X40542200Y-68365239D02*
X40589819Y-68508096D01*
X40589819Y-68508096D02*
X40589819Y-68746191D01*
X40589819Y-68746191D02*
X40542200Y-68841429D01*
X40542200Y-68841429D02*
X40494580Y-68889048D01*
X40494580Y-68889048D02*
X40399342Y-68936667D01*
X40399342Y-68936667D02*
X40304104Y-68936667D01*
X40304104Y-68936667D02*
X40208866Y-68889048D01*
X40208866Y-68889048D02*
X40161247Y-68841429D01*
X40161247Y-68841429D02*
X40113628Y-68746191D01*
X40113628Y-68746191D02*
X40066009Y-68555715D01*
X40066009Y-68555715D02*
X40018390Y-68460477D01*
X40018390Y-68460477D02*
X39970771Y-68412858D01*
X39970771Y-68412858D02*
X39875533Y-68365239D01*
X39875533Y-68365239D02*
X39780295Y-68365239D01*
X39780295Y-68365239D02*
X39685057Y-68412858D01*
X39685057Y-68412858D02*
X39637438Y-68460477D01*
X39637438Y-68460477D02*
X39589819Y-68555715D01*
X39589819Y-68555715D02*
X39589819Y-68793810D01*
X39589819Y-68793810D02*
X39637438Y-68936667D01*
X40066009Y-69365239D02*
X40066009Y-69698572D01*
X40589819Y-69841429D02*
X40589819Y-69365239D01*
X40589819Y-69365239D02*
X39589819Y-69365239D01*
X39589819Y-69365239D02*
X39589819Y-69841429D01*
X40208866Y-70270001D02*
X40208866Y-71031906D01*
X39589819Y-71698572D02*
X39589819Y-71793810D01*
X39589819Y-71793810D02*
X39637438Y-71889048D01*
X39637438Y-71889048D02*
X39685057Y-71936667D01*
X39685057Y-71936667D02*
X39780295Y-71984286D01*
X39780295Y-71984286D02*
X39970771Y-72031905D01*
X39970771Y-72031905D02*
X40208866Y-72031905D01*
X40208866Y-72031905D02*
X40399342Y-71984286D01*
X40399342Y-71984286D02*
X40494580Y-71936667D01*
X40494580Y-71936667D02*
X40542200Y-71889048D01*
X40542200Y-71889048D02*
X40589819Y-71793810D01*
X40589819Y-71793810D02*
X40589819Y-71698572D01*
X40589819Y-71698572D02*
X40542200Y-71603334D01*
X40542200Y-71603334D02*
X40494580Y-71555715D01*
X40494580Y-71555715D02*
X40399342Y-71508096D01*
X40399342Y-71508096D02*
X40208866Y-71460477D01*
X40208866Y-71460477D02*
X39970771Y-71460477D01*
X39970771Y-71460477D02*
X39780295Y-71508096D01*
X39780295Y-71508096D02*
X39685057Y-71555715D01*
X39685057Y-71555715D02*
X39637438Y-71603334D01*
X39637438Y-71603334D02*
X39589819Y-71698572D01*
X39923152Y-72889048D02*
X40589819Y-72889048D01*
X39542200Y-72650953D02*
X40256485Y-72412858D01*
X40256485Y-72412858D02*
X40256485Y-73031905D01*
X39589819Y-73603334D02*
X39589819Y-73698572D01*
X39589819Y-73698572D02*
X39637438Y-73793810D01*
X39637438Y-73793810D02*
X39685057Y-73841429D01*
X39685057Y-73841429D02*
X39780295Y-73889048D01*
X39780295Y-73889048D02*
X39970771Y-73936667D01*
X39970771Y-73936667D02*
X40208866Y-73936667D01*
X40208866Y-73936667D02*
X40399342Y-73889048D01*
X40399342Y-73889048D02*
X40494580Y-73841429D01*
X40494580Y-73841429D02*
X40542200Y-73793810D01*
X40542200Y-73793810D02*
X40589819Y-73698572D01*
X40589819Y-73698572D02*
X40589819Y-73603334D01*
X40589819Y-73603334D02*
X40542200Y-73508096D01*
X40542200Y-73508096D02*
X40494580Y-73460477D01*
X40494580Y-73460477D02*
X40399342Y-73412858D01*
X40399342Y-73412858D02*
X40208866Y-73365239D01*
X40208866Y-73365239D02*
X39970771Y-73365239D01*
X39970771Y-73365239D02*
X39780295Y-73412858D01*
X39780295Y-73412858D02*
X39685057Y-73460477D01*
X39685057Y-73460477D02*
X39637438Y-73508096D01*
X39637438Y-73508096D02*
X39589819Y-73603334D01*
X40208866Y-74365239D02*
X40208866Y-75127144D01*
X39589819Y-75793810D02*
X39589819Y-75889048D01*
X39589819Y-75889048D02*
X39637438Y-75984286D01*
X39637438Y-75984286D02*
X39685057Y-76031905D01*
X39685057Y-76031905D02*
X39780295Y-76079524D01*
X39780295Y-76079524D02*
X39970771Y-76127143D01*
X39970771Y-76127143D02*
X40208866Y-76127143D01*
X40208866Y-76127143D02*
X40399342Y-76079524D01*
X40399342Y-76079524D02*
X40494580Y-76031905D01*
X40494580Y-76031905D02*
X40542200Y-75984286D01*
X40542200Y-75984286D02*
X40589819Y-75889048D01*
X40589819Y-75889048D02*
X40589819Y-75793810D01*
X40589819Y-75793810D02*
X40542200Y-75698572D01*
X40542200Y-75698572D02*
X40494580Y-75650953D01*
X40494580Y-75650953D02*
X40399342Y-75603334D01*
X40399342Y-75603334D02*
X40208866Y-75555715D01*
X40208866Y-75555715D02*
X39970771Y-75555715D01*
X39970771Y-75555715D02*
X39780295Y-75603334D01*
X39780295Y-75603334D02*
X39685057Y-75650953D01*
X39685057Y-75650953D02*
X39637438Y-75698572D01*
X39637438Y-75698572D02*
X39589819Y-75793810D01*
X40589819Y-77079524D02*
X40589819Y-76508096D01*
X40589819Y-76793810D02*
X39589819Y-76793810D01*
X39589819Y-76793810D02*
X39732676Y-76698572D01*
X39732676Y-76698572D02*
X39827914Y-76603334D01*
X39827914Y-76603334D02*
X39875533Y-76508096D01*
X40208866Y-77508096D02*
X40208866Y-78270001D01*
X39589819Y-78650953D02*
X40589819Y-79317619D01*
X39589819Y-79317619D02*
X40589819Y-78650953D01*
X40208866Y-79698572D02*
X40208866Y-80460477D01*
X40589819Y-80936667D02*
X39589819Y-80936667D01*
X39589819Y-80936667D02*
X39589819Y-81174762D01*
X39589819Y-81174762D02*
X39637438Y-81317619D01*
X39637438Y-81317619D02*
X39732676Y-81412857D01*
X39732676Y-81412857D02*
X39827914Y-81460476D01*
X39827914Y-81460476D02*
X40018390Y-81508095D01*
X40018390Y-81508095D02*
X40161247Y-81508095D01*
X40161247Y-81508095D02*
X40351723Y-81460476D01*
X40351723Y-81460476D02*
X40446961Y-81412857D01*
X40446961Y-81412857D02*
X40542200Y-81317619D01*
X40542200Y-81317619D02*
X40589819Y-81174762D01*
X40589819Y-81174762D02*
X40589819Y-80936667D01*
X40208866Y-81936667D02*
X40208866Y-82698572D01*
X40304104Y-83127143D02*
X40304104Y-83603333D01*
X40589819Y-83031905D02*
X39589819Y-83365238D01*
X39589819Y-83365238D02*
X40589819Y-83698571D01*
%TO.C,J5*%
D11*
X42230000Y-45345000D02*
X42230000Y-86625000D01*
X42230000Y-86625000D02*
X49470000Y-86625000D01*
X49470000Y-45345000D02*
X42230000Y-45345000D01*
X49470000Y-86625000D02*
X49470000Y-45345000D01*
D12*
X41250000Y-83585000D02*
G75*
G02*
X41050000Y-83585000I-100000J0D01*
G01*
X41050000Y-83585000D02*
G75*
G02*
X41250000Y-83585000I100000J0D01*
G01*
%TD*%
M02*
