%TF.GenerationSoftware,KiCad,Pcbnew,10.0.3*%
%TF.CreationDate,2026-06-24T00:16:39-04:00*%
%TF.ProjectId,board-D-smp,626f6172-642d-4442-9d73-6d702e6b6963,rev?*%
%TF.SameCoordinates,Original*%
%TF.FileFunction,Copper,L4,Bot*%
%TF.FilePolarity,Positive*%
%FSLAX46Y46*%
G04 Gerber Fmt 4.6, Leading zero omitted, Abs format (unit mm)*
G04 Created by KiCad (PCBNEW 10.0.3) date 2026-06-24 00:16:39*
%MOMM*%
%LPD*%
G01*
G04 APERTURE LIST*
%TA.AperFunction,SMDPad,CuDef*%
%ADD10R,2.270000X0.410000*%
%TD*%
%TA.AperFunction,SMDPad,CuDef*%
%ADD11R,0.430000X2.540000*%
%TD*%
%TA.AperFunction,SMDPad,CuDef*%
%ADD12R,0.430000X4.700000*%
%TD*%
%TA.AperFunction,ViaPad*%
%ADD13C,0.600000*%
%TD*%
%TA.AperFunction,Conductor*%
%ADD14C,0.340000*%
%TD*%
G04 APERTURE END LIST*
D10*
%TO.P,J5,01*%
%TO.N,GNDA*%
X43685000Y-87600000D03*
%TO.P,J5,02*%
%TO.N,SIPM_K7*%
X49415000Y-87600000D03*
%TO.P,J5,03*%
%TO.N,GNDA*%
X43685000Y-86800000D03*
%TO.P,J5,04*%
X49415000Y-86800000D03*
%TO.P,J5,05*%
X43685000Y-86000000D03*
%TO.P,J5,06*%
%TO.N,SIPM_K6*%
X49415000Y-86000000D03*
%TO.P,J5,07*%
%TO.N,GNDA*%
X43685000Y-85200000D03*
%TO.P,J5,08*%
X49415000Y-85200000D03*
%TO.P,J5,09*%
X43685000Y-84400000D03*
%TO.P,J5,10*%
%TO.N,SIPM_K5*%
X49415000Y-84400000D03*
%TO.P,J5,11*%
%TO.N,GNDA*%
X43685000Y-83600000D03*
%TO.P,J5,12*%
X49415000Y-83600000D03*
%TO.P,J5,13*%
X43685000Y-82800000D03*
%TO.P,J5,14*%
%TO.N,SIPM_K4*%
X49415000Y-82800000D03*
%TO.P,J5,15*%
%TO.N,GNDA*%
X43685000Y-82000000D03*
%TO.P,J5,16*%
X49415000Y-82000000D03*
%TO.P,J5,17*%
X43685000Y-81200000D03*
%TO.P,J5,18*%
%TO.N,SIPM_K3*%
X49415000Y-81200000D03*
%TO.P,J5,19*%
%TO.N,GNDA*%
X43685000Y-80400000D03*
%TO.P,J5,20*%
X49415000Y-80400000D03*
%TO.P,J5,21*%
X43685000Y-79600000D03*
%TO.P,J5,22*%
%TO.N,SIPM_K2*%
X49415000Y-79600000D03*
%TO.P,J5,23*%
%TO.N,GNDA*%
X43685000Y-78800000D03*
%TO.P,J5,24*%
X49415000Y-78800000D03*
%TO.P,J5,25*%
X43685000Y-78000000D03*
%TO.P,J5,26*%
%TO.N,SIPM_K1*%
X49415000Y-78000000D03*
%TO.P,J5,27*%
%TO.N,SIPM_K8*%
X43685000Y-77200000D03*
%TO.P,J5,28*%
%TO.N,GNDA*%
X49415000Y-77200000D03*
%TO.P,J5,29*%
X43685000Y-76400000D03*
%TO.P,J5,30*%
%TO.N,SIPM_K0*%
X49415000Y-76400000D03*
%TO.P,J5,31*%
%TO.N,SIPM_K9*%
X43685000Y-75600000D03*
%TO.P,J5,32*%
%TO.N,GNDA*%
X49415000Y-75600000D03*
%TO.P,J5,33*%
X43685000Y-74800000D03*
%TO.P,J5,34*%
X49415000Y-74800000D03*
%TO.P,J5,35*%
%TO.N,SIPM_K10*%
X43685000Y-74000000D03*
%TO.P,J5,36*%
%TO.N,GNDA*%
X49415000Y-74000000D03*
%TO.P,J5,37*%
X43685000Y-73200000D03*
%TO.P,J5,38*%
X49415000Y-73200000D03*
%TO.P,J5,39*%
%TO.N,SIPM_K11*%
X43685000Y-72400000D03*
%TO.P,J5,40*%
%TO.N,IV*%
X49415000Y-72400000D03*
%TO.P,J5,41*%
%TO.N,SIPM_K12*%
X43685000Y-67600000D03*
%TO.P,J5,42*%
%TO.N,IV*%
X49415000Y-67600000D03*
%TO.P,J5,43*%
%TO.N,GNDA*%
X43685000Y-66800000D03*
%TO.P,J5,44*%
X49415000Y-66800000D03*
%TO.P,J5,45*%
%TO.N,SIPM_K13*%
X43685000Y-66000000D03*
%TO.P,J5,46*%
%TO.N,GNDA*%
X49415000Y-66000000D03*
%TO.P,J5,47*%
X43685000Y-65200000D03*
%TO.P,J5,48*%
X49415000Y-65200000D03*
%TO.P,J5,49*%
%TO.N,SIPM_K14*%
X43685000Y-64400000D03*
%TO.P,J5,50*%
%TO.N,GNDA*%
X49415000Y-64400000D03*
%TO.P,J5,51*%
X43685000Y-63600000D03*
%TO.P,J5,52*%
%TO.N,SIPM_K23*%
X49415000Y-63600000D03*
%TO.P,J5,53*%
%TO.N,SIPM_K15*%
X43685000Y-62800000D03*
%TO.P,J5,54*%
%TO.N,GNDA*%
X49415000Y-62800000D03*
%TO.P,J5,55*%
X43685000Y-62000000D03*
%TO.P,J5,56*%
%TO.N,SIPM_K22*%
X49415000Y-62000000D03*
%TO.P,J5,57*%
%TO.N,GNDA*%
X43685000Y-61200000D03*
%TO.P,J5,58*%
X49415000Y-61200000D03*
%TO.P,J5,59*%
X43685000Y-60400000D03*
%TO.P,J5,60*%
%TO.N,SIPM_K21*%
X49415000Y-60400000D03*
%TO.P,J5,61*%
%TO.N,GNDA*%
X43685000Y-59600000D03*
%TO.P,J5,62*%
X49415000Y-59600000D03*
%TO.P,J5,63*%
X43685000Y-58800000D03*
%TO.P,J5,64*%
%TO.N,SIPM_K20*%
X49415000Y-58800000D03*
%TO.P,J5,65*%
%TO.N,GNDA*%
X43685000Y-58000000D03*
%TO.P,J5,66*%
X49415000Y-58000000D03*
%TO.P,J5,67*%
X43685000Y-57200000D03*
%TO.P,J5,68*%
%TO.N,SIPM_K19*%
X49415000Y-57200000D03*
%TO.P,J5,69*%
%TO.N,GNDA*%
X43685000Y-56400000D03*
%TO.P,J5,70*%
X49415000Y-56400000D03*
%TO.P,J5,71*%
X43685000Y-55600000D03*
%TO.P,J5,72*%
%TO.N,SIPM_K18*%
X49415000Y-55600000D03*
%TO.P,J5,73*%
%TO.N,GNDA*%
X43685000Y-54800000D03*
%TO.P,J5,74*%
X49415000Y-54800000D03*
%TO.P,J5,75*%
X43685000Y-54000000D03*
%TO.P,J5,76*%
%TO.N,SIPM_K17*%
X49415000Y-54000000D03*
%TO.P,J5,77*%
%TO.N,THERM4*%
X43685000Y-53200000D03*
%TO.P,J5,78*%
%TO.N,GNDA*%
X49415000Y-53200000D03*
%TO.P,J5,79*%
%TO.N,THERM5*%
X43685000Y-52400000D03*
%TO.P,J5,80*%
%TO.N,SIPM_K16*%
X49415000Y-52400000D03*
D11*
%TO.P,J5,G1*%
%TO.N,GNDA*%
X46550000Y-88065000D03*
D12*
%TO.P,J5,G2*%
X46550000Y-83175000D03*
%TO.P,J5,G3*%
X46550000Y-76825000D03*
D11*
%TO.P,J5,G4*%
X46550000Y-71935000D03*
%TO.P,J5,G5*%
X46550000Y-68065000D03*
D12*
%TO.P,J5,G6*%
X46550000Y-63175000D03*
%TO.P,J5,G7*%
X46550000Y-56825000D03*
D11*
%TO.P,J5,G8*%
X46550000Y-51935000D03*
%TD*%
D13*
%TO.N,SIPM_K21*%
X67800000Y-62000000D03*
%TO.N,GNDA*%
X77925000Y-127075000D03*
X35925000Y-127075000D03*
X41925000Y-12925000D03*
X53925000Y-127075000D03*
X41925000Y-127075000D03*
X77925000Y-12925000D03*
X53925000Y-12925000D03*
X17925000Y-127075000D03*
X65925000Y-127075000D03*
X17925000Y-12925000D03*
X29925000Y-127075000D03*
X11925000Y-12925000D03*
X47925000Y-12925000D03*
X59925000Y-12925000D03*
X65925000Y-12925000D03*
X29925000Y-12925000D03*
X59925000Y-127075000D03*
X11925000Y-127075000D03*
X47925000Y-127075000D03*
X35925000Y-12925000D03*
%TO.N,SIPM_K7*%
X67800000Y-118000000D03*
%TO.N,SIPM_K23*%
X51415000Y-63600000D03*
%TO.N,SIPM_K12*%
X25300000Y-66000000D03*
%TO.N,SIPM_K8*%
X25300000Y-106000000D03*
%TO.N,SIPM_K20*%
X67800000Y-54000000D03*
%TO.N,SIPM_K17*%
X67800000Y-30000000D03*
%TO.N,SIPM_K9*%
X25300000Y-90000000D03*
%TO.N,IV*%
X67800000Y-70000000D03*
%TO.N,SIPM_K3*%
X67800000Y-86000000D03*
%TO.N,SIPM_K4*%
X67800000Y-94000000D03*
%TO.N,SIPM_K11*%
X25300000Y-74000000D03*
%TO.N,SIPM_K16*%
X67800000Y-22000000D03*
%TO.N,SIPM_K0*%
X51415000Y-76400000D03*
%TO.N,SIPM_K14*%
X25300000Y-50000000D03*
%TO.N,SIPM_K22*%
X51415000Y-62000000D03*
%TO.N,SIPM_K15*%
X25300000Y-34000000D03*
%TO.N,SIPM_K18*%
X67800000Y-38000000D03*
%TO.N,SIPM_K1*%
X51415000Y-78000000D03*
%TO.N,SIPM_K10*%
X25300000Y-82000000D03*
%TO.N,SIPM_K19*%
X67800000Y-46000000D03*
%TO.N,SIPM_K2*%
X67800000Y-78000000D03*
%TO.N,SIPM_K5*%
X67800000Y-102000000D03*
%TO.N,SIPM_K13*%
X25300000Y-58000000D03*
%TO.N,SIPM_K6*%
X67800000Y-110000000D03*
%TD*%
%TO.N,SIPM_K21*%
D14*
X49415000Y-60400000D02*
X51415000Y-60400000D01*
X51415000Y-60400000D02*
X67800000Y-62000000D01*
%TO.N,SIPM_K7*%
X51415000Y-87600000D02*
X67800000Y-118000000D01*
X49415000Y-87600000D02*
X51415000Y-87600000D01*
%TO.N,SIPM_K23*%
X49415000Y-63600000D02*
X51415000Y-63600000D01*
%TO.N,SIPM_K12*%
X43685000Y-67600000D02*
X41685000Y-67600000D01*
X41685000Y-67600000D02*
X25300000Y-66000000D01*
%TO.N,SIPM_K8*%
X41685000Y-77200000D02*
X25300000Y-106000000D01*
X43685000Y-77200000D02*
X41685000Y-77200000D01*
%TO.N,SIPM_K20*%
X51415000Y-58800000D02*
X67800000Y-54000000D01*
X49415000Y-58800000D02*
X51415000Y-58800000D01*
%TO.N,SIPM_K17*%
X51415000Y-54000000D02*
X67800000Y-30000000D01*
X49415000Y-54000000D02*
X51415000Y-54000000D01*
%TO.N,SIPM_K9*%
X41685000Y-75600000D02*
X25300000Y-90000000D01*
X43685000Y-75600000D02*
X41685000Y-75600000D01*
%TO.N,IV*%
X51415000Y-72400000D02*
X67800000Y-70000000D01*
X49415000Y-72400000D02*
X51415000Y-72400000D01*
X49415000Y-72400000D02*
X49415000Y-67600000D01*
%TO.N,SIPM_K3*%
X49415000Y-81200000D02*
X51415000Y-81200000D01*
X51415000Y-81200000D02*
X67800000Y-86000000D01*
%TO.N,SIPM_K4*%
X49415000Y-82800000D02*
X51415000Y-82800000D01*
X51415000Y-82800000D02*
X67800000Y-94000000D01*
%TO.N,SIPM_K11*%
X43685000Y-72400000D02*
X41685000Y-72400000D01*
X41685000Y-72400000D02*
X25300000Y-74000000D01*
%TO.N,SIPM_K16*%
X49415000Y-52400000D02*
X51415000Y-52400000D01*
X51415000Y-52400000D02*
X67800000Y-22000000D01*
%TO.N,SIPM_K0*%
X49415000Y-76400000D02*
X51415000Y-76400000D01*
%TO.N,SIPM_K14*%
X43685000Y-64400000D02*
X41685000Y-64400000D01*
X41685000Y-64400000D02*
X25300000Y-50000000D01*
%TO.N,SIPM_K22*%
X49415000Y-62000000D02*
X51415000Y-62000000D01*
%TO.N,SIPM_K15*%
X41685000Y-62800000D02*
X25300000Y-34000000D01*
X43685000Y-62800000D02*
X41685000Y-62800000D01*
%TO.N,SIPM_K18*%
X51415000Y-55600000D02*
X67800000Y-38000000D01*
X49415000Y-55600000D02*
X51415000Y-55600000D01*
%TO.N,SIPM_K1*%
X49415000Y-78000000D02*
X51415000Y-78000000D01*
%TO.N,SIPM_K10*%
X43685000Y-74000000D02*
X41685000Y-74000000D01*
X41685000Y-74000000D02*
X25300000Y-82000000D01*
%TO.N,SIPM_K19*%
X51415000Y-57200000D02*
X67800000Y-46000000D01*
X49415000Y-57200000D02*
X51415000Y-57200000D01*
%TO.N,SIPM_K2*%
X49415000Y-79600000D02*
X51415000Y-79600000D01*
X51415000Y-79600000D02*
X67800000Y-78000000D01*
%TO.N,SIPM_K5*%
X51415000Y-84400000D02*
X67800000Y-102000000D01*
X49415000Y-84400000D02*
X51415000Y-84400000D01*
%TO.N,SIPM_K13*%
X41685000Y-66000000D02*
X25300000Y-58000000D01*
X43685000Y-66000000D02*
X41685000Y-66000000D01*
%TO.N,SIPM_K6*%
X49415000Y-86000000D02*
X51415000Y-86000000D01*
X51415000Y-86000000D02*
X67800000Y-110000000D01*
%TD*%
%TA.AperFunction,Conductor*%
%TO.N,GNDA*%
G36*
X83542539Y-10520185D02*
G01*
X83588294Y-10572989D01*
X83599500Y-10624500D01*
X83599500Y-129375500D01*
X83579815Y-129442539D01*
X83527011Y-129488294D01*
X83475500Y-129499500D01*
X9624500Y-129499500D01*
X9557461Y-129479815D01*
X9511706Y-129427011D01*
X9500500Y-129375500D01*
X9500500Y-124878711D01*
X19449500Y-124878711D01*
X19449500Y-125121288D01*
X19481161Y-125361785D01*
X19543947Y-125596104D01*
X19636773Y-125820205D01*
X19636776Y-125820212D01*
X19758064Y-126030289D01*
X19758066Y-126030292D01*
X19758067Y-126030293D01*
X19905733Y-126222736D01*
X19905739Y-126222743D01*
X20077256Y-126394260D01*
X20077262Y-126394265D01*
X20269711Y-126541936D01*
X20479788Y-126663224D01*
X20703900Y-126756054D01*
X20938211Y-126818838D01*
X21118586Y-126842584D01*
X21178711Y-126850500D01*
X21178712Y-126850500D01*
X21421289Y-126850500D01*
X21469388Y-126844167D01*
X21661789Y-126818838D01*
X21896100Y-126756054D01*
X22120212Y-126663224D01*
X22330289Y-126541936D01*
X22522738Y-126394265D01*
X22694265Y-126222738D01*
X22841936Y-126030289D01*
X22963224Y-125820212D01*
X23056054Y-125596100D01*
X23118838Y-125361789D01*
X23150500Y-125121288D01*
X23150500Y-124878712D01*
X23150500Y-124878711D01*
X69949500Y-124878711D01*
X69949500Y-125121288D01*
X69981161Y-125361785D01*
X70043947Y-125596104D01*
X70136773Y-125820205D01*
X70136776Y-125820212D01*
X70258064Y-126030289D01*
X70258066Y-126030292D01*
X70258067Y-126030293D01*
X70405733Y-126222736D01*
X70405739Y-126222743D01*
X70577256Y-126394260D01*
X70577262Y-126394265D01*
X70769711Y-126541936D01*
X70979788Y-126663224D01*
X71203900Y-126756054D01*
X71438211Y-126818838D01*
X71618586Y-126842584D01*
X71678711Y-126850500D01*
X71678712Y-126850500D01*
X71921289Y-126850500D01*
X71969388Y-126844167D01*
X72161789Y-126818838D01*
X72396100Y-126756054D01*
X72620212Y-126663224D01*
X72830289Y-126541936D01*
X73022738Y-126394265D01*
X73194265Y-126222738D01*
X73341936Y-126030289D01*
X73463224Y-125820212D01*
X73556054Y-125596100D01*
X73618838Y-125361789D01*
X73650500Y-125121288D01*
X73650500Y-124878712D01*
X73618838Y-124638211D01*
X73556054Y-124403900D01*
X73463224Y-124179788D01*
X73341936Y-123969711D01*
X73194265Y-123777262D01*
X73194260Y-123777256D01*
X73022743Y-123605739D01*
X73022736Y-123605733D01*
X72830293Y-123458067D01*
X72830292Y-123458066D01*
X72830289Y-123458064D01*
X72620212Y-123336776D01*
X72620205Y-123336773D01*
X72396104Y-123243947D01*
X72161785Y-123181161D01*
X71921289Y-123149500D01*
X71921288Y-123149500D01*
X71678712Y-123149500D01*
X71678711Y-123149500D01*
X71438214Y-123181161D01*
X71203895Y-123243947D01*
X70979794Y-123336773D01*
X70979785Y-123336777D01*
X70769706Y-123458067D01*
X70577263Y-123605733D01*
X70577256Y-123605739D01*
X70405739Y-123777256D01*
X70405733Y-123777263D01*
X70258067Y-123969706D01*
X70136777Y-124179785D01*
X70136773Y-124179794D01*
X70043947Y-124403895D01*
X69981161Y-124638214D01*
X69949500Y-124878711D01*
X23150500Y-124878711D01*
X23118838Y-124638211D01*
X23056054Y-124403900D01*
X22963224Y-124179788D01*
X22841936Y-123969711D01*
X22694265Y-123777262D01*
X22694260Y-123777256D01*
X22522743Y-123605739D01*
X22522736Y-123605733D01*
X22330293Y-123458067D01*
X22330292Y-123458066D01*
X22330289Y-123458064D01*
X22120212Y-123336776D01*
X22120205Y-123336773D01*
X21896104Y-123243947D01*
X21661785Y-123181161D01*
X21421289Y-123149500D01*
X21421288Y-123149500D01*
X21178712Y-123149500D01*
X21178711Y-123149500D01*
X20938214Y-123181161D01*
X20703895Y-123243947D01*
X20479794Y-123336773D01*
X20479785Y-123336777D01*
X20269706Y-123458067D01*
X20077263Y-123605733D01*
X20077256Y-123605739D01*
X19905739Y-123777256D01*
X19905733Y-123777263D01*
X19758067Y-123969706D01*
X19636777Y-124179785D01*
X19636773Y-124179794D01*
X19543947Y-124403895D01*
X19481161Y-124638214D01*
X19449500Y-124878711D01*
X9500500Y-124878711D01*
X9500500Y-105920943D01*
X24699500Y-105920943D01*
X24699500Y-106079056D01*
X24740423Y-106231783D01*
X24740426Y-106231790D01*
X24819475Y-106368709D01*
X24819479Y-106368714D01*
X24819480Y-106368716D01*
X24931284Y-106480520D01*
X24931286Y-106480521D01*
X24931290Y-106480524D01*
X25068209Y-106559573D01*
X25068216Y-106559577D01*
X25220943Y-106600500D01*
X25220945Y-106600500D01*
X25379055Y-106600500D01*
X25379057Y-106600500D01*
X25531784Y-106559577D01*
X25668716Y-106480520D01*
X25780520Y-106368716D01*
X25859577Y-106231784D01*
X25900500Y-106079057D01*
X25900500Y-105928771D01*
X25916721Y-105867454D01*
X34949729Y-89990092D01*
X48459500Y-89990092D01*
X48459500Y-90139907D01*
X48488723Y-90286822D01*
X48488725Y-90286830D01*
X48546051Y-90425229D01*
X48546056Y-90425238D01*
X48629280Y-90549790D01*
X48629283Y-90549794D01*
X48735205Y-90655716D01*
X48735209Y-90655719D01*
X48859761Y-90738943D01*
X48859767Y-90738946D01*
X48859768Y-90738947D01*
X48998170Y-90796275D01*
X49145092Y-90825499D01*
X49145096Y-90825500D01*
X49145097Y-90825500D01*
X49294904Y-90825500D01*
X49294905Y-90825499D01*
X49441830Y-90796275D01*
X49580232Y-90738947D01*
X49704791Y-90655719D01*
X49810719Y-90549791D01*
X49893947Y-90425232D01*
X49951275Y-90286830D01*
X49980500Y-90139903D01*
X49980500Y-89990097D01*
X49951275Y-89843170D01*
X49893947Y-89704768D01*
X49893946Y-89704767D01*
X49893943Y-89704761D01*
X49810719Y-89580209D01*
X49810716Y-89580205D01*
X49704794Y-89474283D01*
X49704790Y-89474280D01*
X49580238Y-89391056D01*
X49580229Y-89391051D01*
X49441830Y-89333725D01*
X49441822Y-89333723D01*
X49294907Y-89304500D01*
X49294903Y-89304500D01*
X49145097Y-89304500D01*
X49145092Y-89304500D01*
X48998177Y-89333723D01*
X48998169Y-89333725D01*
X48859770Y-89391051D01*
X48859761Y-89391056D01*
X48735209Y-89474280D01*
X48735205Y-89474283D01*
X48629283Y-89580205D01*
X48629280Y-89580209D01*
X48546056Y-89704761D01*
X48546051Y-89704770D01*
X48488725Y-89843169D01*
X48488723Y-89843177D01*
X48459500Y-89990092D01*
X34949729Y-89990092D01*
X37399819Y-85683556D01*
X38272221Y-84150131D01*
X47979500Y-84150131D01*
X47979500Y-84649856D01*
X47979502Y-84649882D01*
X47982413Y-84674987D01*
X47982415Y-84674991D01*
X48027793Y-84777764D01*
X48027794Y-84777765D01*
X48107235Y-84857206D01*
X48210009Y-84902585D01*
X48235135Y-84905500D01*
X50594864Y-84905499D01*
X50594879Y-84905497D01*
X50594882Y-84905497D01*
X50619987Y-84902586D01*
X50619988Y-84902585D01*
X50619991Y-84902585D01*
X50657824Y-84885879D01*
X50668730Y-84881065D01*
X50718815Y-84870500D01*
X51156211Y-84870500D01*
X51223250Y-84890185D01*
X51246969Y-84910008D01*
X51644132Y-85336623D01*
X51658075Y-85364480D01*
X51673761Y-85391400D01*
X51673583Y-85395464D01*
X51675405Y-85399103D01*
X51672073Y-85430080D01*
X51670715Y-85461203D01*
X51668368Y-85464526D01*
X51667933Y-85468572D01*
X51648388Y-85492823D01*
X51630415Y-85518279D01*
X51626642Y-85519806D01*
X51624090Y-85522974D01*
X51594530Y-85532810D01*
X51565654Y-85544505D01*
X51560116Y-85544263D01*
X51557795Y-85545036D01*
X51530395Y-85542967D01*
X51524217Y-85541802D01*
X51515116Y-85539728D01*
X51476943Y-85529500D01*
X51476939Y-85529500D01*
X51458971Y-85529500D01*
X51441311Y-85526170D01*
X51397249Y-85529500D01*
X50718815Y-85529500D01*
X50668729Y-85518935D01*
X50619991Y-85497415D01*
X50594865Y-85494500D01*
X48235143Y-85494500D01*
X48235117Y-85494502D01*
X48210012Y-85497413D01*
X48210008Y-85497415D01*
X48107235Y-85542793D01*
X48027794Y-85622234D01*
X47982415Y-85725006D01*
X47982415Y-85725008D01*
X47979500Y-85750131D01*
X47979500Y-86249856D01*
X47979502Y-86249882D01*
X47982413Y-86274987D01*
X47982415Y-86274991D01*
X48027793Y-86377764D01*
X48027794Y-86377765D01*
X48107235Y-86457206D01*
X48210009Y-86502585D01*
X48235135Y-86505500D01*
X50594864Y-86505499D01*
X50594879Y-86505497D01*
X50594882Y-86505497D01*
X50619987Y-86502586D01*
X50619988Y-86502585D01*
X50619991Y-86502585D01*
X50657824Y-86485879D01*
X50668730Y-86481065D01*
X50718815Y-86470500D01*
X51101036Y-86470500D01*
X51168075Y-86490185D01*
X51203444Y-86524582D01*
X51255274Y-86600500D01*
X51483181Y-86934328D01*
X51485821Y-86942476D01*
X51491657Y-86948744D01*
X51496430Y-86975209D01*
X51504723Y-87000794D01*
X51502539Y-87009075D01*
X51504060Y-87017504D01*
X51493766Y-87042352D01*
X51486911Y-87068355D01*
X51480598Y-87074140D01*
X51477320Y-87082054D01*
X51455224Y-87097393D01*
X51435401Y-87115561D01*
X51425463Y-87118055D01*
X51419926Y-87121900D01*
X51396323Y-87125370D01*
X51385192Y-87128165D01*
X51381161Y-87128308D01*
X51366847Y-87127890D01*
X51362226Y-87128984D01*
X51349988Y-87129421D01*
X51348812Y-87129120D01*
X51345567Y-87129500D01*
X50718815Y-87129500D01*
X50668729Y-87118935D01*
X50666736Y-87118055D01*
X50619991Y-87097415D01*
X50594865Y-87094500D01*
X48235143Y-87094500D01*
X48235117Y-87094502D01*
X48210012Y-87097413D01*
X48210008Y-87097415D01*
X48107235Y-87142793D01*
X48027794Y-87222234D01*
X47982415Y-87325006D01*
X47982415Y-87325008D01*
X47979500Y-87350131D01*
X47979500Y-87849856D01*
X47979502Y-87849882D01*
X47982413Y-87874987D01*
X47982415Y-87874991D01*
X48027793Y-87977764D01*
X48027794Y-87977765D01*
X48107235Y-88057206D01*
X48210009Y-88102585D01*
X48235135Y-88105500D01*
X50594864Y-88105499D01*
X50594879Y-88105497D01*
X50594882Y-88105497D01*
X50619987Y-88102586D01*
X50619988Y-88102585D01*
X50619991Y-88102585D01*
X50657824Y-88085879D01*
X50668730Y-88081065D01*
X50718815Y-88070500D01*
X51060071Y-88070500D01*
X51127110Y-88090185D01*
X51169226Y-88135668D01*
X67185078Y-117850769D01*
X67198221Y-117912816D01*
X67199500Y-117912816D01*
X67199500Y-117918852D01*
X67199557Y-117919122D01*
X67199500Y-117919668D01*
X67199500Y-118079056D01*
X67240423Y-118231783D01*
X67240426Y-118231790D01*
X67319475Y-118368709D01*
X67319479Y-118368714D01*
X67319480Y-118368716D01*
X67431284Y-118480520D01*
X67431286Y-118480521D01*
X67431290Y-118480524D01*
X67568209Y-118559573D01*
X67568216Y-118559577D01*
X67720943Y-118600500D01*
X67720945Y-118600500D01*
X67879055Y-118600500D01*
X67879057Y-118600500D01*
X68031784Y-118559577D01*
X68168716Y-118480520D01*
X68280520Y-118368716D01*
X68359577Y-118231784D01*
X68400500Y-118079057D01*
X68400500Y-117920943D01*
X68359577Y-117768216D01*
X68359573Y-117768209D01*
X68280524Y-117631290D01*
X68280518Y-117631282D01*
X68168717Y-117519481D01*
X68168709Y-117519475D01*
X68063851Y-117458936D01*
X68016695Y-117410381D01*
X64147576Y-110231790D01*
X59512074Y-101631284D01*
X53116899Y-89765961D01*
X53102420Y-89697608D01*
X53127194Y-89632278D01*
X53183355Y-89590713D01*
X53253073Y-89586108D01*
X53314212Y-89619927D01*
X53328458Y-89637206D01*
X67177910Y-109923248D01*
X67199452Y-109989713D01*
X67199500Y-109993163D01*
X67199500Y-110079056D01*
X67240423Y-110231783D01*
X67240426Y-110231790D01*
X67319475Y-110368709D01*
X67319479Y-110368714D01*
X67319480Y-110368716D01*
X67431284Y-110480520D01*
X67431286Y-110480521D01*
X67431290Y-110480524D01*
X67568209Y-110559573D01*
X67568216Y-110559577D01*
X67720943Y-110600500D01*
X67720945Y-110600500D01*
X67879055Y-110600500D01*
X67879057Y-110600500D01*
X68031784Y-110559577D01*
X68168716Y-110480520D01*
X68280520Y-110368716D01*
X68359577Y-110231784D01*
X68400500Y-110079057D01*
X68400500Y-109920943D01*
X68359577Y-109768216D01*
X68359573Y-109768209D01*
X68280524Y-109631290D01*
X68280518Y-109631282D01*
X68168717Y-109519481D01*
X68168709Y-109519475D01*
X68031790Y-109440426D01*
X68031786Y-109440424D01*
X68031784Y-109440423D01*
X68031782Y-109440422D01*
X68031779Y-109440421D01*
X68022183Y-109437850D01*
X67962523Y-109401484D01*
X67951868Y-109387992D01*
X52149402Y-86241259D01*
X52127860Y-86174793D01*
X52145672Y-86107232D01*
X52197182Y-86060026D01*
X52266037Y-86048162D01*
X52330376Y-86075407D01*
X52342565Y-86086845D01*
X67167342Y-102010926D01*
X67198615Y-102073407D01*
X67199488Y-102079013D01*
X67240423Y-102231783D01*
X67240426Y-102231790D01*
X67319475Y-102368709D01*
X67319479Y-102368714D01*
X67319480Y-102368716D01*
X67431284Y-102480520D01*
X67431286Y-102480521D01*
X67431290Y-102480524D01*
X67568209Y-102559573D01*
X67568216Y-102559577D01*
X67720943Y-102600500D01*
X67720945Y-102600500D01*
X67879055Y-102600500D01*
X67879057Y-102600500D01*
X68031784Y-102559577D01*
X68168716Y-102480520D01*
X68280520Y-102368716D01*
X68359577Y-102231784D01*
X68400500Y-102079057D01*
X68400500Y-101920943D01*
X68359577Y-101768216D01*
X68359573Y-101768209D01*
X68280524Y-101631290D01*
X68280518Y-101631282D01*
X68168717Y-101519481D01*
X68168709Y-101519475D01*
X68031790Y-101440426D01*
X68031785Y-101440423D01*
X67919755Y-101410405D01*
X67861091Y-101375123D01*
X61516049Y-94559576D01*
X51805350Y-84128796D01*
X51795760Y-84118495D01*
X51791494Y-84111106D01*
X51753638Y-84073250D01*
X51752128Y-84071628D01*
X51752127Y-84071627D01*
X51717165Y-84034072D01*
X51710894Y-84028894D01*
X51711199Y-84028523D01*
X51710632Y-84028072D01*
X51710340Y-84028453D01*
X51703899Y-84023511D01*
X51703894Y-84023506D01*
X51700998Y-84021834D01*
X51659439Y-83997839D01*
X51657519Y-83996731D01*
X51612155Y-83968332D01*
X51603994Y-83965829D01*
X51596610Y-83961566D01*
X51596606Y-83961564D01*
X51547041Y-83948282D01*
X51542788Y-83947060D01*
X51493713Y-83932013D01*
X51485183Y-83931708D01*
X51476943Y-83929500D01*
X51423418Y-83929500D01*
X51421207Y-83929420D01*
X51369909Y-83927587D01*
X51369908Y-83927587D01*
X51369907Y-83927587D01*
X51369905Y-83927587D01*
X51361817Y-83928360D01*
X51361771Y-83927881D01*
X51347514Y-83929500D01*
X50718815Y-83929500D01*
X50668729Y-83918935D01*
X50619991Y-83897415D01*
X50594865Y-83894500D01*
X48235143Y-83894500D01*
X48235117Y-83894502D01*
X48210012Y-83897413D01*
X48210008Y-83897415D01*
X48107235Y-83942793D01*
X48027794Y-84022234D01*
X47982415Y-84125006D01*
X47982415Y-84125008D01*
X47979500Y-84150131D01*
X38272221Y-84150131D01*
X38309141Y-84085236D01*
X39182499Y-82550131D01*
X47979500Y-82550131D01*
X47979500Y-83049856D01*
X47979502Y-83049882D01*
X47982413Y-83074987D01*
X47982415Y-83074991D01*
X48027793Y-83177764D01*
X48027794Y-83177765D01*
X48107235Y-83257206D01*
X48210009Y-83302585D01*
X48235135Y-83305500D01*
X50594864Y-83305499D01*
X50594879Y-83305497D01*
X50594882Y-83305497D01*
X50619987Y-83302586D01*
X50619988Y-83302585D01*
X50619991Y-83302585D01*
X50657824Y-83285879D01*
X50668730Y-83281065D01*
X50718815Y-83270500D01*
X51231229Y-83270500D01*
X51298268Y-83290185D01*
X51301188Y-83292119D01*
X58387041Y-88135668D01*
X67187954Y-94151550D01*
X67232191Y-94205633D01*
X67237752Y-94221820D01*
X67240420Y-94231777D01*
X67240426Y-94231790D01*
X67319475Y-94368709D01*
X67319479Y-94368714D01*
X67319480Y-94368716D01*
X67431284Y-94480520D01*
X67431286Y-94480521D01*
X67431290Y-94480524D01*
X67568209Y-94559573D01*
X67568216Y-94559577D01*
X67720943Y-94600500D01*
X67720945Y-94600500D01*
X67879055Y-94600500D01*
X67879057Y-94600500D01*
X68031784Y-94559577D01*
X68168716Y-94480520D01*
X68280520Y-94368716D01*
X68359577Y-94231784D01*
X68400500Y-94079057D01*
X68400500Y-93920943D01*
X68359577Y-93768216D01*
X68359573Y-93768209D01*
X68280524Y-93631290D01*
X68280518Y-93631282D01*
X68168717Y-93519481D01*
X68168709Y-93519475D01*
X68031790Y-93440426D01*
X68031786Y-93440424D01*
X68031784Y-93440423D01*
X67879057Y-93399500D01*
X67879056Y-93399500D01*
X67793588Y-93399500D01*
X67726549Y-93379815D01*
X67723613Y-93377870D01*
X63989631Y-90825499D01*
X58602032Y-87142794D01*
X51726230Y-82442825D01*
X51726230Y-82442824D01*
X51716693Y-82436305D01*
X51703894Y-82423506D01*
X51665750Y-82401484D01*
X51661847Y-82398816D01*
X51629373Y-82376619D01*
X51629374Y-82376619D01*
X51629372Y-82376618D01*
X51629368Y-82376616D01*
X51629365Y-82376615D01*
X51623184Y-82374443D01*
X51623184Y-82374444D01*
X51612284Y-82370615D01*
X51596606Y-82361564D01*
X51554057Y-82350163D01*
X51549608Y-82348600D01*
X51512488Y-82335561D01*
X51505952Y-82335064D01*
X51483278Y-82331197D01*
X51476947Y-82329500D01*
X51476943Y-82329500D01*
X51432886Y-82329500D01*
X51388961Y-82326155D01*
X51371165Y-82329500D01*
X50718815Y-82329500D01*
X50668729Y-82318935D01*
X50619991Y-82297415D01*
X50594865Y-82294500D01*
X48235143Y-82294500D01*
X48235117Y-82294502D01*
X48210012Y-82297413D01*
X48210008Y-82297415D01*
X48107235Y-82342793D01*
X48027794Y-82422234D01*
X47982415Y-82525006D01*
X47982415Y-82525008D01*
X47979500Y-82550131D01*
X39182499Y-82550131D01*
X40092777Y-80950131D01*
X47979500Y-80950131D01*
X47979500Y-81449856D01*
X47979502Y-81449882D01*
X47982413Y-81474987D01*
X47982415Y-81474991D01*
X48027793Y-81577764D01*
X48027794Y-81577765D01*
X48107235Y-81657206D01*
X48210009Y-81702585D01*
X48235135Y-81705500D01*
X50594864Y-81705499D01*
X50594879Y-81705497D01*
X50594882Y-81705497D01*
X50619987Y-81702586D01*
X50619988Y-81702585D01*
X50619991Y-81702585D01*
X50657824Y-81685879D01*
X50668730Y-81681065D01*
X50718815Y-81670500D01*
X51329713Y-81670500D01*
X51364574Y-81675501D01*
X51466977Y-81705500D01*
X67261898Y-86332636D01*
X67314716Y-86363952D01*
X67319479Y-86368715D01*
X67319480Y-86368716D01*
X67431284Y-86480520D01*
X67431286Y-86480521D01*
X67431290Y-86480524D01*
X67568209Y-86559573D01*
X67568216Y-86559577D01*
X67720943Y-86600500D01*
X67720945Y-86600500D01*
X67879055Y-86600500D01*
X67879057Y-86600500D01*
X68031784Y-86559577D01*
X68168716Y-86480520D01*
X68280520Y-86368716D01*
X68359577Y-86231784D01*
X68400500Y-86079057D01*
X68400500Y-85920943D01*
X68359577Y-85768216D01*
X68326605Y-85711106D01*
X68280524Y-85631290D01*
X68280518Y-85631282D01*
X68168717Y-85519481D01*
X68168709Y-85519475D01*
X68031790Y-85440426D01*
X68031786Y-85440424D01*
X68031784Y-85440423D01*
X67879057Y-85399500D01*
X67720943Y-85399500D01*
X67720941Y-85399500D01*
X67599300Y-85432093D01*
X67532347Y-85431317D01*
X51614270Y-80768102D01*
X51614270Y-80768101D01*
X51601396Y-80764329D01*
X51596606Y-80761564D01*
X51542066Y-80746949D01*
X51540647Y-80746534D01*
X51487830Y-80731061D01*
X51482392Y-80730217D01*
X51482389Y-80730216D01*
X51476945Y-80729500D01*
X51476943Y-80729500D01*
X51421897Y-80729500D01*
X51419024Y-80729467D01*
X51389430Y-80728781D01*
X51363978Y-80728191D01*
X51363977Y-80728191D01*
X51358526Y-80728781D01*
X51345191Y-80729500D01*
X50718815Y-80729500D01*
X50668729Y-80718935D01*
X50619991Y-80697415D01*
X50594865Y-80694500D01*
X48235143Y-80694500D01*
X48235117Y-80694502D01*
X48210012Y-80697413D01*
X48210008Y-80697415D01*
X48107235Y-80742793D01*
X48027794Y-80822234D01*
X47982415Y-80925006D01*
X47982415Y-80925008D01*
X47979500Y-80950131D01*
X40092777Y-80950131D01*
X41003055Y-79350131D01*
X47979500Y-79350131D01*
X47979500Y-79849856D01*
X47979502Y-79849882D01*
X47982413Y-79874987D01*
X47982415Y-79874991D01*
X48027793Y-79977764D01*
X48027794Y-79977765D01*
X48107235Y-80057206D01*
X48210009Y-80102585D01*
X48235135Y-80105500D01*
X50594864Y-80105499D01*
X50594879Y-80105497D01*
X50594882Y-80105497D01*
X50619987Y-80102586D01*
X50619988Y-80102585D01*
X50619991Y-80102585D01*
X50657824Y-80085879D01*
X50668730Y-80081065D01*
X50718815Y-80070500D01*
X51376223Y-80070500D01*
X51399077Y-80074293D01*
X51437920Y-80070500D01*
X51476943Y-80070500D01*
X51489446Y-80067149D01*
X51509485Y-80063511D01*
X67433502Y-78508526D01*
X67502135Y-78521602D01*
X67507549Y-78524551D01*
X67568216Y-78559577D01*
X67720943Y-78600500D01*
X67720945Y-78600500D01*
X67879055Y-78600500D01*
X67879057Y-78600500D01*
X68031784Y-78559577D01*
X68168716Y-78480520D01*
X68280520Y-78368716D01*
X68359577Y-78231784D01*
X68400500Y-78079057D01*
X68400500Y-77920943D01*
X68359577Y-77768216D01*
X68334630Y-77725006D01*
X68280524Y-77631290D01*
X68280518Y-77631282D01*
X68168717Y-77519481D01*
X68168709Y-77519475D01*
X68031790Y-77440426D01*
X68031786Y-77440424D01*
X68031784Y-77440423D01*
X67879057Y-77399500D01*
X67720943Y-77399500D01*
X67568216Y-77440423D01*
X67568209Y-77440426D01*
X67431291Y-77519475D01*
X67431280Y-77519483D01*
X67414168Y-77536594D01*
X67352844Y-77570076D01*
X67338542Y-77572322D01*
X51398088Y-79128913D01*
X51386037Y-79129500D01*
X50718815Y-79129500D01*
X50668729Y-79118935D01*
X50619991Y-79097415D01*
X50594865Y-79094500D01*
X48235143Y-79094500D01*
X48235117Y-79094502D01*
X48210012Y-79097413D01*
X48210008Y-79097415D01*
X48107235Y-79142793D01*
X48027794Y-79222234D01*
X47982415Y-79325006D01*
X47982415Y-79325008D01*
X47979500Y-79350131D01*
X41003055Y-79350131D01*
X41039975Y-79285236D01*
X41913332Y-77750131D01*
X47979500Y-77750131D01*
X47979500Y-78249856D01*
X47979502Y-78249882D01*
X47982413Y-78274987D01*
X47982415Y-78274991D01*
X48027793Y-78377764D01*
X48027794Y-78377765D01*
X48107235Y-78457206D01*
X48210009Y-78502585D01*
X48235135Y-78505500D01*
X50594864Y-78505499D01*
X50594879Y-78505497D01*
X50594882Y-78505497D01*
X50619987Y-78502586D01*
X50619988Y-78502585D01*
X50619991Y-78502585D01*
X50657824Y-78485879D01*
X50668730Y-78481065D01*
X50718815Y-78470500D01*
X50995703Y-78470500D01*
X51057702Y-78487113D01*
X51122550Y-78524552D01*
X51183216Y-78559577D01*
X51335943Y-78600500D01*
X51335945Y-78600500D01*
X51494055Y-78600500D01*
X51494057Y-78600500D01*
X51646784Y-78559577D01*
X51783716Y-78480520D01*
X51895520Y-78368716D01*
X51974577Y-78231784D01*
X52015500Y-78079057D01*
X52015500Y-77920943D01*
X51974577Y-77768216D01*
X51949630Y-77725006D01*
X51895524Y-77631290D01*
X51895518Y-77631282D01*
X51783717Y-77519481D01*
X51783709Y-77519475D01*
X51646790Y-77440426D01*
X51646786Y-77440424D01*
X51646784Y-77440423D01*
X51494057Y-77399500D01*
X51335943Y-77399500D01*
X51183216Y-77440423D01*
X51183209Y-77440426D01*
X51057702Y-77512887D01*
X50995703Y-77529500D01*
X50718815Y-77529500D01*
X50668729Y-77518935D01*
X50619991Y-77497415D01*
X50594865Y-77494500D01*
X48235143Y-77494500D01*
X48235117Y-77494502D01*
X48210012Y-77497413D01*
X48210008Y-77497415D01*
X48107235Y-77542793D01*
X48027794Y-77622234D01*
X47982415Y-77725006D01*
X47982415Y-77725008D01*
X47979500Y-77750131D01*
X41913332Y-77750131D01*
X41922975Y-77733182D01*
X41973235Y-77684647D01*
X42030753Y-77670500D01*
X42381185Y-77670500D01*
X42431270Y-77681064D01*
X42480009Y-77702585D01*
X42505135Y-77705500D01*
X44864864Y-77705499D01*
X44864879Y-77705497D01*
X44864882Y-77705497D01*
X44889987Y-77702586D01*
X44889988Y-77702585D01*
X44889991Y-77702585D01*
X44992765Y-77657206D01*
X45072206Y-77577765D01*
X45117585Y-77474991D01*
X45120500Y-77449865D01*
X45120499Y-76950136D01*
X45120497Y-76950117D01*
X45117586Y-76925012D01*
X45117585Y-76925010D01*
X45117585Y-76925009D01*
X45072206Y-76822235D01*
X44992765Y-76742794D01*
X44889992Y-76697415D01*
X44864865Y-76694500D01*
X42505143Y-76694500D01*
X42505117Y-76694502D01*
X42480012Y-76697413D01*
X42480010Y-76697414D01*
X42431270Y-76718935D01*
X42381185Y-76729500D01*
X41745424Y-76729500D01*
X41743957Y-76729117D01*
X41683515Y-76729500D01*
X41622978Y-76729500D01*
X41621929Y-76729645D01*
X41621926Y-76729646D01*
X41620072Y-76729902D01*
X41562114Y-76745826D01*
X41561359Y-76746031D01*
X41503390Y-76761564D01*
X41501551Y-76762325D01*
X41501467Y-76762361D01*
X41500680Y-76762686D01*
X41448746Y-76793110D01*
X41448747Y-76793111D01*
X41448457Y-76793281D01*
X41396106Y-76823506D01*
X41395030Y-76824581D01*
X41393724Y-76825347D01*
X41393717Y-76825353D01*
X41393717Y-76825354D01*
X41351652Y-76867955D01*
X41351100Y-76868510D01*
X41308500Y-76911110D01*
X41307552Y-76912345D01*
X41307437Y-76912497D01*
X41306724Y-76913425D01*
X41276999Y-76965670D01*
X41276611Y-76966347D01*
X41244460Y-77022035D01*
X41241557Y-77027968D01*
X25097995Y-105403590D01*
X25052217Y-105449659D01*
X24931287Y-105519477D01*
X24931282Y-105519481D01*
X24819481Y-105631282D01*
X24819475Y-105631290D01*
X24740426Y-105768209D01*
X24740423Y-105768216D01*
X24699500Y-105920943D01*
X9500500Y-105920943D01*
X9500500Y-89920943D01*
X24699500Y-89920943D01*
X24699500Y-90079057D01*
X24740423Y-90231782D01*
X24740423Y-90231783D01*
X24740426Y-90231790D01*
X24819475Y-90368709D01*
X24819479Y-90368714D01*
X24819480Y-90368716D01*
X24931284Y-90480520D01*
X24931286Y-90480521D01*
X24931290Y-90480524D01*
X25051264Y-90549790D01*
X25068216Y-90559577D01*
X25220943Y-90600500D01*
X25220945Y-90600500D01*
X25379055Y-90600500D01*
X25379057Y-90600500D01*
X25531784Y-90559577D01*
X25668716Y-90480520D01*
X25780520Y-90368716D01*
X25859577Y-90231784D01*
X25883923Y-90140920D01*
X25920286Y-90081262D01*
X25921755Y-90079948D01*
X41771760Y-76150131D01*
X47979500Y-76150131D01*
X47979500Y-76649856D01*
X47979502Y-76649882D01*
X47982413Y-76674987D01*
X47982415Y-76674991D01*
X48027793Y-76777764D01*
X48027794Y-76777765D01*
X48107235Y-76857206D01*
X48210009Y-76902585D01*
X48235135Y-76905500D01*
X50594864Y-76905499D01*
X50594879Y-76905497D01*
X50594882Y-76905497D01*
X50619987Y-76902586D01*
X50619988Y-76902585D01*
X50619991Y-76902585D01*
X50657824Y-76885879D01*
X50668730Y-76881065D01*
X50718815Y-76870500D01*
X50995703Y-76870500D01*
X51057702Y-76887113D01*
X51183209Y-76959573D01*
X51183216Y-76959577D01*
X51335943Y-77000500D01*
X51335945Y-77000500D01*
X51494055Y-77000500D01*
X51494057Y-77000500D01*
X51646784Y-76959577D01*
X51783716Y-76880520D01*
X51895520Y-76768716D01*
X51974577Y-76631784D01*
X52015500Y-76479057D01*
X52015500Y-76320943D01*
X51974577Y-76168216D01*
X51949630Y-76125006D01*
X51895524Y-76031290D01*
X51895518Y-76031282D01*
X51783717Y-75919481D01*
X51783709Y-75919475D01*
X51646790Y-75840426D01*
X51646786Y-75840424D01*
X51646784Y-75840423D01*
X51494057Y-75799500D01*
X51335943Y-75799500D01*
X51183216Y-75840423D01*
X51183209Y-75840426D01*
X51057702Y-75912887D01*
X50995703Y-75929500D01*
X50718815Y-75929500D01*
X50668729Y-75918935D01*
X50619991Y-75897415D01*
X50594865Y-75894500D01*
X48235143Y-75894500D01*
X48235117Y-75894502D01*
X48210012Y-75897413D01*
X48210008Y-75897415D01*
X48107235Y-75942793D01*
X48027794Y-76022234D01*
X47982415Y-76125006D01*
X47982415Y-76125008D01*
X47979500Y-76150131D01*
X41771760Y-76150131D01*
X41827256Y-76101358D01*
X41890607Y-76071889D01*
X41909114Y-76070500D01*
X42381185Y-76070500D01*
X42431270Y-76081064D01*
X42480009Y-76102585D01*
X42505135Y-76105500D01*
X44864864Y-76105499D01*
X44864879Y-76105497D01*
X44864882Y-76105497D01*
X44889987Y-76102586D01*
X44889988Y-76102585D01*
X44889991Y-76102585D01*
X44992765Y-76057206D01*
X45072206Y-75977765D01*
X45117585Y-75874991D01*
X45120500Y-75849865D01*
X45120499Y-75350136D01*
X45120497Y-75350117D01*
X45117586Y-75325012D01*
X45117585Y-75325010D01*
X45117585Y-75325009D01*
X45072206Y-75222235D01*
X44992765Y-75142794D01*
X44955838Y-75126489D01*
X44889992Y-75097415D01*
X44864865Y-75094500D01*
X42505143Y-75094500D01*
X42505117Y-75094502D01*
X42480012Y-75097413D01*
X42480010Y-75097414D01*
X42431270Y-75118935D01*
X42381185Y-75129500D01*
X41700154Y-75129500D01*
X41653460Y-75126489D01*
X41638406Y-75129500D01*
X41623057Y-75129500D01*
X41581714Y-75140577D01*
X41573946Y-75142392D01*
X41531983Y-75150785D01*
X41531975Y-75150788D01*
X41529222Y-75152149D01*
X41529223Y-75152150D01*
X41518219Y-75157591D01*
X41503394Y-75161564D01*
X41462876Y-75184955D01*
X41459295Y-75186726D01*
X41459291Y-75186726D01*
X41420937Y-75205693D01*
X41420921Y-75205704D01*
X41418609Y-75207736D01*
X41398780Y-75221961D01*
X41396113Y-75223500D01*
X41396105Y-75223507D01*
X41365834Y-75253776D01*
X41360014Y-75259232D01*
X27853554Y-87129421D01*
X25378647Y-89304500D01*
X25305664Y-89368641D01*
X25242313Y-89398111D01*
X25223806Y-89399500D01*
X25220943Y-89399500D01*
X25068216Y-89440423D01*
X25068209Y-89440426D01*
X24931290Y-89519475D01*
X24931282Y-89519481D01*
X24819481Y-89631282D01*
X24819475Y-89631290D01*
X24740426Y-89768209D01*
X24740423Y-89768216D01*
X24699500Y-89920943D01*
X9500500Y-89920943D01*
X9500500Y-81920943D01*
X24699500Y-81920943D01*
X24699500Y-82079056D01*
X24740423Y-82231783D01*
X24740426Y-82231790D01*
X24819475Y-82368709D01*
X24819479Y-82368714D01*
X24819480Y-82368716D01*
X24931284Y-82480520D01*
X24931286Y-82480521D01*
X24931290Y-82480524D01*
X25051855Y-82550131D01*
X25068216Y-82559577D01*
X25220943Y-82600500D01*
X25220945Y-82600500D01*
X25379055Y-82600500D01*
X25379057Y-82600500D01*
X25531784Y-82559577D01*
X25668716Y-82480520D01*
X25780520Y-82368716D01*
X25825692Y-82290473D01*
X25876258Y-82242259D01*
X25878642Y-82241061D01*
X41767978Y-74483072D01*
X41822383Y-74470500D01*
X42381185Y-74470500D01*
X42431270Y-74481064D01*
X42480009Y-74502585D01*
X42505135Y-74505500D01*
X44864864Y-74505499D01*
X44864879Y-74505497D01*
X44864882Y-74505497D01*
X44889987Y-74502586D01*
X44889988Y-74502585D01*
X44889991Y-74502585D01*
X44992765Y-74457206D01*
X45072206Y-74377765D01*
X45117585Y-74274991D01*
X45120500Y-74249865D01*
X45120499Y-73750136D01*
X45120497Y-73750117D01*
X45117586Y-73725012D01*
X45117585Y-73725010D01*
X45117585Y-73725009D01*
X45072206Y-73622235D01*
X44992765Y-73542794D01*
X44939964Y-73519480D01*
X44889992Y-73497415D01*
X44864865Y-73494500D01*
X42505143Y-73494500D01*
X42505117Y-73494502D01*
X42480012Y-73497413D01*
X42480010Y-73497414D01*
X42431270Y-73518935D01*
X42381185Y-73529500D01*
X41701328Y-73529500D01*
X41655830Y-73526338D01*
X41639599Y-73529500D01*
X41623051Y-73529500D01*
X41583146Y-73540192D01*
X41583147Y-73540193D01*
X41578990Y-73541306D01*
X41534232Y-73550027D01*
X41519371Y-73557281D01*
X41507825Y-73560375D01*
X41507825Y-73560376D01*
X41503393Y-73561564D01*
X41467614Y-73582219D01*
X41460024Y-73586257D01*
X25471410Y-81392722D01*
X25402531Y-81404446D01*
X25384913Y-81401069D01*
X25379058Y-81399500D01*
X25379057Y-81399500D01*
X25220943Y-81399500D01*
X25068216Y-81440423D01*
X25068209Y-81440426D01*
X24931290Y-81519475D01*
X24931282Y-81519481D01*
X24819481Y-81631282D01*
X24819475Y-81631290D01*
X24740426Y-81768209D01*
X24740423Y-81768216D01*
X24699500Y-81920943D01*
X9500500Y-81920943D01*
X9500500Y-73920943D01*
X24699500Y-73920943D01*
X24699500Y-74079056D01*
X24740423Y-74231783D01*
X24740426Y-74231790D01*
X24819475Y-74368709D01*
X24819479Y-74368714D01*
X24819480Y-74368716D01*
X24931284Y-74480520D01*
X24931286Y-74480521D01*
X24931290Y-74480524D01*
X25068209Y-74559573D01*
X25068216Y-74559577D01*
X25220943Y-74600500D01*
X25220945Y-74600500D01*
X25379055Y-74600500D01*
X25379057Y-74600500D01*
X25531784Y-74559577D01*
X25668716Y-74480520D01*
X25685824Y-74463411D01*
X25747145Y-74429924D01*
X25761452Y-74427676D01*
X41379342Y-72902586D01*
X41701912Y-72871087D01*
X41713963Y-72870500D01*
X42381185Y-72870500D01*
X42431270Y-72881064D01*
X42480009Y-72902585D01*
X42505135Y-72905500D01*
X44864864Y-72905499D01*
X44864879Y-72905497D01*
X44864882Y-72905497D01*
X44889987Y-72902586D01*
X44889988Y-72902585D01*
X44889991Y-72902585D01*
X44992765Y-72857206D01*
X45072206Y-72777765D01*
X45117585Y-72674991D01*
X45120500Y-72649865D01*
X45120499Y-72150136D01*
X45120497Y-72150117D01*
X45117586Y-72125012D01*
X45117585Y-72125010D01*
X45117585Y-72125009D01*
X45072206Y-72022235D01*
X44992765Y-71942794D01*
X44962657Y-71929500D01*
X44889992Y-71897415D01*
X44864865Y-71894500D01*
X42505143Y-71894500D01*
X42505117Y-71894502D01*
X42480012Y-71897413D01*
X42480010Y-71897414D01*
X42431270Y-71918935D01*
X42381185Y-71929500D01*
X41723777Y-71929500D01*
X41700923Y-71925707D01*
X41662080Y-71929500D01*
X41623051Y-71929500D01*
X41610547Y-71932851D01*
X41590509Y-71936488D01*
X25666497Y-73491472D01*
X25597862Y-73478396D01*
X25592446Y-73475446D01*
X25531786Y-73440424D01*
X25531785Y-73440423D01*
X25531784Y-73440423D01*
X25379057Y-73399500D01*
X25220943Y-73399500D01*
X25068216Y-73440423D01*
X25068209Y-73440426D01*
X24931290Y-73519475D01*
X24931282Y-73519481D01*
X24819481Y-73631282D01*
X24819475Y-73631290D01*
X24740426Y-73768209D01*
X24740423Y-73768216D01*
X24699500Y-73920943D01*
X9500500Y-73920943D01*
X9500500Y-65920943D01*
X24699500Y-65920943D01*
X24699500Y-66079056D01*
X24740423Y-66231783D01*
X24740426Y-66231790D01*
X24819475Y-66368709D01*
X24819479Y-66368714D01*
X24819480Y-66368716D01*
X24931284Y-66480520D01*
X24931286Y-66480521D01*
X24931290Y-66480524D01*
X24979792Y-66508526D01*
X25068216Y-66559577D01*
X25220943Y-66600500D01*
X25220945Y-66600500D01*
X25379055Y-66600500D01*
X25379057Y-66600500D01*
X25531784Y-66559577D01*
X25592447Y-66524553D01*
X25660346Y-66508079D01*
X25666472Y-66508524D01*
X41600681Y-68064504D01*
X41623057Y-68070500D01*
X41662080Y-68070500D01*
X41700923Y-68074293D01*
X41713697Y-68072173D01*
X41733997Y-68070500D01*
X42381185Y-68070500D01*
X42431270Y-68081064D01*
X42480009Y-68102585D01*
X42505135Y-68105500D01*
X44864864Y-68105499D01*
X44864879Y-68105497D01*
X44864882Y-68105497D01*
X44889987Y-68102586D01*
X44889988Y-68102585D01*
X44889991Y-68102585D01*
X44992765Y-68057206D01*
X45072206Y-67977765D01*
X45117585Y-67874991D01*
X45120500Y-67849865D01*
X45120499Y-67350136D01*
X45120499Y-67350135D01*
X45120499Y-67350131D01*
X47979500Y-67350131D01*
X47979500Y-67849856D01*
X47979502Y-67849882D01*
X47982413Y-67874987D01*
X47982415Y-67874991D01*
X48027793Y-67977764D01*
X48027794Y-67977765D01*
X48107235Y-68057206D01*
X48210009Y-68102585D01*
X48235135Y-68105500D01*
X48820500Y-68105499D01*
X48887539Y-68125183D01*
X48933294Y-68177987D01*
X48944500Y-68229499D01*
X48944500Y-71770500D01*
X48924815Y-71837539D01*
X48872011Y-71883294D01*
X48820500Y-71894500D01*
X48235143Y-71894500D01*
X48235117Y-71894502D01*
X48210012Y-71897413D01*
X48210008Y-71897415D01*
X48107235Y-71942793D01*
X48027794Y-72022234D01*
X47982415Y-72125006D01*
X47982415Y-72125008D01*
X47979500Y-72150131D01*
X47979500Y-72649856D01*
X47979502Y-72649882D01*
X47982413Y-72674987D01*
X47982415Y-72674991D01*
X48027793Y-72777764D01*
X48027794Y-72777765D01*
X48107235Y-72857206D01*
X48210009Y-72902585D01*
X48235135Y-72905500D01*
X50594864Y-72905499D01*
X50594879Y-72905497D01*
X50594882Y-72905497D01*
X50619987Y-72902586D01*
X50619988Y-72902585D01*
X50619991Y-72902585D01*
X50657824Y-72885879D01*
X50668730Y-72881065D01*
X50718815Y-72870500D01*
X51387594Y-72870500D01*
X51421900Y-72874510D01*
X51449277Y-72870500D01*
X51476943Y-72870500D01*
X51503332Y-72863428D01*
X51517429Y-72860516D01*
X67456347Y-70525856D01*
X67525530Y-70535617D01*
X67536314Y-70541158D01*
X67568216Y-70559577D01*
X67720943Y-70600500D01*
X67720945Y-70600500D01*
X67879055Y-70600500D01*
X67879057Y-70600500D01*
X68031784Y-70559577D01*
X68168716Y-70480520D01*
X68280520Y-70368716D01*
X68359577Y-70231784D01*
X68400500Y-70079057D01*
X68400500Y-69920943D01*
X68359577Y-69768216D01*
X68359573Y-69768209D01*
X68280524Y-69631290D01*
X68280518Y-69631282D01*
X68168717Y-69519481D01*
X68168709Y-69519475D01*
X68031790Y-69440426D01*
X68031786Y-69440424D01*
X68031784Y-69440423D01*
X67879057Y-69399500D01*
X67720943Y-69399500D01*
X67568216Y-69440423D01*
X67568209Y-69440426D01*
X67431283Y-69519479D01*
X67391203Y-69559559D01*
X67329880Y-69593043D01*
X67321494Y-69594568D01*
X51389663Y-71928191D01*
X51371692Y-71929500D01*
X50718815Y-71929500D01*
X50668729Y-71918935D01*
X50619991Y-71897415D01*
X50613709Y-71896686D01*
X50594868Y-71894500D01*
X50594865Y-71894500D01*
X50009500Y-71894500D01*
X49942461Y-71874815D01*
X49896706Y-71822011D01*
X49885500Y-71770500D01*
X49885500Y-68229499D01*
X49905185Y-68162460D01*
X49957989Y-68116705D01*
X50009500Y-68105499D01*
X50594856Y-68105499D01*
X50594864Y-68105499D01*
X50594879Y-68105497D01*
X50594882Y-68105497D01*
X50619987Y-68102586D01*
X50619988Y-68102585D01*
X50619991Y-68102585D01*
X50722765Y-68057206D01*
X50802206Y-67977765D01*
X50847585Y-67874991D01*
X50850500Y-67849865D01*
X50850499Y-67350136D01*
X50850497Y-67350117D01*
X50847586Y-67325012D01*
X50847585Y-67325010D01*
X50847585Y-67325009D01*
X50802206Y-67222235D01*
X50722765Y-67142794D01*
X50692657Y-67129500D01*
X50619992Y-67097415D01*
X50594865Y-67094500D01*
X48235143Y-67094500D01*
X48235117Y-67094502D01*
X48210012Y-67097413D01*
X48210008Y-67097415D01*
X48107235Y-67142793D01*
X48027794Y-67222234D01*
X47982415Y-67325006D01*
X47982415Y-67325008D01*
X47979500Y-67350131D01*
X45120499Y-67350131D01*
X45120499Y-67350130D01*
X45117586Y-67325012D01*
X45117585Y-67325010D01*
X45117585Y-67325009D01*
X45072206Y-67222235D01*
X44992765Y-67142794D01*
X44962657Y-67129500D01*
X44889992Y-67097415D01*
X44864865Y-67094500D01*
X42505143Y-67094500D01*
X42505117Y-67094502D01*
X42480012Y-67097413D01*
X42480010Y-67097414D01*
X42431270Y-67118935D01*
X42381185Y-67129500D01*
X41713963Y-67129500D01*
X41701912Y-67128913D01*
X25761456Y-65572322D01*
X25696647Y-65546215D01*
X25685826Y-65536590D01*
X25668717Y-65519481D01*
X25668709Y-65519475D01*
X25531790Y-65440426D01*
X25531786Y-65440424D01*
X25531784Y-65440423D01*
X25379057Y-65399500D01*
X25220943Y-65399500D01*
X25068216Y-65440423D01*
X25068209Y-65440426D01*
X24931290Y-65519475D01*
X24931282Y-65519481D01*
X24819481Y-65631282D01*
X24819475Y-65631290D01*
X24740426Y-65768209D01*
X24740423Y-65768216D01*
X24699500Y-65920943D01*
X9500500Y-65920943D01*
X9500500Y-57920943D01*
X24699500Y-57920943D01*
X24699500Y-58079056D01*
X24740423Y-58231783D01*
X24740426Y-58231790D01*
X24819475Y-58368709D01*
X24819479Y-58368714D01*
X24819480Y-58368716D01*
X24931284Y-58480520D01*
X24931286Y-58480521D01*
X24931290Y-58480524D01*
X25051855Y-58550131D01*
X25068216Y-58559577D01*
X25220943Y-58600500D01*
X25220945Y-58600500D01*
X25379054Y-58600500D01*
X25379057Y-58600500D01*
X25384908Y-58598932D01*
X25454754Y-58600590D01*
X25471408Y-58607275D01*
X35535217Y-63520945D01*
X41460022Y-66413740D01*
X41460021Y-66413740D01*
X41463892Y-66415630D01*
X41503394Y-66438436D01*
X41519370Y-66442717D01*
X41534232Y-66449973D01*
X41574771Y-66457870D01*
X41583124Y-66459799D01*
X41623057Y-66470500D01*
X41623060Y-66470500D01*
X41639599Y-66470500D01*
X41655830Y-66473662D01*
X41701328Y-66470500D01*
X42381185Y-66470500D01*
X42431270Y-66481064D01*
X42480009Y-66502585D01*
X42505135Y-66505500D01*
X44864864Y-66505499D01*
X44864879Y-66505497D01*
X44864882Y-66505497D01*
X44889987Y-66502586D01*
X44889988Y-66502585D01*
X44889991Y-66502585D01*
X44992765Y-66457206D01*
X45072206Y-66377765D01*
X45117585Y-66274991D01*
X45120500Y-66249865D01*
X45120499Y-65750136D01*
X45120497Y-65750117D01*
X45117586Y-65725012D01*
X45117585Y-65725010D01*
X45117585Y-65725009D01*
X45072206Y-65622235D01*
X44992765Y-65542794D01*
X44939964Y-65519480D01*
X44889992Y-65497415D01*
X44864865Y-65494500D01*
X42505143Y-65494500D01*
X42505117Y-65494502D01*
X42480012Y-65497413D01*
X42480010Y-65497414D01*
X42431270Y-65518935D01*
X42381185Y-65529500D01*
X41822383Y-65529500D01*
X41767978Y-65516928D01*
X25878673Y-57758952D01*
X25827067Y-57711850D01*
X25825726Y-57709584D01*
X25780520Y-57631284D01*
X25668716Y-57519480D01*
X25668714Y-57519479D01*
X25668709Y-57519475D01*
X25531790Y-57440426D01*
X25531786Y-57440424D01*
X25531784Y-57440423D01*
X25379057Y-57399500D01*
X25220943Y-57399500D01*
X25068216Y-57440423D01*
X25068209Y-57440426D01*
X24931290Y-57519475D01*
X24931282Y-57519481D01*
X24819481Y-57631282D01*
X24819475Y-57631290D01*
X24740426Y-57768209D01*
X24740423Y-57768216D01*
X24699500Y-57920943D01*
X9500500Y-57920943D01*
X9500500Y-49920943D01*
X24699500Y-49920943D01*
X24699500Y-50079056D01*
X24740423Y-50231783D01*
X24740426Y-50231790D01*
X24819475Y-50368709D01*
X24819479Y-50368714D01*
X24819480Y-50368716D01*
X24931284Y-50480520D01*
X24931286Y-50480521D01*
X24931290Y-50480524D01*
X25068209Y-50559573D01*
X25068216Y-50559577D01*
X25220943Y-50600500D01*
X25223806Y-50600500D01*
X25226131Y-50601182D01*
X25229003Y-50601561D01*
X25228944Y-50602008D01*
X25290845Y-50620185D01*
X25305662Y-50631358D01*
X41363018Y-64743406D01*
X41396106Y-64776494D01*
X41409400Y-64784169D01*
X41420931Y-64794303D01*
X41459295Y-64813273D01*
X41459294Y-64813273D01*
X41462882Y-64815047D01*
X41503394Y-64838436D01*
X41518219Y-64842408D01*
X41529227Y-64847851D01*
X41529228Y-64847852D01*
X41529231Y-64847853D01*
X41531981Y-64849213D01*
X41567842Y-64856385D01*
X41573954Y-64857608D01*
X41573956Y-64857609D01*
X41577873Y-64858392D01*
X41623057Y-64870500D01*
X41638405Y-64870500D01*
X41650439Y-64872907D01*
X41650443Y-64872908D01*
X41652021Y-64873223D01*
X41653458Y-64873510D01*
X41653459Y-64873511D01*
X41653459Y-64873510D01*
X41653460Y-64873511D01*
X41681822Y-64871682D01*
X41696169Y-64870757D01*
X41704148Y-64870500D01*
X42381185Y-64870500D01*
X42431270Y-64881064D01*
X42480009Y-64902585D01*
X42505135Y-64905500D01*
X44864864Y-64905499D01*
X44864879Y-64905497D01*
X44864882Y-64905497D01*
X44889987Y-64902586D01*
X44889988Y-64902585D01*
X44889991Y-64902585D01*
X44992765Y-64857206D01*
X45072206Y-64777765D01*
X45117585Y-64674991D01*
X45120500Y-64649865D01*
X45120499Y-64150136D01*
X45120497Y-64150117D01*
X45117586Y-64125012D01*
X45117585Y-64125010D01*
X45117585Y-64125009D01*
X45072206Y-64022235D01*
X44992765Y-63942794D01*
X44962657Y-63929500D01*
X44889992Y-63897415D01*
X44864865Y-63894500D01*
X42505143Y-63894500D01*
X42505117Y-63894502D01*
X42480012Y-63897413D01*
X42480010Y-63897414D01*
X42431270Y-63918935D01*
X42381185Y-63929500D01*
X41909114Y-63929500D01*
X41842075Y-63909815D01*
X41827256Y-63898641D01*
X41822546Y-63894502D01*
X41203135Y-63350131D01*
X47979500Y-63350131D01*
X47979500Y-63849856D01*
X47979502Y-63849882D01*
X47982413Y-63874987D01*
X47982415Y-63874991D01*
X48027793Y-63977764D01*
X48027794Y-63977765D01*
X48107235Y-64057206D01*
X48210009Y-64102585D01*
X48235135Y-64105500D01*
X50594864Y-64105499D01*
X50594879Y-64105497D01*
X50594882Y-64105497D01*
X50619987Y-64102586D01*
X50619988Y-64102585D01*
X50619991Y-64102585D01*
X50657824Y-64085879D01*
X50668730Y-64081065D01*
X50718815Y-64070500D01*
X50995703Y-64070500D01*
X51057702Y-64087113D01*
X51183209Y-64159573D01*
X51183216Y-64159577D01*
X51335943Y-64200500D01*
X51335945Y-64200500D01*
X51494055Y-64200500D01*
X51494057Y-64200500D01*
X51646784Y-64159577D01*
X51783716Y-64080520D01*
X51895520Y-63968716D01*
X51974577Y-63831784D01*
X52015500Y-63679057D01*
X52015500Y-63520943D01*
X51974577Y-63368216D01*
X51949630Y-63325006D01*
X51895524Y-63231290D01*
X51895518Y-63231282D01*
X51783717Y-63119481D01*
X51783709Y-63119475D01*
X51646790Y-63040426D01*
X51646786Y-63040424D01*
X51646784Y-63040423D01*
X51494057Y-62999500D01*
X51335943Y-62999500D01*
X51183216Y-63040423D01*
X51183209Y-63040426D01*
X51057702Y-63112887D01*
X50995703Y-63129500D01*
X50718815Y-63129500D01*
X50668729Y-63118935D01*
X50619991Y-63097415D01*
X50594865Y-63094500D01*
X48235143Y-63094500D01*
X48235117Y-63094502D01*
X48210012Y-63097413D01*
X48210008Y-63097415D01*
X48107235Y-63142793D01*
X48027794Y-63222234D01*
X47982415Y-63325006D01*
X47982415Y-63325008D01*
X47979500Y-63350131D01*
X41203135Y-63350131D01*
X37562029Y-60150135D01*
X25921840Y-49920124D01*
X25884479Y-49861083D01*
X25883923Y-49859077D01*
X25859576Y-49768214D01*
X25859573Y-49768209D01*
X25780524Y-49631290D01*
X25780518Y-49631282D01*
X25668717Y-49519481D01*
X25668709Y-49519475D01*
X25531790Y-49440426D01*
X25531786Y-49440424D01*
X25531784Y-49440423D01*
X25379057Y-49399500D01*
X25220943Y-49399500D01*
X25068216Y-49440423D01*
X25068209Y-49440426D01*
X24931290Y-49519475D01*
X24931282Y-49519481D01*
X24819481Y-49631282D01*
X24819475Y-49631290D01*
X24740426Y-49768209D01*
X24740423Y-49768216D01*
X24699500Y-49920943D01*
X9500500Y-49920943D01*
X9500500Y-33920943D01*
X24699500Y-33920943D01*
X24699500Y-34079056D01*
X24740423Y-34231783D01*
X24740426Y-34231790D01*
X24819475Y-34368709D01*
X24819479Y-34368714D01*
X24819480Y-34368716D01*
X24931284Y-34480520D01*
X25052219Y-34550341D01*
X25097995Y-34596408D01*
X41246171Y-62980139D01*
X41246564Y-62981606D01*
X41276826Y-63034022D01*
X41306682Y-63086500D01*
X41306726Y-63086577D01*
X41307391Y-63087442D01*
X41308505Y-63088893D01*
X41351097Y-63131485D01*
X41351652Y-63132044D01*
X41393716Y-63174646D01*
X41393720Y-63174649D01*
X41393724Y-63174653D01*
X41393728Y-63174655D01*
X41395297Y-63175875D01*
X41395297Y-63175876D01*
X41395308Y-63175884D01*
X41396053Y-63176463D01*
X41396105Y-63176493D01*
X41396106Y-63176494D01*
X41443786Y-63204021D01*
X41448088Y-63206505D01*
X41448770Y-63206902D01*
X41495343Y-63234187D01*
X41500616Y-63237276D01*
X41500622Y-63237277D01*
X41502298Y-63237984D01*
X41502348Y-63238005D01*
X41503326Y-63238417D01*
X41503391Y-63238434D01*
X41503394Y-63238436D01*
X41561649Y-63254044D01*
X41561747Y-63254071D01*
X41620074Y-63270098D01*
X41620076Y-63270098D01*
X41621779Y-63270333D01*
X41621918Y-63270352D01*
X41622990Y-63270500D01*
X41623057Y-63270500D01*
X41683045Y-63270500D01*
X41683830Y-63270502D01*
X41684157Y-63270504D01*
X41743957Y-63270883D01*
X41743959Y-63270882D01*
X41748182Y-63270909D01*
X41754748Y-63270500D01*
X42381185Y-63270500D01*
X42431270Y-63281064D01*
X42480009Y-63302585D01*
X42505135Y-63305500D01*
X44864864Y-63305499D01*
X44864879Y-63305497D01*
X44864882Y-63305497D01*
X44889987Y-63302586D01*
X44889988Y-63302585D01*
X44889991Y-63302585D01*
X44992765Y-63257206D01*
X45072206Y-63177765D01*
X45117585Y-63074991D01*
X45120500Y-63049865D01*
X45120499Y-62550136D01*
X45120497Y-62550117D01*
X45117586Y-62525012D01*
X45117585Y-62525010D01*
X45117585Y-62525009D01*
X45072206Y-62422235D01*
X44992765Y-62342794D01*
X44962657Y-62329500D01*
X44889992Y-62297415D01*
X44864865Y-62294500D01*
X42505143Y-62294500D01*
X42505117Y-62294502D01*
X42480012Y-62297413D01*
X42480010Y-62297414D01*
X42431270Y-62318935D01*
X42381185Y-62329500D01*
X42030753Y-62329500D01*
X41963714Y-62309815D01*
X41922975Y-62266818D01*
X41661870Y-61807872D01*
X41629020Y-61750131D01*
X47979500Y-61750131D01*
X47979500Y-62249856D01*
X47979502Y-62249882D01*
X47982413Y-62274987D01*
X47982415Y-62274991D01*
X48027793Y-62377764D01*
X48027794Y-62377765D01*
X48107235Y-62457206D01*
X48210009Y-62502585D01*
X48235135Y-62505500D01*
X50594864Y-62505499D01*
X50594879Y-62505497D01*
X50594882Y-62505497D01*
X50619987Y-62502586D01*
X50619988Y-62502585D01*
X50619991Y-62502585D01*
X50657824Y-62485879D01*
X50668730Y-62481065D01*
X50718815Y-62470500D01*
X50995703Y-62470500D01*
X51057702Y-62487113D01*
X51183209Y-62559573D01*
X51183216Y-62559577D01*
X51335943Y-62600500D01*
X51335945Y-62600500D01*
X51494055Y-62600500D01*
X51494057Y-62600500D01*
X51646784Y-62559577D01*
X51783716Y-62480520D01*
X51895520Y-62368716D01*
X51974577Y-62231784D01*
X52015500Y-62079057D01*
X52015500Y-61920943D01*
X51974577Y-61768216D01*
X51949630Y-61725006D01*
X51895524Y-61631290D01*
X51895518Y-61631282D01*
X51783717Y-61519481D01*
X51783709Y-61519475D01*
X51646790Y-61440426D01*
X51646786Y-61440424D01*
X51646784Y-61440423D01*
X51494057Y-61399500D01*
X51335943Y-61399500D01*
X51183216Y-61440423D01*
X51183209Y-61440426D01*
X51057702Y-61512887D01*
X50995703Y-61529500D01*
X50718815Y-61529500D01*
X50668729Y-61518935D01*
X50619991Y-61497415D01*
X50594865Y-61494500D01*
X48235143Y-61494500D01*
X48235117Y-61494502D01*
X48210012Y-61497413D01*
X48210008Y-61497415D01*
X48107235Y-61542793D01*
X48027794Y-61622234D01*
X47982415Y-61725006D01*
X47982415Y-61725008D01*
X47979500Y-61750131D01*
X41629020Y-61750131D01*
X40718742Y-60150131D01*
X47979500Y-60150131D01*
X47979500Y-60649856D01*
X47979502Y-60649882D01*
X47982413Y-60674987D01*
X47982415Y-60674991D01*
X48027793Y-60777764D01*
X48027794Y-60777765D01*
X48107235Y-60857206D01*
X48210009Y-60902585D01*
X48235135Y-60905500D01*
X50594864Y-60905499D01*
X50594879Y-60905497D01*
X50594882Y-60905497D01*
X50619987Y-60902586D01*
X50619988Y-60902585D01*
X50619991Y-60902585D01*
X50657824Y-60885879D01*
X50668730Y-60881065D01*
X50718815Y-60870500D01*
X51386037Y-60870500D01*
X51398088Y-60871087D01*
X51720658Y-60902586D01*
X67338542Y-62427676D01*
X67403351Y-62453783D01*
X67414172Y-62463408D01*
X67431284Y-62480520D01*
X67431286Y-62480521D01*
X67431290Y-62480524D01*
X67551876Y-62550143D01*
X67568216Y-62559577D01*
X67720943Y-62600500D01*
X67720945Y-62600500D01*
X67879055Y-62600500D01*
X67879057Y-62600500D01*
X68031784Y-62559577D01*
X68168716Y-62480520D01*
X68280520Y-62368716D01*
X68359577Y-62231784D01*
X68400500Y-62079057D01*
X68400500Y-61920943D01*
X68359577Y-61768216D01*
X68334630Y-61725006D01*
X68280524Y-61631290D01*
X68280518Y-61631282D01*
X68168717Y-61519481D01*
X68168709Y-61519475D01*
X68031790Y-61440426D01*
X68031786Y-61440424D01*
X68031784Y-61440423D01*
X67879057Y-61399500D01*
X67720943Y-61399500D01*
X67568216Y-61440423D01*
X67568211Y-61440425D01*
X67507549Y-61475447D01*
X67439648Y-61491918D01*
X67433500Y-61491472D01*
X51509488Y-59936488D01*
X51509488Y-59936487D01*
X51499312Y-59935493D01*
X51476943Y-59929500D01*
X51437922Y-59929500D01*
X51431910Y-59928913D01*
X51431909Y-59928913D01*
X51399078Y-59925707D01*
X51399077Y-59925707D01*
X51386303Y-59927827D01*
X51366003Y-59929500D01*
X50718815Y-59929500D01*
X50668729Y-59918935D01*
X50619991Y-59897415D01*
X50594865Y-59894500D01*
X48235143Y-59894500D01*
X48235117Y-59894502D01*
X48210012Y-59897413D01*
X48210008Y-59897415D01*
X48107235Y-59942793D01*
X48027794Y-60022234D01*
X47982415Y-60125006D01*
X47982415Y-60125008D01*
X47979500Y-60150131D01*
X40718742Y-60150131D01*
X39808464Y-58550131D01*
X47979500Y-58550131D01*
X47979500Y-59049856D01*
X47979502Y-59049882D01*
X47982413Y-59074987D01*
X47982415Y-59074991D01*
X48027793Y-59177764D01*
X48027794Y-59177765D01*
X48107235Y-59257206D01*
X48210009Y-59302585D01*
X48235135Y-59305500D01*
X50594864Y-59305499D01*
X50594879Y-59305497D01*
X50594882Y-59305497D01*
X50619987Y-59302586D01*
X50619988Y-59302585D01*
X50619991Y-59302585D01*
X50657824Y-59285879D01*
X50668730Y-59281065D01*
X50718815Y-59270500D01*
X51358597Y-59270500D01*
X51363978Y-59271809D01*
X51420447Y-59270500D01*
X51476943Y-59270500D01*
X51476943Y-59270499D01*
X51482368Y-59269785D01*
X51482394Y-59269783D01*
X51482418Y-59269778D01*
X51487823Y-59268938D01*
X51487830Y-59268938D01*
X51540706Y-59253447D01*
X51543407Y-59252689D01*
X51596606Y-59238436D01*
X51596616Y-59238430D01*
X51601673Y-59236336D01*
X51614260Y-59231898D01*
X67532349Y-54568680D01*
X67599296Y-54567905D01*
X67720943Y-54600500D01*
X67720946Y-54600500D01*
X67879055Y-54600500D01*
X67879057Y-54600500D01*
X68031784Y-54559577D01*
X68168716Y-54480520D01*
X68280520Y-54368716D01*
X68359577Y-54231784D01*
X68400500Y-54079057D01*
X68400500Y-53920943D01*
X68359577Y-53768216D01*
X68334630Y-53725006D01*
X68280524Y-53631290D01*
X68280518Y-53631282D01*
X68168717Y-53519481D01*
X68168709Y-53519475D01*
X68031790Y-53440426D01*
X68031786Y-53440424D01*
X68031784Y-53440423D01*
X67879057Y-53399500D01*
X67720943Y-53399500D01*
X67568216Y-53440423D01*
X67568209Y-53440426D01*
X67431290Y-53519475D01*
X67431286Y-53519478D01*
X67314719Y-53636045D01*
X67261899Y-53667362D01*
X51364574Y-58324499D01*
X51329713Y-58329500D01*
X50718815Y-58329500D01*
X50668729Y-58318935D01*
X50619991Y-58297415D01*
X50594865Y-58294500D01*
X48235143Y-58294500D01*
X48235117Y-58294502D01*
X48210012Y-58297413D01*
X48210008Y-58297415D01*
X48107235Y-58342793D01*
X48027794Y-58422234D01*
X47982415Y-58525006D01*
X47982415Y-58525008D01*
X47979500Y-58550131D01*
X39808464Y-58550131D01*
X38931036Y-57007872D01*
X38898186Y-56950131D01*
X47979500Y-56950131D01*
X47979500Y-57449856D01*
X47979502Y-57449882D01*
X47982413Y-57474987D01*
X47982415Y-57474991D01*
X48027793Y-57577764D01*
X48027794Y-57577765D01*
X48107235Y-57657206D01*
X48210009Y-57702585D01*
X48235135Y-57705500D01*
X50594864Y-57705499D01*
X50594879Y-57705497D01*
X50594882Y-57705497D01*
X50619987Y-57702586D01*
X50619988Y-57702585D01*
X50619991Y-57702585D01*
X50657824Y-57685879D01*
X50668730Y-57681065D01*
X50718815Y-57670500D01*
X51371165Y-57670500D01*
X51388961Y-57673845D01*
X51432886Y-57670500D01*
X51476943Y-57670500D01*
X51483278Y-57668802D01*
X51505963Y-57664934D01*
X51512489Y-57664438D01*
X51554054Y-57649837D01*
X51596606Y-57638436D01*
X51612284Y-57629384D01*
X51629372Y-57623382D01*
X51665745Y-57598518D01*
X51703894Y-57576494D01*
X51716697Y-57563690D01*
X67723613Y-46622129D01*
X67790067Y-46600550D01*
X67793588Y-46600500D01*
X67879055Y-46600500D01*
X67879057Y-46600500D01*
X68031784Y-46559577D01*
X68168716Y-46480520D01*
X68280520Y-46368716D01*
X68359577Y-46231784D01*
X68400500Y-46079057D01*
X68400500Y-45920943D01*
X68359577Y-45768216D01*
X68359573Y-45768209D01*
X68280524Y-45631290D01*
X68280518Y-45631282D01*
X68168717Y-45519481D01*
X68168709Y-45519475D01*
X68031790Y-45440426D01*
X68031786Y-45440424D01*
X68031784Y-45440423D01*
X67879057Y-45399500D01*
X67720943Y-45399500D01*
X67568216Y-45440423D01*
X67568209Y-45440426D01*
X67431290Y-45519475D01*
X67431282Y-45519481D01*
X67319481Y-45631282D01*
X67319477Y-45631287D01*
X67240424Y-45768212D01*
X67240423Y-45768214D01*
X67237754Y-45778176D01*
X67201387Y-45837835D01*
X67187955Y-45848448D01*
X58307159Y-51918935D01*
X51320761Y-56694502D01*
X51301204Y-56707870D01*
X51234750Y-56729450D01*
X51231229Y-56729500D01*
X50718815Y-56729500D01*
X50668729Y-56718935D01*
X50643669Y-56707870D01*
X50619991Y-56697415D01*
X50594865Y-56694500D01*
X48235143Y-56694500D01*
X48235117Y-56694502D01*
X48210012Y-56697413D01*
X48210008Y-56697415D01*
X48107235Y-56742793D01*
X48027794Y-56822234D01*
X47982415Y-56925006D01*
X47982415Y-56925008D01*
X47979500Y-56950131D01*
X38898186Y-56950131D01*
X36200203Y-52207872D01*
X36167353Y-52150131D01*
X42249500Y-52150131D01*
X42249500Y-52649856D01*
X42249502Y-52649882D01*
X42252413Y-52674987D01*
X42252415Y-52674991D01*
X42285496Y-52749913D01*
X42294568Y-52819191D01*
X42285497Y-52850085D01*
X42252415Y-52925009D01*
X42249500Y-52950131D01*
X42249500Y-53449856D01*
X42249502Y-53449882D01*
X42252413Y-53474987D01*
X42252415Y-53474991D01*
X42297793Y-53577764D01*
X42297794Y-53577765D01*
X42377235Y-53657206D01*
X42480009Y-53702585D01*
X42505135Y-53705500D01*
X44864864Y-53705499D01*
X44864879Y-53705497D01*
X44864882Y-53705497D01*
X44889987Y-53702586D01*
X44889988Y-53702585D01*
X44889991Y-53702585D01*
X44992765Y-53657206D01*
X45072206Y-53577765D01*
X45117585Y-53474991D01*
X45120500Y-53449865D01*
X45120499Y-52950136D01*
X45120497Y-52950117D01*
X45117586Y-52925012D01*
X45117585Y-52925011D01*
X45117585Y-52925009D01*
X45084502Y-52850084D01*
X45075431Y-52780809D01*
X45084501Y-52749918D01*
X45117585Y-52674991D01*
X45120500Y-52649865D01*
X45120499Y-52150136D01*
X45120499Y-52150135D01*
X45120499Y-52150131D01*
X47979500Y-52150131D01*
X47979500Y-52649856D01*
X47979502Y-52649882D01*
X47982413Y-52674987D01*
X47982415Y-52674991D01*
X48027793Y-52777764D01*
X48027794Y-52777765D01*
X48107235Y-52857206D01*
X48210009Y-52902585D01*
X48235135Y-52905500D01*
X50594864Y-52905499D01*
X50594879Y-52905497D01*
X50594882Y-52905497D01*
X50619987Y-52902586D01*
X50619988Y-52902585D01*
X50619991Y-52902585D01*
X50667423Y-52881642D01*
X50668730Y-52881065D01*
X50718815Y-52870500D01*
X51345567Y-52870500D01*
X51349985Y-52870579D01*
X51362225Y-52871015D01*
X51366847Y-52872110D01*
X51381172Y-52871690D01*
X51385188Y-52871834D01*
X51414665Y-52881642D01*
X51444724Y-52889520D01*
X51447537Y-52892581D01*
X51451483Y-52893894D01*
X51470979Y-52918084D01*
X51492007Y-52940961D01*
X51492719Y-52945058D01*
X51495328Y-52948295D01*
X51498650Y-52979184D01*
X51503972Y-53009798D01*
X51502398Y-53014025D01*
X51502801Y-53017764D01*
X51495808Y-53031735D01*
X51483180Y-53065671D01*
X51272486Y-53374287D01*
X51203735Y-53474993D01*
X51203446Y-53475416D01*
X51149390Y-53519684D01*
X51101036Y-53529500D01*
X50718815Y-53529500D01*
X50668729Y-53518935D01*
X50619991Y-53497415D01*
X50594865Y-53494500D01*
X48235143Y-53494500D01*
X48235117Y-53494502D01*
X48210012Y-53497413D01*
X48210008Y-53497415D01*
X48107235Y-53542793D01*
X48027794Y-53622234D01*
X47982415Y-53725006D01*
X47982415Y-53725008D01*
X47979500Y-53750131D01*
X47979500Y-54249856D01*
X47979502Y-54249882D01*
X47982413Y-54274987D01*
X47982415Y-54274991D01*
X48027793Y-54377764D01*
X48027794Y-54377765D01*
X48107235Y-54457206D01*
X48210009Y-54502585D01*
X48235135Y-54505500D01*
X50594864Y-54505499D01*
X50594879Y-54505497D01*
X50594882Y-54505497D01*
X50619987Y-54502586D01*
X50619988Y-54502585D01*
X50619991Y-54502585D01*
X50657824Y-54485879D01*
X50668730Y-54481065D01*
X50718815Y-54470500D01*
X51397249Y-54470500D01*
X51441311Y-54473830D01*
X51458971Y-54470500D01*
X51476943Y-54470500D01*
X51515140Y-54460264D01*
X51524202Y-54458199D01*
X51530416Y-54457028D01*
X51599940Y-54463959D01*
X51654681Y-54507378D01*
X51677258Y-54573500D01*
X51660503Y-54641331D01*
X51644133Y-54663376D01*
X51246969Y-55089992D01*
X51186881Y-55125647D01*
X51156211Y-55129500D01*
X50718815Y-55129500D01*
X50668729Y-55118935D01*
X50619991Y-55097415D01*
X50594865Y-55094500D01*
X48235143Y-55094500D01*
X48235117Y-55094502D01*
X48210012Y-55097413D01*
X48210008Y-55097415D01*
X48107235Y-55142793D01*
X48027794Y-55222234D01*
X47982415Y-55325006D01*
X47982415Y-55325008D01*
X47979500Y-55350131D01*
X47979500Y-55849856D01*
X47979502Y-55849882D01*
X47982413Y-55874987D01*
X47982415Y-55874991D01*
X48027793Y-55977764D01*
X48027794Y-55977765D01*
X48107235Y-56057206D01*
X48210009Y-56102585D01*
X48235135Y-56105500D01*
X50594864Y-56105499D01*
X50594879Y-56105497D01*
X50594882Y-56105497D01*
X50619987Y-56102586D01*
X50619988Y-56102585D01*
X50619991Y-56102585D01*
X50657824Y-56085879D01*
X50668730Y-56081065D01*
X50718815Y-56070500D01*
X51361590Y-56070500D01*
X51369907Y-56072413D01*
X51423418Y-56070500D01*
X51476943Y-56070500D01*
X51476944Y-56070499D01*
X51485003Y-56069438D01*
X51485066Y-56069921D01*
X51485771Y-56069815D01*
X51485691Y-56069336D01*
X51493706Y-56067987D01*
X51493713Y-56067987D01*
X51544907Y-56052288D01*
X51596606Y-56038436D01*
X51603994Y-56034170D01*
X51612155Y-56031668D01*
X51655714Y-56004398D01*
X51659396Y-56002184D01*
X51703894Y-55976494D01*
X51709929Y-55970458D01*
X51717160Y-55965932D01*
X51753625Y-55926762D01*
X51791494Y-55888894D01*
X51791499Y-55888884D01*
X51796443Y-55882444D01*
X51796824Y-55882736D01*
X51805350Y-55871201D01*
X67861091Y-38624875D01*
X67919757Y-38589594D01*
X68031781Y-38559578D01*
X68031782Y-38559577D01*
X68031784Y-38559577D01*
X68168716Y-38480520D01*
X68280520Y-38368716D01*
X68359577Y-38231784D01*
X68400500Y-38079057D01*
X68400500Y-37920943D01*
X68359577Y-37768216D01*
X68359573Y-37768209D01*
X68280524Y-37631290D01*
X68280518Y-37631282D01*
X68168717Y-37519481D01*
X68168709Y-37519475D01*
X68031790Y-37440426D01*
X68031786Y-37440424D01*
X68031784Y-37440423D01*
X67879057Y-37399500D01*
X67720943Y-37399500D01*
X67568216Y-37440423D01*
X67568209Y-37440426D01*
X67431290Y-37519475D01*
X67431282Y-37519481D01*
X67319481Y-37631282D01*
X67319475Y-37631290D01*
X67240426Y-37768209D01*
X67240423Y-37768216D01*
X67197397Y-37928793D01*
X67196124Y-37928452D01*
X67171250Y-37984669D01*
X67167342Y-37989072D01*
X52342567Y-53913151D01*
X52282479Y-53948805D01*
X52212654Y-53946314D01*
X52155260Y-53906468D01*
X52128520Y-53841917D01*
X52140923Y-53773157D01*
X52149391Y-53758755D01*
X67951869Y-30612005D01*
X68005924Y-30567739D01*
X68022183Y-30562149D01*
X68031784Y-30559577D01*
X68168716Y-30480520D01*
X68280520Y-30368716D01*
X68359577Y-30231784D01*
X68400500Y-30079057D01*
X68400500Y-29920943D01*
X68359577Y-29768216D01*
X68359573Y-29768209D01*
X68280524Y-29631290D01*
X68280518Y-29631282D01*
X68168717Y-29519481D01*
X68168709Y-29519475D01*
X68031790Y-29440426D01*
X68031786Y-29440424D01*
X68031784Y-29440423D01*
X67879057Y-29399500D01*
X67720943Y-29399500D01*
X67568216Y-29440423D01*
X67568209Y-29440426D01*
X67431290Y-29519475D01*
X67431282Y-29519481D01*
X67319481Y-29631282D01*
X67319475Y-29631290D01*
X67240426Y-29768209D01*
X67240423Y-29768216D01*
X67199500Y-29920943D01*
X67199500Y-30006835D01*
X67179815Y-30073874D01*
X67177910Y-30076751D01*
X53402298Y-50254637D01*
X53328464Y-50362785D01*
X53274407Y-50407053D01*
X53204999Y-50415068D01*
X53142275Y-50384286D01*
X53106151Y-50324480D01*
X53108095Y-50254637D01*
X53116899Y-50234037D01*
X53237703Y-50009903D01*
X68016695Y-22589617D01*
X68063850Y-22541062D01*
X68168716Y-22480520D01*
X68280520Y-22368716D01*
X68359577Y-22231784D01*
X68400500Y-22079057D01*
X68400500Y-21920943D01*
X68359577Y-21768216D01*
X68359573Y-21768209D01*
X68280524Y-21631290D01*
X68280518Y-21631282D01*
X68168717Y-21519481D01*
X68168709Y-21519475D01*
X68031790Y-21440426D01*
X68031786Y-21440424D01*
X68031784Y-21440423D01*
X67879057Y-21399500D01*
X67720943Y-21399500D01*
X67568216Y-21440423D01*
X67568209Y-21440426D01*
X67431290Y-21519475D01*
X67431282Y-21519481D01*
X67319481Y-21631282D01*
X67319475Y-21631290D01*
X67240426Y-21768209D01*
X67240423Y-21768216D01*
X67199500Y-21920943D01*
X67199500Y-22087184D01*
X67196839Y-22087184D01*
X67188096Y-22143247D01*
X67185078Y-22149229D01*
X51169226Y-51864332D01*
X51120091Y-51914006D01*
X51060071Y-51929500D01*
X50718815Y-51929500D01*
X50668729Y-51918935D01*
X50657566Y-51914006D01*
X50619991Y-51897415D01*
X50594865Y-51894500D01*
X48235143Y-51894500D01*
X48235117Y-51894502D01*
X48210012Y-51897413D01*
X48210008Y-51897415D01*
X48107235Y-51942793D01*
X48027794Y-52022234D01*
X47982415Y-52125006D01*
X47982415Y-52125008D01*
X47979500Y-52150131D01*
X45120499Y-52150131D01*
X45120499Y-52150130D01*
X45117586Y-52125012D01*
X45117585Y-52125010D01*
X45117585Y-52125009D01*
X45072206Y-52022235D01*
X44992765Y-51942794D01*
X44962657Y-51929500D01*
X44889992Y-51897415D01*
X44864865Y-51894500D01*
X42505143Y-51894500D01*
X42505117Y-51894502D01*
X42480012Y-51897413D01*
X42480008Y-51897415D01*
X42377235Y-51942793D01*
X42297794Y-52022234D01*
X42252415Y-52125006D01*
X42252415Y-52125008D01*
X42249500Y-52150131D01*
X36167353Y-52150131D01*
X34895918Y-49915323D01*
X34864496Y-49860092D01*
X48459500Y-49860092D01*
X48459500Y-50009907D01*
X48488723Y-50156822D01*
X48488725Y-50156830D01*
X48546051Y-50295229D01*
X48546056Y-50295238D01*
X48629280Y-50419790D01*
X48629283Y-50419794D01*
X48735205Y-50525716D01*
X48735209Y-50525719D01*
X48859761Y-50608943D01*
X48859767Y-50608946D01*
X48859768Y-50608947D01*
X48998170Y-50666275D01*
X49145092Y-50695499D01*
X49145096Y-50695500D01*
X49145097Y-50695500D01*
X49294904Y-50695500D01*
X49294905Y-50695499D01*
X49441830Y-50666275D01*
X49580232Y-50608947D01*
X49704791Y-50525719D01*
X49810719Y-50419791D01*
X49893947Y-50295232D01*
X49951275Y-50156830D01*
X49980500Y-50009903D01*
X49980500Y-49860097D01*
X49951275Y-49713170D01*
X49893947Y-49574768D01*
X49893946Y-49574767D01*
X49893943Y-49574761D01*
X49810719Y-49450209D01*
X49810716Y-49450205D01*
X49704794Y-49344283D01*
X49704790Y-49344280D01*
X49580238Y-49261056D01*
X49580229Y-49261051D01*
X49441830Y-49203725D01*
X49441822Y-49203723D01*
X49294907Y-49174500D01*
X49294903Y-49174500D01*
X49145097Y-49174500D01*
X49145092Y-49174500D01*
X48998177Y-49203723D01*
X48998169Y-49203725D01*
X48859770Y-49261051D01*
X48859761Y-49261056D01*
X48735209Y-49344280D01*
X48735205Y-49344283D01*
X48629283Y-49450205D01*
X48629280Y-49450209D01*
X48546056Y-49574761D01*
X48546051Y-49574770D01*
X48488725Y-49713169D01*
X48488723Y-49713177D01*
X48459500Y-49860092D01*
X34864496Y-49860092D01*
X25916722Y-34132545D01*
X25900500Y-34071227D01*
X25900500Y-33920945D01*
X25900500Y-33920943D01*
X25859577Y-33768216D01*
X25859573Y-33768209D01*
X25780524Y-33631290D01*
X25780518Y-33631282D01*
X25668717Y-33519481D01*
X25668709Y-33519475D01*
X25531790Y-33440426D01*
X25531786Y-33440424D01*
X25531784Y-33440423D01*
X25379057Y-33399500D01*
X25220943Y-33399500D01*
X25068216Y-33440423D01*
X25068209Y-33440426D01*
X24931290Y-33519475D01*
X24931282Y-33519481D01*
X24819481Y-33631282D01*
X24819475Y-33631290D01*
X24740426Y-33768209D01*
X24740423Y-33768216D01*
X24699500Y-33920943D01*
X9500500Y-33920943D01*
X9500500Y-14878711D01*
X19449500Y-14878711D01*
X19449500Y-15121288D01*
X19481161Y-15361785D01*
X19543947Y-15596104D01*
X19636773Y-15820205D01*
X19636776Y-15820212D01*
X19758064Y-16030289D01*
X19758066Y-16030292D01*
X19758067Y-16030293D01*
X19905733Y-16222736D01*
X19905739Y-16222743D01*
X20077256Y-16394260D01*
X20077262Y-16394265D01*
X20269711Y-16541936D01*
X20479788Y-16663224D01*
X20703900Y-16756054D01*
X20938211Y-16818838D01*
X21118586Y-16842584D01*
X21178711Y-16850500D01*
X21178712Y-16850500D01*
X21421289Y-16850500D01*
X21469388Y-16844167D01*
X21661789Y-16818838D01*
X21896100Y-16756054D01*
X22120212Y-16663224D01*
X22330289Y-16541936D01*
X22522738Y-16394265D01*
X22694265Y-16222738D01*
X22841936Y-16030289D01*
X22963224Y-15820212D01*
X23056054Y-15596100D01*
X23118838Y-15361789D01*
X23150500Y-15121288D01*
X23150500Y-14878712D01*
X23150500Y-14878711D01*
X69949500Y-14878711D01*
X69949500Y-15121288D01*
X69981161Y-15361785D01*
X70043947Y-15596104D01*
X70136773Y-15820205D01*
X70136776Y-15820212D01*
X70258064Y-16030289D01*
X70258066Y-16030292D01*
X70258067Y-16030293D01*
X70405733Y-16222736D01*
X70405739Y-16222743D01*
X70577256Y-16394260D01*
X70577262Y-16394265D01*
X70769711Y-16541936D01*
X70979788Y-16663224D01*
X71203900Y-16756054D01*
X71438211Y-16818838D01*
X71618586Y-16842584D01*
X71678711Y-16850500D01*
X71678712Y-16850500D01*
X71921289Y-16850500D01*
X71969388Y-16844167D01*
X72161789Y-16818838D01*
X72396100Y-16756054D01*
X72620212Y-16663224D01*
X72830289Y-16541936D01*
X73022738Y-16394265D01*
X73194265Y-16222738D01*
X73341936Y-16030289D01*
X73463224Y-15820212D01*
X73556054Y-15596100D01*
X73618838Y-15361789D01*
X73650500Y-15121288D01*
X73650500Y-14878712D01*
X73618838Y-14638211D01*
X73556054Y-14403900D01*
X73463224Y-14179788D01*
X73341936Y-13969711D01*
X73194265Y-13777262D01*
X73194260Y-13777256D01*
X73022743Y-13605739D01*
X73022736Y-13605733D01*
X72830293Y-13458067D01*
X72830292Y-13458066D01*
X72830289Y-13458064D01*
X72620212Y-13336776D01*
X72620205Y-13336773D01*
X72396104Y-13243947D01*
X72161785Y-13181161D01*
X71921289Y-13149500D01*
X71921288Y-13149500D01*
X71678712Y-13149500D01*
X71678711Y-13149500D01*
X71438214Y-13181161D01*
X71203895Y-13243947D01*
X70979794Y-13336773D01*
X70979785Y-13336777D01*
X70769706Y-13458067D01*
X70577263Y-13605733D01*
X70577256Y-13605739D01*
X70405739Y-13777256D01*
X70405733Y-13777263D01*
X70258067Y-13969706D01*
X70136777Y-14179785D01*
X70136773Y-14179794D01*
X70043947Y-14403895D01*
X69981161Y-14638214D01*
X69949500Y-14878711D01*
X23150500Y-14878711D01*
X23118838Y-14638211D01*
X23056054Y-14403900D01*
X22963224Y-14179788D01*
X22841936Y-13969711D01*
X22694265Y-13777262D01*
X22694260Y-13777256D01*
X22522743Y-13605739D01*
X22522736Y-13605733D01*
X22330293Y-13458067D01*
X22330292Y-13458066D01*
X22330289Y-13458064D01*
X22120212Y-13336776D01*
X22120205Y-13336773D01*
X21896104Y-13243947D01*
X21661785Y-13181161D01*
X21421289Y-13149500D01*
X21421288Y-13149500D01*
X21178712Y-13149500D01*
X21178711Y-13149500D01*
X20938214Y-13181161D01*
X20703895Y-13243947D01*
X20479794Y-13336773D01*
X20479785Y-13336777D01*
X20269706Y-13458067D01*
X20077263Y-13605733D01*
X20077256Y-13605739D01*
X19905739Y-13777256D01*
X19905733Y-13777263D01*
X19758067Y-13969706D01*
X19636777Y-14179785D01*
X19636773Y-14179794D01*
X19543947Y-14403895D01*
X19481161Y-14638214D01*
X19449500Y-14878711D01*
X9500500Y-14878711D01*
X9500500Y-10624500D01*
X9520185Y-10557461D01*
X9572989Y-10511706D01*
X9624500Y-10500500D01*
X83475500Y-10500500D01*
X83542539Y-10520185D01*
G37*
%TD.AperFunction*%
%TD*%
M02*
