%TF.GenerationSoftware,KiCad,Pcbnew,10.0.3*%
%TF.CreationDate,2026-06-22T23:05:32-04:00*%
%TF.ProjectId,board-D-smp,626f6172-642d-4442-9d73-6d702e6b6963,rev?*%
%TF.SameCoordinates,Original*%
%TF.FileFunction,Copper,L3,Inr*%
%TF.FilePolarity,Positive*%
%FSLAX46Y46*%
G04 Gerber Fmt 4.6, Leading zero omitted, Abs format (unit mm)*
G04 Created by KiCad (PCBNEW 10.0.3) date 2026-06-22 23:05:32*
%MOMM*%
%LPD*%
G01*
G04 APERTURE LIST*
%TA.AperFunction,ViaPad*%
%ADD10C,0.600000*%
%TD*%
G04 APERTURE END LIST*
D10*
%TO.N,SIPM_K19*%
X74715000Y-44985000D03*
%TO.N,GNDA*%
X29925000Y-12925000D03*
X65925000Y-119045000D03*
X59925000Y-12925000D03*
X41925000Y-119045000D03*
X11925000Y-119045000D03*
X29925000Y-119045000D03*
X11925000Y-12925000D03*
X77925000Y-119045000D03*
X65925000Y-12925000D03*
X53925000Y-119045000D03*
X35925000Y-119045000D03*
X77925000Y-12925000D03*
X23925000Y-12925000D03*
X53925000Y-12925000D03*
X35925000Y-12925000D03*
X59925000Y-119045000D03*
X23925000Y-119045000D03*
X41925000Y-12925000D03*
X47925000Y-119045000D03*
X47925000Y-12925000D03*
%TO.N,SIPM_K16*%
X74715000Y-23985000D03*
%TO.N,SIPM_K20*%
X74715000Y-51985000D03*
%TO.N,SIPM_K8*%
X16985000Y-97485000D03*
%TO.N,SIPM_K22*%
X16985000Y-27485000D03*
X20985000Y-27485000D03*
X50715000Y-57985000D03*
%TO.N,SIPM_K4*%
X74715000Y-86985000D03*
%TO.N,SIPM_K15*%
X16985000Y-34485000D03*
%TO.N,SIPM_K9*%
X16985000Y-83485000D03*
%TO.N,IV*%
X74715000Y-65985000D03*
%TO.N,SIPM_K13*%
X16985000Y-55485000D03*
%TO.N,SIPM_K3*%
X74715000Y-79985000D03*
%TO.N,SIPM_K5*%
X74715000Y-93985000D03*
%TO.N,SIPM_K6*%
X74715000Y-100985000D03*
%TO.N,SIPM_K0*%
X20985000Y-90485000D03*
X16985000Y-90485000D03*
X50715000Y-72385000D03*
%TO.N,SIPM_K2*%
X74715000Y-72985000D03*
%TO.N,SIPM_K14*%
X16985000Y-48485000D03*
%TO.N,SIPM_K7*%
X74715000Y-107985000D03*
%TO.N,SIPM_K1*%
X20985000Y-104485000D03*
X16985000Y-104485000D03*
X50715000Y-73985000D03*
%TO.N,SIPM_K11*%
X16985000Y-69485000D03*
%TO.N,SIPM_K21*%
X74715000Y-58985000D03*
%TO.N,SIPM_K10*%
X16985000Y-76485000D03*
%TO.N,SIPM_K23*%
X20985000Y-41485000D03*
X50715000Y-59585000D03*
X16985000Y-41485000D03*
%TO.N,SIPM_K12*%
X16985000Y-62485000D03*
%TO.N,SIPM_K17*%
X74715000Y-30985000D03*
%TO.N,SIPM_K18*%
X74715000Y-37985000D03*
%TD*%
%TA.AperFunction,Conductor*%
%TO.N,GNDA*%
G36*
X82142539Y-10520185D02*
G01*
X82188294Y-10572989D01*
X82199500Y-10624500D01*
X82199500Y-121345500D01*
X82179815Y-121412539D01*
X82127011Y-121458294D01*
X82075500Y-121469500D01*
X9624500Y-121469500D01*
X9557461Y-121449815D01*
X9511706Y-121397011D01*
X9500500Y-121345500D01*
X9500500Y-116848711D01*
X15134500Y-116848711D01*
X15134500Y-117091288D01*
X15166161Y-117331785D01*
X15228947Y-117566104D01*
X15321773Y-117790205D01*
X15321776Y-117790212D01*
X15443064Y-118000289D01*
X15443066Y-118000292D01*
X15443067Y-118000293D01*
X15590733Y-118192736D01*
X15590739Y-118192743D01*
X15762256Y-118364260D01*
X15762262Y-118364265D01*
X15954711Y-118511936D01*
X16164788Y-118633224D01*
X16388900Y-118726054D01*
X16623211Y-118788838D01*
X16803586Y-118812584D01*
X16863711Y-118820500D01*
X16863712Y-118820500D01*
X17106289Y-118820500D01*
X17154388Y-118814167D01*
X17346789Y-118788838D01*
X17581100Y-118726054D01*
X17805212Y-118633224D01*
X18015289Y-118511936D01*
X18207738Y-118364265D01*
X18379265Y-118192738D01*
X18526936Y-118000289D01*
X18648224Y-117790212D01*
X18741054Y-117566100D01*
X18803838Y-117331789D01*
X18835500Y-117091288D01*
X18835500Y-116848712D01*
X18835500Y-116848711D01*
X72864500Y-116848711D01*
X72864500Y-117091288D01*
X72896161Y-117331785D01*
X72958947Y-117566104D01*
X73051773Y-117790205D01*
X73051776Y-117790212D01*
X73173064Y-118000289D01*
X73173066Y-118000292D01*
X73173067Y-118000293D01*
X73320733Y-118192736D01*
X73320739Y-118192743D01*
X73492256Y-118364260D01*
X73492262Y-118364265D01*
X73684711Y-118511936D01*
X73894788Y-118633224D01*
X74118900Y-118726054D01*
X74353211Y-118788838D01*
X74533586Y-118812584D01*
X74593711Y-118820500D01*
X74593712Y-118820500D01*
X74836289Y-118820500D01*
X74884388Y-118814167D01*
X75076789Y-118788838D01*
X75311100Y-118726054D01*
X75535212Y-118633224D01*
X75745289Y-118511936D01*
X75937738Y-118364265D01*
X76109265Y-118192738D01*
X76256936Y-118000289D01*
X76378224Y-117790212D01*
X76471054Y-117566100D01*
X76533838Y-117331789D01*
X76565500Y-117091288D01*
X76565500Y-116848712D01*
X76533838Y-116608211D01*
X76471054Y-116373900D01*
X76378224Y-116149788D01*
X76256936Y-115939711D01*
X76109265Y-115747262D01*
X76109260Y-115747256D01*
X75937743Y-115575739D01*
X75937736Y-115575733D01*
X75745293Y-115428067D01*
X75745292Y-115428066D01*
X75745289Y-115428064D01*
X75535212Y-115306776D01*
X75535205Y-115306773D01*
X75311104Y-115213947D01*
X75076785Y-115151161D01*
X74836289Y-115119500D01*
X74836288Y-115119500D01*
X74593712Y-115119500D01*
X74593711Y-115119500D01*
X74353214Y-115151161D01*
X74118895Y-115213947D01*
X73894794Y-115306773D01*
X73894785Y-115306777D01*
X73684706Y-115428067D01*
X73492263Y-115575733D01*
X73492256Y-115575739D01*
X73320739Y-115747256D01*
X73320733Y-115747263D01*
X73173067Y-115939706D01*
X73051777Y-116149785D01*
X73051773Y-116149794D01*
X72958947Y-116373895D01*
X72896161Y-116608214D01*
X72864500Y-116848711D01*
X18835500Y-116848711D01*
X18803838Y-116608211D01*
X18741054Y-116373900D01*
X18648224Y-116149788D01*
X18526936Y-115939711D01*
X18379265Y-115747262D01*
X18379260Y-115747256D01*
X18207743Y-115575739D01*
X18207736Y-115575733D01*
X18015293Y-115428067D01*
X18015292Y-115428066D01*
X18015289Y-115428064D01*
X17805212Y-115306776D01*
X17805205Y-115306773D01*
X17581104Y-115213947D01*
X17346785Y-115151161D01*
X17106289Y-115119500D01*
X17106288Y-115119500D01*
X16863712Y-115119500D01*
X16863711Y-115119500D01*
X16623214Y-115151161D01*
X16388895Y-115213947D01*
X16164794Y-115306773D01*
X16164785Y-115306777D01*
X15954706Y-115428067D01*
X15762263Y-115575733D01*
X15762256Y-115575739D01*
X15590739Y-115747256D01*
X15590733Y-115747263D01*
X15443067Y-115939706D01*
X15321777Y-116149785D01*
X15321773Y-116149794D01*
X15228947Y-116373895D01*
X15166161Y-116608214D01*
X15134500Y-116848711D01*
X9500500Y-116848711D01*
X9500500Y-107905943D01*
X74114500Y-107905943D01*
X74114500Y-108064056D01*
X74155423Y-108216783D01*
X74155426Y-108216790D01*
X74234475Y-108353709D01*
X74234479Y-108353714D01*
X74234480Y-108353716D01*
X74346284Y-108465520D01*
X74346286Y-108465521D01*
X74346290Y-108465524D01*
X74483209Y-108544573D01*
X74483216Y-108544577D01*
X74635943Y-108585500D01*
X74635945Y-108585500D01*
X74794055Y-108585500D01*
X74794057Y-108585500D01*
X74946784Y-108544577D01*
X75083716Y-108465520D01*
X75195520Y-108353716D01*
X75274577Y-108216784D01*
X75315500Y-108064057D01*
X75315500Y-107905943D01*
X75274577Y-107753216D01*
X75274573Y-107753209D01*
X75195524Y-107616290D01*
X75195518Y-107616282D01*
X75083717Y-107504481D01*
X75083709Y-107504475D01*
X74946790Y-107425426D01*
X74946786Y-107425424D01*
X74946784Y-107425423D01*
X74794057Y-107384500D01*
X74635943Y-107384500D01*
X74483216Y-107425423D01*
X74483209Y-107425426D01*
X74346290Y-107504475D01*
X74346282Y-107504481D01*
X74234481Y-107616282D01*
X74234475Y-107616290D01*
X74155426Y-107753209D01*
X74155423Y-107753216D01*
X74114500Y-107905943D01*
X9500500Y-107905943D01*
X9500500Y-104405943D01*
X16384500Y-104405943D01*
X16384500Y-104564056D01*
X16425423Y-104716783D01*
X16425426Y-104716790D01*
X16504475Y-104853709D01*
X16504479Y-104853714D01*
X16504480Y-104853716D01*
X16616284Y-104965520D01*
X16616286Y-104965521D01*
X16616290Y-104965524D01*
X16753209Y-105044573D01*
X16753216Y-105044577D01*
X16905943Y-105085500D01*
X16905945Y-105085500D01*
X17064055Y-105085500D01*
X17064057Y-105085500D01*
X17216784Y-105044577D01*
X17353716Y-104965520D01*
X17465520Y-104853716D01*
X17544577Y-104716784D01*
X17585500Y-104564057D01*
X17585500Y-104405943D01*
X20384500Y-104405943D01*
X20384500Y-104564056D01*
X20425423Y-104716783D01*
X20425426Y-104716790D01*
X20504475Y-104853709D01*
X20504479Y-104853714D01*
X20504480Y-104853716D01*
X20616284Y-104965520D01*
X20616286Y-104965521D01*
X20616290Y-104965524D01*
X20753209Y-105044573D01*
X20753216Y-105044577D01*
X20905943Y-105085500D01*
X20905945Y-105085500D01*
X21064055Y-105085500D01*
X21064057Y-105085500D01*
X21216784Y-105044577D01*
X21353716Y-104965520D01*
X21465520Y-104853716D01*
X21544577Y-104716784D01*
X21585500Y-104564057D01*
X21585500Y-104405943D01*
X21544577Y-104253216D01*
X21544573Y-104253209D01*
X21465524Y-104116290D01*
X21465518Y-104116282D01*
X21353717Y-104004481D01*
X21353709Y-104004475D01*
X21216790Y-103925426D01*
X21216786Y-103925424D01*
X21216784Y-103925423D01*
X21064057Y-103884500D01*
X20905943Y-103884500D01*
X20753216Y-103925423D01*
X20753209Y-103925426D01*
X20616290Y-104004475D01*
X20616282Y-104004481D01*
X20504481Y-104116282D01*
X20504475Y-104116290D01*
X20425426Y-104253209D01*
X20425423Y-104253216D01*
X20384500Y-104405943D01*
X17585500Y-104405943D01*
X17544577Y-104253216D01*
X17544573Y-104253209D01*
X17465524Y-104116290D01*
X17465518Y-104116282D01*
X17353717Y-104004481D01*
X17353709Y-104004475D01*
X17216790Y-103925426D01*
X17216786Y-103925424D01*
X17216784Y-103925423D01*
X17064057Y-103884500D01*
X16905943Y-103884500D01*
X16753216Y-103925423D01*
X16753209Y-103925426D01*
X16616290Y-104004475D01*
X16616282Y-104004481D01*
X16504481Y-104116282D01*
X16504475Y-104116290D01*
X16425426Y-104253209D01*
X16425423Y-104253216D01*
X16384500Y-104405943D01*
X9500500Y-104405943D01*
X9500500Y-100905943D01*
X74114500Y-100905943D01*
X74114500Y-101064056D01*
X74155423Y-101216783D01*
X74155426Y-101216790D01*
X74234475Y-101353709D01*
X74234479Y-101353714D01*
X74234480Y-101353716D01*
X74346284Y-101465520D01*
X74346286Y-101465521D01*
X74346290Y-101465524D01*
X74483209Y-101544573D01*
X74483216Y-101544577D01*
X74635943Y-101585500D01*
X74635945Y-101585500D01*
X74794055Y-101585500D01*
X74794057Y-101585500D01*
X74946784Y-101544577D01*
X75083716Y-101465520D01*
X75195520Y-101353716D01*
X75274577Y-101216784D01*
X75315500Y-101064057D01*
X75315500Y-100905943D01*
X75274577Y-100753216D01*
X75274573Y-100753209D01*
X75195524Y-100616290D01*
X75195518Y-100616282D01*
X75083717Y-100504481D01*
X75083709Y-100504475D01*
X74946790Y-100425426D01*
X74946786Y-100425424D01*
X74946784Y-100425423D01*
X74794057Y-100384500D01*
X74635943Y-100384500D01*
X74483216Y-100425423D01*
X74483209Y-100425426D01*
X74346290Y-100504475D01*
X74346282Y-100504481D01*
X74234481Y-100616282D01*
X74234475Y-100616290D01*
X74155426Y-100753209D01*
X74155423Y-100753216D01*
X74114500Y-100905943D01*
X9500500Y-100905943D01*
X9500500Y-97405943D01*
X16384500Y-97405943D01*
X16384500Y-97564056D01*
X16425423Y-97716783D01*
X16425426Y-97716790D01*
X16504475Y-97853709D01*
X16504479Y-97853714D01*
X16504480Y-97853716D01*
X16616284Y-97965520D01*
X16616286Y-97965521D01*
X16616290Y-97965524D01*
X16753209Y-98044573D01*
X16753216Y-98044577D01*
X16905943Y-98085500D01*
X16905945Y-98085500D01*
X17064055Y-98085500D01*
X17064057Y-98085500D01*
X17216784Y-98044577D01*
X17353716Y-97965520D01*
X17465520Y-97853716D01*
X17544577Y-97716784D01*
X17585500Y-97564057D01*
X17585500Y-97405943D01*
X17544577Y-97253216D01*
X17544573Y-97253209D01*
X17465524Y-97116290D01*
X17465518Y-97116282D01*
X17353717Y-97004481D01*
X17353709Y-97004475D01*
X17216790Y-96925426D01*
X17216786Y-96925424D01*
X17216784Y-96925423D01*
X17064057Y-96884500D01*
X16905943Y-96884500D01*
X16753216Y-96925423D01*
X16753209Y-96925426D01*
X16616290Y-97004475D01*
X16616282Y-97004481D01*
X16504481Y-97116282D01*
X16504475Y-97116290D01*
X16425426Y-97253209D01*
X16425423Y-97253216D01*
X16384500Y-97405943D01*
X9500500Y-97405943D01*
X9500500Y-93905943D01*
X74114500Y-93905943D01*
X74114500Y-94064056D01*
X74155423Y-94216783D01*
X74155426Y-94216790D01*
X74234475Y-94353709D01*
X74234479Y-94353714D01*
X74234480Y-94353716D01*
X74346284Y-94465520D01*
X74346286Y-94465521D01*
X74346290Y-94465524D01*
X74483209Y-94544573D01*
X74483216Y-94544577D01*
X74635943Y-94585500D01*
X74635945Y-94585500D01*
X74794055Y-94585500D01*
X74794057Y-94585500D01*
X74946784Y-94544577D01*
X75083716Y-94465520D01*
X75195520Y-94353716D01*
X75274577Y-94216784D01*
X75315500Y-94064057D01*
X75315500Y-93905943D01*
X75274577Y-93753216D01*
X75274573Y-93753209D01*
X75195524Y-93616290D01*
X75195518Y-93616282D01*
X75083717Y-93504481D01*
X75083709Y-93504475D01*
X74946790Y-93425426D01*
X74946786Y-93425424D01*
X74946784Y-93425423D01*
X74794057Y-93384500D01*
X74635943Y-93384500D01*
X74483216Y-93425423D01*
X74483209Y-93425426D01*
X74346290Y-93504475D01*
X74346282Y-93504481D01*
X74234481Y-93616282D01*
X74234475Y-93616290D01*
X74155426Y-93753209D01*
X74155423Y-93753216D01*
X74114500Y-93905943D01*
X9500500Y-93905943D01*
X9500500Y-90405943D01*
X16384500Y-90405943D01*
X16384500Y-90564056D01*
X16425423Y-90716783D01*
X16425426Y-90716790D01*
X16504475Y-90853709D01*
X16504479Y-90853714D01*
X16504480Y-90853716D01*
X16616284Y-90965520D01*
X16616286Y-90965521D01*
X16616290Y-90965524D01*
X16753209Y-91044573D01*
X16753216Y-91044577D01*
X16905943Y-91085500D01*
X16905945Y-91085500D01*
X17064055Y-91085500D01*
X17064057Y-91085500D01*
X17216784Y-91044577D01*
X17353716Y-90965520D01*
X17465520Y-90853716D01*
X17544577Y-90716784D01*
X17585500Y-90564057D01*
X17585500Y-90405943D01*
X20384500Y-90405943D01*
X20384500Y-90564056D01*
X20425423Y-90716783D01*
X20425426Y-90716790D01*
X20504475Y-90853709D01*
X20504479Y-90853714D01*
X20504480Y-90853716D01*
X20616284Y-90965520D01*
X20616286Y-90965521D01*
X20616290Y-90965524D01*
X20753209Y-91044573D01*
X20753216Y-91044577D01*
X20905943Y-91085500D01*
X20905945Y-91085500D01*
X21064055Y-91085500D01*
X21064057Y-91085500D01*
X21216784Y-91044577D01*
X21353716Y-90965520D01*
X21465520Y-90853716D01*
X21544577Y-90716784D01*
X21585500Y-90564057D01*
X21585500Y-90405943D01*
X21544577Y-90253216D01*
X21544573Y-90253209D01*
X21465524Y-90116290D01*
X21465518Y-90116282D01*
X21353717Y-90004481D01*
X21353709Y-90004475D01*
X21216790Y-89925426D01*
X21216786Y-89925424D01*
X21216784Y-89925423D01*
X21064057Y-89884500D01*
X20905943Y-89884500D01*
X20753216Y-89925423D01*
X20753209Y-89925426D01*
X20616290Y-90004475D01*
X20616282Y-90004481D01*
X20504481Y-90116282D01*
X20504475Y-90116290D01*
X20425426Y-90253209D01*
X20425423Y-90253216D01*
X20384500Y-90405943D01*
X17585500Y-90405943D01*
X17544577Y-90253216D01*
X17544573Y-90253209D01*
X17465524Y-90116290D01*
X17465518Y-90116282D01*
X17353717Y-90004481D01*
X17353709Y-90004475D01*
X17216790Y-89925426D01*
X17216786Y-89925424D01*
X17216784Y-89925423D01*
X17064057Y-89884500D01*
X16905943Y-89884500D01*
X16753216Y-89925423D01*
X16753209Y-89925426D01*
X16616290Y-90004475D01*
X16616282Y-90004481D01*
X16504481Y-90116282D01*
X16504475Y-90116290D01*
X16425426Y-90253209D01*
X16425423Y-90253216D01*
X16384500Y-90405943D01*
X9500500Y-90405943D01*
X9500500Y-86905943D01*
X74114500Y-86905943D01*
X74114500Y-87064056D01*
X74155423Y-87216783D01*
X74155426Y-87216790D01*
X74234475Y-87353709D01*
X74234479Y-87353714D01*
X74234480Y-87353716D01*
X74346284Y-87465520D01*
X74346286Y-87465521D01*
X74346290Y-87465524D01*
X74483209Y-87544573D01*
X74483216Y-87544577D01*
X74635943Y-87585500D01*
X74635945Y-87585500D01*
X74794055Y-87585500D01*
X74794057Y-87585500D01*
X74946784Y-87544577D01*
X75083716Y-87465520D01*
X75195520Y-87353716D01*
X75274577Y-87216784D01*
X75315500Y-87064057D01*
X75315500Y-86905943D01*
X75274577Y-86753216D01*
X75274573Y-86753209D01*
X75195524Y-86616290D01*
X75195518Y-86616282D01*
X75083717Y-86504481D01*
X75083709Y-86504475D01*
X74946790Y-86425426D01*
X74946786Y-86425424D01*
X74946784Y-86425423D01*
X74794057Y-86384500D01*
X74635943Y-86384500D01*
X74483216Y-86425423D01*
X74483209Y-86425426D01*
X74346290Y-86504475D01*
X74346282Y-86504481D01*
X74234481Y-86616282D01*
X74234475Y-86616290D01*
X74155426Y-86753209D01*
X74155423Y-86753216D01*
X74114500Y-86905943D01*
X9500500Y-86905943D01*
X9500500Y-85975092D01*
X47759500Y-85975092D01*
X47759500Y-86124907D01*
X47788723Y-86271822D01*
X47788725Y-86271830D01*
X47846051Y-86410229D01*
X47846056Y-86410238D01*
X47929280Y-86534790D01*
X47929283Y-86534794D01*
X48035205Y-86640716D01*
X48035209Y-86640719D01*
X48159761Y-86723943D01*
X48159767Y-86723946D01*
X48159768Y-86723947D01*
X48298170Y-86781275D01*
X48445092Y-86810499D01*
X48445096Y-86810500D01*
X48445097Y-86810500D01*
X48594904Y-86810500D01*
X48594905Y-86810499D01*
X48741830Y-86781275D01*
X48880232Y-86723947D01*
X49004791Y-86640719D01*
X49110719Y-86534791D01*
X49193947Y-86410232D01*
X49251275Y-86271830D01*
X49280500Y-86124903D01*
X49280500Y-85975097D01*
X49251275Y-85828170D01*
X49193947Y-85689768D01*
X49193946Y-85689767D01*
X49193943Y-85689761D01*
X49110719Y-85565209D01*
X49110716Y-85565205D01*
X49004794Y-85459283D01*
X49004790Y-85459280D01*
X48880238Y-85376056D01*
X48880229Y-85376051D01*
X48741830Y-85318725D01*
X48741822Y-85318723D01*
X48594907Y-85289500D01*
X48594903Y-85289500D01*
X48445097Y-85289500D01*
X48445092Y-85289500D01*
X48298177Y-85318723D01*
X48298169Y-85318725D01*
X48159770Y-85376051D01*
X48159761Y-85376056D01*
X48035209Y-85459280D01*
X48035205Y-85459283D01*
X47929283Y-85565205D01*
X47929280Y-85565209D01*
X47846056Y-85689761D01*
X47846051Y-85689770D01*
X47788725Y-85828169D01*
X47788723Y-85828177D01*
X47759500Y-85975092D01*
X9500500Y-85975092D01*
X9500500Y-83405943D01*
X16384500Y-83405943D01*
X16384500Y-83564056D01*
X16425423Y-83716783D01*
X16425426Y-83716790D01*
X16504475Y-83853709D01*
X16504479Y-83853714D01*
X16504480Y-83853716D01*
X16616284Y-83965520D01*
X16616286Y-83965521D01*
X16616290Y-83965524D01*
X16753209Y-84044573D01*
X16753216Y-84044577D01*
X16905943Y-84085500D01*
X16905945Y-84085500D01*
X17064055Y-84085500D01*
X17064057Y-84085500D01*
X17216784Y-84044577D01*
X17353716Y-83965520D01*
X17465520Y-83853716D01*
X17544577Y-83716784D01*
X17585500Y-83564057D01*
X17585500Y-83405943D01*
X17544577Y-83253216D01*
X17544573Y-83253209D01*
X17465524Y-83116290D01*
X17465518Y-83116282D01*
X17353717Y-83004481D01*
X17353709Y-83004475D01*
X17216790Y-82925426D01*
X17216786Y-82925424D01*
X17216784Y-82925423D01*
X17064057Y-82884500D01*
X16905943Y-82884500D01*
X16753216Y-82925423D01*
X16753209Y-82925426D01*
X16616290Y-83004475D01*
X16616282Y-83004481D01*
X16504481Y-83116282D01*
X16504475Y-83116290D01*
X16425426Y-83253209D01*
X16425423Y-83253216D01*
X16384500Y-83405943D01*
X9500500Y-83405943D01*
X9500500Y-79905943D01*
X74114500Y-79905943D01*
X74114500Y-80064056D01*
X74155423Y-80216783D01*
X74155426Y-80216790D01*
X74234475Y-80353709D01*
X74234479Y-80353714D01*
X74234480Y-80353716D01*
X74346284Y-80465520D01*
X74346286Y-80465521D01*
X74346290Y-80465524D01*
X74483209Y-80544573D01*
X74483216Y-80544577D01*
X74635943Y-80585500D01*
X74635945Y-80585500D01*
X74794055Y-80585500D01*
X74794057Y-80585500D01*
X74946784Y-80544577D01*
X75083716Y-80465520D01*
X75195520Y-80353716D01*
X75274577Y-80216784D01*
X75315500Y-80064057D01*
X75315500Y-79905943D01*
X75274577Y-79753216D01*
X75274573Y-79753209D01*
X75195524Y-79616290D01*
X75195518Y-79616282D01*
X75083717Y-79504481D01*
X75083709Y-79504475D01*
X74946790Y-79425426D01*
X74946786Y-79425424D01*
X74946784Y-79425423D01*
X74794057Y-79384500D01*
X74635943Y-79384500D01*
X74483216Y-79425423D01*
X74483209Y-79425426D01*
X74346290Y-79504475D01*
X74346282Y-79504481D01*
X74234481Y-79616282D01*
X74234475Y-79616290D01*
X74155426Y-79753209D01*
X74155423Y-79753216D01*
X74114500Y-79905943D01*
X9500500Y-79905943D01*
X9500500Y-76405943D01*
X16384500Y-76405943D01*
X16384500Y-76564056D01*
X16425423Y-76716783D01*
X16425426Y-76716790D01*
X16504475Y-76853709D01*
X16504479Y-76853714D01*
X16504480Y-76853716D01*
X16616284Y-76965520D01*
X16616286Y-76965521D01*
X16616290Y-76965524D01*
X16753209Y-77044573D01*
X16753216Y-77044577D01*
X16905943Y-77085500D01*
X16905945Y-77085500D01*
X17064055Y-77085500D01*
X17064057Y-77085500D01*
X17216784Y-77044577D01*
X17353716Y-76965520D01*
X17465520Y-76853716D01*
X17544577Y-76716784D01*
X17585500Y-76564057D01*
X17585500Y-76405943D01*
X17544577Y-76253216D01*
X17544573Y-76253209D01*
X17465524Y-76116290D01*
X17465518Y-76116282D01*
X17353717Y-76004481D01*
X17353709Y-76004475D01*
X17216790Y-75925426D01*
X17216786Y-75925424D01*
X17216784Y-75925423D01*
X17064057Y-75884500D01*
X16905943Y-75884500D01*
X16753216Y-75925423D01*
X16753209Y-75925426D01*
X16616290Y-76004475D01*
X16616282Y-76004481D01*
X16504481Y-76116282D01*
X16504475Y-76116290D01*
X16425426Y-76253209D01*
X16425423Y-76253216D01*
X16384500Y-76405943D01*
X9500500Y-76405943D01*
X9500500Y-73905943D01*
X50114500Y-73905943D01*
X50114500Y-74064056D01*
X50155423Y-74216783D01*
X50155426Y-74216790D01*
X50234475Y-74353709D01*
X50234479Y-74353714D01*
X50234480Y-74353716D01*
X50346284Y-74465520D01*
X50346286Y-74465521D01*
X50346290Y-74465524D01*
X50483209Y-74544573D01*
X50483216Y-74544577D01*
X50635943Y-74585500D01*
X50635945Y-74585500D01*
X50794055Y-74585500D01*
X50794057Y-74585500D01*
X50946784Y-74544577D01*
X51083716Y-74465520D01*
X51195520Y-74353716D01*
X51274577Y-74216784D01*
X51315500Y-74064057D01*
X51315500Y-73905943D01*
X51274577Y-73753216D01*
X51274573Y-73753209D01*
X51195524Y-73616290D01*
X51195518Y-73616282D01*
X51083717Y-73504481D01*
X51083709Y-73504475D01*
X50946790Y-73425426D01*
X50946786Y-73425424D01*
X50946784Y-73425423D01*
X50794057Y-73384500D01*
X50635943Y-73384500D01*
X50483216Y-73425423D01*
X50483209Y-73425426D01*
X50346290Y-73504475D01*
X50346282Y-73504481D01*
X50234481Y-73616282D01*
X50234475Y-73616290D01*
X50155426Y-73753209D01*
X50155423Y-73753216D01*
X50114500Y-73905943D01*
X9500500Y-73905943D01*
X9500500Y-72305943D01*
X50114500Y-72305943D01*
X50114500Y-72464057D01*
X50155289Y-72616282D01*
X50155423Y-72616783D01*
X50155426Y-72616790D01*
X50234475Y-72753709D01*
X50234479Y-72753714D01*
X50234480Y-72753716D01*
X50346284Y-72865520D01*
X50346286Y-72865521D01*
X50346290Y-72865524D01*
X50483209Y-72944573D01*
X50483216Y-72944577D01*
X50635943Y-72985500D01*
X50635945Y-72985500D01*
X50794055Y-72985500D01*
X50794057Y-72985500D01*
X50946784Y-72944577D01*
X51013701Y-72905943D01*
X74114500Y-72905943D01*
X74114500Y-73064056D01*
X74155423Y-73216783D01*
X74155426Y-73216790D01*
X74234475Y-73353709D01*
X74234479Y-73353714D01*
X74234480Y-73353716D01*
X74346284Y-73465520D01*
X74346286Y-73465521D01*
X74346290Y-73465524D01*
X74413765Y-73504480D01*
X74483216Y-73544577D01*
X74635943Y-73585500D01*
X74635945Y-73585500D01*
X74794055Y-73585500D01*
X74794057Y-73585500D01*
X74946784Y-73544577D01*
X75083716Y-73465520D01*
X75195520Y-73353716D01*
X75274577Y-73216784D01*
X75315500Y-73064057D01*
X75315500Y-72905943D01*
X75274577Y-72753216D01*
X75274573Y-72753209D01*
X75195524Y-72616290D01*
X75195518Y-72616282D01*
X75083717Y-72504481D01*
X75083709Y-72504475D01*
X74946790Y-72425426D01*
X74946786Y-72425424D01*
X74946784Y-72425423D01*
X74794057Y-72384500D01*
X74635943Y-72384500D01*
X74483216Y-72425423D01*
X74483209Y-72425426D01*
X74346290Y-72504475D01*
X74346282Y-72504481D01*
X74234481Y-72616282D01*
X74234475Y-72616290D01*
X74155426Y-72753209D01*
X74155423Y-72753216D01*
X74114500Y-72905943D01*
X51013701Y-72905943D01*
X51083716Y-72865520D01*
X51195520Y-72753716D01*
X51274577Y-72616784D01*
X51315500Y-72464057D01*
X51315500Y-72305943D01*
X51274577Y-72153216D01*
X51274573Y-72153209D01*
X51195524Y-72016290D01*
X51195518Y-72016282D01*
X51083717Y-71904481D01*
X51083709Y-71904475D01*
X50946790Y-71825426D01*
X50946786Y-71825424D01*
X50946784Y-71825423D01*
X50794057Y-71784500D01*
X50635943Y-71784500D01*
X50483216Y-71825423D01*
X50483209Y-71825426D01*
X50346290Y-71904475D01*
X50346282Y-71904481D01*
X50234481Y-72016282D01*
X50234475Y-72016290D01*
X50155426Y-72153209D01*
X50155423Y-72153216D01*
X50114500Y-72305943D01*
X9500500Y-72305943D01*
X9500500Y-69405943D01*
X16384500Y-69405943D01*
X16384500Y-69564056D01*
X16425423Y-69716783D01*
X16425426Y-69716790D01*
X16504475Y-69853709D01*
X16504479Y-69853714D01*
X16504480Y-69853716D01*
X16616284Y-69965520D01*
X16616286Y-69965521D01*
X16616290Y-69965524D01*
X16753209Y-70044573D01*
X16753216Y-70044577D01*
X16905943Y-70085500D01*
X16905945Y-70085500D01*
X17064055Y-70085500D01*
X17064057Y-70085500D01*
X17216784Y-70044577D01*
X17353716Y-69965520D01*
X17465520Y-69853716D01*
X17544577Y-69716784D01*
X17585500Y-69564057D01*
X17585500Y-69405943D01*
X17544577Y-69253216D01*
X17544573Y-69253209D01*
X17465524Y-69116290D01*
X17465518Y-69116282D01*
X17353717Y-69004481D01*
X17353709Y-69004475D01*
X17216790Y-68925426D01*
X17216786Y-68925424D01*
X17216784Y-68925423D01*
X17064057Y-68884500D01*
X16905943Y-68884500D01*
X16753216Y-68925423D01*
X16753209Y-68925426D01*
X16616290Y-69004475D01*
X16616282Y-69004481D01*
X16504481Y-69116282D01*
X16504475Y-69116290D01*
X16425426Y-69253209D01*
X16425423Y-69253216D01*
X16384500Y-69405943D01*
X9500500Y-69405943D01*
X9500500Y-65905943D01*
X74114500Y-65905943D01*
X74114500Y-66064056D01*
X74155423Y-66216783D01*
X74155426Y-66216790D01*
X74234475Y-66353709D01*
X74234479Y-66353714D01*
X74234480Y-66353716D01*
X74346284Y-66465520D01*
X74346286Y-66465521D01*
X74346290Y-66465524D01*
X74483209Y-66544573D01*
X74483216Y-66544577D01*
X74635943Y-66585500D01*
X74635945Y-66585500D01*
X74794055Y-66585500D01*
X74794057Y-66585500D01*
X74946784Y-66544577D01*
X75083716Y-66465520D01*
X75195520Y-66353716D01*
X75274577Y-66216784D01*
X75315500Y-66064057D01*
X75315500Y-65905943D01*
X75274577Y-65753216D01*
X75274573Y-65753209D01*
X75195524Y-65616290D01*
X75195518Y-65616282D01*
X75083717Y-65504481D01*
X75083709Y-65504475D01*
X74946790Y-65425426D01*
X74946786Y-65425424D01*
X74946784Y-65425423D01*
X74794057Y-65384500D01*
X74635943Y-65384500D01*
X74483216Y-65425423D01*
X74483209Y-65425426D01*
X74346290Y-65504475D01*
X74346282Y-65504481D01*
X74234481Y-65616282D01*
X74234475Y-65616290D01*
X74155426Y-65753209D01*
X74155423Y-65753216D01*
X74114500Y-65905943D01*
X9500500Y-65905943D01*
X9500500Y-62405943D01*
X16384500Y-62405943D01*
X16384500Y-62564056D01*
X16425423Y-62716783D01*
X16425426Y-62716790D01*
X16504475Y-62853709D01*
X16504479Y-62853714D01*
X16504480Y-62853716D01*
X16616284Y-62965520D01*
X16616286Y-62965521D01*
X16616290Y-62965524D01*
X16753209Y-63044573D01*
X16753216Y-63044577D01*
X16905943Y-63085500D01*
X16905945Y-63085500D01*
X17064055Y-63085500D01*
X17064057Y-63085500D01*
X17216784Y-63044577D01*
X17353716Y-62965520D01*
X17465520Y-62853716D01*
X17544577Y-62716784D01*
X17585500Y-62564057D01*
X17585500Y-62405943D01*
X17544577Y-62253216D01*
X17544573Y-62253209D01*
X17465524Y-62116290D01*
X17465518Y-62116282D01*
X17353717Y-62004481D01*
X17353709Y-62004475D01*
X17216790Y-61925426D01*
X17216786Y-61925424D01*
X17216784Y-61925423D01*
X17064057Y-61884500D01*
X16905943Y-61884500D01*
X16753216Y-61925423D01*
X16753209Y-61925426D01*
X16616290Y-62004475D01*
X16616282Y-62004481D01*
X16504481Y-62116282D01*
X16504475Y-62116290D01*
X16425426Y-62253209D01*
X16425423Y-62253216D01*
X16384500Y-62405943D01*
X9500500Y-62405943D01*
X9500500Y-59505943D01*
X50114500Y-59505943D01*
X50114500Y-59664056D01*
X50155423Y-59816783D01*
X50155426Y-59816790D01*
X50234475Y-59953709D01*
X50234479Y-59953714D01*
X50234480Y-59953716D01*
X50346284Y-60065520D01*
X50346286Y-60065521D01*
X50346290Y-60065524D01*
X50483209Y-60144573D01*
X50483216Y-60144577D01*
X50635943Y-60185500D01*
X50635945Y-60185500D01*
X50794055Y-60185500D01*
X50794057Y-60185500D01*
X50946784Y-60144577D01*
X51083716Y-60065520D01*
X51195520Y-59953716D01*
X51274577Y-59816784D01*
X51315500Y-59664057D01*
X51315500Y-59505943D01*
X51274577Y-59353216D01*
X51274573Y-59353209D01*
X51195524Y-59216290D01*
X51195518Y-59216282D01*
X51083717Y-59104481D01*
X51083709Y-59104475D01*
X50946790Y-59025426D01*
X50946786Y-59025424D01*
X50946784Y-59025423D01*
X50794057Y-58984500D01*
X50635943Y-58984500D01*
X50483216Y-59025423D01*
X50483209Y-59025426D01*
X50346290Y-59104475D01*
X50346282Y-59104481D01*
X50234481Y-59216282D01*
X50234475Y-59216290D01*
X50155426Y-59353209D01*
X50155423Y-59353216D01*
X50114500Y-59505943D01*
X9500500Y-59505943D01*
X9500500Y-58905943D01*
X74114500Y-58905943D01*
X74114500Y-59064057D01*
X74155289Y-59216282D01*
X74155423Y-59216783D01*
X74155426Y-59216790D01*
X74234475Y-59353709D01*
X74234479Y-59353714D01*
X74234480Y-59353716D01*
X74346284Y-59465520D01*
X74346286Y-59465521D01*
X74346290Y-59465524D01*
X74483209Y-59544573D01*
X74483216Y-59544577D01*
X74635943Y-59585500D01*
X74635945Y-59585500D01*
X74794055Y-59585500D01*
X74794057Y-59585500D01*
X74946784Y-59544577D01*
X75083716Y-59465520D01*
X75195520Y-59353716D01*
X75274577Y-59216784D01*
X75315500Y-59064057D01*
X75315500Y-58905943D01*
X75274577Y-58753216D01*
X75274573Y-58753209D01*
X75195524Y-58616290D01*
X75195518Y-58616282D01*
X75083717Y-58504481D01*
X75083709Y-58504475D01*
X74946790Y-58425426D01*
X74946786Y-58425424D01*
X74946784Y-58425423D01*
X74794057Y-58384500D01*
X74635943Y-58384500D01*
X74483216Y-58425423D01*
X74483209Y-58425426D01*
X74346290Y-58504475D01*
X74346282Y-58504481D01*
X74234481Y-58616282D01*
X74234475Y-58616290D01*
X74155426Y-58753209D01*
X74155423Y-58753216D01*
X74114500Y-58905943D01*
X9500500Y-58905943D01*
X9500500Y-57905943D01*
X50114500Y-57905943D01*
X50114500Y-58064056D01*
X50155423Y-58216783D01*
X50155426Y-58216790D01*
X50234475Y-58353709D01*
X50234479Y-58353714D01*
X50234480Y-58353716D01*
X50346284Y-58465520D01*
X50346286Y-58465521D01*
X50346290Y-58465524D01*
X50413765Y-58504480D01*
X50483216Y-58544577D01*
X50635943Y-58585500D01*
X50635945Y-58585500D01*
X50794055Y-58585500D01*
X50794057Y-58585500D01*
X50946784Y-58544577D01*
X51083716Y-58465520D01*
X51195520Y-58353716D01*
X51274577Y-58216784D01*
X51315500Y-58064057D01*
X51315500Y-57905943D01*
X51274577Y-57753216D01*
X51274573Y-57753209D01*
X51195524Y-57616290D01*
X51195518Y-57616282D01*
X51083717Y-57504481D01*
X51083709Y-57504475D01*
X50946790Y-57425426D01*
X50946786Y-57425424D01*
X50946784Y-57425423D01*
X50794057Y-57384500D01*
X50635943Y-57384500D01*
X50483216Y-57425423D01*
X50483209Y-57425426D01*
X50346290Y-57504475D01*
X50346282Y-57504481D01*
X50234481Y-57616282D01*
X50234475Y-57616290D01*
X50155426Y-57753209D01*
X50155423Y-57753216D01*
X50114500Y-57905943D01*
X9500500Y-57905943D01*
X9500500Y-55405943D01*
X16384500Y-55405943D01*
X16384500Y-55564056D01*
X16425423Y-55716783D01*
X16425426Y-55716790D01*
X16504475Y-55853709D01*
X16504479Y-55853714D01*
X16504480Y-55853716D01*
X16616284Y-55965520D01*
X16616286Y-55965521D01*
X16616290Y-55965524D01*
X16753209Y-56044573D01*
X16753216Y-56044577D01*
X16905943Y-56085500D01*
X16905945Y-56085500D01*
X17064055Y-56085500D01*
X17064057Y-56085500D01*
X17216784Y-56044577D01*
X17353716Y-55965520D01*
X17465520Y-55853716D01*
X17544577Y-55716784D01*
X17585500Y-55564057D01*
X17585500Y-55405943D01*
X17544577Y-55253216D01*
X17544573Y-55253209D01*
X17465524Y-55116290D01*
X17465518Y-55116282D01*
X17353717Y-55004481D01*
X17353709Y-55004475D01*
X17216790Y-54925426D01*
X17216786Y-54925424D01*
X17216784Y-54925423D01*
X17064057Y-54884500D01*
X16905943Y-54884500D01*
X16753216Y-54925423D01*
X16753209Y-54925426D01*
X16616290Y-55004475D01*
X16616282Y-55004481D01*
X16504481Y-55116282D01*
X16504475Y-55116290D01*
X16425426Y-55253209D01*
X16425423Y-55253216D01*
X16384500Y-55405943D01*
X9500500Y-55405943D01*
X9500500Y-51905943D01*
X74114500Y-51905943D01*
X74114500Y-52064056D01*
X74155423Y-52216783D01*
X74155426Y-52216790D01*
X74234475Y-52353709D01*
X74234479Y-52353714D01*
X74234480Y-52353716D01*
X74346284Y-52465520D01*
X74346286Y-52465521D01*
X74346290Y-52465524D01*
X74483209Y-52544573D01*
X74483216Y-52544577D01*
X74635943Y-52585500D01*
X74635945Y-52585500D01*
X74794055Y-52585500D01*
X74794057Y-52585500D01*
X74946784Y-52544577D01*
X75083716Y-52465520D01*
X75195520Y-52353716D01*
X75274577Y-52216784D01*
X75315500Y-52064057D01*
X75315500Y-51905943D01*
X75274577Y-51753216D01*
X75274573Y-51753209D01*
X75195524Y-51616290D01*
X75195518Y-51616282D01*
X75083717Y-51504481D01*
X75083709Y-51504475D01*
X74946790Y-51425426D01*
X74946786Y-51425424D01*
X74946784Y-51425423D01*
X74794057Y-51384500D01*
X74635943Y-51384500D01*
X74483216Y-51425423D01*
X74483209Y-51425426D01*
X74346290Y-51504475D01*
X74346282Y-51504481D01*
X74234481Y-51616282D01*
X74234475Y-51616290D01*
X74155426Y-51753209D01*
X74155423Y-51753216D01*
X74114500Y-51905943D01*
X9500500Y-51905943D01*
X9500500Y-48405943D01*
X16384500Y-48405943D01*
X16384500Y-48564056D01*
X16425423Y-48716783D01*
X16425426Y-48716790D01*
X16504475Y-48853709D01*
X16504479Y-48853714D01*
X16504480Y-48853716D01*
X16616284Y-48965520D01*
X16616286Y-48965521D01*
X16616290Y-48965524D01*
X16753209Y-49044573D01*
X16753216Y-49044577D01*
X16905943Y-49085500D01*
X16905945Y-49085500D01*
X17064055Y-49085500D01*
X17064057Y-49085500D01*
X17216784Y-49044577D01*
X17353716Y-48965520D01*
X17465520Y-48853716D01*
X17544577Y-48716784D01*
X17585500Y-48564057D01*
X17585500Y-48405943D01*
X17544577Y-48253216D01*
X17544573Y-48253209D01*
X17465524Y-48116290D01*
X17465518Y-48116282D01*
X17353717Y-48004481D01*
X17353709Y-48004475D01*
X17216790Y-47925426D01*
X17216786Y-47925424D01*
X17216784Y-47925423D01*
X17064057Y-47884500D01*
X16905943Y-47884500D01*
X16753216Y-47925423D01*
X16753209Y-47925426D01*
X16616290Y-48004475D01*
X16616282Y-48004481D01*
X16504481Y-48116282D01*
X16504475Y-48116290D01*
X16425426Y-48253209D01*
X16425423Y-48253216D01*
X16384500Y-48405943D01*
X9500500Y-48405943D01*
X9500500Y-45845092D01*
X47759500Y-45845092D01*
X47759500Y-45994907D01*
X47788723Y-46141822D01*
X47788725Y-46141830D01*
X47846051Y-46280229D01*
X47846056Y-46280238D01*
X47929280Y-46404790D01*
X47929283Y-46404794D01*
X48035205Y-46510716D01*
X48035209Y-46510719D01*
X48159761Y-46593943D01*
X48159767Y-46593946D01*
X48159768Y-46593947D01*
X48298170Y-46651275D01*
X48445092Y-46680499D01*
X48445096Y-46680500D01*
X48445097Y-46680500D01*
X48594904Y-46680500D01*
X48594905Y-46680499D01*
X48741830Y-46651275D01*
X48880232Y-46593947D01*
X49004791Y-46510719D01*
X49110719Y-46404791D01*
X49193947Y-46280232D01*
X49251275Y-46141830D01*
X49280500Y-45994903D01*
X49280500Y-45845097D01*
X49251275Y-45698170D01*
X49193947Y-45559768D01*
X49193946Y-45559767D01*
X49193943Y-45559761D01*
X49110719Y-45435209D01*
X49110716Y-45435205D01*
X49004794Y-45329283D01*
X49004790Y-45329280D01*
X48880238Y-45246056D01*
X48880229Y-45246051D01*
X48741830Y-45188725D01*
X48741822Y-45188723D01*
X48594907Y-45159500D01*
X48594903Y-45159500D01*
X48445097Y-45159500D01*
X48445092Y-45159500D01*
X48298177Y-45188723D01*
X48298169Y-45188725D01*
X48159770Y-45246051D01*
X48159761Y-45246056D01*
X48035209Y-45329280D01*
X48035205Y-45329283D01*
X47929283Y-45435205D01*
X47929280Y-45435209D01*
X47846056Y-45559761D01*
X47846051Y-45559770D01*
X47788725Y-45698169D01*
X47788723Y-45698177D01*
X47759500Y-45845092D01*
X9500500Y-45845092D01*
X9500500Y-44905943D01*
X74114500Y-44905943D01*
X74114500Y-45064056D01*
X74155423Y-45216783D01*
X74155426Y-45216790D01*
X74234475Y-45353709D01*
X74234479Y-45353714D01*
X74234480Y-45353716D01*
X74346284Y-45465520D01*
X74346286Y-45465521D01*
X74346290Y-45465524D01*
X74483209Y-45544573D01*
X74483216Y-45544577D01*
X74635943Y-45585500D01*
X74635945Y-45585500D01*
X74794055Y-45585500D01*
X74794057Y-45585500D01*
X74946784Y-45544577D01*
X75083716Y-45465520D01*
X75195520Y-45353716D01*
X75274577Y-45216784D01*
X75315500Y-45064057D01*
X75315500Y-44905943D01*
X75274577Y-44753216D01*
X75274573Y-44753209D01*
X75195524Y-44616290D01*
X75195518Y-44616282D01*
X75083717Y-44504481D01*
X75083709Y-44504475D01*
X74946790Y-44425426D01*
X74946786Y-44425424D01*
X74946784Y-44425423D01*
X74794057Y-44384500D01*
X74635943Y-44384500D01*
X74483216Y-44425423D01*
X74483209Y-44425426D01*
X74346290Y-44504475D01*
X74346282Y-44504481D01*
X74234481Y-44616282D01*
X74234475Y-44616290D01*
X74155426Y-44753209D01*
X74155423Y-44753216D01*
X74114500Y-44905943D01*
X9500500Y-44905943D01*
X9500500Y-41405943D01*
X16384500Y-41405943D01*
X16384500Y-41564056D01*
X16425423Y-41716783D01*
X16425426Y-41716790D01*
X16504475Y-41853709D01*
X16504479Y-41853714D01*
X16504480Y-41853716D01*
X16616284Y-41965520D01*
X16616286Y-41965521D01*
X16616290Y-41965524D01*
X16753209Y-42044573D01*
X16753216Y-42044577D01*
X16905943Y-42085500D01*
X16905945Y-42085500D01*
X17064055Y-42085500D01*
X17064057Y-42085500D01*
X17216784Y-42044577D01*
X17353716Y-41965520D01*
X17465520Y-41853716D01*
X17544577Y-41716784D01*
X17585500Y-41564057D01*
X17585500Y-41405943D01*
X20384500Y-41405943D01*
X20384500Y-41564056D01*
X20425423Y-41716783D01*
X20425426Y-41716790D01*
X20504475Y-41853709D01*
X20504479Y-41853714D01*
X20504480Y-41853716D01*
X20616284Y-41965520D01*
X20616286Y-41965521D01*
X20616290Y-41965524D01*
X20753209Y-42044573D01*
X20753216Y-42044577D01*
X20905943Y-42085500D01*
X20905945Y-42085500D01*
X21064055Y-42085500D01*
X21064057Y-42085500D01*
X21216784Y-42044577D01*
X21353716Y-41965520D01*
X21465520Y-41853716D01*
X21544577Y-41716784D01*
X21585500Y-41564057D01*
X21585500Y-41405943D01*
X21544577Y-41253216D01*
X21544573Y-41253209D01*
X21465524Y-41116290D01*
X21465518Y-41116282D01*
X21353717Y-41004481D01*
X21353709Y-41004475D01*
X21216790Y-40925426D01*
X21216786Y-40925424D01*
X21216784Y-40925423D01*
X21064057Y-40884500D01*
X20905943Y-40884500D01*
X20753216Y-40925423D01*
X20753209Y-40925426D01*
X20616290Y-41004475D01*
X20616282Y-41004481D01*
X20504481Y-41116282D01*
X20504475Y-41116290D01*
X20425426Y-41253209D01*
X20425423Y-41253216D01*
X20384500Y-41405943D01*
X17585500Y-41405943D01*
X17544577Y-41253216D01*
X17544573Y-41253209D01*
X17465524Y-41116290D01*
X17465518Y-41116282D01*
X17353717Y-41004481D01*
X17353709Y-41004475D01*
X17216790Y-40925426D01*
X17216786Y-40925424D01*
X17216784Y-40925423D01*
X17064057Y-40884500D01*
X16905943Y-40884500D01*
X16753216Y-40925423D01*
X16753209Y-40925426D01*
X16616290Y-41004475D01*
X16616282Y-41004481D01*
X16504481Y-41116282D01*
X16504475Y-41116290D01*
X16425426Y-41253209D01*
X16425423Y-41253216D01*
X16384500Y-41405943D01*
X9500500Y-41405943D01*
X9500500Y-37905943D01*
X74114500Y-37905943D01*
X74114500Y-38064056D01*
X74155423Y-38216783D01*
X74155426Y-38216790D01*
X74234475Y-38353709D01*
X74234479Y-38353714D01*
X74234480Y-38353716D01*
X74346284Y-38465520D01*
X74346286Y-38465521D01*
X74346290Y-38465524D01*
X74483209Y-38544573D01*
X74483216Y-38544577D01*
X74635943Y-38585500D01*
X74635945Y-38585500D01*
X74794055Y-38585500D01*
X74794057Y-38585500D01*
X74946784Y-38544577D01*
X75083716Y-38465520D01*
X75195520Y-38353716D01*
X75274577Y-38216784D01*
X75315500Y-38064057D01*
X75315500Y-37905943D01*
X75274577Y-37753216D01*
X75274573Y-37753209D01*
X75195524Y-37616290D01*
X75195518Y-37616282D01*
X75083717Y-37504481D01*
X75083709Y-37504475D01*
X74946790Y-37425426D01*
X74946786Y-37425424D01*
X74946784Y-37425423D01*
X74794057Y-37384500D01*
X74635943Y-37384500D01*
X74483216Y-37425423D01*
X74483209Y-37425426D01*
X74346290Y-37504475D01*
X74346282Y-37504481D01*
X74234481Y-37616282D01*
X74234475Y-37616290D01*
X74155426Y-37753209D01*
X74155423Y-37753216D01*
X74114500Y-37905943D01*
X9500500Y-37905943D01*
X9500500Y-34405943D01*
X16384500Y-34405943D01*
X16384500Y-34564056D01*
X16425423Y-34716783D01*
X16425426Y-34716790D01*
X16504475Y-34853709D01*
X16504479Y-34853714D01*
X16504480Y-34853716D01*
X16616284Y-34965520D01*
X16616286Y-34965521D01*
X16616290Y-34965524D01*
X16753209Y-35044573D01*
X16753216Y-35044577D01*
X16905943Y-35085500D01*
X16905945Y-35085500D01*
X17064055Y-35085500D01*
X17064057Y-35085500D01*
X17216784Y-35044577D01*
X17353716Y-34965520D01*
X17465520Y-34853716D01*
X17544577Y-34716784D01*
X17585500Y-34564057D01*
X17585500Y-34405943D01*
X17544577Y-34253216D01*
X17544573Y-34253209D01*
X17465524Y-34116290D01*
X17465518Y-34116282D01*
X17353717Y-34004481D01*
X17353709Y-34004475D01*
X17216790Y-33925426D01*
X17216786Y-33925424D01*
X17216784Y-33925423D01*
X17064057Y-33884500D01*
X16905943Y-33884500D01*
X16753216Y-33925423D01*
X16753209Y-33925426D01*
X16616290Y-34004475D01*
X16616282Y-34004481D01*
X16504481Y-34116282D01*
X16504475Y-34116290D01*
X16425426Y-34253209D01*
X16425423Y-34253216D01*
X16384500Y-34405943D01*
X9500500Y-34405943D01*
X9500500Y-30905943D01*
X74114500Y-30905943D01*
X74114500Y-31064056D01*
X74155423Y-31216783D01*
X74155426Y-31216790D01*
X74234475Y-31353709D01*
X74234479Y-31353714D01*
X74234480Y-31353716D01*
X74346284Y-31465520D01*
X74346286Y-31465521D01*
X74346290Y-31465524D01*
X74483209Y-31544573D01*
X74483216Y-31544577D01*
X74635943Y-31585500D01*
X74635945Y-31585500D01*
X74794055Y-31585500D01*
X74794057Y-31585500D01*
X74946784Y-31544577D01*
X75083716Y-31465520D01*
X75195520Y-31353716D01*
X75274577Y-31216784D01*
X75315500Y-31064057D01*
X75315500Y-30905943D01*
X75274577Y-30753216D01*
X75274573Y-30753209D01*
X75195524Y-30616290D01*
X75195518Y-30616282D01*
X75083717Y-30504481D01*
X75083709Y-30504475D01*
X74946790Y-30425426D01*
X74946786Y-30425424D01*
X74946784Y-30425423D01*
X74794057Y-30384500D01*
X74635943Y-30384500D01*
X74483216Y-30425423D01*
X74483209Y-30425426D01*
X74346290Y-30504475D01*
X74346282Y-30504481D01*
X74234481Y-30616282D01*
X74234475Y-30616290D01*
X74155426Y-30753209D01*
X74155423Y-30753216D01*
X74114500Y-30905943D01*
X9500500Y-30905943D01*
X9500500Y-27405943D01*
X16384500Y-27405943D01*
X16384500Y-27564056D01*
X16425423Y-27716783D01*
X16425426Y-27716790D01*
X16504475Y-27853709D01*
X16504479Y-27853714D01*
X16504480Y-27853716D01*
X16616284Y-27965520D01*
X16616286Y-27965521D01*
X16616290Y-27965524D01*
X16753209Y-28044573D01*
X16753216Y-28044577D01*
X16905943Y-28085500D01*
X16905945Y-28085500D01*
X17064055Y-28085500D01*
X17064057Y-28085500D01*
X17216784Y-28044577D01*
X17353716Y-27965520D01*
X17465520Y-27853716D01*
X17544577Y-27716784D01*
X17585500Y-27564057D01*
X17585500Y-27405943D01*
X20384500Y-27405943D01*
X20384500Y-27564056D01*
X20425423Y-27716783D01*
X20425426Y-27716790D01*
X20504475Y-27853709D01*
X20504479Y-27853714D01*
X20504480Y-27853716D01*
X20616284Y-27965520D01*
X20616286Y-27965521D01*
X20616290Y-27965524D01*
X20753209Y-28044573D01*
X20753216Y-28044577D01*
X20905943Y-28085500D01*
X20905945Y-28085500D01*
X21064055Y-28085500D01*
X21064057Y-28085500D01*
X21216784Y-28044577D01*
X21353716Y-27965520D01*
X21465520Y-27853716D01*
X21544577Y-27716784D01*
X21585500Y-27564057D01*
X21585500Y-27405943D01*
X21544577Y-27253216D01*
X21544573Y-27253209D01*
X21465524Y-27116290D01*
X21465518Y-27116282D01*
X21353717Y-27004481D01*
X21353709Y-27004475D01*
X21216790Y-26925426D01*
X21216786Y-26925424D01*
X21216784Y-26925423D01*
X21064057Y-26884500D01*
X20905943Y-26884500D01*
X20753216Y-26925423D01*
X20753209Y-26925426D01*
X20616290Y-27004475D01*
X20616282Y-27004481D01*
X20504481Y-27116282D01*
X20504475Y-27116290D01*
X20425426Y-27253209D01*
X20425423Y-27253216D01*
X20384500Y-27405943D01*
X17585500Y-27405943D01*
X17544577Y-27253216D01*
X17544573Y-27253209D01*
X17465524Y-27116290D01*
X17465518Y-27116282D01*
X17353717Y-27004481D01*
X17353709Y-27004475D01*
X17216790Y-26925426D01*
X17216786Y-26925424D01*
X17216784Y-26925423D01*
X17064057Y-26884500D01*
X16905943Y-26884500D01*
X16753216Y-26925423D01*
X16753209Y-26925426D01*
X16616290Y-27004475D01*
X16616282Y-27004481D01*
X16504481Y-27116282D01*
X16504475Y-27116290D01*
X16425426Y-27253209D01*
X16425423Y-27253216D01*
X16384500Y-27405943D01*
X9500500Y-27405943D01*
X9500500Y-23905943D01*
X74114500Y-23905943D01*
X74114500Y-24064056D01*
X74155423Y-24216783D01*
X74155426Y-24216790D01*
X74234475Y-24353709D01*
X74234479Y-24353714D01*
X74234480Y-24353716D01*
X74346284Y-24465520D01*
X74346286Y-24465521D01*
X74346290Y-24465524D01*
X74483209Y-24544573D01*
X74483216Y-24544577D01*
X74635943Y-24585500D01*
X74635945Y-24585500D01*
X74794055Y-24585500D01*
X74794057Y-24585500D01*
X74946784Y-24544577D01*
X75083716Y-24465520D01*
X75195520Y-24353716D01*
X75274577Y-24216784D01*
X75315500Y-24064057D01*
X75315500Y-23905943D01*
X75274577Y-23753216D01*
X75274573Y-23753209D01*
X75195524Y-23616290D01*
X75195518Y-23616282D01*
X75083717Y-23504481D01*
X75083709Y-23504475D01*
X74946790Y-23425426D01*
X74946786Y-23425424D01*
X74946784Y-23425423D01*
X74794057Y-23384500D01*
X74635943Y-23384500D01*
X74483216Y-23425423D01*
X74483209Y-23425426D01*
X74346290Y-23504475D01*
X74346282Y-23504481D01*
X74234481Y-23616282D01*
X74234475Y-23616290D01*
X74155426Y-23753209D01*
X74155423Y-23753216D01*
X74114500Y-23905943D01*
X9500500Y-23905943D01*
X9500500Y-14878711D01*
X15134500Y-14878711D01*
X15134500Y-15121288D01*
X15166161Y-15361785D01*
X15228947Y-15596104D01*
X15321773Y-15820205D01*
X15321776Y-15820212D01*
X15443064Y-16030289D01*
X15443066Y-16030292D01*
X15443067Y-16030293D01*
X15590733Y-16222736D01*
X15590739Y-16222743D01*
X15762256Y-16394260D01*
X15762262Y-16394265D01*
X15954711Y-16541936D01*
X16164788Y-16663224D01*
X16388900Y-16756054D01*
X16623211Y-16818838D01*
X16803586Y-16842584D01*
X16863711Y-16850500D01*
X16863712Y-16850500D01*
X17106289Y-16850500D01*
X17154388Y-16844167D01*
X17346789Y-16818838D01*
X17581100Y-16756054D01*
X17805212Y-16663224D01*
X18015289Y-16541936D01*
X18207738Y-16394265D01*
X18379265Y-16222738D01*
X18526936Y-16030289D01*
X18648224Y-15820212D01*
X18741054Y-15596100D01*
X18803838Y-15361789D01*
X18835500Y-15121288D01*
X18835500Y-14878712D01*
X18835500Y-14878711D01*
X72864500Y-14878711D01*
X72864500Y-15121288D01*
X72896161Y-15361785D01*
X72958947Y-15596104D01*
X73051773Y-15820205D01*
X73051776Y-15820212D01*
X73173064Y-16030289D01*
X73173066Y-16030292D01*
X73173067Y-16030293D01*
X73320733Y-16222736D01*
X73320739Y-16222743D01*
X73492256Y-16394260D01*
X73492262Y-16394265D01*
X73684711Y-16541936D01*
X73894788Y-16663224D01*
X74118900Y-16756054D01*
X74353211Y-16818838D01*
X74533586Y-16842584D01*
X74593711Y-16850500D01*
X74593712Y-16850500D01*
X74836289Y-16850500D01*
X74884388Y-16844167D01*
X75076789Y-16818838D01*
X75311100Y-16756054D01*
X75535212Y-16663224D01*
X75745289Y-16541936D01*
X75937738Y-16394265D01*
X76109265Y-16222738D01*
X76256936Y-16030289D01*
X76378224Y-15820212D01*
X76471054Y-15596100D01*
X76533838Y-15361789D01*
X76565500Y-15121288D01*
X76565500Y-14878712D01*
X76533838Y-14638211D01*
X76471054Y-14403900D01*
X76378224Y-14179788D01*
X76256936Y-13969711D01*
X76109265Y-13777262D01*
X76109260Y-13777256D01*
X75937743Y-13605739D01*
X75937736Y-13605733D01*
X75745293Y-13458067D01*
X75745292Y-13458066D01*
X75745289Y-13458064D01*
X75535212Y-13336776D01*
X75535205Y-13336773D01*
X75311104Y-13243947D01*
X75076785Y-13181161D01*
X74836289Y-13149500D01*
X74836288Y-13149500D01*
X74593712Y-13149500D01*
X74593711Y-13149500D01*
X74353214Y-13181161D01*
X74118895Y-13243947D01*
X73894794Y-13336773D01*
X73894785Y-13336777D01*
X73684706Y-13458067D01*
X73492263Y-13605733D01*
X73492256Y-13605739D01*
X73320739Y-13777256D01*
X73320733Y-13777263D01*
X73173067Y-13969706D01*
X73051777Y-14179785D01*
X73051773Y-14179794D01*
X72958947Y-14403895D01*
X72896161Y-14638214D01*
X72864500Y-14878711D01*
X18835500Y-14878711D01*
X18803838Y-14638211D01*
X18741054Y-14403900D01*
X18648224Y-14179788D01*
X18526936Y-13969711D01*
X18379265Y-13777262D01*
X18379260Y-13777256D01*
X18207743Y-13605739D01*
X18207736Y-13605733D01*
X18015293Y-13458067D01*
X18015292Y-13458066D01*
X18015289Y-13458064D01*
X17805212Y-13336776D01*
X17805205Y-13336773D01*
X17581104Y-13243947D01*
X17346785Y-13181161D01*
X17106289Y-13149500D01*
X17106288Y-13149500D01*
X16863712Y-13149500D01*
X16863711Y-13149500D01*
X16623214Y-13181161D01*
X16388895Y-13243947D01*
X16164794Y-13336773D01*
X16164785Y-13336777D01*
X15954706Y-13458067D01*
X15762263Y-13605733D01*
X15762256Y-13605739D01*
X15590739Y-13777256D01*
X15590733Y-13777263D01*
X15443067Y-13969706D01*
X15321777Y-14179785D01*
X15321773Y-14179794D01*
X15228947Y-14403895D01*
X15166161Y-14638214D01*
X15134500Y-14878711D01*
X9500500Y-14878711D01*
X9500500Y-10624500D01*
X9520185Y-10557461D01*
X9572989Y-10511706D01*
X9624500Y-10500500D01*
X82075500Y-10500500D01*
X82142539Y-10520185D01*
G37*
%TD.AperFunction*%
%TD*%
M02*
