%TF.GenerationSoftware,KiCad,Pcbnew,10.0.3*%
%TF.CreationDate,2026-06-24T00:16:39-04:00*%
%TF.ProjectId,board-D-smp,626f6172-642d-4442-9d73-6d702e6b6963,rev?*%
%TF.SameCoordinates,Original*%
%TF.FileFunction,Legend,Bot*%
%TF.FilePolarity,Positive*%
%FSLAX46Y46*%
G04 Gerber Fmt 4.6, Leading zero omitted, Abs format (unit mm)*
G04 Created by KiCad (PCBNEW 10.0.3) date 2026-06-24 00:16:39*
%MOMM*%
%LPD*%
G01*
G04 APERTURE LIST*
%ADD10C,0.150000*%
%ADD11C,0.200000*%
G04 APERTURE END LIST*
D10*
X51592819Y-87381666D02*
X52307104Y-87381666D01*
X52307104Y-87381666D02*
X52449961Y-87334047D01*
X52449961Y-87334047D02*
X52545200Y-87238809D01*
X52545200Y-87238809D02*
X52592819Y-87095952D01*
X52592819Y-87095952D02*
X52592819Y-87000714D01*
X51592819Y-88334047D02*
X51592819Y-87857857D01*
X51592819Y-87857857D02*
X52069009Y-87810238D01*
X52069009Y-87810238D02*
X52021390Y-87857857D01*
X52021390Y-87857857D02*
X51973771Y-87953095D01*
X51973771Y-87953095D02*
X51973771Y-88191190D01*
X51973771Y-88191190D02*
X52021390Y-88286428D01*
X52021390Y-88286428D02*
X52069009Y-88334047D01*
X52069009Y-88334047D02*
X52164247Y-88381666D01*
X52164247Y-88381666D02*
X52402342Y-88381666D01*
X52402342Y-88381666D02*
X52497580Y-88334047D01*
X52497580Y-88334047D02*
X52545200Y-88286428D01*
X52545200Y-88286428D02*
X52592819Y-88191190D01*
X52592819Y-88191190D02*
X52592819Y-87953095D01*
X52592819Y-87953095D02*
X52545200Y-87857857D01*
X52545200Y-87857857D02*
X52497580Y-87810238D01*
%TO.C,J5*%
D11*
X42930000Y-49360000D02*
X48350000Y-49360000D01*
X42930000Y-51500000D02*
X42930000Y-49360000D01*
X42930000Y-71500000D02*
X42930000Y-68500000D01*
X42930000Y-88400000D02*
X42930000Y-90640000D01*
X42930000Y-90640000D02*
X48350000Y-90640000D01*
X50170000Y-49360000D02*
X50170000Y-51500000D01*
X50170000Y-68500000D02*
X50170000Y-71500000D01*
X50170000Y-88400000D02*
X50170000Y-90640000D01*
X41950000Y-87600000D02*
G75*
G02*
X41750000Y-87600000I-100000J0D01*
G01*
X41750000Y-87600000D02*
G75*
G02*
X41950000Y-87600000I100000J0D01*
G01*
%TD*%
M02*
