M48
; DRILL file KiCad 10.0.3 date 2026-06-22T23:05:32
; FORMAT={-:-/ absolute / metric / decimal}
; #@! TF.CreationDate,2026-06-22T23:05:32-04:00
; #@! TF.GenerationSoftware,Kicad,Pcbnew,10.0.3
; #@! TF.FileFunction,MixedPlating,1,4
FMAT,2
METRIC
; #@! TA.AperFunction,Plated,PTH,ViaDrill
T1C0.300
; #@! TA.AperFunction,NonPlated,NPTH,ComponentDrill
T2C1.020
; #@! TA.AperFunction,NonPlated,NPTH,ComponentDrill
T3C3.200
%
G90
G05
T1
X11.925Y-12.925
X11.925Y-119.045
X16.985Y-27.485
X16.985Y-34.485
X16.985Y-41.485
X16.985Y-48.485
X16.985Y-55.485
X16.985Y-62.485
X16.985Y-69.485
X16.985Y-76.485
X16.985Y-83.485
X16.985Y-90.485
X16.985Y-97.485
X16.985Y-104.485
X20.985Y-27.485
X20.985Y-41.485
X20.985Y-90.485
X20.985Y-104.485
X23.925Y-12.925
X23.925Y-119.045
X29.925Y-12.925
X29.925Y-119.045
X35.925Y-12.925
X35.925Y-119.045
X41.925Y-12.925
X41.925Y-119.045
X47.925Y-12.925
X47.925Y-119.045
X50.715Y-57.985
X50.715Y-59.585
X50.715Y-72.385
X50.715Y-73.985
X53.925Y-12.925
X53.925Y-119.045
X59.925Y-12.925
X59.925Y-119.045
X65.925Y-12.925
X65.925Y-119.045
X74.715Y-23.985
X74.715Y-30.985
X74.715Y-37.985
X74.715Y-44.985
X74.715Y-51.985
X74.715Y-58.985
X74.715Y-65.985
X74.715Y-72.985
X74.715Y-79.985
X74.715Y-86.985
X74.715Y-93.985
X74.715Y-100.985
X74.715Y-107.985
X77.925Y-12.925
X77.925Y-119.045
T2
X48.52Y-45.92
X48.52Y-86.05
T3
X16.985Y-15.0
X16.985Y-116.97
X74.715Y-15.0
X74.715Y-116.97
M30
