%TF.GenerationSoftware,KiCad,Pcbnew,10.0.3*%
%TF.CreationDate,2026-06-24T00:16:39-04:00*%
%TF.ProjectId,board-D-smp,626f6172-642d-4442-9d73-6d702e6b6963,rev?*%
%TF.SameCoordinates,Original*%
%TF.FileFunction,Paste,Top*%
%TF.FilePolarity,Positive*%
%FSLAX46Y46*%
G04 Gerber Fmt 4.6, Leading zero omitted, Abs format (unit mm)*
G04 Created by KiCad (PCBNEW 10.0.3) date 2026-06-24 00:16:39*
%MOMM*%
%LPD*%
G01*
G04 APERTURE LIST*
%ADD10C,0.010000*%
G04 APERTURE END LIST*
D10*
%TO.C,K21*%
X72815000Y-61685000D02*
X70995000Y-61685000D01*
X70785000Y-61895000D01*
X70375000Y-61895000D01*
X70375000Y-62105000D01*
X70785000Y-62105000D01*
X70995000Y-62315000D01*
X72815000Y-62315000D01*
X72815000Y-61685000D01*
G36*
X72815000Y-62315000D02*
G01*
X70995000Y-62315000D01*
X70785000Y-62105000D01*
X70375000Y-62105000D01*
X70375000Y-61895000D01*
X70785000Y-61895000D01*
X70995000Y-61685000D01*
X72815000Y-61685000D01*
X72815000Y-62315000D01*
G37*
X78665000Y-58750000D02*
X72165000Y-58750000D01*
X72165000Y-60635000D01*
X73793000Y-60635000D01*
X74033000Y-60392000D01*
X74313000Y-60189000D01*
X74621000Y-60034000D01*
X74950000Y-59932000D01*
X75292000Y-59884000D01*
X75637000Y-59892000D01*
X75976000Y-59955000D01*
X76300000Y-60073000D01*
X76600000Y-60242000D01*
X76870000Y-60458000D01*
X77101000Y-60714000D01*
X77287000Y-61005000D01*
X77423000Y-61321000D01*
X77507000Y-61656000D01*
X77535000Y-62000000D01*
X77507000Y-62344000D01*
X77423000Y-62679000D01*
X77287000Y-62995000D01*
X77101000Y-63286000D01*
X76870000Y-63542000D01*
X76600000Y-63758000D01*
X76300000Y-63927000D01*
X75976000Y-64045000D01*
X75637000Y-64108000D01*
X75292000Y-64116000D01*
X74950000Y-64068000D01*
X74621000Y-63966000D01*
X74313000Y-63811000D01*
X74033000Y-63608000D01*
X73793000Y-63365000D01*
X72165000Y-63365000D01*
X72165000Y-65250000D01*
X78665000Y-65250000D01*
X78665000Y-58750000D01*
G36*
X78665000Y-65250000D02*
G01*
X72165000Y-65250000D01*
X72165000Y-63365000D01*
X73793000Y-63365000D01*
X74033000Y-63608000D01*
X74313000Y-63811000D01*
X74621000Y-63966000D01*
X74950000Y-64068000D01*
X75292000Y-64116000D01*
X75637000Y-64108000D01*
X75976000Y-64045000D01*
X76300000Y-63927000D01*
X76600000Y-63758000D01*
X76870000Y-63542000D01*
X77101000Y-63286000D01*
X77287000Y-62995000D01*
X77423000Y-62679000D01*
X77507000Y-62344000D01*
X77535000Y-62000000D01*
X77507000Y-61656000D01*
X77423000Y-61321000D01*
X77287000Y-61005000D01*
X77101000Y-60714000D01*
X76870000Y-60458000D01*
X76600000Y-60242000D01*
X76300000Y-60073000D01*
X75976000Y-59955000D01*
X75637000Y-59892000D01*
X75292000Y-59884000D01*
X74950000Y-59932000D01*
X74621000Y-60034000D01*
X74313000Y-60189000D01*
X74033000Y-60392000D01*
X73793000Y-60635000D01*
X72165000Y-60635000D01*
X72165000Y-58750000D01*
X78665000Y-58750000D01*
X78665000Y-65250000D01*
G37*
%TO.C,K7*%
X72815000Y-117685000D02*
X70995000Y-117685000D01*
X70785000Y-117895000D01*
X70375000Y-117895000D01*
X70375000Y-118105000D01*
X70785000Y-118105000D01*
X70995000Y-118315000D01*
X72815000Y-118315000D01*
X72815000Y-117685000D01*
G36*
X72815000Y-118315000D02*
G01*
X70995000Y-118315000D01*
X70785000Y-118105000D01*
X70375000Y-118105000D01*
X70375000Y-117895000D01*
X70785000Y-117895000D01*
X70995000Y-117685000D01*
X72815000Y-117685000D01*
X72815000Y-118315000D01*
G37*
X78665000Y-114750000D02*
X72165000Y-114750000D01*
X72165000Y-116635000D01*
X73793000Y-116635000D01*
X74033000Y-116392000D01*
X74313000Y-116189000D01*
X74621000Y-116034000D01*
X74950000Y-115932000D01*
X75292000Y-115884000D01*
X75637000Y-115892000D01*
X75976000Y-115955000D01*
X76300000Y-116073000D01*
X76600000Y-116242000D01*
X76870000Y-116458000D01*
X77101000Y-116714000D01*
X77287000Y-117005000D01*
X77423000Y-117321000D01*
X77507000Y-117656000D01*
X77535000Y-118000000D01*
X77507000Y-118344000D01*
X77423000Y-118679000D01*
X77287000Y-118995000D01*
X77101000Y-119286000D01*
X76870000Y-119542000D01*
X76600000Y-119758000D01*
X76300000Y-119927000D01*
X75976000Y-120045000D01*
X75637000Y-120108000D01*
X75292000Y-120116000D01*
X74950000Y-120068000D01*
X74621000Y-119966000D01*
X74313000Y-119811000D01*
X74033000Y-119608000D01*
X73793000Y-119365000D01*
X72165000Y-119365000D01*
X72165000Y-121250000D01*
X78665000Y-121250000D01*
X78665000Y-114750000D01*
G36*
X78665000Y-121250000D02*
G01*
X72165000Y-121250000D01*
X72165000Y-119365000D01*
X73793000Y-119365000D01*
X74033000Y-119608000D01*
X74313000Y-119811000D01*
X74621000Y-119966000D01*
X74950000Y-120068000D01*
X75292000Y-120116000D01*
X75637000Y-120108000D01*
X75976000Y-120045000D01*
X76300000Y-119927000D01*
X76600000Y-119758000D01*
X76870000Y-119542000D01*
X77101000Y-119286000D01*
X77287000Y-118995000D01*
X77423000Y-118679000D01*
X77507000Y-118344000D01*
X77535000Y-118000000D01*
X77507000Y-117656000D01*
X77423000Y-117321000D01*
X77287000Y-117005000D01*
X77101000Y-116714000D01*
X76870000Y-116458000D01*
X76600000Y-116242000D01*
X76300000Y-116073000D01*
X75976000Y-115955000D01*
X75637000Y-115892000D01*
X75292000Y-115884000D01*
X74950000Y-115932000D01*
X74621000Y-116034000D01*
X74313000Y-116189000D01*
X74033000Y-116392000D01*
X73793000Y-116635000D01*
X72165000Y-116635000D01*
X72165000Y-114750000D01*
X78665000Y-114750000D01*
X78665000Y-121250000D01*
G37*
%TO.C,K23*%
X20285000Y-42315000D02*
X22105000Y-42315000D01*
X22315000Y-42105000D01*
X22725000Y-42105000D01*
X22725000Y-41895000D01*
X22315000Y-41895000D01*
X22105000Y-41685000D01*
X20285000Y-41685000D01*
X20285000Y-42315000D01*
G36*
X22315000Y-41895000D02*
G01*
X22725000Y-41895000D01*
X22725000Y-42105000D01*
X22315000Y-42105000D01*
X22105000Y-42315000D01*
X20285000Y-42315000D01*
X20285000Y-41685000D01*
X22105000Y-41685000D01*
X22315000Y-41895000D01*
G37*
X14435000Y-45250000D02*
X20935000Y-45250000D01*
X20935000Y-43365000D01*
X19307000Y-43365000D01*
X19067000Y-43608000D01*
X18787000Y-43811000D01*
X18479000Y-43966000D01*
X18150000Y-44068000D01*
X17808000Y-44116000D01*
X17463000Y-44108000D01*
X17124000Y-44045000D01*
X16800000Y-43927000D01*
X16500000Y-43758000D01*
X16230000Y-43542000D01*
X15999000Y-43286000D01*
X15813000Y-42995000D01*
X15677000Y-42679000D01*
X15593000Y-42344000D01*
X15565000Y-42000000D01*
X15593000Y-41656000D01*
X15677000Y-41321000D01*
X15813000Y-41005000D01*
X15999000Y-40714000D01*
X16230000Y-40458000D01*
X16500000Y-40242000D01*
X16800000Y-40073000D01*
X17124000Y-39955000D01*
X17463000Y-39892000D01*
X17808000Y-39884000D01*
X18150000Y-39932000D01*
X18479000Y-40034000D01*
X18787000Y-40189000D01*
X19067000Y-40392000D01*
X19307000Y-40635000D01*
X20935000Y-40635000D01*
X20935000Y-38750000D01*
X14435000Y-38750000D01*
X14435000Y-45250000D01*
G36*
X20935000Y-40635000D02*
G01*
X19307000Y-40635000D01*
X19067000Y-40392000D01*
X18787000Y-40189000D01*
X18479000Y-40034000D01*
X18150000Y-39932000D01*
X17808000Y-39884000D01*
X17463000Y-39892000D01*
X17124000Y-39955000D01*
X16800000Y-40073000D01*
X16500000Y-40242000D01*
X16230000Y-40458000D01*
X15999000Y-40714000D01*
X15813000Y-41005000D01*
X15677000Y-41321000D01*
X15593000Y-41656000D01*
X15565000Y-42000000D01*
X15593000Y-42344000D01*
X15677000Y-42679000D01*
X15813000Y-42995000D01*
X15999000Y-43286000D01*
X16230000Y-43542000D01*
X16500000Y-43758000D01*
X16800000Y-43927000D01*
X17124000Y-44045000D01*
X17463000Y-44108000D01*
X17808000Y-44116000D01*
X18150000Y-44068000D01*
X18479000Y-43966000D01*
X18787000Y-43811000D01*
X19067000Y-43608000D01*
X19307000Y-43365000D01*
X20935000Y-43365000D01*
X20935000Y-45250000D01*
X14435000Y-45250000D01*
X14435000Y-38750000D01*
X20935000Y-38750000D01*
X20935000Y-40635000D01*
G37*
%TO.C,K12*%
X20285000Y-66315000D02*
X22105000Y-66315000D01*
X22315000Y-66105000D01*
X22725000Y-66105000D01*
X22725000Y-65895000D01*
X22315000Y-65895000D01*
X22105000Y-65685000D01*
X20285000Y-65685000D01*
X20285000Y-66315000D01*
G36*
X22315000Y-65895000D02*
G01*
X22725000Y-65895000D01*
X22725000Y-66105000D01*
X22315000Y-66105000D01*
X22105000Y-66315000D01*
X20285000Y-66315000D01*
X20285000Y-65685000D01*
X22105000Y-65685000D01*
X22315000Y-65895000D01*
G37*
X14435000Y-69250000D02*
X20935000Y-69250000D01*
X20935000Y-67365000D01*
X19307000Y-67365000D01*
X19067000Y-67608000D01*
X18787000Y-67811000D01*
X18479000Y-67966000D01*
X18150000Y-68068000D01*
X17808000Y-68116000D01*
X17463000Y-68108000D01*
X17124000Y-68045000D01*
X16800000Y-67927000D01*
X16500000Y-67758000D01*
X16230000Y-67542000D01*
X15999000Y-67286000D01*
X15813000Y-66995000D01*
X15677000Y-66679000D01*
X15593000Y-66344000D01*
X15565000Y-66000000D01*
X15593000Y-65656000D01*
X15677000Y-65321000D01*
X15813000Y-65005000D01*
X15999000Y-64714000D01*
X16230000Y-64458000D01*
X16500000Y-64242000D01*
X16800000Y-64073000D01*
X17124000Y-63955000D01*
X17463000Y-63892000D01*
X17808000Y-63884000D01*
X18150000Y-63932000D01*
X18479000Y-64034000D01*
X18787000Y-64189000D01*
X19067000Y-64392000D01*
X19307000Y-64635000D01*
X20935000Y-64635000D01*
X20935000Y-62750000D01*
X14435000Y-62750000D01*
X14435000Y-69250000D01*
G36*
X20935000Y-64635000D02*
G01*
X19307000Y-64635000D01*
X19067000Y-64392000D01*
X18787000Y-64189000D01*
X18479000Y-64034000D01*
X18150000Y-63932000D01*
X17808000Y-63884000D01*
X17463000Y-63892000D01*
X17124000Y-63955000D01*
X16800000Y-64073000D01*
X16500000Y-64242000D01*
X16230000Y-64458000D01*
X15999000Y-64714000D01*
X15813000Y-65005000D01*
X15677000Y-65321000D01*
X15593000Y-65656000D01*
X15565000Y-66000000D01*
X15593000Y-66344000D01*
X15677000Y-66679000D01*
X15813000Y-66995000D01*
X15999000Y-67286000D01*
X16230000Y-67542000D01*
X16500000Y-67758000D01*
X16800000Y-67927000D01*
X17124000Y-68045000D01*
X17463000Y-68108000D01*
X17808000Y-68116000D01*
X18150000Y-68068000D01*
X18479000Y-67966000D01*
X18787000Y-67811000D01*
X19067000Y-67608000D01*
X19307000Y-67365000D01*
X20935000Y-67365000D01*
X20935000Y-69250000D01*
X14435000Y-69250000D01*
X14435000Y-62750000D01*
X20935000Y-62750000D01*
X20935000Y-64635000D01*
G37*
%TO.C,K8*%
X20285000Y-106315000D02*
X22105000Y-106315000D01*
X22315000Y-106105000D01*
X22725000Y-106105000D01*
X22725000Y-105895000D01*
X22315000Y-105895000D01*
X22105000Y-105685000D01*
X20285000Y-105685000D01*
X20285000Y-106315000D01*
G36*
X22315000Y-105895000D02*
G01*
X22725000Y-105895000D01*
X22725000Y-106105000D01*
X22315000Y-106105000D01*
X22105000Y-106315000D01*
X20285000Y-106315000D01*
X20285000Y-105685000D01*
X22105000Y-105685000D01*
X22315000Y-105895000D01*
G37*
X14435000Y-109250000D02*
X20935000Y-109250000D01*
X20935000Y-107365000D01*
X19307000Y-107365000D01*
X19067000Y-107608000D01*
X18787000Y-107811000D01*
X18479000Y-107966000D01*
X18150000Y-108068000D01*
X17808000Y-108116000D01*
X17463000Y-108108000D01*
X17124000Y-108045000D01*
X16800000Y-107927000D01*
X16500000Y-107758000D01*
X16230000Y-107542000D01*
X15999000Y-107286000D01*
X15813000Y-106995000D01*
X15677000Y-106679000D01*
X15593000Y-106344000D01*
X15565000Y-106000000D01*
X15593000Y-105656000D01*
X15677000Y-105321000D01*
X15813000Y-105005000D01*
X15999000Y-104714000D01*
X16230000Y-104458000D01*
X16500000Y-104242000D01*
X16800000Y-104073000D01*
X17124000Y-103955000D01*
X17463000Y-103892000D01*
X17808000Y-103884000D01*
X18150000Y-103932000D01*
X18479000Y-104034000D01*
X18787000Y-104189000D01*
X19067000Y-104392000D01*
X19307000Y-104635000D01*
X20935000Y-104635000D01*
X20935000Y-102750000D01*
X14435000Y-102750000D01*
X14435000Y-109250000D01*
G36*
X20935000Y-104635000D02*
G01*
X19307000Y-104635000D01*
X19067000Y-104392000D01*
X18787000Y-104189000D01*
X18479000Y-104034000D01*
X18150000Y-103932000D01*
X17808000Y-103884000D01*
X17463000Y-103892000D01*
X17124000Y-103955000D01*
X16800000Y-104073000D01*
X16500000Y-104242000D01*
X16230000Y-104458000D01*
X15999000Y-104714000D01*
X15813000Y-105005000D01*
X15677000Y-105321000D01*
X15593000Y-105656000D01*
X15565000Y-106000000D01*
X15593000Y-106344000D01*
X15677000Y-106679000D01*
X15813000Y-106995000D01*
X15999000Y-107286000D01*
X16230000Y-107542000D01*
X16500000Y-107758000D01*
X16800000Y-107927000D01*
X17124000Y-108045000D01*
X17463000Y-108108000D01*
X17808000Y-108116000D01*
X18150000Y-108068000D01*
X18479000Y-107966000D01*
X18787000Y-107811000D01*
X19067000Y-107608000D01*
X19307000Y-107365000D01*
X20935000Y-107365000D01*
X20935000Y-109250000D01*
X14435000Y-109250000D01*
X14435000Y-102750000D01*
X20935000Y-102750000D01*
X20935000Y-104635000D01*
G37*
%TO.C,K20*%
X72815000Y-53685000D02*
X70995000Y-53685000D01*
X70785000Y-53895000D01*
X70375000Y-53895000D01*
X70375000Y-54105000D01*
X70785000Y-54105000D01*
X70995000Y-54315000D01*
X72815000Y-54315000D01*
X72815000Y-53685000D01*
G36*
X72815000Y-54315000D02*
G01*
X70995000Y-54315000D01*
X70785000Y-54105000D01*
X70375000Y-54105000D01*
X70375000Y-53895000D01*
X70785000Y-53895000D01*
X70995000Y-53685000D01*
X72815000Y-53685000D01*
X72815000Y-54315000D01*
G37*
X78665000Y-50750000D02*
X72165000Y-50750000D01*
X72165000Y-52635000D01*
X73793000Y-52635000D01*
X74033000Y-52392000D01*
X74313000Y-52189000D01*
X74621000Y-52034000D01*
X74950000Y-51932000D01*
X75292000Y-51884000D01*
X75637000Y-51892000D01*
X75976000Y-51955000D01*
X76300000Y-52073000D01*
X76600000Y-52242000D01*
X76870000Y-52458000D01*
X77101000Y-52714000D01*
X77287000Y-53005000D01*
X77423000Y-53321000D01*
X77507000Y-53656000D01*
X77535000Y-54000000D01*
X77507000Y-54344000D01*
X77423000Y-54679000D01*
X77287000Y-54995000D01*
X77101000Y-55286000D01*
X76870000Y-55542000D01*
X76600000Y-55758000D01*
X76300000Y-55927000D01*
X75976000Y-56045000D01*
X75637000Y-56108000D01*
X75292000Y-56116000D01*
X74950000Y-56068000D01*
X74621000Y-55966000D01*
X74313000Y-55811000D01*
X74033000Y-55608000D01*
X73793000Y-55365000D01*
X72165000Y-55365000D01*
X72165000Y-57250000D01*
X78665000Y-57250000D01*
X78665000Y-50750000D01*
G36*
X78665000Y-57250000D02*
G01*
X72165000Y-57250000D01*
X72165000Y-55365000D01*
X73793000Y-55365000D01*
X74033000Y-55608000D01*
X74313000Y-55811000D01*
X74621000Y-55966000D01*
X74950000Y-56068000D01*
X75292000Y-56116000D01*
X75637000Y-56108000D01*
X75976000Y-56045000D01*
X76300000Y-55927000D01*
X76600000Y-55758000D01*
X76870000Y-55542000D01*
X77101000Y-55286000D01*
X77287000Y-54995000D01*
X77423000Y-54679000D01*
X77507000Y-54344000D01*
X77535000Y-54000000D01*
X77507000Y-53656000D01*
X77423000Y-53321000D01*
X77287000Y-53005000D01*
X77101000Y-52714000D01*
X76870000Y-52458000D01*
X76600000Y-52242000D01*
X76300000Y-52073000D01*
X75976000Y-51955000D01*
X75637000Y-51892000D01*
X75292000Y-51884000D01*
X74950000Y-51932000D01*
X74621000Y-52034000D01*
X74313000Y-52189000D01*
X74033000Y-52392000D01*
X73793000Y-52635000D01*
X72165000Y-52635000D01*
X72165000Y-50750000D01*
X78665000Y-50750000D01*
X78665000Y-57250000D01*
G37*
%TO.C,K17*%
X72815000Y-29685000D02*
X70995000Y-29685000D01*
X70785000Y-29895000D01*
X70375000Y-29895000D01*
X70375000Y-30105000D01*
X70785000Y-30105000D01*
X70995000Y-30315000D01*
X72815000Y-30315000D01*
X72815000Y-29685000D01*
G36*
X72815000Y-30315000D02*
G01*
X70995000Y-30315000D01*
X70785000Y-30105000D01*
X70375000Y-30105000D01*
X70375000Y-29895000D01*
X70785000Y-29895000D01*
X70995000Y-29685000D01*
X72815000Y-29685000D01*
X72815000Y-30315000D01*
G37*
X78665000Y-26750000D02*
X72165000Y-26750000D01*
X72165000Y-28635000D01*
X73793000Y-28635000D01*
X74033000Y-28392000D01*
X74313000Y-28189000D01*
X74621000Y-28034000D01*
X74950000Y-27932000D01*
X75292000Y-27884000D01*
X75637000Y-27892000D01*
X75976000Y-27955000D01*
X76300000Y-28073000D01*
X76600000Y-28242000D01*
X76870000Y-28458000D01*
X77101000Y-28714000D01*
X77287000Y-29005000D01*
X77423000Y-29321000D01*
X77507000Y-29656000D01*
X77535000Y-30000000D01*
X77507000Y-30344000D01*
X77423000Y-30679000D01*
X77287000Y-30995000D01*
X77101000Y-31286000D01*
X76870000Y-31542000D01*
X76600000Y-31758000D01*
X76300000Y-31927000D01*
X75976000Y-32045000D01*
X75637000Y-32108000D01*
X75292000Y-32116000D01*
X74950000Y-32068000D01*
X74621000Y-31966000D01*
X74313000Y-31811000D01*
X74033000Y-31608000D01*
X73793000Y-31365000D01*
X72165000Y-31365000D01*
X72165000Y-33250000D01*
X78665000Y-33250000D01*
X78665000Y-26750000D01*
G36*
X78665000Y-33250000D02*
G01*
X72165000Y-33250000D01*
X72165000Y-31365000D01*
X73793000Y-31365000D01*
X74033000Y-31608000D01*
X74313000Y-31811000D01*
X74621000Y-31966000D01*
X74950000Y-32068000D01*
X75292000Y-32116000D01*
X75637000Y-32108000D01*
X75976000Y-32045000D01*
X76300000Y-31927000D01*
X76600000Y-31758000D01*
X76870000Y-31542000D01*
X77101000Y-31286000D01*
X77287000Y-30995000D01*
X77423000Y-30679000D01*
X77507000Y-30344000D01*
X77535000Y-30000000D01*
X77507000Y-29656000D01*
X77423000Y-29321000D01*
X77287000Y-29005000D01*
X77101000Y-28714000D01*
X76870000Y-28458000D01*
X76600000Y-28242000D01*
X76300000Y-28073000D01*
X75976000Y-27955000D01*
X75637000Y-27892000D01*
X75292000Y-27884000D01*
X74950000Y-27932000D01*
X74621000Y-28034000D01*
X74313000Y-28189000D01*
X74033000Y-28392000D01*
X73793000Y-28635000D01*
X72165000Y-28635000D01*
X72165000Y-26750000D01*
X78665000Y-26750000D01*
X78665000Y-33250000D01*
G37*
%TO.C,K9*%
X20285000Y-90315000D02*
X22105000Y-90315000D01*
X22315000Y-90105000D01*
X22725000Y-90105000D01*
X22725000Y-89895000D01*
X22315000Y-89895000D01*
X22105000Y-89685000D01*
X20285000Y-89685000D01*
X20285000Y-90315000D01*
G36*
X22315000Y-89895000D02*
G01*
X22725000Y-89895000D01*
X22725000Y-90105000D01*
X22315000Y-90105000D01*
X22105000Y-90315000D01*
X20285000Y-90315000D01*
X20285000Y-89685000D01*
X22105000Y-89685000D01*
X22315000Y-89895000D01*
G37*
X14435000Y-93250000D02*
X20935000Y-93250000D01*
X20935000Y-91365000D01*
X19307000Y-91365000D01*
X19067000Y-91608000D01*
X18787000Y-91811000D01*
X18479000Y-91966000D01*
X18150000Y-92068000D01*
X17808000Y-92116000D01*
X17463000Y-92108000D01*
X17124000Y-92045000D01*
X16800000Y-91927000D01*
X16500000Y-91758000D01*
X16230000Y-91542000D01*
X15999000Y-91286000D01*
X15813000Y-90995000D01*
X15677000Y-90679000D01*
X15593000Y-90344000D01*
X15565000Y-90000000D01*
X15593000Y-89656000D01*
X15677000Y-89321000D01*
X15813000Y-89005000D01*
X15999000Y-88714000D01*
X16230000Y-88458000D01*
X16500000Y-88242000D01*
X16800000Y-88073000D01*
X17124000Y-87955000D01*
X17463000Y-87892000D01*
X17808000Y-87884000D01*
X18150000Y-87932000D01*
X18479000Y-88034000D01*
X18787000Y-88189000D01*
X19067000Y-88392000D01*
X19307000Y-88635000D01*
X20935000Y-88635000D01*
X20935000Y-86750000D01*
X14435000Y-86750000D01*
X14435000Y-93250000D01*
G36*
X20935000Y-88635000D02*
G01*
X19307000Y-88635000D01*
X19067000Y-88392000D01*
X18787000Y-88189000D01*
X18479000Y-88034000D01*
X18150000Y-87932000D01*
X17808000Y-87884000D01*
X17463000Y-87892000D01*
X17124000Y-87955000D01*
X16800000Y-88073000D01*
X16500000Y-88242000D01*
X16230000Y-88458000D01*
X15999000Y-88714000D01*
X15813000Y-89005000D01*
X15677000Y-89321000D01*
X15593000Y-89656000D01*
X15565000Y-90000000D01*
X15593000Y-90344000D01*
X15677000Y-90679000D01*
X15813000Y-90995000D01*
X15999000Y-91286000D01*
X16230000Y-91542000D01*
X16500000Y-91758000D01*
X16800000Y-91927000D01*
X17124000Y-92045000D01*
X17463000Y-92108000D01*
X17808000Y-92116000D01*
X18150000Y-92068000D01*
X18479000Y-91966000D01*
X18787000Y-91811000D01*
X19067000Y-91608000D01*
X19307000Y-91365000D01*
X20935000Y-91365000D01*
X20935000Y-93250000D01*
X14435000Y-93250000D01*
X14435000Y-86750000D01*
X20935000Y-86750000D01*
X20935000Y-88635000D01*
G37*
%TO.C,IV*%
X72815000Y-69685000D02*
X70995000Y-69685000D01*
X70785000Y-69895000D01*
X70375000Y-69895000D01*
X70375000Y-70105000D01*
X70785000Y-70105000D01*
X70995000Y-70315000D01*
X72815000Y-70315000D01*
X72815000Y-69685000D01*
G36*
X72815000Y-70315000D02*
G01*
X70995000Y-70315000D01*
X70785000Y-70105000D01*
X70375000Y-70105000D01*
X70375000Y-69895000D01*
X70785000Y-69895000D01*
X70995000Y-69685000D01*
X72815000Y-69685000D01*
X72815000Y-70315000D01*
G37*
X78665000Y-66750000D02*
X72165000Y-66750000D01*
X72165000Y-68635000D01*
X73793000Y-68635000D01*
X74033000Y-68392000D01*
X74313000Y-68189000D01*
X74621000Y-68034000D01*
X74950000Y-67932000D01*
X75292000Y-67884000D01*
X75637000Y-67892000D01*
X75976000Y-67955000D01*
X76300000Y-68073000D01*
X76600000Y-68242000D01*
X76870000Y-68458000D01*
X77101000Y-68714000D01*
X77287000Y-69005000D01*
X77423000Y-69321000D01*
X77507000Y-69656000D01*
X77535000Y-70000000D01*
X77507000Y-70344000D01*
X77423000Y-70679000D01*
X77287000Y-70995000D01*
X77101000Y-71286000D01*
X76870000Y-71542000D01*
X76600000Y-71758000D01*
X76300000Y-71927000D01*
X75976000Y-72045000D01*
X75637000Y-72108000D01*
X75292000Y-72116000D01*
X74950000Y-72068000D01*
X74621000Y-71966000D01*
X74313000Y-71811000D01*
X74033000Y-71608000D01*
X73793000Y-71365000D01*
X72165000Y-71365000D01*
X72165000Y-73250000D01*
X78665000Y-73250000D01*
X78665000Y-66750000D01*
G36*
X78665000Y-73250000D02*
G01*
X72165000Y-73250000D01*
X72165000Y-71365000D01*
X73793000Y-71365000D01*
X74033000Y-71608000D01*
X74313000Y-71811000D01*
X74621000Y-71966000D01*
X74950000Y-72068000D01*
X75292000Y-72116000D01*
X75637000Y-72108000D01*
X75976000Y-72045000D01*
X76300000Y-71927000D01*
X76600000Y-71758000D01*
X76870000Y-71542000D01*
X77101000Y-71286000D01*
X77287000Y-70995000D01*
X77423000Y-70679000D01*
X77507000Y-70344000D01*
X77535000Y-70000000D01*
X77507000Y-69656000D01*
X77423000Y-69321000D01*
X77287000Y-69005000D01*
X77101000Y-68714000D01*
X76870000Y-68458000D01*
X76600000Y-68242000D01*
X76300000Y-68073000D01*
X75976000Y-67955000D01*
X75637000Y-67892000D01*
X75292000Y-67884000D01*
X74950000Y-67932000D01*
X74621000Y-68034000D01*
X74313000Y-68189000D01*
X74033000Y-68392000D01*
X73793000Y-68635000D01*
X72165000Y-68635000D01*
X72165000Y-66750000D01*
X78665000Y-66750000D01*
X78665000Y-73250000D01*
G37*
%TO.C,K3*%
X72815000Y-85685000D02*
X70995000Y-85685000D01*
X70785000Y-85895000D01*
X70375000Y-85895000D01*
X70375000Y-86105000D01*
X70785000Y-86105000D01*
X70995000Y-86315000D01*
X72815000Y-86315000D01*
X72815000Y-85685000D01*
G36*
X72815000Y-86315000D02*
G01*
X70995000Y-86315000D01*
X70785000Y-86105000D01*
X70375000Y-86105000D01*
X70375000Y-85895000D01*
X70785000Y-85895000D01*
X70995000Y-85685000D01*
X72815000Y-85685000D01*
X72815000Y-86315000D01*
G37*
X78665000Y-82750000D02*
X72165000Y-82750000D01*
X72165000Y-84635000D01*
X73793000Y-84635000D01*
X74033000Y-84392000D01*
X74313000Y-84189000D01*
X74621000Y-84034000D01*
X74950000Y-83932000D01*
X75292000Y-83884000D01*
X75637000Y-83892000D01*
X75976000Y-83955000D01*
X76300000Y-84073000D01*
X76600000Y-84242000D01*
X76870000Y-84458000D01*
X77101000Y-84714000D01*
X77287000Y-85005000D01*
X77423000Y-85321000D01*
X77507000Y-85656000D01*
X77535000Y-86000000D01*
X77507000Y-86344000D01*
X77423000Y-86679000D01*
X77287000Y-86995000D01*
X77101000Y-87286000D01*
X76870000Y-87542000D01*
X76600000Y-87758000D01*
X76300000Y-87927000D01*
X75976000Y-88045000D01*
X75637000Y-88108000D01*
X75292000Y-88116000D01*
X74950000Y-88068000D01*
X74621000Y-87966000D01*
X74313000Y-87811000D01*
X74033000Y-87608000D01*
X73793000Y-87365000D01*
X72165000Y-87365000D01*
X72165000Y-89250000D01*
X78665000Y-89250000D01*
X78665000Y-82750000D01*
G36*
X78665000Y-89250000D02*
G01*
X72165000Y-89250000D01*
X72165000Y-87365000D01*
X73793000Y-87365000D01*
X74033000Y-87608000D01*
X74313000Y-87811000D01*
X74621000Y-87966000D01*
X74950000Y-88068000D01*
X75292000Y-88116000D01*
X75637000Y-88108000D01*
X75976000Y-88045000D01*
X76300000Y-87927000D01*
X76600000Y-87758000D01*
X76870000Y-87542000D01*
X77101000Y-87286000D01*
X77287000Y-86995000D01*
X77423000Y-86679000D01*
X77507000Y-86344000D01*
X77535000Y-86000000D01*
X77507000Y-85656000D01*
X77423000Y-85321000D01*
X77287000Y-85005000D01*
X77101000Y-84714000D01*
X76870000Y-84458000D01*
X76600000Y-84242000D01*
X76300000Y-84073000D01*
X75976000Y-83955000D01*
X75637000Y-83892000D01*
X75292000Y-83884000D01*
X74950000Y-83932000D01*
X74621000Y-84034000D01*
X74313000Y-84189000D01*
X74033000Y-84392000D01*
X73793000Y-84635000D01*
X72165000Y-84635000D01*
X72165000Y-82750000D01*
X78665000Y-82750000D01*
X78665000Y-89250000D01*
G37*
%TO.C,K4*%
X72815000Y-93685000D02*
X70995000Y-93685000D01*
X70785000Y-93895000D01*
X70375000Y-93895000D01*
X70375000Y-94105000D01*
X70785000Y-94105000D01*
X70995000Y-94315000D01*
X72815000Y-94315000D01*
X72815000Y-93685000D01*
G36*
X72815000Y-94315000D02*
G01*
X70995000Y-94315000D01*
X70785000Y-94105000D01*
X70375000Y-94105000D01*
X70375000Y-93895000D01*
X70785000Y-93895000D01*
X70995000Y-93685000D01*
X72815000Y-93685000D01*
X72815000Y-94315000D01*
G37*
X78665000Y-90750000D02*
X72165000Y-90750000D01*
X72165000Y-92635000D01*
X73793000Y-92635000D01*
X74033000Y-92392000D01*
X74313000Y-92189000D01*
X74621000Y-92034000D01*
X74950000Y-91932000D01*
X75292000Y-91884000D01*
X75637000Y-91892000D01*
X75976000Y-91955000D01*
X76300000Y-92073000D01*
X76600000Y-92242000D01*
X76870000Y-92458000D01*
X77101000Y-92714000D01*
X77287000Y-93005000D01*
X77423000Y-93321000D01*
X77507000Y-93656000D01*
X77535000Y-94000000D01*
X77507000Y-94344000D01*
X77423000Y-94679000D01*
X77287000Y-94995000D01*
X77101000Y-95286000D01*
X76870000Y-95542000D01*
X76600000Y-95758000D01*
X76300000Y-95927000D01*
X75976000Y-96045000D01*
X75637000Y-96108000D01*
X75292000Y-96116000D01*
X74950000Y-96068000D01*
X74621000Y-95966000D01*
X74313000Y-95811000D01*
X74033000Y-95608000D01*
X73793000Y-95365000D01*
X72165000Y-95365000D01*
X72165000Y-97250000D01*
X78665000Y-97250000D01*
X78665000Y-90750000D01*
G36*
X78665000Y-97250000D02*
G01*
X72165000Y-97250000D01*
X72165000Y-95365000D01*
X73793000Y-95365000D01*
X74033000Y-95608000D01*
X74313000Y-95811000D01*
X74621000Y-95966000D01*
X74950000Y-96068000D01*
X75292000Y-96116000D01*
X75637000Y-96108000D01*
X75976000Y-96045000D01*
X76300000Y-95927000D01*
X76600000Y-95758000D01*
X76870000Y-95542000D01*
X77101000Y-95286000D01*
X77287000Y-94995000D01*
X77423000Y-94679000D01*
X77507000Y-94344000D01*
X77535000Y-94000000D01*
X77507000Y-93656000D01*
X77423000Y-93321000D01*
X77287000Y-93005000D01*
X77101000Y-92714000D01*
X76870000Y-92458000D01*
X76600000Y-92242000D01*
X76300000Y-92073000D01*
X75976000Y-91955000D01*
X75637000Y-91892000D01*
X75292000Y-91884000D01*
X74950000Y-91932000D01*
X74621000Y-92034000D01*
X74313000Y-92189000D01*
X74033000Y-92392000D01*
X73793000Y-92635000D01*
X72165000Y-92635000D01*
X72165000Y-90750000D01*
X78665000Y-90750000D01*
X78665000Y-97250000D01*
G37*
%TO.C,K11*%
X20285000Y-74315000D02*
X22105000Y-74315000D01*
X22315000Y-74105000D01*
X22725000Y-74105000D01*
X22725000Y-73895000D01*
X22315000Y-73895000D01*
X22105000Y-73685000D01*
X20285000Y-73685000D01*
X20285000Y-74315000D01*
G36*
X22315000Y-73895000D02*
G01*
X22725000Y-73895000D01*
X22725000Y-74105000D01*
X22315000Y-74105000D01*
X22105000Y-74315000D01*
X20285000Y-74315000D01*
X20285000Y-73685000D01*
X22105000Y-73685000D01*
X22315000Y-73895000D01*
G37*
X14435000Y-77250000D02*
X20935000Y-77250000D01*
X20935000Y-75365000D01*
X19307000Y-75365000D01*
X19067000Y-75608000D01*
X18787000Y-75811000D01*
X18479000Y-75966000D01*
X18150000Y-76068000D01*
X17808000Y-76116000D01*
X17463000Y-76108000D01*
X17124000Y-76045000D01*
X16800000Y-75927000D01*
X16500000Y-75758000D01*
X16230000Y-75542000D01*
X15999000Y-75286000D01*
X15813000Y-74995000D01*
X15677000Y-74679000D01*
X15593000Y-74344000D01*
X15565000Y-74000000D01*
X15593000Y-73656000D01*
X15677000Y-73321000D01*
X15813000Y-73005000D01*
X15999000Y-72714000D01*
X16230000Y-72458000D01*
X16500000Y-72242000D01*
X16800000Y-72073000D01*
X17124000Y-71955000D01*
X17463000Y-71892000D01*
X17808000Y-71884000D01*
X18150000Y-71932000D01*
X18479000Y-72034000D01*
X18787000Y-72189000D01*
X19067000Y-72392000D01*
X19307000Y-72635000D01*
X20935000Y-72635000D01*
X20935000Y-70750000D01*
X14435000Y-70750000D01*
X14435000Y-77250000D01*
G36*
X20935000Y-72635000D02*
G01*
X19307000Y-72635000D01*
X19067000Y-72392000D01*
X18787000Y-72189000D01*
X18479000Y-72034000D01*
X18150000Y-71932000D01*
X17808000Y-71884000D01*
X17463000Y-71892000D01*
X17124000Y-71955000D01*
X16800000Y-72073000D01*
X16500000Y-72242000D01*
X16230000Y-72458000D01*
X15999000Y-72714000D01*
X15813000Y-73005000D01*
X15677000Y-73321000D01*
X15593000Y-73656000D01*
X15565000Y-74000000D01*
X15593000Y-74344000D01*
X15677000Y-74679000D01*
X15813000Y-74995000D01*
X15999000Y-75286000D01*
X16230000Y-75542000D01*
X16500000Y-75758000D01*
X16800000Y-75927000D01*
X17124000Y-76045000D01*
X17463000Y-76108000D01*
X17808000Y-76116000D01*
X18150000Y-76068000D01*
X18479000Y-75966000D01*
X18787000Y-75811000D01*
X19067000Y-75608000D01*
X19307000Y-75365000D01*
X20935000Y-75365000D01*
X20935000Y-77250000D01*
X14435000Y-77250000D01*
X14435000Y-70750000D01*
X20935000Y-70750000D01*
X20935000Y-72635000D01*
G37*
%TO.C,K16*%
X72815000Y-21685000D02*
X70995000Y-21685000D01*
X70785000Y-21895000D01*
X70375000Y-21895000D01*
X70375000Y-22105000D01*
X70785000Y-22105000D01*
X70995000Y-22315000D01*
X72815000Y-22315000D01*
X72815000Y-21685000D01*
G36*
X72815000Y-22315000D02*
G01*
X70995000Y-22315000D01*
X70785000Y-22105000D01*
X70375000Y-22105000D01*
X70375000Y-21895000D01*
X70785000Y-21895000D01*
X70995000Y-21685000D01*
X72815000Y-21685000D01*
X72815000Y-22315000D01*
G37*
X78665000Y-18750000D02*
X72165000Y-18750000D01*
X72165000Y-20635000D01*
X73793000Y-20635000D01*
X74033000Y-20392000D01*
X74313000Y-20189000D01*
X74621000Y-20034000D01*
X74950000Y-19932000D01*
X75292000Y-19884000D01*
X75637000Y-19892000D01*
X75976000Y-19955000D01*
X76300000Y-20073000D01*
X76600000Y-20242000D01*
X76870000Y-20458000D01*
X77101000Y-20714000D01*
X77287000Y-21005000D01*
X77423000Y-21321000D01*
X77507000Y-21656000D01*
X77535000Y-22000000D01*
X77507000Y-22344000D01*
X77423000Y-22679000D01*
X77287000Y-22995000D01*
X77101000Y-23286000D01*
X76870000Y-23542000D01*
X76600000Y-23758000D01*
X76300000Y-23927000D01*
X75976000Y-24045000D01*
X75637000Y-24108000D01*
X75292000Y-24116000D01*
X74950000Y-24068000D01*
X74621000Y-23966000D01*
X74313000Y-23811000D01*
X74033000Y-23608000D01*
X73793000Y-23365000D01*
X72165000Y-23365000D01*
X72165000Y-25250000D01*
X78665000Y-25250000D01*
X78665000Y-18750000D01*
G36*
X78665000Y-25250000D02*
G01*
X72165000Y-25250000D01*
X72165000Y-23365000D01*
X73793000Y-23365000D01*
X74033000Y-23608000D01*
X74313000Y-23811000D01*
X74621000Y-23966000D01*
X74950000Y-24068000D01*
X75292000Y-24116000D01*
X75637000Y-24108000D01*
X75976000Y-24045000D01*
X76300000Y-23927000D01*
X76600000Y-23758000D01*
X76870000Y-23542000D01*
X77101000Y-23286000D01*
X77287000Y-22995000D01*
X77423000Y-22679000D01*
X77507000Y-22344000D01*
X77535000Y-22000000D01*
X77507000Y-21656000D01*
X77423000Y-21321000D01*
X77287000Y-21005000D01*
X77101000Y-20714000D01*
X76870000Y-20458000D01*
X76600000Y-20242000D01*
X76300000Y-20073000D01*
X75976000Y-19955000D01*
X75637000Y-19892000D01*
X75292000Y-19884000D01*
X74950000Y-19932000D01*
X74621000Y-20034000D01*
X74313000Y-20189000D01*
X74033000Y-20392000D01*
X73793000Y-20635000D01*
X72165000Y-20635000D01*
X72165000Y-18750000D01*
X78665000Y-18750000D01*
X78665000Y-25250000D01*
G37*
%TO.C,K0*%
X20285000Y-98315000D02*
X22105000Y-98315000D01*
X22315000Y-98105000D01*
X22725000Y-98105000D01*
X22725000Y-97895000D01*
X22315000Y-97895000D01*
X22105000Y-97685000D01*
X20285000Y-97685000D01*
X20285000Y-98315000D01*
G36*
X22315000Y-97895000D02*
G01*
X22725000Y-97895000D01*
X22725000Y-98105000D01*
X22315000Y-98105000D01*
X22105000Y-98315000D01*
X20285000Y-98315000D01*
X20285000Y-97685000D01*
X22105000Y-97685000D01*
X22315000Y-97895000D01*
G37*
X14435000Y-101250000D02*
X20935000Y-101250000D01*
X20935000Y-99365000D01*
X19307000Y-99365000D01*
X19067000Y-99608000D01*
X18787000Y-99811000D01*
X18479000Y-99966000D01*
X18150000Y-100068000D01*
X17808000Y-100116000D01*
X17463000Y-100108000D01*
X17124000Y-100045000D01*
X16800000Y-99927000D01*
X16500000Y-99758000D01*
X16230000Y-99542000D01*
X15999000Y-99286000D01*
X15813000Y-98995000D01*
X15677000Y-98679000D01*
X15593000Y-98344000D01*
X15565000Y-98000000D01*
X15593000Y-97656000D01*
X15677000Y-97321000D01*
X15813000Y-97005000D01*
X15999000Y-96714000D01*
X16230000Y-96458000D01*
X16500000Y-96242000D01*
X16800000Y-96073000D01*
X17124000Y-95955000D01*
X17463000Y-95892000D01*
X17808000Y-95884000D01*
X18150000Y-95932000D01*
X18479000Y-96034000D01*
X18787000Y-96189000D01*
X19067000Y-96392000D01*
X19307000Y-96635000D01*
X20935000Y-96635000D01*
X20935000Y-94750000D01*
X14435000Y-94750000D01*
X14435000Y-101250000D01*
G36*
X20935000Y-96635000D02*
G01*
X19307000Y-96635000D01*
X19067000Y-96392000D01*
X18787000Y-96189000D01*
X18479000Y-96034000D01*
X18150000Y-95932000D01*
X17808000Y-95884000D01*
X17463000Y-95892000D01*
X17124000Y-95955000D01*
X16800000Y-96073000D01*
X16500000Y-96242000D01*
X16230000Y-96458000D01*
X15999000Y-96714000D01*
X15813000Y-97005000D01*
X15677000Y-97321000D01*
X15593000Y-97656000D01*
X15565000Y-98000000D01*
X15593000Y-98344000D01*
X15677000Y-98679000D01*
X15813000Y-98995000D01*
X15999000Y-99286000D01*
X16230000Y-99542000D01*
X16500000Y-99758000D01*
X16800000Y-99927000D01*
X17124000Y-100045000D01*
X17463000Y-100108000D01*
X17808000Y-100116000D01*
X18150000Y-100068000D01*
X18479000Y-99966000D01*
X18787000Y-99811000D01*
X19067000Y-99608000D01*
X19307000Y-99365000D01*
X20935000Y-99365000D01*
X20935000Y-101250000D01*
X14435000Y-101250000D01*
X14435000Y-94750000D01*
X20935000Y-94750000D01*
X20935000Y-96635000D01*
G37*
%TO.C,K14*%
X20285000Y-50315000D02*
X22105000Y-50315000D01*
X22315000Y-50105000D01*
X22725000Y-50105000D01*
X22725000Y-49895000D01*
X22315000Y-49895000D01*
X22105000Y-49685000D01*
X20285000Y-49685000D01*
X20285000Y-50315000D01*
G36*
X22315000Y-49895000D02*
G01*
X22725000Y-49895000D01*
X22725000Y-50105000D01*
X22315000Y-50105000D01*
X22105000Y-50315000D01*
X20285000Y-50315000D01*
X20285000Y-49685000D01*
X22105000Y-49685000D01*
X22315000Y-49895000D01*
G37*
X14435000Y-53250000D02*
X20935000Y-53250000D01*
X20935000Y-51365000D01*
X19307000Y-51365000D01*
X19067000Y-51608000D01*
X18787000Y-51811000D01*
X18479000Y-51966000D01*
X18150000Y-52068000D01*
X17808000Y-52116000D01*
X17463000Y-52108000D01*
X17124000Y-52045000D01*
X16800000Y-51927000D01*
X16500000Y-51758000D01*
X16230000Y-51542000D01*
X15999000Y-51286000D01*
X15813000Y-50995000D01*
X15677000Y-50679000D01*
X15593000Y-50344000D01*
X15565000Y-50000000D01*
X15593000Y-49656000D01*
X15677000Y-49321000D01*
X15813000Y-49005000D01*
X15999000Y-48714000D01*
X16230000Y-48458000D01*
X16500000Y-48242000D01*
X16800000Y-48073000D01*
X17124000Y-47955000D01*
X17463000Y-47892000D01*
X17808000Y-47884000D01*
X18150000Y-47932000D01*
X18479000Y-48034000D01*
X18787000Y-48189000D01*
X19067000Y-48392000D01*
X19307000Y-48635000D01*
X20935000Y-48635000D01*
X20935000Y-46750000D01*
X14435000Y-46750000D01*
X14435000Y-53250000D01*
G36*
X20935000Y-48635000D02*
G01*
X19307000Y-48635000D01*
X19067000Y-48392000D01*
X18787000Y-48189000D01*
X18479000Y-48034000D01*
X18150000Y-47932000D01*
X17808000Y-47884000D01*
X17463000Y-47892000D01*
X17124000Y-47955000D01*
X16800000Y-48073000D01*
X16500000Y-48242000D01*
X16230000Y-48458000D01*
X15999000Y-48714000D01*
X15813000Y-49005000D01*
X15677000Y-49321000D01*
X15593000Y-49656000D01*
X15565000Y-50000000D01*
X15593000Y-50344000D01*
X15677000Y-50679000D01*
X15813000Y-50995000D01*
X15999000Y-51286000D01*
X16230000Y-51542000D01*
X16500000Y-51758000D01*
X16800000Y-51927000D01*
X17124000Y-52045000D01*
X17463000Y-52108000D01*
X17808000Y-52116000D01*
X18150000Y-52068000D01*
X18479000Y-51966000D01*
X18787000Y-51811000D01*
X19067000Y-51608000D01*
X19307000Y-51365000D01*
X20935000Y-51365000D01*
X20935000Y-53250000D01*
X14435000Y-53250000D01*
X14435000Y-46750000D01*
X20935000Y-46750000D01*
X20935000Y-48635000D01*
G37*
%TO.C,K22*%
X20285000Y-26315000D02*
X22105000Y-26315000D01*
X22315000Y-26105000D01*
X22725000Y-26105000D01*
X22725000Y-25895000D01*
X22315000Y-25895000D01*
X22105000Y-25685000D01*
X20285000Y-25685000D01*
X20285000Y-26315000D01*
G36*
X22315000Y-25895000D02*
G01*
X22725000Y-25895000D01*
X22725000Y-26105000D01*
X22315000Y-26105000D01*
X22105000Y-26315000D01*
X20285000Y-26315000D01*
X20285000Y-25685000D01*
X22105000Y-25685000D01*
X22315000Y-25895000D01*
G37*
X14435000Y-29250000D02*
X20935000Y-29250000D01*
X20935000Y-27365000D01*
X19307000Y-27365000D01*
X19067000Y-27608000D01*
X18787000Y-27811000D01*
X18479000Y-27966000D01*
X18150000Y-28068000D01*
X17808000Y-28116000D01*
X17463000Y-28108000D01*
X17124000Y-28045000D01*
X16800000Y-27927000D01*
X16500000Y-27758000D01*
X16230000Y-27542000D01*
X15999000Y-27286000D01*
X15813000Y-26995000D01*
X15677000Y-26679000D01*
X15593000Y-26344000D01*
X15565000Y-26000000D01*
X15593000Y-25656000D01*
X15677000Y-25321000D01*
X15813000Y-25005000D01*
X15999000Y-24714000D01*
X16230000Y-24458000D01*
X16500000Y-24242000D01*
X16800000Y-24073000D01*
X17124000Y-23955000D01*
X17463000Y-23892000D01*
X17808000Y-23884000D01*
X18150000Y-23932000D01*
X18479000Y-24034000D01*
X18787000Y-24189000D01*
X19067000Y-24392000D01*
X19307000Y-24635000D01*
X20935000Y-24635000D01*
X20935000Y-22750000D01*
X14435000Y-22750000D01*
X14435000Y-29250000D01*
G36*
X20935000Y-24635000D02*
G01*
X19307000Y-24635000D01*
X19067000Y-24392000D01*
X18787000Y-24189000D01*
X18479000Y-24034000D01*
X18150000Y-23932000D01*
X17808000Y-23884000D01*
X17463000Y-23892000D01*
X17124000Y-23955000D01*
X16800000Y-24073000D01*
X16500000Y-24242000D01*
X16230000Y-24458000D01*
X15999000Y-24714000D01*
X15813000Y-25005000D01*
X15677000Y-25321000D01*
X15593000Y-25656000D01*
X15565000Y-26000000D01*
X15593000Y-26344000D01*
X15677000Y-26679000D01*
X15813000Y-26995000D01*
X15999000Y-27286000D01*
X16230000Y-27542000D01*
X16500000Y-27758000D01*
X16800000Y-27927000D01*
X17124000Y-28045000D01*
X17463000Y-28108000D01*
X17808000Y-28116000D01*
X18150000Y-28068000D01*
X18479000Y-27966000D01*
X18787000Y-27811000D01*
X19067000Y-27608000D01*
X19307000Y-27365000D01*
X20935000Y-27365000D01*
X20935000Y-29250000D01*
X14435000Y-29250000D01*
X14435000Y-22750000D01*
X20935000Y-22750000D01*
X20935000Y-24635000D01*
G37*
%TO.C,K15*%
X20285000Y-34315000D02*
X22105000Y-34315000D01*
X22315000Y-34105000D01*
X22725000Y-34105000D01*
X22725000Y-33895000D01*
X22315000Y-33895000D01*
X22105000Y-33685000D01*
X20285000Y-33685000D01*
X20285000Y-34315000D01*
G36*
X22315000Y-33895000D02*
G01*
X22725000Y-33895000D01*
X22725000Y-34105000D01*
X22315000Y-34105000D01*
X22105000Y-34315000D01*
X20285000Y-34315000D01*
X20285000Y-33685000D01*
X22105000Y-33685000D01*
X22315000Y-33895000D01*
G37*
X14435000Y-37250000D02*
X20935000Y-37250000D01*
X20935000Y-35365000D01*
X19307000Y-35365000D01*
X19067000Y-35608000D01*
X18787000Y-35811000D01*
X18479000Y-35966000D01*
X18150000Y-36068000D01*
X17808000Y-36116000D01*
X17463000Y-36108000D01*
X17124000Y-36045000D01*
X16800000Y-35927000D01*
X16500000Y-35758000D01*
X16230000Y-35542000D01*
X15999000Y-35286000D01*
X15813000Y-34995000D01*
X15677000Y-34679000D01*
X15593000Y-34344000D01*
X15565000Y-34000000D01*
X15593000Y-33656000D01*
X15677000Y-33321000D01*
X15813000Y-33005000D01*
X15999000Y-32714000D01*
X16230000Y-32458000D01*
X16500000Y-32242000D01*
X16800000Y-32073000D01*
X17124000Y-31955000D01*
X17463000Y-31892000D01*
X17808000Y-31884000D01*
X18150000Y-31932000D01*
X18479000Y-32034000D01*
X18787000Y-32189000D01*
X19067000Y-32392000D01*
X19307000Y-32635000D01*
X20935000Y-32635000D01*
X20935000Y-30750000D01*
X14435000Y-30750000D01*
X14435000Y-37250000D01*
G36*
X20935000Y-32635000D02*
G01*
X19307000Y-32635000D01*
X19067000Y-32392000D01*
X18787000Y-32189000D01*
X18479000Y-32034000D01*
X18150000Y-31932000D01*
X17808000Y-31884000D01*
X17463000Y-31892000D01*
X17124000Y-31955000D01*
X16800000Y-32073000D01*
X16500000Y-32242000D01*
X16230000Y-32458000D01*
X15999000Y-32714000D01*
X15813000Y-33005000D01*
X15677000Y-33321000D01*
X15593000Y-33656000D01*
X15565000Y-34000000D01*
X15593000Y-34344000D01*
X15677000Y-34679000D01*
X15813000Y-34995000D01*
X15999000Y-35286000D01*
X16230000Y-35542000D01*
X16500000Y-35758000D01*
X16800000Y-35927000D01*
X17124000Y-36045000D01*
X17463000Y-36108000D01*
X17808000Y-36116000D01*
X18150000Y-36068000D01*
X18479000Y-35966000D01*
X18787000Y-35811000D01*
X19067000Y-35608000D01*
X19307000Y-35365000D01*
X20935000Y-35365000D01*
X20935000Y-37250000D01*
X14435000Y-37250000D01*
X14435000Y-30750000D01*
X20935000Y-30750000D01*
X20935000Y-32635000D01*
G37*
%TO.C,K18*%
X72815000Y-37685000D02*
X70995000Y-37685000D01*
X70785000Y-37895000D01*
X70375000Y-37895000D01*
X70375000Y-38105000D01*
X70785000Y-38105000D01*
X70995000Y-38315000D01*
X72815000Y-38315000D01*
X72815000Y-37685000D01*
G36*
X72815000Y-38315000D02*
G01*
X70995000Y-38315000D01*
X70785000Y-38105000D01*
X70375000Y-38105000D01*
X70375000Y-37895000D01*
X70785000Y-37895000D01*
X70995000Y-37685000D01*
X72815000Y-37685000D01*
X72815000Y-38315000D01*
G37*
X78665000Y-34750000D02*
X72165000Y-34750000D01*
X72165000Y-36635000D01*
X73793000Y-36635000D01*
X74033000Y-36392000D01*
X74313000Y-36189000D01*
X74621000Y-36034000D01*
X74950000Y-35932000D01*
X75292000Y-35884000D01*
X75637000Y-35892000D01*
X75976000Y-35955000D01*
X76300000Y-36073000D01*
X76600000Y-36242000D01*
X76870000Y-36458000D01*
X77101000Y-36714000D01*
X77287000Y-37005000D01*
X77423000Y-37321000D01*
X77507000Y-37656000D01*
X77535000Y-38000000D01*
X77507000Y-38344000D01*
X77423000Y-38679000D01*
X77287000Y-38995000D01*
X77101000Y-39286000D01*
X76870000Y-39542000D01*
X76600000Y-39758000D01*
X76300000Y-39927000D01*
X75976000Y-40045000D01*
X75637000Y-40108000D01*
X75292000Y-40116000D01*
X74950000Y-40068000D01*
X74621000Y-39966000D01*
X74313000Y-39811000D01*
X74033000Y-39608000D01*
X73793000Y-39365000D01*
X72165000Y-39365000D01*
X72165000Y-41250000D01*
X78665000Y-41250000D01*
X78665000Y-34750000D01*
G36*
X78665000Y-41250000D02*
G01*
X72165000Y-41250000D01*
X72165000Y-39365000D01*
X73793000Y-39365000D01*
X74033000Y-39608000D01*
X74313000Y-39811000D01*
X74621000Y-39966000D01*
X74950000Y-40068000D01*
X75292000Y-40116000D01*
X75637000Y-40108000D01*
X75976000Y-40045000D01*
X76300000Y-39927000D01*
X76600000Y-39758000D01*
X76870000Y-39542000D01*
X77101000Y-39286000D01*
X77287000Y-38995000D01*
X77423000Y-38679000D01*
X77507000Y-38344000D01*
X77535000Y-38000000D01*
X77507000Y-37656000D01*
X77423000Y-37321000D01*
X77287000Y-37005000D01*
X77101000Y-36714000D01*
X76870000Y-36458000D01*
X76600000Y-36242000D01*
X76300000Y-36073000D01*
X75976000Y-35955000D01*
X75637000Y-35892000D01*
X75292000Y-35884000D01*
X74950000Y-35932000D01*
X74621000Y-36034000D01*
X74313000Y-36189000D01*
X74033000Y-36392000D01*
X73793000Y-36635000D01*
X72165000Y-36635000D01*
X72165000Y-34750000D01*
X78665000Y-34750000D01*
X78665000Y-41250000D01*
G37*
%TO.C,K1*%
X20285000Y-114315000D02*
X22105000Y-114315000D01*
X22315000Y-114105000D01*
X22725000Y-114105000D01*
X22725000Y-113895000D01*
X22315000Y-113895000D01*
X22105000Y-113685000D01*
X20285000Y-113685000D01*
X20285000Y-114315000D01*
G36*
X22315000Y-113895000D02*
G01*
X22725000Y-113895000D01*
X22725000Y-114105000D01*
X22315000Y-114105000D01*
X22105000Y-114315000D01*
X20285000Y-114315000D01*
X20285000Y-113685000D01*
X22105000Y-113685000D01*
X22315000Y-113895000D01*
G37*
X14435000Y-117250000D02*
X20935000Y-117250000D01*
X20935000Y-115365000D01*
X19307000Y-115365000D01*
X19067000Y-115608000D01*
X18787000Y-115811000D01*
X18479000Y-115966000D01*
X18150000Y-116068000D01*
X17808000Y-116116000D01*
X17463000Y-116108000D01*
X17124000Y-116045000D01*
X16800000Y-115927000D01*
X16500000Y-115758000D01*
X16230000Y-115542000D01*
X15999000Y-115286000D01*
X15813000Y-114995000D01*
X15677000Y-114679000D01*
X15593000Y-114344000D01*
X15565000Y-114000000D01*
X15593000Y-113656000D01*
X15677000Y-113321000D01*
X15813000Y-113005000D01*
X15999000Y-112714000D01*
X16230000Y-112458000D01*
X16500000Y-112242000D01*
X16800000Y-112073000D01*
X17124000Y-111955000D01*
X17463000Y-111892000D01*
X17808000Y-111884000D01*
X18150000Y-111932000D01*
X18479000Y-112034000D01*
X18787000Y-112189000D01*
X19067000Y-112392000D01*
X19307000Y-112635000D01*
X20935000Y-112635000D01*
X20935000Y-110750000D01*
X14435000Y-110750000D01*
X14435000Y-117250000D01*
G36*
X20935000Y-112635000D02*
G01*
X19307000Y-112635000D01*
X19067000Y-112392000D01*
X18787000Y-112189000D01*
X18479000Y-112034000D01*
X18150000Y-111932000D01*
X17808000Y-111884000D01*
X17463000Y-111892000D01*
X17124000Y-111955000D01*
X16800000Y-112073000D01*
X16500000Y-112242000D01*
X16230000Y-112458000D01*
X15999000Y-112714000D01*
X15813000Y-113005000D01*
X15677000Y-113321000D01*
X15593000Y-113656000D01*
X15565000Y-114000000D01*
X15593000Y-114344000D01*
X15677000Y-114679000D01*
X15813000Y-114995000D01*
X15999000Y-115286000D01*
X16230000Y-115542000D01*
X16500000Y-115758000D01*
X16800000Y-115927000D01*
X17124000Y-116045000D01*
X17463000Y-116108000D01*
X17808000Y-116116000D01*
X18150000Y-116068000D01*
X18479000Y-115966000D01*
X18787000Y-115811000D01*
X19067000Y-115608000D01*
X19307000Y-115365000D01*
X20935000Y-115365000D01*
X20935000Y-117250000D01*
X14435000Y-117250000D01*
X14435000Y-110750000D01*
X20935000Y-110750000D01*
X20935000Y-112635000D01*
G37*
%TO.C,K10*%
X20285000Y-82315000D02*
X22105000Y-82315000D01*
X22315000Y-82105000D01*
X22725000Y-82105000D01*
X22725000Y-81895000D01*
X22315000Y-81895000D01*
X22105000Y-81685000D01*
X20285000Y-81685000D01*
X20285000Y-82315000D01*
G36*
X22315000Y-81895000D02*
G01*
X22725000Y-81895000D01*
X22725000Y-82105000D01*
X22315000Y-82105000D01*
X22105000Y-82315000D01*
X20285000Y-82315000D01*
X20285000Y-81685000D01*
X22105000Y-81685000D01*
X22315000Y-81895000D01*
G37*
X14435000Y-85250000D02*
X20935000Y-85250000D01*
X20935000Y-83365000D01*
X19307000Y-83365000D01*
X19067000Y-83608000D01*
X18787000Y-83811000D01*
X18479000Y-83966000D01*
X18150000Y-84068000D01*
X17808000Y-84116000D01*
X17463000Y-84108000D01*
X17124000Y-84045000D01*
X16800000Y-83927000D01*
X16500000Y-83758000D01*
X16230000Y-83542000D01*
X15999000Y-83286000D01*
X15813000Y-82995000D01*
X15677000Y-82679000D01*
X15593000Y-82344000D01*
X15565000Y-82000000D01*
X15593000Y-81656000D01*
X15677000Y-81321000D01*
X15813000Y-81005000D01*
X15999000Y-80714000D01*
X16230000Y-80458000D01*
X16500000Y-80242000D01*
X16800000Y-80073000D01*
X17124000Y-79955000D01*
X17463000Y-79892000D01*
X17808000Y-79884000D01*
X18150000Y-79932000D01*
X18479000Y-80034000D01*
X18787000Y-80189000D01*
X19067000Y-80392000D01*
X19307000Y-80635000D01*
X20935000Y-80635000D01*
X20935000Y-78750000D01*
X14435000Y-78750000D01*
X14435000Y-85250000D01*
G36*
X20935000Y-80635000D02*
G01*
X19307000Y-80635000D01*
X19067000Y-80392000D01*
X18787000Y-80189000D01*
X18479000Y-80034000D01*
X18150000Y-79932000D01*
X17808000Y-79884000D01*
X17463000Y-79892000D01*
X17124000Y-79955000D01*
X16800000Y-80073000D01*
X16500000Y-80242000D01*
X16230000Y-80458000D01*
X15999000Y-80714000D01*
X15813000Y-81005000D01*
X15677000Y-81321000D01*
X15593000Y-81656000D01*
X15565000Y-82000000D01*
X15593000Y-82344000D01*
X15677000Y-82679000D01*
X15813000Y-82995000D01*
X15999000Y-83286000D01*
X16230000Y-83542000D01*
X16500000Y-83758000D01*
X16800000Y-83927000D01*
X17124000Y-84045000D01*
X17463000Y-84108000D01*
X17808000Y-84116000D01*
X18150000Y-84068000D01*
X18479000Y-83966000D01*
X18787000Y-83811000D01*
X19067000Y-83608000D01*
X19307000Y-83365000D01*
X20935000Y-83365000D01*
X20935000Y-85250000D01*
X14435000Y-85250000D01*
X14435000Y-78750000D01*
X20935000Y-78750000D01*
X20935000Y-80635000D01*
G37*
%TO.C,K19*%
X72815000Y-45685000D02*
X70995000Y-45685000D01*
X70785000Y-45895000D01*
X70375000Y-45895000D01*
X70375000Y-46105000D01*
X70785000Y-46105000D01*
X70995000Y-46315000D01*
X72815000Y-46315000D01*
X72815000Y-45685000D01*
G36*
X72815000Y-46315000D02*
G01*
X70995000Y-46315000D01*
X70785000Y-46105000D01*
X70375000Y-46105000D01*
X70375000Y-45895000D01*
X70785000Y-45895000D01*
X70995000Y-45685000D01*
X72815000Y-45685000D01*
X72815000Y-46315000D01*
G37*
X78665000Y-42750000D02*
X72165000Y-42750000D01*
X72165000Y-44635000D01*
X73793000Y-44635000D01*
X74033000Y-44392000D01*
X74313000Y-44189000D01*
X74621000Y-44034000D01*
X74950000Y-43932000D01*
X75292000Y-43884000D01*
X75637000Y-43892000D01*
X75976000Y-43955000D01*
X76300000Y-44073000D01*
X76600000Y-44242000D01*
X76870000Y-44458000D01*
X77101000Y-44714000D01*
X77287000Y-45005000D01*
X77423000Y-45321000D01*
X77507000Y-45656000D01*
X77535000Y-46000000D01*
X77507000Y-46344000D01*
X77423000Y-46679000D01*
X77287000Y-46995000D01*
X77101000Y-47286000D01*
X76870000Y-47542000D01*
X76600000Y-47758000D01*
X76300000Y-47927000D01*
X75976000Y-48045000D01*
X75637000Y-48108000D01*
X75292000Y-48116000D01*
X74950000Y-48068000D01*
X74621000Y-47966000D01*
X74313000Y-47811000D01*
X74033000Y-47608000D01*
X73793000Y-47365000D01*
X72165000Y-47365000D01*
X72165000Y-49250000D01*
X78665000Y-49250000D01*
X78665000Y-42750000D01*
G36*
X78665000Y-49250000D02*
G01*
X72165000Y-49250000D01*
X72165000Y-47365000D01*
X73793000Y-47365000D01*
X74033000Y-47608000D01*
X74313000Y-47811000D01*
X74621000Y-47966000D01*
X74950000Y-48068000D01*
X75292000Y-48116000D01*
X75637000Y-48108000D01*
X75976000Y-48045000D01*
X76300000Y-47927000D01*
X76600000Y-47758000D01*
X76870000Y-47542000D01*
X77101000Y-47286000D01*
X77287000Y-46995000D01*
X77423000Y-46679000D01*
X77507000Y-46344000D01*
X77535000Y-46000000D01*
X77507000Y-45656000D01*
X77423000Y-45321000D01*
X77287000Y-45005000D01*
X77101000Y-44714000D01*
X76870000Y-44458000D01*
X76600000Y-44242000D01*
X76300000Y-44073000D01*
X75976000Y-43955000D01*
X75637000Y-43892000D01*
X75292000Y-43884000D01*
X74950000Y-43932000D01*
X74621000Y-44034000D01*
X74313000Y-44189000D01*
X74033000Y-44392000D01*
X73793000Y-44635000D01*
X72165000Y-44635000D01*
X72165000Y-42750000D01*
X78665000Y-42750000D01*
X78665000Y-49250000D01*
G37*
%TO.C,K2*%
X72815000Y-77685000D02*
X70995000Y-77685000D01*
X70785000Y-77895000D01*
X70375000Y-77895000D01*
X70375000Y-78105000D01*
X70785000Y-78105000D01*
X70995000Y-78315000D01*
X72815000Y-78315000D01*
X72815000Y-77685000D01*
G36*
X72815000Y-78315000D02*
G01*
X70995000Y-78315000D01*
X70785000Y-78105000D01*
X70375000Y-78105000D01*
X70375000Y-77895000D01*
X70785000Y-77895000D01*
X70995000Y-77685000D01*
X72815000Y-77685000D01*
X72815000Y-78315000D01*
G37*
X78665000Y-74750000D02*
X72165000Y-74750000D01*
X72165000Y-76635000D01*
X73793000Y-76635000D01*
X74033000Y-76392000D01*
X74313000Y-76189000D01*
X74621000Y-76034000D01*
X74950000Y-75932000D01*
X75292000Y-75884000D01*
X75637000Y-75892000D01*
X75976000Y-75955000D01*
X76300000Y-76073000D01*
X76600000Y-76242000D01*
X76870000Y-76458000D01*
X77101000Y-76714000D01*
X77287000Y-77005000D01*
X77423000Y-77321000D01*
X77507000Y-77656000D01*
X77535000Y-78000000D01*
X77507000Y-78344000D01*
X77423000Y-78679000D01*
X77287000Y-78995000D01*
X77101000Y-79286000D01*
X76870000Y-79542000D01*
X76600000Y-79758000D01*
X76300000Y-79927000D01*
X75976000Y-80045000D01*
X75637000Y-80108000D01*
X75292000Y-80116000D01*
X74950000Y-80068000D01*
X74621000Y-79966000D01*
X74313000Y-79811000D01*
X74033000Y-79608000D01*
X73793000Y-79365000D01*
X72165000Y-79365000D01*
X72165000Y-81250000D01*
X78665000Y-81250000D01*
X78665000Y-74750000D01*
G36*
X78665000Y-81250000D02*
G01*
X72165000Y-81250000D01*
X72165000Y-79365000D01*
X73793000Y-79365000D01*
X74033000Y-79608000D01*
X74313000Y-79811000D01*
X74621000Y-79966000D01*
X74950000Y-80068000D01*
X75292000Y-80116000D01*
X75637000Y-80108000D01*
X75976000Y-80045000D01*
X76300000Y-79927000D01*
X76600000Y-79758000D01*
X76870000Y-79542000D01*
X77101000Y-79286000D01*
X77287000Y-78995000D01*
X77423000Y-78679000D01*
X77507000Y-78344000D01*
X77535000Y-78000000D01*
X77507000Y-77656000D01*
X77423000Y-77321000D01*
X77287000Y-77005000D01*
X77101000Y-76714000D01*
X76870000Y-76458000D01*
X76600000Y-76242000D01*
X76300000Y-76073000D01*
X75976000Y-75955000D01*
X75637000Y-75892000D01*
X75292000Y-75884000D01*
X74950000Y-75932000D01*
X74621000Y-76034000D01*
X74313000Y-76189000D01*
X74033000Y-76392000D01*
X73793000Y-76635000D01*
X72165000Y-76635000D01*
X72165000Y-74750000D01*
X78665000Y-74750000D01*
X78665000Y-81250000D01*
G37*
%TO.C,K5*%
X72815000Y-101685000D02*
X70995000Y-101685000D01*
X70785000Y-101895000D01*
X70375000Y-101895000D01*
X70375000Y-102105000D01*
X70785000Y-102105000D01*
X70995000Y-102315000D01*
X72815000Y-102315000D01*
X72815000Y-101685000D01*
G36*
X72815000Y-102315000D02*
G01*
X70995000Y-102315000D01*
X70785000Y-102105000D01*
X70375000Y-102105000D01*
X70375000Y-101895000D01*
X70785000Y-101895000D01*
X70995000Y-101685000D01*
X72815000Y-101685000D01*
X72815000Y-102315000D01*
G37*
X78665000Y-98750000D02*
X72165000Y-98750000D01*
X72165000Y-100635000D01*
X73793000Y-100635000D01*
X74033000Y-100392000D01*
X74313000Y-100189000D01*
X74621000Y-100034000D01*
X74950000Y-99932000D01*
X75292000Y-99884000D01*
X75637000Y-99892000D01*
X75976000Y-99955000D01*
X76300000Y-100073000D01*
X76600000Y-100242000D01*
X76870000Y-100458000D01*
X77101000Y-100714000D01*
X77287000Y-101005000D01*
X77423000Y-101321000D01*
X77507000Y-101656000D01*
X77535000Y-102000000D01*
X77507000Y-102344000D01*
X77423000Y-102679000D01*
X77287000Y-102995000D01*
X77101000Y-103286000D01*
X76870000Y-103542000D01*
X76600000Y-103758000D01*
X76300000Y-103927000D01*
X75976000Y-104045000D01*
X75637000Y-104108000D01*
X75292000Y-104116000D01*
X74950000Y-104068000D01*
X74621000Y-103966000D01*
X74313000Y-103811000D01*
X74033000Y-103608000D01*
X73793000Y-103365000D01*
X72165000Y-103365000D01*
X72165000Y-105250000D01*
X78665000Y-105250000D01*
X78665000Y-98750000D01*
G36*
X78665000Y-105250000D02*
G01*
X72165000Y-105250000D01*
X72165000Y-103365000D01*
X73793000Y-103365000D01*
X74033000Y-103608000D01*
X74313000Y-103811000D01*
X74621000Y-103966000D01*
X74950000Y-104068000D01*
X75292000Y-104116000D01*
X75637000Y-104108000D01*
X75976000Y-104045000D01*
X76300000Y-103927000D01*
X76600000Y-103758000D01*
X76870000Y-103542000D01*
X77101000Y-103286000D01*
X77287000Y-102995000D01*
X77423000Y-102679000D01*
X77507000Y-102344000D01*
X77535000Y-102000000D01*
X77507000Y-101656000D01*
X77423000Y-101321000D01*
X77287000Y-101005000D01*
X77101000Y-100714000D01*
X76870000Y-100458000D01*
X76600000Y-100242000D01*
X76300000Y-100073000D01*
X75976000Y-99955000D01*
X75637000Y-99892000D01*
X75292000Y-99884000D01*
X74950000Y-99932000D01*
X74621000Y-100034000D01*
X74313000Y-100189000D01*
X74033000Y-100392000D01*
X73793000Y-100635000D01*
X72165000Y-100635000D01*
X72165000Y-98750000D01*
X78665000Y-98750000D01*
X78665000Y-105250000D01*
G37*
%TO.C,K13*%
X20285000Y-58315000D02*
X22105000Y-58315000D01*
X22315000Y-58105000D01*
X22725000Y-58105000D01*
X22725000Y-57895000D01*
X22315000Y-57895000D01*
X22105000Y-57685000D01*
X20285000Y-57685000D01*
X20285000Y-58315000D01*
G36*
X22315000Y-57895000D02*
G01*
X22725000Y-57895000D01*
X22725000Y-58105000D01*
X22315000Y-58105000D01*
X22105000Y-58315000D01*
X20285000Y-58315000D01*
X20285000Y-57685000D01*
X22105000Y-57685000D01*
X22315000Y-57895000D01*
G37*
X14435000Y-61250000D02*
X20935000Y-61250000D01*
X20935000Y-59365000D01*
X19307000Y-59365000D01*
X19067000Y-59608000D01*
X18787000Y-59811000D01*
X18479000Y-59966000D01*
X18150000Y-60068000D01*
X17808000Y-60116000D01*
X17463000Y-60108000D01*
X17124000Y-60045000D01*
X16800000Y-59927000D01*
X16500000Y-59758000D01*
X16230000Y-59542000D01*
X15999000Y-59286000D01*
X15813000Y-58995000D01*
X15677000Y-58679000D01*
X15593000Y-58344000D01*
X15565000Y-58000000D01*
X15593000Y-57656000D01*
X15677000Y-57321000D01*
X15813000Y-57005000D01*
X15999000Y-56714000D01*
X16230000Y-56458000D01*
X16500000Y-56242000D01*
X16800000Y-56073000D01*
X17124000Y-55955000D01*
X17463000Y-55892000D01*
X17808000Y-55884000D01*
X18150000Y-55932000D01*
X18479000Y-56034000D01*
X18787000Y-56189000D01*
X19067000Y-56392000D01*
X19307000Y-56635000D01*
X20935000Y-56635000D01*
X20935000Y-54750000D01*
X14435000Y-54750000D01*
X14435000Y-61250000D01*
G36*
X20935000Y-56635000D02*
G01*
X19307000Y-56635000D01*
X19067000Y-56392000D01*
X18787000Y-56189000D01*
X18479000Y-56034000D01*
X18150000Y-55932000D01*
X17808000Y-55884000D01*
X17463000Y-55892000D01*
X17124000Y-55955000D01*
X16800000Y-56073000D01*
X16500000Y-56242000D01*
X16230000Y-56458000D01*
X15999000Y-56714000D01*
X15813000Y-57005000D01*
X15677000Y-57321000D01*
X15593000Y-57656000D01*
X15565000Y-58000000D01*
X15593000Y-58344000D01*
X15677000Y-58679000D01*
X15813000Y-58995000D01*
X15999000Y-59286000D01*
X16230000Y-59542000D01*
X16500000Y-59758000D01*
X16800000Y-59927000D01*
X17124000Y-60045000D01*
X17463000Y-60108000D01*
X17808000Y-60116000D01*
X18150000Y-60068000D01*
X18479000Y-59966000D01*
X18787000Y-59811000D01*
X19067000Y-59608000D01*
X19307000Y-59365000D01*
X20935000Y-59365000D01*
X20935000Y-61250000D01*
X14435000Y-61250000D01*
X14435000Y-54750000D01*
X20935000Y-54750000D01*
X20935000Y-56635000D01*
G37*
%TO.C,K6*%
X72815000Y-109685000D02*
X70995000Y-109685000D01*
X70785000Y-109895000D01*
X70375000Y-109895000D01*
X70375000Y-110105000D01*
X70785000Y-110105000D01*
X70995000Y-110315000D01*
X72815000Y-110315000D01*
X72815000Y-109685000D01*
G36*
X72815000Y-110315000D02*
G01*
X70995000Y-110315000D01*
X70785000Y-110105000D01*
X70375000Y-110105000D01*
X70375000Y-109895000D01*
X70785000Y-109895000D01*
X70995000Y-109685000D01*
X72815000Y-109685000D01*
X72815000Y-110315000D01*
G37*
X78665000Y-106750000D02*
X72165000Y-106750000D01*
X72165000Y-108635000D01*
X73793000Y-108635000D01*
X74033000Y-108392000D01*
X74313000Y-108189000D01*
X74621000Y-108034000D01*
X74950000Y-107932000D01*
X75292000Y-107884000D01*
X75637000Y-107892000D01*
X75976000Y-107955000D01*
X76300000Y-108073000D01*
X76600000Y-108242000D01*
X76870000Y-108458000D01*
X77101000Y-108714000D01*
X77287000Y-109005000D01*
X77423000Y-109321000D01*
X77507000Y-109656000D01*
X77535000Y-110000000D01*
X77507000Y-110344000D01*
X77423000Y-110679000D01*
X77287000Y-110995000D01*
X77101000Y-111286000D01*
X76870000Y-111542000D01*
X76600000Y-111758000D01*
X76300000Y-111927000D01*
X75976000Y-112045000D01*
X75637000Y-112108000D01*
X75292000Y-112116000D01*
X74950000Y-112068000D01*
X74621000Y-111966000D01*
X74313000Y-111811000D01*
X74033000Y-111608000D01*
X73793000Y-111365000D01*
X72165000Y-111365000D01*
X72165000Y-113250000D01*
X78665000Y-113250000D01*
X78665000Y-106750000D01*
G36*
X78665000Y-113250000D02*
G01*
X72165000Y-113250000D01*
X72165000Y-111365000D01*
X73793000Y-111365000D01*
X74033000Y-111608000D01*
X74313000Y-111811000D01*
X74621000Y-111966000D01*
X74950000Y-112068000D01*
X75292000Y-112116000D01*
X75637000Y-112108000D01*
X75976000Y-112045000D01*
X76300000Y-111927000D01*
X76600000Y-111758000D01*
X76870000Y-111542000D01*
X77101000Y-111286000D01*
X77287000Y-110995000D01*
X77423000Y-110679000D01*
X77507000Y-110344000D01*
X77535000Y-110000000D01*
X77507000Y-109656000D01*
X77423000Y-109321000D01*
X77287000Y-109005000D01*
X77101000Y-108714000D01*
X76870000Y-108458000D01*
X76600000Y-108242000D01*
X76300000Y-108073000D01*
X75976000Y-107955000D01*
X75637000Y-107892000D01*
X75292000Y-107884000D01*
X74950000Y-107932000D01*
X74621000Y-108034000D01*
X74313000Y-108189000D01*
X74033000Y-108392000D01*
X73793000Y-108635000D01*
X72165000Y-108635000D01*
X72165000Y-106750000D01*
X78665000Y-106750000D01*
X78665000Y-113250000D01*
G37*
%TD*%
M02*
