%TF.GenerationSoftware,KiCad,Pcbnew,10.0.3*%
%TF.CreationDate,2026-06-22T23:05:32-04:00*%
%TF.ProjectId,board-D-smp,626f6172-642d-4442-9d73-6d702e6b6963,rev?*%
%TF.SameCoordinates,Original*%
%TF.FileFunction,Copper,L1,Top*%
%TF.FilePolarity,Positive*%
%FSLAX46Y46*%
G04 Gerber Fmt 4.6, Leading zero omitted, Abs format (unit mm)*
G04 Created by KiCad (PCBNEW 10.0.3) date 2026-06-22 23:05:32*
%MOMM*%
%LPD*%
G01*
G04 APERTURE LIST*
%TA.AperFunction,SMDPad,CuDef*%
%ADD10R,0.790000X1.700000*%
%TD*%
%TA.AperFunction,SMDPad,CuDef*%
%ADD11R,1.240000X2.730000*%
%TD*%
%TA.AperFunction,SMDPad,CuDef*%
%ADD12R,5.210000X1.240000*%
%TD*%
%TA.AperFunction,ViaPad*%
%ADD13C,0.600000*%
%TD*%
%TA.AperFunction,Conductor*%
%ADD14C,0.340000*%
%TD*%
G04 APERTURE END LIST*
D10*
%TO.P,K19,1*%
%TO.N,SIPM_K19*%
X74715000Y-44985000D03*
D11*
%TO.P,K19,2*%
%TO.N,GNDA*%
X72730000Y-44985000D03*
D12*
X74715000Y-43000000D03*
X74715000Y-46970000D03*
D11*
X76700000Y-44985000D03*
%TD*%
D10*
%TO.P,K16,1*%
%TO.N,SIPM_K16*%
X74715000Y-23985000D03*
D11*
%TO.P,K16,2*%
%TO.N,GNDA*%
X72730000Y-23985000D03*
D12*
X74715000Y-22000000D03*
X74715000Y-25970000D03*
D11*
X76700000Y-23985000D03*
%TD*%
D10*
%TO.P,K20,1*%
%TO.N,SIPM_K20*%
X74715000Y-51985000D03*
D11*
%TO.P,K20,2*%
%TO.N,GNDA*%
X72730000Y-51985000D03*
D12*
X74715000Y-50000000D03*
X74715000Y-53970000D03*
D11*
X76700000Y-51985000D03*
%TD*%
D10*
%TO.P,K8,1*%
%TO.N,SIPM_K8*%
X16985000Y-97485000D03*
D11*
%TO.P,K8,2*%
%TO.N,GNDA*%
X18970000Y-97485000D03*
D12*
X16985000Y-99470000D03*
X16985000Y-95500000D03*
D11*
X15000000Y-97485000D03*
%TD*%
D10*
%TO.P,K22,1*%
%TO.N,SIPM_K22*%
X16985000Y-27485000D03*
D11*
%TO.P,K22,2*%
%TO.N,GNDA*%
X18970000Y-27485000D03*
D12*
X16985000Y-29470000D03*
X16985000Y-25500000D03*
D11*
X15000000Y-27485000D03*
%TD*%
D10*
%TO.P,K4,1*%
%TO.N,SIPM_K4*%
X74715000Y-86985000D03*
D11*
%TO.P,K4,2*%
%TO.N,GNDA*%
X72730000Y-86985000D03*
D12*
X74715000Y-85000000D03*
X74715000Y-88970000D03*
D11*
X76700000Y-86985000D03*
%TD*%
D10*
%TO.P,K15,1*%
%TO.N,SIPM_K15*%
X16985000Y-34485000D03*
D11*
%TO.P,K15,2*%
%TO.N,GNDA*%
X18970000Y-34485000D03*
D12*
X16985000Y-36470000D03*
X16985000Y-32500000D03*
D11*
X15000000Y-34485000D03*
%TD*%
D10*
%TO.P,K9,1*%
%TO.N,SIPM_K9*%
X16985000Y-83485000D03*
D11*
%TO.P,K9,2*%
%TO.N,GNDA*%
X18970000Y-83485000D03*
D12*
X16985000Y-85470000D03*
X16985000Y-81500000D03*
D11*
X15000000Y-83485000D03*
%TD*%
D10*
%TO.P,IV,1*%
%TO.N,IV*%
X74715000Y-65985000D03*
D11*
%TO.P,IV,2*%
%TO.N,GNDA*%
X72730000Y-65985000D03*
D12*
X74715000Y-64000000D03*
X74715000Y-67970000D03*
D11*
X76700000Y-65985000D03*
%TD*%
D10*
%TO.P,K13,1*%
%TO.N,SIPM_K13*%
X16985000Y-55485000D03*
D11*
%TO.P,K13,2*%
%TO.N,GNDA*%
X18970000Y-55485000D03*
D12*
X16985000Y-57470000D03*
X16985000Y-53500000D03*
D11*
X15000000Y-55485000D03*
%TD*%
D10*
%TO.P,K3,1*%
%TO.N,SIPM_K3*%
X74715000Y-79985000D03*
D11*
%TO.P,K3,2*%
%TO.N,GNDA*%
X72730000Y-79985000D03*
D12*
X74715000Y-78000000D03*
X74715000Y-81970000D03*
D11*
X76700000Y-79985000D03*
%TD*%
D10*
%TO.P,K5,1*%
%TO.N,SIPM_K5*%
X74715000Y-93985000D03*
D11*
%TO.P,K5,2*%
%TO.N,GNDA*%
X72730000Y-93985000D03*
D12*
X74715000Y-92000000D03*
X74715000Y-95970000D03*
D11*
X76700000Y-93985000D03*
%TD*%
D10*
%TO.P,K6,1*%
%TO.N,SIPM_K6*%
X74715000Y-100985000D03*
D11*
%TO.P,K6,2*%
%TO.N,GNDA*%
X72730000Y-100985000D03*
D12*
X74715000Y-99000000D03*
X74715000Y-102970000D03*
D11*
X76700000Y-100985000D03*
%TD*%
D10*
%TO.P,K0,1*%
%TO.N,SIPM_K0*%
X16985000Y-90485000D03*
D11*
%TO.P,K0,2*%
%TO.N,GNDA*%
X18970000Y-90485000D03*
D12*
X16985000Y-92470000D03*
X16985000Y-88500000D03*
D11*
X15000000Y-90485000D03*
%TD*%
D10*
%TO.P,K2,1*%
%TO.N,SIPM_K2*%
X74715000Y-72985000D03*
D11*
%TO.P,K2,2*%
%TO.N,GNDA*%
X72730000Y-72985000D03*
D12*
X74715000Y-71000000D03*
X74715000Y-74970000D03*
D11*
X76700000Y-72985000D03*
%TD*%
D10*
%TO.P,K14,1*%
%TO.N,SIPM_K14*%
X16985000Y-48485000D03*
D11*
%TO.P,K14,2*%
%TO.N,GNDA*%
X18970000Y-48485000D03*
D12*
X16985000Y-50470000D03*
X16985000Y-46500000D03*
D11*
X15000000Y-48485000D03*
%TD*%
D10*
%TO.P,K7,1*%
%TO.N,SIPM_K7*%
X74715000Y-107985000D03*
D11*
%TO.P,K7,2*%
%TO.N,GNDA*%
X72730000Y-107985000D03*
D12*
X74715000Y-106000000D03*
X74715000Y-109970000D03*
D11*
X76700000Y-107985000D03*
%TD*%
D10*
%TO.P,K1,1*%
%TO.N,SIPM_K1*%
X16985000Y-104485000D03*
D11*
%TO.P,K1,2*%
%TO.N,GNDA*%
X18970000Y-104485000D03*
D12*
X16985000Y-106470000D03*
X16985000Y-102500000D03*
D11*
X15000000Y-104485000D03*
%TD*%
D10*
%TO.P,K11,1*%
%TO.N,SIPM_K11*%
X16985000Y-69485000D03*
D11*
%TO.P,K11,2*%
%TO.N,GNDA*%
X18970000Y-69485000D03*
D12*
X16985000Y-71470000D03*
X16985000Y-67500000D03*
D11*
X15000000Y-69485000D03*
%TD*%
D10*
%TO.P,K21,1*%
%TO.N,SIPM_K21*%
X74715000Y-58985000D03*
D11*
%TO.P,K21,2*%
%TO.N,GNDA*%
X72730000Y-58985000D03*
D12*
X74715000Y-57000000D03*
X74715000Y-60970000D03*
D11*
X76700000Y-58985000D03*
%TD*%
D10*
%TO.P,K10,1*%
%TO.N,SIPM_K10*%
X16985000Y-76485000D03*
D11*
%TO.P,K10,2*%
%TO.N,GNDA*%
X18970000Y-76485000D03*
D12*
X16985000Y-78470000D03*
X16985000Y-74500000D03*
D11*
X15000000Y-76485000D03*
%TD*%
D10*
%TO.P,K23,1*%
%TO.N,SIPM_K23*%
X16985000Y-41485000D03*
D11*
%TO.P,K23,2*%
%TO.N,GNDA*%
X18970000Y-41485000D03*
D12*
X16985000Y-43470000D03*
X16985000Y-39500000D03*
D11*
X15000000Y-41485000D03*
%TD*%
D10*
%TO.P,K12,1*%
%TO.N,SIPM_K12*%
X16985000Y-62485000D03*
D11*
%TO.P,K12,2*%
%TO.N,GNDA*%
X18970000Y-62485000D03*
D12*
X16985000Y-64470000D03*
X16985000Y-60500000D03*
D11*
X15000000Y-62485000D03*
%TD*%
D10*
%TO.P,K17,1*%
%TO.N,SIPM_K17*%
X74715000Y-30985000D03*
D11*
%TO.P,K17,2*%
%TO.N,GNDA*%
X72730000Y-30985000D03*
D12*
X74715000Y-29000000D03*
X74715000Y-32970000D03*
D11*
X76700000Y-30985000D03*
%TD*%
D10*
%TO.P,K18,1*%
%TO.N,SIPM_K18*%
X74715000Y-37985000D03*
D11*
%TO.P,K18,2*%
%TO.N,GNDA*%
X72730000Y-37985000D03*
D12*
X74715000Y-36000000D03*
X74715000Y-39970000D03*
D11*
X76700000Y-37985000D03*
%TD*%
D13*
%TO.N,SIPM_K19*%
X74715000Y-44985000D03*
%TO.N,GNDA*%
X29925000Y-12925000D03*
X65925000Y-119045000D03*
X59925000Y-12925000D03*
X41925000Y-119045000D03*
X11925000Y-119045000D03*
X29925000Y-119045000D03*
X11925000Y-12925000D03*
X77925000Y-119045000D03*
X65925000Y-12925000D03*
X53925000Y-119045000D03*
X35925000Y-119045000D03*
X77925000Y-12925000D03*
X23925000Y-12925000D03*
X53925000Y-12925000D03*
X35925000Y-12925000D03*
X59925000Y-119045000D03*
X23925000Y-119045000D03*
X41925000Y-12925000D03*
X47925000Y-119045000D03*
X47925000Y-12925000D03*
%TO.N,SIPM_K16*%
X74715000Y-23985000D03*
%TO.N,SIPM_K20*%
X74715000Y-51985000D03*
%TO.N,SIPM_K8*%
X16985000Y-97485000D03*
%TO.N,SIPM_K22*%
X16985000Y-27485000D03*
X20985000Y-27485000D03*
X50715000Y-57985000D03*
%TO.N,SIPM_K4*%
X74715000Y-86985000D03*
%TO.N,SIPM_K15*%
X16985000Y-34485000D03*
%TO.N,SIPM_K9*%
X16985000Y-83485000D03*
%TO.N,IV*%
X74715000Y-65985000D03*
%TO.N,SIPM_K13*%
X16985000Y-55485000D03*
%TO.N,SIPM_K3*%
X74715000Y-79985000D03*
%TO.N,SIPM_K5*%
X74715000Y-93985000D03*
%TO.N,SIPM_K6*%
X74715000Y-100985000D03*
%TO.N,SIPM_K0*%
X20985000Y-90485000D03*
X16985000Y-90485000D03*
X50715000Y-72385000D03*
%TO.N,SIPM_K2*%
X74715000Y-72985000D03*
%TO.N,SIPM_K14*%
X16985000Y-48485000D03*
%TO.N,SIPM_K7*%
X74715000Y-107985000D03*
%TO.N,SIPM_K1*%
X20985000Y-104485000D03*
X16985000Y-104485000D03*
X50715000Y-73985000D03*
%TO.N,SIPM_K11*%
X16985000Y-69485000D03*
%TO.N,SIPM_K21*%
X74715000Y-58985000D03*
%TO.N,SIPM_K10*%
X16985000Y-76485000D03*
%TO.N,SIPM_K23*%
X20985000Y-41485000D03*
X50715000Y-59585000D03*
X16985000Y-41485000D03*
%TO.N,SIPM_K12*%
X16985000Y-62485000D03*
%TO.N,SIPM_K17*%
X74715000Y-30985000D03*
%TO.N,SIPM_K18*%
X74715000Y-37985000D03*
%TD*%
%TO.N,SIPM_K22*%
D14*
X50715000Y-57985000D02*
X20985000Y-27485000D01*
%TO.N,SIPM_K0*%
X50715000Y-72385000D02*
X20985000Y-90485000D01*
%TO.N,SIPM_K1*%
X50715000Y-73985000D02*
X20985000Y-104485000D01*
%TO.N,SIPM_K23*%
X50715000Y-59585000D02*
X20985000Y-41485000D01*
%TD*%
%TA.AperFunction,Conductor*%
%TO.N,GNDA*%
G36*
X82142539Y-10520185D02*
G01*
X82188294Y-10572989D01*
X82199500Y-10624500D01*
X82199500Y-121345500D01*
X82179815Y-121412539D01*
X82127011Y-121458294D01*
X82075500Y-121469500D01*
X9624500Y-121469500D01*
X9557461Y-121449815D01*
X9511706Y-121397011D01*
X9500500Y-121345500D01*
X9500500Y-116848711D01*
X15134500Y-116848711D01*
X15134500Y-117091288D01*
X15166161Y-117331785D01*
X15228947Y-117566104D01*
X15321773Y-117790205D01*
X15321776Y-117790212D01*
X15443064Y-118000289D01*
X15443066Y-118000292D01*
X15443067Y-118000293D01*
X15590733Y-118192736D01*
X15590739Y-118192743D01*
X15762256Y-118364260D01*
X15762262Y-118364265D01*
X15954711Y-118511936D01*
X16164788Y-118633224D01*
X16388900Y-118726054D01*
X16623211Y-118788838D01*
X16803586Y-118812584D01*
X16863711Y-118820500D01*
X16863712Y-118820500D01*
X17106289Y-118820500D01*
X17154388Y-118814167D01*
X17346789Y-118788838D01*
X17581100Y-118726054D01*
X17805212Y-118633224D01*
X18015289Y-118511936D01*
X18207738Y-118364265D01*
X18379265Y-118192738D01*
X18526936Y-118000289D01*
X18648224Y-117790212D01*
X18741054Y-117566100D01*
X18803838Y-117331789D01*
X18835500Y-117091288D01*
X18835500Y-116848712D01*
X18835500Y-116848711D01*
X72864500Y-116848711D01*
X72864500Y-117091288D01*
X72896161Y-117331785D01*
X72958947Y-117566104D01*
X73051773Y-117790205D01*
X73051776Y-117790212D01*
X73173064Y-118000289D01*
X73173066Y-118000292D01*
X73173067Y-118000293D01*
X73320733Y-118192736D01*
X73320739Y-118192743D01*
X73492256Y-118364260D01*
X73492262Y-118364265D01*
X73684711Y-118511936D01*
X73894788Y-118633224D01*
X74118900Y-118726054D01*
X74353211Y-118788838D01*
X74533586Y-118812584D01*
X74593711Y-118820500D01*
X74593712Y-118820500D01*
X74836289Y-118820500D01*
X74884388Y-118814167D01*
X75076789Y-118788838D01*
X75311100Y-118726054D01*
X75535212Y-118633224D01*
X75745289Y-118511936D01*
X75937738Y-118364265D01*
X76109265Y-118192738D01*
X76256936Y-118000289D01*
X76378224Y-117790212D01*
X76471054Y-117566100D01*
X76533838Y-117331789D01*
X76565500Y-117091288D01*
X76565500Y-116848712D01*
X76533838Y-116608211D01*
X76471054Y-116373900D01*
X76378224Y-116149788D01*
X76256936Y-115939711D01*
X76109265Y-115747262D01*
X76109260Y-115747256D01*
X75937743Y-115575739D01*
X75937736Y-115575733D01*
X75745293Y-115428067D01*
X75745292Y-115428066D01*
X75745289Y-115428064D01*
X75535212Y-115306776D01*
X75535205Y-115306773D01*
X75311104Y-115213947D01*
X75076785Y-115151161D01*
X74836289Y-115119500D01*
X74836288Y-115119500D01*
X74593712Y-115119500D01*
X74593711Y-115119500D01*
X74353214Y-115151161D01*
X74118895Y-115213947D01*
X73894794Y-115306773D01*
X73894785Y-115306777D01*
X73684706Y-115428067D01*
X73492263Y-115575733D01*
X73492256Y-115575739D01*
X73320739Y-115747256D01*
X73320733Y-115747263D01*
X73173067Y-115939706D01*
X73051777Y-116149785D01*
X73051773Y-116149794D01*
X72958947Y-116373895D01*
X72896161Y-116608214D01*
X72864500Y-116848711D01*
X18835500Y-116848711D01*
X18803838Y-116608211D01*
X18741054Y-116373900D01*
X18648224Y-116149788D01*
X18526936Y-115939711D01*
X18379265Y-115747262D01*
X18379260Y-115747256D01*
X18207743Y-115575739D01*
X18207736Y-115575733D01*
X18015293Y-115428067D01*
X18015292Y-115428066D01*
X18015289Y-115428064D01*
X17805212Y-115306776D01*
X17805205Y-115306773D01*
X17581104Y-115213947D01*
X17346785Y-115151161D01*
X17106289Y-115119500D01*
X17106288Y-115119500D01*
X16863712Y-115119500D01*
X16863711Y-115119500D01*
X16623214Y-115151161D01*
X16388895Y-115213947D01*
X16164794Y-115306773D01*
X16164785Y-115306777D01*
X15954706Y-115428067D01*
X15762263Y-115575733D01*
X15762256Y-115575739D01*
X15590739Y-115747256D01*
X15590733Y-115747263D01*
X15443067Y-115939706D01*
X15321777Y-116149785D01*
X15321773Y-116149794D01*
X15228947Y-116373895D01*
X15166161Y-116608214D01*
X15134500Y-116848711D01*
X9500500Y-116848711D01*
X9500500Y-107090131D01*
X74019500Y-107090131D01*
X74019500Y-108879856D01*
X74019502Y-108879882D01*
X74022413Y-108904987D01*
X74022415Y-108904991D01*
X74067793Y-109007764D01*
X74067794Y-109007765D01*
X74147235Y-109087206D01*
X74250009Y-109132585D01*
X74275135Y-109135500D01*
X75154864Y-109135499D01*
X75154879Y-109135497D01*
X75154882Y-109135497D01*
X75179987Y-109132586D01*
X75179988Y-109132585D01*
X75179991Y-109132585D01*
X75282765Y-109087206D01*
X75362206Y-109007765D01*
X75407585Y-108904991D01*
X75410500Y-108879865D01*
X75410499Y-107090136D01*
X75410497Y-107090117D01*
X75407586Y-107065012D01*
X75407585Y-107065010D01*
X75407585Y-107065009D01*
X75362206Y-106962235D01*
X75282765Y-106882794D01*
X75282763Y-106882793D01*
X75179992Y-106837415D01*
X75154865Y-106834500D01*
X74275143Y-106834500D01*
X74275117Y-106834502D01*
X74250012Y-106837413D01*
X74250008Y-106837415D01*
X74147235Y-106882793D01*
X74067794Y-106962234D01*
X74022415Y-107065006D01*
X74022415Y-107065008D01*
X74019500Y-107090131D01*
X9500500Y-107090131D01*
X9500500Y-103590131D01*
X16289500Y-103590131D01*
X16289500Y-105379856D01*
X16289502Y-105379882D01*
X16292413Y-105404987D01*
X16292415Y-105404991D01*
X16337793Y-105507764D01*
X16337794Y-105507765D01*
X16417235Y-105587206D01*
X16520009Y-105632585D01*
X16545135Y-105635500D01*
X17424864Y-105635499D01*
X17424879Y-105635497D01*
X17424882Y-105635497D01*
X17449987Y-105632586D01*
X17449988Y-105632585D01*
X17449991Y-105632585D01*
X17552765Y-105587206D01*
X17632206Y-105507765D01*
X17677585Y-105404991D01*
X17680500Y-105379865D01*
X17680499Y-104405943D01*
X20384500Y-104405943D01*
X20384500Y-104564056D01*
X20425423Y-104716783D01*
X20425426Y-104716790D01*
X20504475Y-104853709D01*
X20504479Y-104853714D01*
X20504480Y-104853716D01*
X20616284Y-104965520D01*
X20616286Y-104965521D01*
X20616290Y-104965524D01*
X20753209Y-105044573D01*
X20753216Y-105044577D01*
X20905943Y-105085500D01*
X20905945Y-105085500D01*
X21064055Y-105085500D01*
X21064057Y-105085500D01*
X21216784Y-105044577D01*
X21353716Y-104965520D01*
X21465520Y-104853716D01*
X21544577Y-104716784D01*
X21584899Y-104566296D01*
X21615876Y-104511842D01*
X25925957Y-100090131D01*
X74019500Y-100090131D01*
X74019500Y-101879856D01*
X74019502Y-101879882D01*
X74022413Y-101904987D01*
X74022415Y-101904991D01*
X74067793Y-102007764D01*
X74067794Y-102007765D01*
X74147235Y-102087206D01*
X74250009Y-102132585D01*
X74275135Y-102135500D01*
X75154864Y-102135499D01*
X75154879Y-102135497D01*
X75154882Y-102135497D01*
X75179987Y-102132586D01*
X75179988Y-102132585D01*
X75179991Y-102132585D01*
X75282765Y-102087206D01*
X75362206Y-102007765D01*
X75407585Y-101904991D01*
X75410500Y-101879865D01*
X75410499Y-100090136D01*
X75410497Y-100090117D01*
X75407586Y-100065012D01*
X75407585Y-100065010D01*
X75407585Y-100065009D01*
X75362206Y-99962235D01*
X75282765Y-99882794D01*
X75282763Y-99882793D01*
X75179992Y-99837415D01*
X75154865Y-99834500D01*
X74275143Y-99834500D01*
X74275117Y-99834502D01*
X74250012Y-99837413D01*
X74250008Y-99837415D01*
X74147235Y-99882793D01*
X74067794Y-99962234D01*
X74022415Y-100065006D01*
X74022415Y-100065008D01*
X74019500Y-100090131D01*
X25925957Y-100090131D01*
X32749236Y-93090131D01*
X74019500Y-93090131D01*
X74019500Y-94879856D01*
X74019502Y-94879882D01*
X74022413Y-94904987D01*
X74022415Y-94904991D01*
X74067793Y-95007764D01*
X74067794Y-95007765D01*
X74147235Y-95087206D01*
X74250009Y-95132585D01*
X74275135Y-95135500D01*
X75154864Y-95135499D01*
X75154879Y-95135497D01*
X75154882Y-95135497D01*
X75179987Y-95132586D01*
X75179988Y-95132585D01*
X75179991Y-95132585D01*
X75282765Y-95087206D01*
X75362206Y-95007765D01*
X75407585Y-94904991D01*
X75410500Y-94879865D01*
X75410499Y-93090136D01*
X75410497Y-93090117D01*
X75407586Y-93065012D01*
X75407585Y-93065010D01*
X75407585Y-93065009D01*
X75362206Y-92962235D01*
X75282765Y-92882794D01*
X75282763Y-92882793D01*
X75179992Y-92837415D01*
X75154865Y-92834500D01*
X74275143Y-92834500D01*
X74275117Y-92834502D01*
X74250012Y-92837413D01*
X74250008Y-92837415D01*
X74147235Y-92882793D01*
X74067794Y-92962234D01*
X74022415Y-93065006D01*
X74022415Y-93065008D01*
X74019500Y-93090131D01*
X32749236Y-93090131D01*
X39684650Y-85975092D01*
X47759500Y-85975092D01*
X47759500Y-86124907D01*
X47788723Y-86271822D01*
X47788725Y-86271830D01*
X47846051Y-86410229D01*
X47846056Y-86410238D01*
X47929280Y-86534790D01*
X47929283Y-86534794D01*
X48035205Y-86640716D01*
X48035209Y-86640719D01*
X48159761Y-86723943D01*
X48159767Y-86723946D01*
X48159768Y-86723947D01*
X48298170Y-86781275D01*
X48445092Y-86810499D01*
X48445096Y-86810500D01*
X48445097Y-86810500D01*
X48594904Y-86810500D01*
X48594905Y-86810499D01*
X48741830Y-86781275D01*
X48880232Y-86723947D01*
X49004791Y-86640719D01*
X49110719Y-86534791D01*
X49193947Y-86410232D01*
X49251275Y-86271830D01*
X49280500Y-86124903D01*
X49280500Y-86090131D01*
X74019500Y-86090131D01*
X74019500Y-87879856D01*
X74019502Y-87879882D01*
X74022413Y-87904987D01*
X74022415Y-87904991D01*
X74067793Y-88007764D01*
X74067794Y-88007765D01*
X74147235Y-88087206D01*
X74250009Y-88132585D01*
X74275135Y-88135500D01*
X75154864Y-88135499D01*
X75154879Y-88135497D01*
X75154882Y-88135497D01*
X75179987Y-88132586D01*
X75179988Y-88132585D01*
X75179991Y-88132585D01*
X75282765Y-88087206D01*
X75362206Y-88007765D01*
X75407585Y-87904991D01*
X75410500Y-87879865D01*
X75410499Y-86090136D01*
X75410497Y-86090117D01*
X75407586Y-86065012D01*
X75407585Y-86065010D01*
X75407585Y-86065009D01*
X75362206Y-85962235D01*
X75282765Y-85882794D01*
X75281990Y-85882452D01*
X75179992Y-85837415D01*
X75154865Y-85834500D01*
X74275143Y-85834500D01*
X74275117Y-85834502D01*
X74250012Y-85837413D01*
X74250008Y-85837415D01*
X74147235Y-85882793D01*
X74067794Y-85962234D01*
X74022415Y-86065006D01*
X74022415Y-86065008D01*
X74019500Y-86090131D01*
X49280500Y-86090131D01*
X49280500Y-85975097D01*
X49251275Y-85828170D01*
X49193947Y-85689768D01*
X49193946Y-85689767D01*
X49193943Y-85689761D01*
X49110719Y-85565209D01*
X49110716Y-85565205D01*
X49004794Y-85459283D01*
X49004790Y-85459280D01*
X48880238Y-85376056D01*
X48880229Y-85376051D01*
X48741830Y-85318725D01*
X48741822Y-85318723D01*
X48594907Y-85289500D01*
X48594903Y-85289500D01*
X48445097Y-85289500D01*
X48445092Y-85289500D01*
X48298177Y-85318723D01*
X48298169Y-85318725D01*
X48159770Y-85376051D01*
X48159761Y-85376056D01*
X48035209Y-85459280D01*
X48035205Y-85459283D01*
X47929283Y-85565205D01*
X47929280Y-85565209D01*
X47846056Y-85689761D01*
X47846051Y-85689770D01*
X47788725Y-85828169D01*
X47788723Y-85828177D01*
X47759500Y-85975092D01*
X39684650Y-85975092D01*
X46395795Y-79090131D01*
X74019500Y-79090131D01*
X74019500Y-80879856D01*
X74019502Y-80879882D01*
X74022413Y-80904987D01*
X74022415Y-80904991D01*
X74067793Y-81007764D01*
X74067794Y-81007765D01*
X74147235Y-81087206D01*
X74250009Y-81132585D01*
X74275135Y-81135500D01*
X75154864Y-81135499D01*
X75154879Y-81135497D01*
X75154882Y-81135497D01*
X75179987Y-81132586D01*
X75179988Y-81132585D01*
X75179991Y-81132585D01*
X75282765Y-81087206D01*
X75362206Y-81007765D01*
X75407585Y-80904991D01*
X75410500Y-80879865D01*
X75410499Y-79090136D01*
X75410497Y-79090117D01*
X75407586Y-79065012D01*
X75407585Y-79065010D01*
X75407585Y-79065009D01*
X75362206Y-78962235D01*
X75282765Y-78882794D01*
X75282763Y-78882793D01*
X75179992Y-78837415D01*
X75154865Y-78834500D01*
X74275143Y-78834500D01*
X74275117Y-78834502D01*
X74250012Y-78837413D01*
X74250008Y-78837415D01*
X74147235Y-78882793D01*
X74067794Y-78962234D01*
X74022415Y-79065006D01*
X74022415Y-79065008D01*
X74019500Y-79090131D01*
X46395795Y-79090131D01*
X50760320Y-74612566D01*
X50817014Y-74579348D01*
X50946784Y-74544577D01*
X51083716Y-74465520D01*
X51195520Y-74353716D01*
X51274577Y-74216784D01*
X51315500Y-74064057D01*
X51315500Y-73905943D01*
X51274577Y-73753216D01*
X51274573Y-73753209D01*
X51195524Y-73616290D01*
X51195518Y-73616282D01*
X51083717Y-73504481D01*
X51083709Y-73504475D01*
X50946790Y-73425426D01*
X50946786Y-73425424D01*
X50946784Y-73425423D01*
X50794057Y-73384500D01*
X50635943Y-73384500D01*
X50483216Y-73425423D01*
X50483209Y-73425426D01*
X50346290Y-73504475D01*
X50346282Y-73504481D01*
X50234481Y-73616282D01*
X50234475Y-73616290D01*
X50155426Y-73753209D01*
X50155423Y-73753214D01*
X50115101Y-73903698D01*
X50084121Y-73958157D01*
X20939683Y-103857430D01*
X20882982Y-103890652D01*
X20753214Y-103925423D01*
X20753209Y-103925426D01*
X20616290Y-104004475D01*
X20616282Y-104004481D01*
X20504481Y-104116282D01*
X20504475Y-104116290D01*
X20425426Y-104253209D01*
X20425423Y-104253216D01*
X20384500Y-104405943D01*
X17680499Y-104405943D01*
X17680499Y-103590136D01*
X17680497Y-103590117D01*
X17677586Y-103565012D01*
X17677585Y-103565010D01*
X17677585Y-103565009D01*
X17632206Y-103462235D01*
X17552765Y-103382794D01*
X17552763Y-103382793D01*
X17449992Y-103337415D01*
X17424865Y-103334500D01*
X16545143Y-103334500D01*
X16545117Y-103334502D01*
X16520012Y-103337413D01*
X16520008Y-103337415D01*
X16417235Y-103382793D01*
X16337794Y-103462234D01*
X16292415Y-103565006D01*
X16292415Y-103565008D01*
X16289500Y-103590131D01*
X9500500Y-103590131D01*
X9500500Y-96590131D01*
X16289500Y-96590131D01*
X16289500Y-98379856D01*
X16289502Y-98379882D01*
X16292413Y-98404987D01*
X16292415Y-98404991D01*
X16337793Y-98507764D01*
X16337794Y-98507765D01*
X16417235Y-98587206D01*
X16520009Y-98632585D01*
X16545135Y-98635500D01*
X17424864Y-98635499D01*
X17424879Y-98635497D01*
X17424882Y-98635497D01*
X17449987Y-98632586D01*
X17449988Y-98632585D01*
X17449991Y-98632585D01*
X17552765Y-98587206D01*
X17632206Y-98507765D01*
X17677585Y-98404991D01*
X17680500Y-98379865D01*
X17680499Y-96590136D01*
X17680497Y-96590117D01*
X17677586Y-96565012D01*
X17677585Y-96565010D01*
X17677585Y-96565009D01*
X17632206Y-96462235D01*
X17552765Y-96382794D01*
X17552763Y-96382793D01*
X17449992Y-96337415D01*
X17424865Y-96334500D01*
X16545143Y-96334500D01*
X16545117Y-96334502D01*
X16520012Y-96337413D01*
X16520008Y-96337415D01*
X16417235Y-96382793D01*
X16337794Y-96462234D01*
X16292415Y-96565006D01*
X16292415Y-96565008D01*
X16289500Y-96590131D01*
X9500500Y-96590131D01*
X9500500Y-89590131D01*
X16289500Y-89590131D01*
X16289500Y-91379856D01*
X16289502Y-91379882D01*
X16292413Y-91404987D01*
X16292415Y-91404991D01*
X16337793Y-91507764D01*
X16337794Y-91507765D01*
X16417235Y-91587206D01*
X16520009Y-91632585D01*
X16545135Y-91635500D01*
X17424864Y-91635499D01*
X17424879Y-91635497D01*
X17424882Y-91635497D01*
X17449987Y-91632586D01*
X17449988Y-91632585D01*
X17449991Y-91632585D01*
X17552765Y-91587206D01*
X17632206Y-91507765D01*
X17677585Y-91404991D01*
X17680500Y-91379865D01*
X17680499Y-90405943D01*
X20384500Y-90405943D01*
X20384500Y-90564056D01*
X20425423Y-90716783D01*
X20425426Y-90716790D01*
X20504475Y-90853709D01*
X20504479Y-90853714D01*
X20504480Y-90853716D01*
X20616284Y-90965520D01*
X20616286Y-90965521D01*
X20616290Y-90965524D01*
X20753209Y-91044573D01*
X20753216Y-91044577D01*
X20905943Y-91085500D01*
X20905945Y-91085500D01*
X21064055Y-91085500D01*
X21064057Y-91085500D01*
X21216784Y-91044577D01*
X21353716Y-90965520D01*
X21465520Y-90853716D01*
X21544577Y-90716784D01*
X21544578Y-90716779D01*
X21547986Y-90710877D01*
X21590890Y-90666962D01*
X50603719Y-73003584D01*
X50668201Y-72985500D01*
X50794055Y-72985500D01*
X50794057Y-72985500D01*
X50946784Y-72944577D01*
X51083716Y-72865520D01*
X51195520Y-72753716D01*
X51274577Y-72616784D01*
X51315500Y-72464057D01*
X51315500Y-72305943D01*
X51274577Y-72153216D01*
X51274573Y-72153209D01*
X51271884Y-72148550D01*
X51238156Y-72090131D01*
X74019500Y-72090131D01*
X74019500Y-73879856D01*
X74019502Y-73879882D01*
X74022413Y-73904987D01*
X74022415Y-73904991D01*
X74067793Y-74007764D01*
X74067794Y-74007765D01*
X74147235Y-74087206D01*
X74250009Y-74132585D01*
X74275135Y-74135500D01*
X75154864Y-74135499D01*
X75154879Y-74135497D01*
X75154882Y-74135497D01*
X75179987Y-74132586D01*
X75179988Y-74132585D01*
X75179991Y-74132585D01*
X75282765Y-74087206D01*
X75362206Y-74007765D01*
X75407585Y-73904991D01*
X75410500Y-73879865D01*
X75410499Y-72090136D01*
X75410497Y-72090117D01*
X75407586Y-72065012D01*
X75407585Y-72065010D01*
X75407585Y-72065009D01*
X75362206Y-71962235D01*
X75282765Y-71882794D01*
X75282763Y-71882793D01*
X75179992Y-71837415D01*
X75154865Y-71834500D01*
X74275143Y-71834500D01*
X74275117Y-71834502D01*
X74250012Y-71837413D01*
X74250008Y-71837415D01*
X74147235Y-71882793D01*
X74067794Y-71962234D01*
X74022415Y-72065006D01*
X74022415Y-72065008D01*
X74019500Y-72090131D01*
X51238156Y-72090131D01*
X51195522Y-72016287D01*
X51195518Y-72016282D01*
X51083717Y-71904481D01*
X51083709Y-71904475D01*
X50946790Y-71825426D01*
X50946786Y-71825424D01*
X50946784Y-71825423D01*
X50794057Y-71784500D01*
X50635943Y-71784500D01*
X50483216Y-71825423D01*
X50483209Y-71825426D01*
X50346290Y-71904475D01*
X50346282Y-71904481D01*
X50234481Y-72016282D01*
X50234477Y-72016287D01*
X50152012Y-72159122D01*
X50109107Y-72203037D01*
X21096278Y-89866415D01*
X21031796Y-89884500D01*
X20905943Y-89884500D01*
X20753216Y-89925423D01*
X20753209Y-89925426D01*
X20616290Y-90004475D01*
X20616282Y-90004481D01*
X20504481Y-90116282D01*
X20504475Y-90116290D01*
X20425426Y-90253209D01*
X20425423Y-90253216D01*
X20384500Y-90405943D01*
X17680499Y-90405943D01*
X17680499Y-89590136D01*
X17680497Y-89590117D01*
X17677586Y-89565012D01*
X17677585Y-89565010D01*
X17677585Y-89565009D01*
X17632206Y-89462235D01*
X17552765Y-89382794D01*
X17552763Y-89382793D01*
X17449992Y-89337415D01*
X17424865Y-89334500D01*
X16545143Y-89334500D01*
X16545117Y-89334502D01*
X16520012Y-89337413D01*
X16520008Y-89337415D01*
X16417235Y-89382793D01*
X16337794Y-89462234D01*
X16292415Y-89565006D01*
X16292415Y-89565008D01*
X16289500Y-89590131D01*
X9500500Y-89590131D01*
X9500500Y-82590131D01*
X16289500Y-82590131D01*
X16289500Y-84379856D01*
X16289502Y-84379882D01*
X16292413Y-84404987D01*
X16292415Y-84404991D01*
X16337793Y-84507764D01*
X16337794Y-84507765D01*
X16417235Y-84587206D01*
X16520009Y-84632585D01*
X16545135Y-84635500D01*
X17424864Y-84635499D01*
X17424879Y-84635497D01*
X17424882Y-84635497D01*
X17449987Y-84632586D01*
X17449988Y-84632585D01*
X17449991Y-84632585D01*
X17552765Y-84587206D01*
X17632206Y-84507765D01*
X17677585Y-84404991D01*
X17680500Y-84379865D01*
X17680499Y-82590136D01*
X17680497Y-82590117D01*
X17677586Y-82565012D01*
X17677585Y-82565010D01*
X17677585Y-82565009D01*
X17632206Y-82462235D01*
X17552765Y-82382794D01*
X17552763Y-82382793D01*
X17449992Y-82337415D01*
X17424865Y-82334500D01*
X16545143Y-82334500D01*
X16545117Y-82334502D01*
X16520012Y-82337413D01*
X16520008Y-82337415D01*
X16417235Y-82382793D01*
X16337794Y-82462234D01*
X16292415Y-82565006D01*
X16292415Y-82565008D01*
X16289500Y-82590131D01*
X9500500Y-82590131D01*
X9500500Y-75590131D01*
X16289500Y-75590131D01*
X16289500Y-77379856D01*
X16289502Y-77379882D01*
X16292413Y-77404987D01*
X16292415Y-77404991D01*
X16337793Y-77507764D01*
X16337794Y-77507765D01*
X16417235Y-77587206D01*
X16520009Y-77632585D01*
X16545135Y-77635500D01*
X17424864Y-77635499D01*
X17424879Y-77635497D01*
X17424882Y-77635497D01*
X17449987Y-77632586D01*
X17449988Y-77632585D01*
X17449991Y-77632585D01*
X17552765Y-77587206D01*
X17632206Y-77507765D01*
X17677585Y-77404991D01*
X17680500Y-77379865D01*
X17680499Y-75590136D01*
X17680497Y-75590117D01*
X17677586Y-75565012D01*
X17677585Y-75565010D01*
X17677585Y-75565009D01*
X17632206Y-75462235D01*
X17552765Y-75382794D01*
X17552763Y-75382793D01*
X17449992Y-75337415D01*
X17424865Y-75334500D01*
X16545143Y-75334500D01*
X16545117Y-75334502D01*
X16520012Y-75337413D01*
X16520008Y-75337415D01*
X16417235Y-75382793D01*
X16337794Y-75462234D01*
X16292415Y-75565006D01*
X16292415Y-75565008D01*
X16289500Y-75590131D01*
X9500500Y-75590131D01*
X9500500Y-68590131D01*
X16289500Y-68590131D01*
X16289500Y-70379856D01*
X16289502Y-70379882D01*
X16292413Y-70404987D01*
X16292415Y-70404991D01*
X16337793Y-70507764D01*
X16337794Y-70507765D01*
X16417235Y-70587206D01*
X16520009Y-70632585D01*
X16545135Y-70635500D01*
X17424864Y-70635499D01*
X17424879Y-70635497D01*
X17424882Y-70635497D01*
X17449987Y-70632586D01*
X17449988Y-70632585D01*
X17449991Y-70632585D01*
X17552765Y-70587206D01*
X17632206Y-70507765D01*
X17677585Y-70404991D01*
X17680500Y-70379865D01*
X17680499Y-68590136D01*
X17680497Y-68590117D01*
X17677586Y-68565012D01*
X17677585Y-68565010D01*
X17677585Y-68565009D01*
X17632206Y-68462235D01*
X17552765Y-68382794D01*
X17552763Y-68382793D01*
X17449992Y-68337415D01*
X17424865Y-68334500D01*
X16545143Y-68334500D01*
X16545117Y-68334502D01*
X16520012Y-68337413D01*
X16520008Y-68337415D01*
X16417235Y-68382793D01*
X16337794Y-68462234D01*
X16292415Y-68565006D01*
X16292415Y-68565008D01*
X16289500Y-68590131D01*
X9500500Y-68590131D01*
X9500500Y-65090131D01*
X74019500Y-65090131D01*
X74019500Y-66879856D01*
X74019502Y-66879882D01*
X74022413Y-66904987D01*
X74022415Y-66904991D01*
X74067793Y-67007764D01*
X74067794Y-67007765D01*
X74147235Y-67087206D01*
X74250009Y-67132585D01*
X74275135Y-67135500D01*
X75154864Y-67135499D01*
X75154879Y-67135497D01*
X75154882Y-67135497D01*
X75179987Y-67132586D01*
X75179988Y-67132585D01*
X75179991Y-67132585D01*
X75282765Y-67087206D01*
X75362206Y-67007765D01*
X75407585Y-66904991D01*
X75410500Y-66879865D01*
X75410499Y-65090136D01*
X75410497Y-65090117D01*
X75407586Y-65065012D01*
X75407585Y-65065010D01*
X75407585Y-65065009D01*
X75362206Y-64962235D01*
X75282765Y-64882794D01*
X75282763Y-64882793D01*
X75179992Y-64837415D01*
X75154865Y-64834500D01*
X74275143Y-64834500D01*
X74275117Y-64834502D01*
X74250012Y-64837413D01*
X74250008Y-64837415D01*
X74147235Y-64882793D01*
X74067794Y-64962234D01*
X74022415Y-65065006D01*
X74022415Y-65065008D01*
X74019500Y-65090131D01*
X9500500Y-65090131D01*
X9500500Y-61590131D01*
X16289500Y-61590131D01*
X16289500Y-63379856D01*
X16289502Y-63379882D01*
X16292413Y-63404987D01*
X16292415Y-63404991D01*
X16337793Y-63507764D01*
X16337794Y-63507765D01*
X16417235Y-63587206D01*
X16520009Y-63632585D01*
X16545135Y-63635500D01*
X17424864Y-63635499D01*
X17424879Y-63635497D01*
X17424882Y-63635497D01*
X17449987Y-63632586D01*
X17449988Y-63632585D01*
X17449991Y-63632585D01*
X17552765Y-63587206D01*
X17632206Y-63507765D01*
X17677585Y-63404991D01*
X17680500Y-63379865D01*
X17680499Y-61590136D01*
X17680497Y-61590117D01*
X17677586Y-61565012D01*
X17677585Y-61565010D01*
X17677585Y-61565009D01*
X17632206Y-61462235D01*
X17552765Y-61382794D01*
X17552763Y-61382793D01*
X17449992Y-61337415D01*
X17424865Y-61334500D01*
X16545143Y-61334500D01*
X16545117Y-61334502D01*
X16520012Y-61337413D01*
X16520008Y-61337415D01*
X16417235Y-61382793D01*
X16337794Y-61462234D01*
X16292415Y-61565006D01*
X16292415Y-61565008D01*
X16289500Y-61590131D01*
X9500500Y-61590131D01*
X9500500Y-54590131D01*
X16289500Y-54590131D01*
X16289500Y-56379856D01*
X16289502Y-56379882D01*
X16292413Y-56404987D01*
X16292415Y-56404991D01*
X16337793Y-56507764D01*
X16337794Y-56507765D01*
X16417235Y-56587206D01*
X16520009Y-56632585D01*
X16545135Y-56635500D01*
X17424864Y-56635499D01*
X17424879Y-56635497D01*
X17424882Y-56635497D01*
X17449987Y-56632586D01*
X17449988Y-56632585D01*
X17449991Y-56632585D01*
X17552765Y-56587206D01*
X17632206Y-56507765D01*
X17677585Y-56404991D01*
X17680500Y-56379865D01*
X17680499Y-54590136D01*
X17680497Y-54590117D01*
X17677586Y-54565012D01*
X17677585Y-54565010D01*
X17677585Y-54565009D01*
X17632206Y-54462235D01*
X17552765Y-54382794D01*
X17552763Y-54382793D01*
X17449992Y-54337415D01*
X17424865Y-54334500D01*
X16545143Y-54334500D01*
X16545117Y-54334502D01*
X16520012Y-54337413D01*
X16520008Y-54337415D01*
X16417235Y-54382793D01*
X16337794Y-54462234D01*
X16292415Y-54565006D01*
X16292415Y-54565008D01*
X16289500Y-54590131D01*
X9500500Y-54590131D01*
X9500500Y-47590131D01*
X16289500Y-47590131D01*
X16289500Y-49379856D01*
X16289502Y-49379882D01*
X16292413Y-49404987D01*
X16292415Y-49404991D01*
X16337793Y-49507764D01*
X16337794Y-49507765D01*
X16417235Y-49587206D01*
X16520009Y-49632585D01*
X16545135Y-49635500D01*
X17424864Y-49635499D01*
X17424879Y-49635497D01*
X17424882Y-49635497D01*
X17449987Y-49632586D01*
X17449988Y-49632585D01*
X17449991Y-49632585D01*
X17552765Y-49587206D01*
X17632206Y-49507765D01*
X17677585Y-49404991D01*
X17680500Y-49379865D01*
X17680499Y-47590136D01*
X17680497Y-47590117D01*
X17677586Y-47565012D01*
X17677585Y-47565010D01*
X17677585Y-47565009D01*
X17632206Y-47462235D01*
X17552765Y-47382794D01*
X17552763Y-47382793D01*
X17449992Y-47337415D01*
X17424865Y-47334500D01*
X16545143Y-47334500D01*
X16545117Y-47334502D01*
X16520012Y-47337413D01*
X16520008Y-47337415D01*
X16417235Y-47382793D01*
X16337794Y-47462234D01*
X16292415Y-47565006D01*
X16292415Y-47565008D01*
X16289500Y-47590131D01*
X9500500Y-47590131D01*
X9500500Y-40590131D01*
X16289500Y-40590131D01*
X16289500Y-42379856D01*
X16289502Y-42379882D01*
X16292413Y-42404987D01*
X16292415Y-42404991D01*
X16337793Y-42507764D01*
X16337794Y-42507765D01*
X16417235Y-42587206D01*
X16520009Y-42632585D01*
X16545135Y-42635500D01*
X17424864Y-42635499D01*
X17424879Y-42635497D01*
X17424882Y-42635497D01*
X17449987Y-42632586D01*
X17449988Y-42632585D01*
X17449991Y-42632585D01*
X17552765Y-42587206D01*
X17632206Y-42507765D01*
X17677585Y-42404991D01*
X17680500Y-42379865D01*
X17680499Y-41405943D01*
X20384500Y-41405943D01*
X20384500Y-41564056D01*
X20425423Y-41716783D01*
X20425426Y-41716790D01*
X20504475Y-41853709D01*
X20504479Y-41853714D01*
X20504480Y-41853716D01*
X20616284Y-41965520D01*
X20616286Y-41965521D01*
X20616290Y-41965524D01*
X20753209Y-42044573D01*
X20753216Y-42044577D01*
X20905943Y-42085500D01*
X20905945Y-42085500D01*
X21031798Y-42085500D01*
X21096279Y-42103584D01*
X50109108Y-59766962D01*
X50152012Y-59810877D01*
X50234475Y-59953709D01*
X50234479Y-59953714D01*
X50234480Y-59953716D01*
X50346284Y-60065520D01*
X50346286Y-60065521D01*
X50346290Y-60065524D01*
X50462443Y-60132584D01*
X50483216Y-60144577D01*
X50635943Y-60185500D01*
X50635945Y-60185500D01*
X50794055Y-60185500D01*
X50794057Y-60185500D01*
X50946784Y-60144577D01*
X51083716Y-60065520D01*
X51195520Y-59953716D01*
X51274577Y-59816784D01*
X51315500Y-59664057D01*
X51315500Y-59505943D01*
X51274577Y-59353216D01*
X51274573Y-59353209D01*
X51195524Y-59216290D01*
X51195518Y-59216282D01*
X51083717Y-59104481D01*
X51083709Y-59104475D01*
X50946790Y-59025426D01*
X50946786Y-59025424D01*
X50946784Y-59025423D01*
X50794057Y-58984500D01*
X50668203Y-58984500D01*
X50603721Y-58966415D01*
X21590892Y-41303037D01*
X21547987Y-41259121D01*
X21465524Y-41116290D01*
X21465518Y-41116282D01*
X21353717Y-41004481D01*
X21353709Y-41004475D01*
X21216790Y-40925426D01*
X21216786Y-40925424D01*
X21216784Y-40925423D01*
X21064057Y-40884500D01*
X20905943Y-40884500D01*
X20753216Y-40925423D01*
X20753209Y-40925426D01*
X20616290Y-41004475D01*
X20616282Y-41004481D01*
X20504481Y-41116282D01*
X20504475Y-41116290D01*
X20425426Y-41253209D01*
X20425423Y-41253216D01*
X20384500Y-41405943D01*
X17680499Y-41405943D01*
X17680499Y-40590136D01*
X17680497Y-40590117D01*
X17677586Y-40565012D01*
X17677585Y-40565010D01*
X17677585Y-40565009D01*
X17632206Y-40462235D01*
X17552765Y-40382794D01*
X17552763Y-40382793D01*
X17449992Y-40337415D01*
X17424865Y-40334500D01*
X16545143Y-40334500D01*
X16545117Y-40334502D01*
X16520012Y-40337413D01*
X16520008Y-40337415D01*
X16417235Y-40382793D01*
X16337794Y-40462234D01*
X16292415Y-40565006D01*
X16292415Y-40565008D01*
X16289500Y-40590131D01*
X9500500Y-40590131D01*
X9500500Y-33590131D01*
X16289500Y-33590131D01*
X16289500Y-35379856D01*
X16289502Y-35379882D01*
X16292413Y-35404987D01*
X16292415Y-35404991D01*
X16337793Y-35507764D01*
X16337794Y-35507765D01*
X16417235Y-35587206D01*
X16520009Y-35632585D01*
X16545135Y-35635500D01*
X17424864Y-35635499D01*
X17424879Y-35635497D01*
X17424882Y-35635497D01*
X17449987Y-35632586D01*
X17449988Y-35632585D01*
X17449991Y-35632585D01*
X17552765Y-35587206D01*
X17632206Y-35507765D01*
X17677585Y-35404991D01*
X17680500Y-35379865D01*
X17680499Y-33590136D01*
X17680497Y-33590117D01*
X17677586Y-33565012D01*
X17677585Y-33565010D01*
X17677585Y-33565009D01*
X17632206Y-33462235D01*
X17552765Y-33382794D01*
X17552763Y-33382793D01*
X17449992Y-33337415D01*
X17424865Y-33334500D01*
X16545143Y-33334500D01*
X16545117Y-33334502D01*
X16520012Y-33337413D01*
X16520008Y-33337415D01*
X16417235Y-33382793D01*
X16337794Y-33462234D01*
X16292415Y-33565006D01*
X16292415Y-33565008D01*
X16289500Y-33590131D01*
X9500500Y-33590131D01*
X9500500Y-26590131D01*
X16289500Y-26590131D01*
X16289500Y-28379856D01*
X16289502Y-28379882D01*
X16292413Y-28404987D01*
X16292415Y-28404991D01*
X16337793Y-28507764D01*
X16337794Y-28507765D01*
X16417235Y-28587206D01*
X16520009Y-28632585D01*
X16545135Y-28635500D01*
X17424864Y-28635499D01*
X17424879Y-28635497D01*
X17424882Y-28635497D01*
X17449987Y-28632586D01*
X17449988Y-28632585D01*
X17449991Y-28632585D01*
X17552765Y-28587206D01*
X17632206Y-28507765D01*
X17677585Y-28404991D01*
X17680500Y-28379865D01*
X17680499Y-27405943D01*
X20384500Y-27405943D01*
X20384500Y-27564056D01*
X20425423Y-27716783D01*
X20425426Y-27716790D01*
X20504475Y-27853709D01*
X20504479Y-27853714D01*
X20504480Y-27853716D01*
X20616284Y-27965520D01*
X20616286Y-27965521D01*
X20616290Y-27965524D01*
X20753209Y-28044573D01*
X20753216Y-28044577D01*
X20882982Y-28079347D01*
X20939683Y-28112569D01*
X41694559Y-49404991D01*
X49914099Y-57837415D01*
X50084121Y-58011840D01*
X50115100Y-58066298D01*
X50121488Y-58090135D01*
X50155423Y-58216785D01*
X50155426Y-58216790D01*
X50234475Y-58353709D01*
X50234479Y-58353714D01*
X50234480Y-58353716D01*
X50346284Y-58465520D01*
X50346286Y-58465521D01*
X50346290Y-58465524D01*
X50483209Y-58544573D01*
X50483216Y-58544577D01*
X50635943Y-58585500D01*
X50635945Y-58585500D01*
X50794055Y-58585500D01*
X50794057Y-58585500D01*
X50946784Y-58544577D01*
X51083716Y-58465520D01*
X51195520Y-58353716D01*
X51274577Y-58216784D01*
X51308514Y-58090131D01*
X74019500Y-58090131D01*
X74019500Y-59879856D01*
X74019502Y-59879882D01*
X74022413Y-59904987D01*
X74022415Y-59904991D01*
X74067793Y-60007764D01*
X74067794Y-60007765D01*
X74147235Y-60087206D01*
X74250009Y-60132585D01*
X74275135Y-60135500D01*
X75154864Y-60135499D01*
X75154879Y-60135497D01*
X75154882Y-60135497D01*
X75179987Y-60132586D01*
X75179988Y-60132585D01*
X75179991Y-60132585D01*
X75282765Y-60087206D01*
X75362206Y-60007765D01*
X75407585Y-59904991D01*
X75410500Y-59879865D01*
X75410499Y-58090136D01*
X75407735Y-58066299D01*
X75407586Y-58065012D01*
X75407585Y-58065010D01*
X75407585Y-58065009D01*
X75362206Y-57962235D01*
X75282765Y-57882794D01*
X75282763Y-57882793D01*
X75179992Y-57837415D01*
X75154865Y-57834500D01*
X74275143Y-57834500D01*
X74275117Y-57834502D01*
X74250012Y-57837413D01*
X74250008Y-57837415D01*
X74147235Y-57882793D01*
X74067794Y-57962234D01*
X74022415Y-58065006D01*
X74022415Y-58065008D01*
X74019500Y-58090131D01*
X51308514Y-58090131D01*
X51315500Y-58064057D01*
X51315500Y-57905943D01*
X51274577Y-57753216D01*
X51274573Y-57753209D01*
X51195524Y-57616290D01*
X51195518Y-57616282D01*
X51083717Y-57504481D01*
X51083709Y-57504475D01*
X50946790Y-57425426D01*
X50946786Y-57425424D01*
X50946784Y-57425423D01*
X50817017Y-57390652D01*
X50760317Y-57357431D01*
X50053771Y-56632586D01*
X44651240Y-51090131D01*
X74019500Y-51090131D01*
X74019500Y-52879856D01*
X74019502Y-52879882D01*
X74022413Y-52904987D01*
X74022415Y-52904991D01*
X74067793Y-53007764D01*
X74067794Y-53007765D01*
X74147235Y-53087206D01*
X74250009Y-53132585D01*
X74275135Y-53135500D01*
X75154864Y-53135499D01*
X75154879Y-53135497D01*
X75154882Y-53135497D01*
X75179987Y-53132586D01*
X75179988Y-53132585D01*
X75179991Y-53132585D01*
X75282765Y-53087206D01*
X75362206Y-53007765D01*
X75407585Y-52904991D01*
X75410500Y-52879865D01*
X75410499Y-51090136D01*
X75410497Y-51090117D01*
X75407586Y-51065012D01*
X75407585Y-51065010D01*
X75407585Y-51065009D01*
X75362206Y-50962235D01*
X75282765Y-50882794D01*
X75282763Y-50882793D01*
X75179992Y-50837415D01*
X75154865Y-50834500D01*
X74275143Y-50834500D01*
X74275117Y-50834502D01*
X74250012Y-50837413D01*
X74250008Y-50837415D01*
X74147235Y-50882793D01*
X74067794Y-50962234D01*
X74022415Y-51065006D01*
X74022415Y-51065008D01*
X74019500Y-51090131D01*
X44651240Y-51090131D01*
X39538617Y-45845092D01*
X47759500Y-45845092D01*
X47759500Y-45994907D01*
X47788723Y-46141822D01*
X47788725Y-46141830D01*
X47846051Y-46280229D01*
X47846056Y-46280238D01*
X47929280Y-46404790D01*
X47929283Y-46404794D01*
X48035205Y-46510716D01*
X48035209Y-46510719D01*
X48159761Y-46593943D01*
X48159767Y-46593946D01*
X48159768Y-46593947D01*
X48298170Y-46651275D01*
X48445092Y-46680499D01*
X48445096Y-46680500D01*
X48445097Y-46680500D01*
X48594904Y-46680500D01*
X48594905Y-46680499D01*
X48741830Y-46651275D01*
X48880232Y-46593947D01*
X49004791Y-46510719D01*
X49110719Y-46404791D01*
X49193947Y-46280232D01*
X49251275Y-46141830D01*
X49280500Y-45994903D01*
X49280500Y-45845097D01*
X49251275Y-45698170D01*
X49193947Y-45559768D01*
X49193946Y-45559767D01*
X49193943Y-45559761D01*
X49110719Y-45435209D01*
X49110716Y-45435205D01*
X49004794Y-45329283D01*
X49004790Y-45329280D01*
X48880238Y-45246056D01*
X48880229Y-45246051D01*
X48741830Y-45188725D01*
X48741822Y-45188723D01*
X48594907Y-45159500D01*
X48594903Y-45159500D01*
X48445097Y-45159500D01*
X48445092Y-45159500D01*
X48298177Y-45188723D01*
X48298169Y-45188725D01*
X48159770Y-45246051D01*
X48159761Y-45246056D01*
X48035209Y-45329280D01*
X48035205Y-45329283D01*
X47929283Y-45435205D01*
X47929280Y-45435209D01*
X47846056Y-45559761D01*
X47846051Y-45559770D01*
X47788725Y-45698169D01*
X47788723Y-45698177D01*
X47759500Y-45845092D01*
X39538617Y-45845092D01*
X37827962Y-44090131D01*
X74019500Y-44090131D01*
X74019500Y-45879856D01*
X74019502Y-45879882D01*
X74022413Y-45904987D01*
X74022415Y-45904991D01*
X74067793Y-46007764D01*
X74067794Y-46007765D01*
X74147235Y-46087206D01*
X74250009Y-46132585D01*
X74275135Y-46135500D01*
X75154864Y-46135499D01*
X75154879Y-46135497D01*
X75154882Y-46135497D01*
X75179987Y-46132586D01*
X75179988Y-46132585D01*
X75179991Y-46132585D01*
X75282765Y-46087206D01*
X75362206Y-46007765D01*
X75407585Y-45904991D01*
X75410500Y-45879865D01*
X75410499Y-44090136D01*
X75410497Y-44090117D01*
X75407586Y-44065012D01*
X75407585Y-44065010D01*
X75407585Y-44065009D01*
X75362206Y-43962235D01*
X75282765Y-43882794D01*
X75282763Y-43882793D01*
X75179992Y-43837415D01*
X75154865Y-43834500D01*
X74275143Y-43834500D01*
X74275117Y-43834502D01*
X74250012Y-43837413D01*
X74250008Y-43837415D01*
X74147235Y-43882793D01*
X74067794Y-43962234D01*
X74022415Y-44065006D01*
X74022415Y-44065008D01*
X74019500Y-44090131D01*
X37827962Y-44090131D01*
X32998414Y-39135499D01*
X31004683Y-37090131D01*
X74019500Y-37090131D01*
X74019500Y-38879856D01*
X74019502Y-38879882D01*
X74022413Y-38904987D01*
X74022415Y-38904991D01*
X74067793Y-39007764D01*
X74067794Y-39007765D01*
X74147235Y-39087206D01*
X74250009Y-39132585D01*
X74275135Y-39135500D01*
X75154864Y-39135499D01*
X75154879Y-39135497D01*
X75154882Y-39135497D01*
X75179987Y-39132586D01*
X75179988Y-39132585D01*
X75179991Y-39132585D01*
X75282765Y-39087206D01*
X75362206Y-39007765D01*
X75407585Y-38904991D01*
X75410500Y-38879865D01*
X75410499Y-37090136D01*
X75410497Y-37090117D01*
X75407586Y-37065012D01*
X75407585Y-37065010D01*
X75407585Y-37065009D01*
X75362206Y-36962235D01*
X75282765Y-36882794D01*
X75282763Y-36882793D01*
X75179992Y-36837415D01*
X75154865Y-36834500D01*
X74275143Y-36834500D01*
X74275117Y-36834502D01*
X74250012Y-36837413D01*
X74250008Y-36837415D01*
X74147235Y-36882793D01*
X74067794Y-36962234D01*
X74022415Y-37065006D01*
X74022415Y-37065008D01*
X74019500Y-37090131D01*
X31004683Y-37090131D01*
X24262287Y-30173107D01*
X24181406Y-30090131D01*
X74019500Y-30090131D01*
X74019500Y-31879856D01*
X74019502Y-31879882D01*
X74022413Y-31904987D01*
X74022415Y-31904991D01*
X74067793Y-32007764D01*
X74067794Y-32007765D01*
X74147235Y-32087206D01*
X74250009Y-32132585D01*
X74275135Y-32135500D01*
X75154864Y-32135499D01*
X75154879Y-32135497D01*
X75154882Y-32135497D01*
X75179987Y-32132586D01*
X75179988Y-32132585D01*
X75179991Y-32132585D01*
X75282765Y-32087206D01*
X75362206Y-32007765D01*
X75407585Y-31904991D01*
X75410500Y-31879865D01*
X75410499Y-30090136D01*
X75410497Y-30090117D01*
X75407586Y-30065012D01*
X75407585Y-30065010D01*
X75407585Y-30065009D01*
X75362206Y-29962235D01*
X75282765Y-29882794D01*
X75282763Y-29882793D01*
X75179992Y-29837415D01*
X75154865Y-29834500D01*
X74275143Y-29834500D01*
X74275117Y-29834502D01*
X74250012Y-29837413D01*
X74250008Y-29837415D01*
X74147235Y-29882793D01*
X74067794Y-29962234D01*
X74022415Y-30065006D01*
X74022415Y-30065008D01*
X74019500Y-30090131D01*
X24181406Y-30090131D01*
X21615878Y-27458157D01*
X21584898Y-27403698D01*
X21544576Y-27253214D01*
X21544573Y-27253209D01*
X21465524Y-27116290D01*
X21465518Y-27116282D01*
X21353717Y-27004481D01*
X21353709Y-27004475D01*
X21216790Y-26925426D01*
X21216786Y-26925424D01*
X21216784Y-26925423D01*
X21064057Y-26884500D01*
X20905943Y-26884500D01*
X20753216Y-26925423D01*
X20753209Y-26925426D01*
X20616290Y-27004475D01*
X20616282Y-27004481D01*
X20504481Y-27116282D01*
X20504475Y-27116290D01*
X20425426Y-27253209D01*
X20425423Y-27253216D01*
X20384500Y-27405943D01*
X17680499Y-27405943D01*
X17680499Y-26590136D01*
X17680497Y-26590117D01*
X17677586Y-26565012D01*
X17677585Y-26565010D01*
X17677585Y-26565009D01*
X17632206Y-26462235D01*
X17552765Y-26382794D01*
X17552763Y-26382793D01*
X17449992Y-26337415D01*
X17424865Y-26334500D01*
X16545143Y-26334500D01*
X16545117Y-26334502D01*
X16520012Y-26337413D01*
X16520008Y-26337415D01*
X16417235Y-26382793D01*
X16337794Y-26462234D01*
X16292415Y-26565006D01*
X16292415Y-26565008D01*
X16289500Y-26590131D01*
X9500500Y-26590131D01*
X9500500Y-23090131D01*
X74019500Y-23090131D01*
X74019500Y-24879856D01*
X74019502Y-24879882D01*
X74022413Y-24904987D01*
X74022415Y-24904991D01*
X74067793Y-25007764D01*
X74067794Y-25007765D01*
X74147235Y-25087206D01*
X74250009Y-25132585D01*
X74275135Y-25135500D01*
X75154864Y-25135499D01*
X75154879Y-25135497D01*
X75154882Y-25135497D01*
X75179987Y-25132586D01*
X75179988Y-25132585D01*
X75179991Y-25132585D01*
X75282765Y-25087206D01*
X75362206Y-25007765D01*
X75407585Y-24904991D01*
X75410500Y-24879865D01*
X75410499Y-23090136D01*
X75410497Y-23090117D01*
X75407586Y-23065012D01*
X75407585Y-23065010D01*
X75407585Y-23065009D01*
X75362206Y-22962235D01*
X75282765Y-22882794D01*
X75282763Y-22882793D01*
X75179992Y-22837415D01*
X75154865Y-22834500D01*
X74275143Y-22834500D01*
X74275117Y-22834502D01*
X74250012Y-22837413D01*
X74250008Y-22837415D01*
X74147235Y-22882793D01*
X74067794Y-22962234D01*
X74022415Y-23065006D01*
X74022415Y-23065008D01*
X74019500Y-23090131D01*
X9500500Y-23090131D01*
X9500500Y-14878711D01*
X15134500Y-14878711D01*
X15134500Y-15121288D01*
X15166161Y-15361785D01*
X15228947Y-15596104D01*
X15321773Y-15820205D01*
X15321776Y-15820212D01*
X15443064Y-16030289D01*
X15443066Y-16030292D01*
X15443067Y-16030293D01*
X15590733Y-16222736D01*
X15590739Y-16222743D01*
X15762256Y-16394260D01*
X15762262Y-16394265D01*
X15954711Y-16541936D01*
X16164788Y-16663224D01*
X16388900Y-16756054D01*
X16623211Y-16818838D01*
X16803586Y-16842584D01*
X16863711Y-16850500D01*
X16863712Y-16850500D01*
X17106289Y-16850500D01*
X17154388Y-16844167D01*
X17346789Y-16818838D01*
X17581100Y-16756054D01*
X17805212Y-16663224D01*
X18015289Y-16541936D01*
X18207738Y-16394265D01*
X18379265Y-16222738D01*
X18526936Y-16030289D01*
X18648224Y-15820212D01*
X18741054Y-15596100D01*
X18803838Y-15361789D01*
X18835500Y-15121288D01*
X18835500Y-14878712D01*
X18835500Y-14878711D01*
X72864500Y-14878711D01*
X72864500Y-15121288D01*
X72896161Y-15361785D01*
X72958947Y-15596104D01*
X73051773Y-15820205D01*
X73051776Y-15820212D01*
X73173064Y-16030289D01*
X73173066Y-16030292D01*
X73173067Y-16030293D01*
X73320733Y-16222736D01*
X73320739Y-16222743D01*
X73492256Y-16394260D01*
X73492262Y-16394265D01*
X73684711Y-16541936D01*
X73894788Y-16663224D01*
X74118900Y-16756054D01*
X74353211Y-16818838D01*
X74533586Y-16842584D01*
X74593711Y-16850500D01*
X74593712Y-16850500D01*
X74836289Y-16850500D01*
X74884388Y-16844167D01*
X75076789Y-16818838D01*
X75311100Y-16756054D01*
X75535212Y-16663224D01*
X75745289Y-16541936D01*
X75937738Y-16394265D01*
X76109265Y-16222738D01*
X76256936Y-16030289D01*
X76378224Y-15820212D01*
X76471054Y-15596100D01*
X76533838Y-15361789D01*
X76565500Y-15121288D01*
X76565500Y-14878712D01*
X76533838Y-14638211D01*
X76471054Y-14403900D01*
X76378224Y-14179788D01*
X76256936Y-13969711D01*
X76109265Y-13777262D01*
X76109260Y-13777256D01*
X75937743Y-13605739D01*
X75937736Y-13605733D01*
X75745293Y-13458067D01*
X75745292Y-13458066D01*
X75745289Y-13458064D01*
X75535212Y-13336776D01*
X75535205Y-13336773D01*
X75311104Y-13243947D01*
X75076785Y-13181161D01*
X74836289Y-13149500D01*
X74836288Y-13149500D01*
X74593712Y-13149500D01*
X74593711Y-13149500D01*
X74353214Y-13181161D01*
X74118895Y-13243947D01*
X73894794Y-13336773D01*
X73894785Y-13336777D01*
X73684706Y-13458067D01*
X73492263Y-13605733D01*
X73492256Y-13605739D01*
X73320739Y-13777256D01*
X73320733Y-13777263D01*
X73173067Y-13969706D01*
X73051777Y-14179785D01*
X73051773Y-14179794D01*
X72958947Y-14403895D01*
X72896161Y-14638214D01*
X72864500Y-14878711D01*
X18835500Y-14878711D01*
X18803838Y-14638211D01*
X18741054Y-14403900D01*
X18648224Y-14179788D01*
X18526936Y-13969711D01*
X18379265Y-13777262D01*
X18379260Y-13777256D01*
X18207743Y-13605739D01*
X18207736Y-13605733D01*
X18015293Y-13458067D01*
X18015292Y-13458066D01*
X18015289Y-13458064D01*
X17805212Y-13336776D01*
X17805205Y-13336773D01*
X17581104Y-13243947D01*
X17346785Y-13181161D01*
X17106289Y-13149500D01*
X17106288Y-13149500D01*
X16863712Y-13149500D01*
X16863711Y-13149500D01*
X16623214Y-13181161D01*
X16388895Y-13243947D01*
X16164794Y-13336773D01*
X16164785Y-13336777D01*
X15954706Y-13458067D01*
X15762263Y-13605733D01*
X15762256Y-13605739D01*
X15590739Y-13777256D01*
X15590733Y-13777263D01*
X15443067Y-13969706D01*
X15321777Y-14179785D01*
X15321773Y-14179794D01*
X15228947Y-14403895D01*
X15166161Y-14638214D01*
X15134500Y-14878711D01*
X9500500Y-14878711D01*
X9500500Y-10624500D01*
X9520185Y-10557461D01*
X9572989Y-10511706D01*
X9624500Y-10500500D01*
X82075500Y-10500500D01*
X82142539Y-10520185D01*
G37*
%TD.AperFunction*%
%TD*%
M02*
