%TF.GenerationSoftware,KiCad,Pcbnew,10.0.3*%
%TF.CreationDate,2026-06-22T23:05:32-04:00*%
%TF.ProjectId,board-D-smp,626f6172-642d-4442-9d73-6d702e6b6963,rev?*%
%TF.SameCoordinates,Original*%
%TF.FileFunction,Soldermask,Bot*%
%TF.FilePolarity,Negative*%
%FSLAX46Y46*%
G04 Gerber Fmt 4.6, Leading zero omitted, Abs format (unit mm)*
G04 Created by KiCad (PCBNEW 10.0.3) date 2026-06-22 23:05:32*
%MOMM*%
%LPD*%
G01*
G04 APERTURE LIST*
G04 Aperture macros list*
%AMRoundRect*
0 Rectangle with rounded corners*
0 $1 Rounding radius*
0 $2 $3 $4 $5 $6 $7 $8 $9 X,Y pos of 4 corners*
0 Add a 4 corners polygon primitive as box body*
4,1,4,$2,$3,$4,$5,$6,$7,$8,$9,$2,$3,0*
0 Add four circle primitives for the rounded corners*
1,1,$1+$1,$2,$3*
1,1,$1+$1,$4,$5*
1,1,$1+$1,$6,$7*
1,1,$1+$1,$8,$9*
0 Add four rect primitives between the rounded corners*
20,1,$1+$1,$2,$3,$4,$5,0*
20,1,$1+$1,$4,$5,$6,$7,0*
20,1,$1+$1,$6,$7,$8,$9,0*
20,1,$1+$1,$8,$9,$2,$3,0*%
G04 Aperture macros list end*
%ADD10C,3.200000*%
%ADD11C,1.020000*%
%ADD12RoundRect,0.102000X1.135000X-0.205000X1.135000X0.205000X-1.135000X0.205000X-1.135000X-0.205000X0*%
%ADD13RoundRect,0.102000X0.215000X-1.270000X0.215000X1.270000X-0.215000X1.270000X-0.215000X-1.270000X0*%
%ADD14RoundRect,0.102000X0.215000X-2.350000X0.215000X2.350000X-0.215000X2.350000X-0.215000X-2.350000X0*%
G04 APERTURE END LIST*
D10*
%TO.C,MH3*%
X16985000Y-116970000D03*
%TD*%
%TO.C,MH2*%
X74715000Y-15000000D03*
%TD*%
%TO.C,MH4*%
X74715000Y-116970000D03*
%TD*%
%TO.C,MH1*%
X16985000Y-15000000D03*
%TD*%
D11*
%TO.C,J5*%
X48520000Y-86050000D03*
X48520000Y-45920000D03*
D12*
X42985000Y-83585000D03*
X48715000Y-83585000D03*
X42985000Y-82785000D03*
X48715000Y-82785000D03*
X42985000Y-81985000D03*
X48715000Y-81985000D03*
X42985000Y-81185000D03*
X48715000Y-81185000D03*
X42985000Y-80385000D03*
X48715000Y-80385000D03*
X42985000Y-79585000D03*
X48715000Y-79585000D03*
X42985000Y-78785000D03*
X48715000Y-78785000D03*
X42985000Y-77985000D03*
X48715000Y-77985000D03*
X42985000Y-77185000D03*
X48715000Y-77185000D03*
X42985000Y-76385000D03*
X48715000Y-76385000D03*
X42985000Y-75585000D03*
X48715000Y-75585000D03*
X42985000Y-74785000D03*
X48715000Y-74785000D03*
X42985000Y-73985000D03*
X48715000Y-73985000D03*
X42985000Y-73185000D03*
X48715000Y-73185000D03*
X42985000Y-72385000D03*
X48715000Y-72385000D03*
X42985000Y-71585000D03*
X48715000Y-71585000D03*
X42985000Y-70785000D03*
X48715000Y-70785000D03*
X42985000Y-69985000D03*
X48715000Y-69985000D03*
X42985000Y-69185000D03*
X48715000Y-69185000D03*
X42985000Y-68385000D03*
X48715000Y-68385000D03*
X42985000Y-63585000D03*
X48715000Y-63585000D03*
X42985000Y-62785000D03*
X48715000Y-62785000D03*
X42985000Y-61985000D03*
X48715000Y-61985000D03*
X42985000Y-61185000D03*
X48715000Y-61185000D03*
X42985000Y-60385000D03*
X48715000Y-60385000D03*
X42985000Y-59585000D03*
X48715000Y-59585000D03*
X42985000Y-58785000D03*
X48715000Y-58785000D03*
X42985000Y-57985000D03*
X48715000Y-57985000D03*
X42985000Y-57185000D03*
X48715000Y-57185000D03*
X42985000Y-56385000D03*
X48715000Y-56385000D03*
X42985000Y-55585000D03*
X48715000Y-55585000D03*
X42985000Y-54785000D03*
X48715000Y-54785000D03*
X42985000Y-53985000D03*
X48715000Y-53985000D03*
X42985000Y-53185000D03*
X48715000Y-53185000D03*
X42985000Y-52385000D03*
X48715000Y-52385000D03*
X42985000Y-51585000D03*
X48715000Y-51585000D03*
X42985000Y-50785000D03*
X48715000Y-50785000D03*
X42985000Y-49985000D03*
X48715000Y-49985000D03*
X42985000Y-49185000D03*
X48715000Y-49185000D03*
X42985000Y-48385000D03*
X48715000Y-48385000D03*
D13*
X45850000Y-84050000D03*
D14*
X45850000Y-79160000D03*
X45850000Y-72810000D03*
D13*
X45850000Y-67920000D03*
X45850000Y-64050000D03*
D14*
X45850000Y-59160000D03*
X45850000Y-52810000D03*
D13*
X45850000Y-47920000D03*
%TD*%
M02*
