M48
; DRILL file KiCad 10.0.3 date 2026-06-24T00:16:39
; FORMAT={-:-/ absolute / metric / decimal}
; #@! TF.CreationDate,2026-06-24T00:16:39-04:00
; #@! TF.GenerationSoftware,Kicad,Pcbnew,10.0.3
; #@! TF.FileFunction,MixedPlating,1,4
FMAT,2
METRIC
; #@! TA.AperFunction,Plated,PTH,ViaDrill
T1C0.300
; #@! TA.AperFunction,NonPlated,NPTH,ComponentDrill
T2C1.020
; #@! TA.AperFunction,NonPlated,NPTH,ComponentDrill
T3C3.200
%
G90
G05
T1
X11.925Y-12.925
X11.925Y-127.075
X17.925Y-12.925
X17.925Y-127.075
X25.3Y-34.0
X25.3Y-50.0
X25.3Y-58.0
X25.3Y-66.0
X25.3Y-74.0
X25.3Y-82.0
X25.3Y-90.0
X25.3Y-106.0
X29.925Y-12.925
X29.925Y-127.075
X35.925Y-12.925
X35.925Y-127.075
X41.925Y-12.925
X41.925Y-127.075
X47.925Y-12.925
X47.925Y-127.075
X51.415Y-62.0
X51.415Y-63.6
X51.415Y-76.4
X51.415Y-78.0
X53.925Y-12.925
X53.925Y-127.075
X59.925Y-12.925
X59.925Y-127.075
X65.925Y-12.925
X65.925Y-127.075
X67.8Y-22.0
X67.8Y-30.0
X67.8Y-38.0
X67.8Y-46.0
X67.8Y-54.0
X67.8Y-62.0
X67.8Y-70.0
X67.8Y-78.0
X67.8Y-86.0
X67.8Y-94.0
X67.8Y-102.0
X67.8Y-110.0
X67.8Y-118.0
X77.925Y-12.925
X77.925Y-127.075
T2
X49.22Y-49.935
X49.22Y-90.065
T3
X21.3Y-15.0
X21.3Y-125.0
X71.8Y-15.0
X71.8Y-125.0
M30
