%TF.GenerationSoftware,KiCad,Pcbnew,10.0.3*%
%TF.CreationDate,2026-06-22T23:05:32-04:00*%
%TF.ProjectId,board-D-smp,626f6172-642d-4442-9d73-6d702e6b6963,rev?*%
%TF.SameCoordinates,Original*%
%TF.FileFunction,Other,User*%
%FSLAX46Y46*%
G04 Gerber Fmt 4.6, Leading zero omitted, Abs format (unit mm)*
G04 Created by KiCad (PCBNEW 10.0.3) date 2026-06-22 23:05:32*
%MOMM*%
%LPD*%
G01*
G04 APERTURE LIST*
%ADD10C,0.050000*%
G04 APERTURE END LIST*
D10*
%TO.C,K19*%
X72110000Y-42380000D02*
X77320000Y-42380000D01*
X77320000Y-47590000D01*
X72110000Y-47590000D01*
X72110000Y-42380000D01*
%TO.C,K16*%
X72110000Y-21380000D02*
X77320000Y-21380000D01*
X77320000Y-26590000D01*
X72110000Y-26590000D01*
X72110000Y-21380000D01*
%TO.C,K20*%
X72110000Y-49380000D02*
X77320000Y-49380000D01*
X77320000Y-54590000D01*
X72110000Y-54590000D01*
X72110000Y-49380000D01*
%TO.C,K8*%
X19590000Y-100090000D02*
X14380000Y-100090000D01*
X14380000Y-94880000D01*
X19590000Y-94880000D01*
X19590000Y-100090000D01*
%TO.C,K22*%
X19590000Y-30090000D02*
X14380000Y-30090000D01*
X14380000Y-24880000D01*
X19590000Y-24880000D01*
X19590000Y-30090000D01*
%TO.C,K4*%
X72110000Y-84380000D02*
X77320000Y-84380000D01*
X77320000Y-89590000D01*
X72110000Y-89590000D01*
X72110000Y-84380000D01*
%TO.C,K15*%
X19590000Y-37090000D02*
X14380000Y-37090000D01*
X14380000Y-31880000D01*
X19590000Y-31880000D01*
X19590000Y-37090000D01*
%TO.C,K9*%
X19590000Y-86090000D02*
X14380000Y-86090000D01*
X14380000Y-80880000D01*
X19590000Y-80880000D01*
X19590000Y-86090000D01*
%TO.C,IV*%
X72110000Y-63380000D02*
X77320000Y-63380000D01*
X77320000Y-68590000D01*
X72110000Y-68590000D01*
X72110000Y-63380000D01*
%TO.C,K13*%
X19590000Y-58090000D02*
X14380000Y-58090000D01*
X14380000Y-52880000D01*
X19590000Y-52880000D01*
X19590000Y-58090000D01*
%TO.C,K3*%
X72110000Y-77380000D02*
X77320000Y-77380000D01*
X77320000Y-82590000D01*
X72110000Y-82590000D01*
X72110000Y-77380000D01*
%TO.C,K5*%
X72110000Y-91380000D02*
X77320000Y-91380000D01*
X77320000Y-96590000D01*
X72110000Y-96590000D01*
X72110000Y-91380000D01*
%TO.C,K6*%
X72110000Y-98380000D02*
X77320000Y-98380000D01*
X77320000Y-103590000D01*
X72110000Y-103590000D01*
X72110000Y-98380000D01*
%TO.C,K0*%
X19590000Y-93090000D02*
X14380000Y-93090000D01*
X14380000Y-87880000D01*
X19590000Y-87880000D01*
X19590000Y-93090000D01*
%TO.C,K2*%
X72110000Y-70380000D02*
X77320000Y-70380000D01*
X77320000Y-75590000D01*
X72110000Y-75590000D01*
X72110000Y-70380000D01*
%TO.C,K14*%
X19590000Y-51090000D02*
X14380000Y-51090000D01*
X14380000Y-45880000D01*
X19590000Y-45880000D01*
X19590000Y-51090000D01*
%TO.C,K7*%
X72110000Y-105380000D02*
X77320000Y-105380000D01*
X77320000Y-110590000D01*
X72110000Y-110590000D01*
X72110000Y-105380000D01*
%TO.C,MH3*%
X20435000Y-116970000D02*
G75*
G02*
X13535000Y-116970000I-3450000J0D01*
G01*
X13535000Y-116970000D02*
G75*
G02*
X20435000Y-116970000I3450000J0D01*
G01*
%TO.C,K1*%
X19590000Y-107090000D02*
X14380000Y-107090000D01*
X14380000Y-101880000D01*
X19590000Y-101880000D01*
X19590000Y-107090000D01*
%TO.C,K11*%
X19590000Y-72090000D02*
X14380000Y-72090000D01*
X14380000Y-66880000D01*
X19590000Y-66880000D01*
X19590000Y-72090000D01*
%TO.C,MH2*%
X78165000Y-15000000D02*
G75*
G02*
X71265000Y-15000000I-3450000J0D01*
G01*
X71265000Y-15000000D02*
G75*
G02*
X78165000Y-15000000I3450000J0D01*
G01*
%TO.C,K21*%
X72110000Y-56380000D02*
X77320000Y-56380000D01*
X77320000Y-61590000D01*
X72110000Y-61590000D01*
X72110000Y-56380000D01*
%TO.C,K10*%
X19590000Y-79090000D02*
X14380000Y-79090000D01*
X14380000Y-73880000D01*
X19590000Y-73880000D01*
X19590000Y-79090000D01*
%TO.C,K23*%
X19590000Y-44090000D02*
X14380000Y-44090000D01*
X14380000Y-38880000D01*
X19590000Y-38880000D01*
X19590000Y-44090000D01*
%TO.C,K12*%
X19590000Y-65090000D02*
X14380000Y-65090000D01*
X14380000Y-59880000D01*
X19590000Y-59880000D01*
X19590000Y-65090000D01*
%TO.C,K17*%
X72110000Y-28380000D02*
X77320000Y-28380000D01*
X77320000Y-33590000D01*
X72110000Y-33590000D01*
X72110000Y-28380000D01*
%TO.C,MH4*%
X78165000Y-116970000D02*
G75*
G02*
X71265000Y-116970000I-3450000J0D01*
G01*
X71265000Y-116970000D02*
G75*
G02*
X78165000Y-116970000I3450000J0D01*
G01*
%TO.C,K18*%
X72110000Y-35380000D02*
X77320000Y-35380000D01*
X77320000Y-40590000D01*
X72110000Y-40590000D01*
X72110000Y-35380000D01*
%TO.C,MH1*%
X20435000Y-15000000D02*
G75*
G02*
X13535000Y-15000000I-3450000J0D01*
G01*
X13535000Y-15000000D02*
G75*
G02*
X20435000Y-15000000I3450000J0D01*
G01*
%TD*%
M02*
