M48
; DRILL file KiCad 10.0.3 date 2026-06-22T23:38:34
; FORMAT={-:-/ absolute / metric / decimal}
; #@! TF.CreationDate,2026-06-22T23:38:34-04:00
; #@! TF.GenerationSoftware,Kicad,Pcbnew,10.0.3
; #@! TF.FileFunction,MixedPlating,1,4
FMAT,2
METRIC
; #@! TA.AperFunction,Plated,PTH,ViaDrill
T1C0.300
; #@! TA.AperFunction,NonPlated,NPTH,ComponentDrill
T2C1.020
; #@! TA.AperFunction,NonPlated,NPTH,ComponentDrill
T3C3.200
%
G90
G05
T1
X11.925Y-12.925
X11.925Y-145.615
X22.27Y-38.77
X22.27Y-56.77
X22.27Y-65.77
X22.27Y-74.77
X22.27Y-83.77
X22.27Y-92.77
X22.27Y-101.77
X22.27Y-119.77
X23.925Y-12.925
X23.925Y-145.615
X29.925Y-12.925
X29.925Y-145.615
X35.925Y-12.925
X35.925Y-145.615
X41.925Y-12.925
X41.925Y-145.615
X47.925Y-12.925
X47.925Y-145.615
X52.0Y-71.27
X52.0Y-72.87
X52.0Y-85.67
X52.0Y-87.27
X53.925Y-12.925
X53.925Y-145.615
X59.925Y-12.925
X59.925Y-145.615
X65.925Y-12.925
X65.925Y-145.615
X71.925Y-12.925
X71.925Y-145.615
X72.0Y-25.27
X72.0Y-34.27
X72.0Y-43.27
X72.0Y-52.27
X72.0Y-61.27
X72.0Y-70.27
X72.0Y-79.27
X72.0Y-88.27
X72.0Y-97.27
X72.0Y-106.27
X72.0Y-115.27
X72.0Y-124.27
X72.0Y-133.27
T2
X49.805Y-59.205
X49.805Y-99.335
T3
X18.27Y-15.0
X18.27Y-143.54
X76.0Y-15.0
X76.0Y-143.54
M30
