%TF.GenerationSoftware,KiCad,Pcbnew,10.0.3*%
%TF.CreationDate,2026-06-24T00:17:38-04:00*%
%TF.ProjectId,board-A-mcx,626f6172-642d-4412-9d6d-63782e6b6963,rev?*%
%TF.SameCoordinates,Original*%
%TF.FileFunction,Legend,Top*%
%TF.FilePolarity,Positive*%
%FSLAX46Y46*%
G04 Gerber Fmt 4.6, Leading zero omitted, Abs format (unit mm)*
G04 Created by KiCad (PCBNEW 10.0.3) date 2026-06-24 00:17:38*
%MOMM*%
%LPD*%
G01*
G04 APERTURE LIST*
%ADD10C,0.120000*%
%ADD11C,0.150000*%
G04 APERTURE END LIST*
D10*
X75483333Y-119987593D02*
X75483333Y-119287593D01*
X75883333Y-119987593D02*
X75583333Y-119587593D01*
X75883333Y-119287593D02*
X75483333Y-119687593D01*
X76483333Y-119287593D02*
X76350000Y-119287593D01*
X76350000Y-119287593D02*
X76283333Y-119320926D01*
X76283333Y-119320926D02*
X76250000Y-119354260D01*
X76250000Y-119354260D02*
X76183333Y-119454260D01*
X76183333Y-119454260D02*
X76150000Y-119587593D01*
X76150000Y-119587593D02*
X76150000Y-119854260D01*
X76150000Y-119854260D02*
X76183333Y-119920926D01*
X76183333Y-119920926D02*
X76216667Y-119954260D01*
X76216667Y-119954260D02*
X76283333Y-119987593D01*
X76283333Y-119987593D02*
X76416667Y-119987593D01*
X76416667Y-119987593D02*
X76483333Y-119954260D01*
X76483333Y-119954260D02*
X76516667Y-119920926D01*
X76516667Y-119920926D02*
X76550000Y-119854260D01*
X76550000Y-119854260D02*
X76550000Y-119687593D01*
X76550000Y-119687593D02*
X76516667Y-119620926D01*
X76516667Y-119620926D02*
X76483333Y-119587593D01*
X76483333Y-119587593D02*
X76416667Y-119554260D01*
X76416667Y-119554260D02*
X76283333Y-119554260D01*
X76283333Y-119554260D02*
X76216667Y-119587593D01*
X76216667Y-119587593D02*
X76183333Y-119620926D01*
X76183333Y-119620926D02*
X76150000Y-119687593D01*
X17753333Y-124687593D02*
X17753333Y-123987593D01*
X18153333Y-124687593D02*
X17853333Y-124287593D01*
X18153333Y-123987593D02*
X17753333Y-124387593D01*
X18553333Y-124287593D02*
X18486667Y-124254260D01*
X18486667Y-124254260D02*
X18453333Y-124220926D01*
X18453333Y-124220926D02*
X18420000Y-124154260D01*
X18420000Y-124154260D02*
X18420000Y-124120926D01*
X18420000Y-124120926D02*
X18453333Y-124054260D01*
X18453333Y-124054260D02*
X18486667Y-124020926D01*
X18486667Y-124020926D02*
X18553333Y-123987593D01*
X18553333Y-123987593D02*
X18686667Y-123987593D01*
X18686667Y-123987593D02*
X18753333Y-124020926D01*
X18753333Y-124020926D02*
X18786667Y-124054260D01*
X18786667Y-124054260D02*
X18820000Y-124120926D01*
X18820000Y-124120926D02*
X18820000Y-124154260D01*
X18820000Y-124154260D02*
X18786667Y-124220926D01*
X18786667Y-124220926D02*
X18753333Y-124254260D01*
X18753333Y-124254260D02*
X18686667Y-124287593D01*
X18686667Y-124287593D02*
X18553333Y-124287593D01*
X18553333Y-124287593D02*
X18486667Y-124320926D01*
X18486667Y-124320926D02*
X18453333Y-124354260D01*
X18453333Y-124354260D02*
X18420000Y-124420926D01*
X18420000Y-124420926D02*
X18420000Y-124554260D01*
X18420000Y-124554260D02*
X18453333Y-124620926D01*
X18453333Y-124620926D02*
X18486667Y-124654260D01*
X18486667Y-124654260D02*
X18553333Y-124687593D01*
X18553333Y-124687593D02*
X18686667Y-124687593D01*
X18686667Y-124687593D02*
X18753333Y-124654260D01*
X18753333Y-124654260D02*
X18786667Y-124620926D01*
X18786667Y-124620926D02*
X18820000Y-124554260D01*
X18820000Y-124554260D02*
X18820000Y-124420926D01*
X18820000Y-124420926D02*
X18786667Y-124354260D01*
X18786667Y-124354260D02*
X18753333Y-124320926D01*
X18753333Y-124320926D02*
X18686667Y-124287593D01*
X75483333Y-101987593D02*
X75483333Y-101287593D01*
X75883333Y-101987593D02*
X75583333Y-101587593D01*
X75883333Y-101287593D02*
X75483333Y-101687593D01*
X76483333Y-101520926D02*
X76483333Y-101987593D01*
X76316667Y-101254260D02*
X76150000Y-101754260D01*
X76150000Y-101754260D02*
X76583333Y-101754260D01*
X17419999Y-34687593D02*
X17419999Y-33987593D01*
X17819999Y-34687593D02*
X17519999Y-34287593D01*
X17819999Y-33987593D02*
X17419999Y-34387593D01*
X18086666Y-34054260D02*
X18119999Y-34020926D01*
X18119999Y-34020926D02*
X18186666Y-33987593D01*
X18186666Y-33987593D02*
X18353333Y-33987593D01*
X18353333Y-33987593D02*
X18419999Y-34020926D01*
X18419999Y-34020926D02*
X18453333Y-34054260D01*
X18453333Y-34054260D02*
X18486666Y-34120926D01*
X18486666Y-34120926D02*
X18486666Y-34187593D01*
X18486666Y-34187593D02*
X18453333Y-34287593D01*
X18453333Y-34287593D02*
X18053333Y-34687593D01*
X18053333Y-34687593D02*
X18486666Y-34687593D01*
X18753333Y-34054260D02*
X18786666Y-34020926D01*
X18786666Y-34020926D02*
X18853333Y-33987593D01*
X18853333Y-33987593D02*
X19020000Y-33987593D01*
X19020000Y-33987593D02*
X19086666Y-34020926D01*
X19086666Y-34020926D02*
X19120000Y-34054260D01*
X19120000Y-34054260D02*
X19153333Y-34120926D01*
X19153333Y-34120926D02*
X19153333Y-34187593D01*
X19153333Y-34187593D02*
X19120000Y-34287593D01*
X19120000Y-34287593D02*
X18720000Y-34687593D01*
X18720000Y-34687593D02*
X19153333Y-34687593D01*
D11*
X74666667Y-11304819D02*
X74666667Y-10304819D01*
X74666667Y-10304819D02*
X75000000Y-11019104D01*
X75000000Y-11019104D02*
X75333333Y-10304819D01*
X75333333Y-10304819D02*
X75333333Y-11304819D01*
X75809524Y-11304819D02*
X75809524Y-10304819D01*
X75809524Y-10781009D02*
X76380952Y-10781009D01*
X76380952Y-11304819D02*
X76380952Y-10304819D01*
X76809524Y-10400057D02*
X76857143Y-10352438D01*
X76857143Y-10352438D02*
X76952381Y-10304819D01*
X76952381Y-10304819D02*
X77190476Y-10304819D01*
X77190476Y-10304819D02*
X77285714Y-10352438D01*
X77285714Y-10352438D02*
X77333333Y-10400057D01*
X77333333Y-10400057D02*
X77380952Y-10495295D01*
X77380952Y-10495295D02*
X77380952Y-10590533D01*
X77380952Y-10590533D02*
X77333333Y-10733390D01*
X77333333Y-10733390D02*
X76761905Y-11304819D01*
X76761905Y-11304819D02*
X77380952Y-11304819D01*
X74666667Y-139844819D02*
X74666667Y-138844819D01*
X74666667Y-138844819D02*
X75000000Y-139559104D01*
X75000000Y-139559104D02*
X75333333Y-138844819D01*
X75333333Y-138844819D02*
X75333333Y-139844819D01*
X75809524Y-139844819D02*
X75809524Y-138844819D01*
X75809524Y-139321009D02*
X76380952Y-139321009D01*
X76380952Y-139844819D02*
X76380952Y-138844819D01*
X77285714Y-139178152D02*
X77285714Y-139844819D01*
X77047619Y-138797200D02*
X76809524Y-139511485D01*
X76809524Y-139511485D02*
X77428571Y-139511485D01*
D10*
X75149999Y-20987593D02*
X75149999Y-20287593D01*
X75549999Y-20987593D02*
X75249999Y-20587593D01*
X75549999Y-20287593D02*
X75149999Y-20687593D01*
X76216666Y-20987593D02*
X75816666Y-20987593D01*
X76016666Y-20987593D02*
X76016666Y-20287593D01*
X76016666Y-20287593D02*
X75949999Y-20387593D01*
X75949999Y-20387593D02*
X75883333Y-20454260D01*
X75883333Y-20454260D02*
X75816666Y-20487593D01*
X76816666Y-20287593D02*
X76683333Y-20287593D01*
X76683333Y-20287593D02*
X76616666Y-20320926D01*
X76616666Y-20320926D02*
X76583333Y-20354260D01*
X76583333Y-20354260D02*
X76516666Y-20454260D01*
X76516666Y-20454260D02*
X76483333Y-20587593D01*
X76483333Y-20587593D02*
X76483333Y-20854260D01*
X76483333Y-20854260D02*
X76516666Y-20920926D01*
X76516666Y-20920926D02*
X76550000Y-20954260D01*
X76550000Y-20954260D02*
X76616666Y-20987593D01*
X76616666Y-20987593D02*
X76750000Y-20987593D01*
X76750000Y-20987593D02*
X76816666Y-20954260D01*
X76816666Y-20954260D02*
X76850000Y-20920926D01*
X76850000Y-20920926D02*
X76883333Y-20854260D01*
X76883333Y-20854260D02*
X76883333Y-20687593D01*
X76883333Y-20687593D02*
X76850000Y-20620926D01*
X76850000Y-20620926D02*
X76816666Y-20587593D01*
X76816666Y-20587593D02*
X76750000Y-20554260D01*
X76750000Y-20554260D02*
X76616666Y-20554260D01*
X76616666Y-20554260D02*
X76550000Y-20587593D01*
X76550000Y-20587593D02*
X76516666Y-20620926D01*
X76516666Y-20620926D02*
X76483333Y-20687593D01*
X17753333Y-106687593D02*
X17753333Y-105987593D01*
X18153333Y-106687593D02*
X17853333Y-106287593D01*
X18153333Y-105987593D02*
X17753333Y-106387593D01*
X18486667Y-106687593D02*
X18620000Y-106687593D01*
X18620000Y-106687593D02*
X18686667Y-106654260D01*
X18686667Y-106654260D02*
X18720000Y-106620926D01*
X18720000Y-106620926D02*
X18786667Y-106520926D01*
X18786667Y-106520926D02*
X18820000Y-106387593D01*
X18820000Y-106387593D02*
X18820000Y-106120926D01*
X18820000Y-106120926D02*
X18786667Y-106054260D01*
X18786667Y-106054260D02*
X18753333Y-106020926D01*
X18753333Y-106020926D02*
X18686667Y-105987593D01*
X18686667Y-105987593D02*
X18553333Y-105987593D01*
X18553333Y-105987593D02*
X18486667Y-106020926D01*
X18486667Y-106020926D02*
X18453333Y-106054260D01*
X18453333Y-106054260D02*
X18420000Y-106120926D01*
X18420000Y-106120926D02*
X18420000Y-106287593D01*
X18420000Y-106287593D02*
X18453333Y-106354260D01*
X18453333Y-106354260D02*
X18486667Y-106387593D01*
X18486667Y-106387593D02*
X18553333Y-106420926D01*
X18553333Y-106420926D02*
X18686667Y-106420926D01*
X18686667Y-106420926D02*
X18753333Y-106387593D01*
X18753333Y-106387593D02*
X18786667Y-106354260D01*
X18786667Y-106354260D02*
X18820000Y-106287593D01*
X75483333Y-92987593D02*
X75483333Y-92287593D01*
X75883333Y-92987593D02*
X75583333Y-92587593D01*
X75883333Y-92287593D02*
X75483333Y-92687593D01*
X76116667Y-92287593D02*
X76550000Y-92287593D01*
X76550000Y-92287593D02*
X76316667Y-92554260D01*
X76316667Y-92554260D02*
X76416667Y-92554260D01*
X76416667Y-92554260D02*
X76483333Y-92587593D01*
X76483333Y-92587593D02*
X76516667Y-92620926D01*
X76516667Y-92620926D02*
X76550000Y-92687593D01*
X76550000Y-92687593D02*
X76550000Y-92854260D01*
X76550000Y-92854260D02*
X76516667Y-92920926D01*
X76516667Y-92920926D02*
X76483333Y-92954260D01*
X76483333Y-92954260D02*
X76416667Y-92987593D01*
X76416667Y-92987593D02*
X76216667Y-92987593D01*
X76216667Y-92987593D02*
X76150000Y-92954260D01*
X76150000Y-92954260D02*
X76116667Y-92920926D01*
X75149999Y-47987593D02*
X75149999Y-47287593D01*
X75549999Y-47987593D02*
X75249999Y-47587593D01*
X75549999Y-47287593D02*
X75149999Y-47687593D01*
X76216666Y-47987593D02*
X75816666Y-47987593D01*
X76016666Y-47987593D02*
X76016666Y-47287593D01*
X76016666Y-47287593D02*
X75949999Y-47387593D01*
X75949999Y-47387593D02*
X75883333Y-47454260D01*
X75883333Y-47454260D02*
X75816666Y-47487593D01*
X76550000Y-47987593D02*
X76683333Y-47987593D01*
X76683333Y-47987593D02*
X76750000Y-47954260D01*
X76750000Y-47954260D02*
X76783333Y-47920926D01*
X76783333Y-47920926D02*
X76850000Y-47820926D01*
X76850000Y-47820926D02*
X76883333Y-47687593D01*
X76883333Y-47687593D02*
X76883333Y-47420926D01*
X76883333Y-47420926D02*
X76850000Y-47354260D01*
X76850000Y-47354260D02*
X76816666Y-47320926D01*
X76816666Y-47320926D02*
X76750000Y-47287593D01*
X76750000Y-47287593D02*
X76616666Y-47287593D01*
X76616666Y-47287593D02*
X76550000Y-47320926D01*
X76550000Y-47320926D02*
X76516666Y-47354260D01*
X76516666Y-47354260D02*
X76483333Y-47420926D01*
X76483333Y-47420926D02*
X76483333Y-47587593D01*
X76483333Y-47587593D02*
X76516666Y-47654260D01*
X76516666Y-47654260D02*
X76550000Y-47687593D01*
X76550000Y-47687593D02*
X76616666Y-47720926D01*
X76616666Y-47720926D02*
X76750000Y-47720926D01*
X76750000Y-47720926D02*
X76816666Y-47687593D01*
X76816666Y-47687593D02*
X76850000Y-47654260D01*
X76850000Y-47654260D02*
X76883333Y-47587593D01*
X17419999Y-79687593D02*
X17419999Y-78987593D01*
X17819999Y-79687593D02*
X17519999Y-79287593D01*
X17819999Y-78987593D02*
X17419999Y-79387593D01*
X18486666Y-79687593D02*
X18086666Y-79687593D01*
X18286666Y-79687593D02*
X18286666Y-78987593D01*
X18286666Y-78987593D02*
X18219999Y-79087593D01*
X18219999Y-79087593D02*
X18153333Y-79154260D01*
X18153333Y-79154260D02*
X18086666Y-79187593D01*
X18753333Y-79054260D02*
X18786666Y-79020926D01*
X18786666Y-79020926D02*
X18853333Y-78987593D01*
X18853333Y-78987593D02*
X19020000Y-78987593D01*
X19020000Y-78987593D02*
X19086666Y-79020926D01*
X19086666Y-79020926D02*
X19120000Y-79054260D01*
X19120000Y-79054260D02*
X19153333Y-79120926D01*
X19153333Y-79120926D02*
X19153333Y-79187593D01*
X19153333Y-79187593D02*
X19120000Y-79287593D01*
X19120000Y-79287593D02*
X18720000Y-79687593D01*
X18720000Y-79687593D02*
X19153333Y-79687593D01*
X17419999Y-52687593D02*
X17419999Y-51987593D01*
X17819999Y-52687593D02*
X17519999Y-52287593D01*
X17819999Y-51987593D02*
X17419999Y-52387593D01*
X18086666Y-52054260D02*
X18119999Y-52020926D01*
X18119999Y-52020926D02*
X18186666Y-51987593D01*
X18186666Y-51987593D02*
X18353333Y-51987593D01*
X18353333Y-51987593D02*
X18419999Y-52020926D01*
X18419999Y-52020926D02*
X18453333Y-52054260D01*
X18453333Y-52054260D02*
X18486666Y-52120926D01*
X18486666Y-52120926D02*
X18486666Y-52187593D01*
X18486666Y-52187593D02*
X18453333Y-52287593D01*
X18453333Y-52287593D02*
X18053333Y-52687593D01*
X18053333Y-52687593D02*
X18486666Y-52687593D01*
X18720000Y-51987593D02*
X19153333Y-51987593D01*
X19153333Y-51987593D02*
X18920000Y-52254260D01*
X18920000Y-52254260D02*
X19020000Y-52254260D01*
X19020000Y-52254260D02*
X19086666Y-52287593D01*
X19086666Y-52287593D02*
X19120000Y-52320926D01*
X19120000Y-52320926D02*
X19153333Y-52387593D01*
X19153333Y-52387593D02*
X19153333Y-52554260D01*
X19153333Y-52554260D02*
X19120000Y-52620926D01*
X19120000Y-52620926D02*
X19086666Y-52654260D01*
X19086666Y-52654260D02*
X19020000Y-52687593D01*
X19020000Y-52687593D02*
X18820000Y-52687593D01*
X18820000Y-52687593D02*
X18753333Y-52654260D01*
X18753333Y-52654260D02*
X18720000Y-52620926D01*
X75483333Y-83987593D02*
X75483333Y-83287593D01*
X75883333Y-83987593D02*
X75583333Y-83587593D01*
X75883333Y-83287593D02*
X75483333Y-83687593D01*
X76150000Y-83354260D02*
X76183333Y-83320926D01*
X76183333Y-83320926D02*
X76250000Y-83287593D01*
X76250000Y-83287593D02*
X76416667Y-83287593D01*
X76416667Y-83287593D02*
X76483333Y-83320926D01*
X76483333Y-83320926D02*
X76516667Y-83354260D01*
X76516667Y-83354260D02*
X76550000Y-83420926D01*
X76550000Y-83420926D02*
X76550000Y-83487593D01*
X76550000Y-83487593D02*
X76516667Y-83587593D01*
X76516667Y-83587593D02*
X76116667Y-83987593D01*
X76116667Y-83987593D02*
X76550000Y-83987593D01*
X75700000Y-74987593D02*
X75700000Y-74287593D01*
X75933333Y-74287593D02*
X76166667Y-74987593D01*
X76166667Y-74987593D02*
X76400000Y-74287593D01*
D11*
X16936667Y-139844819D02*
X16936667Y-138844819D01*
X16936667Y-138844819D02*
X17270000Y-139559104D01*
X17270000Y-139559104D02*
X17603333Y-138844819D01*
X17603333Y-138844819D02*
X17603333Y-139844819D01*
X18079524Y-139844819D02*
X18079524Y-138844819D01*
X18079524Y-139321009D02*
X18650952Y-139321009D01*
X18650952Y-139844819D02*
X18650952Y-138844819D01*
X19031905Y-138844819D02*
X19650952Y-138844819D01*
X19650952Y-138844819D02*
X19317619Y-139225771D01*
X19317619Y-139225771D02*
X19460476Y-139225771D01*
X19460476Y-139225771D02*
X19555714Y-139273390D01*
X19555714Y-139273390D02*
X19603333Y-139321009D01*
X19603333Y-139321009D02*
X19650952Y-139416247D01*
X19650952Y-139416247D02*
X19650952Y-139654342D01*
X19650952Y-139654342D02*
X19603333Y-139749580D01*
X19603333Y-139749580D02*
X19555714Y-139797200D01*
X19555714Y-139797200D02*
X19460476Y-139844819D01*
X19460476Y-139844819D02*
X19174762Y-139844819D01*
X19174762Y-139844819D02*
X19079524Y-139797200D01*
X19079524Y-139797200D02*
X19031905Y-139749580D01*
D10*
X17419999Y-88687593D02*
X17419999Y-87987593D01*
X17819999Y-88687593D02*
X17519999Y-88287593D01*
X17819999Y-87987593D02*
X17419999Y-88387593D01*
X18486666Y-88687593D02*
X18086666Y-88687593D01*
X18286666Y-88687593D02*
X18286666Y-87987593D01*
X18286666Y-87987593D02*
X18219999Y-88087593D01*
X18219999Y-88087593D02*
X18153333Y-88154260D01*
X18153333Y-88154260D02*
X18086666Y-88187593D01*
X19153333Y-88687593D02*
X18753333Y-88687593D01*
X18953333Y-88687593D02*
X18953333Y-87987593D01*
X18953333Y-87987593D02*
X18886666Y-88087593D01*
X18886666Y-88087593D02*
X18820000Y-88154260D01*
X18820000Y-88154260D02*
X18753333Y-88187593D01*
X75483333Y-128987593D02*
X75483333Y-128287593D01*
X75883333Y-128987593D02*
X75583333Y-128587593D01*
X75883333Y-128287593D02*
X75483333Y-128687593D01*
X76116667Y-128287593D02*
X76583333Y-128287593D01*
X76583333Y-128287593D02*
X76283333Y-128987593D01*
X17419999Y-61687593D02*
X17419999Y-60987593D01*
X17819999Y-61687593D02*
X17519999Y-61287593D01*
X17819999Y-60987593D02*
X17419999Y-61387593D01*
X18486666Y-61687593D02*
X18086666Y-61687593D01*
X18286666Y-61687593D02*
X18286666Y-60987593D01*
X18286666Y-60987593D02*
X18219999Y-61087593D01*
X18219999Y-61087593D02*
X18153333Y-61154260D01*
X18153333Y-61154260D02*
X18086666Y-61187593D01*
X19086666Y-61220926D02*
X19086666Y-61687593D01*
X18920000Y-60954260D02*
X18753333Y-61454260D01*
X18753333Y-61454260D02*
X19186666Y-61454260D01*
D11*
X16936667Y-11304819D02*
X16936667Y-10304819D01*
X16936667Y-10304819D02*
X17270000Y-11019104D01*
X17270000Y-11019104D02*
X17603333Y-10304819D01*
X17603333Y-10304819D02*
X17603333Y-11304819D01*
X18079524Y-11304819D02*
X18079524Y-10304819D01*
X18079524Y-10781009D02*
X18650952Y-10781009D01*
X18650952Y-11304819D02*
X18650952Y-10304819D01*
X19650952Y-11304819D02*
X19079524Y-11304819D01*
X19365238Y-11304819D02*
X19365238Y-10304819D01*
X19365238Y-10304819D02*
X19270000Y-10447676D01*
X19270000Y-10447676D02*
X19174762Y-10542914D01*
X19174762Y-10542914D02*
X19079524Y-10590533D01*
D10*
X17419999Y-97687593D02*
X17419999Y-96987593D01*
X17819999Y-97687593D02*
X17519999Y-97287593D01*
X17819999Y-96987593D02*
X17419999Y-97387593D01*
X18486666Y-97687593D02*
X18086666Y-97687593D01*
X18286666Y-97687593D02*
X18286666Y-96987593D01*
X18286666Y-96987593D02*
X18219999Y-97087593D01*
X18219999Y-97087593D02*
X18153333Y-97154260D01*
X18153333Y-97154260D02*
X18086666Y-97187593D01*
X18920000Y-96987593D02*
X18986666Y-96987593D01*
X18986666Y-96987593D02*
X19053333Y-97020926D01*
X19053333Y-97020926D02*
X19086666Y-97054260D01*
X19086666Y-97054260D02*
X19120000Y-97120926D01*
X19120000Y-97120926D02*
X19153333Y-97254260D01*
X19153333Y-97254260D02*
X19153333Y-97420926D01*
X19153333Y-97420926D02*
X19120000Y-97554260D01*
X19120000Y-97554260D02*
X19086666Y-97620926D01*
X19086666Y-97620926D02*
X19053333Y-97654260D01*
X19053333Y-97654260D02*
X18986666Y-97687593D01*
X18986666Y-97687593D02*
X18920000Y-97687593D01*
X18920000Y-97687593D02*
X18853333Y-97654260D01*
X18853333Y-97654260D02*
X18820000Y-97620926D01*
X18820000Y-97620926D02*
X18786666Y-97554260D01*
X18786666Y-97554260D02*
X18753333Y-97420926D01*
X18753333Y-97420926D02*
X18753333Y-97254260D01*
X18753333Y-97254260D02*
X18786666Y-97120926D01*
X18786666Y-97120926D02*
X18820000Y-97054260D01*
X18820000Y-97054260D02*
X18853333Y-97020926D01*
X18853333Y-97020926D02*
X18920000Y-96987593D01*
X17419999Y-70687593D02*
X17419999Y-69987593D01*
X17819999Y-70687593D02*
X17519999Y-70287593D01*
X17819999Y-69987593D02*
X17419999Y-70387593D01*
X18486666Y-70687593D02*
X18086666Y-70687593D01*
X18286666Y-70687593D02*
X18286666Y-69987593D01*
X18286666Y-69987593D02*
X18219999Y-70087593D01*
X18219999Y-70087593D02*
X18153333Y-70154260D01*
X18153333Y-70154260D02*
X18086666Y-70187593D01*
X18720000Y-69987593D02*
X19153333Y-69987593D01*
X19153333Y-69987593D02*
X18920000Y-70254260D01*
X18920000Y-70254260D02*
X19020000Y-70254260D01*
X19020000Y-70254260D02*
X19086666Y-70287593D01*
X19086666Y-70287593D02*
X19120000Y-70320926D01*
X19120000Y-70320926D02*
X19153333Y-70387593D01*
X19153333Y-70387593D02*
X19153333Y-70554260D01*
X19153333Y-70554260D02*
X19120000Y-70620926D01*
X19120000Y-70620926D02*
X19086666Y-70654260D01*
X19086666Y-70654260D02*
X19020000Y-70687593D01*
X19020000Y-70687593D02*
X18820000Y-70687593D01*
X18820000Y-70687593D02*
X18753333Y-70654260D01*
X18753333Y-70654260D02*
X18720000Y-70620926D01*
X75483333Y-110987593D02*
X75483333Y-110287593D01*
X75883333Y-110987593D02*
X75583333Y-110587593D01*
X75883333Y-110287593D02*
X75483333Y-110687593D01*
X76516667Y-110287593D02*
X76183333Y-110287593D01*
X76183333Y-110287593D02*
X76150000Y-110620926D01*
X76150000Y-110620926D02*
X76183333Y-110587593D01*
X76183333Y-110587593D02*
X76250000Y-110554260D01*
X76250000Y-110554260D02*
X76416667Y-110554260D01*
X76416667Y-110554260D02*
X76483333Y-110587593D01*
X76483333Y-110587593D02*
X76516667Y-110620926D01*
X76516667Y-110620926D02*
X76550000Y-110687593D01*
X76550000Y-110687593D02*
X76550000Y-110854260D01*
X76550000Y-110854260D02*
X76516667Y-110920926D01*
X76516667Y-110920926D02*
X76483333Y-110954260D01*
X76483333Y-110954260D02*
X76416667Y-110987593D01*
X76416667Y-110987593D02*
X76250000Y-110987593D01*
X76250000Y-110987593D02*
X76183333Y-110954260D01*
X76183333Y-110954260D02*
X76150000Y-110920926D01*
X17419999Y-43687593D02*
X17419999Y-42987593D01*
X17819999Y-43687593D02*
X17519999Y-43287593D01*
X17819999Y-42987593D02*
X17419999Y-43387593D01*
X18486666Y-43687593D02*
X18086666Y-43687593D01*
X18286666Y-43687593D02*
X18286666Y-42987593D01*
X18286666Y-42987593D02*
X18219999Y-43087593D01*
X18219999Y-43087593D02*
X18153333Y-43154260D01*
X18153333Y-43154260D02*
X18086666Y-43187593D01*
X19120000Y-42987593D02*
X18786666Y-42987593D01*
X18786666Y-42987593D02*
X18753333Y-43320926D01*
X18753333Y-43320926D02*
X18786666Y-43287593D01*
X18786666Y-43287593D02*
X18853333Y-43254260D01*
X18853333Y-43254260D02*
X19020000Y-43254260D01*
X19020000Y-43254260D02*
X19086666Y-43287593D01*
X19086666Y-43287593D02*
X19120000Y-43320926D01*
X19120000Y-43320926D02*
X19153333Y-43387593D01*
X19153333Y-43387593D02*
X19153333Y-43554260D01*
X19153333Y-43554260D02*
X19120000Y-43620926D01*
X19120000Y-43620926D02*
X19086666Y-43654260D01*
X19086666Y-43654260D02*
X19020000Y-43687593D01*
X19020000Y-43687593D02*
X18853333Y-43687593D01*
X18853333Y-43687593D02*
X18786666Y-43654260D01*
X18786666Y-43654260D02*
X18753333Y-43620926D01*
X75149999Y-38987593D02*
X75149999Y-38287593D01*
X75549999Y-38987593D02*
X75249999Y-38587593D01*
X75549999Y-38287593D02*
X75149999Y-38687593D01*
X76216666Y-38987593D02*
X75816666Y-38987593D01*
X76016666Y-38987593D02*
X76016666Y-38287593D01*
X76016666Y-38287593D02*
X75949999Y-38387593D01*
X75949999Y-38387593D02*
X75883333Y-38454260D01*
X75883333Y-38454260D02*
X75816666Y-38487593D01*
X76616666Y-38587593D02*
X76550000Y-38554260D01*
X76550000Y-38554260D02*
X76516666Y-38520926D01*
X76516666Y-38520926D02*
X76483333Y-38454260D01*
X76483333Y-38454260D02*
X76483333Y-38420926D01*
X76483333Y-38420926D02*
X76516666Y-38354260D01*
X76516666Y-38354260D02*
X76550000Y-38320926D01*
X76550000Y-38320926D02*
X76616666Y-38287593D01*
X76616666Y-38287593D02*
X76750000Y-38287593D01*
X76750000Y-38287593D02*
X76816666Y-38320926D01*
X76816666Y-38320926D02*
X76850000Y-38354260D01*
X76850000Y-38354260D02*
X76883333Y-38420926D01*
X76883333Y-38420926D02*
X76883333Y-38454260D01*
X76883333Y-38454260D02*
X76850000Y-38520926D01*
X76850000Y-38520926D02*
X76816666Y-38554260D01*
X76816666Y-38554260D02*
X76750000Y-38587593D01*
X76750000Y-38587593D02*
X76616666Y-38587593D01*
X76616666Y-38587593D02*
X76550000Y-38620926D01*
X76550000Y-38620926D02*
X76516666Y-38654260D01*
X76516666Y-38654260D02*
X76483333Y-38720926D01*
X76483333Y-38720926D02*
X76483333Y-38854260D01*
X76483333Y-38854260D02*
X76516666Y-38920926D01*
X76516666Y-38920926D02*
X76550000Y-38954260D01*
X76550000Y-38954260D02*
X76616666Y-38987593D01*
X76616666Y-38987593D02*
X76750000Y-38987593D01*
X76750000Y-38987593D02*
X76816666Y-38954260D01*
X76816666Y-38954260D02*
X76850000Y-38920926D01*
X76850000Y-38920926D02*
X76883333Y-38854260D01*
X76883333Y-38854260D02*
X76883333Y-38720926D01*
X76883333Y-38720926D02*
X76850000Y-38654260D01*
X76850000Y-38654260D02*
X76816666Y-38620926D01*
X76816666Y-38620926D02*
X76750000Y-38587593D01*
X75149999Y-65987593D02*
X75149999Y-65287593D01*
X75549999Y-65987593D02*
X75249999Y-65587593D01*
X75549999Y-65287593D02*
X75149999Y-65687593D01*
X75816666Y-65354260D02*
X75849999Y-65320926D01*
X75849999Y-65320926D02*
X75916666Y-65287593D01*
X75916666Y-65287593D02*
X76083333Y-65287593D01*
X76083333Y-65287593D02*
X76149999Y-65320926D01*
X76149999Y-65320926D02*
X76183333Y-65354260D01*
X76183333Y-65354260D02*
X76216666Y-65420926D01*
X76216666Y-65420926D02*
X76216666Y-65487593D01*
X76216666Y-65487593D02*
X76183333Y-65587593D01*
X76183333Y-65587593D02*
X75783333Y-65987593D01*
X75783333Y-65987593D02*
X76216666Y-65987593D01*
X76883333Y-65987593D02*
X76483333Y-65987593D01*
X76683333Y-65987593D02*
X76683333Y-65287593D01*
X76683333Y-65287593D02*
X76616666Y-65387593D01*
X76616666Y-65387593D02*
X76550000Y-65454260D01*
X76550000Y-65454260D02*
X76483333Y-65487593D01*
X17753333Y-133687593D02*
X17753333Y-132987593D01*
X18153333Y-133687593D02*
X17853333Y-133287593D01*
X18153333Y-132987593D02*
X17753333Y-133387593D01*
X18820000Y-133687593D02*
X18420000Y-133687593D01*
X18620000Y-133687593D02*
X18620000Y-132987593D01*
X18620000Y-132987593D02*
X18553333Y-133087593D01*
X18553333Y-133087593D02*
X18486667Y-133154260D01*
X18486667Y-133154260D02*
X18420000Y-133187593D01*
X17753333Y-115687593D02*
X17753333Y-114987593D01*
X18153333Y-115687593D02*
X17853333Y-115287593D01*
X18153333Y-114987593D02*
X17753333Y-115387593D01*
X18586667Y-114987593D02*
X18653333Y-114987593D01*
X18653333Y-114987593D02*
X18720000Y-115020926D01*
X18720000Y-115020926D02*
X18753333Y-115054260D01*
X18753333Y-115054260D02*
X18786667Y-115120926D01*
X18786667Y-115120926D02*
X18820000Y-115254260D01*
X18820000Y-115254260D02*
X18820000Y-115420926D01*
X18820000Y-115420926D02*
X18786667Y-115554260D01*
X18786667Y-115554260D02*
X18753333Y-115620926D01*
X18753333Y-115620926D02*
X18720000Y-115654260D01*
X18720000Y-115654260D02*
X18653333Y-115687593D01*
X18653333Y-115687593D02*
X18586667Y-115687593D01*
X18586667Y-115687593D02*
X18520000Y-115654260D01*
X18520000Y-115654260D02*
X18486667Y-115620926D01*
X18486667Y-115620926D02*
X18453333Y-115554260D01*
X18453333Y-115554260D02*
X18420000Y-115420926D01*
X18420000Y-115420926D02*
X18420000Y-115254260D01*
X18420000Y-115254260D02*
X18453333Y-115120926D01*
X18453333Y-115120926D02*
X18486667Y-115054260D01*
X18486667Y-115054260D02*
X18520000Y-115020926D01*
X18520000Y-115020926D02*
X18586667Y-114987593D01*
X75149999Y-29987593D02*
X75149999Y-29287593D01*
X75549999Y-29987593D02*
X75249999Y-29587593D01*
X75549999Y-29287593D02*
X75149999Y-29687593D01*
X76216666Y-29987593D02*
X75816666Y-29987593D01*
X76016666Y-29987593D02*
X76016666Y-29287593D01*
X76016666Y-29287593D02*
X75949999Y-29387593D01*
X75949999Y-29387593D02*
X75883333Y-29454260D01*
X75883333Y-29454260D02*
X75816666Y-29487593D01*
X76450000Y-29287593D02*
X76916666Y-29287593D01*
X76916666Y-29287593D02*
X76616666Y-29987593D01*
X75149999Y-56987593D02*
X75149999Y-56287593D01*
X75549999Y-56987593D02*
X75249999Y-56587593D01*
X75549999Y-56287593D02*
X75149999Y-56687593D01*
X75816666Y-56354260D02*
X75849999Y-56320926D01*
X75849999Y-56320926D02*
X75916666Y-56287593D01*
X75916666Y-56287593D02*
X76083333Y-56287593D01*
X76083333Y-56287593D02*
X76149999Y-56320926D01*
X76149999Y-56320926D02*
X76183333Y-56354260D01*
X76183333Y-56354260D02*
X76216666Y-56420926D01*
X76216666Y-56420926D02*
X76216666Y-56487593D01*
X76216666Y-56487593D02*
X76183333Y-56587593D01*
X76183333Y-56587593D02*
X75783333Y-56987593D01*
X75783333Y-56987593D02*
X76216666Y-56987593D01*
X76650000Y-56287593D02*
X76716666Y-56287593D01*
X76716666Y-56287593D02*
X76783333Y-56320926D01*
X76783333Y-56320926D02*
X76816666Y-56354260D01*
X76816666Y-56354260D02*
X76850000Y-56420926D01*
X76850000Y-56420926D02*
X76883333Y-56554260D01*
X76883333Y-56554260D02*
X76883333Y-56720926D01*
X76883333Y-56720926D02*
X76850000Y-56854260D01*
X76850000Y-56854260D02*
X76816666Y-56920926D01*
X76816666Y-56920926D02*
X76783333Y-56954260D01*
X76783333Y-56954260D02*
X76716666Y-56987593D01*
X76716666Y-56987593D02*
X76650000Y-56987593D01*
X76650000Y-56987593D02*
X76583333Y-56954260D01*
X76583333Y-56954260D02*
X76550000Y-56920926D01*
X76550000Y-56920926D02*
X76516666Y-56854260D01*
X76516666Y-56854260D02*
X76483333Y-56720926D01*
X76483333Y-56720926D02*
X76483333Y-56554260D01*
X76483333Y-56554260D02*
X76516666Y-56420926D01*
X76516666Y-56420926D02*
X76550000Y-56354260D01*
X76550000Y-56354260D02*
X76583333Y-56320926D01*
X76583333Y-56320926D02*
X76650000Y-56287593D01*
M02*
