%TF.GenerationSoftware,KiCad,Pcbnew,10.0.3*%
%TF.CreationDate,2026-06-24T00:17:38-04:00*%
%TF.ProjectId,board-A-mcx,626f6172-642d-4412-9d6d-63782e6b6963,rev?*%
%TF.SameCoordinates,Original*%
%TF.FileFunction,Soldermask,Bot*%
%TF.FilePolarity,Negative*%
%FSLAX46Y46*%
G04 Gerber Fmt 4.6, Leading zero omitted, Abs format (unit mm)*
G04 Created by KiCad (PCBNEW 10.0.3) date 2026-06-24 00:17:38*
%MOMM*%
%LPD*%
G01*
G04 APERTURE LIST*
G04 Aperture macros list*
%AMRoundRect*
0 Rectangle with rounded corners*
0 $1 Rounding radius*
0 $2 $3 $4 $5 $6 $7 $8 $9 X,Y pos of 4 corners*
0 Add a 4 corners polygon primitive as box body*
4,1,4,$2,$3,$4,$5,$6,$7,$8,$9,$2,$3,0*
0 Add four circle primitives for the rounded corners*
1,1,$1+$1,$2,$3*
1,1,$1+$1,$4,$5*
1,1,$1+$1,$6,$7*
1,1,$1+$1,$8,$9*
0 Add four rect primitives between the rounded corners*
20,1,$1+$1,$2,$3,$4,$5,0*
20,1,$1+$1,$4,$5,$6,$7,0*
20,1,$1+$1,$6,$7,$8,$9,0*
20,1,$1+$1,$8,$9,$2,$3,0*%
G04 Aperture macros list end*
%ADD10C,3.200000*%
%ADD11C,1.020000*%
%ADD12RoundRect,0.102000X1.135000X-0.205000X1.135000X0.205000X-1.135000X0.205000X-1.135000X-0.205000X0*%
%ADD13RoundRect,0.102000X0.215000X-1.270000X0.215000X1.270000X-0.215000X1.270000X-0.215000X-1.270000X0*%
%ADD14RoundRect,0.102000X0.215000X-2.350000X0.215000X2.350000X-0.215000X2.350000X-0.215000X-2.350000X0*%
G04 APERTURE END LIST*
D10*
%TO.C,MH2*%
X76000000Y-15000000D03*
%TD*%
%TO.C,MH4*%
X76000000Y-143540000D03*
%TD*%
%TO.C,MH3*%
X18270000Y-143540000D03*
%TD*%
%TO.C,MH1*%
X18270000Y-15000000D03*
%TD*%
D11*
%TO.C,J5*%
X49805000Y-99335000D03*
X49805000Y-59205000D03*
D12*
X44270000Y-96870000D03*
X50000000Y-96870000D03*
X44270000Y-96070000D03*
X50000000Y-96070000D03*
X44270000Y-95270000D03*
X50000000Y-95270000D03*
X44270000Y-94470000D03*
X50000000Y-94470000D03*
X44270000Y-93670000D03*
X50000000Y-93670000D03*
X44270000Y-92870000D03*
X50000000Y-92870000D03*
X44270000Y-92070000D03*
X50000000Y-92070000D03*
X44270000Y-91270000D03*
X50000000Y-91270000D03*
X44270000Y-90470000D03*
X50000000Y-90470000D03*
X44270000Y-89670000D03*
X50000000Y-89670000D03*
X44270000Y-88870000D03*
X50000000Y-88870000D03*
X44270000Y-88070000D03*
X50000000Y-88070000D03*
X44270000Y-87270000D03*
X50000000Y-87270000D03*
X44270000Y-86470000D03*
X50000000Y-86470000D03*
X44270000Y-85670000D03*
X50000000Y-85670000D03*
X44270000Y-84870000D03*
X50000000Y-84870000D03*
X44270000Y-84070000D03*
X50000000Y-84070000D03*
X44270000Y-83270000D03*
X50000000Y-83270000D03*
X44270000Y-82470000D03*
X50000000Y-82470000D03*
X44270000Y-81670000D03*
X50000000Y-81670000D03*
X44270000Y-76870000D03*
X50000000Y-76870000D03*
X44270000Y-76070000D03*
X50000000Y-76070000D03*
X44270000Y-75270000D03*
X50000000Y-75270000D03*
X44270000Y-74470000D03*
X50000000Y-74470000D03*
X44270000Y-73670000D03*
X50000000Y-73670000D03*
X44270000Y-72870000D03*
X50000000Y-72870000D03*
X44270000Y-72070000D03*
X50000000Y-72070000D03*
X44270000Y-71270000D03*
X50000000Y-71270000D03*
X44270000Y-70470000D03*
X50000000Y-70470000D03*
X44270000Y-69670000D03*
X50000000Y-69670000D03*
X44270000Y-68870000D03*
X50000000Y-68870000D03*
X44270000Y-68070000D03*
X50000000Y-68070000D03*
X44270000Y-67270000D03*
X50000000Y-67270000D03*
X44270000Y-66470000D03*
X50000000Y-66470000D03*
X44270000Y-65670000D03*
X50000000Y-65670000D03*
X44270000Y-64870000D03*
X50000000Y-64870000D03*
X44270000Y-64070000D03*
X50000000Y-64070000D03*
X44270000Y-63270000D03*
X50000000Y-63270000D03*
X44270000Y-62470000D03*
X50000000Y-62470000D03*
X44270000Y-61670000D03*
X50000000Y-61670000D03*
D13*
X47135000Y-97335000D03*
D14*
X47135000Y-92445000D03*
X47135000Y-86095000D03*
D13*
X47135000Y-81205000D03*
X47135000Y-77335000D03*
D14*
X47135000Y-72445000D03*
X47135000Y-66095000D03*
D13*
X47135000Y-61205000D03*
%TD*%
M02*
