M48
; DRILL file KiCad 10.0.3 date 2026-07-18T12:11:48
; FORMAT={-:-/ absolute / metric / decimal}
; #@! TF.CreationDate,2026-07-18T12:11:48-04:00
; #@! TF.GenerationSoftware,Kicad,Pcbnew,10.0.3
; #@! TF.FileFunction,MixedPlating,1,4
FMAT,2
METRIC
; #@! TA.AperFunction,Plated,PTH,ViaDrill
T1C0.300
; #@! TA.AperFunction,Plated,PTH,ComponentDrill
T2C1.100
; #@! TA.AperFunction,Plated,PTH,ComponentDrill
T3C1.400
; #@! TA.AperFunction,NonPlated,NPTH,ComponentDrill
T4C1.020
; #@! TA.AperFunction,NonPlated,NPTH,ComponentDrill
T5C3.200
%
G90
G05
T1
X11.925Y-12.925
X11.925Y-17.925
X11.925Y-22.925
X11.925Y-27.925
X11.925Y-52.925
X11.925Y-67.925
X11.925Y-92.925
X11.925Y-107.925
X11.925Y-122.925
X11.925Y-127.925
X16.925Y-22.925
X16.925Y-122.925
X21.759Y-107.66
X21.775Y-112.94
X21.79Y-102.925
X21.79Y-117.925
X21.925Y-12.925
X21.925Y-17.925
X21.925Y-22.925
X21.925Y-122.925
X21.925Y-127.925
X26.894Y-107.66
X26.91Y-112.94
X26.92Y-32.92
X26.92Y-38.01
X26.925Y-12.925
X26.925Y-17.925
X26.925Y-22.925
X26.925Y-27.827
X26.925Y-42.925
X26.925Y-47.925
X26.925Y-52.925
X26.925Y-62.925
X26.925Y-67.925
X26.925Y-72.925
X26.925Y-82.925
X26.925Y-87.925
X26.925Y-92.925
X26.925Y-97.925
X26.925Y-102.925
X26.925Y-117.925
X26.925Y-122.925
X26.925Y-127.925
X31.844Y-107.66
X31.925Y-12.925
X31.925Y-17.925
X31.925Y-22.925
X31.925Y-27.827
X31.925Y-32.925
X31.925Y-37.96
X31.925Y-42.925
X31.925Y-47.925
X31.925Y-52.925
X31.925Y-57.925
X31.925Y-72.925
X31.925Y-77.925
X31.925Y-82.925
X31.925Y-87.925
X31.925Y-92.925
X31.925Y-97.925
X31.925Y-112.925
X31.925Y-117.925
X31.925Y-122.925
X31.925Y-127.925
X34.48Y-69.32
X34.53Y-67.7
X36.814Y-107.66
X36.925Y-12.925
X36.925Y-17.925
X36.925Y-22.925
X36.925Y-27.925
X36.925Y-47.925
X36.925Y-52.925
X36.925Y-57.925
X36.925Y-62.925
X36.925Y-72.925
X36.925Y-82.925
X36.925Y-87.925
X36.925Y-92.925
X36.925Y-112.925
X36.925Y-117.925
X36.925Y-122.925
X36.925Y-127.925
X36.93Y-32.95
X36.94Y-37.91
X36.94Y-42.98
X36.96Y-75.7
X36.96Y-77.35
X40.87Y-66.0
X40.93Y-67.8
X40.99Y-69.36
X41.37Y-75.733
X41.37Y-77.323
X41.38Y-78.95
X41.836Y-112.836
X41.84Y-42.93
X41.84Y-47.92
X41.925Y-12.925
X41.925Y-17.925
X41.925Y-22.925
X41.925Y-27.925
X41.925Y-32.925
X41.925Y-37.925
X41.925Y-52.925
X41.925Y-57.925
X41.925Y-62.925
X41.925Y-72.925
X41.925Y-82.925
X41.925Y-87.925
X41.925Y-92.92
X41.925Y-117.925
X41.925Y-122.925
X41.925Y-127.925
X42.033Y-102.591
X42.19Y-107.68
X46.7Y-107.72
X46.925Y-12.925
X46.925Y-17.925
X46.925Y-22.925
X46.925Y-27.925
X46.925Y-32.925
X46.925Y-37.925
X46.925Y-42.925
X46.925Y-47.925
X46.925Y-57.925
X46.925Y-62.925
X46.925Y-67.925
X46.925Y-72.925
X46.925Y-77.925
X46.925Y-82.925
X46.925Y-97.925
X46.925Y-112.925
X46.925Y-117.925
X46.925Y-122.925
X46.925Y-127.925
X47.76Y-53.56
X48.07Y-104.0
X48.52Y-91.35
X50.29Y-46.61
X51.43Y-88.39
X51.52Y-91.6
X51.77Y-50.72
X51.836Y-102.836
X51.903Y-107.84
X51.925Y-12.925
X51.925Y-17.925
X51.925Y-22.925
X51.925Y-27.925
X51.925Y-32.925
X51.925Y-37.925
X51.925Y-42.925
X51.925Y-67.925
X51.925Y-77.925
X51.925Y-97.925
X51.925Y-112.925
X51.925Y-117.925
X51.925Y-122.925
X51.925Y-127.925
X52.35Y-82.94
X52.38Y-81.35
X52.44Y-84.53
X52.52Y-56.85
X52.54Y-86.84
X53.28Y-58.75
X53.41Y-60.53
X53.47Y-62.27
X53.49Y-63.73
X53.53Y-65.41
X54.6Y-51.13
X55.03Y-92.2
X55.938Y-97.925
X55.938Y-102.925
X56.59Y-41.68
X56.925Y-12.925
X56.925Y-17.925
X56.925Y-22.925
X56.925Y-27.925
X56.925Y-32.925
X56.925Y-37.925
X56.925Y-67.925
X56.925Y-77.925
X56.925Y-107.925
X56.925Y-112.925
X56.925Y-117.925
X56.925Y-122.925
X56.925Y-127.925
X57.894Y-92.486
X57.974Y-86.876
X58.44Y-47.91
X58.73Y-90.11
X58.92Y-57.54
X60.38Y-51.43
X61.925Y-12.925
X61.925Y-17.925
X61.925Y-22.925
X61.925Y-27.925
X61.925Y-32.925
X61.925Y-42.925
X61.925Y-52.925
X61.925Y-62.925
X61.925Y-67.925
X61.925Y-77.925
X61.925Y-82.925
X61.925Y-87.925
X61.925Y-97.925
X61.925Y-102.925
X61.925Y-107.925
X61.925Y-112.925
X61.925Y-117.925
X61.925Y-122.925
X61.925Y-127.925
X62.974Y-91.876
X66.925Y-12.925
X66.925Y-17.925
X66.925Y-22.925
X66.925Y-27.925
X66.925Y-37.925
X66.925Y-47.925
X66.925Y-57.925
X66.925Y-62.925
X66.925Y-67.925
X66.925Y-77.925
X66.925Y-87.925
X66.925Y-92.925
X66.925Y-102.925
X66.925Y-107.925
X66.925Y-112.925
X66.925Y-117.925
X66.925Y-122.925
X66.925Y-127.925
X67.974Y-96.876
X71.925Y-12.925
X71.925Y-17.925
X71.925Y-127.925
T2
X17.54Y-28.54
X17.54Y-36.54
X17.54Y-44.54
X17.54Y-52.54
X17.54Y-60.54
X17.54Y-68.54
X17.54Y-76.54
X17.54Y-84.54
X17.54Y-92.54
X17.54Y-100.54
X17.54Y-108.54
X17.54Y-116.54
X75.27Y-24.54
X75.27Y-32.54
X75.27Y-40.54
X75.27Y-48.54
X75.27Y-56.54
X75.27Y-64.54
X75.27Y-72.54
X75.27Y-80.54
X75.27Y-88.54
X75.27Y-96.54
X75.27Y-104.54
X75.27Y-112.54
X75.27Y-120.54
T3
X15.0Y-26.0
X15.0Y-31.08
X15.0Y-34.0
X15.0Y-39.08
X15.0Y-42.0
X15.0Y-47.08
X15.0Y-50.0
X15.0Y-55.08
X15.0Y-58.0
X15.0Y-63.08
X15.0Y-66.0
X15.0Y-71.08
X15.0Y-74.0
X15.0Y-79.08
X15.0Y-82.0
X15.0Y-87.08
X15.0Y-90.0
X15.0Y-95.08
X15.0Y-98.0
X15.0Y-103.08
X15.0Y-106.0
X15.0Y-111.08
X15.0Y-114.0
X15.0Y-119.08
X20.08Y-26.0
X20.08Y-31.08
X20.08Y-34.0
X20.08Y-39.08
X20.08Y-42.0
X20.08Y-47.08
X20.08Y-50.0
X20.08Y-55.08
X20.08Y-58.0
X20.08Y-63.08
X20.08Y-66.0
X20.08Y-71.08
X20.08Y-74.0
X20.08Y-79.08
X20.08Y-82.0
X20.08Y-87.08
X20.08Y-90.0
X20.08Y-95.08
X20.08Y-98.0
X20.08Y-103.08
X20.08Y-106.0
X20.08Y-111.08
X20.08Y-114.0
X20.08Y-119.08
X72.73Y-22.0
X72.73Y-27.08
X72.73Y-30.0
X72.73Y-35.08
X72.73Y-38.0
X72.73Y-43.08
X72.73Y-46.0
X72.73Y-51.08
X72.73Y-54.0
X72.73Y-59.08
X72.73Y-62.0
X72.73Y-67.08
X72.73Y-70.0
X72.73Y-75.08
X72.73Y-78.0
X72.73Y-83.08
X72.73Y-86.0
X72.73Y-91.08
X72.73Y-94.0
X72.73Y-99.08
X72.73Y-102.0
X72.73Y-107.08
X72.73Y-110.0
X72.73Y-115.08
X72.73Y-118.0
X72.73Y-123.08
X77.81Y-22.0
X77.81Y-27.08
X77.81Y-30.0
X77.81Y-35.08
X77.81Y-38.0
X77.81Y-43.08
X77.81Y-46.0
X77.81Y-51.08
X77.81Y-54.0
X77.81Y-59.08
X77.81Y-62.0
X77.81Y-67.08
X77.81Y-70.0
X77.81Y-75.08
X77.81Y-78.0
X77.81Y-83.08
X77.81Y-86.0
X77.81Y-91.08
X77.81Y-94.0
X77.81Y-99.08
X77.81Y-102.0
X77.81Y-107.08
X77.81Y-110.0
X77.81Y-115.08
X77.81Y-118.0
X77.81Y-123.08
T4
X49.075Y-52.475
X49.075Y-92.605
T5
X17.54Y-15.0
X17.54Y-130.08
X75.27Y-15.0
X75.27Y-130.08
M30
