%TF.GenerationSoftware,KiCad,Pcbnew,10.0.3*%
%TF.CreationDate,2026-06-24T00:17:38-04:00*%
%TF.ProjectId,board-A-mcx,626f6172-642d-4412-9d6d-63782e6b6963,rev?*%
%TF.SameCoordinates,Original*%
%TF.FileFunction,Legend,Bot*%
%TF.FilePolarity,Positive*%
%FSLAX46Y46*%
G04 Gerber Fmt 4.6, Leading zero omitted, Abs format (unit mm)*
G04 Created by KiCad (PCBNEW 10.0.3) date 2026-06-24 00:17:38*
%MOMM*%
%LPD*%
G01*
G04 APERTURE LIST*
%ADD10C,0.150000*%
%ADD11C,0.200000*%
G04 APERTURE END LIST*
D10*
X52177819Y-96651666D02*
X52892104Y-96651666D01*
X52892104Y-96651666D02*
X53034961Y-96604047D01*
X53034961Y-96604047D02*
X53130200Y-96508809D01*
X53130200Y-96508809D02*
X53177819Y-96365952D01*
X53177819Y-96365952D02*
X53177819Y-96270714D01*
X52177819Y-97604047D02*
X52177819Y-97127857D01*
X52177819Y-97127857D02*
X52654009Y-97080238D01*
X52654009Y-97080238D02*
X52606390Y-97127857D01*
X52606390Y-97127857D02*
X52558771Y-97223095D01*
X52558771Y-97223095D02*
X52558771Y-97461190D01*
X52558771Y-97461190D02*
X52606390Y-97556428D01*
X52606390Y-97556428D02*
X52654009Y-97604047D01*
X52654009Y-97604047D02*
X52749247Y-97651666D01*
X52749247Y-97651666D02*
X52987342Y-97651666D01*
X52987342Y-97651666D02*
X53082580Y-97604047D01*
X53082580Y-97604047D02*
X53130200Y-97556428D01*
X53130200Y-97556428D02*
X53177819Y-97461190D01*
X53177819Y-97461190D02*
X53177819Y-97223095D01*
X53177819Y-97223095D02*
X53130200Y-97127857D01*
X53130200Y-97127857D02*
X53082580Y-97080238D01*
%TO.C,J5*%
D11*
X43515000Y-58630000D02*
X48935000Y-58630000D01*
X43515000Y-60770000D02*
X43515000Y-58630000D01*
X43515000Y-80770000D02*
X43515000Y-77770000D01*
X43515000Y-97670000D02*
X43515000Y-99910000D01*
X43515000Y-99910000D02*
X48935000Y-99910000D01*
X50755000Y-58630000D02*
X50755000Y-60770000D01*
X50755000Y-77770000D02*
X50755000Y-80770000D01*
X50755000Y-97670000D02*
X50755000Y-99910000D01*
X42535000Y-96870000D02*
G75*
G02*
X42335000Y-96870000I-100000J0D01*
G01*
X42335000Y-96870000D02*
G75*
G02*
X42535000Y-96870000I100000J0D01*
G01*
%TD*%
M02*
