%TF.GenerationSoftware,KiCad,Pcbnew,10.0.3*%
%TF.CreationDate,2026-06-22T23:38:34-04:00*%
%TF.ProjectId,board-A-mcx,626f6172-642d-4412-9d6d-63782e6b6963,rev?*%
%TF.SameCoordinates,Original*%
%TF.FileFunction,Copper,L4,Bot*%
%TF.FilePolarity,Positive*%
%FSLAX46Y46*%
G04 Gerber Fmt 4.6, Leading zero omitted, Abs format (unit mm)*
G04 Created by KiCad (PCBNEW 10.0.3) date 2026-06-22 23:38:34*
%MOMM*%
%LPD*%
G01*
G04 APERTURE LIST*
%TA.AperFunction,SMDPad,CuDef*%
%ADD10R,2.270000X0.410000*%
%TD*%
%TA.AperFunction,SMDPad,CuDef*%
%ADD11R,0.430000X2.540000*%
%TD*%
%TA.AperFunction,SMDPad,CuDef*%
%ADD12R,0.430000X4.700000*%
%TD*%
%TA.AperFunction,ViaPad*%
%ADD13C,0.600000*%
%TD*%
%TA.AperFunction,Conductor*%
%ADD14C,0.340000*%
%TD*%
G04 APERTURE END LIST*
D10*
%TO.P,J5,01*%
%TO.N,GNDA*%
X44270000Y-96870000D03*
%TO.P,J5,02*%
%TO.N,SIPM_K7*%
X50000000Y-96870000D03*
%TO.P,J5,03*%
%TO.N,GNDA*%
X44270000Y-96070000D03*
%TO.P,J5,04*%
X50000000Y-96070000D03*
%TO.P,J5,05*%
X44270000Y-95270000D03*
%TO.P,J5,06*%
%TO.N,SIPM_K6*%
X50000000Y-95270000D03*
%TO.P,J5,07*%
%TO.N,GNDA*%
X44270000Y-94470000D03*
%TO.P,J5,08*%
X50000000Y-94470000D03*
%TO.P,J5,09*%
X44270000Y-93670000D03*
%TO.P,J5,10*%
%TO.N,SIPM_K5*%
X50000000Y-93670000D03*
%TO.P,J5,11*%
%TO.N,GNDA*%
X44270000Y-92870000D03*
%TO.P,J5,12*%
X50000000Y-92870000D03*
%TO.P,J5,13*%
X44270000Y-92070000D03*
%TO.P,J5,14*%
%TO.N,SIPM_K4*%
X50000000Y-92070000D03*
%TO.P,J5,15*%
%TO.N,GNDA*%
X44270000Y-91270000D03*
%TO.P,J5,16*%
X50000000Y-91270000D03*
%TO.P,J5,17*%
X44270000Y-90470000D03*
%TO.P,J5,18*%
%TO.N,SIPM_K3*%
X50000000Y-90470000D03*
%TO.P,J5,19*%
%TO.N,GNDA*%
X44270000Y-89670000D03*
%TO.P,J5,20*%
X50000000Y-89670000D03*
%TO.P,J5,21*%
X44270000Y-88870000D03*
%TO.P,J5,22*%
%TO.N,SIPM_K2*%
X50000000Y-88870000D03*
%TO.P,J5,23*%
%TO.N,GNDA*%
X44270000Y-88070000D03*
%TO.P,J5,24*%
X50000000Y-88070000D03*
%TO.P,J5,25*%
X44270000Y-87270000D03*
%TO.P,J5,26*%
%TO.N,SIPM_K1*%
X50000000Y-87270000D03*
%TO.P,J5,27*%
%TO.N,SIPM_K8*%
X44270000Y-86470000D03*
%TO.P,J5,28*%
%TO.N,GNDA*%
X50000000Y-86470000D03*
%TO.P,J5,29*%
X44270000Y-85670000D03*
%TO.P,J5,30*%
%TO.N,SIPM_K0*%
X50000000Y-85670000D03*
%TO.P,J5,31*%
%TO.N,SIPM_K9*%
X44270000Y-84870000D03*
%TO.P,J5,32*%
%TO.N,GNDA*%
X50000000Y-84870000D03*
%TO.P,J5,33*%
X44270000Y-84070000D03*
%TO.P,J5,34*%
X50000000Y-84070000D03*
%TO.P,J5,35*%
%TO.N,SIPM_K10*%
X44270000Y-83270000D03*
%TO.P,J5,36*%
%TO.N,GNDA*%
X50000000Y-83270000D03*
%TO.P,J5,37*%
X44270000Y-82470000D03*
%TO.P,J5,38*%
X50000000Y-82470000D03*
%TO.P,J5,39*%
%TO.N,SIPM_K11*%
X44270000Y-81670000D03*
%TO.P,J5,40*%
%TO.N,IV*%
X50000000Y-81670000D03*
%TO.P,J5,41*%
%TO.N,SIPM_K12*%
X44270000Y-76870000D03*
%TO.P,J5,42*%
%TO.N,IV*%
X50000000Y-76870000D03*
%TO.P,J5,43*%
%TO.N,GNDA*%
X44270000Y-76070000D03*
%TO.P,J5,44*%
X50000000Y-76070000D03*
%TO.P,J5,45*%
%TO.N,SIPM_K13*%
X44270000Y-75270000D03*
%TO.P,J5,46*%
%TO.N,GNDA*%
X50000000Y-75270000D03*
%TO.P,J5,47*%
X44270000Y-74470000D03*
%TO.P,J5,48*%
X50000000Y-74470000D03*
%TO.P,J5,49*%
%TO.N,SIPM_K14*%
X44270000Y-73670000D03*
%TO.P,J5,50*%
%TO.N,GNDA*%
X50000000Y-73670000D03*
%TO.P,J5,51*%
X44270000Y-72870000D03*
%TO.P,J5,52*%
%TO.N,SIPM_K23*%
X50000000Y-72870000D03*
%TO.P,J5,53*%
%TO.N,SIPM_K15*%
X44270000Y-72070000D03*
%TO.P,J5,54*%
%TO.N,GNDA*%
X50000000Y-72070000D03*
%TO.P,J5,55*%
X44270000Y-71270000D03*
%TO.P,J5,56*%
%TO.N,SIPM_K22*%
X50000000Y-71270000D03*
%TO.P,J5,57*%
%TO.N,GNDA*%
X44270000Y-70470000D03*
%TO.P,J5,58*%
X50000000Y-70470000D03*
%TO.P,J5,59*%
X44270000Y-69670000D03*
%TO.P,J5,60*%
%TO.N,SIPM_K21*%
X50000000Y-69670000D03*
%TO.P,J5,61*%
%TO.N,GNDA*%
X44270000Y-68870000D03*
%TO.P,J5,62*%
X50000000Y-68870000D03*
%TO.P,J5,63*%
X44270000Y-68070000D03*
%TO.P,J5,64*%
%TO.N,SIPM_K20*%
X50000000Y-68070000D03*
%TO.P,J5,65*%
%TO.N,GNDA*%
X44270000Y-67270000D03*
%TO.P,J5,66*%
X50000000Y-67270000D03*
%TO.P,J5,67*%
X44270000Y-66470000D03*
%TO.P,J5,68*%
%TO.N,SIPM_K19*%
X50000000Y-66470000D03*
%TO.P,J5,69*%
%TO.N,GNDA*%
X44270000Y-65670000D03*
%TO.P,J5,70*%
X50000000Y-65670000D03*
%TO.P,J5,71*%
X44270000Y-64870000D03*
%TO.P,J5,72*%
%TO.N,SIPM_K18*%
X50000000Y-64870000D03*
%TO.P,J5,73*%
%TO.N,GNDA*%
X44270000Y-64070000D03*
%TO.P,J5,74*%
X50000000Y-64070000D03*
%TO.P,J5,75*%
X44270000Y-63270000D03*
%TO.P,J5,76*%
%TO.N,SIPM_K17*%
X50000000Y-63270000D03*
%TO.P,J5,77*%
%TO.N,THERM4*%
X44270000Y-62470000D03*
%TO.P,J5,78*%
%TO.N,GNDA*%
X50000000Y-62470000D03*
%TO.P,J5,79*%
%TO.N,THERM5*%
X44270000Y-61670000D03*
%TO.P,J5,80*%
%TO.N,SIPM_K16*%
X50000000Y-61670000D03*
D11*
%TO.P,J5,G1*%
%TO.N,GNDA*%
X47135000Y-97335000D03*
D12*
%TO.P,J5,G2*%
X47135000Y-92445000D03*
%TO.P,J5,G3*%
X47135000Y-86095000D03*
D11*
%TO.P,J5,G4*%
X47135000Y-81205000D03*
%TO.P,J5,G5*%
X47135000Y-77335000D03*
D12*
%TO.P,J5,G6*%
X47135000Y-72445000D03*
%TO.P,J5,G7*%
X47135000Y-66095000D03*
D11*
%TO.P,J5,G8*%
X47135000Y-61205000D03*
%TD*%
D13*
%TO.N,SIPM_K20*%
X72000000Y-61270000D03*
%TO.N,GNDA*%
X47925000Y-12925000D03*
X47925000Y-145615000D03*
X29925000Y-12925000D03*
X11925000Y-12925000D03*
X65925000Y-12925000D03*
X65925000Y-145615000D03*
X71925000Y-12925000D03*
X53925000Y-12925000D03*
X53925000Y-145615000D03*
X59925000Y-145615000D03*
X59925000Y-12925000D03*
X23925000Y-145615000D03*
X71925000Y-145615000D03*
X11925000Y-145615000D03*
X35925000Y-145615000D03*
X35925000Y-12925000D03*
X23925000Y-12925000D03*
X41925000Y-12925000D03*
X29925000Y-145615000D03*
X41925000Y-145615000D03*
%TO.N,SIPM_K21*%
X72000000Y-70270000D03*
%TO.N,SIPM_K1*%
X52000000Y-87270000D03*
%TO.N,SIPM_K14*%
X22270000Y-56770000D03*
%TO.N,SIPM_K15*%
X22270000Y-38770000D03*
%TO.N,SIPM_K5*%
X72000000Y-115270000D03*
%TO.N,SIPM_K18*%
X72000000Y-43270000D03*
%TO.N,SIPM_K9*%
X22270000Y-101770000D03*
%TO.N,SIPM_K3*%
X72000000Y-97270000D03*
%TO.N,SIPM_K4*%
X72000000Y-106270000D03*
%TO.N,SIPM_K6*%
X72000000Y-124270000D03*
%TO.N,SIPM_K19*%
X72000000Y-52270000D03*
%TO.N,SIPM_K8*%
X22270000Y-119770000D03*
%TO.N,SIPM_K10*%
X22270000Y-92770000D03*
%TO.N,SIPM_K7*%
X72000000Y-133270000D03*
%TO.N,IV*%
X72000000Y-79270000D03*
%TO.N,SIPM_K12*%
X22270000Y-74770000D03*
%TO.N,SIPM_K22*%
X52000000Y-71270000D03*
%TO.N,SIPM_K11*%
X22270000Y-83770000D03*
%TO.N,SIPM_K0*%
X52000000Y-85670000D03*
%TO.N,SIPM_K17*%
X72000000Y-34270000D03*
%TO.N,SIPM_K16*%
X72000000Y-25270000D03*
%TO.N,SIPM_K23*%
X52000000Y-72870000D03*
%TO.N,SIPM_K2*%
X72000000Y-88270000D03*
%TO.N,SIPM_K13*%
X22270000Y-65770000D03*
%TD*%
%TO.N,SIPM_K20*%
D14*
X52000000Y-68070000D02*
X72000000Y-61270000D01*
X50000000Y-68070000D02*
X52000000Y-68070000D01*
%TO.N,SIPM_K21*%
X52000000Y-69670000D02*
X72000000Y-70270000D01*
X50000000Y-69670000D02*
X52000000Y-69670000D01*
%TO.N,SIPM_K1*%
X50000000Y-87270000D02*
X52000000Y-87270000D01*
%TO.N,SIPM_K14*%
X44270000Y-73670000D02*
X42270000Y-73670000D01*
X42270000Y-73670000D02*
X22270000Y-56770000D01*
%TO.N,SIPM_K15*%
X44270000Y-72070000D02*
X42270000Y-72070000D01*
X42270000Y-72070000D02*
X22270000Y-38770000D01*
%TO.N,SIPM_K5*%
X50000000Y-93670000D02*
X52000000Y-93670000D01*
X52000000Y-93670000D02*
X72000000Y-115270000D01*
%TO.N,SIPM_K18*%
X50000000Y-64870000D02*
X52000000Y-64870000D01*
X52000000Y-64870000D02*
X72000000Y-43270000D01*
%TO.N,SIPM_K9*%
X42270000Y-84870000D02*
X22270000Y-101770000D01*
X44270000Y-84870000D02*
X42270000Y-84870000D01*
%TO.N,SIPM_K3*%
X52000000Y-90470000D02*
X72000000Y-97270000D01*
X50000000Y-90470000D02*
X52000000Y-90470000D01*
%TO.N,SIPM_K4*%
X52000000Y-92070000D02*
X72000000Y-106270000D01*
X50000000Y-92070000D02*
X52000000Y-92070000D01*
%TO.N,SIPM_K6*%
X50000000Y-95270000D02*
X52000000Y-95270000D01*
X52000000Y-95270000D02*
X72000000Y-124270000D01*
%TO.N,SIPM_K19*%
X52000000Y-66470000D02*
X72000000Y-52270000D01*
X50000000Y-66470000D02*
X52000000Y-66470000D01*
%TO.N,SIPM_K8*%
X42270000Y-86470000D02*
X22270000Y-119770000D01*
X44270000Y-86470000D02*
X42270000Y-86470000D01*
%TO.N,SIPM_K10*%
X42270000Y-83270000D02*
X22270000Y-92770000D01*
X44270000Y-83270000D02*
X42270000Y-83270000D01*
%TO.N,SIPM_K7*%
X52000000Y-96870000D02*
X72000000Y-133270000D01*
X50000000Y-96870000D02*
X52000000Y-96870000D01*
%TO.N,IV*%
X50000000Y-81670000D02*
X52000000Y-81670000D01*
X52000000Y-81670000D02*
X72000000Y-79270000D01*
X50000000Y-81670000D02*
X50000000Y-76870000D01*
%TO.N,SIPM_K12*%
X44270000Y-76870000D02*
X42270000Y-76870000D01*
X42270000Y-76870000D02*
X22270000Y-74770000D01*
%TO.N,SIPM_K22*%
X50000000Y-71270000D02*
X52000000Y-71270000D01*
%TO.N,SIPM_K11*%
X44270000Y-81670000D02*
X42270000Y-81670000D01*
X42270000Y-81670000D02*
X22270000Y-83770000D01*
%TO.N,SIPM_K0*%
X50000000Y-85670000D02*
X52000000Y-85670000D01*
%TO.N,SIPM_K17*%
X50000000Y-63270000D02*
X52000000Y-63270000D01*
X52000000Y-63270000D02*
X72000000Y-34270000D01*
%TO.N,SIPM_K16*%
X50000000Y-61670000D02*
X52000000Y-61670000D01*
X52000000Y-61670000D02*
X72000000Y-25270000D01*
%TO.N,SIPM_K23*%
X50000000Y-72870000D02*
X52000000Y-72870000D01*
%TO.N,SIPM_K2*%
X50000000Y-88870000D02*
X52000000Y-88870000D01*
X52000000Y-88870000D02*
X72000000Y-88270000D01*
%TO.N,SIPM_K13*%
X42270000Y-75270000D02*
X22270000Y-65770000D01*
X44270000Y-75270000D02*
X42270000Y-75270000D01*
%TD*%
%TA.AperFunction,Conductor*%
%TO.N,GNDA*%
G36*
X84712539Y-10520185D02*
G01*
X84758294Y-10572989D01*
X84769500Y-10624500D01*
X84769500Y-147915500D01*
X84749815Y-147982539D01*
X84697011Y-148028294D01*
X84645500Y-148039500D01*
X9624500Y-148039500D01*
X9557461Y-148019815D01*
X9511706Y-147967011D01*
X9500500Y-147915500D01*
X9500500Y-143418711D01*
X16419500Y-143418711D01*
X16419500Y-143661288D01*
X16451161Y-143901785D01*
X16513947Y-144136104D01*
X16606773Y-144360205D01*
X16606776Y-144360212D01*
X16728064Y-144570289D01*
X16728066Y-144570292D01*
X16728067Y-144570293D01*
X16875733Y-144762736D01*
X16875739Y-144762743D01*
X17047256Y-144934260D01*
X17047262Y-144934265D01*
X17239711Y-145081936D01*
X17449788Y-145203224D01*
X17673900Y-145296054D01*
X17908211Y-145358838D01*
X18088586Y-145382584D01*
X18148711Y-145390500D01*
X18148712Y-145390500D01*
X18391289Y-145390500D01*
X18439388Y-145384167D01*
X18631789Y-145358838D01*
X18866100Y-145296054D01*
X19090212Y-145203224D01*
X19300289Y-145081936D01*
X19492738Y-144934265D01*
X19664265Y-144762738D01*
X19811936Y-144570289D01*
X19933224Y-144360212D01*
X20026054Y-144136100D01*
X20088838Y-143901789D01*
X20120500Y-143661288D01*
X20120500Y-143418712D01*
X20120500Y-143418711D01*
X74149500Y-143418711D01*
X74149500Y-143661288D01*
X74181161Y-143901785D01*
X74243947Y-144136104D01*
X74336773Y-144360205D01*
X74336776Y-144360212D01*
X74458064Y-144570289D01*
X74458066Y-144570292D01*
X74458067Y-144570293D01*
X74605733Y-144762736D01*
X74605739Y-144762743D01*
X74777256Y-144934260D01*
X74777262Y-144934265D01*
X74969711Y-145081936D01*
X75179788Y-145203224D01*
X75403900Y-145296054D01*
X75638211Y-145358838D01*
X75818586Y-145382584D01*
X75878711Y-145390500D01*
X75878712Y-145390500D01*
X76121289Y-145390500D01*
X76169388Y-145384167D01*
X76361789Y-145358838D01*
X76596100Y-145296054D01*
X76820212Y-145203224D01*
X77030289Y-145081936D01*
X77222738Y-144934265D01*
X77394265Y-144762738D01*
X77541936Y-144570289D01*
X77663224Y-144360212D01*
X77756054Y-144136100D01*
X77818838Y-143901789D01*
X77850500Y-143661288D01*
X77850500Y-143418712D01*
X77818838Y-143178211D01*
X77756054Y-142943900D01*
X77663224Y-142719788D01*
X77541936Y-142509711D01*
X77394265Y-142317262D01*
X77394260Y-142317256D01*
X77222743Y-142145739D01*
X77222736Y-142145733D01*
X77030293Y-141998067D01*
X77030292Y-141998066D01*
X77030289Y-141998064D01*
X76820212Y-141876776D01*
X76820205Y-141876773D01*
X76596104Y-141783947D01*
X76361785Y-141721161D01*
X76121289Y-141689500D01*
X76121288Y-141689500D01*
X75878712Y-141689500D01*
X75878711Y-141689500D01*
X75638214Y-141721161D01*
X75403895Y-141783947D01*
X75179794Y-141876773D01*
X75179785Y-141876777D01*
X74969706Y-141998067D01*
X74777263Y-142145733D01*
X74777256Y-142145739D01*
X74605739Y-142317256D01*
X74605733Y-142317263D01*
X74458067Y-142509706D01*
X74336777Y-142719785D01*
X74336773Y-142719794D01*
X74243947Y-142943895D01*
X74181161Y-143178214D01*
X74149500Y-143418711D01*
X20120500Y-143418711D01*
X20088838Y-143178211D01*
X20026054Y-142943900D01*
X19933224Y-142719788D01*
X19811936Y-142509711D01*
X19664265Y-142317262D01*
X19664260Y-142317256D01*
X19492743Y-142145739D01*
X19492736Y-142145733D01*
X19300293Y-141998067D01*
X19300292Y-141998066D01*
X19300289Y-141998064D01*
X19090212Y-141876776D01*
X19090205Y-141876773D01*
X18866104Y-141783947D01*
X18631785Y-141721161D01*
X18391289Y-141689500D01*
X18391288Y-141689500D01*
X18148712Y-141689500D01*
X18148711Y-141689500D01*
X17908214Y-141721161D01*
X17673895Y-141783947D01*
X17449794Y-141876773D01*
X17449785Y-141876777D01*
X17239706Y-141998067D01*
X17047263Y-142145733D01*
X17047256Y-142145739D01*
X16875739Y-142317256D01*
X16875733Y-142317263D01*
X16728067Y-142509706D01*
X16606777Y-142719785D01*
X16606773Y-142719794D01*
X16513947Y-142943895D01*
X16451161Y-143178214D01*
X16419500Y-143418711D01*
X9500500Y-143418711D01*
X9500500Y-119690943D01*
X21669500Y-119690943D01*
X21669500Y-119849056D01*
X21710423Y-120001783D01*
X21710426Y-120001790D01*
X21789475Y-120138709D01*
X21789479Y-120138714D01*
X21789480Y-120138716D01*
X21901284Y-120250520D01*
X21901286Y-120250521D01*
X21901290Y-120250524D01*
X22038209Y-120329573D01*
X22038216Y-120329577D01*
X22190943Y-120370500D01*
X22190945Y-120370500D01*
X22349055Y-120370500D01*
X22349057Y-120370500D01*
X22501784Y-120329577D01*
X22638716Y-120250520D01*
X22750520Y-120138716D01*
X22829577Y-120001784D01*
X22870500Y-119849057D01*
X22870500Y-119718357D01*
X22888199Y-119654513D01*
X23040285Y-119401290D01*
X35137100Y-99260092D01*
X49044500Y-99260092D01*
X49044500Y-99409907D01*
X49073723Y-99556822D01*
X49073725Y-99556830D01*
X49131051Y-99695229D01*
X49131056Y-99695238D01*
X49214280Y-99819790D01*
X49214283Y-99819794D01*
X49320205Y-99925716D01*
X49320209Y-99925719D01*
X49444761Y-100008943D01*
X49444767Y-100008946D01*
X49444768Y-100008947D01*
X49583170Y-100066275D01*
X49730092Y-100095499D01*
X49730096Y-100095500D01*
X49730097Y-100095500D01*
X49879904Y-100095500D01*
X49879905Y-100095499D01*
X50026830Y-100066275D01*
X50165232Y-100008947D01*
X50289791Y-99925719D01*
X50395719Y-99819791D01*
X50478947Y-99695232D01*
X50536275Y-99556830D01*
X50565500Y-99409903D01*
X50565500Y-99260097D01*
X50536275Y-99113170D01*
X50478947Y-98974768D01*
X50478946Y-98974767D01*
X50478943Y-98974761D01*
X50395719Y-98850209D01*
X50395716Y-98850205D01*
X50289794Y-98744283D01*
X50289790Y-98744280D01*
X50165238Y-98661056D01*
X50165229Y-98661051D01*
X50026830Y-98603725D01*
X50026822Y-98603723D01*
X49879907Y-98574500D01*
X49879903Y-98574500D01*
X49730097Y-98574500D01*
X49730092Y-98574500D01*
X49583177Y-98603723D01*
X49583169Y-98603725D01*
X49444770Y-98661051D01*
X49444761Y-98661056D01*
X49320209Y-98744280D01*
X49320205Y-98744283D01*
X49214283Y-98850205D01*
X49214280Y-98850209D01*
X49131056Y-98974761D01*
X49131051Y-98974770D01*
X49073725Y-99113169D01*
X49073723Y-99113177D01*
X49044500Y-99260092D01*
X35137100Y-99260092D01*
X38644584Y-93420131D01*
X48564500Y-93420131D01*
X48564500Y-93919856D01*
X48564502Y-93919882D01*
X48567413Y-93944987D01*
X48567415Y-93944991D01*
X48612793Y-94047764D01*
X48612794Y-94047765D01*
X48692235Y-94127206D01*
X48795009Y-94172585D01*
X48820135Y-94175500D01*
X51179864Y-94175499D01*
X51179879Y-94175497D01*
X51179882Y-94175497D01*
X51204987Y-94172586D01*
X51204988Y-94172585D01*
X51204991Y-94172585D01*
X51242824Y-94155879D01*
X51253730Y-94151065D01*
X51303815Y-94140500D01*
X51740253Y-94140500D01*
X51807292Y-94160185D01*
X51831239Y-94180253D01*
X52225455Y-94606006D01*
X52239125Y-94633504D01*
X52254715Y-94659971D01*
X52254538Y-94664506D01*
X52256559Y-94668571D01*
X52253192Y-94699092D01*
X52251998Y-94729788D01*
X52249396Y-94733509D01*
X52248899Y-94738020D01*
X52229565Y-94761877D01*
X52211966Y-94787053D01*
X52207766Y-94788776D01*
X52204909Y-94792303D01*
X52175738Y-94801923D01*
X52147330Y-94813584D01*
X52141113Y-94813342D01*
X52138555Y-94814186D01*
X52112065Y-94812212D01*
X52108429Y-94811544D01*
X52098751Y-94809362D01*
X52061946Y-94799500D01*
X52061943Y-94799500D01*
X52054145Y-94799500D01*
X52031746Y-94797460D01*
X52024071Y-94796050D01*
X51988860Y-94798879D01*
X51986088Y-94799102D01*
X51976162Y-94799500D01*
X51303815Y-94799500D01*
X51253729Y-94788935D01*
X51249467Y-94787053D01*
X51204991Y-94767415D01*
X51179865Y-94764500D01*
X48820143Y-94764500D01*
X48820117Y-94764502D01*
X48795012Y-94767413D01*
X48795008Y-94767415D01*
X48692235Y-94812793D01*
X48612794Y-94892234D01*
X48567415Y-94995006D01*
X48567415Y-94995008D01*
X48564500Y-95020131D01*
X48564500Y-95519856D01*
X48564502Y-95519882D01*
X48567413Y-95544987D01*
X48567415Y-95544991D01*
X48612793Y-95647764D01*
X48612794Y-95647765D01*
X48692235Y-95727206D01*
X48795009Y-95772585D01*
X48820135Y-95775500D01*
X51179864Y-95775499D01*
X51179879Y-95775497D01*
X51179882Y-95775497D01*
X51204987Y-95772586D01*
X51204988Y-95772585D01*
X51204991Y-95772585D01*
X51242824Y-95755879D01*
X51253730Y-95751065D01*
X51303815Y-95740500D01*
X51687829Y-95740500D01*
X51754868Y-95760185D01*
X51789907Y-95794101D01*
X52072837Y-96204348D01*
X52075939Y-96213769D01*
X52082576Y-96221146D01*
X52086688Y-96246407D01*
X52094693Y-96270711D01*
X52092209Y-96280314D01*
X52093804Y-96290108D01*
X52083607Y-96313581D01*
X52077201Y-96338356D01*
X52069918Y-96345093D01*
X52065966Y-96354193D01*
X52044696Y-96368427D01*
X52025914Y-96385805D01*
X52014598Y-96388571D01*
X52007901Y-96393054D01*
X51980015Y-96397026D01*
X51973065Y-96398726D01*
X51970599Y-96398771D01*
X51948035Y-96398294D01*
X51944076Y-96399265D01*
X51932588Y-96399479D01*
X51932266Y-96399390D01*
X51930282Y-96399500D01*
X51303815Y-96399500D01*
X51253729Y-96388935D01*
X51252905Y-96388571D01*
X51204991Y-96367415D01*
X51179865Y-96364500D01*
X48820143Y-96364500D01*
X48820117Y-96364502D01*
X48795012Y-96367413D01*
X48795008Y-96367415D01*
X48692235Y-96412793D01*
X48612794Y-96492234D01*
X48567415Y-96595006D01*
X48567415Y-96595008D01*
X48564500Y-96620131D01*
X48564500Y-97119856D01*
X48564502Y-97119882D01*
X48567413Y-97144987D01*
X48567415Y-97144991D01*
X48612793Y-97247764D01*
X48612794Y-97247765D01*
X48692235Y-97327206D01*
X48795009Y-97372585D01*
X48820135Y-97375500D01*
X51179864Y-97375499D01*
X51179879Y-97375497D01*
X51179882Y-97375497D01*
X51204987Y-97372586D01*
X51204988Y-97372585D01*
X51204991Y-97372585D01*
X51242824Y-97355879D01*
X51253730Y-97351065D01*
X51303815Y-97340500D01*
X51648320Y-97340500D01*
X51715359Y-97360185D01*
X51756996Y-97404788D01*
X54207701Y-101865072D01*
X64309595Y-120250520D01*
X71384176Y-133126257D01*
X71399500Y-133185969D01*
X71399500Y-133349056D01*
X71440423Y-133501783D01*
X71440426Y-133501790D01*
X71519475Y-133638709D01*
X71519479Y-133638714D01*
X71519480Y-133638716D01*
X71631284Y-133750520D01*
X71631286Y-133750521D01*
X71631290Y-133750524D01*
X71768209Y-133829573D01*
X71768216Y-133829577D01*
X71920943Y-133870500D01*
X71920945Y-133870500D01*
X72079055Y-133870500D01*
X72079057Y-133870500D01*
X72231784Y-133829577D01*
X72368716Y-133750520D01*
X72480520Y-133638716D01*
X72559577Y-133501784D01*
X72600500Y-133349057D01*
X72600500Y-133190943D01*
X72559577Y-133038216D01*
X72559573Y-133038209D01*
X72480524Y-132901290D01*
X72480518Y-132901282D01*
X72368717Y-132789481D01*
X72368712Y-132789477D01*
X72258265Y-132725711D01*
X72211589Y-132678036D01*
X67568717Y-124228009D01*
X53733766Y-99048398D01*
X53718736Y-98980167D01*
X53742981Y-98914639D01*
X53798805Y-98872621D01*
X53868483Y-98867454D01*
X53929894Y-98900778D01*
X53944520Y-98918289D01*
X71268603Y-124038209D01*
X71377578Y-124196222D01*
X71399434Y-124262585D01*
X71399500Y-124266621D01*
X71399500Y-124349056D01*
X71440423Y-124501783D01*
X71440426Y-124501790D01*
X71519475Y-124638709D01*
X71519479Y-124638714D01*
X71519480Y-124638716D01*
X71631284Y-124750520D01*
X71631286Y-124750521D01*
X71631290Y-124750524D01*
X71768209Y-124829573D01*
X71768216Y-124829577D01*
X71920943Y-124870500D01*
X71920945Y-124870500D01*
X72079055Y-124870500D01*
X72079057Y-124870500D01*
X72231784Y-124829577D01*
X72368716Y-124750520D01*
X72480520Y-124638716D01*
X72559577Y-124501784D01*
X72600500Y-124349057D01*
X72600500Y-124190943D01*
X72559577Y-124038216D01*
X72559573Y-124038209D01*
X72480524Y-123901290D01*
X72480518Y-123901282D01*
X72368717Y-123789481D01*
X72368709Y-123789475D01*
X72231790Y-123710426D01*
X72231777Y-123710420D01*
X72219234Y-123707059D01*
X72159576Y-123670691D01*
X72149256Y-123657685D01*
X60489142Y-106750520D01*
X52768662Y-95555824D01*
X52746807Y-95489463D01*
X52764299Y-95421818D01*
X52815586Y-95374369D01*
X52884384Y-95362180D01*
X52948851Y-95389121D01*
X52961727Y-95401180D01*
X71367312Y-115279211D01*
X71398416Y-115341776D01*
X71399265Y-115347269D01*
X71399500Y-115349057D01*
X71440423Y-115501783D01*
X71440426Y-115501790D01*
X71519475Y-115638709D01*
X71519479Y-115638714D01*
X71519480Y-115638716D01*
X71631284Y-115750520D01*
X71631286Y-115750521D01*
X71631290Y-115750524D01*
X71768209Y-115829573D01*
X71768216Y-115829577D01*
X71920943Y-115870500D01*
X71920945Y-115870500D01*
X72079055Y-115870500D01*
X72079057Y-115870500D01*
X72231784Y-115829577D01*
X72368716Y-115750520D01*
X72480520Y-115638716D01*
X72559577Y-115501784D01*
X72600500Y-115349057D01*
X72600500Y-115190943D01*
X72559577Y-115038216D01*
X72559573Y-115038209D01*
X72480524Y-114901290D01*
X72480518Y-114901282D01*
X72368717Y-114789481D01*
X72368709Y-114789475D01*
X72231790Y-114710426D01*
X72231785Y-114710423D01*
X72121798Y-114680952D01*
X72062906Y-114645424D01*
X64826007Y-106829573D01*
X52381083Y-93389054D01*
X52376494Y-93381106D01*
X52339087Y-93343699D01*
X52303150Y-93304887D01*
X52295384Y-93299996D01*
X52288894Y-93293506D01*
X52243081Y-93267056D01*
X52241061Y-93265784D01*
X52241060Y-93265782D01*
X52198328Y-93238870D01*
X52190942Y-93235473D01*
X52191096Y-93235137D01*
X52189253Y-93234331D01*
X52189112Y-93234673D01*
X52181606Y-93231563D01*
X52132811Y-93218488D01*
X52128238Y-93217168D01*
X52108939Y-93211193D01*
X52079980Y-93202228D01*
X52079977Y-93202227D01*
X52079975Y-93202227D01*
X52070804Y-93201874D01*
X52061943Y-93199500D01*
X52009051Y-93199500D01*
X52006658Y-93199408D01*
X52006655Y-93199408D01*
X52005088Y-93199347D01*
X51956187Y-93197466D01*
X51948096Y-93198217D01*
X51948061Y-93197848D01*
X51933330Y-93199500D01*
X51303815Y-93199500D01*
X51253729Y-93188935D01*
X51204991Y-93167415D01*
X51179865Y-93164500D01*
X48820143Y-93164500D01*
X48820117Y-93164502D01*
X48795012Y-93167413D01*
X48795008Y-93167415D01*
X48692235Y-93212793D01*
X48612794Y-93292234D01*
X48567415Y-93395006D01*
X48567415Y-93395008D01*
X48564500Y-93420131D01*
X38644584Y-93420131D01*
X39605545Y-91820131D01*
X48564500Y-91820131D01*
X48564500Y-92319856D01*
X48564502Y-92319882D01*
X48567413Y-92344987D01*
X48567415Y-92344991D01*
X48612793Y-92447764D01*
X48612794Y-92447765D01*
X48692235Y-92527206D01*
X48795009Y-92572585D01*
X48820135Y-92575500D01*
X51179864Y-92575499D01*
X51179879Y-92575497D01*
X51179882Y-92575497D01*
X51204987Y-92572586D01*
X51204988Y-92572585D01*
X51204991Y-92572585D01*
X51242824Y-92555879D01*
X51253730Y-92551065D01*
X51303815Y-92540500D01*
X51810416Y-92540500D01*
X51877455Y-92560185D01*
X51882195Y-92563388D01*
X62368900Y-100008948D01*
X71386771Y-106411636D01*
X71430038Y-106466497D01*
X71434759Y-106480648D01*
X71440421Y-106501779D01*
X71440426Y-106501790D01*
X71519475Y-106638709D01*
X71519479Y-106638714D01*
X71519480Y-106638716D01*
X71631284Y-106750520D01*
X71631286Y-106750521D01*
X71631290Y-106750524D01*
X71768209Y-106829573D01*
X71768216Y-106829577D01*
X71920943Y-106870500D01*
X71920945Y-106870500D01*
X72079055Y-106870500D01*
X72079057Y-106870500D01*
X72231784Y-106829577D01*
X72368716Y-106750520D01*
X72480520Y-106638716D01*
X72559577Y-106501784D01*
X72600500Y-106349057D01*
X72600500Y-106190943D01*
X72559577Y-106038216D01*
X72559573Y-106038209D01*
X72480524Y-105901290D01*
X72480518Y-105901282D01*
X72368717Y-105789481D01*
X72368709Y-105789475D01*
X72231790Y-105710426D01*
X72231786Y-105710424D01*
X72231784Y-105710423D01*
X72079057Y-105669500D01*
X72079056Y-105669500D01*
X72006486Y-105669500D01*
X71939447Y-105649815D01*
X71934700Y-105646607D01*
X67151484Y-102250524D01*
X60281149Y-97372586D01*
X52313198Y-91715341D01*
X52304685Y-91709297D01*
X52288894Y-91693506D01*
X52254372Y-91673575D01*
X52221875Y-91650502D01*
X52210721Y-91646359D01*
X52191902Y-91637508D01*
X52181608Y-91631565D01*
X52181601Y-91631562D01*
X52148728Y-91622754D01*
X52137650Y-91619221D01*
X52105743Y-91607371D01*
X52105738Y-91607370D01*
X52093904Y-91606256D01*
X52093904Y-91606257D01*
X52083511Y-91605279D01*
X52061943Y-91599500D01*
X52022088Y-91599500D01*
X52016295Y-91598955D01*
X51982403Y-91595766D01*
X51982396Y-91595766D01*
X51970678Y-91597754D01*
X51949945Y-91599500D01*
X51303815Y-91599500D01*
X51253729Y-91588935D01*
X51204991Y-91567415D01*
X51179865Y-91564500D01*
X48820143Y-91564500D01*
X48820117Y-91564502D01*
X48795012Y-91567413D01*
X48795008Y-91567415D01*
X48692235Y-91612793D01*
X48612794Y-91692234D01*
X48567415Y-91795006D01*
X48567415Y-91795008D01*
X48564500Y-91820131D01*
X39605545Y-91820131D01*
X40566506Y-90220131D01*
X48564500Y-90220131D01*
X48564500Y-90719856D01*
X48564502Y-90719882D01*
X48567413Y-90744987D01*
X48567415Y-90744991D01*
X48612793Y-90847764D01*
X48612794Y-90847765D01*
X48692235Y-90927206D01*
X48795009Y-90972585D01*
X48820135Y-90975500D01*
X51179864Y-90975499D01*
X51179879Y-90975497D01*
X51179882Y-90975497D01*
X51204987Y-90972586D01*
X51204988Y-90972585D01*
X51204991Y-90972585D01*
X51242824Y-90955879D01*
X51253730Y-90951065D01*
X51303815Y-90940500D01*
X51901698Y-90940500D01*
X51941613Y-90947099D01*
X65301505Y-95489463D01*
X71450082Y-97579979D01*
X71507217Y-97620196D01*
X71517551Y-97635376D01*
X71519475Y-97638709D01*
X71519478Y-97638713D01*
X71519480Y-97638716D01*
X71631284Y-97750520D01*
X71631286Y-97750521D01*
X71631290Y-97750524D01*
X71768209Y-97829573D01*
X71768216Y-97829577D01*
X71920943Y-97870500D01*
X71920945Y-97870500D01*
X72079055Y-97870500D01*
X72079057Y-97870500D01*
X72231784Y-97829577D01*
X72368716Y-97750520D01*
X72480520Y-97638716D01*
X72559577Y-97501784D01*
X72600500Y-97349057D01*
X72600500Y-97190943D01*
X72559577Y-97038216D01*
X72559573Y-97038209D01*
X72480524Y-96901290D01*
X72480518Y-96901282D01*
X72368717Y-96789481D01*
X72368709Y-96789475D01*
X72231790Y-96710426D01*
X72231786Y-96710424D01*
X72231784Y-96710423D01*
X72079057Y-96669500D01*
X71920943Y-96669500D01*
X71920941Y-96669500D01*
X71831195Y-96693547D01*
X71761346Y-96691884D01*
X71759187Y-96691172D01*
X64360151Y-94175500D01*
X52206751Y-90043343D01*
X52195215Y-90039420D01*
X52181606Y-90031564D01*
X52136768Y-90019549D01*
X52132900Y-90018234D01*
X52132894Y-90018232D01*
X52092809Y-90004604D01*
X52092807Y-90004603D01*
X52092805Y-90004603D01*
X52089283Y-90004370D01*
X52089283Y-90004371D01*
X52086221Y-90004168D01*
X52077126Y-90003568D01*
X52061943Y-89999500D01*
X52015518Y-89999500D01*
X52011444Y-89999231D01*
X52011443Y-89999230D01*
X51969194Y-89996441D01*
X51969192Y-89996441D01*
X51967301Y-89996816D01*
X51965724Y-89997129D01*
X51941594Y-89999500D01*
X51303815Y-89999500D01*
X51253729Y-89988935D01*
X51204991Y-89967415D01*
X51179865Y-89964500D01*
X48820143Y-89964500D01*
X48820117Y-89964502D01*
X48795012Y-89967413D01*
X48795008Y-89967415D01*
X48692235Y-90012793D01*
X48612794Y-90092234D01*
X48567415Y-90195006D01*
X48567415Y-90195008D01*
X48564500Y-90220131D01*
X40566506Y-90220131D01*
X41527467Y-88620131D01*
X48564500Y-88620131D01*
X48564500Y-89119856D01*
X48564502Y-89119882D01*
X48567413Y-89144987D01*
X48567415Y-89144991D01*
X48612793Y-89247764D01*
X48612794Y-89247765D01*
X48692235Y-89327206D01*
X48795009Y-89372585D01*
X48820135Y-89375500D01*
X51179864Y-89375499D01*
X51179879Y-89375497D01*
X51179882Y-89375497D01*
X51204987Y-89372586D01*
X51204988Y-89372585D01*
X51204991Y-89372585D01*
X51242824Y-89355879D01*
X51253730Y-89351065D01*
X51303815Y-89340500D01*
X51945221Y-89340500D01*
X51952194Y-89342146D01*
X52007061Y-89340500D01*
X52061943Y-89340500D01*
X52061943Y-89340499D01*
X52070004Y-89339438D01*
X52070098Y-89340158D01*
X52083295Y-89338212D01*
X71598137Y-88752767D01*
X71663853Y-88769323D01*
X71768216Y-88829577D01*
X71920943Y-88870500D01*
X71920945Y-88870500D01*
X72079055Y-88870500D01*
X72079057Y-88870500D01*
X72231784Y-88829577D01*
X72368716Y-88750520D01*
X72480520Y-88638716D01*
X72559577Y-88501784D01*
X72600500Y-88349057D01*
X72600500Y-88190943D01*
X72559577Y-88038216D01*
X72559573Y-88038209D01*
X72480524Y-87901290D01*
X72480518Y-87901282D01*
X72368717Y-87789481D01*
X72368709Y-87789475D01*
X72231790Y-87710426D01*
X72231786Y-87710424D01*
X72231784Y-87710423D01*
X72079057Y-87669500D01*
X71920943Y-87669500D01*
X71768216Y-87710423D01*
X71768209Y-87710426D01*
X71624245Y-87793543D01*
X71622992Y-87791374D01*
X71569549Y-87812027D01*
X71562967Y-87812399D01*
X58944840Y-88190943D01*
X53674443Y-88349055D01*
X51994810Y-88399444D01*
X51991092Y-88399500D01*
X51303815Y-88399500D01*
X51253729Y-88388935D01*
X51204991Y-88367415D01*
X51179865Y-88364500D01*
X48820143Y-88364500D01*
X48820117Y-88364502D01*
X48795012Y-88367413D01*
X48795008Y-88367415D01*
X48692235Y-88412793D01*
X48612794Y-88492234D01*
X48567415Y-88595006D01*
X48567415Y-88595008D01*
X48564500Y-88620131D01*
X41527467Y-88620131D01*
X42488428Y-87020131D01*
X48564500Y-87020131D01*
X48564500Y-87519856D01*
X48564502Y-87519882D01*
X48567413Y-87544987D01*
X48567415Y-87544991D01*
X48612793Y-87647764D01*
X48612794Y-87647765D01*
X48692235Y-87727206D01*
X48795009Y-87772585D01*
X48820135Y-87775500D01*
X51179864Y-87775499D01*
X51179879Y-87775497D01*
X51179882Y-87775497D01*
X51204987Y-87772586D01*
X51204988Y-87772585D01*
X51204991Y-87772585D01*
X51242824Y-87755879D01*
X51253730Y-87751065D01*
X51303815Y-87740500D01*
X51580703Y-87740500D01*
X51642702Y-87757113D01*
X51768209Y-87829573D01*
X51768216Y-87829577D01*
X51920943Y-87870500D01*
X51920945Y-87870500D01*
X52079055Y-87870500D01*
X52079057Y-87870500D01*
X52231784Y-87829577D01*
X52368716Y-87750520D01*
X52480520Y-87638716D01*
X52559577Y-87501784D01*
X52600500Y-87349057D01*
X52600500Y-87190943D01*
X52559577Y-87038216D01*
X52534630Y-86995006D01*
X52480524Y-86901290D01*
X52480518Y-86901282D01*
X52368717Y-86789481D01*
X52368709Y-86789475D01*
X52231790Y-86710426D01*
X52231786Y-86710424D01*
X52231784Y-86710423D01*
X52079057Y-86669500D01*
X51920943Y-86669500D01*
X51768216Y-86710423D01*
X51768209Y-86710426D01*
X51642702Y-86782887D01*
X51580703Y-86799500D01*
X51303815Y-86799500D01*
X51253729Y-86788935D01*
X51204991Y-86767415D01*
X51179865Y-86764500D01*
X48820143Y-86764500D01*
X48820117Y-86764502D01*
X48795012Y-86767413D01*
X48795008Y-86767415D01*
X48692235Y-86812793D01*
X48612794Y-86892234D01*
X48567415Y-86995006D01*
X48567415Y-86995008D01*
X48564500Y-87020131D01*
X42488428Y-87020131D01*
X42500125Y-87000655D01*
X42551517Y-86953320D01*
X42606426Y-86940500D01*
X42966185Y-86940500D01*
X43016270Y-86951064D01*
X43065009Y-86972585D01*
X43090135Y-86975500D01*
X45449864Y-86975499D01*
X45449879Y-86975497D01*
X45449882Y-86975497D01*
X45474987Y-86972586D01*
X45474988Y-86972585D01*
X45474991Y-86972585D01*
X45577765Y-86927206D01*
X45657206Y-86847765D01*
X45702585Y-86744991D01*
X45705500Y-86719865D01*
X45705499Y-86220136D01*
X45705497Y-86220117D01*
X45702586Y-86195012D01*
X45702585Y-86195010D01*
X45702585Y-86195009D01*
X45657206Y-86092235D01*
X45577765Y-86012794D01*
X45547657Y-85999500D01*
X45474992Y-85967415D01*
X45449865Y-85964500D01*
X43090143Y-85964500D01*
X43090117Y-85964502D01*
X43065012Y-85967413D01*
X43065010Y-85967414D01*
X43016270Y-85988935D01*
X42966185Y-85999500D01*
X42274039Y-85999500D01*
X42216188Y-85998501D01*
X42212184Y-85999500D01*
X42208057Y-85999500D01*
X42175476Y-86008229D01*
X42153186Y-86014202D01*
X42151118Y-86014736D01*
X42095988Y-86028493D01*
X42094322Y-86029150D01*
X42094321Y-86029149D01*
X42091263Y-86030355D01*
X42091220Y-86030373D01*
X42090527Y-86030646D01*
X42090039Y-86030881D01*
X42088401Y-86031559D01*
X42039169Y-86059982D01*
X42038242Y-86060517D01*
X41987648Y-86088576D01*
X41984681Y-86091440D01*
X41981104Y-86093506D01*
X41940929Y-86133680D01*
X41940930Y-86133681D01*
X41940167Y-86134444D01*
X41898549Y-86174650D01*
X41896424Y-86178187D01*
X41893506Y-86181106D01*
X41893504Y-86181108D01*
X41893502Y-86181111D01*
X41865090Y-86230321D01*
X41864005Y-86232163D01*
X22083863Y-119166102D01*
X22039562Y-119209645D01*
X21901287Y-119289477D01*
X21901282Y-119289481D01*
X21789481Y-119401282D01*
X21789475Y-119401290D01*
X21710426Y-119538209D01*
X21710423Y-119538216D01*
X21669500Y-119690943D01*
X9500500Y-119690943D01*
X9500500Y-101690943D01*
X21669500Y-101690943D01*
X21669500Y-101849056D01*
X21710423Y-102001783D01*
X21710426Y-102001790D01*
X21789475Y-102138709D01*
X21789479Y-102138714D01*
X21789480Y-102138716D01*
X21901284Y-102250520D01*
X21901286Y-102250521D01*
X21901290Y-102250524D01*
X22038209Y-102329573D01*
X22038216Y-102329577D01*
X22190943Y-102370500D01*
X22190945Y-102370500D01*
X22349055Y-102370500D01*
X22349057Y-102370500D01*
X22501784Y-102329577D01*
X22638716Y-102250520D01*
X22750520Y-102138716D01*
X22829577Y-102001784D01*
X22850223Y-101924729D01*
X22886586Y-101865072D01*
X22889936Y-101862135D01*
X42347930Y-85420131D01*
X48564500Y-85420131D01*
X48564500Y-85919856D01*
X48564502Y-85919882D01*
X48567413Y-85944987D01*
X48567415Y-85944991D01*
X48612793Y-86047764D01*
X48612794Y-86047765D01*
X48692235Y-86127206D01*
X48795009Y-86172585D01*
X48820135Y-86175500D01*
X51179864Y-86175499D01*
X51179879Y-86175497D01*
X51179882Y-86175497D01*
X51204987Y-86172586D01*
X51204988Y-86172585D01*
X51204991Y-86172585D01*
X51242824Y-86155879D01*
X51253730Y-86151065D01*
X51303815Y-86140500D01*
X51580703Y-86140500D01*
X51642702Y-86157113D01*
X51768209Y-86229573D01*
X51768216Y-86229577D01*
X51920943Y-86270500D01*
X51920945Y-86270500D01*
X52079055Y-86270500D01*
X52079057Y-86270500D01*
X52231784Y-86229577D01*
X52368716Y-86150520D01*
X52480520Y-86038716D01*
X52559577Y-85901784D01*
X52600500Y-85749057D01*
X52600500Y-85590943D01*
X52559577Y-85438216D01*
X52534630Y-85395006D01*
X52480524Y-85301290D01*
X52480518Y-85301282D01*
X52368717Y-85189481D01*
X52368709Y-85189475D01*
X52231790Y-85110426D01*
X52231786Y-85110424D01*
X52231784Y-85110423D01*
X52079057Y-85069500D01*
X51920943Y-85069500D01*
X51768216Y-85110423D01*
X51768209Y-85110426D01*
X51642702Y-85182887D01*
X51580703Y-85199500D01*
X51303815Y-85199500D01*
X51253729Y-85188935D01*
X51204991Y-85167415D01*
X51179865Y-85164500D01*
X48820143Y-85164500D01*
X48820117Y-85164502D01*
X48795012Y-85167413D01*
X48795008Y-85167415D01*
X48692235Y-85212793D01*
X48612794Y-85292234D01*
X48567415Y-85395006D01*
X48567415Y-85395008D01*
X48564500Y-85420131D01*
X42347930Y-85420131D01*
X42407511Y-85369785D01*
X42471422Y-85341553D01*
X42487544Y-85340500D01*
X42966185Y-85340500D01*
X43016270Y-85351064D01*
X43065009Y-85372585D01*
X43090135Y-85375500D01*
X45449864Y-85375499D01*
X45449879Y-85375497D01*
X45449882Y-85375497D01*
X45474987Y-85372586D01*
X45474988Y-85372585D01*
X45474991Y-85372585D01*
X45577765Y-85327206D01*
X45657206Y-85247765D01*
X45702585Y-85144991D01*
X45705500Y-85119865D01*
X45705499Y-84620136D01*
X45705497Y-84620117D01*
X45702586Y-84595012D01*
X45702585Y-84595010D01*
X45702585Y-84595009D01*
X45657206Y-84492235D01*
X45577765Y-84412794D01*
X45539651Y-84395965D01*
X45474992Y-84367415D01*
X45449865Y-84364500D01*
X43090143Y-84364500D01*
X43090117Y-84364502D01*
X43065012Y-84367413D01*
X43065010Y-84367414D01*
X43016270Y-84388935D01*
X42966185Y-84399500D01*
X42289738Y-84399500D01*
X42247664Y-84395965D01*
X42228014Y-84399500D01*
X42208052Y-84399500D01*
X42172301Y-84409080D01*
X42162168Y-84411344D01*
X42125736Y-84417900D01*
X42125728Y-84417902D01*
X42117678Y-84421690D01*
X42096991Y-84429260D01*
X42088397Y-84431562D01*
X42088387Y-84431567D01*
X42056337Y-84450069D01*
X42056338Y-84450070D01*
X42051827Y-84452673D01*
X42013640Y-84470642D01*
X41998396Y-84483520D01*
X41988823Y-84489048D01*
X41988824Y-84489048D01*
X41981110Y-84493502D01*
X41981104Y-84493506D01*
X41954924Y-84519686D01*
X41947279Y-84526716D01*
X22286336Y-101140214D01*
X22222425Y-101168447D01*
X22206303Y-101169500D01*
X22190943Y-101169500D01*
X22038216Y-101210423D01*
X22038209Y-101210426D01*
X21901290Y-101289475D01*
X21901282Y-101289481D01*
X21789481Y-101401282D01*
X21789475Y-101401290D01*
X21710426Y-101538209D01*
X21710423Y-101538216D01*
X21669500Y-101690943D01*
X9500500Y-101690943D01*
X9500500Y-92690943D01*
X21669500Y-92690943D01*
X21669500Y-92849056D01*
X21710423Y-93001783D01*
X21710426Y-93001790D01*
X21789475Y-93138709D01*
X21789479Y-93138714D01*
X21789480Y-93138716D01*
X21901284Y-93250520D01*
X21901286Y-93250521D01*
X21901290Y-93250524D01*
X21995451Y-93304887D01*
X22038216Y-93329577D01*
X22190943Y-93370500D01*
X22190945Y-93370500D01*
X22349055Y-93370500D01*
X22349057Y-93370500D01*
X22501784Y-93329577D01*
X22638716Y-93250520D01*
X22750520Y-93138716D01*
X22791737Y-93067323D01*
X22842304Y-93019108D01*
X22845898Y-93017328D01*
X42350814Y-83752493D01*
X42404017Y-83740500D01*
X42966185Y-83740500D01*
X43016270Y-83751064D01*
X43065009Y-83772585D01*
X43090135Y-83775500D01*
X45449864Y-83775499D01*
X45449879Y-83775497D01*
X45449882Y-83775497D01*
X45474987Y-83772586D01*
X45474988Y-83772585D01*
X45474991Y-83772585D01*
X45577765Y-83727206D01*
X45657206Y-83647765D01*
X45702585Y-83544991D01*
X45705500Y-83519865D01*
X45705499Y-83020136D01*
X45705497Y-83020117D01*
X45702586Y-82995012D01*
X45702585Y-82995010D01*
X45702585Y-82995009D01*
X45657206Y-82892235D01*
X45577765Y-82812794D01*
X45539846Y-82796051D01*
X45474992Y-82767415D01*
X45449865Y-82764500D01*
X43090143Y-82764500D01*
X43090117Y-82764502D01*
X43065012Y-82767413D01*
X43065010Y-82767414D01*
X43016270Y-82788935D01*
X42966185Y-82799500D01*
X42288870Y-82799500D01*
X42245927Y-82796051D01*
X42227149Y-82799500D01*
X42208057Y-82799500D01*
X42179896Y-82807045D01*
X42171250Y-82809362D01*
X42161563Y-82811545D01*
X42124082Y-82818429D01*
X42124080Y-82818430D01*
X42117023Y-82821782D01*
X42117022Y-82821781D01*
X42106826Y-82826624D01*
X42088394Y-82831564D01*
X42051087Y-82853101D01*
X42046593Y-82855237D01*
X42046591Y-82855237D01*
X22446896Y-92165092D01*
X22377895Y-92176076D01*
X22361611Y-92172863D01*
X22349057Y-92169500D01*
X22190943Y-92169500D01*
X22038216Y-92210423D01*
X22038209Y-92210426D01*
X21901290Y-92289475D01*
X21901282Y-92289481D01*
X21789481Y-92401282D01*
X21789475Y-92401290D01*
X21710426Y-92538209D01*
X21710423Y-92538216D01*
X21669500Y-92690943D01*
X9500500Y-92690943D01*
X9500500Y-83690943D01*
X21669500Y-83690943D01*
X21669500Y-83849056D01*
X21710423Y-84001783D01*
X21710426Y-84001790D01*
X21789475Y-84138709D01*
X21789479Y-84138714D01*
X21789480Y-84138716D01*
X21901284Y-84250520D01*
X21901286Y-84250521D01*
X21901290Y-84250524D01*
X22038209Y-84329573D01*
X22038216Y-84329577D01*
X22190943Y-84370500D01*
X22190945Y-84370500D01*
X22349055Y-84370500D01*
X22349057Y-84370500D01*
X22501784Y-84329577D01*
X22638716Y-84250520D01*
X22659223Y-84230012D01*
X22720542Y-84196527D01*
X22733941Y-84194372D01*
X42288175Y-82141178D01*
X42301124Y-82140500D01*
X42966185Y-82140500D01*
X43016270Y-82151064D01*
X43065009Y-82172585D01*
X43090135Y-82175500D01*
X45449864Y-82175499D01*
X45449879Y-82175497D01*
X45449882Y-82175497D01*
X45474987Y-82172586D01*
X45474988Y-82172585D01*
X45474991Y-82172585D01*
X45577765Y-82127206D01*
X45657206Y-82047765D01*
X45702585Y-81944991D01*
X45705500Y-81919865D01*
X45705499Y-81420136D01*
X45705497Y-81420117D01*
X45702586Y-81395012D01*
X45702585Y-81395010D01*
X45702585Y-81395009D01*
X45657206Y-81292235D01*
X45577765Y-81212794D01*
X45564552Y-81206960D01*
X45474992Y-81167415D01*
X45449865Y-81164500D01*
X43090143Y-81164500D01*
X43090117Y-81164502D01*
X43065012Y-81167413D01*
X43065010Y-81167414D01*
X43016270Y-81188935D01*
X42966185Y-81199500D01*
X42307053Y-81199500D01*
X42282472Y-81195604D01*
X42245367Y-81199500D01*
X42208056Y-81199500D01*
X42193441Y-81203415D01*
X42174305Y-81206960D01*
X22632933Y-83258805D01*
X22564204Y-83246229D01*
X22557984Y-83242870D01*
X22501786Y-83210424D01*
X22501785Y-83210423D01*
X22501784Y-83210423D01*
X22349057Y-83169500D01*
X22190943Y-83169500D01*
X22038216Y-83210423D01*
X22038209Y-83210426D01*
X21901290Y-83289475D01*
X21901282Y-83289481D01*
X21789481Y-83401282D01*
X21789475Y-83401290D01*
X21710426Y-83538209D01*
X21710423Y-83538216D01*
X21669500Y-83690943D01*
X9500500Y-83690943D01*
X9500500Y-74690943D01*
X21669500Y-74690943D01*
X21669500Y-74849057D01*
X21708609Y-74995012D01*
X21710423Y-75001783D01*
X21710426Y-75001790D01*
X21789475Y-75138709D01*
X21789479Y-75138714D01*
X21789480Y-75138716D01*
X21901284Y-75250520D01*
X21901286Y-75250521D01*
X21901290Y-75250524D01*
X22038209Y-75329573D01*
X22038216Y-75329577D01*
X22190943Y-75370500D01*
X22190945Y-75370500D01*
X22349055Y-75370500D01*
X22349057Y-75370500D01*
X22501784Y-75329577D01*
X22557985Y-75297128D01*
X22625884Y-75280655D01*
X22632909Y-75281191D01*
X42184015Y-77334058D01*
X42208057Y-77340500D01*
X42245367Y-77340500D01*
X42259929Y-77342029D01*
X42282471Y-77344396D01*
X42282471Y-77344395D01*
X42282472Y-77344396D01*
X42297408Y-77342028D01*
X42316818Y-77340500D01*
X42966185Y-77340500D01*
X43016270Y-77351064D01*
X43065009Y-77372585D01*
X43090135Y-77375500D01*
X45449864Y-77375499D01*
X45449879Y-77375497D01*
X45449882Y-77375497D01*
X45474987Y-77372586D01*
X45474988Y-77372585D01*
X45474991Y-77372585D01*
X45577765Y-77327206D01*
X45657206Y-77247765D01*
X45702585Y-77144991D01*
X45705500Y-77119865D01*
X45705499Y-76620136D01*
X45705499Y-76620135D01*
X45705499Y-76620131D01*
X48564500Y-76620131D01*
X48564500Y-77119856D01*
X48564502Y-77119882D01*
X48567413Y-77144987D01*
X48567415Y-77144991D01*
X48612793Y-77247764D01*
X48612794Y-77247765D01*
X48692235Y-77327206D01*
X48795009Y-77372585D01*
X48820135Y-77375500D01*
X49405500Y-77375499D01*
X49472539Y-77395183D01*
X49518294Y-77447987D01*
X49529500Y-77499499D01*
X49529500Y-81040500D01*
X49509815Y-81107539D01*
X49457011Y-81153294D01*
X49405500Y-81164500D01*
X48820143Y-81164500D01*
X48820117Y-81164502D01*
X48795012Y-81167413D01*
X48795008Y-81167415D01*
X48692235Y-81212793D01*
X48612794Y-81292234D01*
X48567415Y-81395006D01*
X48567415Y-81395008D01*
X48564500Y-81420131D01*
X48564500Y-81919856D01*
X48564502Y-81919882D01*
X48567413Y-81944987D01*
X48567415Y-81944991D01*
X48612793Y-82047764D01*
X48612794Y-82047765D01*
X48692235Y-82127206D01*
X48795009Y-82172585D01*
X48820135Y-82175500D01*
X51179864Y-82175499D01*
X51179879Y-82175497D01*
X51179882Y-82175497D01*
X51204987Y-82172586D01*
X51204988Y-82172585D01*
X51204991Y-82172585D01*
X51242824Y-82155879D01*
X51253730Y-82151065D01*
X51303815Y-82140500D01*
X51966450Y-82140500D01*
X51994556Y-82144529D01*
X52028131Y-82140500D01*
X52061943Y-82140500D01*
X52061944Y-82140500D01*
X52080822Y-82135441D01*
X52098143Y-82132097D01*
X71644200Y-79786570D01*
X71713105Y-79798127D01*
X71720946Y-79802285D01*
X71768216Y-79829577D01*
X71920943Y-79870500D01*
X71920945Y-79870500D01*
X72079055Y-79870500D01*
X72079057Y-79870500D01*
X72231784Y-79829577D01*
X72368716Y-79750520D01*
X72480520Y-79638716D01*
X72559577Y-79501784D01*
X72600500Y-79349057D01*
X72600500Y-79190943D01*
X72559577Y-79038216D01*
X72559573Y-79038209D01*
X72480524Y-78901290D01*
X72480518Y-78901282D01*
X72368717Y-78789481D01*
X72368709Y-78789475D01*
X72231790Y-78710426D01*
X72231786Y-78710424D01*
X72231784Y-78710423D01*
X72079057Y-78669500D01*
X71920943Y-78669500D01*
X71768216Y-78710423D01*
X71768209Y-78710426D01*
X71631285Y-78789478D01*
X71603779Y-78816984D01*
X71542455Y-78850468D01*
X71530873Y-78852418D01*
X51979231Y-81198617D01*
X51964457Y-81199500D01*
X51303815Y-81199500D01*
X51253729Y-81188935D01*
X51204991Y-81167415D01*
X51198709Y-81166686D01*
X51179868Y-81164500D01*
X51179865Y-81164500D01*
X50594500Y-81164500D01*
X50527461Y-81144815D01*
X50481706Y-81092011D01*
X50470500Y-81040500D01*
X50470500Y-77499499D01*
X50490185Y-77432460D01*
X50542989Y-77386705D01*
X50594500Y-77375499D01*
X51179856Y-77375499D01*
X51179864Y-77375499D01*
X51179879Y-77375497D01*
X51179882Y-77375497D01*
X51204987Y-77372586D01*
X51204988Y-77372585D01*
X51204991Y-77372585D01*
X51307765Y-77327206D01*
X51387206Y-77247765D01*
X51432585Y-77144991D01*
X51435500Y-77119865D01*
X51435499Y-76620136D01*
X51435497Y-76620117D01*
X51432586Y-76595012D01*
X51432585Y-76595010D01*
X51432585Y-76595009D01*
X51387206Y-76492235D01*
X51307765Y-76412794D01*
X51277657Y-76399500D01*
X51204992Y-76367415D01*
X51179865Y-76364500D01*
X48820143Y-76364500D01*
X48820117Y-76364502D01*
X48795012Y-76367413D01*
X48795008Y-76367415D01*
X48692235Y-76412793D01*
X48612794Y-76492234D01*
X48567415Y-76595006D01*
X48567415Y-76595008D01*
X48564500Y-76620131D01*
X45705499Y-76620131D01*
X45705499Y-76620130D01*
X45702586Y-76595012D01*
X45702585Y-76595010D01*
X45702585Y-76595009D01*
X45657206Y-76492235D01*
X45577765Y-76412794D01*
X45547657Y-76399500D01*
X45474992Y-76367415D01*
X45449865Y-76364500D01*
X43090143Y-76364500D01*
X43090117Y-76364502D01*
X43065012Y-76367413D01*
X43065010Y-76367414D01*
X43016270Y-76388935D01*
X42966185Y-76399500D01*
X42301124Y-76399500D01*
X42288175Y-76398822D01*
X22733955Y-74345628D01*
X22669338Y-74319050D01*
X22659223Y-74309987D01*
X22638717Y-74289481D01*
X22638709Y-74289475D01*
X22501790Y-74210426D01*
X22501786Y-74210424D01*
X22501784Y-74210423D01*
X22349057Y-74169500D01*
X22190943Y-74169500D01*
X22038216Y-74210423D01*
X22038209Y-74210426D01*
X21901290Y-74289475D01*
X21901282Y-74289481D01*
X21789481Y-74401282D01*
X21789475Y-74401290D01*
X21710426Y-74538209D01*
X21710423Y-74538216D01*
X21669500Y-74690943D01*
X9500500Y-74690943D01*
X9500500Y-65690943D01*
X21669500Y-65690943D01*
X21669500Y-65849057D01*
X21701214Y-65967413D01*
X21710423Y-66001783D01*
X21710426Y-66001790D01*
X21789475Y-66138709D01*
X21789479Y-66138714D01*
X21789480Y-66138716D01*
X21901284Y-66250520D01*
X21901286Y-66250521D01*
X21901290Y-66250524D01*
X22038209Y-66329573D01*
X22038216Y-66329577D01*
X22190943Y-66370500D01*
X22190945Y-66370500D01*
X22349055Y-66370500D01*
X22349057Y-66370500D01*
X22361599Y-66367139D01*
X22431446Y-66368800D01*
X22446896Y-66374906D01*
X42051084Y-75686895D01*
X42088394Y-75708436D01*
X42106835Y-75713377D01*
X42124081Y-75721569D01*
X42153264Y-75726928D01*
X42161557Y-75728452D01*
X42161558Y-75728452D01*
X42166447Y-75729350D01*
X42208057Y-75740500D01*
X42227149Y-75740500D01*
X42245927Y-75743949D01*
X42283915Y-75740897D01*
X42293842Y-75740500D01*
X42966185Y-75740500D01*
X43016270Y-75751064D01*
X43065009Y-75772585D01*
X43090135Y-75775500D01*
X45449864Y-75775499D01*
X45449879Y-75775497D01*
X45449882Y-75775497D01*
X45474987Y-75772586D01*
X45474988Y-75772585D01*
X45474991Y-75772585D01*
X45577765Y-75727206D01*
X45657206Y-75647765D01*
X45702585Y-75544991D01*
X45705500Y-75519865D01*
X45705499Y-75020136D01*
X45705497Y-75020117D01*
X45702586Y-74995012D01*
X45702585Y-74995010D01*
X45702585Y-74995009D01*
X45657206Y-74892235D01*
X45577765Y-74812794D01*
X45547657Y-74799500D01*
X45474992Y-74767415D01*
X45449865Y-74764500D01*
X43090143Y-74764500D01*
X43090117Y-74764502D01*
X43065012Y-74767413D01*
X43065010Y-74767414D01*
X43016270Y-74788935D01*
X42966185Y-74799500D01*
X42404017Y-74799500D01*
X42350814Y-74787506D01*
X42308517Y-74767415D01*
X22878626Y-65538216D01*
X22845921Y-65522681D01*
X22793812Y-65476137D01*
X22791752Y-65472701D01*
X22750520Y-65401284D01*
X22638716Y-65289480D01*
X22638714Y-65289479D01*
X22638709Y-65289475D01*
X22501790Y-65210426D01*
X22501786Y-65210424D01*
X22501784Y-65210423D01*
X22349057Y-65169500D01*
X22190943Y-65169500D01*
X22038216Y-65210423D01*
X22038209Y-65210426D01*
X21901290Y-65289475D01*
X21901282Y-65289481D01*
X21789481Y-65401282D01*
X21789475Y-65401290D01*
X21710426Y-65538209D01*
X21710423Y-65538216D01*
X21669500Y-65690943D01*
X9500500Y-65690943D01*
X9500500Y-56690943D01*
X21669500Y-56690943D01*
X21669500Y-56849056D01*
X21710423Y-57001783D01*
X21710426Y-57001790D01*
X21789475Y-57138709D01*
X21789479Y-57138714D01*
X21789480Y-57138716D01*
X21901284Y-57250520D01*
X21901286Y-57250521D01*
X21901290Y-57250524D01*
X22038209Y-57329573D01*
X22038216Y-57329577D01*
X22190943Y-57370500D01*
X22206303Y-57370500D01*
X22273342Y-57390185D01*
X22286335Y-57399785D01*
X41951252Y-74016640D01*
X41981106Y-74046494D01*
X41998392Y-74056474D01*
X42006834Y-74063608D01*
X42006838Y-74063610D01*
X42013640Y-74069358D01*
X42013641Y-74069358D01*
X42013642Y-74069359D01*
X42047128Y-74085114D01*
X42056339Y-74089929D01*
X42088394Y-74108436D01*
X42107676Y-74113602D01*
X42125736Y-74122100D01*
X42167281Y-74129574D01*
X42208057Y-74140500D01*
X42216949Y-74140500D01*
X42238903Y-74142459D01*
X42247664Y-74144035D01*
X42281135Y-74141222D01*
X42284562Y-74140935D01*
X42294942Y-74140500D01*
X42966185Y-74140500D01*
X43016270Y-74151064D01*
X43065009Y-74172585D01*
X43090135Y-74175500D01*
X45449864Y-74175499D01*
X45449879Y-74175497D01*
X45449882Y-74175497D01*
X45474987Y-74172586D01*
X45474988Y-74172585D01*
X45474991Y-74172585D01*
X45577765Y-74127206D01*
X45657206Y-74047765D01*
X45702585Y-73944991D01*
X45705500Y-73919865D01*
X45705499Y-73420136D01*
X45705497Y-73420117D01*
X45702586Y-73395012D01*
X45702585Y-73395010D01*
X45702585Y-73395009D01*
X45657206Y-73292235D01*
X45577765Y-73212794D01*
X45547657Y-73199500D01*
X45474992Y-73167415D01*
X45449865Y-73164500D01*
X43090143Y-73164500D01*
X43090117Y-73164502D01*
X43065012Y-73167413D01*
X43065010Y-73167414D01*
X43016270Y-73188935D01*
X42966185Y-73199500D01*
X42487544Y-73199500D01*
X42420505Y-73179815D01*
X42407511Y-73170214D01*
X41756525Y-72620131D01*
X48564500Y-72620131D01*
X48564500Y-73119856D01*
X48564502Y-73119882D01*
X48567413Y-73144987D01*
X48567415Y-73144991D01*
X48612793Y-73247764D01*
X48612794Y-73247765D01*
X48692235Y-73327206D01*
X48795009Y-73372585D01*
X48820135Y-73375500D01*
X51179864Y-73375499D01*
X51179879Y-73375497D01*
X51179882Y-73375497D01*
X51204987Y-73372586D01*
X51204988Y-73372585D01*
X51204991Y-73372585D01*
X51242824Y-73355879D01*
X51253730Y-73351065D01*
X51303815Y-73340500D01*
X51580703Y-73340500D01*
X51642702Y-73357113D01*
X51768209Y-73429573D01*
X51768216Y-73429577D01*
X51920943Y-73470500D01*
X51920945Y-73470500D01*
X52079055Y-73470500D01*
X52079057Y-73470500D01*
X52231784Y-73429577D01*
X52368716Y-73350520D01*
X52480520Y-73238716D01*
X52559577Y-73101784D01*
X52600500Y-72949057D01*
X52600500Y-72790943D01*
X52559577Y-72638216D01*
X52534630Y-72595006D01*
X52480524Y-72501290D01*
X52480518Y-72501282D01*
X52368717Y-72389481D01*
X52368709Y-72389475D01*
X52231790Y-72310426D01*
X52231786Y-72310424D01*
X52231784Y-72310423D01*
X52079057Y-72269500D01*
X51920943Y-72269500D01*
X51768216Y-72310423D01*
X51768209Y-72310426D01*
X51642702Y-72382887D01*
X51580703Y-72399500D01*
X51303815Y-72399500D01*
X51253729Y-72388935D01*
X51204991Y-72367415D01*
X51179865Y-72364500D01*
X48820143Y-72364500D01*
X48820117Y-72364502D01*
X48795012Y-72367413D01*
X48795008Y-72367415D01*
X48692235Y-72412793D01*
X48612794Y-72492234D01*
X48567415Y-72595006D01*
X48567415Y-72595008D01*
X48564500Y-72620131D01*
X41756525Y-72620131D01*
X22889964Y-56677887D01*
X22851463Y-56619582D01*
X22850222Y-56615266D01*
X22829577Y-56538216D01*
X22829573Y-56538209D01*
X22750524Y-56401290D01*
X22750518Y-56401282D01*
X22638717Y-56289481D01*
X22638709Y-56289475D01*
X22501790Y-56210426D01*
X22501786Y-56210424D01*
X22501784Y-56210423D01*
X22349057Y-56169500D01*
X22190943Y-56169500D01*
X22038216Y-56210423D01*
X22038209Y-56210426D01*
X21901290Y-56289475D01*
X21901282Y-56289481D01*
X21789481Y-56401282D01*
X21789475Y-56401290D01*
X21710426Y-56538209D01*
X21710423Y-56538216D01*
X21669500Y-56690943D01*
X9500500Y-56690943D01*
X9500500Y-38690943D01*
X21669500Y-38690943D01*
X21669500Y-38849057D01*
X21670790Y-38853869D01*
X21710423Y-39001783D01*
X21710426Y-39001790D01*
X21789475Y-39138709D01*
X21789479Y-39138714D01*
X21789480Y-39138716D01*
X21901284Y-39250520D01*
X22038216Y-39329577D01*
X22038217Y-39329577D01*
X22039561Y-39330353D01*
X22083863Y-39373897D01*
X41601340Y-71870499D01*
X41864572Y-72308779D01*
X41893506Y-72358894D01*
X41896422Y-72361810D01*
X41898546Y-72365346D01*
X41898547Y-72365347D01*
X41898549Y-72365350D01*
X41939458Y-72404870D01*
X41940927Y-72406315D01*
X41981107Y-72446495D01*
X41982503Y-72447566D01*
X41982504Y-72447566D01*
X41985168Y-72449610D01*
X41985169Y-72449611D01*
X41985183Y-72449622D01*
X41985775Y-72450077D01*
X41986236Y-72450379D01*
X41987648Y-72451424D01*
X42037323Y-72478973D01*
X42039182Y-72480025D01*
X42088388Y-72508433D01*
X42088390Y-72508434D01*
X42088394Y-72508436D01*
X42088397Y-72508436D01*
X42089998Y-72509100D01*
X42089997Y-72509100D01*
X42093137Y-72510400D01*
X42093201Y-72510426D01*
X42093862Y-72510700D01*
X42094363Y-72510865D01*
X42095987Y-72511505D01*
X42095989Y-72511506D01*
X42152158Y-72525521D01*
X42208057Y-72540500D01*
X42212184Y-72540500D01*
X42216188Y-72541499D01*
X42272997Y-72540518D01*
X42275137Y-72540500D01*
X42966185Y-72540500D01*
X43016270Y-72551064D01*
X43065009Y-72572585D01*
X43090135Y-72575500D01*
X45449864Y-72575499D01*
X45449879Y-72575497D01*
X45449882Y-72575497D01*
X45474987Y-72572586D01*
X45474988Y-72572585D01*
X45474991Y-72572585D01*
X45577765Y-72527206D01*
X45657206Y-72447765D01*
X45702585Y-72344991D01*
X45705500Y-72319865D01*
X45705499Y-71820136D01*
X45705497Y-71820117D01*
X45702586Y-71795012D01*
X45702585Y-71795010D01*
X45702585Y-71795009D01*
X45657206Y-71692235D01*
X45577765Y-71612794D01*
X45547657Y-71599500D01*
X45474992Y-71567415D01*
X45449865Y-71564500D01*
X43090143Y-71564500D01*
X43090117Y-71564502D01*
X43065012Y-71567413D01*
X43065010Y-71567414D01*
X43016270Y-71588935D01*
X42966185Y-71599500D01*
X42606426Y-71599500D01*
X42539387Y-71579815D01*
X42500125Y-71539344D01*
X42488425Y-71519864D01*
X42188285Y-71020131D01*
X48564500Y-71020131D01*
X48564500Y-71519856D01*
X48564502Y-71519882D01*
X48567413Y-71544987D01*
X48567415Y-71544991D01*
X48612793Y-71647764D01*
X48612794Y-71647765D01*
X48692235Y-71727206D01*
X48795009Y-71772585D01*
X48820135Y-71775500D01*
X51179864Y-71775499D01*
X51179879Y-71775497D01*
X51179882Y-71775497D01*
X51204987Y-71772586D01*
X51204988Y-71772585D01*
X51204991Y-71772585D01*
X51242824Y-71755879D01*
X51253730Y-71751065D01*
X51303815Y-71740500D01*
X51580703Y-71740500D01*
X51642702Y-71757113D01*
X51768209Y-71829573D01*
X51768216Y-71829577D01*
X51920943Y-71870500D01*
X51920945Y-71870500D01*
X52079055Y-71870500D01*
X52079057Y-71870500D01*
X52231784Y-71829577D01*
X52368716Y-71750520D01*
X52480520Y-71638716D01*
X52559577Y-71501784D01*
X52600500Y-71349057D01*
X52600500Y-71190943D01*
X52559577Y-71038216D01*
X52534630Y-70995006D01*
X52480524Y-70901290D01*
X52480518Y-70901282D01*
X52368717Y-70789481D01*
X52368709Y-70789475D01*
X52231790Y-70710426D01*
X52231786Y-70710424D01*
X52231784Y-70710423D01*
X52079057Y-70669500D01*
X51920943Y-70669500D01*
X51768216Y-70710423D01*
X51768209Y-70710426D01*
X51642702Y-70782887D01*
X51580703Y-70799500D01*
X51303815Y-70799500D01*
X51253729Y-70788935D01*
X51204991Y-70767415D01*
X51179865Y-70764500D01*
X48820143Y-70764500D01*
X48820117Y-70764502D01*
X48795012Y-70767413D01*
X48795008Y-70767415D01*
X48692235Y-70812793D01*
X48612794Y-70892234D01*
X48567415Y-70995006D01*
X48567415Y-70995008D01*
X48564500Y-71020131D01*
X42188285Y-71020131D01*
X41227325Y-69420131D01*
X48564500Y-69420131D01*
X48564500Y-69919856D01*
X48564502Y-69919882D01*
X48567413Y-69944987D01*
X48567415Y-69944991D01*
X48612793Y-70047764D01*
X48612794Y-70047765D01*
X48692235Y-70127206D01*
X48795009Y-70172585D01*
X48820135Y-70175500D01*
X51179864Y-70175499D01*
X51179879Y-70175497D01*
X51179882Y-70175497D01*
X51204987Y-70172586D01*
X51204988Y-70172585D01*
X51204991Y-70172585D01*
X51242824Y-70155879D01*
X51253730Y-70151065D01*
X51303815Y-70140500D01*
X51991092Y-70140500D01*
X51994809Y-70140555D01*
X71562969Y-70727600D01*
X71623686Y-70747424D01*
X71624245Y-70746457D01*
X71628828Y-70749103D01*
X71629385Y-70749285D01*
X71630324Y-70749967D01*
X71768209Y-70829573D01*
X71768216Y-70829577D01*
X71920943Y-70870500D01*
X71920945Y-70870500D01*
X72079055Y-70870500D01*
X72079057Y-70870500D01*
X72231784Y-70829577D01*
X72368716Y-70750520D01*
X72480520Y-70638716D01*
X72559577Y-70501784D01*
X72600500Y-70349057D01*
X72600500Y-70190943D01*
X72559577Y-70038216D01*
X72505752Y-69944987D01*
X72480524Y-69901290D01*
X72480518Y-69901282D01*
X72368717Y-69789481D01*
X72368709Y-69789475D01*
X72231790Y-69710426D01*
X72231786Y-69710424D01*
X72231784Y-69710423D01*
X72079057Y-69669500D01*
X71920943Y-69669500D01*
X71768216Y-69710423D01*
X71768211Y-69710425D01*
X71663852Y-69770675D01*
X71598136Y-69787231D01*
X52083293Y-69201786D01*
X52083293Y-69201785D01*
X52068855Y-69201352D01*
X52061943Y-69199500D01*
X52007066Y-69199500D01*
X52005198Y-69199444D01*
X52005194Y-69199444D01*
X51952198Y-69197853D01*
X51944111Y-69198673D01*
X51944038Y-69197956D01*
X51930786Y-69199500D01*
X51303815Y-69199500D01*
X51253729Y-69188935D01*
X51204991Y-69167415D01*
X51179865Y-69164500D01*
X48820143Y-69164500D01*
X48820117Y-69164502D01*
X48795012Y-69167413D01*
X48795008Y-69167415D01*
X48692235Y-69212793D01*
X48612794Y-69292234D01*
X48567415Y-69395006D01*
X48567415Y-69395008D01*
X48564500Y-69420131D01*
X41227325Y-69420131D01*
X40266364Y-67820131D01*
X48564500Y-67820131D01*
X48564500Y-68319856D01*
X48564502Y-68319882D01*
X48567413Y-68344987D01*
X48567415Y-68344991D01*
X48612793Y-68447764D01*
X48612794Y-68447765D01*
X48692235Y-68527206D01*
X48795009Y-68572585D01*
X48820135Y-68575500D01*
X51179864Y-68575499D01*
X51179879Y-68575497D01*
X51179882Y-68575497D01*
X51204987Y-68572586D01*
X51204988Y-68572585D01*
X51204991Y-68572585D01*
X51242824Y-68555879D01*
X51253730Y-68551065D01*
X51303815Y-68540500D01*
X51953776Y-68540500D01*
X51969194Y-68543559D01*
X52015517Y-68540500D01*
X52061943Y-68540500D01*
X52065344Y-68539588D01*
X52089294Y-68535628D01*
X52089625Y-68535606D01*
X52092809Y-68535396D01*
X52132919Y-68521757D01*
X52140670Y-68519404D01*
X52181606Y-68508436D01*
X52184664Y-68506670D01*
X52206749Y-68496655D01*
X71759187Y-61848826D01*
X71828994Y-61845884D01*
X71831195Y-61846452D01*
X71840059Y-61848827D01*
X71920943Y-61870500D01*
X71920945Y-61870500D01*
X72079055Y-61870500D01*
X72079057Y-61870500D01*
X72231784Y-61829577D01*
X72368716Y-61750520D01*
X72480520Y-61638716D01*
X72559577Y-61501784D01*
X72600500Y-61349057D01*
X72600500Y-61190943D01*
X72559577Y-61038216D01*
X72559573Y-61038209D01*
X72480524Y-60901290D01*
X72480518Y-60901282D01*
X72368717Y-60789481D01*
X72368709Y-60789475D01*
X72231790Y-60710426D01*
X72231786Y-60710424D01*
X72231784Y-60710423D01*
X72079057Y-60669500D01*
X71920943Y-60669500D01*
X71768216Y-60710423D01*
X71768209Y-60710426D01*
X71631290Y-60789475D01*
X71631286Y-60789478D01*
X71519479Y-60901284D01*
X71519477Y-60901286D01*
X71517549Y-60904627D01*
X71515185Y-60906879D01*
X71514532Y-60907732D01*
X71514399Y-60907629D01*
X71466978Y-60952839D01*
X71450082Y-60960019D01*
X53766072Y-66972584D01*
X52025138Y-67564502D01*
X51941614Y-67592900D01*
X51901698Y-67599500D01*
X51303815Y-67599500D01*
X51253729Y-67588935D01*
X51204991Y-67567415D01*
X51179865Y-67564500D01*
X48820143Y-67564500D01*
X48820117Y-67564502D01*
X48795012Y-67567413D01*
X48795008Y-67567415D01*
X48692235Y-67612793D01*
X48612794Y-67692234D01*
X48567415Y-67795006D01*
X48567415Y-67795008D01*
X48564500Y-67820131D01*
X40266364Y-67820131D01*
X39305403Y-66220131D01*
X48564500Y-66220131D01*
X48564500Y-66719856D01*
X48564502Y-66719882D01*
X48567413Y-66744987D01*
X48567415Y-66744991D01*
X48612793Y-66847764D01*
X48612794Y-66847765D01*
X48692235Y-66927206D01*
X48795009Y-66972585D01*
X48820135Y-66975500D01*
X51179864Y-66975499D01*
X51179879Y-66975497D01*
X51179882Y-66975497D01*
X51204987Y-66972586D01*
X51204988Y-66972585D01*
X51204991Y-66972585D01*
X51242824Y-66955879D01*
X51253730Y-66951065D01*
X51303815Y-66940500D01*
X51960383Y-66940500D01*
X51982401Y-66944234D01*
X52022087Y-66940500D01*
X52061943Y-66940500D01*
X52083511Y-66934720D01*
X52105742Y-66932629D01*
X52143106Y-66918751D01*
X52181606Y-66908436D01*
X52191906Y-66902488D01*
X52210724Y-66893639D01*
X52221875Y-66889498D01*
X52249632Y-66869788D01*
X52259404Y-66863518D01*
X52288894Y-66846494D01*
X52297303Y-66838084D01*
X52313196Y-66824659D01*
X71934700Y-52893392D01*
X72000758Y-52870632D01*
X72006486Y-52870500D01*
X72079055Y-52870500D01*
X72079057Y-52870500D01*
X72231784Y-52829577D01*
X72368716Y-52750520D01*
X72480520Y-52638716D01*
X72559577Y-52501784D01*
X72600500Y-52349057D01*
X72600500Y-52190943D01*
X72559577Y-52038216D01*
X72559573Y-52038209D01*
X72480524Y-51901290D01*
X72480518Y-51901282D01*
X72368717Y-51789481D01*
X72368709Y-51789475D01*
X72231790Y-51710426D01*
X72231786Y-51710424D01*
X72231784Y-51710423D01*
X72079057Y-51669500D01*
X71920943Y-51669500D01*
X71768216Y-51710423D01*
X71768209Y-51710426D01*
X71631290Y-51789475D01*
X71631282Y-51789481D01*
X71519481Y-51901282D01*
X71519475Y-51901290D01*
X71440426Y-52038209D01*
X71440423Y-52038215D01*
X71434759Y-52059353D01*
X71398392Y-52119012D01*
X71386771Y-52128362D01*
X56075486Y-62999375D01*
X51899253Y-65964501D01*
X51882202Y-65976607D01*
X51816144Y-65999368D01*
X51810416Y-65999500D01*
X51303815Y-65999500D01*
X51253729Y-65988935D01*
X51204991Y-65967415D01*
X51179865Y-65964500D01*
X48820143Y-65964500D01*
X48820117Y-65964502D01*
X48795012Y-65967413D01*
X48795008Y-65967415D01*
X48692235Y-66012793D01*
X48612794Y-66092234D01*
X48567415Y-66195006D01*
X48567415Y-66195008D01*
X48564500Y-66220131D01*
X39305403Y-66220131D01*
X36422520Y-61420131D01*
X42834500Y-61420131D01*
X42834500Y-61919856D01*
X42834502Y-61919882D01*
X42837413Y-61944987D01*
X42837415Y-61944991D01*
X42870496Y-62019913D01*
X42879568Y-62089191D01*
X42870497Y-62120085D01*
X42837415Y-62195009D01*
X42834500Y-62220131D01*
X42834500Y-62719856D01*
X42834502Y-62719882D01*
X42837413Y-62744987D01*
X42837415Y-62744991D01*
X42882793Y-62847764D01*
X42882794Y-62847765D01*
X42962235Y-62927206D01*
X43065009Y-62972585D01*
X43090135Y-62975500D01*
X45449864Y-62975499D01*
X45449879Y-62975497D01*
X45449882Y-62975497D01*
X45474987Y-62972586D01*
X45474988Y-62972585D01*
X45474991Y-62972585D01*
X45577765Y-62927206D01*
X45657206Y-62847765D01*
X45702585Y-62744991D01*
X45705500Y-62719865D01*
X45705499Y-62220136D01*
X45705497Y-62220117D01*
X45702586Y-62195012D01*
X45702585Y-62195011D01*
X45702585Y-62195009D01*
X45669502Y-62120084D01*
X45660431Y-62050809D01*
X45669501Y-62019918D01*
X45702585Y-61944991D01*
X45705500Y-61919865D01*
X45705499Y-61420136D01*
X45705499Y-61420135D01*
X45705499Y-61420131D01*
X48564500Y-61420131D01*
X48564500Y-61919856D01*
X48564502Y-61919882D01*
X48567413Y-61944987D01*
X48567415Y-61944991D01*
X48612793Y-62047764D01*
X48612794Y-62047765D01*
X48692235Y-62127206D01*
X48795009Y-62172585D01*
X48820135Y-62175500D01*
X51179864Y-62175499D01*
X51179879Y-62175497D01*
X51179882Y-62175497D01*
X51204987Y-62172586D01*
X51204988Y-62172585D01*
X51204991Y-62172585D01*
X51242824Y-62155879D01*
X51253730Y-62151065D01*
X51303815Y-62140500D01*
X51930282Y-62140500D01*
X51932585Y-62140521D01*
X51944075Y-62140734D01*
X51948035Y-62141706D01*
X51970621Y-62141227D01*
X51973061Y-62141273D01*
X52004142Y-62151030D01*
X52035573Y-62159540D01*
X52037286Y-62161434D01*
X52039724Y-62162200D01*
X52060592Y-62187207D01*
X52082436Y-62211363D01*
X52082853Y-62213883D01*
X52084490Y-62215845D01*
X52088525Y-62248167D01*
X52093842Y-62280295D01*
X52092860Y-62282881D01*
X52093147Y-62285176D01*
X52087592Y-62296763D01*
X52072836Y-62335651D01*
X51789907Y-62745899D01*
X51735642Y-62789911D01*
X51687829Y-62799500D01*
X51303815Y-62799500D01*
X51253729Y-62788935D01*
X51204991Y-62767415D01*
X51179865Y-62764500D01*
X48820143Y-62764500D01*
X48820117Y-62764502D01*
X48795012Y-62767413D01*
X48795008Y-62767415D01*
X48692235Y-62812793D01*
X48612794Y-62892234D01*
X48567415Y-62995006D01*
X48567415Y-62995008D01*
X48564500Y-63020131D01*
X48564500Y-63519856D01*
X48564502Y-63519882D01*
X48567413Y-63544987D01*
X48567415Y-63544991D01*
X48612793Y-63647764D01*
X48612794Y-63647765D01*
X48692235Y-63727206D01*
X48795009Y-63772585D01*
X48820135Y-63775500D01*
X51179864Y-63775499D01*
X51179879Y-63775497D01*
X51179882Y-63775497D01*
X51204987Y-63772586D01*
X51204988Y-63772585D01*
X51204991Y-63772585D01*
X51242824Y-63755879D01*
X51253730Y-63751065D01*
X51303815Y-63740500D01*
X51981135Y-63740500D01*
X52024073Y-63743949D01*
X52042851Y-63740500D01*
X52061943Y-63740500D01*
X52098766Y-63730632D01*
X52108416Y-63728457D01*
X52112080Y-63727784D01*
X52181569Y-63735040D01*
X52236107Y-63778713D01*
X52258376Y-63844939D01*
X52241305Y-63912691D01*
X52225455Y-63933993D01*
X51831239Y-64359747D01*
X51771249Y-64395564D01*
X51740253Y-64399500D01*
X51303815Y-64399500D01*
X51253729Y-64388935D01*
X51204991Y-64367415D01*
X51179865Y-64364500D01*
X48820143Y-64364500D01*
X48820117Y-64364502D01*
X48795012Y-64367413D01*
X48795008Y-64367415D01*
X48692235Y-64412793D01*
X48612794Y-64492234D01*
X48567415Y-64595006D01*
X48567415Y-64595008D01*
X48564500Y-64620131D01*
X48564500Y-65119856D01*
X48564502Y-65119882D01*
X48567413Y-65144987D01*
X48567415Y-65144991D01*
X48612793Y-65247764D01*
X48612794Y-65247765D01*
X48692235Y-65327206D01*
X48795009Y-65372585D01*
X48820135Y-65375500D01*
X51179864Y-65375499D01*
X51179879Y-65375497D01*
X51179882Y-65375497D01*
X51204987Y-65372586D01*
X51204988Y-65372585D01*
X51204991Y-65372585D01*
X51242824Y-65355879D01*
X51253730Y-65351065D01*
X51303815Y-65340500D01*
X51947236Y-65340500D01*
X51956186Y-65342533D01*
X52009047Y-65340500D01*
X52061943Y-65340500D01*
X52066298Y-65339332D01*
X52070808Y-65338123D01*
X52079980Y-65337772D01*
X52130514Y-65322126D01*
X52157409Y-65314919D01*
X52181600Y-65308438D01*
X52181601Y-65308437D01*
X52181606Y-65308436D01*
X52189555Y-65303846D01*
X52198323Y-65301132D01*
X52243081Y-65272943D01*
X52288894Y-65246494D01*
X52295384Y-65240003D01*
X52303150Y-65235113D01*
X52339087Y-65196300D01*
X52376494Y-65158894D01*
X52376497Y-65158887D01*
X52381440Y-65152447D01*
X52381735Y-65152673D01*
X52390526Y-65140745D01*
X72062909Y-43894572D01*
X72121795Y-43859047D01*
X72231784Y-43829577D01*
X72368716Y-43750520D01*
X72480520Y-43638716D01*
X72559577Y-43501784D01*
X72600500Y-43349057D01*
X72600500Y-43190943D01*
X72559577Y-43038216D01*
X72559573Y-43038209D01*
X72480524Y-42901290D01*
X72480518Y-42901282D01*
X72368717Y-42789481D01*
X72368709Y-42789475D01*
X72231790Y-42710426D01*
X72231786Y-42710424D01*
X72231784Y-42710423D01*
X72079057Y-42669500D01*
X71920943Y-42669500D01*
X71768216Y-42710423D01*
X71768209Y-42710426D01*
X71631290Y-42789475D01*
X71631282Y-42789481D01*
X71519481Y-42901282D01*
X71519475Y-42901290D01*
X71440426Y-43038209D01*
X71440423Y-43038216D01*
X71399498Y-43190948D01*
X71399264Y-43192732D01*
X71398647Y-43194124D01*
X71397397Y-43198793D01*
X71396668Y-43198597D01*
X71370994Y-43256627D01*
X71367312Y-43260787D01*
X52961725Y-63138822D01*
X52901734Y-63174639D01*
X52831903Y-63172336D01*
X52774401Y-63132646D01*
X52747486Y-63068168D01*
X52759703Y-62999375D01*
X52768661Y-62984176D01*
X72149255Y-34882313D01*
X72203520Y-34838302D01*
X72219235Y-34832939D01*
X72231784Y-34829577D01*
X72368716Y-34750520D01*
X72480520Y-34638716D01*
X72559577Y-34501784D01*
X72600500Y-34349057D01*
X72600500Y-34190943D01*
X72559577Y-34038216D01*
X72559573Y-34038209D01*
X72480524Y-33901290D01*
X72480518Y-33901282D01*
X72368717Y-33789481D01*
X72368709Y-33789475D01*
X72231790Y-33710426D01*
X72231786Y-33710424D01*
X72231784Y-33710423D01*
X72079057Y-33669500D01*
X71920943Y-33669500D01*
X71768216Y-33710423D01*
X71768209Y-33710426D01*
X71631290Y-33789475D01*
X71631282Y-33789481D01*
X71519481Y-33901282D01*
X71519475Y-33901290D01*
X71440426Y-34038209D01*
X71440423Y-34038216D01*
X71399500Y-34190943D01*
X71399500Y-34273377D01*
X71379815Y-34340416D01*
X71377578Y-34343776D01*
X53944521Y-59621708D01*
X53890256Y-59665720D01*
X53820811Y-59673408D01*
X53758233Y-59642330D01*
X53722392Y-59582353D01*
X53724666Y-59512521D01*
X53733761Y-59491608D01*
X72211589Y-25861961D01*
X72258262Y-25814290D01*
X72368716Y-25750520D01*
X72480520Y-25638716D01*
X72559577Y-25501784D01*
X72600500Y-25349057D01*
X72600500Y-25190943D01*
X72559577Y-25038216D01*
X72559573Y-25038209D01*
X72480524Y-24901290D01*
X72480518Y-24901282D01*
X72368717Y-24789481D01*
X72368709Y-24789475D01*
X72231790Y-24710426D01*
X72231786Y-24710424D01*
X72231784Y-24710423D01*
X72079057Y-24669500D01*
X71920943Y-24669500D01*
X71768216Y-24710423D01*
X71768209Y-24710426D01*
X71631290Y-24789475D01*
X71631282Y-24789481D01*
X71519481Y-24901282D01*
X71519475Y-24901290D01*
X71440426Y-25038209D01*
X71440423Y-25038216D01*
X71399500Y-25190943D01*
X71399500Y-25354029D01*
X71384176Y-25413741D01*
X51756996Y-61135212D01*
X51707461Y-61184488D01*
X51648320Y-61199500D01*
X51303815Y-61199500D01*
X51253729Y-61188935D01*
X51204991Y-61167415D01*
X51179865Y-61164500D01*
X48820143Y-61164500D01*
X48820117Y-61164502D01*
X48795012Y-61167413D01*
X48795008Y-61167415D01*
X48692235Y-61212793D01*
X48612794Y-61292234D01*
X48567415Y-61395006D01*
X48567415Y-61395008D01*
X48564500Y-61420131D01*
X45705499Y-61420131D01*
X45705499Y-61420130D01*
X45702586Y-61395012D01*
X45702585Y-61395010D01*
X45702585Y-61395009D01*
X45657206Y-61292235D01*
X45577765Y-61212794D01*
X45528282Y-61190945D01*
X45474992Y-61167415D01*
X45449865Y-61164500D01*
X43090143Y-61164500D01*
X43090117Y-61164502D01*
X43065012Y-61167413D01*
X43065008Y-61167415D01*
X42962235Y-61212793D01*
X42882794Y-61292234D01*
X42837415Y-61395006D01*
X42837415Y-61395008D01*
X42834500Y-61420131D01*
X36422520Y-61420131D01*
X35047121Y-59130092D01*
X49044500Y-59130092D01*
X49044500Y-59279907D01*
X49073723Y-59426822D01*
X49073725Y-59426830D01*
X49131051Y-59565229D01*
X49131056Y-59565238D01*
X49214280Y-59689790D01*
X49214283Y-59689794D01*
X49320205Y-59795716D01*
X49320209Y-59795719D01*
X49444761Y-59878943D01*
X49444767Y-59878946D01*
X49444768Y-59878947D01*
X49583170Y-59936275D01*
X49730092Y-59965499D01*
X49730096Y-59965500D01*
X49730097Y-59965500D01*
X49879904Y-59965500D01*
X49879905Y-59965499D01*
X50026830Y-59936275D01*
X50165232Y-59878947D01*
X50289791Y-59795719D01*
X50395719Y-59689791D01*
X50478947Y-59565232D01*
X50536275Y-59426830D01*
X50565500Y-59279903D01*
X50565500Y-59130097D01*
X50536275Y-58983170D01*
X50478947Y-58844768D01*
X50478946Y-58844767D01*
X50478943Y-58844761D01*
X50395719Y-58720209D01*
X50395716Y-58720205D01*
X50289794Y-58614283D01*
X50289790Y-58614280D01*
X50165238Y-58531056D01*
X50165229Y-58531051D01*
X50026830Y-58473725D01*
X50026822Y-58473723D01*
X49879907Y-58444500D01*
X49879903Y-58444500D01*
X49730097Y-58444500D01*
X49730092Y-58444500D01*
X49583177Y-58473723D01*
X49583169Y-58473725D01*
X49444770Y-58531051D01*
X49444761Y-58531056D01*
X49320209Y-58614280D01*
X49320205Y-58614283D01*
X49214283Y-58720205D01*
X49214280Y-58720209D01*
X49131056Y-58844761D01*
X49131051Y-58844770D01*
X49073725Y-58983169D01*
X49073723Y-58983177D01*
X49044500Y-59130092D01*
X35047121Y-59130092D01*
X30638346Y-51789481D01*
X22888199Y-38885485D01*
X22870500Y-38821641D01*
X22870500Y-38690945D01*
X22870500Y-38690943D01*
X22829577Y-38538216D01*
X22829573Y-38538209D01*
X22750524Y-38401290D01*
X22750518Y-38401282D01*
X22638717Y-38289481D01*
X22638709Y-38289475D01*
X22501790Y-38210426D01*
X22501786Y-38210424D01*
X22501784Y-38210423D01*
X22349057Y-38169500D01*
X22190943Y-38169500D01*
X22038216Y-38210423D01*
X22038209Y-38210426D01*
X21901290Y-38289475D01*
X21901282Y-38289481D01*
X21789481Y-38401282D01*
X21789475Y-38401290D01*
X21710426Y-38538209D01*
X21710423Y-38538216D01*
X21669500Y-38690943D01*
X9500500Y-38690943D01*
X9500500Y-14878711D01*
X16419500Y-14878711D01*
X16419500Y-15121288D01*
X16451161Y-15361785D01*
X16513947Y-15596104D01*
X16606773Y-15820205D01*
X16606776Y-15820212D01*
X16728064Y-16030289D01*
X16728066Y-16030292D01*
X16728067Y-16030293D01*
X16875733Y-16222736D01*
X16875739Y-16222743D01*
X17047256Y-16394260D01*
X17047262Y-16394265D01*
X17239711Y-16541936D01*
X17449788Y-16663224D01*
X17673900Y-16756054D01*
X17908211Y-16818838D01*
X18088586Y-16842584D01*
X18148711Y-16850500D01*
X18148712Y-16850500D01*
X18391289Y-16850500D01*
X18439388Y-16844167D01*
X18631789Y-16818838D01*
X18866100Y-16756054D01*
X19090212Y-16663224D01*
X19300289Y-16541936D01*
X19492738Y-16394265D01*
X19664265Y-16222738D01*
X19811936Y-16030289D01*
X19933224Y-15820212D01*
X20026054Y-15596100D01*
X20088838Y-15361789D01*
X20120500Y-15121288D01*
X20120500Y-14878712D01*
X20120500Y-14878711D01*
X74149500Y-14878711D01*
X74149500Y-15121288D01*
X74181161Y-15361785D01*
X74243947Y-15596104D01*
X74336773Y-15820205D01*
X74336776Y-15820212D01*
X74458064Y-16030289D01*
X74458066Y-16030292D01*
X74458067Y-16030293D01*
X74605733Y-16222736D01*
X74605739Y-16222743D01*
X74777256Y-16394260D01*
X74777262Y-16394265D01*
X74969711Y-16541936D01*
X75179788Y-16663224D01*
X75403900Y-16756054D01*
X75638211Y-16818838D01*
X75818586Y-16842584D01*
X75878711Y-16850500D01*
X75878712Y-16850500D01*
X76121289Y-16850500D01*
X76169388Y-16844167D01*
X76361789Y-16818838D01*
X76596100Y-16756054D01*
X76820212Y-16663224D01*
X77030289Y-16541936D01*
X77222738Y-16394265D01*
X77394265Y-16222738D01*
X77541936Y-16030289D01*
X77663224Y-15820212D01*
X77756054Y-15596100D01*
X77818838Y-15361789D01*
X77850500Y-15121288D01*
X77850500Y-14878712D01*
X77818838Y-14638211D01*
X77756054Y-14403900D01*
X77663224Y-14179788D01*
X77541936Y-13969711D01*
X77394265Y-13777262D01*
X77394260Y-13777256D01*
X77222743Y-13605739D01*
X77222736Y-13605733D01*
X77030293Y-13458067D01*
X77030292Y-13458066D01*
X77030289Y-13458064D01*
X76820212Y-13336776D01*
X76820205Y-13336773D01*
X76596104Y-13243947D01*
X76361785Y-13181161D01*
X76121289Y-13149500D01*
X76121288Y-13149500D01*
X75878712Y-13149500D01*
X75878711Y-13149500D01*
X75638214Y-13181161D01*
X75403895Y-13243947D01*
X75179794Y-13336773D01*
X75179785Y-13336777D01*
X74969706Y-13458067D01*
X74777263Y-13605733D01*
X74777256Y-13605739D01*
X74605739Y-13777256D01*
X74605733Y-13777263D01*
X74458067Y-13969706D01*
X74336777Y-14179785D01*
X74336773Y-14179794D01*
X74243947Y-14403895D01*
X74181161Y-14638214D01*
X74149500Y-14878711D01*
X20120500Y-14878711D01*
X20088838Y-14638211D01*
X20026054Y-14403900D01*
X19933224Y-14179788D01*
X19811936Y-13969711D01*
X19664265Y-13777262D01*
X19664260Y-13777256D01*
X19492743Y-13605739D01*
X19492736Y-13605733D01*
X19300293Y-13458067D01*
X19300292Y-13458066D01*
X19300289Y-13458064D01*
X19090212Y-13336776D01*
X19090205Y-13336773D01*
X18866104Y-13243947D01*
X18631785Y-13181161D01*
X18391289Y-13149500D01*
X18391288Y-13149500D01*
X18148712Y-13149500D01*
X18148711Y-13149500D01*
X17908214Y-13181161D01*
X17673895Y-13243947D01*
X17449794Y-13336773D01*
X17449785Y-13336777D01*
X17239706Y-13458067D01*
X17047263Y-13605733D01*
X17047256Y-13605739D01*
X16875739Y-13777256D01*
X16875733Y-13777263D01*
X16728067Y-13969706D01*
X16606777Y-14179785D01*
X16606773Y-14179794D01*
X16513947Y-14403895D01*
X16451161Y-14638214D01*
X16419500Y-14878711D01*
X9500500Y-14878711D01*
X9500500Y-10624500D01*
X9520185Y-10557461D01*
X9572989Y-10511706D01*
X9624500Y-10500500D01*
X84645500Y-10500500D01*
X84712539Y-10520185D01*
G37*
%TD.AperFunction*%
%TD*%
M02*
