%TF.GenerationSoftware,KiCad,Pcbnew,10.0.3*%
%TF.CreationDate,2026-07-15T14:37:17-04:00*%
%TF.ProjectId,board-A-mcx,626f6172-642d-4412-9d6d-63782e6b6963,rev?*%
%TF.SameCoordinates,Original*%
%TF.FileFunction,Legend,Bot*%
%TF.FilePolarity,Positive*%
%FSLAX46Y46*%
G04 Gerber Fmt 4.6, Leading zero omitted, Abs format (unit mm)*
G04 Created by KiCad (PCBNEW 10.0.3) date 2026-07-15 14:37:17*
%MOMM*%
%LPD*%
G01*
G04 APERTURE LIST*
%ADD10C,0.150000*%
%ADD11C,0.200000*%
G04 APERTURE END LIST*
D10*
X51447819Y-105921666D02*
X52162104Y-105921666D01*
X52162104Y-105921666D02*
X52304961Y-105874047D01*
X52304961Y-105874047D02*
X52400200Y-105778809D01*
X52400200Y-105778809D02*
X52447819Y-105635952D01*
X52447819Y-105635952D02*
X52447819Y-105540714D01*
X51447819Y-106874047D02*
X51447819Y-106397857D01*
X51447819Y-106397857D02*
X51924009Y-106350238D01*
X51924009Y-106350238D02*
X51876390Y-106397857D01*
X51876390Y-106397857D02*
X51828771Y-106493095D01*
X51828771Y-106493095D02*
X51828771Y-106731190D01*
X51828771Y-106731190D02*
X51876390Y-106826428D01*
X51876390Y-106826428D02*
X51924009Y-106874047D01*
X51924009Y-106874047D02*
X52019247Y-106921666D01*
X52019247Y-106921666D02*
X52257342Y-106921666D01*
X52257342Y-106921666D02*
X52352580Y-106874047D01*
X52352580Y-106874047D02*
X52400200Y-106826428D01*
X52400200Y-106826428D02*
X52447819Y-106731190D01*
X52447819Y-106731190D02*
X52447819Y-106493095D01*
X52447819Y-106493095D02*
X52400200Y-106397857D01*
X52400200Y-106397857D02*
X52352580Y-106350238D01*
%TO.C,J5*%
D11*
X42785000Y-67900000D02*
X48205000Y-67900000D01*
X42785000Y-70040000D02*
X42785000Y-67900000D01*
X42785000Y-90040000D02*
X42785000Y-87040000D01*
X42785000Y-106940000D02*
X42785000Y-109180000D01*
X42785000Y-109180000D02*
X48205000Y-109180000D01*
X50025000Y-67900000D02*
X50025000Y-70040000D01*
X50025000Y-87040000D02*
X50025000Y-90040000D01*
X50025000Y-106940000D02*
X50025000Y-109180000D01*
X41805000Y-106140000D02*
G75*
G02*
X41605000Y-106140000I-100000J0D01*
G01*
X41605000Y-106140000D02*
G75*
G02*
X41805000Y-106140000I100000J0D01*
G01*
%TD*%
M02*
