%TF.GenerationSoftware,KiCad,Pcbnew,10.0.3*%
%TF.CreationDate,2026-07-15T14:37:17-04:00*%
%TF.ProjectId,board-A-mcx,626f6172-642d-4412-9d6d-63782e6b6963,rev?*%
%TF.SameCoordinates,Original*%
%TF.FileFunction,Soldermask,Bot*%
%TF.FilePolarity,Negative*%
%FSLAX46Y46*%
G04 Gerber Fmt 4.6, Leading zero omitted, Abs format (unit mm)*
G04 Created by KiCad (PCBNEW 10.0.3) date 2026-07-15 14:37:17*
%MOMM*%
%LPD*%
G01*
G04 APERTURE LIST*
G04 Aperture macros list*
%AMRoundRect*
0 Rectangle with rounded corners*
0 $1 Rounding radius*
0 $2 $3 $4 $5 $6 $7 $8 $9 X,Y pos of 4 corners*
0 Add a 4 corners polygon primitive as box body*
4,1,4,$2,$3,$4,$5,$6,$7,$8,$9,$2,$3,0*
0 Add four circle primitives for the rounded corners*
1,1,$1+$1,$2,$3*
1,1,$1+$1,$4,$5*
1,1,$1+$1,$6,$7*
1,1,$1+$1,$8,$9*
0 Add four rect primitives between the rounded corners*
20,1,$1+$1,$2,$3,$4,$5,0*
20,1,$1+$1,$4,$5,$6,$7,0*
20,1,$1+$1,$6,$7,$8,$9,0*
20,1,$1+$1,$8,$9,$2,$3,0*%
G04 Aperture macros list end*
%ADD10C,1.904000*%
%ADD11C,2.204000*%
%ADD12C,3.200000*%
%ADD13C,1.020000*%
%ADD14RoundRect,0.102000X1.135000X-0.205000X1.135000X0.205000X-1.135000X0.205000X-1.135000X-0.205000X0*%
%ADD15RoundRect,0.102000X0.215000X-1.270000X0.215000X1.270000X-0.215000X1.270000X-0.215000X-1.270000X0*%
%ADD16RoundRect,0.102000X0.215000X-2.350000X0.215000X2.350000X-0.215000X2.350000X-0.215000X-2.350000X0*%
G04 APERTURE END LIST*
D10*
%TO.C,K2*%
X75270000Y-112540000D03*
D11*
X72730000Y-110000000D03*
X72730000Y-115080000D03*
X77810000Y-110000000D03*
X77810000Y-115080000D03*
%TD*%
D10*
%TO.C,K4*%
X75270000Y-128540000D03*
D11*
X72730000Y-126000000D03*
X72730000Y-131080000D03*
X77810000Y-126000000D03*
X77810000Y-131080000D03*
%TD*%
D10*
%TO.C,K15*%
X17540000Y-60540000D03*
D11*
X20080000Y-63080000D03*
X20080000Y-58000000D03*
X15000000Y-63080000D03*
X15000000Y-58000000D03*
%TD*%
D10*
%TO.C,K8*%
X17540000Y-116540000D03*
D11*
X20080000Y-119080000D03*
X20080000Y-114000000D03*
X15000000Y-119080000D03*
X15000000Y-114000000D03*
%TD*%
D10*
%TO.C,K20*%
X75270000Y-56540000D03*
D11*
X72730000Y-54000000D03*
X72730000Y-59080000D03*
X77810000Y-54000000D03*
X77810000Y-59080000D03*
%TD*%
D10*
%TO.C,K3*%
X75270000Y-120540000D03*
D11*
X72730000Y-118000000D03*
X72730000Y-123080000D03*
X77810000Y-118000000D03*
X77810000Y-123080000D03*
%TD*%
D10*
%TO.C,K11*%
X17540000Y-92540000D03*
D11*
X20080000Y-95080000D03*
X20080000Y-90000000D03*
X15000000Y-95080000D03*
X15000000Y-90000000D03*
%TD*%
D10*
%TO.C,K18*%
X75270000Y-40540000D03*
D11*
X72730000Y-38000000D03*
X72730000Y-43080000D03*
X77810000Y-38000000D03*
X77810000Y-43080000D03*
%TD*%
D12*
%TO.C,MH2*%
X75270000Y-15000000D03*
%TD*%
D10*
%TO.C,K7*%
X75270000Y-152540000D03*
D11*
X72730000Y-150000000D03*
X72730000Y-155080000D03*
X77810000Y-150000000D03*
X77810000Y-155080000D03*
%TD*%
D12*
%TO.C,MH1*%
X17540000Y-15000000D03*
%TD*%
D10*
%TO.C,K22*%
X75270000Y-72540000D03*
D11*
X72730000Y-70000000D03*
X72730000Y-75080000D03*
X77810000Y-70000000D03*
X77810000Y-75080000D03*
%TD*%
D10*
%TO.C,K10*%
X17540000Y-100540000D03*
D11*
X20080000Y-103080000D03*
X20080000Y-98000000D03*
X15000000Y-103080000D03*
X15000000Y-98000000D03*
%TD*%
D10*
%TO.C,K6*%
X75270000Y-144540000D03*
D11*
X72730000Y-142000000D03*
X72730000Y-147080000D03*
X77810000Y-142000000D03*
X77810000Y-147080000D03*
%TD*%
D10*
%TO.C,K21*%
X75270000Y-64540000D03*
D11*
X72730000Y-62000000D03*
X72730000Y-67080000D03*
X77810000Y-62000000D03*
X77810000Y-67080000D03*
%TD*%
D10*
%TO.C,K13*%
X17540000Y-76540000D03*
D11*
X20080000Y-79080000D03*
X20080000Y-74000000D03*
X15000000Y-79080000D03*
X15000000Y-74000000D03*
%TD*%
D10*
%TO.C,K23*%
X75270000Y-80540000D03*
D11*
X72730000Y-78000000D03*
X72730000Y-83080000D03*
X77810000Y-78000000D03*
X77810000Y-83080000D03*
%TD*%
D10*
%TO.C,K0*%
X75270000Y-96540000D03*
D11*
X72730000Y-94000000D03*
X72730000Y-99080000D03*
X77810000Y-94000000D03*
X77810000Y-99080000D03*
%TD*%
D10*
%TO.C,K16*%
X75270000Y-24540000D03*
D11*
X72730000Y-22000000D03*
X72730000Y-27080000D03*
X77810000Y-22000000D03*
X77810000Y-27080000D03*
%TD*%
D10*
%TO.C,K9*%
X17540000Y-108540000D03*
D11*
X20080000Y-111080000D03*
X20080000Y-106000000D03*
X15000000Y-111080000D03*
X15000000Y-106000000D03*
%TD*%
D12*
%TO.C,MH4*%
X75270000Y-162080000D03*
%TD*%
D10*
%TO.C,K5*%
X75270000Y-136540000D03*
D11*
X72730000Y-134000000D03*
X72730000Y-139080000D03*
X77810000Y-134000000D03*
X77810000Y-139080000D03*
%TD*%
D10*
%TO.C,K1*%
X75270000Y-104540000D03*
D11*
X72730000Y-102000000D03*
X72730000Y-107080000D03*
X77810000Y-102000000D03*
X77810000Y-107080000D03*
%TD*%
D10*
%TO.C,K14*%
X17540000Y-68540000D03*
D11*
X20080000Y-71080000D03*
X20080000Y-66000000D03*
X15000000Y-71080000D03*
X15000000Y-66000000D03*
%TD*%
D12*
%TO.C,MH3*%
X17540000Y-162080000D03*
%TD*%
D10*
%TO.C,K12*%
X17540000Y-84540000D03*
D11*
X20080000Y-87080000D03*
X20080000Y-82000000D03*
X15000000Y-87080000D03*
X15000000Y-82000000D03*
%TD*%
D10*
%TO.C,K19*%
X75270000Y-48540000D03*
D11*
X72730000Y-46000000D03*
X72730000Y-51080000D03*
X77810000Y-46000000D03*
X77810000Y-51080000D03*
%TD*%
D10*
%TO.C,IV*%
X75270000Y-88540000D03*
D11*
X72730000Y-86000000D03*
X72730000Y-91080000D03*
X77810000Y-86000000D03*
X77810000Y-91080000D03*
%TD*%
D10*
%TO.C,K17*%
X75270000Y-32540000D03*
D11*
X72730000Y-30000000D03*
X72730000Y-35080000D03*
X77810000Y-30000000D03*
X77810000Y-35080000D03*
%TD*%
D13*
%TO.C,J5*%
X49075000Y-108605000D03*
X49075000Y-68475000D03*
D14*
X43540000Y-106140000D03*
X49270000Y-106140000D03*
X43540000Y-105340000D03*
X49270000Y-105340000D03*
X43540000Y-104540000D03*
X49270000Y-104540000D03*
X43540000Y-103740000D03*
X49270000Y-103740000D03*
X43540000Y-102940000D03*
X49270000Y-102940000D03*
X43540000Y-102140000D03*
X49270000Y-102140000D03*
X43540000Y-101340000D03*
X49270000Y-101340000D03*
X43540000Y-100540000D03*
X49270000Y-100540000D03*
X43540000Y-99740000D03*
X49270000Y-99740000D03*
X43540000Y-98940000D03*
X49270000Y-98940000D03*
X43540000Y-98140000D03*
X49270000Y-98140000D03*
X43540000Y-97340000D03*
X49270000Y-97340000D03*
X43540000Y-96540000D03*
X49270000Y-96540000D03*
X43540000Y-95740000D03*
X49270000Y-95740000D03*
X43540000Y-94940000D03*
X49270000Y-94940000D03*
X43540000Y-94140000D03*
X49270000Y-94140000D03*
X43540000Y-93340000D03*
X49270000Y-93340000D03*
X43540000Y-92540000D03*
X49270000Y-92540000D03*
X43540000Y-91740000D03*
X49270000Y-91740000D03*
X43540000Y-90940000D03*
X49270000Y-90940000D03*
X43540000Y-86140000D03*
X49270000Y-86140000D03*
X43540000Y-85340000D03*
X49270000Y-85340000D03*
X43540000Y-84540000D03*
X49270000Y-84540000D03*
X43540000Y-83740000D03*
X49270000Y-83740000D03*
X43540000Y-82940000D03*
X49270000Y-82940000D03*
X43540000Y-82140000D03*
X49270000Y-82140000D03*
X43540000Y-81340000D03*
X49270000Y-81340000D03*
X43540000Y-80540000D03*
X49270000Y-80540000D03*
X43540000Y-79740000D03*
X49270000Y-79740000D03*
X43540000Y-78940000D03*
X49270000Y-78940000D03*
X43540000Y-78140000D03*
X49270000Y-78140000D03*
X43540000Y-77340000D03*
X49270000Y-77340000D03*
X43540000Y-76540000D03*
X49270000Y-76540000D03*
X43540000Y-75740000D03*
X49270000Y-75740000D03*
X43540000Y-74940000D03*
X49270000Y-74940000D03*
X43540000Y-74140000D03*
X49270000Y-74140000D03*
X43540000Y-73340000D03*
X49270000Y-73340000D03*
X43540000Y-72540000D03*
X49270000Y-72540000D03*
X43540000Y-71740000D03*
X49270000Y-71740000D03*
X43540000Y-70940000D03*
X49270000Y-70940000D03*
D15*
X46405000Y-106605000D03*
D16*
X46405000Y-101715000D03*
X46405000Y-95365000D03*
D15*
X46405000Y-90475000D03*
X46405000Y-86605000D03*
D16*
X46405000Y-81715000D03*
X46405000Y-75365000D03*
D15*
X46405000Y-70475000D03*
%TD*%
M02*
