%TF.GenerationSoftware,KiCad,Pcbnew,10.0.3*%
%TF.CreationDate,2026-06-24T00:17:38-04:00*%
%TF.ProjectId,board-A-mcx,626f6172-642d-4412-9d6d-63782e6b6963,rev?*%
%TF.SameCoordinates,Original*%
%TF.FileFunction,Paste,Bot*%
%TF.FilePolarity,Positive*%
%FSLAX46Y46*%
G04 Gerber Fmt 4.6, Leading zero omitted, Abs format (unit mm)*
G04 Created by KiCad (PCBNEW 10.0.3) date 2026-06-24 00:17:38*
%MOMM*%
%LPD*%
G01*
G04 APERTURE LIST*
%ADD10R,2.270000X0.410000*%
%ADD11R,0.430000X2.540000*%
%ADD12R,0.430000X4.700000*%
G04 APERTURE END LIST*
D10*
%TO.C,J5*%
X44270000Y-96870000D03*
X50000000Y-96870000D03*
X44270000Y-96070000D03*
X50000000Y-96070000D03*
X44270000Y-95270000D03*
X50000000Y-95270000D03*
X44270000Y-94470000D03*
X50000000Y-94470000D03*
X44270000Y-93670000D03*
X50000000Y-93670000D03*
X44270000Y-92870000D03*
X50000000Y-92870000D03*
X44270000Y-92070000D03*
X50000000Y-92070000D03*
X44270000Y-91270000D03*
X50000000Y-91270000D03*
X44270000Y-90470000D03*
X50000000Y-90470000D03*
X44270000Y-89670000D03*
X50000000Y-89670000D03*
X44270000Y-88870000D03*
X50000000Y-88870000D03*
X44270000Y-88070000D03*
X50000000Y-88070000D03*
X44270000Y-87270000D03*
X50000000Y-87270000D03*
X44270000Y-86470000D03*
X50000000Y-86470000D03*
X44270000Y-85670000D03*
X50000000Y-85670000D03*
X44270000Y-84870000D03*
X50000000Y-84870000D03*
X44270000Y-84070000D03*
X50000000Y-84070000D03*
X44270000Y-83270000D03*
X50000000Y-83270000D03*
X44270000Y-82470000D03*
X50000000Y-82470000D03*
X44270000Y-81670000D03*
X50000000Y-81670000D03*
X44270000Y-76870000D03*
X50000000Y-76870000D03*
X44270000Y-76070000D03*
X50000000Y-76070000D03*
X44270000Y-75270000D03*
X50000000Y-75270000D03*
X44270000Y-74470000D03*
X50000000Y-74470000D03*
X44270000Y-73670000D03*
X50000000Y-73670000D03*
X44270000Y-72870000D03*
X50000000Y-72870000D03*
X44270000Y-72070000D03*
X50000000Y-72070000D03*
X44270000Y-71270000D03*
X50000000Y-71270000D03*
X44270000Y-70470000D03*
X50000000Y-70470000D03*
X44270000Y-69670000D03*
X50000000Y-69670000D03*
X44270000Y-68870000D03*
X50000000Y-68870000D03*
X44270000Y-68070000D03*
X50000000Y-68070000D03*
X44270000Y-67270000D03*
X50000000Y-67270000D03*
X44270000Y-66470000D03*
X50000000Y-66470000D03*
X44270000Y-65670000D03*
X50000000Y-65670000D03*
X44270000Y-64870000D03*
X50000000Y-64870000D03*
X44270000Y-64070000D03*
X50000000Y-64070000D03*
X44270000Y-63270000D03*
X50000000Y-63270000D03*
X44270000Y-62470000D03*
X50000000Y-62470000D03*
X44270000Y-61670000D03*
X50000000Y-61670000D03*
D11*
X47135000Y-97335000D03*
D12*
X47135000Y-92445000D03*
X47135000Y-86095000D03*
D11*
X47135000Y-81205000D03*
X47135000Y-77335000D03*
D12*
X47135000Y-72445000D03*
X47135000Y-66095000D03*
D11*
X47135000Y-61205000D03*
%TD*%
M02*
