%TF.GenerationSoftware,KiCad,Pcbnew,10.0.3*%
%TF.CreationDate,2026-07-15T14:37:16-04:00*%
%TF.ProjectId,board-A-mcx,626f6172-642d-4412-9d6d-63782e6b6963,rev?*%
%TF.SameCoordinates,Original*%
%TF.FileFunction,Copper,L4,Bot*%
%TF.FilePolarity,Positive*%
%FSLAX46Y46*%
G04 Gerber Fmt 4.6, Leading zero omitted, Abs format (unit mm)*
G04 Created by KiCad (PCBNEW 10.0.3) date 2026-07-15 14:37:16*
%MOMM*%
%LPD*%
G01*
G04 APERTURE LIST*
%TA.AperFunction,ComponentPad*%
%ADD10C,1.700000*%
%TD*%
%TA.AperFunction,ComponentPad*%
%ADD11C,2.000000*%
%TD*%
%TA.AperFunction,SMDPad,CuDef*%
%ADD12R,2.270000X0.410000*%
%TD*%
%TA.AperFunction,SMDPad,CuDef*%
%ADD13R,0.430000X2.540000*%
%TD*%
%TA.AperFunction,SMDPad,CuDef*%
%ADD14R,0.430000X4.700000*%
%TD*%
%TA.AperFunction,ViaPad*%
%ADD15C,0.600000*%
%TD*%
%TA.AperFunction,Conductor*%
%ADD16C,0.325000*%
%TD*%
G04 APERTURE END LIST*
D10*
%TO.P,K2,1*%
%TO.N,SIPM_K2*%
X75270000Y-112540000D03*
D11*
%TO.P,K2,2*%
%TO.N,GNDA*%
X72730000Y-110000000D03*
X72730000Y-115080000D03*
X77810000Y-110000000D03*
X77810000Y-115080000D03*
%TD*%
D10*
%TO.P,K4,1*%
%TO.N,SIPM_K4*%
X75270000Y-128540000D03*
D11*
%TO.P,K4,2*%
%TO.N,GNDA*%
X72730000Y-126000000D03*
X72730000Y-131080000D03*
X77810000Y-126000000D03*
X77810000Y-131080000D03*
%TD*%
D10*
%TO.P,K15,1*%
%TO.N,SIPM_K15*%
X17540000Y-60540000D03*
D11*
%TO.P,K15,2*%
%TO.N,GNDA*%
X20080000Y-63080000D03*
X20080000Y-58000000D03*
X15000000Y-63080000D03*
X15000000Y-58000000D03*
%TD*%
D10*
%TO.P,K8,1*%
%TO.N,SIPM_K8*%
X17540000Y-116540000D03*
D11*
%TO.P,K8,2*%
%TO.N,GNDA*%
X20080000Y-119080000D03*
X20080000Y-114000000D03*
X15000000Y-119080000D03*
X15000000Y-114000000D03*
%TD*%
D10*
%TO.P,K20,1*%
%TO.N,SIPM_K20*%
X75270000Y-56540000D03*
D11*
%TO.P,K20,2*%
%TO.N,GNDA*%
X72730000Y-54000000D03*
X72730000Y-59080000D03*
X77810000Y-54000000D03*
X77810000Y-59080000D03*
%TD*%
D10*
%TO.P,K3,1*%
%TO.N,SIPM_K3*%
X75270000Y-120540000D03*
D11*
%TO.P,K3,2*%
%TO.N,GNDA*%
X72730000Y-118000000D03*
X72730000Y-123080000D03*
X77810000Y-118000000D03*
X77810000Y-123080000D03*
%TD*%
D10*
%TO.P,K11,1*%
%TO.N,SIPM_K11*%
X17540000Y-92540000D03*
D11*
%TO.P,K11,2*%
%TO.N,GNDA*%
X20080000Y-95080000D03*
X20080000Y-90000000D03*
X15000000Y-95080000D03*
X15000000Y-90000000D03*
%TD*%
D10*
%TO.P,K18,1*%
%TO.N,SIPM_K18*%
X75270000Y-40540000D03*
D11*
%TO.P,K18,2*%
%TO.N,GNDA*%
X72730000Y-38000000D03*
X72730000Y-43080000D03*
X77810000Y-38000000D03*
X77810000Y-43080000D03*
%TD*%
D10*
%TO.P,K7,1*%
%TO.N,SIPM_K7*%
X75270000Y-152540000D03*
D11*
%TO.P,K7,2*%
%TO.N,GNDA*%
X72730000Y-150000000D03*
X72730000Y-155080000D03*
X77810000Y-150000000D03*
X77810000Y-155080000D03*
%TD*%
D10*
%TO.P,K22,1*%
%TO.N,SIPM_K22*%
X75270000Y-72540000D03*
D11*
%TO.P,K22,2*%
%TO.N,GNDA*%
X72730000Y-70000000D03*
X72730000Y-75080000D03*
X77810000Y-70000000D03*
X77810000Y-75080000D03*
%TD*%
D10*
%TO.P,K10,1*%
%TO.N,SIPM_K10*%
X17540000Y-100540000D03*
D11*
%TO.P,K10,2*%
%TO.N,GNDA*%
X20080000Y-103080000D03*
X20080000Y-98000000D03*
X15000000Y-103080000D03*
X15000000Y-98000000D03*
%TD*%
D10*
%TO.P,K6,1*%
%TO.N,SIPM_K6*%
X75270000Y-144540000D03*
D11*
%TO.P,K6,2*%
%TO.N,GNDA*%
X72730000Y-142000000D03*
X72730000Y-147080000D03*
X77810000Y-142000000D03*
X77810000Y-147080000D03*
%TD*%
D10*
%TO.P,K21,1*%
%TO.N,SIPM_K21*%
X75270000Y-64540000D03*
D11*
%TO.P,K21,2*%
%TO.N,GNDA*%
X72730000Y-62000000D03*
X72730000Y-67080000D03*
X77810000Y-62000000D03*
X77810000Y-67080000D03*
%TD*%
D10*
%TO.P,K13,1*%
%TO.N,SIPM_K13*%
X17540000Y-76540000D03*
D11*
%TO.P,K13,2*%
%TO.N,GNDA*%
X20080000Y-79080000D03*
X20080000Y-74000000D03*
X15000000Y-79080000D03*
X15000000Y-74000000D03*
%TD*%
D10*
%TO.P,K23,1*%
%TO.N,SIPM_K23*%
X75270000Y-80540000D03*
D11*
%TO.P,K23,2*%
%TO.N,GNDA*%
X72730000Y-78000000D03*
X72730000Y-83080000D03*
X77810000Y-78000000D03*
X77810000Y-83080000D03*
%TD*%
D10*
%TO.P,K0,1*%
%TO.N,SIPM_K0*%
X75270000Y-96540000D03*
D11*
%TO.P,K0,2*%
%TO.N,GNDA*%
X72730000Y-94000000D03*
X72730000Y-99080000D03*
X77810000Y-94000000D03*
X77810000Y-99080000D03*
%TD*%
D10*
%TO.P,K16,1*%
%TO.N,SIPM_K16*%
X75270000Y-24540000D03*
D11*
%TO.P,K16,2*%
%TO.N,GNDA*%
X72730000Y-22000000D03*
X72730000Y-27080000D03*
X77810000Y-22000000D03*
X77810000Y-27080000D03*
%TD*%
D10*
%TO.P,K9,1*%
%TO.N,SIPM_K9*%
X17540000Y-108540000D03*
D11*
%TO.P,K9,2*%
%TO.N,GNDA*%
X20080000Y-111080000D03*
X20080000Y-106000000D03*
X15000000Y-111080000D03*
X15000000Y-106000000D03*
%TD*%
D10*
%TO.P,K5,1*%
%TO.N,SIPM_K5*%
X75270000Y-136540000D03*
D11*
%TO.P,K5,2*%
%TO.N,GNDA*%
X72730000Y-134000000D03*
X72730000Y-139080000D03*
X77810000Y-134000000D03*
X77810000Y-139080000D03*
%TD*%
D10*
%TO.P,K1,1*%
%TO.N,SIPM_K1*%
X75270000Y-104540000D03*
D11*
%TO.P,K1,2*%
%TO.N,GNDA*%
X72730000Y-102000000D03*
X72730000Y-107080000D03*
X77810000Y-102000000D03*
X77810000Y-107080000D03*
%TD*%
D10*
%TO.P,K14,1*%
%TO.N,SIPM_K14*%
X17540000Y-68540000D03*
D11*
%TO.P,K14,2*%
%TO.N,GNDA*%
X20080000Y-71080000D03*
X20080000Y-66000000D03*
X15000000Y-71080000D03*
X15000000Y-66000000D03*
%TD*%
D10*
%TO.P,K12,1*%
%TO.N,SIPM_K12*%
X17540000Y-84540000D03*
D11*
%TO.P,K12,2*%
%TO.N,GNDA*%
X20080000Y-87080000D03*
X20080000Y-82000000D03*
X15000000Y-87080000D03*
X15000000Y-82000000D03*
%TD*%
D10*
%TO.P,K19,1*%
%TO.N,SIPM_K19*%
X75270000Y-48540000D03*
D11*
%TO.P,K19,2*%
%TO.N,GNDA*%
X72730000Y-46000000D03*
X72730000Y-51080000D03*
X77810000Y-46000000D03*
X77810000Y-51080000D03*
%TD*%
D10*
%TO.P,IV,1*%
%TO.N,IV*%
X75270000Y-88540000D03*
D11*
%TO.P,IV,2*%
%TO.N,GNDA*%
X72730000Y-86000000D03*
X72730000Y-91080000D03*
X77810000Y-86000000D03*
X77810000Y-91080000D03*
%TD*%
D10*
%TO.P,K17,1*%
%TO.N,SIPM_K17*%
X75270000Y-32540000D03*
D11*
%TO.P,K17,2*%
%TO.N,GNDA*%
X72730000Y-30000000D03*
X72730000Y-35080000D03*
X77810000Y-30000000D03*
X77810000Y-35080000D03*
%TD*%
D12*
%TO.P,J5,01*%
%TO.N,GNDA*%
X43540000Y-106140000D03*
%TO.P,J5,02*%
%TO.N,SIPM_K7*%
X49270000Y-106140000D03*
%TO.P,J5,03*%
%TO.N,GNDA*%
X43540000Y-105340000D03*
%TO.P,J5,04*%
X49270000Y-105340000D03*
%TO.P,J5,05*%
X43540000Y-104540000D03*
%TO.P,J5,06*%
%TO.N,SIPM_K6*%
X49270000Y-104540000D03*
%TO.P,J5,07*%
%TO.N,GNDA*%
X43540000Y-103740000D03*
%TO.P,J5,08*%
X49270000Y-103740000D03*
%TO.P,J5,09*%
X43540000Y-102940000D03*
%TO.P,J5,10*%
%TO.N,SIPM_K5*%
X49270000Y-102940000D03*
%TO.P,J5,11*%
%TO.N,GNDA*%
X43540000Y-102140000D03*
%TO.P,J5,12*%
X49270000Y-102140000D03*
%TO.P,J5,13*%
X43540000Y-101340000D03*
%TO.P,J5,14*%
%TO.N,SIPM_K4*%
X49270000Y-101340000D03*
%TO.P,J5,15*%
%TO.N,GNDA*%
X43540000Y-100540000D03*
%TO.P,J5,16*%
X49270000Y-100540000D03*
%TO.P,J5,17*%
X43540000Y-99740000D03*
%TO.P,J5,18*%
%TO.N,SIPM_K3*%
X49270000Y-99740000D03*
%TO.P,J5,19*%
%TO.N,GNDA*%
X43540000Y-98940000D03*
%TO.P,J5,20*%
X49270000Y-98940000D03*
%TO.P,J5,21*%
X43540000Y-98140000D03*
%TO.P,J5,22*%
%TO.N,SIPM_K2*%
X49270000Y-98140000D03*
%TO.P,J5,23*%
%TO.N,GNDA*%
X43540000Y-97340000D03*
%TO.P,J5,24*%
X49270000Y-97340000D03*
%TO.P,J5,25*%
X43540000Y-96540000D03*
%TO.P,J5,26*%
%TO.N,SIPM_K1*%
X49270000Y-96540000D03*
%TO.P,J5,27*%
%TO.N,SIPM_K8*%
X43540000Y-95740000D03*
%TO.P,J5,28*%
%TO.N,GNDA*%
X49270000Y-95740000D03*
%TO.P,J5,29*%
X43540000Y-94940000D03*
%TO.P,J5,30*%
%TO.N,SIPM_K0*%
X49270000Y-94940000D03*
%TO.P,J5,31*%
%TO.N,SIPM_K9*%
X43540000Y-94140000D03*
%TO.P,J5,32*%
%TO.N,GNDA*%
X49270000Y-94140000D03*
%TO.P,J5,33*%
X43540000Y-93340000D03*
%TO.P,J5,34*%
X49270000Y-93340000D03*
%TO.P,J5,35*%
%TO.N,SIPM_K10*%
X43540000Y-92540000D03*
%TO.P,J5,36*%
%TO.N,GNDA*%
X49270000Y-92540000D03*
%TO.P,J5,37*%
X43540000Y-91740000D03*
%TO.P,J5,38*%
X49270000Y-91740000D03*
%TO.P,J5,39*%
%TO.N,SIPM_K11*%
X43540000Y-90940000D03*
%TO.P,J5,40*%
%TO.N,IV*%
X49270000Y-90940000D03*
%TO.P,J5,41*%
%TO.N,SIPM_K12*%
X43540000Y-86140000D03*
%TO.P,J5,42*%
%TO.N,IV*%
X49270000Y-86140000D03*
%TO.P,J5,43*%
%TO.N,GNDA*%
X43540000Y-85340000D03*
%TO.P,J5,44*%
X49270000Y-85340000D03*
%TO.P,J5,45*%
%TO.N,SIPM_K13*%
X43540000Y-84540000D03*
%TO.P,J5,46*%
%TO.N,GNDA*%
X49270000Y-84540000D03*
%TO.P,J5,47*%
X43540000Y-83740000D03*
%TO.P,J5,48*%
X49270000Y-83740000D03*
%TO.P,J5,49*%
%TO.N,SIPM_K14*%
X43540000Y-82940000D03*
%TO.P,J5,50*%
%TO.N,GNDA*%
X49270000Y-82940000D03*
%TO.P,J5,51*%
X43540000Y-82140000D03*
%TO.P,J5,52*%
%TO.N,SIPM_K23*%
X49270000Y-82140000D03*
%TO.P,J5,53*%
%TO.N,SIPM_K15*%
X43540000Y-81340000D03*
%TO.P,J5,54*%
%TO.N,GNDA*%
X49270000Y-81340000D03*
%TO.P,J5,55*%
X43540000Y-80540000D03*
%TO.P,J5,56*%
%TO.N,SIPM_K22*%
X49270000Y-80540000D03*
%TO.P,J5,57*%
%TO.N,GNDA*%
X43540000Y-79740000D03*
%TO.P,J5,58*%
X49270000Y-79740000D03*
%TO.P,J5,59*%
X43540000Y-78940000D03*
%TO.P,J5,60*%
%TO.N,SIPM_K21*%
X49270000Y-78940000D03*
%TO.P,J5,61*%
%TO.N,GNDA*%
X43540000Y-78140000D03*
%TO.P,J5,62*%
X49270000Y-78140000D03*
%TO.P,J5,63*%
X43540000Y-77340000D03*
%TO.P,J5,64*%
%TO.N,SIPM_K20*%
X49270000Y-77340000D03*
%TO.P,J5,65*%
%TO.N,GNDA*%
X43540000Y-76540000D03*
%TO.P,J5,66*%
X49270000Y-76540000D03*
%TO.P,J5,67*%
X43540000Y-75740000D03*
%TO.P,J5,68*%
%TO.N,SIPM_K19*%
X49270000Y-75740000D03*
%TO.P,J5,69*%
%TO.N,GNDA*%
X43540000Y-74940000D03*
%TO.P,J5,70*%
X49270000Y-74940000D03*
%TO.P,J5,71*%
X43540000Y-74140000D03*
%TO.P,J5,72*%
%TO.N,SIPM_K18*%
X49270000Y-74140000D03*
%TO.P,J5,73*%
%TO.N,GNDA*%
X43540000Y-73340000D03*
%TO.P,J5,74*%
X49270000Y-73340000D03*
%TO.P,J5,75*%
X43540000Y-72540000D03*
%TO.P,J5,76*%
%TO.N,SIPM_K17*%
X49270000Y-72540000D03*
%TO.P,J5,77*%
%TO.N,THERM4*%
X43540000Y-71740000D03*
%TO.P,J5,78*%
%TO.N,GNDA*%
X49270000Y-71740000D03*
%TO.P,J5,79*%
%TO.N,THERM5*%
X43540000Y-70940000D03*
%TO.P,J5,80*%
%TO.N,SIPM_K16*%
X49270000Y-70940000D03*
D13*
%TO.P,J5,G1*%
%TO.N,GNDA*%
X46405000Y-106605000D03*
D14*
%TO.P,J5,G2*%
X46405000Y-101715000D03*
%TO.P,J5,G3*%
X46405000Y-95365000D03*
D13*
%TO.P,J5,G4*%
X46405000Y-90475000D03*
%TO.P,J5,G5*%
X46405000Y-86605000D03*
D14*
%TO.P,J5,G6*%
X46405000Y-81715000D03*
%TO.P,J5,G7*%
X46405000Y-75365000D03*
D13*
%TO.P,J5,G8*%
X46405000Y-70475000D03*
%TD*%
D15*
%TO.N,GNDA*%
X31925000Y-62925000D03*
X46925000Y-22925000D03*
X41925000Y-162925000D03*
X56925000Y-152925000D03*
X11925000Y-47925000D03*
X66925000Y-112925000D03*
X31925000Y-12925000D03*
X46925000Y-132925000D03*
X41925000Y-52925000D03*
X36925000Y-67925000D03*
X51925000Y-22925000D03*
X46925000Y-142925000D03*
X46925000Y-37925000D03*
X49601073Y-73340000D03*
X46925000Y-97925000D03*
X21925000Y-32925000D03*
X21925000Y-27925000D03*
X56925000Y-62925000D03*
X41925000Y-137925000D03*
X31925000Y-82925000D03*
X36925000Y-147925000D03*
X41925000Y-77925000D03*
X41925000Y-147925000D03*
X21925000Y-147925000D03*
X21925000Y-52925000D03*
X61925000Y-27925000D03*
X51925000Y-57925000D03*
X11925000Y-17925000D03*
X61925000Y-42925000D03*
X49580947Y-103740000D03*
X31925000Y-67925000D03*
X41925000Y-97925000D03*
X56925000Y-22925000D03*
X66925000Y-137925000D03*
X56925000Y-12925000D03*
X31925000Y-112925000D03*
X36925000Y-152925000D03*
X11925000Y-162925000D03*
X56925000Y-72925000D03*
X16925000Y-147925000D03*
X46925000Y-162925000D03*
X51925000Y-117925000D03*
X56925000Y-132925000D03*
X11925000Y-22925000D03*
X36925000Y-142925000D03*
X31925000Y-157925000D03*
X31925000Y-37925000D03*
X36925000Y-132925000D03*
X66925000Y-62925000D03*
X31925000Y-47925000D03*
X66925000Y-102925000D03*
X41925000Y-87925000D03*
X61925000Y-142925000D03*
X51925000Y-27925000D03*
X26925000Y-157925000D03*
X51925000Y-92925000D03*
X56925000Y-57925000D03*
X16925000Y-52925000D03*
X66925000Y-47925000D03*
X26925000Y-47925000D03*
X41925000Y-42925000D03*
X26925000Y-22925000D03*
X21925000Y-12925000D03*
X16925000Y-27925000D03*
X61925000Y-12925000D03*
X16925000Y-122925000D03*
X11925000Y-42925000D03*
X36925000Y-42925000D03*
X21925000Y-132925000D03*
X51925000Y-12925000D03*
X46925000Y-12925000D03*
X66925000Y-27925000D03*
X21925000Y-122925000D03*
X51925000Y-52925000D03*
X41925000Y-67925000D03*
X26925000Y-97925000D03*
X31925000Y-17925000D03*
X16925000Y-127925000D03*
X31925000Y-52925000D03*
X36925000Y-12925000D03*
X41925000Y-32925000D03*
X26925000Y-142925000D03*
X26925000Y-17925000D03*
X26925000Y-67925000D03*
X41925000Y-152925000D03*
X51925000Y-42925000D03*
X51925000Y-152925000D03*
X31925000Y-162925000D03*
X36925000Y-37925000D03*
X71925000Y-17925000D03*
X56925000Y-142925000D03*
X46925000Y-112925000D03*
X66925000Y-52925000D03*
X51925000Y-122925000D03*
X51925000Y-62925000D03*
X51925000Y-157925000D03*
X16925000Y-142925000D03*
X26925000Y-32925000D03*
X31925000Y-87925000D03*
X36925000Y-32925000D03*
X21925000Y-42925000D03*
X11925000Y-132925000D03*
X41925000Y-107925000D03*
X61925000Y-57925000D03*
X36925000Y-157925000D03*
X21925000Y-162925000D03*
X16925000Y-137925000D03*
X41925000Y-127925000D03*
X46925000Y-87925000D03*
X66925000Y-157925000D03*
X26925000Y-92925000D03*
X41925000Y-62925000D03*
X11925000Y-127925000D03*
X36925000Y-112925000D03*
X41925000Y-102925000D03*
X41925000Y-17925000D03*
X56925000Y-137925000D03*
X36925000Y-137925000D03*
X36925000Y-117925000D03*
X36925000Y-27925000D03*
X36925000Y-107925000D03*
X41925000Y-142925000D03*
X26925000Y-162925000D03*
X46925000Y-42925000D03*
X16925000Y-32925000D03*
X26925000Y-12925000D03*
X66925000Y-17925000D03*
X61925000Y-97925000D03*
X26925000Y-132925000D03*
X41925000Y-122925000D03*
X16925000Y-152925000D03*
X31925000Y-42925000D03*
X66925000Y-22925000D03*
X61925000Y-147925000D03*
X11925000Y-12925000D03*
X11925000Y-122925000D03*
X11925000Y-137925000D03*
X31925000Y-22925000D03*
X36925000Y-72925000D03*
X36925000Y-22925000D03*
X26925000Y-107925000D03*
X21925000Y-157925000D03*
X31925000Y-137925000D03*
X41925000Y-47925000D03*
X66925000Y-92925000D03*
X46925000Y-57925000D03*
X56925000Y-127925000D03*
X11925000Y-27925000D03*
X61925000Y-32925000D03*
X66925000Y-132925000D03*
X66925000Y-127925000D03*
X56925000Y-162925000D03*
X36925000Y-57925000D03*
X46925000Y-92925000D03*
X61925000Y-162925000D03*
X46925000Y-47925000D03*
X26925000Y-112925000D03*
X26925000Y-77925000D03*
X16925000Y-132925000D03*
X31925000Y-107925000D03*
X36925000Y-77925000D03*
X26925000Y-27925000D03*
X41925000Y-132925000D03*
X51925000Y-147925000D03*
X21925000Y-22925000D03*
X61925000Y-122925000D03*
X51925000Y-37925000D03*
X66925000Y-162925000D03*
X56925000Y-117925000D03*
X26925000Y-52925000D03*
X56925000Y-32925000D03*
X16925000Y-37925000D03*
X66925000Y-147925000D03*
X61925000Y-157925000D03*
X46925000Y-137925000D03*
X31925000Y-117925000D03*
X36925000Y-62925000D03*
X51925000Y-32925000D03*
X11925000Y-92925000D03*
X41925000Y-157925000D03*
X46925000Y-62925000D03*
X56925000Y-27925000D03*
X46925000Y-52925000D03*
X26925000Y-117925000D03*
X11925000Y-37925000D03*
X26925000Y-57925000D03*
X16925000Y-22925000D03*
X56925000Y-77925000D03*
X61925000Y-77925000D03*
X61925000Y-152925000D03*
X41925000Y-22925000D03*
X21925000Y-37925000D03*
X61925000Y-107925000D03*
X31925000Y-27925000D03*
X21925000Y-47925000D03*
X31925000Y-32925000D03*
X31925000Y-72925000D03*
X11925000Y-107925000D03*
X46925000Y-72925000D03*
X11925000Y-142925000D03*
X66925000Y-67925000D03*
X26925000Y-127925000D03*
X31925000Y-132925000D03*
X66925000Y-12925000D03*
X66925000Y-37925000D03*
X31925000Y-57925000D03*
X46925000Y-27925000D03*
X11925000Y-152925000D03*
X16925000Y-42925000D03*
X46925000Y-82925000D03*
X51925000Y-17925000D03*
X56925000Y-102925000D03*
X51925000Y-162925000D03*
X36925000Y-47925000D03*
X56925000Y-157925000D03*
X61925000Y-22925000D03*
X41925000Y-117925000D03*
X56925000Y-17925000D03*
X66925000Y-72925000D03*
X31925000Y-127925000D03*
X56925000Y-37925000D03*
X51925000Y-127925000D03*
X36925000Y-52925000D03*
X61925000Y-72925000D03*
X21925000Y-17925000D03*
X51925000Y-137925000D03*
X56925000Y-52925000D03*
X51925000Y-132925000D03*
X46925000Y-122925000D03*
X26925000Y-87925000D03*
X11925000Y-157925000D03*
X61925000Y-47925000D03*
X31925000Y-77925000D03*
X61925000Y-17925000D03*
X11925000Y-147925000D03*
X36925000Y-127925000D03*
X66925000Y-142925000D03*
X61925000Y-52925000D03*
X31925000Y-102925000D03*
X51925000Y-142925000D03*
X41925000Y-72925000D03*
X46925000Y-32925000D03*
X56925000Y-92925000D03*
X56925000Y-107925000D03*
X31925000Y-142925000D03*
X46925000Y-117925000D03*
X66925000Y-117925000D03*
X26925000Y-122925000D03*
X41925000Y-112925000D03*
X11925000Y-32925000D03*
X46925000Y-127925000D03*
X11925000Y-52925000D03*
X61925000Y-67925000D03*
X16925000Y-47925000D03*
X46925000Y-147925000D03*
X26925000Y-152925000D03*
X46925000Y-157925000D03*
X26925000Y-147925000D03*
X26925000Y-37925000D03*
X46925000Y-102925000D03*
X51925000Y-77925000D03*
X61925000Y-112925000D03*
X41925000Y-27925000D03*
X56925000Y-147925000D03*
X66925000Y-42925000D03*
X36925000Y-122925000D03*
X21925000Y-137925000D03*
X36925000Y-87925000D03*
X31925000Y-122925000D03*
X56925000Y-47925000D03*
X31925000Y-147925000D03*
X61925000Y-132925000D03*
X41925000Y-57925000D03*
X36925000Y-162925000D03*
X16925000Y-157925000D03*
X26925000Y-72925000D03*
X66925000Y-152925000D03*
X61925000Y-92925000D03*
X61925000Y-127925000D03*
X51925000Y-102925000D03*
X71925000Y-12925000D03*
X66925000Y-97925000D03*
X21925000Y-152925000D03*
X21925000Y-142925000D03*
X46925000Y-77925000D03*
X41925000Y-37925000D03*
X49672677Y-71740000D03*
X26925000Y-42925000D03*
X49270000Y-105340000D03*
X26925000Y-62925000D03*
X46925000Y-17925000D03*
X46925000Y-152925000D03*
X41925000Y-12925000D03*
X36925000Y-97925000D03*
X31925000Y-152925000D03*
X61925000Y-137925000D03*
X51925000Y-112925000D03*
X36925000Y-102925000D03*
X36925000Y-17925000D03*
X11925000Y-67925000D03*
X26925000Y-137925000D03*
X21925000Y-127925000D03*
X56925000Y-122925000D03*
%TD*%
%TO.N,SIPM_K2*%
D16*
X49270000Y-98140000D02*
X57717200Y-98140000D01*
X57717200Y-98140000D02*
X72117200Y-112540000D01*
X72117200Y-112540000D02*
X75270000Y-112540000D01*
%TO.N,SIPM_K4*%
X72222500Y-124540000D02*
X73274500Y-124540000D01*
X49270000Y-101340000D02*
X50769200Y-101340000D01*
X73274500Y-124540000D02*
X75270000Y-126535500D01*
X50769200Y-101340000D02*
X50769200Y-103086700D01*
X50769200Y-103086700D02*
X72222500Y-124540000D01*
X75270000Y-126535500D02*
X75270000Y-128540000D01*
%TO.N,SIPM_K15*%
X20692900Y-60540000D02*
X17540000Y-60540000D01*
X43540000Y-81340000D02*
X41492900Y-81340000D01*
X41492900Y-81340000D02*
X20692900Y-60540000D01*
%TO.N,SIPM_K8*%
X41492900Y-95740000D02*
X20692900Y-116540000D01*
X43540000Y-95740000D02*
X41492900Y-95740000D01*
X20692900Y-116540000D02*
X17540000Y-116540000D01*
%TO.N,SIPM_K20*%
X51317200Y-77340000D02*
X72117200Y-56540000D01*
X72117200Y-56540000D02*
X75270000Y-56540000D01*
X49270000Y-77340000D02*
X51317200Y-77340000D01*
%TO.N,SIPM_K3*%
X72117200Y-120540000D02*
X75270000Y-120540000D01*
X51317200Y-99740000D02*
X72117200Y-120540000D01*
X49270000Y-99740000D02*
X51317200Y-99740000D01*
%TO.N,SIPM_K11*%
X20692900Y-92540000D02*
X17540000Y-92540000D01*
X43540000Y-90940000D02*
X22292900Y-90940000D01*
X22292900Y-90940000D02*
X20692900Y-92540000D01*
%TO.N,SIPM_K18*%
X74533900Y-23308000D02*
X75773200Y-23308000D01*
X76425800Y-26534900D02*
X76425800Y-31305800D01*
X75773200Y-23308000D02*
X76502000Y-24036800D01*
X47770800Y-74140000D02*
X47770800Y-50071100D01*
X47770800Y-50071100D02*
X74533900Y-23308000D01*
X76502000Y-31382000D02*
X76502000Y-34070700D01*
X76502000Y-34070700D02*
X75270100Y-35302600D01*
X49270000Y-74140000D02*
X47770800Y-74140000D01*
X75270100Y-35302600D02*
X75270100Y-40539900D01*
X76502000Y-24036800D02*
X76502000Y-26458700D01*
X76425800Y-31305800D02*
X76502000Y-31382000D01*
X76502000Y-26458700D02*
X76425800Y-26534900D01*
X75270100Y-40539900D02*
X75270000Y-40540000D01*
%TO.N,SIPM_K7*%
X75270000Y-150535500D02*
X73274500Y-148540000D01*
X75270000Y-152540000D02*
X75270000Y-150535500D01*
X72222500Y-148540000D02*
X69603400Y-145920900D01*
X69603400Y-145920900D02*
X69603400Y-126473400D01*
X69603400Y-126473400D02*
X49270000Y-106140000D01*
X73274500Y-148540000D02*
X72222500Y-148540000D01*
%TO.N,SIPM_K22*%
X64115100Y-80540000D02*
X49270000Y-80540000D01*
X75270000Y-72540000D02*
X72115100Y-72540000D01*
X72115100Y-72540000D02*
X64115100Y-80540000D01*
%TO.N,SIPM_K10*%
X43540000Y-92540000D02*
X28692900Y-92540000D01*
X28692900Y-92540000D02*
X20692900Y-100540000D01*
X20692900Y-100540000D02*
X17540000Y-100540000D01*
%TO.N,SIPM_K6*%
X76502000Y-137698000D02*
X75270000Y-138930000D01*
X50769200Y-106429200D02*
X76445800Y-132105800D01*
X49270000Y-104540000D02*
X50769200Y-104540000D01*
X50769200Y-104540000D02*
X50769200Y-106429200D01*
X76445800Y-132105800D02*
X76445800Y-135325800D01*
X75270000Y-138930000D02*
X75270000Y-144540000D01*
X76502000Y-135382000D02*
X76502000Y-137698000D01*
X76445800Y-135325800D02*
X76502000Y-135382000D01*
%TO.N,SIPM_K21*%
X57717200Y-78940000D02*
X72117200Y-64540000D01*
X49270000Y-78940000D02*
X57717200Y-78940000D01*
X72117200Y-64540000D02*
X75270000Y-64540000D01*
%TO.N,SIPM_K13*%
X43540000Y-84540000D02*
X28692900Y-84540000D01*
X28692900Y-84540000D02*
X20692900Y-76540000D01*
X20692900Y-76540000D02*
X17540000Y-76540000D01*
%TO.N,SIPM_K23*%
X49270000Y-82140000D02*
X70517200Y-82140000D01*
X70517200Y-82140000D02*
X72117200Y-80540000D01*
X72117200Y-80540000D02*
X75270000Y-80540000D01*
%TO.N,SIPM_K0*%
X70517200Y-94940000D02*
X72117200Y-96540000D01*
X72117200Y-96540000D02*
X75270000Y-96540000D01*
X49270000Y-94940000D02*
X70517200Y-94940000D01*
%TO.N,SIPM_K16*%
X72258000Y-28540000D02*
X73290000Y-28540000D01*
X49270000Y-70940000D02*
X50769200Y-70940000D01*
X75270000Y-26560000D02*
X75270000Y-24540000D01*
X73290000Y-28540000D02*
X75270000Y-26560000D01*
X50769200Y-50028800D02*
X72258000Y-28540000D01*
X50769200Y-70940000D02*
X50769200Y-50028800D01*
%TO.N,SIPM_K9*%
X20692900Y-108540000D02*
X17540000Y-108540000D01*
X35092900Y-94140000D02*
X20692900Y-108540000D01*
X43540000Y-94140000D02*
X35092900Y-94140000D01*
%TO.N,SIPM_K5*%
X49270000Y-102940000D02*
X47770800Y-102940000D01*
X74533900Y-153772000D02*
X50199200Y-129437300D01*
X50199200Y-129437300D02*
X50199200Y-108059000D01*
X49049400Y-106909200D02*
X48129200Y-106909200D01*
X47770800Y-106550800D02*
X47770800Y-102940000D01*
X74022600Y-145682600D02*
X75990900Y-147650900D01*
X75990900Y-150870900D02*
X76502000Y-151382000D01*
X50199200Y-108059000D02*
X49049400Y-106909200D01*
X74022600Y-143582600D02*
X74022600Y-145682600D01*
X75755900Y-153772000D02*
X74533900Y-153772000D01*
X75990900Y-147650900D02*
X75990900Y-150870900D01*
X75270000Y-136540000D02*
X74604600Y-137205400D01*
X74604600Y-143000600D02*
X74022600Y-143582600D01*
X48129200Y-106909200D02*
X47770800Y-106550800D01*
X76502000Y-153025900D02*
X75755900Y-153772000D01*
X76502000Y-151382000D02*
X76502000Y-153025900D01*
X74604600Y-137205400D02*
X74604600Y-143000600D01*
%TO.N,SIPM_K1*%
X49270000Y-96540000D02*
X64117200Y-96540000D01*
X64117200Y-96540000D02*
X72117200Y-104540000D01*
X72117200Y-104540000D02*
X75270000Y-104540000D01*
%TO.N,SIPM_K14*%
X35092900Y-82940000D02*
X20692900Y-68540000D01*
X43540000Y-82940000D02*
X35092900Y-82940000D01*
X20692900Y-68540000D02*
X17540000Y-68540000D01*
%TO.N,SIPM_K12*%
X20692900Y-84540000D02*
X17540000Y-84540000D01*
X22292900Y-86140000D02*
X20692900Y-84540000D01*
X43540000Y-86140000D02*
X22292900Y-86140000D01*
%TO.N,SIPM_K19*%
X50769200Y-74031500D02*
X72164900Y-52635800D01*
X73104700Y-52635800D02*
X75270000Y-50470500D01*
X75270000Y-50470500D02*
X75270000Y-48540000D01*
X50769200Y-75740000D02*
X50769200Y-74031500D01*
X72164900Y-52635800D02*
X73104700Y-52635800D01*
X49270000Y-75740000D02*
X50769200Y-75740000D01*
%TO.N,IV*%
X49270000Y-90940000D02*
X50769200Y-90940000D01*
X49270000Y-86140000D02*
X50769200Y-86140000D01*
X50769200Y-88540000D02*
X50769200Y-90940000D01*
X50769200Y-88540000D02*
X75270000Y-88540000D01*
X50769200Y-86140000D02*
X50769200Y-88540000D01*
%TO.N,SIPM_K17*%
X74743400Y-33066600D02*
X74743400Y-35086600D01*
X75270000Y-32540000D02*
X74743400Y-33066600D01*
X72258000Y-36540000D02*
X70907500Y-37890500D01*
X73290000Y-36540000D02*
X72258000Y-36540000D01*
X70907500Y-37890500D02*
X70907500Y-52401700D01*
X49270000Y-72540000D02*
X50769200Y-72540000D01*
X70907500Y-52401700D02*
X50769200Y-72540000D01*
X74743400Y-35086600D02*
X73290000Y-36540000D01*
%TD*%
%TA.AperFunction,Conductor*%
%TO.N,GNDA*%
G36*
X50867403Y-108392630D02*
G01*
X50873881Y-108398662D01*
X69104081Y-126628862D01*
X69137566Y-126690185D01*
X69140400Y-126716543D01*
X69140400Y-145859945D01*
X69140400Y-145981855D01*
X69164064Y-146070172D01*
X69171953Y-146099612D01*
X69171956Y-146099617D01*
X69232903Y-146205182D01*
X69232907Y-146205187D01*
X69232908Y-146205189D01*
X71852008Y-148824289D01*
X71938211Y-148910492D01*
X71938213Y-148910493D01*
X71938217Y-148910496D01*
X72043782Y-148971443D01*
X72043789Y-148971447D01*
X72161545Y-149003000D01*
X73031357Y-149003000D01*
X73098396Y-149022685D01*
X73119038Y-149039319D01*
X74770681Y-150690962D01*
X74804166Y-150752285D01*
X74807000Y-150778643D01*
X74807000Y-151408685D01*
X74787315Y-151475724D01*
X74739296Y-151519169D01*
X74667004Y-151556004D01*
X74520505Y-151662441D01*
X74520500Y-151662445D01*
X74392445Y-151790500D01*
X74392441Y-151790505D01*
X74286006Y-151937002D01*
X74203788Y-152098360D01*
X74203787Y-152098363D01*
X74147829Y-152270589D01*
X74122927Y-152427810D01*
X74092997Y-152490944D01*
X74033686Y-152527875D01*
X73963823Y-152526877D01*
X73912773Y-152496092D01*
X50698519Y-129281838D01*
X50665034Y-129220515D01*
X50662200Y-129194157D01*
X50662200Y-108486343D01*
X50681885Y-108419304D01*
X50734689Y-108373549D01*
X50803847Y-108363605D01*
X50867403Y-108392630D01*
G37*
%TD.AperFunction*%
%TA.AperFunction,Conductor*%
G36*
X70271603Y-126586830D02*
G01*
X70278081Y-126592862D01*
X75946481Y-132261262D01*
X75979966Y-132322585D01*
X75982800Y-132348943D01*
X75982800Y-135264845D01*
X75982800Y-135386755D01*
X75982801Y-135386758D01*
X75983817Y-135394478D01*
X75973049Y-135463513D01*
X75926668Y-135515768D01*
X75859399Y-135534652D01*
X75804582Y-135521146D01*
X75711639Y-135473788D01*
X75711636Y-135473787D01*
X75539410Y-135417829D01*
X75360551Y-135389500D01*
X75360546Y-135389500D01*
X75179454Y-135389500D01*
X75179449Y-135389500D01*
X75000589Y-135417829D01*
X74828363Y-135473787D01*
X74828360Y-135473788D01*
X74667002Y-135556006D01*
X74520505Y-135662441D01*
X74520500Y-135662445D01*
X74392445Y-135790500D01*
X74392441Y-135790505D01*
X74286006Y-135937002D01*
X74203788Y-136098360D01*
X74203787Y-136098363D01*
X74147829Y-136270589D01*
X74119500Y-136449448D01*
X74119500Y-136630551D01*
X74147829Y-136809412D01*
X74185062Y-136924006D01*
X74187057Y-136993847D01*
X74174521Y-137024318D01*
X74173154Y-137026684D01*
X74173153Y-137026689D01*
X74141600Y-137144445D01*
X74141600Y-137144447D01*
X74141600Y-142757457D01*
X74121915Y-142824496D01*
X74105281Y-142845138D01*
X73652109Y-143298309D01*
X73652103Y-143298317D01*
X73591156Y-143403882D01*
X73591153Y-143403887D01*
X73577999Y-143452981D01*
X73559600Y-143521645D01*
X73559600Y-145621645D01*
X73559600Y-145743555D01*
X73583264Y-145831872D01*
X73591153Y-145861312D01*
X73591156Y-145861317D01*
X73652103Y-145966882D01*
X73652109Y-145966890D01*
X75491581Y-147806361D01*
X75525066Y-147867684D01*
X75527900Y-147894042D01*
X75527900Y-149839257D01*
X75508215Y-149906296D01*
X75455411Y-149952051D01*
X75386253Y-149961995D01*
X75322697Y-149932970D01*
X75316219Y-149926938D01*
X73558790Y-148169509D01*
X73558782Y-148169503D01*
X73453217Y-148108556D01*
X73453212Y-148108553D01*
X73423772Y-148100664D01*
X73335455Y-148077000D01*
X73335452Y-148077000D01*
X72465643Y-148077000D01*
X72398604Y-148057315D01*
X72377962Y-148040681D01*
X70102719Y-145765438D01*
X70069234Y-145704115D01*
X70066400Y-145677757D01*
X70066400Y-126680543D01*
X70086085Y-126613504D01*
X70138889Y-126567749D01*
X70208047Y-126557805D01*
X70271603Y-126586830D01*
G37*
%TD.AperFunction*%
%TA.AperFunction,Conductor*%
G36*
X51437403Y-104410130D02*
G01*
X51443881Y-104416162D01*
X71938211Y-124910492D01*
X71938213Y-124910493D01*
X71938217Y-124910496D01*
X72043782Y-124971443D01*
X72043789Y-124971447D01*
X72161545Y-125003000D01*
X72283455Y-125003000D01*
X73031357Y-125003000D01*
X73098396Y-125022685D01*
X73119038Y-125039319D01*
X74770681Y-126690962D01*
X74804166Y-126752285D01*
X74807000Y-126778643D01*
X74807000Y-127408685D01*
X74787315Y-127475724D01*
X74739296Y-127519169D01*
X74667004Y-127556004D01*
X74520505Y-127662441D01*
X74520500Y-127662445D01*
X74392445Y-127790500D01*
X74392441Y-127790505D01*
X74286006Y-127937002D01*
X74203788Y-128098360D01*
X74203787Y-128098363D01*
X74147829Y-128270589D01*
X74119500Y-128449448D01*
X74119500Y-128630551D01*
X74147828Y-128809408D01*
X74153618Y-128827227D01*
X74155612Y-128897068D01*
X74119530Y-128956900D01*
X74056829Y-128987727D01*
X73987414Y-128979761D01*
X73948005Y-128953224D01*
X51268519Y-106273738D01*
X51235034Y-106212415D01*
X51232200Y-106186057D01*
X51232200Y-104503843D01*
X51251885Y-104436804D01*
X51304689Y-104391049D01*
X51373847Y-104381105D01*
X51437403Y-104410130D01*
G37*
%TD.AperFunction*%
%TA.AperFunction,Conductor*%
G36*
X50249239Y-105065184D02*
G01*
X50294994Y-105117988D01*
X50306200Y-105169499D01*
X50306200Y-105510500D01*
X50286515Y-105577539D01*
X50233711Y-105623294D01*
X50182200Y-105634500D01*
X48357800Y-105634500D01*
X48290761Y-105614815D01*
X48245006Y-105562011D01*
X48233800Y-105510500D01*
X48233800Y-105169499D01*
X48253485Y-105102460D01*
X48306289Y-105056705D01*
X48357800Y-105045499D01*
X50182200Y-105045499D01*
X50249239Y-105065184D01*
G37*
%TD.AperFunction*%
%TA.AperFunction,Conductor*%
G36*
X50488895Y-103465184D02*
G01*
X50509537Y-103481818D01*
X50893038Y-103865319D01*
X50903650Y-103884755D01*
X50918151Y-103901489D01*
X50920067Y-103914820D01*
X50926523Y-103926642D01*
X50924943Y-103948728D01*
X50928095Y-103970647D01*
X50922499Y-103982898D01*
X50921539Y-103996334D01*
X50908268Y-104014060D01*
X50899070Y-104034203D01*
X50887738Y-104041485D01*
X50879667Y-104052267D01*
X50858921Y-104060004D01*
X50840292Y-104071977D01*
X50818373Y-104075128D01*
X50814203Y-104076684D01*
X50805357Y-104077000D01*
X50590801Y-104077000D01*
X50540715Y-104066435D01*
X50474991Y-104037415D01*
X50468709Y-104036686D01*
X50449868Y-104034500D01*
X50449865Y-104034500D01*
X48357800Y-104034500D01*
X48290761Y-104014815D01*
X48245006Y-103962011D01*
X48233800Y-103910500D01*
X48233800Y-103569499D01*
X48253485Y-103502460D01*
X48306289Y-103456705D01*
X48357800Y-103445499D01*
X50421856Y-103445499D01*
X50488895Y-103465184D01*
G37*
%TD.AperFunction*%
%TA.AperFunction,Conductor*%
G36*
X50838282Y-73004839D02*
G01*
X50897196Y-73014023D01*
X50949456Y-73060399D01*
X50968346Y-73127666D01*
X50947871Y-73194468D01*
X50932036Y-73213881D01*
X50547376Y-73598541D01*
X50486053Y-73632026D01*
X50452563Y-73634655D01*
X50449872Y-73634500D01*
X50449865Y-73634500D01*
X48357800Y-73634500D01*
X48290761Y-73614815D01*
X48245006Y-73562011D01*
X48233800Y-73510500D01*
X48233800Y-73169499D01*
X48253485Y-73102460D01*
X48306289Y-73056705D01*
X48357800Y-73045499D01*
X50449856Y-73045499D01*
X50449864Y-73045499D01*
X50449879Y-73045497D01*
X50449882Y-73045497D01*
X50474987Y-73042586D01*
X50474987Y-73042585D01*
X50474991Y-73042585D01*
X50530018Y-73018288D01*
X50540716Y-73013565D01*
X50590801Y-73003000D01*
X50838282Y-73003000D01*
X50838282Y-73004839D01*
G37*
%TD.AperFunction*%
%TA.AperFunction,Conductor*%
G36*
X51075894Y-71396876D02*
G01*
X51111555Y-71456959D01*
X51109072Y-71526785D01*
X51079093Y-71575325D01*
X50633568Y-72020850D01*
X50572245Y-72054335D01*
X50502553Y-72049351D01*
X50495800Y-72046603D01*
X50474992Y-72037415D01*
X50449868Y-72034500D01*
X50449865Y-72034500D01*
X48357800Y-72034500D01*
X48290761Y-72014815D01*
X48245006Y-71962011D01*
X48233800Y-71910500D01*
X48233800Y-71569499D01*
X48253485Y-71502460D01*
X48306289Y-71456705D01*
X48357800Y-71445499D01*
X50449856Y-71445499D01*
X50449864Y-71445499D01*
X50449879Y-71445497D01*
X50449882Y-71445497D01*
X50474987Y-71442586D01*
X50474987Y-71442585D01*
X50474991Y-71442585D01*
X50531058Y-71417829D01*
X50540716Y-71413565D01*
X50590801Y-71403000D01*
X50830152Y-71403000D01*
X50830155Y-71403000D01*
X50947911Y-71371447D01*
X50947912Y-71371445D01*
X50955761Y-71369343D01*
X50956405Y-71371748D01*
X51013410Y-71365611D01*
X51075894Y-71396876D01*
G37*
%TD.AperFunction*%
%TA.AperFunction,Conductor*%
G36*
X75887613Y-26591213D02*
G01*
X75941491Y-26635698D01*
X75962765Y-26702250D01*
X75962800Y-26705201D01*
X75962800Y-31244845D01*
X75962800Y-31366755D01*
X75964879Y-31374515D01*
X75965757Y-31379210D01*
X75962702Y-31409412D01*
X75961979Y-31439754D01*
X75959221Y-31443828D01*
X75958726Y-31448725D01*
X75939826Y-31472481D01*
X75922815Y-31497615D01*
X75918291Y-31499551D01*
X75915228Y-31503403D01*
X75886487Y-31513170D01*
X75858585Y-31525118D01*
X75853732Y-31524301D01*
X75849074Y-31525885D01*
X75819618Y-31518563D01*
X75789683Y-31513529D01*
X75787573Y-31512479D01*
X75711639Y-31473789D01*
X75711636Y-31473787D01*
X75539410Y-31417829D01*
X75360551Y-31389500D01*
X75360546Y-31389500D01*
X75179454Y-31389500D01*
X75179449Y-31389500D01*
X75000589Y-31417829D01*
X74828363Y-31473787D01*
X74828360Y-31473788D01*
X74667002Y-31556006D01*
X74520505Y-31662441D01*
X74520500Y-31662445D01*
X74392445Y-31790500D01*
X74392441Y-31790505D01*
X74286006Y-31937002D01*
X74203788Y-32098360D01*
X74203787Y-32098363D01*
X74147829Y-32270589D01*
X74119500Y-32449448D01*
X74119500Y-32630551D01*
X74147829Y-32809410D01*
X74203787Y-32981636D01*
X74203790Y-32981644D01*
X74266884Y-33105469D01*
X74280400Y-33161765D01*
X74280400Y-34843457D01*
X74260715Y-34910496D01*
X74244081Y-34931138D01*
X73134538Y-36040681D01*
X73073215Y-36074166D01*
X73046857Y-36077000D01*
X72318954Y-36077000D01*
X72197045Y-36077000D01*
X72088940Y-36105966D01*
X72079284Y-36108554D01*
X71973714Y-36169505D01*
X71973708Y-36169510D01*
X70537009Y-37606209D01*
X70537003Y-37606217D01*
X70476056Y-37711782D01*
X70476053Y-37711787D01*
X70460276Y-37770667D01*
X70444500Y-37829545D01*
X70444500Y-37829547D01*
X70444500Y-52158557D01*
X70424815Y-52225596D01*
X70408181Y-52246238D01*
X51404525Y-71249893D01*
X51343202Y-71283378D01*
X51273510Y-71278394D01*
X51217577Y-71236522D01*
X51193160Y-71171058D01*
X51200297Y-71127031D01*
X51198543Y-71126561D01*
X51200645Y-71118712D01*
X51200647Y-71118711D01*
X51232200Y-71000955D01*
X51232200Y-50271943D01*
X51251885Y-50204904D01*
X51268519Y-50184262D01*
X72413462Y-29039319D01*
X72474785Y-29005834D01*
X72501143Y-29003000D01*
X73350952Y-29003000D01*
X73350955Y-29003000D01*
X73468711Y-28971447D01*
X73574289Y-28910492D01*
X75640492Y-26844289D01*
X75701447Y-26738711D01*
X75719026Y-26673104D01*
X75755390Y-26613447D01*
X75818237Y-26582918D01*
X75887613Y-26591213D01*
G37*
%TD.AperFunction*%
%TA.AperFunction,Conductor*%
G36*
X74043788Y-24555405D02*
G01*
X74099721Y-24597277D01*
X74122927Y-24652189D01*
X74147829Y-24809410D01*
X74203787Y-24981636D01*
X74203788Y-24981639D01*
X74286006Y-25142997D01*
X74392441Y-25289494D01*
X74392445Y-25289499D01*
X74520500Y-25417554D01*
X74520505Y-25417558D01*
X74659275Y-25518379D01*
X74667006Y-25523996D01*
X74739294Y-25560828D01*
X74790091Y-25608802D01*
X74807000Y-25671313D01*
X74807000Y-26316857D01*
X74787315Y-26383896D01*
X74770681Y-26404538D01*
X73134538Y-28040681D01*
X73073215Y-28074166D01*
X73046857Y-28077000D01*
X72318954Y-28077000D01*
X72197045Y-28077000D01*
X72088940Y-28105966D01*
X72079284Y-28108554D01*
X71973714Y-28169505D01*
X71973708Y-28169510D01*
X50398709Y-49744509D01*
X50398703Y-49744517D01*
X50337756Y-49850082D01*
X50337753Y-49850087D01*
X50321976Y-49908967D01*
X50306200Y-49967845D01*
X50306200Y-49967847D01*
X50306200Y-70310500D01*
X50286515Y-70377539D01*
X50233711Y-70423294D01*
X50182200Y-70434500D01*
X48357800Y-70434500D01*
X48290761Y-70414815D01*
X48245006Y-70362011D01*
X48233800Y-70310500D01*
X48233800Y-68993693D01*
X48253485Y-68926654D01*
X48306289Y-68880899D01*
X48375447Y-68870955D01*
X48439003Y-68899980D01*
X48460901Y-68924801D01*
X48472460Y-68942100D01*
X48484282Y-68959793D01*
X48590205Y-69065716D01*
X48590209Y-69065719D01*
X48714761Y-69148943D01*
X48714767Y-69148946D01*
X48714768Y-69148947D01*
X48853170Y-69206275D01*
X49000092Y-69235499D01*
X49000096Y-69235500D01*
X49000097Y-69235500D01*
X49149904Y-69235500D01*
X49149905Y-69235499D01*
X49296830Y-69206275D01*
X49435232Y-69148947D01*
X49559791Y-69065719D01*
X49665719Y-68959791D01*
X49748947Y-68835232D01*
X49806275Y-68696830D01*
X49835500Y-68549903D01*
X49835500Y-68400097D01*
X49806275Y-68253170D01*
X49748947Y-68114768D01*
X49748946Y-68114767D01*
X49748943Y-68114761D01*
X49665719Y-67990209D01*
X49665716Y-67990205D01*
X49559794Y-67884283D01*
X49559790Y-67884280D01*
X49435238Y-67801056D01*
X49435229Y-67801051D01*
X49296830Y-67743725D01*
X49296822Y-67743723D01*
X49149907Y-67714500D01*
X49149903Y-67714500D01*
X49000097Y-67714500D01*
X49000092Y-67714500D01*
X48853177Y-67743723D01*
X48853169Y-67743725D01*
X48714770Y-67801051D01*
X48714761Y-67801056D01*
X48590209Y-67884280D01*
X48590205Y-67884283D01*
X48484283Y-67990205D01*
X48484280Y-67990209D01*
X48460902Y-68025197D01*
X48407289Y-68070002D01*
X48337964Y-68078709D01*
X48274937Y-68048554D01*
X48238218Y-67989111D01*
X48233800Y-67956306D01*
X48233800Y-50314242D01*
X48253485Y-50247203D01*
X48270114Y-50226566D01*
X73912775Y-24583904D01*
X73974096Y-24550421D01*
X74043788Y-24555405D01*
G37*
%TD.AperFunction*%
%TA.AperFunction,Conductor*%
G36*
X83252539Y-10520185D02*
G01*
X83298294Y-10572989D01*
X83309500Y-10624500D01*
X83309500Y-166455500D01*
X83289815Y-166522539D01*
X83237011Y-166568294D01*
X83185500Y-166579500D01*
X9624500Y-166579500D01*
X9557461Y-166559815D01*
X9511706Y-166507011D01*
X9500500Y-166455500D01*
X9500500Y-161958711D01*
X15689500Y-161958711D01*
X15689500Y-162201288D01*
X15721161Y-162441785D01*
X15783947Y-162676104D01*
X15876773Y-162900205D01*
X15876776Y-162900212D01*
X15998064Y-163110289D01*
X15998066Y-163110292D01*
X15998067Y-163110293D01*
X16145733Y-163302736D01*
X16145739Y-163302743D01*
X16317256Y-163474260D01*
X16317262Y-163474265D01*
X16509711Y-163621936D01*
X16719788Y-163743224D01*
X16943900Y-163836054D01*
X17178211Y-163898838D01*
X17358586Y-163922584D01*
X17418711Y-163930500D01*
X17418712Y-163930500D01*
X17661289Y-163930500D01*
X17709388Y-163924167D01*
X17901789Y-163898838D01*
X18136100Y-163836054D01*
X18360212Y-163743224D01*
X18570289Y-163621936D01*
X18762738Y-163474265D01*
X18934265Y-163302738D01*
X19081936Y-163110289D01*
X19203224Y-162900212D01*
X19296054Y-162676100D01*
X19358838Y-162441789D01*
X19390500Y-162201288D01*
X19390500Y-161958712D01*
X19390500Y-161958711D01*
X73419500Y-161958711D01*
X73419500Y-162201288D01*
X73451161Y-162441785D01*
X73513947Y-162676104D01*
X73606773Y-162900205D01*
X73606776Y-162900212D01*
X73728064Y-163110289D01*
X73728066Y-163110292D01*
X73728067Y-163110293D01*
X73875733Y-163302736D01*
X73875739Y-163302743D01*
X74047256Y-163474260D01*
X74047262Y-163474265D01*
X74239711Y-163621936D01*
X74449788Y-163743224D01*
X74673900Y-163836054D01*
X74908211Y-163898838D01*
X75088586Y-163922584D01*
X75148711Y-163930500D01*
X75148712Y-163930500D01*
X75391289Y-163930500D01*
X75439388Y-163924167D01*
X75631789Y-163898838D01*
X75866100Y-163836054D01*
X76090212Y-163743224D01*
X76300289Y-163621936D01*
X76492738Y-163474265D01*
X76664265Y-163302738D01*
X76811936Y-163110289D01*
X76933224Y-162900212D01*
X77026054Y-162676100D01*
X77088838Y-162441789D01*
X77120500Y-162201288D01*
X77120500Y-161958712D01*
X77088838Y-161718211D01*
X77026054Y-161483900D01*
X76933224Y-161259788D01*
X76811936Y-161049711D01*
X76664265Y-160857262D01*
X76664260Y-160857256D01*
X76492743Y-160685739D01*
X76492736Y-160685733D01*
X76300293Y-160538067D01*
X76300292Y-160538066D01*
X76300289Y-160538064D01*
X76090212Y-160416776D01*
X76090205Y-160416773D01*
X75866104Y-160323947D01*
X75631785Y-160261161D01*
X75391289Y-160229500D01*
X75391288Y-160229500D01*
X75148712Y-160229500D01*
X75148711Y-160229500D01*
X74908214Y-160261161D01*
X74673895Y-160323947D01*
X74449794Y-160416773D01*
X74449785Y-160416777D01*
X74239706Y-160538067D01*
X74047263Y-160685733D01*
X74047256Y-160685739D01*
X73875739Y-160857256D01*
X73875733Y-160857263D01*
X73728067Y-161049706D01*
X73606777Y-161259785D01*
X73606773Y-161259794D01*
X73513947Y-161483895D01*
X73451161Y-161718214D01*
X73419500Y-161958711D01*
X19390500Y-161958711D01*
X19358838Y-161718211D01*
X19296054Y-161483900D01*
X19203224Y-161259788D01*
X19081936Y-161049711D01*
X18934265Y-160857262D01*
X18934260Y-160857256D01*
X18762743Y-160685739D01*
X18762736Y-160685733D01*
X18570293Y-160538067D01*
X18570292Y-160538066D01*
X18570289Y-160538064D01*
X18360212Y-160416776D01*
X18360205Y-160416773D01*
X18136104Y-160323947D01*
X17901785Y-160261161D01*
X17661289Y-160229500D01*
X17661288Y-160229500D01*
X17418712Y-160229500D01*
X17418711Y-160229500D01*
X17178214Y-160261161D01*
X16943895Y-160323947D01*
X16719794Y-160416773D01*
X16719785Y-160416777D01*
X16509706Y-160538067D01*
X16317263Y-160685733D01*
X16317256Y-160685739D01*
X16145739Y-160857256D01*
X16145733Y-160857263D01*
X15998067Y-161049706D01*
X15876777Y-161259785D01*
X15876773Y-161259794D01*
X15783947Y-161483895D01*
X15721161Y-161718214D01*
X15689500Y-161958711D01*
X9500500Y-161958711D01*
X9500500Y-116449448D01*
X16389500Y-116449448D01*
X16389500Y-116630551D01*
X16417829Y-116809410D01*
X16473787Y-116981636D01*
X16473788Y-116981639D01*
X16556006Y-117142997D01*
X16662441Y-117289494D01*
X16662445Y-117289499D01*
X16790500Y-117417554D01*
X16790505Y-117417558D01*
X16918287Y-117510396D01*
X16937006Y-117523996D01*
X17042484Y-117577740D01*
X17098360Y-117606211D01*
X17098363Y-117606212D01*
X17184476Y-117634191D01*
X17270591Y-117662171D01*
X17353429Y-117675291D01*
X17449449Y-117690500D01*
X17449454Y-117690500D01*
X17630551Y-117690500D01*
X17717259Y-117676765D01*
X17809409Y-117662171D01*
X17981639Y-117606211D01*
X18142994Y-117523996D01*
X18289501Y-117417553D01*
X18417553Y-117289501D01*
X18523996Y-117142994D01*
X18560829Y-117070704D01*
X18608804Y-117019909D01*
X18671314Y-117003000D01*
X20753852Y-117003000D01*
X20753855Y-117003000D01*
X20871611Y-116971447D01*
X20977189Y-116910492D01*
X35008636Y-102879045D01*
X47307800Y-102879045D01*
X47307800Y-106489845D01*
X47307800Y-106611755D01*
X47331464Y-106700072D01*
X47339353Y-106729512D01*
X47339356Y-106729517D01*
X47400303Y-106835082D01*
X47400307Y-106835087D01*
X47400308Y-106835089D01*
X47844911Y-107279692D01*
X47844913Y-107279693D01*
X47844917Y-107279696D01*
X47950482Y-107340643D01*
X47950489Y-107340647D01*
X48068245Y-107372200D01*
X48190155Y-107372200D01*
X48806257Y-107372200D01*
X48873296Y-107391885D01*
X48893938Y-107408519D01*
X49118238Y-107632819D01*
X49151723Y-107694142D01*
X49146739Y-107763834D01*
X49104867Y-107819767D01*
X49039403Y-107844184D01*
X49030557Y-107844500D01*
X49000092Y-107844500D01*
X48853177Y-107873723D01*
X48853169Y-107873725D01*
X48714770Y-107931051D01*
X48714761Y-107931056D01*
X48590209Y-108014280D01*
X48590205Y-108014283D01*
X48484283Y-108120205D01*
X48484280Y-108120209D01*
X48401056Y-108244761D01*
X48401051Y-108244770D01*
X48343725Y-108383169D01*
X48343723Y-108383177D01*
X48314500Y-108530092D01*
X48314500Y-108679907D01*
X48343723Y-108826822D01*
X48343725Y-108826830D01*
X48401051Y-108965229D01*
X48401056Y-108965238D01*
X48484280Y-109089790D01*
X48484283Y-109089794D01*
X48590205Y-109195716D01*
X48590209Y-109195719D01*
X48714761Y-109278943D01*
X48714767Y-109278946D01*
X48714768Y-109278947D01*
X48853170Y-109336275D01*
X49000092Y-109365499D01*
X49000096Y-109365500D01*
X49000097Y-109365500D01*
X49149904Y-109365500D01*
X49149905Y-109365499D01*
X49296830Y-109336275D01*
X49435232Y-109278947D01*
X49543309Y-109206732D01*
X49609986Y-109185854D01*
X49677366Y-109204338D01*
X49724057Y-109256317D01*
X49736200Y-109309834D01*
X49736200Y-129376345D01*
X49736200Y-129498255D01*
X49759864Y-129586572D01*
X49767753Y-129616012D01*
X49767756Y-129616017D01*
X49828703Y-129721582D01*
X49828707Y-129721587D01*
X49828708Y-129721589D01*
X74163408Y-154056289D01*
X74249611Y-154142492D01*
X74249613Y-154142493D01*
X74249617Y-154142496D01*
X74355182Y-154203443D01*
X74355189Y-154203447D01*
X74472945Y-154235000D01*
X74472948Y-154235000D01*
X75816852Y-154235000D01*
X75816855Y-154235000D01*
X75934611Y-154203447D01*
X76040189Y-154142492D01*
X76872492Y-153310189D01*
X76933447Y-153204611D01*
X76965000Y-153086855D01*
X76965000Y-152964945D01*
X76965000Y-151321045D01*
X76933447Y-151203289D01*
X76933443Y-151203282D01*
X76872496Y-151097717D01*
X76872493Y-151097713D01*
X76872492Y-151097711D01*
X76786289Y-151011508D01*
X76786288Y-151011507D01*
X76781958Y-151007177D01*
X76781947Y-151007167D01*
X76490219Y-150715438D01*
X76456734Y-150654115D01*
X76453900Y-150627757D01*
X76453900Y-147589947D01*
X76453900Y-147589945D01*
X76422347Y-147472189D01*
X76422343Y-147472182D01*
X76361396Y-147366617D01*
X76361393Y-147366613D01*
X76361392Y-147366611D01*
X76275189Y-147280408D01*
X76275188Y-147280407D01*
X76270858Y-147276077D01*
X76270847Y-147276067D01*
X74856775Y-145861994D01*
X74823290Y-145800671D01*
X74828274Y-145730979D01*
X74870146Y-145675046D01*
X74935610Y-145650629D01*
X74982773Y-145656381D01*
X75000591Y-145662171D01*
X75030401Y-145666892D01*
X75179449Y-145690500D01*
X75179454Y-145690500D01*
X75360551Y-145690500D01*
X75447259Y-145676765D01*
X75539409Y-145662171D01*
X75711639Y-145606211D01*
X75872994Y-145523996D01*
X76019501Y-145417553D01*
X76147553Y-145289501D01*
X76253996Y-145142994D01*
X76336211Y-144981639D01*
X76392171Y-144809409D01*
X76406765Y-144717259D01*
X76420500Y-144630551D01*
X76420500Y-144449448D01*
X76404019Y-144345397D01*
X76392171Y-144270591D01*
X76336211Y-144098361D01*
X76336211Y-144098360D01*
X76307740Y-144042484D01*
X76253996Y-143937006D01*
X76240396Y-143918287D01*
X76147558Y-143790505D01*
X76147554Y-143790500D01*
X76019499Y-143662445D01*
X76019494Y-143662441D01*
X75872995Y-143556004D01*
X75800704Y-143519169D01*
X75749908Y-143471194D01*
X75733000Y-143408685D01*
X75733000Y-139173143D01*
X75752685Y-139106104D01*
X75769319Y-139085462D01*
X76872492Y-137982289D01*
X76933447Y-137876711D01*
X76965000Y-137758955D01*
X76965000Y-137637045D01*
X76965000Y-135321045D01*
X76933447Y-135203289D01*
X76933443Y-135203282D01*
X76925411Y-135189368D01*
X76908800Y-135127372D01*
X76908800Y-132044847D01*
X76908800Y-132044845D01*
X76877247Y-131927089D01*
X76877243Y-131927082D01*
X76816296Y-131821517D01*
X76816290Y-131821509D01*
X74856775Y-129861994D01*
X74823290Y-129800671D01*
X74828274Y-129730979D01*
X74870146Y-129675046D01*
X74935610Y-129650629D01*
X74982773Y-129656381D01*
X75000591Y-129662171D01*
X75030401Y-129666892D01*
X75179449Y-129690500D01*
X75179454Y-129690500D01*
X75360551Y-129690500D01*
X75447259Y-129676765D01*
X75539409Y-129662171D01*
X75711639Y-129606211D01*
X75872994Y-129523996D01*
X76019501Y-129417553D01*
X76147553Y-129289501D01*
X76253996Y-129142994D01*
X76336211Y-128981639D01*
X76392171Y-128809409D01*
X76406765Y-128717259D01*
X76420500Y-128630551D01*
X76420500Y-128449448D01*
X76404019Y-128345397D01*
X76392171Y-128270591D01*
X76336211Y-128098361D01*
X76336211Y-128098360D01*
X76307740Y-128042484D01*
X76253996Y-127937006D01*
X76240396Y-127918287D01*
X76147558Y-127790505D01*
X76147554Y-127790500D01*
X76019499Y-127662445D01*
X76019494Y-127662441D01*
X75872995Y-127556004D01*
X75800704Y-127519169D01*
X75749908Y-127471194D01*
X75733000Y-127408685D01*
X75733000Y-126474547D01*
X75733000Y-126474545D01*
X75701447Y-126356789D01*
X75701443Y-126356782D01*
X75640496Y-126251217D01*
X75640490Y-126251209D01*
X73558790Y-124169509D01*
X73558782Y-124169503D01*
X73453217Y-124108556D01*
X73453212Y-124108553D01*
X73423772Y-124100664D01*
X73335455Y-124077000D01*
X73335452Y-124077000D01*
X72465643Y-124077000D01*
X72398604Y-124057315D01*
X72377962Y-124040681D01*
X51268519Y-102931238D01*
X51235034Y-102869915D01*
X51232200Y-102843557D01*
X51232200Y-101279047D01*
X51232200Y-101279045D01*
X51200647Y-101161289D01*
X51190086Y-101142997D01*
X51139696Y-101055717D01*
X51139690Y-101055709D01*
X51053490Y-100969509D01*
X51053482Y-100969503D01*
X50947917Y-100908556D01*
X50947912Y-100908553D01*
X50918472Y-100900664D01*
X50830155Y-100877000D01*
X50830152Y-100877000D01*
X50590801Y-100877000D01*
X50540715Y-100866435D01*
X50474991Y-100837415D01*
X50449865Y-100834500D01*
X48090143Y-100834500D01*
X48090117Y-100834502D01*
X48065012Y-100837413D01*
X48065008Y-100837415D01*
X47962235Y-100882793D01*
X47882794Y-100962234D01*
X47837415Y-101065006D01*
X47837415Y-101065008D01*
X47834500Y-101090131D01*
X47834500Y-101589856D01*
X47834502Y-101589882D01*
X47837413Y-101614987D01*
X47837415Y-101614991D01*
X47882793Y-101717764D01*
X47882794Y-101717765D01*
X47962235Y-101797206D01*
X48065009Y-101842585D01*
X48090135Y-101845500D01*
X50182200Y-101845499D01*
X50249239Y-101865184D01*
X50294994Y-101917987D01*
X50306200Y-101969499D01*
X50306200Y-102310500D01*
X50286515Y-102377539D01*
X50233711Y-102423294D01*
X50182200Y-102434500D01*
X48090143Y-102434500D01*
X48090117Y-102434502D01*
X48065012Y-102437413D01*
X48065011Y-102437414D01*
X47999284Y-102466435D01*
X47949199Y-102477000D01*
X47831755Y-102477000D01*
X47709845Y-102477000D01*
X47639191Y-102495931D01*
X47592087Y-102508553D01*
X47592082Y-102508556D01*
X47486517Y-102569503D01*
X47486509Y-102569509D01*
X47400309Y-102655709D01*
X47400303Y-102655717D01*
X47339356Y-102761282D01*
X47339353Y-102761287D01*
X47333472Y-102783237D01*
X47307800Y-102879045D01*
X35008636Y-102879045D01*
X38397550Y-99490131D01*
X47834500Y-99490131D01*
X47834500Y-99989856D01*
X47834502Y-99989882D01*
X47837413Y-100014987D01*
X47837415Y-100014991D01*
X47882793Y-100117764D01*
X47882794Y-100117765D01*
X47962235Y-100197206D01*
X48065009Y-100242585D01*
X48090135Y-100245500D01*
X50449864Y-100245499D01*
X50449879Y-100245497D01*
X50449882Y-100245497D01*
X50474987Y-100242586D01*
X50474987Y-100242585D01*
X50474991Y-100242585D01*
X50530018Y-100218288D01*
X50540716Y-100213565D01*
X50590801Y-100203000D01*
X51074057Y-100203000D01*
X51141096Y-100222685D01*
X51161738Y-100239319D01*
X71832911Y-120910492D01*
X71832913Y-120910493D01*
X71832917Y-120910496D01*
X71938482Y-120971443D01*
X71938489Y-120971447D01*
X72056245Y-121003000D01*
X72178155Y-121003000D01*
X74138686Y-121003000D01*
X74205725Y-121022685D01*
X74249171Y-121070705D01*
X74286006Y-121142997D01*
X74392441Y-121289494D01*
X74392445Y-121289499D01*
X74520500Y-121417554D01*
X74520505Y-121417558D01*
X74648287Y-121510396D01*
X74667006Y-121523996D01*
X74772484Y-121577740D01*
X74828360Y-121606211D01*
X74828363Y-121606212D01*
X74914476Y-121634191D01*
X75000591Y-121662171D01*
X75083429Y-121675291D01*
X75179449Y-121690500D01*
X75179454Y-121690500D01*
X75360551Y-121690500D01*
X75447259Y-121676765D01*
X75539409Y-121662171D01*
X75711639Y-121606211D01*
X75872994Y-121523996D01*
X76019501Y-121417553D01*
X76147553Y-121289501D01*
X76253996Y-121142994D01*
X76336211Y-120981639D01*
X76392171Y-120809409D01*
X76406765Y-120717259D01*
X76420500Y-120630551D01*
X76420500Y-120449448D01*
X76404019Y-120345397D01*
X76392171Y-120270591D01*
X76336211Y-120098361D01*
X76336211Y-120098360D01*
X76290829Y-120009295D01*
X76253996Y-119937006D01*
X76240396Y-119918287D01*
X76147558Y-119790505D01*
X76147554Y-119790500D01*
X76019499Y-119662445D01*
X76019494Y-119662441D01*
X75872997Y-119556006D01*
X75872996Y-119556005D01*
X75872994Y-119556004D01*
X75821300Y-119529664D01*
X75711639Y-119473788D01*
X75711636Y-119473787D01*
X75539410Y-119417829D01*
X75360551Y-119389500D01*
X75360546Y-119389500D01*
X75179454Y-119389500D01*
X75179449Y-119389500D01*
X75000589Y-119417829D01*
X74828363Y-119473787D01*
X74828360Y-119473788D01*
X74667002Y-119556006D01*
X74520505Y-119662441D01*
X74520500Y-119662445D01*
X74392445Y-119790500D01*
X74392441Y-119790505D01*
X74286006Y-119937002D01*
X74249171Y-120009295D01*
X74201196Y-120060091D01*
X74138686Y-120077000D01*
X72360343Y-120077000D01*
X72293304Y-120057315D01*
X72272662Y-120040681D01*
X51601490Y-99369509D01*
X51601482Y-99369503D01*
X51495917Y-99308556D01*
X51495912Y-99308553D01*
X51466472Y-99300664D01*
X51378155Y-99277000D01*
X51378152Y-99277000D01*
X50590801Y-99277000D01*
X50540715Y-99266435D01*
X50474991Y-99237415D01*
X50449865Y-99234500D01*
X48090143Y-99234500D01*
X48090117Y-99234502D01*
X48065012Y-99237413D01*
X48065008Y-99237415D01*
X47962235Y-99282793D01*
X47882794Y-99362234D01*
X47837415Y-99465006D01*
X47837415Y-99465008D01*
X47834500Y-99490131D01*
X38397550Y-99490131D01*
X39997550Y-97890131D01*
X47834500Y-97890131D01*
X47834500Y-98389856D01*
X47834502Y-98389882D01*
X47837413Y-98414987D01*
X47837415Y-98414991D01*
X47882793Y-98517764D01*
X47882794Y-98517765D01*
X47962235Y-98597206D01*
X48065009Y-98642585D01*
X48090135Y-98645500D01*
X50449864Y-98645499D01*
X50449879Y-98645497D01*
X50449882Y-98645497D01*
X50474987Y-98642586D01*
X50474987Y-98642585D01*
X50474991Y-98642585D01*
X50530018Y-98618288D01*
X50540716Y-98613565D01*
X50590801Y-98603000D01*
X57474057Y-98603000D01*
X57541096Y-98622685D01*
X57561738Y-98639319D01*
X71832911Y-112910492D01*
X71832912Y-112910493D01*
X71832914Y-112910494D01*
X71938484Y-112971445D01*
X71938485Y-112971445D01*
X71938488Y-112971447D01*
X72056245Y-113003000D01*
X74138686Y-113003000D01*
X74205725Y-113022685D01*
X74249171Y-113070705D01*
X74286006Y-113142997D01*
X74392441Y-113289494D01*
X74392445Y-113289499D01*
X74520500Y-113417554D01*
X74520505Y-113417558D01*
X74648287Y-113510396D01*
X74667006Y-113523996D01*
X74772484Y-113577740D01*
X74828360Y-113606211D01*
X74828363Y-113606212D01*
X74914476Y-113634191D01*
X75000591Y-113662171D01*
X75083429Y-113675291D01*
X75179449Y-113690500D01*
X75179454Y-113690500D01*
X75360551Y-113690500D01*
X75447259Y-113676765D01*
X75539409Y-113662171D01*
X75711639Y-113606211D01*
X75872994Y-113523996D01*
X76019501Y-113417553D01*
X76147553Y-113289501D01*
X76253996Y-113142994D01*
X76336211Y-112981639D01*
X76392171Y-112809409D01*
X76406765Y-112717259D01*
X76420500Y-112630551D01*
X76420500Y-112449448D01*
X76404019Y-112345397D01*
X76392171Y-112270591D01*
X76336211Y-112098361D01*
X76336211Y-112098360D01*
X76290829Y-112009295D01*
X76253996Y-111937006D01*
X76240396Y-111918287D01*
X76147558Y-111790505D01*
X76147554Y-111790500D01*
X76019499Y-111662445D01*
X76019494Y-111662441D01*
X75872997Y-111556006D01*
X75872996Y-111556005D01*
X75872994Y-111556004D01*
X75821300Y-111529664D01*
X75711639Y-111473788D01*
X75711636Y-111473787D01*
X75539410Y-111417829D01*
X75360551Y-111389500D01*
X75360546Y-111389500D01*
X75179454Y-111389500D01*
X75179449Y-111389500D01*
X75000589Y-111417829D01*
X74828363Y-111473787D01*
X74828360Y-111473788D01*
X74667002Y-111556006D01*
X74520505Y-111662441D01*
X74520500Y-111662445D01*
X74392445Y-111790500D01*
X74392441Y-111790505D01*
X74286006Y-111937002D01*
X74249171Y-112009295D01*
X74201196Y-112060091D01*
X74138686Y-112077000D01*
X72360343Y-112077000D01*
X72293304Y-112057315D01*
X72272662Y-112040681D01*
X58001490Y-97769509D01*
X58001482Y-97769503D01*
X57895917Y-97708556D01*
X57895912Y-97708553D01*
X57866472Y-97700664D01*
X57778155Y-97677000D01*
X57778152Y-97677000D01*
X50590801Y-97677000D01*
X50540715Y-97666435D01*
X50531056Y-97662170D01*
X50474991Y-97637415D01*
X50449865Y-97634500D01*
X48090143Y-97634500D01*
X48090117Y-97634502D01*
X48065012Y-97637413D01*
X48065008Y-97637415D01*
X47962235Y-97682793D01*
X47882794Y-97762234D01*
X47837415Y-97865006D01*
X47837415Y-97865008D01*
X47834500Y-97890131D01*
X39997550Y-97890131D01*
X41597550Y-96290131D01*
X47834500Y-96290131D01*
X47834500Y-96789856D01*
X47834502Y-96789882D01*
X47837413Y-96814987D01*
X47837415Y-96814991D01*
X47882793Y-96917764D01*
X47882794Y-96917765D01*
X47962235Y-96997206D01*
X48065009Y-97042585D01*
X48090135Y-97045500D01*
X50449864Y-97045499D01*
X50449879Y-97045497D01*
X50449882Y-97045497D01*
X50474987Y-97042586D01*
X50474987Y-97042585D01*
X50474991Y-97042585D01*
X50530018Y-97018288D01*
X50540716Y-97013565D01*
X50590801Y-97003000D01*
X63874057Y-97003000D01*
X63941096Y-97022685D01*
X63961738Y-97039319D01*
X71832911Y-104910492D01*
X71832912Y-104910493D01*
X71832914Y-104910494D01*
X71938484Y-104971445D01*
X71938485Y-104971445D01*
X71938488Y-104971447D01*
X72056245Y-105003000D01*
X74138686Y-105003000D01*
X74205725Y-105022685D01*
X74249171Y-105070705D01*
X74286006Y-105142997D01*
X74392441Y-105289494D01*
X74392445Y-105289499D01*
X74520500Y-105417554D01*
X74520505Y-105417558D01*
X74648287Y-105510396D01*
X74667006Y-105523996D01*
X74772089Y-105577539D01*
X74828360Y-105606211D01*
X74828363Y-105606212D01*
X74880938Y-105623294D01*
X75000591Y-105662171D01*
X75083429Y-105675291D01*
X75179449Y-105690500D01*
X75179454Y-105690500D01*
X75360551Y-105690500D01*
X75447259Y-105676765D01*
X75539409Y-105662171D01*
X75711639Y-105606211D01*
X75872994Y-105523996D01*
X76019501Y-105417553D01*
X76147553Y-105289501D01*
X76253996Y-105142994D01*
X76336211Y-104981639D01*
X76392171Y-104809409D01*
X76406765Y-104717259D01*
X76420500Y-104630551D01*
X76420500Y-104449448D01*
X76404019Y-104345397D01*
X76392171Y-104270591D01*
X76336211Y-104098361D01*
X76336211Y-104098360D01*
X76277379Y-103982898D01*
X76253996Y-103937006D01*
X76201913Y-103865319D01*
X76147558Y-103790505D01*
X76147554Y-103790500D01*
X76019499Y-103662445D01*
X76019494Y-103662441D01*
X75872997Y-103556006D01*
X75872996Y-103556005D01*
X75872994Y-103556004D01*
X75821300Y-103529664D01*
X75711639Y-103473788D01*
X75711636Y-103473787D01*
X75539410Y-103417829D01*
X75360551Y-103389500D01*
X75360546Y-103389500D01*
X75179454Y-103389500D01*
X75179449Y-103389500D01*
X75000589Y-103417829D01*
X74828363Y-103473787D01*
X74828360Y-103473788D01*
X74667002Y-103556006D01*
X74520505Y-103662441D01*
X74520500Y-103662445D01*
X74392445Y-103790500D01*
X74392441Y-103790505D01*
X74286006Y-103937002D01*
X74249171Y-104009295D01*
X74201196Y-104060091D01*
X74138686Y-104077000D01*
X72360343Y-104077000D01*
X72293304Y-104057315D01*
X72272662Y-104040681D01*
X64401490Y-96169509D01*
X64401482Y-96169503D01*
X64295917Y-96108556D01*
X64295912Y-96108553D01*
X64257874Y-96098361D01*
X64178155Y-96077000D01*
X64178152Y-96077000D01*
X50590801Y-96077000D01*
X50540715Y-96066435D01*
X50474991Y-96037415D01*
X50449865Y-96034500D01*
X48090143Y-96034500D01*
X48090117Y-96034502D01*
X48065012Y-96037413D01*
X48065008Y-96037415D01*
X47962235Y-96082793D01*
X47882794Y-96162234D01*
X47837415Y-96265006D01*
X47837415Y-96265008D01*
X47834500Y-96290131D01*
X41597550Y-96290131D01*
X41648362Y-96239319D01*
X41709685Y-96205834D01*
X41736043Y-96203000D01*
X42219199Y-96203000D01*
X42269284Y-96213564D01*
X42335009Y-96242585D01*
X42360135Y-96245500D01*
X44719864Y-96245499D01*
X44719879Y-96245497D01*
X44719882Y-96245497D01*
X44744987Y-96242586D01*
X44744988Y-96242585D01*
X44744991Y-96242585D01*
X44847765Y-96197206D01*
X44927206Y-96117765D01*
X44972585Y-96014991D01*
X44975500Y-95989865D01*
X44975499Y-95490136D01*
X44975497Y-95490117D01*
X44972586Y-95465012D01*
X44972585Y-95465010D01*
X44972585Y-95465009D01*
X44927206Y-95362235D01*
X44847765Y-95282794D01*
X44834643Y-95277000D01*
X44744992Y-95237415D01*
X44719865Y-95234500D01*
X42360143Y-95234500D01*
X42360117Y-95234502D01*
X42335012Y-95237413D01*
X42335011Y-95237414D01*
X42269284Y-95266435D01*
X42219199Y-95277000D01*
X41553855Y-95277000D01*
X41431945Y-95277000D01*
X41361291Y-95295931D01*
X41314187Y-95308553D01*
X41314182Y-95308556D01*
X41208617Y-95369503D01*
X41208609Y-95369509D01*
X20537438Y-116040681D01*
X20476115Y-116074166D01*
X20449757Y-116077000D01*
X18671314Y-116077000D01*
X18604275Y-116057315D01*
X18560829Y-116009295D01*
X18523996Y-115937006D01*
X18510396Y-115918287D01*
X18417558Y-115790505D01*
X18417554Y-115790500D01*
X18289499Y-115662445D01*
X18289494Y-115662441D01*
X18142997Y-115556006D01*
X18142996Y-115556005D01*
X18142994Y-115556004D01*
X18091300Y-115529664D01*
X17981639Y-115473788D01*
X17981636Y-115473787D01*
X17809410Y-115417829D01*
X17630551Y-115389500D01*
X17630546Y-115389500D01*
X17449454Y-115389500D01*
X17449449Y-115389500D01*
X17270589Y-115417829D01*
X17098363Y-115473787D01*
X17098360Y-115473788D01*
X16937002Y-115556006D01*
X16790505Y-115662441D01*
X16790500Y-115662445D01*
X16662445Y-115790500D01*
X16662441Y-115790505D01*
X16556006Y-115937002D01*
X16473788Y-116098360D01*
X16473787Y-116098363D01*
X16417829Y-116270589D01*
X16389500Y-116449448D01*
X9500500Y-116449448D01*
X9500500Y-108449448D01*
X16389500Y-108449448D01*
X16389500Y-108630551D01*
X16417829Y-108809410D01*
X16473787Y-108981636D01*
X16473788Y-108981639D01*
X16556006Y-109142997D01*
X16662441Y-109289494D01*
X16662445Y-109289499D01*
X16790500Y-109417554D01*
X16790505Y-109417558D01*
X16918287Y-109510396D01*
X16937006Y-109523996D01*
X17042484Y-109577740D01*
X17098360Y-109606211D01*
X17098363Y-109606212D01*
X17184476Y-109634191D01*
X17270591Y-109662171D01*
X17353429Y-109675291D01*
X17449449Y-109690500D01*
X17449454Y-109690500D01*
X17630551Y-109690500D01*
X17717259Y-109676765D01*
X17809409Y-109662171D01*
X17981639Y-109606211D01*
X18142994Y-109523996D01*
X18289501Y-109417553D01*
X18417553Y-109289501D01*
X18523996Y-109142994D01*
X18560829Y-109070704D01*
X18608804Y-109019909D01*
X18671314Y-109003000D01*
X20753852Y-109003000D01*
X20753855Y-109003000D01*
X20871611Y-108971447D01*
X20977189Y-108910492D01*
X35197550Y-94690131D01*
X47834500Y-94690131D01*
X47834500Y-95189856D01*
X47834502Y-95189882D01*
X47837413Y-95214987D01*
X47837415Y-95214991D01*
X47882793Y-95317764D01*
X47882794Y-95317765D01*
X47962235Y-95397206D01*
X48065009Y-95442585D01*
X48090135Y-95445500D01*
X50449864Y-95445499D01*
X50449879Y-95445497D01*
X50449882Y-95445497D01*
X50474987Y-95442586D01*
X50474987Y-95442585D01*
X50474991Y-95442585D01*
X50531058Y-95417829D01*
X50540716Y-95413565D01*
X50590801Y-95403000D01*
X70274057Y-95403000D01*
X70341096Y-95422685D01*
X70361738Y-95439319D01*
X71746708Y-96824289D01*
X71832911Y-96910492D01*
X71832913Y-96910493D01*
X71832917Y-96910496D01*
X71938482Y-96971443D01*
X71938489Y-96971447D01*
X72056245Y-97003000D01*
X74138686Y-97003000D01*
X74205725Y-97022685D01*
X74249171Y-97070705D01*
X74286006Y-97142997D01*
X74392441Y-97289494D01*
X74392445Y-97289499D01*
X74520500Y-97417554D01*
X74520505Y-97417558D01*
X74648287Y-97510396D01*
X74667006Y-97523996D01*
X74772484Y-97577740D01*
X74828360Y-97606211D01*
X74828363Y-97606212D01*
X74914476Y-97634191D01*
X75000591Y-97662171D01*
X75083429Y-97675291D01*
X75179449Y-97690500D01*
X75179454Y-97690500D01*
X75360551Y-97690500D01*
X75447259Y-97676765D01*
X75539409Y-97662171D01*
X75711639Y-97606211D01*
X75872994Y-97523996D01*
X76019501Y-97417553D01*
X76147553Y-97289501D01*
X76253996Y-97142994D01*
X76336211Y-96981639D01*
X76392171Y-96809409D01*
X76406765Y-96717259D01*
X76420500Y-96630551D01*
X76420500Y-96449448D01*
X76395266Y-96290135D01*
X76392171Y-96270591D01*
X76336211Y-96098361D01*
X76336211Y-96098360D01*
X76303672Y-96034500D01*
X76253996Y-95937006D01*
X76240396Y-95918287D01*
X76147558Y-95790505D01*
X76147554Y-95790500D01*
X76019499Y-95662445D01*
X76019494Y-95662441D01*
X75872997Y-95556006D01*
X75872996Y-95556005D01*
X75872994Y-95556004D01*
X75821300Y-95529664D01*
X75711639Y-95473788D01*
X75711636Y-95473787D01*
X75539410Y-95417829D01*
X75360551Y-95389500D01*
X75360546Y-95389500D01*
X75179454Y-95389500D01*
X75179449Y-95389500D01*
X75000589Y-95417829D01*
X74828363Y-95473787D01*
X74828360Y-95473788D01*
X74667002Y-95556006D01*
X74520505Y-95662441D01*
X74520500Y-95662445D01*
X74392445Y-95790500D01*
X74392441Y-95790505D01*
X74286006Y-95937002D01*
X74286004Y-95937006D01*
X74259070Y-95989868D01*
X74249171Y-96009295D01*
X74201196Y-96060091D01*
X74138686Y-96077000D01*
X72360343Y-96077000D01*
X72293304Y-96057315D01*
X72272662Y-96040681D01*
X70801490Y-94569509D01*
X70801482Y-94569503D01*
X70695917Y-94508556D01*
X70695912Y-94508553D01*
X70666472Y-94500664D01*
X70578155Y-94477000D01*
X70578152Y-94477000D01*
X50590801Y-94477000D01*
X50540715Y-94466435D01*
X50474991Y-94437415D01*
X50449865Y-94434500D01*
X48090143Y-94434500D01*
X48090117Y-94434502D01*
X48065012Y-94437413D01*
X48065008Y-94437415D01*
X47962235Y-94482793D01*
X47882794Y-94562234D01*
X47837415Y-94665006D01*
X47837415Y-94665008D01*
X47834500Y-94690131D01*
X35197550Y-94690131D01*
X35248362Y-94639319D01*
X35309685Y-94605834D01*
X35336043Y-94603000D01*
X42219199Y-94603000D01*
X42269284Y-94613564D01*
X42335009Y-94642585D01*
X42360135Y-94645500D01*
X44719864Y-94645499D01*
X44719879Y-94645497D01*
X44719882Y-94645497D01*
X44744987Y-94642586D01*
X44744988Y-94642585D01*
X44744991Y-94642585D01*
X44847765Y-94597206D01*
X44927206Y-94517765D01*
X44972585Y-94414991D01*
X44975500Y-94389865D01*
X44975499Y-93890136D01*
X44975497Y-93890117D01*
X44972586Y-93865012D01*
X44972585Y-93865010D01*
X44972585Y-93865009D01*
X44927206Y-93762235D01*
X44847765Y-93682794D01*
X44834643Y-93677000D01*
X44744992Y-93637415D01*
X44719865Y-93634500D01*
X42360143Y-93634500D01*
X42360117Y-93634502D01*
X42335012Y-93637413D01*
X42335011Y-93637414D01*
X42269284Y-93666435D01*
X42219199Y-93677000D01*
X35153855Y-93677000D01*
X35031945Y-93677000D01*
X34923840Y-93705966D01*
X34914184Y-93708554D01*
X34808614Y-93769505D01*
X34808608Y-93769510D01*
X20537438Y-108040681D01*
X20476115Y-108074166D01*
X20449757Y-108077000D01*
X18671314Y-108077000D01*
X18604275Y-108057315D01*
X18560829Y-108009295D01*
X18523996Y-107937006D01*
X18478020Y-107873725D01*
X18417558Y-107790505D01*
X18417554Y-107790500D01*
X18289499Y-107662445D01*
X18289494Y-107662441D01*
X18142997Y-107556006D01*
X18142996Y-107556005D01*
X18142994Y-107556004D01*
X18091300Y-107529664D01*
X17981639Y-107473788D01*
X17981636Y-107473787D01*
X17809410Y-107417829D01*
X17630551Y-107389500D01*
X17630546Y-107389500D01*
X17449454Y-107389500D01*
X17449449Y-107389500D01*
X17270589Y-107417829D01*
X17098363Y-107473787D01*
X17098360Y-107473788D01*
X16937002Y-107556006D01*
X16790505Y-107662441D01*
X16790500Y-107662445D01*
X16662445Y-107790500D01*
X16662441Y-107790505D01*
X16556006Y-107937002D01*
X16473788Y-108098360D01*
X16473787Y-108098363D01*
X16417829Y-108270589D01*
X16389500Y-108449448D01*
X9500500Y-108449448D01*
X9500500Y-100449448D01*
X16389500Y-100449448D01*
X16389500Y-100630551D01*
X16417829Y-100809410D01*
X16473787Y-100981636D01*
X16473788Y-100981639D01*
X16556006Y-101142997D01*
X16662441Y-101289494D01*
X16662445Y-101289499D01*
X16790500Y-101417554D01*
X16790505Y-101417558D01*
X16918287Y-101510396D01*
X16937006Y-101523996D01*
X17042484Y-101577740D01*
X17098360Y-101606211D01*
X17098363Y-101606212D01*
X17184476Y-101634191D01*
X17270591Y-101662171D01*
X17353429Y-101675291D01*
X17449449Y-101690500D01*
X17449454Y-101690500D01*
X17630551Y-101690500D01*
X17717259Y-101676765D01*
X17809409Y-101662171D01*
X17981639Y-101606211D01*
X18142994Y-101523996D01*
X18289501Y-101417553D01*
X18417553Y-101289501D01*
X18523996Y-101142994D01*
X18560829Y-101070704D01*
X18608804Y-101019909D01*
X18671314Y-101003000D01*
X20753852Y-101003000D01*
X20753855Y-101003000D01*
X20871611Y-100971447D01*
X20977189Y-100910492D01*
X28848362Y-93039319D01*
X28909685Y-93005834D01*
X28936043Y-93003000D01*
X42219199Y-93003000D01*
X42269284Y-93013564D01*
X42335009Y-93042585D01*
X42360135Y-93045500D01*
X44719864Y-93045499D01*
X44719879Y-93045497D01*
X44719882Y-93045497D01*
X44744987Y-93042586D01*
X44744988Y-93042585D01*
X44744991Y-93042585D01*
X44847765Y-92997206D01*
X44927206Y-92917765D01*
X44972585Y-92814991D01*
X44975500Y-92789865D01*
X44975499Y-92290136D01*
X44975497Y-92290117D01*
X44972586Y-92265012D01*
X44972585Y-92265010D01*
X44972585Y-92265009D01*
X44927206Y-92162235D01*
X44847765Y-92082794D01*
X44834643Y-92077000D01*
X44744992Y-92037415D01*
X44719865Y-92034500D01*
X42360143Y-92034500D01*
X42360117Y-92034502D01*
X42335012Y-92037413D01*
X42335011Y-92037414D01*
X42269284Y-92066435D01*
X42219199Y-92077000D01*
X28753854Y-92077000D01*
X28631945Y-92077000D01*
X28523840Y-92105966D01*
X28514184Y-92108554D01*
X28408614Y-92169505D01*
X28408608Y-92169510D01*
X20537438Y-100040681D01*
X20476115Y-100074166D01*
X20449757Y-100077000D01*
X18671314Y-100077000D01*
X18604275Y-100057315D01*
X18560829Y-100009295D01*
X18523996Y-99937006D01*
X18510396Y-99918287D01*
X18417558Y-99790505D01*
X18417554Y-99790500D01*
X18289499Y-99662445D01*
X18289494Y-99662441D01*
X18142997Y-99556006D01*
X18142996Y-99556005D01*
X18142994Y-99556004D01*
X18091300Y-99529664D01*
X17981639Y-99473788D01*
X17981636Y-99473787D01*
X17809410Y-99417829D01*
X17630551Y-99389500D01*
X17630546Y-99389500D01*
X17449454Y-99389500D01*
X17449449Y-99389500D01*
X17270589Y-99417829D01*
X17098363Y-99473787D01*
X17098360Y-99473788D01*
X16937002Y-99556006D01*
X16790505Y-99662441D01*
X16790500Y-99662445D01*
X16662445Y-99790500D01*
X16662441Y-99790505D01*
X16556006Y-99937002D01*
X16473788Y-100098360D01*
X16473787Y-100098363D01*
X16417829Y-100270589D01*
X16389500Y-100449448D01*
X9500500Y-100449448D01*
X9500500Y-92449448D01*
X16389500Y-92449448D01*
X16389500Y-92630551D01*
X16417829Y-92809410D01*
X16473787Y-92981636D01*
X16473788Y-92981639D01*
X16556006Y-93142997D01*
X16662441Y-93289494D01*
X16662445Y-93289499D01*
X16790500Y-93417554D01*
X16790505Y-93417558D01*
X16918287Y-93510396D01*
X16937006Y-93523996D01*
X17042484Y-93577740D01*
X17098360Y-93606211D01*
X17098363Y-93606212D01*
X17184476Y-93634191D01*
X17270591Y-93662171D01*
X17353429Y-93675291D01*
X17449449Y-93690500D01*
X17449454Y-93690500D01*
X17630551Y-93690500D01*
X17717259Y-93676765D01*
X17809409Y-93662171D01*
X17981639Y-93606211D01*
X18142994Y-93523996D01*
X18289501Y-93417553D01*
X18417553Y-93289501D01*
X18523996Y-93142994D01*
X18560829Y-93070704D01*
X18608804Y-93019909D01*
X18671314Y-93003000D01*
X20753852Y-93003000D01*
X20753855Y-93003000D01*
X20871611Y-92971447D01*
X20977189Y-92910492D01*
X22448362Y-91439319D01*
X22509685Y-91405834D01*
X22536043Y-91403000D01*
X42219199Y-91403000D01*
X42269284Y-91413564D01*
X42335009Y-91442585D01*
X42360135Y-91445500D01*
X44719864Y-91445499D01*
X44719879Y-91445497D01*
X44719882Y-91445497D01*
X44744987Y-91442586D01*
X44744988Y-91442585D01*
X44744991Y-91442585D01*
X44847765Y-91397206D01*
X44927206Y-91317765D01*
X44972585Y-91214991D01*
X44975500Y-91189865D01*
X44975499Y-90690136D01*
X44975497Y-90690117D01*
X44972586Y-90665012D01*
X44972585Y-90665010D01*
X44972585Y-90665009D01*
X44927206Y-90562235D01*
X44847765Y-90482794D01*
X44834643Y-90477000D01*
X44744992Y-90437415D01*
X44719865Y-90434500D01*
X42360143Y-90434500D01*
X42360117Y-90434502D01*
X42335012Y-90437413D01*
X42335011Y-90437414D01*
X42269284Y-90466435D01*
X42219199Y-90477000D01*
X22353855Y-90477000D01*
X22231945Y-90477000D01*
X22161291Y-90495931D01*
X22114187Y-90508553D01*
X22114182Y-90508556D01*
X22008617Y-90569503D01*
X22008609Y-90569509D01*
X20537438Y-92040681D01*
X20476115Y-92074166D01*
X20449757Y-92077000D01*
X18671314Y-92077000D01*
X18604275Y-92057315D01*
X18560829Y-92009295D01*
X18523996Y-91937006D01*
X18510396Y-91918287D01*
X18417558Y-91790505D01*
X18417554Y-91790500D01*
X18289499Y-91662445D01*
X18289494Y-91662441D01*
X18142997Y-91556006D01*
X18142996Y-91556005D01*
X18142994Y-91556004D01*
X18091300Y-91529664D01*
X17981639Y-91473788D01*
X17981636Y-91473787D01*
X17809410Y-91417829D01*
X17630551Y-91389500D01*
X17630546Y-91389500D01*
X17449454Y-91389500D01*
X17449449Y-91389500D01*
X17270589Y-91417829D01*
X17098363Y-91473787D01*
X17098360Y-91473788D01*
X16937002Y-91556006D01*
X16790505Y-91662441D01*
X16790500Y-91662445D01*
X16662445Y-91790500D01*
X16662441Y-91790505D01*
X16556006Y-91937002D01*
X16473788Y-92098360D01*
X16473787Y-92098363D01*
X16417829Y-92270589D01*
X16389500Y-92449448D01*
X9500500Y-92449448D01*
X9500500Y-84449448D01*
X16389500Y-84449448D01*
X16389500Y-84630551D01*
X16417829Y-84809410D01*
X16473787Y-84981636D01*
X16473788Y-84981639D01*
X16556006Y-85142997D01*
X16662441Y-85289494D01*
X16662445Y-85289499D01*
X16790500Y-85417554D01*
X16790505Y-85417558D01*
X16918287Y-85510396D01*
X16937006Y-85523996D01*
X17042484Y-85577740D01*
X17098360Y-85606211D01*
X17098363Y-85606212D01*
X17184476Y-85634191D01*
X17270591Y-85662171D01*
X17353429Y-85675291D01*
X17449449Y-85690500D01*
X17449454Y-85690500D01*
X17630551Y-85690500D01*
X17717259Y-85676765D01*
X17809409Y-85662171D01*
X17981639Y-85606211D01*
X18142994Y-85523996D01*
X18289501Y-85417553D01*
X18417553Y-85289501D01*
X18523996Y-85142994D01*
X18560829Y-85070704D01*
X18608804Y-85019909D01*
X18671314Y-85003000D01*
X20449757Y-85003000D01*
X20516796Y-85022685D01*
X20537438Y-85039319D01*
X21922408Y-86424289D01*
X22008611Y-86510492D01*
X22008613Y-86510493D01*
X22008617Y-86510496D01*
X22114182Y-86571443D01*
X22114189Y-86571447D01*
X22231945Y-86603000D01*
X42219199Y-86603000D01*
X42269284Y-86613564D01*
X42335009Y-86642585D01*
X42360135Y-86645500D01*
X44719864Y-86645499D01*
X44719879Y-86645497D01*
X44719882Y-86645497D01*
X44744987Y-86642586D01*
X44744988Y-86642585D01*
X44744991Y-86642585D01*
X44847765Y-86597206D01*
X44927206Y-86517765D01*
X44972585Y-86414991D01*
X44975500Y-86389865D01*
X44975499Y-85890136D01*
X44975499Y-85890135D01*
X44975499Y-85890131D01*
X47834500Y-85890131D01*
X47834500Y-86389856D01*
X47834502Y-86389882D01*
X47837413Y-86414987D01*
X47837415Y-86414991D01*
X47882793Y-86517764D01*
X47882794Y-86517765D01*
X47962235Y-86597206D01*
X48065009Y-86642585D01*
X48090135Y-86645500D01*
X50182200Y-86645499D01*
X50249239Y-86665184D01*
X50294994Y-86717987D01*
X50306200Y-86769499D01*
X50306200Y-90310500D01*
X50286515Y-90377539D01*
X50233711Y-90423294D01*
X50182200Y-90434500D01*
X48090143Y-90434500D01*
X48090117Y-90434502D01*
X48065012Y-90437413D01*
X48065008Y-90437415D01*
X47962235Y-90482793D01*
X47882794Y-90562234D01*
X47837415Y-90665006D01*
X47837415Y-90665008D01*
X47834500Y-90690131D01*
X47834500Y-91189856D01*
X47834502Y-91189882D01*
X47837413Y-91214987D01*
X47837415Y-91214991D01*
X47882793Y-91317764D01*
X47882794Y-91317765D01*
X47962235Y-91397206D01*
X48065009Y-91442585D01*
X48090135Y-91445500D01*
X50449864Y-91445499D01*
X50449879Y-91445497D01*
X50449882Y-91445497D01*
X50474987Y-91442586D01*
X50474987Y-91442585D01*
X50474991Y-91442585D01*
X50531058Y-91417829D01*
X50540716Y-91413565D01*
X50590801Y-91403000D01*
X50830152Y-91403000D01*
X50830155Y-91403000D01*
X50947911Y-91371447D01*
X51053489Y-91310492D01*
X51139692Y-91224289D01*
X51200647Y-91118711D01*
X51232200Y-91000955D01*
X51232200Y-89127000D01*
X51251885Y-89059961D01*
X51304689Y-89014206D01*
X51356200Y-89003000D01*
X74138686Y-89003000D01*
X74205725Y-89022685D01*
X74249171Y-89070705D01*
X74286006Y-89142997D01*
X74392441Y-89289494D01*
X74392445Y-89289499D01*
X74520500Y-89417554D01*
X74520505Y-89417558D01*
X74648287Y-89510396D01*
X74667006Y-89523996D01*
X74772484Y-89577740D01*
X74828360Y-89606211D01*
X74828363Y-89606212D01*
X74914476Y-89634191D01*
X75000591Y-89662171D01*
X75083429Y-89675291D01*
X75179449Y-89690500D01*
X75179454Y-89690500D01*
X75360551Y-89690500D01*
X75447259Y-89676765D01*
X75539409Y-89662171D01*
X75711639Y-89606211D01*
X75872994Y-89523996D01*
X76019501Y-89417553D01*
X76147553Y-89289501D01*
X76253996Y-89142994D01*
X76336211Y-88981639D01*
X76392171Y-88809409D01*
X76406765Y-88717259D01*
X76420500Y-88630551D01*
X76420500Y-88449448D01*
X76404019Y-88345397D01*
X76392171Y-88270591D01*
X76336211Y-88098361D01*
X76336211Y-88098360D01*
X76290829Y-88009295D01*
X76253996Y-87937006D01*
X76240396Y-87918287D01*
X76147558Y-87790505D01*
X76147554Y-87790500D01*
X76019499Y-87662445D01*
X76019494Y-87662441D01*
X75872997Y-87556006D01*
X75872996Y-87556005D01*
X75872994Y-87556004D01*
X75821300Y-87529664D01*
X75711639Y-87473788D01*
X75711636Y-87473787D01*
X75539410Y-87417829D01*
X75360551Y-87389500D01*
X75360546Y-87389500D01*
X75179454Y-87389500D01*
X75179449Y-87389500D01*
X75000589Y-87417829D01*
X74828363Y-87473787D01*
X74828360Y-87473788D01*
X74667002Y-87556006D01*
X74520505Y-87662441D01*
X74520500Y-87662445D01*
X74392445Y-87790500D01*
X74392441Y-87790505D01*
X74286006Y-87937002D01*
X74286004Y-87937006D01*
X74251609Y-88004511D01*
X74249171Y-88009295D01*
X74201196Y-88060091D01*
X74138686Y-88077000D01*
X51356200Y-88077000D01*
X51289161Y-88057315D01*
X51243406Y-88004511D01*
X51232200Y-87953000D01*
X51232200Y-86079047D01*
X51232200Y-86079045D01*
X51200647Y-85961289D01*
X51159567Y-85890135D01*
X51139696Y-85855717D01*
X51139690Y-85855709D01*
X51053490Y-85769509D01*
X51053482Y-85769503D01*
X50947917Y-85708556D01*
X50947912Y-85708553D01*
X50918472Y-85700664D01*
X50830155Y-85677000D01*
X50830152Y-85677000D01*
X50590801Y-85677000D01*
X50540715Y-85666435D01*
X50520060Y-85657315D01*
X50474991Y-85637415D01*
X50449865Y-85634500D01*
X48090143Y-85634500D01*
X48090117Y-85634502D01*
X48065012Y-85637413D01*
X48065008Y-85637415D01*
X47962235Y-85682793D01*
X47882794Y-85762234D01*
X47837415Y-85865006D01*
X47837415Y-85865008D01*
X47834500Y-85890131D01*
X44975499Y-85890131D01*
X44975499Y-85890130D01*
X44972586Y-85865012D01*
X44972585Y-85865010D01*
X44972585Y-85865009D01*
X44927206Y-85762235D01*
X44847765Y-85682794D01*
X44834643Y-85677000D01*
X44744992Y-85637415D01*
X44719865Y-85634500D01*
X42360143Y-85634500D01*
X42360117Y-85634502D01*
X42335012Y-85637413D01*
X42335011Y-85637414D01*
X42269284Y-85666435D01*
X42219199Y-85677000D01*
X22536043Y-85677000D01*
X22469004Y-85657315D01*
X22448362Y-85640681D01*
X20977190Y-84169509D01*
X20977182Y-84169503D01*
X20871617Y-84108556D01*
X20871612Y-84108553D01*
X20833574Y-84098361D01*
X20753855Y-84077000D01*
X20753852Y-84077000D01*
X18671314Y-84077000D01*
X18604275Y-84057315D01*
X18560829Y-84009295D01*
X18523996Y-83937006D01*
X18510396Y-83918287D01*
X18417558Y-83790505D01*
X18417554Y-83790500D01*
X18289499Y-83662445D01*
X18289494Y-83662441D01*
X18142997Y-83556006D01*
X18142996Y-83556005D01*
X18142994Y-83556004D01*
X18091300Y-83529664D01*
X17981639Y-83473788D01*
X17981636Y-83473787D01*
X17809410Y-83417829D01*
X17630551Y-83389500D01*
X17630546Y-83389500D01*
X17449454Y-83389500D01*
X17449449Y-83389500D01*
X17270589Y-83417829D01*
X17098363Y-83473787D01*
X17098360Y-83473788D01*
X16937002Y-83556006D01*
X16790505Y-83662441D01*
X16790500Y-83662445D01*
X16662445Y-83790500D01*
X16662441Y-83790505D01*
X16556006Y-83937002D01*
X16473788Y-84098360D01*
X16473787Y-84098363D01*
X16417829Y-84270589D01*
X16389500Y-84449448D01*
X9500500Y-84449448D01*
X9500500Y-76449448D01*
X16389500Y-76449448D01*
X16389500Y-76630551D01*
X16417829Y-76809410D01*
X16473787Y-76981636D01*
X16473788Y-76981639D01*
X16556006Y-77142997D01*
X16662441Y-77289494D01*
X16662445Y-77289499D01*
X16790500Y-77417554D01*
X16790505Y-77417558D01*
X16918287Y-77510396D01*
X16937006Y-77523996D01*
X17042484Y-77577740D01*
X17098360Y-77606211D01*
X17098363Y-77606212D01*
X17184476Y-77634191D01*
X17270591Y-77662171D01*
X17353429Y-77675291D01*
X17449449Y-77690500D01*
X17449454Y-77690500D01*
X17630551Y-77690500D01*
X17717259Y-77676765D01*
X17809409Y-77662171D01*
X17981639Y-77606211D01*
X18142994Y-77523996D01*
X18289501Y-77417553D01*
X18417553Y-77289501D01*
X18523996Y-77142994D01*
X18560829Y-77070704D01*
X18608804Y-77019909D01*
X18671314Y-77003000D01*
X20449757Y-77003000D01*
X20516796Y-77022685D01*
X20537438Y-77039319D01*
X28408611Y-84910492D01*
X28408612Y-84910493D01*
X28408614Y-84910494D01*
X28514184Y-84971445D01*
X28514185Y-84971445D01*
X28514188Y-84971447D01*
X28631945Y-85003000D01*
X28753854Y-85003000D01*
X42219199Y-85003000D01*
X42269284Y-85013564D01*
X42335009Y-85042585D01*
X42360135Y-85045500D01*
X44719864Y-85045499D01*
X44719879Y-85045497D01*
X44719882Y-85045497D01*
X44744987Y-85042586D01*
X44744988Y-85042585D01*
X44744991Y-85042585D01*
X44847765Y-84997206D01*
X44927206Y-84917765D01*
X44972585Y-84814991D01*
X44975500Y-84789865D01*
X44975499Y-84290136D01*
X44975497Y-84290117D01*
X44972586Y-84265012D01*
X44972585Y-84265010D01*
X44972585Y-84265009D01*
X44927206Y-84162235D01*
X44847765Y-84082794D01*
X44834643Y-84077000D01*
X44744992Y-84037415D01*
X44719865Y-84034500D01*
X42360143Y-84034500D01*
X42360117Y-84034502D01*
X42335012Y-84037413D01*
X42335011Y-84037414D01*
X42269284Y-84066435D01*
X42219199Y-84077000D01*
X28936043Y-84077000D01*
X28869004Y-84057315D01*
X28848362Y-84040681D01*
X20977190Y-76169509D01*
X20977182Y-76169503D01*
X20871617Y-76108556D01*
X20871612Y-76108553D01*
X20833574Y-76098361D01*
X20753855Y-76077000D01*
X20753852Y-76077000D01*
X18671314Y-76077000D01*
X18604275Y-76057315D01*
X18560829Y-76009295D01*
X18523996Y-75937006D01*
X18425148Y-75800952D01*
X18417558Y-75790505D01*
X18417554Y-75790500D01*
X18289499Y-75662445D01*
X18289494Y-75662441D01*
X18142997Y-75556006D01*
X18142996Y-75556005D01*
X18142994Y-75556004D01*
X18091300Y-75529664D01*
X17981639Y-75473788D01*
X17981636Y-75473787D01*
X17809410Y-75417829D01*
X17630551Y-75389500D01*
X17630546Y-75389500D01*
X17449454Y-75389500D01*
X17449449Y-75389500D01*
X17270589Y-75417829D01*
X17098363Y-75473787D01*
X17098360Y-75473788D01*
X16937002Y-75556006D01*
X16790505Y-75662441D01*
X16790500Y-75662445D01*
X16662445Y-75790500D01*
X16662441Y-75790505D01*
X16556006Y-75937002D01*
X16473788Y-76098360D01*
X16473787Y-76098363D01*
X16417829Y-76270589D01*
X16389500Y-76449448D01*
X9500500Y-76449448D01*
X9500500Y-68449448D01*
X16389500Y-68449448D01*
X16389500Y-68630551D01*
X16417829Y-68809410D01*
X16473787Y-68981636D01*
X16473788Y-68981639D01*
X16556006Y-69142997D01*
X16662441Y-69289494D01*
X16662445Y-69289499D01*
X16790500Y-69417554D01*
X16790505Y-69417558D01*
X16918287Y-69510396D01*
X16937006Y-69523996D01*
X17042484Y-69577740D01*
X17098360Y-69606211D01*
X17098363Y-69606212D01*
X17184476Y-69634191D01*
X17270591Y-69662171D01*
X17353429Y-69675291D01*
X17449449Y-69690500D01*
X17449454Y-69690500D01*
X17630551Y-69690500D01*
X17717259Y-69676765D01*
X17809409Y-69662171D01*
X17981639Y-69606211D01*
X18142994Y-69523996D01*
X18289501Y-69417553D01*
X18417553Y-69289501D01*
X18523996Y-69142994D01*
X18560829Y-69070704D01*
X18608804Y-69019909D01*
X18671314Y-69003000D01*
X20449757Y-69003000D01*
X20516796Y-69022685D01*
X20537438Y-69039319D01*
X34808611Y-83310492D01*
X34808612Y-83310493D01*
X34808614Y-83310494D01*
X34914184Y-83371445D01*
X34914185Y-83371445D01*
X34914188Y-83371447D01*
X35031945Y-83403000D01*
X42219199Y-83403000D01*
X42269284Y-83413564D01*
X42335009Y-83442585D01*
X42360135Y-83445500D01*
X44719864Y-83445499D01*
X44719879Y-83445497D01*
X44719882Y-83445497D01*
X44744987Y-83442586D01*
X44744988Y-83442585D01*
X44744991Y-83442585D01*
X44847765Y-83397206D01*
X44927206Y-83317765D01*
X44972585Y-83214991D01*
X44975500Y-83189865D01*
X44975499Y-82690136D01*
X44975497Y-82690117D01*
X44972586Y-82665012D01*
X44972585Y-82665010D01*
X44972585Y-82665009D01*
X44927206Y-82562235D01*
X44847765Y-82482794D01*
X44834643Y-82477000D01*
X44744992Y-82437415D01*
X44719865Y-82434500D01*
X42360143Y-82434500D01*
X42360117Y-82434502D01*
X42335012Y-82437413D01*
X42335011Y-82437414D01*
X42269284Y-82466435D01*
X42219199Y-82477000D01*
X35336043Y-82477000D01*
X35269004Y-82457315D01*
X35248362Y-82440681D01*
X34697812Y-81890131D01*
X47834500Y-81890131D01*
X47834500Y-82389856D01*
X47834502Y-82389882D01*
X47837413Y-82414987D01*
X47837415Y-82414991D01*
X47882793Y-82517764D01*
X47882794Y-82517765D01*
X47962235Y-82597206D01*
X48065009Y-82642585D01*
X48090135Y-82645500D01*
X50449864Y-82645499D01*
X50449879Y-82645497D01*
X50449882Y-82645497D01*
X50474987Y-82642586D01*
X50474987Y-82642585D01*
X50474991Y-82642585D01*
X50530018Y-82618288D01*
X50540716Y-82613565D01*
X50590801Y-82603000D01*
X70578152Y-82603000D01*
X70578155Y-82603000D01*
X70695911Y-82571447D01*
X70801489Y-82510492D01*
X72272662Y-81039319D01*
X72333985Y-81005834D01*
X72360343Y-81003000D01*
X74138686Y-81003000D01*
X74205725Y-81022685D01*
X74249170Y-81070704D01*
X74259071Y-81090136D01*
X74286006Y-81142997D01*
X74392441Y-81289494D01*
X74392445Y-81289499D01*
X74520500Y-81417554D01*
X74520505Y-81417558D01*
X74648287Y-81510396D01*
X74667006Y-81523996D01*
X74772484Y-81577740D01*
X74828360Y-81606211D01*
X74828363Y-81606212D01*
X74914476Y-81634191D01*
X75000591Y-81662171D01*
X75076325Y-81674166D01*
X75179449Y-81690500D01*
X75179454Y-81690500D01*
X75360551Y-81690500D01*
X75447259Y-81676765D01*
X75539409Y-81662171D01*
X75711639Y-81606211D01*
X75872994Y-81523996D01*
X76019501Y-81417553D01*
X76147553Y-81289501D01*
X76253996Y-81142994D01*
X76336211Y-80981639D01*
X76392171Y-80809409D01*
X76406765Y-80717259D01*
X76420500Y-80630551D01*
X76420500Y-80449448D01*
X76395266Y-80290135D01*
X76392171Y-80270591D01*
X76336211Y-80098361D01*
X76336211Y-80098360D01*
X76290829Y-80009295D01*
X76253996Y-79937006D01*
X76240396Y-79918287D01*
X76147558Y-79790505D01*
X76147554Y-79790500D01*
X76019499Y-79662445D01*
X76019494Y-79662441D01*
X75872997Y-79556006D01*
X75872996Y-79556005D01*
X75872994Y-79556004D01*
X75821300Y-79529664D01*
X75711639Y-79473788D01*
X75711636Y-79473787D01*
X75539410Y-79417829D01*
X75360551Y-79389500D01*
X75360546Y-79389500D01*
X75179454Y-79389500D01*
X75179449Y-79389500D01*
X75000589Y-79417829D01*
X74828363Y-79473787D01*
X74828360Y-79473788D01*
X74667002Y-79556006D01*
X74520505Y-79662441D01*
X74520500Y-79662445D01*
X74392445Y-79790500D01*
X74392441Y-79790505D01*
X74286006Y-79937002D01*
X74249171Y-80009295D01*
X74201196Y-80060091D01*
X74138686Y-80077000D01*
X72178155Y-80077000D01*
X72056245Y-80077000D01*
X71985591Y-80095931D01*
X71938487Y-80108553D01*
X71938482Y-80108556D01*
X71832917Y-80169503D01*
X71832909Y-80169509D01*
X70361738Y-81640681D01*
X70300415Y-81674166D01*
X70274057Y-81677000D01*
X50590801Y-81677000D01*
X50540715Y-81666435D01*
X50531056Y-81662170D01*
X50474991Y-81637415D01*
X50449865Y-81634500D01*
X48090143Y-81634500D01*
X48090117Y-81634502D01*
X48065012Y-81637413D01*
X48065008Y-81637415D01*
X47962235Y-81682793D01*
X47882794Y-81762234D01*
X47837415Y-81865006D01*
X47837415Y-81865008D01*
X47834500Y-81890131D01*
X34697812Y-81890131D01*
X20977190Y-68169509D01*
X20977182Y-68169503D01*
X20871617Y-68108556D01*
X20871612Y-68108553D01*
X20833574Y-68098361D01*
X20753855Y-68077000D01*
X20753852Y-68077000D01*
X18671314Y-68077000D01*
X18604275Y-68057315D01*
X18560829Y-68009295D01*
X18551102Y-67990205D01*
X18523996Y-67937006D01*
X18485689Y-67884280D01*
X18417558Y-67790505D01*
X18417554Y-67790500D01*
X18289499Y-67662445D01*
X18289494Y-67662441D01*
X18142997Y-67556006D01*
X18142996Y-67556005D01*
X18142994Y-67556004D01*
X18091300Y-67529664D01*
X17981639Y-67473788D01*
X17981636Y-67473787D01*
X17809410Y-67417829D01*
X17630551Y-67389500D01*
X17630546Y-67389500D01*
X17449454Y-67389500D01*
X17449449Y-67389500D01*
X17270589Y-67417829D01*
X17098363Y-67473787D01*
X17098360Y-67473788D01*
X16937002Y-67556006D01*
X16790505Y-67662441D01*
X16790500Y-67662445D01*
X16662445Y-67790500D01*
X16662441Y-67790505D01*
X16556006Y-67937002D01*
X16473788Y-68098360D01*
X16473787Y-68098363D01*
X16417829Y-68270589D01*
X16389500Y-68449448D01*
X9500500Y-68449448D01*
X9500500Y-60449448D01*
X16389500Y-60449448D01*
X16389500Y-60630551D01*
X16417829Y-60809410D01*
X16473787Y-60981636D01*
X16473788Y-60981639D01*
X16556006Y-61142997D01*
X16662441Y-61289494D01*
X16662445Y-61289499D01*
X16790500Y-61417554D01*
X16790505Y-61417558D01*
X16918287Y-61510396D01*
X16937006Y-61523996D01*
X17042484Y-61577740D01*
X17098360Y-61606211D01*
X17098363Y-61606212D01*
X17184476Y-61634191D01*
X17270591Y-61662171D01*
X17353429Y-61675291D01*
X17449449Y-61690500D01*
X17449454Y-61690500D01*
X17630551Y-61690500D01*
X17717259Y-61676765D01*
X17809409Y-61662171D01*
X17981639Y-61606211D01*
X18142994Y-61523996D01*
X18289501Y-61417553D01*
X18417553Y-61289501D01*
X18523996Y-61142994D01*
X18560829Y-61070704D01*
X18608804Y-61019909D01*
X18671314Y-61003000D01*
X20449757Y-61003000D01*
X20516796Y-61022685D01*
X20537438Y-61039319D01*
X41208611Y-81710492D01*
X41208613Y-81710493D01*
X41208617Y-81710496D01*
X41298231Y-81762234D01*
X41314189Y-81771447D01*
X41431945Y-81803000D01*
X41553855Y-81803000D01*
X42219199Y-81803000D01*
X42269284Y-81813564D01*
X42335009Y-81842585D01*
X42360135Y-81845500D01*
X44719864Y-81845499D01*
X44719879Y-81845497D01*
X44719882Y-81845497D01*
X44744987Y-81842586D01*
X44744988Y-81842585D01*
X44744991Y-81842585D01*
X44847765Y-81797206D01*
X44927206Y-81717765D01*
X44972585Y-81614991D01*
X44975500Y-81589865D01*
X44975499Y-81090136D01*
X44973246Y-81070705D01*
X44972586Y-81065012D01*
X44972585Y-81065010D01*
X44972585Y-81065009D01*
X44927206Y-80962235D01*
X44847765Y-80882794D01*
X44834643Y-80877000D01*
X44744992Y-80837415D01*
X44719865Y-80834500D01*
X42360143Y-80834500D01*
X42360117Y-80834502D01*
X42335012Y-80837413D01*
X42335011Y-80837414D01*
X42269284Y-80866435D01*
X42219199Y-80877000D01*
X41736043Y-80877000D01*
X41669004Y-80857315D01*
X41648362Y-80840681D01*
X41097812Y-80290131D01*
X47834500Y-80290131D01*
X47834500Y-80789856D01*
X47834502Y-80789882D01*
X47837413Y-80814987D01*
X47837415Y-80814991D01*
X47882793Y-80917764D01*
X47882794Y-80917765D01*
X47962235Y-80997206D01*
X48065009Y-81042585D01*
X48090135Y-81045500D01*
X50449864Y-81045499D01*
X50449879Y-81045497D01*
X50449882Y-81045497D01*
X50474987Y-81042586D01*
X50474987Y-81042585D01*
X50474991Y-81042585D01*
X50530018Y-81018288D01*
X50540716Y-81013565D01*
X50590801Y-81003000D01*
X64176052Y-81003000D01*
X64176055Y-81003000D01*
X64293811Y-80971447D01*
X64399389Y-80910492D01*
X72270562Y-73039319D01*
X72331885Y-73005834D01*
X72358243Y-73003000D01*
X74138686Y-73003000D01*
X74205725Y-73022685D01*
X74249171Y-73070705D01*
X74286006Y-73142997D01*
X74392441Y-73289494D01*
X74392445Y-73289499D01*
X74520500Y-73417554D01*
X74520505Y-73417558D01*
X74648287Y-73510396D01*
X74667006Y-73523996D01*
X74772484Y-73577740D01*
X74828360Y-73606211D01*
X74828363Y-73606212D01*
X74907813Y-73632026D01*
X75000591Y-73662171D01*
X75083429Y-73675291D01*
X75179449Y-73690500D01*
X75179454Y-73690500D01*
X75360551Y-73690500D01*
X75447259Y-73676765D01*
X75539409Y-73662171D01*
X75711639Y-73606211D01*
X75872994Y-73523996D01*
X76019501Y-73417553D01*
X76147553Y-73289501D01*
X76253996Y-73142994D01*
X76336211Y-72981639D01*
X76392171Y-72809409D01*
X76406765Y-72717259D01*
X76420500Y-72630551D01*
X76420500Y-72449448D01*
X76404019Y-72345397D01*
X76392171Y-72270591D01*
X76342516Y-72117765D01*
X76336212Y-72098363D01*
X76336211Y-72098360D01*
X76296717Y-72020850D01*
X76253996Y-71937006D01*
X76234738Y-71910500D01*
X76147558Y-71790505D01*
X76147554Y-71790500D01*
X76019499Y-71662445D01*
X76019494Y-71662441D01*
X75872997Y-71556006D01*
X75872996Y-71556005D01*
X75872994Y-71556004D01*
X75815649Y-71526785D01*
X75711639Y-71473788D01*
X75711636Y-71473787D01*
X75539410Y-71417829D01*
X75360551Y-71389500D01*
X75360546Y-71389500D01*
X75179454Y-71389500D01*
X75179449Y-71389500D01*
X75000589Y-71417829D01*
X74828363Y-71473787D01*
X74828360Y-71473788D01*
X74667002Y-71556006D01*
X74520505Y-71662441D01*
X74520500Y-71662445D01*
X74392445Y-71790500D01*
X74392441Y-71790505D01*
X74286006Y-71937002D01*
X74286004Y-71937006D01*
X74259070Y-71989868D01*
X74249171Y-72009295D01*
X74201196Y-72060091D01*
X74138686Y-72077000D01*
X72176054Y-72077000D01*
X72054145Y-72077000D01*
X71946040Y-72105966D01*
X71936384Y-72108554D01*
X71830814Y-72169505D01*
X71830808Y-72169510D01*
X63959638Y-80040681D01*
X63898315Y-80074166D01*
X63871957Y-80077000D01*
X50590801Y-80077000D01*
X50540715Y-80066435D01*
X50474991Y-80037415D01*
X50449865Y-80034500D01*
X48090143Y-80034500D01*
X48090117Y-80034502D01*
X48065012Y-80037413D01*
X48065008Y-80037415D01*
X47962235Y-80082793D01*
X47882794Y-80162234D01*
X47837415Y-80265006D01*
X47837415Y-80265008D01*
X47834500Y-80290131D01*
X41097812Y-80290131D01*
X39497812Y-78690131D01*
X47834500Y-78690131D01*
X47834500Y-79189856D01*
X47834502Y-79189882D01*
X47837413Y-79214987D01*
X47837415Y-79214991D01*
X47882793Y-79317764D01*
X47882794Y-79317765D01*
X47962235Y-79397206D01*
X48065009Y-79442585D01*
X48090135Y-79445500D01*
X50449864Y-79445499D01*
X50449879Y-79445497D01*
X50449882Y-79445497D01*
X50474987Y-79442586D01*
X50474987Y-79442585D01*
X50474991Y-79442585D01*
X50531058Y-79417829D01*
X50540716Y-79413565D01*
X50590801Y-79403000D01*
X57778152Y-79403000D01*
X57778155Y-79403000D01*
X57895911Y-79371447D01*
X58001489Y-79310492D01*
X72272662Y-65039319D01*
X72333985Y-65005834D01*
X72360343Y-65003000D01*
X74138686Y-65003000D01*
X74205725Y-65022685D01*
X74249171Y-65070705D01*
X74286006Y-65142997D01*
X74392441Y-65289494D01*
X74392445Y-65289499D01*
X74520500Y-65417554D01*
X74520505Y-65417558D01*
X74648287Y-65510396D01*
X74667006Y-65523996D01*
X74772484Y-65577740D01*
X74828360Y-65606211D01*
X74828363Y-65606212D01*
X74914476Y-65634191D01*
X75000591Y-65662171D01*
X75083429Y-65675291D01*
X75179449Y-65690500D01*
X75179454Y-65690500D01*
X75360551Y-65690500D01*
X75447259Y-65676765D01*
X75539409Y-65662171D01*
X75711639Y-65606211D01*
X75872994Y-65523996D01*
X76019501Y-65417553D01*
X76147553Y-65289501D01*
X76253996Y-65142994D01*
X76336211Y-64981639D01*
X76392171Y-64809409D01*
X76406765Y-64717259D01*
X76420500Y-64630551D01*
X76420500Y-64449448D01*
X76404019Y-64345397D01*
X76392171Y-64270591D01*
X76336211Y-64098361D01*
X76336211Y-64098360D01*
X76290829Y-64009295D01*
X76253996Y-63937006D01*
X76240396Y-63918287D01*
X76147558Y-63790505D01*
X76147554Y-63790500D01*
X76019499Y-63662445D01*
X76019494Y-63662441D01*
X75872997Y-63556006D01*
X75872996Y-63556005D01*
X75872994Y-63556004D01*
X75821300Y-63529664D01*
X75711639Y-63473788D01*
X75711636Y-63473787D01*
X75539410Y-63417829D01*
X75360551Y-63389500D01*
X75360546Y-63389500D01*
X75179454Y-63389500D01*
X75179449Y-63389500D01*
X75000589Y-63417829D01*
X74828363Y-63473787D01*
X74828360Y-63473788D01*
X74667002Y-63556006D01*
X74520505Y-63662441D01*
X74520500Y-63662445D01*
X74392445Y-63790500D01*
X74392441Y-63790505D01*
X74286006Y-63937002D01*
X74249171Y-64009295D01*
X74201196Y-64060091D01*
X74138686Y-64077000D01*
X72178155Y-64077000D01*
X72056245Y-64077000D01*
X71948140Y-64105966D01*
X71938484Y-64108554D01*
X71832914Y-64169505D01*
X71832908Y-64169510D01*
X57561738Y-78440681D01*
X57500415Y-78474166D01*
X57474057Y-78477000D01*
X50590801Y-78477000D01*
X50540715Y-78466435D01*
X50474991Y-78437415D01*
X50449865Y-78434500D01*
X48090143Y-78434500D01*
X48090117Y-78434502D01*
X48065012Y-78437413D01*
X48065008Y-78437415D01*
X47962235Y-78482793D01*
X47882794Y-78562234D01*
X47837415Y-78665006D01*
X47837415Y-78665008D01*
X47834500Y-78690131D01*
X39497812Y-78690131D01*
X37897812Y-77090131D01*
X47834500Y-77090131D01*
X47834500Y-77589856D01*
X47834502Y-77589882D01*
X47837413Y-77614987D01*
X47837415Y-77614991D01*
X47882793Y-77717764D01*
X47882794Y-77717765D01*
X47962235Y-77797206D01*
X48065009Y-77842585D01*
X48090135Y-77845500D01*
X50449864Y-77845499D01*
X50449879Y-77845497D01*
X50449882Y-77845497D01*
X50474987Y-77842586D01*
X50474987Y-77842585D01*
X50474991Y-77842585D01*
X50530018Y-77818288D01*
X50540716Y-77813565D01*
X50590801Y-77803000D01*
X51378152Y-77803000D01*
X51378155Y-77803000D01*
X51495911Y-77771447D01*
X51601489Y-77710492D01*
X72272662Y-57039319D01*
X72333985Y-57005834D01*
X72360343Y-57003000D01*
X74138686Y-57003000D01*
X74205725Y-57022685D01*
X74249171Y-57070705D01*
X74286006Y-57142997D01*
X74392441Y-57289494D01*
X74392445Y-57289499D01*
X74520500Y-57417554D01*
X74520505Y-57417558D01*
X74648287Y-57510396D01*
X74667006Y-57523996D01*
X74772484Y-57577740D01*
X74828360Y-57606211D01*
X74828363Y-57606212D01*
X74914476Y-57634191D01*
X75000591Y-57662171D01*
X75083429Y-57675291D01*
X75179449Y-57690500D01*
X75179454Y-57690500D01*
X75360551Y-57690500D01*
X75447259Y-57676765D01*
X75539409Y-57662171D01*
X75711639Y-57606211D01*
X75872994Y-57523996D01*
X76019501Y-57417553D01*
X76147553Y-57289501D01*
X76253996Y-57142994D01*
X76336211Y-56981639D01*
X76392171Y-56809409D01*
X76406765Y-56717259D01*
X76420500Y-56630551D01*
X76420500Y-56449448D01*
X76404019Y-56345397D01*
X76392171Y-56270591D01*
X76336211Y-56098361D01*
X76336211Y-56098360D01*
X76290829Y-56009295D01*
X76253996Y-55937006D01*
X76240396Y-55918287D01*
X76147558Y-55790505D01*
X76147554Y-55790500D01*
X76019499Y-55662445D01*
X76019494Y-55662441D01*
X75872997Y-55556006D01*
X75872996Y-55556005D01*
X75872994Y-55556004D01*
X75821300Y-55529664D01*
X75711639Y-55473788D01*
X75711636Y-55473787D01*
X75539410Y-55417829D01*
X75360551Y-55389500D01*
X75360546Y-55389500D01*
X75179454Y-55389500D01*
X75179449Y-55389500D01*
X75000589Y-55417829D01*
X74828363Y-55473787D01*
X74828360Y-55473788D01*
X74667002Y-55556006D01*
X74520505Y-55662441D01*
X74520500Y-55662445D01*
X74392445Y-55790500D01*
X74392441Y-55790505D01*
X74286006Y-55937002D01*
X74249171Y-56009295D01*
X74201196Y-56060091D01*
X74138686Y-56077000D01*
X72178155Y-56077000D01*
X72056245Y-56077000D01*
X71985591Y-56095931D01*
X71938487Y-56108553D01*
X71938482Y-56108556D01*
X71832917Y-56169503D01*
X71832909Y-56169509D01*
X51161738Y-76840681D01*
X51100415Y-76874166D01*
X51074057Y-76877000D01*
X50590801Y-76877000D01*
X50540715Y-76866435D01*
X50474991Y-76837415D01*
X50449865Y-76834500D01*
X48090143Y-76834500D01*
X48090117Y-76834502D01*
X48065012Y-76837413D01*
X48065008Y-76837415D01*
X47962235Y-76882793D01*
X47882794Y-76962234D01*
X47837415Y-77065006D01*
X47837415Y-77065008D01*
X47834500Y-77090131D01*
X37897812Y-77090131D01*
X31497812Y-70690131D01*
X42104500Y-70690131D01*
X42104500Y-71189856D01*
X42104502Y-71189882D01*
X42107413Y-71214987D01*
X42107415Y-71214991D01*
X42140496Y-71289913D01*
X42149568Y-71359191D01*
X42140497Y-71390085D01*
X42107415Y-71465009D01*
X42104500Y-71490131D01*
X42104500Y-71989856D01*
X42104502Y-71989882D01*
X42107413Y-72014987D01*
X42107415Y-72014991D01*
X42152793Y-72117764D01*
X42152794Y-72117765D01*
X42232235Y-72197206D01*
X42335009Y-72242585D01*
X42360135Y-72245500D01*
X44719864Y-72245499D01*
X44719879Y-72245497D01*
X44719882Y-72245497D01*
X44744987Y-72242586D01*
X44744988Y-72242585D01*
X44744991Y-72242585D01*
X44847765Y-72197206D01*
X44927206Y-72117765D01*
X44972585Y-72014991D01*
X44975500Y-71989865D01*
X44975499Y-71490136D01*
X44975497Y-71490117D01*
X44972586Y-71465012D01*
X44972585Y-71465011D01*
X44972585Y-71465009D01*
X44939502Y-71390084D01*
X44930431Y-71320809D01*
X44939501Y-71289918D01*
X44972585Y-71214991D01*
X44975500Y-71189865D01*
X44975499Y-70690136D01*
X44975497Y-70690117D01*
X44972586Y-70665012D01*
X44972585Y-70665010D01*
X44972585Y-70665009D01*
X44927206Y-70562235D01*
X44847765Y-70482794D01*
X44847763Y-70482793D01*
X44744992Y-70437415D01*
X44719865Y-70434500D01*
X42360143Y-70434500D01*
X42360117Y-70434502D01*
X42335012Y-70437413D01*
X42335008Y-70437415D01*
X42232235Y-70482793D01*
X42152794Y-70562234D01*
X42107415Y-70665006D01*
X42107415Y-70665008D01*
X42104500Y-70690131D01*
X31497812Y-70690131D01*
X20977190Y-60169509D01*
X20977182Y-60169503D01*
X20871617Y-60108556D01*
X20871612Y-60108553D01*
X20833574Y-60098361D01*
X20753855Y-60077000D01*
X20753852Y-60077000D01*
X18671314Y-60077000D01*
X18604275Y-60057315D01*
X18560829Y-60009295D01*
X18523996Y-59937006D01*
X18510396Y-59918287D01*
X18417558Y-59790505D01*
X18417554Y-59790500D01*
X18289499Y-59662445D01*
X18289494Y-59662441D01*
X18142997Y-59556006D01*
X18142996Y-59556005D01*
X18142994Y-59556004D01*
X18091300Y-59529664D01*
X17981639Y-59473788D01*
X17981636Y-59473787D01*
X17809410Y-59417829D01*
X17630551Y-59389500D01*
X17630546Y-59389500D01*
X17449454Y-59389500D01*
X17449449Y-59389500D01*
X17270589Y-59417829D01*
X17098363Y-59473787D01*
X17098360Y-59473788D01*
X16937002Y-59556006D01*
X16790505Y-59662441D01*
X16790500Y-59662445D01*
X16662445Y-59790500D01*
X16662441Y-59790505D01*
X16556006Y-59937002D01*
X16473788Y-60098360D01*
X16473787Y-60098363D01*
X16417829Y-60270589D01*
X16389500Y-60449448D01*
X9500500Y-60449448D01*
X9500500Y-50010145D01*
X47307800Y-50010145D01*
X47307800Y-74079045D01*
X47307800Y-74200955D01*
X47327545Y-74274643D01*
X47339353Y-74318712D01*
X47339356Y-74318717D01*
X47400303Y-74424282D01*
X47400307Y-74424287D01*
X47400308Y-74424289D01*
X47486511Y-74510492D01*
X47486513Y-74510493D01*
X47486517Y-74510496D01*
X47592082Y-74571443D01*
X47592089Y-74571447D01*
X47709845Y-74603000D01*
X47949199Y-74603000D01*
X47999284Y-74613564D01*
X48065009Y-74642585D01*
X48090135Y-74645500D01*
X50182200Y-74645499D01*
X50249239Y-74665184D01*
X50294994Y-74717987D01*
X50306200Y-74769499D01*
X50306200Y-75110500D01*
X50286515Y-75177539D01*
X50233711Y-75223294D01*
X50182200Y-75234500D01*
X48090143Y-75234500D01*
X48090117Y-75234502D01*
X48065012Y-75237413D01*
X48065008Y-75237415D01*
X47962235Y-75282793D01*
X47882794Y-75362234D01*
X47837415Y-75465006D01*
X47837415Y-75465008D01*
X47834500Y-75490131D01*
X47834500Y-75989856D01*
X47834502Y-75989882D01*
X47837413Y-76014987D01*
X47837415Y-76014991D01*
X47882793Y-76117764D01*
X47882794Y-76117765D01*
X47962235Y-76197206D01*
X48065009Y-76242585D01*
X48090135Y-76245500D01*
X50449864Y-76245499D01*
X50449879Y-76245497D01*
X50449882Y-76245497D01*
X50474987Y-76242586D01*
X50474987Y-76242585D01*
X50474991Y-76242585D01*
X50530018Y-76218288D01*
X50540716Y-76213565D01*
X50590801Y-76203000D01*
X50830152Y-76203000D01*
X50830155Y-76203000D01*
X50947911Y-76171447D01*
X51053489Y-76110492D01*
X51139692Y-76024289D01*
X51200647Y-75918711D01*
X51232200Y-75800955D01*
X51232200Y-74274643D01*
X51251885Y-74207604D01*
X51268519Y-74186962D01*
X72320362Y-53135119D01*
X72381685Y-53101634D01*
X72408043Y-53098800D01*
X73165652Y-53098800D01*
X73165655Y-53098800D01*
X73283411Y-53067247D01*
X73388989Y-53006292D01*
X75544079Y-50851199D01*
X75544084Y-50851196D01*
X75554287Y-50840992D01*
X75554289Y-50840992D01*
X75640492Y-50754789D01*
X75701447Y-50649211D01*
X75733000Y-50531455D01*
X75733000Y-49671313D01*
X75752685Y-49604274D01*
X75800705Y-49560828D01*
X75872994Y-49523996D01*
X76019501Y-49417553D01*
X76147553Y-49289501D01*
X76253996Y-49142994D01*
X76336211Y-48981639D01*
X76392171Y-48809409D01*
X76406765Y-48717259D01*
X76420500Y-48630551D01*
X76420500Y-48449448D01*
X76404019Y-48345397D01*
X76392171Y-48270591D01*
X76336211Y-48098361D01*
X76336211Y-48098360D01*
X76307740Y-48042484D01*
X76253996Y-47937006D01*
X76240396Y-47918287D01*
X76147558Y-47790505D01*
X76147554Y-47790500D01*
X76019499Y-47662445D01*
X76019494Y-47662441D01*
X75872997Y-47556006D01*
X75872996Y-47556005D01*
X75872994Y-47556004D01*
X75821300Y-47529664D01*
X75711639Y-47473788D01*
X75711636Y-47473787D01*
X75539410Y-47417829D01*
X75360551Y-47389500D01*
X75360546Y-47389500D01*
X75179454Y-47389500D01*
X75179449Y-47389500D01*
X75000589Y-47417829D01*
X74828363Y-47473787D01*
X74828360Y-47473788D01*
X74667002Y-47556006D01*
X74520505Y-47662441D01*
X74520500Y-47662445D01*
X74392445Y-47790500D01*
X74392441Y-47790505D01*
X74286006Y-47937002D01*
X74203788Y-48098360D01*
X74203787Y-48098363D01*
X74147829Y-48270589D01*
X74119500Y-48449448D01*
X74119500Y-48630551D01*
X74147829Y-48809410D01*
X74203787Y-48981636D01*
X74203788Y-48981639D01*
X74286006Y-49142997D01*
X74392441Y-49289494D01*
X74392445Y-49289499D01*
X74520500Y-49417554D01*
X74520505Y-49417558D01*
X74665171Y-49522663D01*
X74667006Y-49523996D01*
X74739294Y-49560828D01*
X74790091Y-49608802D01*
X74807000Y-49671313D01*
X74807000Y-50227357D01*
X74787315Y-50294396D01*
X74770681Y-50315038D01*
X72949238Y-52136481D01*
X72887915Y-52169966D01*
X72861557Y-52172800D01*
X72225855Y-52172800D01*
X72103945Y-52172800D01*
X72033291Y-52191731D01*
X71986187Y-52204353D01*
X71986182Y-52204356D01*
X71880617Y-52265303D01*
X71880609Y-52265309D01*
X71581381Y-52564537D01*
X71520058Y-52598022D01*
X71450366Y-52593038D01*
X71394433Y-52551166D01*
X71370016Y-52485702D01*
X71370500Y-52469457D01*
X71370500Y-38133643D01*
X71390185Y-38066604D01*
X71406819Y-38045962D01*
X72413462Y-37039319D01*
X72474785Y-37005834D01*
X72501143Y-37003000D01*
X73350952Y-37003000D01*
X73350955Y-37003000D01*
X73468711Y-36971447D01*
X73574289Y-36910492D01*
X74595419Y-35889362D01*
X74656742Y-35855877D01*
X74726434Y-35860861D01*
X74782367Y-35902733D01*
X74806784Y-35968197D01*
X74807100Y-35977043D01*
X74807100Y-39408634D01*
X74787415Y-39475673D01*
X74739396Y-39519118D01*
X74667004Y-39556004D01*
X74520505Y-39662441D01*
X74520500Y-39662445D01*
X74392445Y-39790500D01*
X74392441Y-39790505D01*
X74286006Y-39937002D01*
X74203788Y-40098360D01*
X74203787Y-40098363D01*
X74147829Y-40270589D01*
X74119500Y-40449448D01*
X74119500Y-40630551D01*
X74147829Y-40809410D01*
X74203787Y-40981636D01*
X74203788Y-40981639D01*
X74286006Y-41142997D01*
X74392441Y-41289494D01*
X74392445Y-41289499D01*
X74520500Y-41417554D01*
X74520505Y-41417558D01*
X74648287Y-41510396D01*
X74667006Y-41523996D01*
X74772484Y-41577740D01*
X74828360Y-41606211D01*
X74828363Y-41606212D01*
X74914476Y-41634191D01*
X75000591Y-41662171D01*
X75083429Y-41675291D01*
X75179449Y-41690500D01*
X75179454Y-41690500D01*
X75360551Y-41690500D01*
X75447259Y-41676765D01*
X75539409Y-41662171D01*
X75711639Y-41606211D01*
X75872994Y-41523996D01*
X76019501Y-41417553D01*
X76147553Y-41289501D01*
X76253996Y-41142994D01*
X76336211Y-40981639D01*
X76392171Y-40809409D01*
X76406765Y-40717259D01*
X76420500Y-40630551D01*
X76420500Y-40449448D01*
X76404019Y-40345397D01*
X76392171Y-40270591D01*
X76336211Y-40098361D01*
X76336211Y-40098360D01*
X76307740Y-40042484D01*
X76253996Y-39937006D01*
X76240396Y-39918287D01*
X76147558Y-39790505D01*
X76147554Y-39790500D01*
X76019499Y-39662445D01*
X76019494Y-39662441D01*
X75872995Y-39556004D01*
X75800804Y-39519220D01*
X75750009Y-39471245D01*
X75733100Y-39408736D01*
X75733100Y-35545743D01*
X75752785Y-35478704D01*
X75769419Y-35458062D01*
X76316985Y-34910496D01*
X76872492Y-34354989D01*
X76933447Y-34249411D01*
X76965000Y-34131655D01*
X76965000Y-34009745D01*
X76965000Y-31321045D01*
X76933447Y-31203289D01*
X76905412Y-31154730D01*
X76888800Y-31092731D01*
X76888800Y-26747967D01*
X76905413Y-26685967D01*
X76912838Y-26673107D01*
X76933447Y-26637411D01*
X76965000Y-26519655D01*
X76965000Y-26397745D01*
X76965000Y-23975845D01*
X76933447Y-23858089D01*
X76933443Y-23858082D01*
X76872496Y-23752517D01*
X76872490Y-23752509D01*
X76057490Y-22937509D01*
X76057482Y-22937503D01*
X75951917Y-22876556D01*
X75951912Y-22876553D01*
X75922472Y-22868664D01*
X75834155Y-22845000D01*
X74594855Y-22845000D01*
X74472945Y-22845000D01*
X74402291Y-22863931D01*
X74355187Y-22876553D01*
X74355182Y-22876556D01*
X74249617Y-22937503D01*
X74249609Y-22937509D01*
X47400309Y-49786809D01*
X47400303Y-49786817D01*
X47339356Y-49892382D01*
X47339353Y-49892387D01*
X47323576Y-49951267D01*
X47307800Y-50010145D01*
X9500500Y-50010145D01*
X9500500Y-14878711D01*
X15689500Y-14878711D01*
X15689500Y-15121288D01*
X15721161Y-15361785D01*
X15783947Y-15596104D01*
X15876773Y-15820205D01*
X15876776Y-15820212D01*
X15998064Y-16030289D01*
X15998066Y-16030292D01*
X15998067Y-16030293D01*
X16145733Y-16222736D01*
X16145739Y-16222743D01*
X16317256Y-16394260D01*
X16317262Y-16394265D01*
X16509711Y-16541936D01*
X16719788Y-16663224D01*
X16943900Y-16756054D01*
X17178211Y-16818838D01*
X17358586Y-16842584D01*
X17418711Y-16850500D01*
X17418712Y-16850500D01*
X17661289Y-16850500D01*
X17709388Y-16844167D01*
X17901789Y-16818838D01*
X18136100Y-16756054D01*
X18360212Y-16663224D01*
X18570289Y-16541936D01*
X18762738Y-16394265D01*
X18934265Y-16222738D01*
X19081936Y-16030289D01*
X19203224Y-15820212D01*
X19296054Y-15596100D01*
X19358838Y-15361789D01*
X19390500Y-15121288D01*
X19390500Y-14878712D01*
X19390500Y-14878711D01*
X73419500Y-14878711D01*
X73419500Y-15121288D01*
X73451161Y-15361785D01*
X73513947Y-15596104D01*
X73606773Y-15820205D01*
X73606776Y-15820212D01*
X73728064Y-16030289D01*
X73728066Y-16030292D01*
X73728067Y-16030293D01*
X73875733Y-16222736D01*
X73875739Y-16222743D01*
X74047256Y-16394260D01*
X74047262Y-16394265D01*
X74239711Y-16541936D01*
X74449788Y-16663224D01*
X74673900Y-16756054D01*
X74908211Y-16818838D01*
X75088586Y-16842584D01*
X75148711Y-16850500D01*
X75148712Y-16850500D01*
X75391289Y-16850500D01*
X75439388Y-16844167D01*
X75631789Y-16818838D01*
X75866100Y-16756054D01*
X76090212Y-16663224D01*
X76300289Y-16541936D01*
X76492738Y-16394265D01*
X76664265Y-16222738D01*
X76811936Y-16030289D01*
X76933224Y-15820212D01*
X77026054Y-15596100D01*
X77088838Y-15361789D01*
X77120500Y-15121288D01*
X77120500Y-14878712D01*
X77088838Y-14638211D01*
X77026054Y-14403900D01*
X76933224Y-14179788D01*
X76811936Y-13969711D01*
X76664265Y-13777262D01*
X76664260Y-13777256D01*
X76492743Y-13605739D01*
X76492736Y-13605733D01*
X76300293Y-13458067D01*
X76300292Y-13458066D01*
X76300289Y-13458064D01*
X76090212Y-13336776D01*
X76090205Y-13336773D01*
X75866104Y-13243947D01*
X75631785Y-13181161D01*
X75391289Y-13149500D01*
X75391288Y-13149500D01*
X75148712Y-13149500D01*
X75148711Y-13149500D01*
X74908214Y-13181161D01*
X74673895Y-13243947D01*
X74449794Y-13336773D01*
X74449785Y-13336777D01*
X74239706Y-13458067D01*
X74047263Y-13605733D01*
X74047256Y-13605739D01*
X73875739Y-13777256D01*
X73875733Y-13777263D01*
X73728067Y-13969706D01*
X73606777Y-14179785D01*
X73606773Y-14179794D01*
X73513947Y-14403895D01*
X73451161Y-14638214D01*
X73419500Y-14878711D01*
X19390500Y-14878711D01*
X19358838Y-14638211D01*
X19296054Y-14403900D01*
X19203224Y-14179788D01*
X19081936Y-13969711D01*
X18934265Y-13777262D01*
X18934260Y-13777256D01*
X18762743Y-13605739D01*
X18762736Y-13605733D01*
X18570293Y-13458067D01*
X18570292Y-13458066D01*
X18570289Y-13458064D01*
X18360212Y-13336776D01*
X18360205Y-13336773D01*
X18136104Y-13243947D01*
X17901785Y-13181161D01*
X17661289Y-13149500D01*
X17661288Y-13149500D01*
X17418712Y-13149500D01*
X17418711Y-13149500D01*
X17178214Y-13181161D01*
X16943895Y-13243947D01*
X16719794Y-13336773D01*
X16719785Y-13336777D01*
X16509706Y-13458067D01*
X16317263Y-13605733D01*
X16317256Y-13605739D01*
X16145739Y-13777256D01*
X16145733Y-13777263D01*
X15998067Y-13969706D01*
X15876777Y-14179785D01*
X15876773Y-14179794D01*
X15783947Y-14403895D01*
X15721161Y-14638214D01*
X15689500Y-14878711D01*
X9500500Y-14878711D01*
X9500500Y-10624500D01*
X9520185Y-10557461D01*
X9572989Y-10511706D01*
X9624500Y-10500500D01*
X83185500Y-10500500D01*
X83252539Y-10520185D01*
G37*
%TD.AperFunction*%
%TD*%
M02*
