%TF.GenerationSoftware,KiCad,Pcbnew,10.0.3*%
%TF.CreationDate,2026-07-15T14:37:17-04:00*%
%TF.ProjectId,board-A-mcx,626f6172-642d-4412-9d6d-63782e6b6963,rev?*%
%TF.SameCoordinates,Original*%
%TF.FileFunction,Other,User*%
%FSLAX46Y46*%
G04 Gerber Fmt 4.6, Leading zero omitted, Abs format (unit mm)*
G04 Created by KiCad (PCBNEW 10.0.3) date 2026-07-15 14:37:17*
%MOMM*%
%LPD*%
G01*
G04 APERTURE LIST*
%ADD10C,0.050000*%
G04 APERTURE END LIST*
%TO.C,K2*%
D10*
X71970000Y-109240000D02*
X78570000Y-109240000D01*
X71970000Y-115840000D02*
X71970000Y-109240000D01*
X78570000Y-109240000D02*
X78570000Y-115840000D01*
X78570000Y-115840000D02*
X71970000Y-115840000D01*
%TO.C,K4*%
X71970000Y-125240000D02*
X78570000Y-125240000D01*
X71970000Y-131840000D02*
X71970000Y-125240000D01*
X78570000Y-125240000D02*
X78570000Y-131840000D01*
X78570000Y-131840000D02*
X71970000Y-131840000D01*
%TO.C,K15*%
X14240000Y-57240000D02*
X20840000Y-57240000D01*
X14240000Y-63840000D02*
X14240000Y-57240000D01*
X20840000Y-57240000D02*
X20840000Y-63840000D01*
X20840000Y-63840000D02*
X14240000Y-63840000D01*
%TO.C,K8*%
X14240000Y-113240000D02*
X20840000Y-113240000D01*
X14240000Y-119840000D02*
X14240000Y-113240000D01*
X20840000Y-113240000D02*
X20840000Y-119840000D01*
X20840000Y-119840000D02*
X14240000Y-119840000D01*
%TO.C,K20*%
X71970000Y-53240000D02*
X78570000Y-53240000D01*
X71970000Y-59840000D02*
X71970000Y-53240000D01*
X78570000Y-53240000D02*
X78570000Y-59840000D01*
X78570000Y-59840000D02*
X71970000Y-59840000D01*
%TO.C,K3*%
X71970000Y-117240000D02*
X78570000Y-117240000D01*
X71970000Y-123840000D02*
X71970000Y-117240000D01*
X78570000Y-117240000D02*
X78570000Y-123840000D01*
X78570000Y-123840000D02*
X71970000Y-123840000D01*
%TO.C,K11*%
X14240000Y-89240000D02*
X20840000Y-89240000D01*
X14240000Y-95840000D02*
X14240000Y-89240000D01*
X20840000Y-89240000D02*
X20840000Y-95840000D01*
X20840000Y-95840000D02*
X14240000Y-95840000D01*
%TO.C,K18*%
X71970000Y-37240000D02*
X78570000Y-37240000D01*
X71970000Y-43840000D02*
X71970000Y-37240000D01*
X78570000Y-37240000D02*
X78570000Y-43840000D01*
X78570000Y-43840000D02*
X71970000Y-43840000D01*
%TO.C,MH2*%
X78720000Y-15000000D02*
G75*
G02*
X71820000Y-15000000I-3450000J0D01*
G01*
X71820000Y-15000000D02*
G75*
G02*
X78720000Y-15000000I3450000J0D01*
G01*
%TO.C,K7*%
X71970000Y-149240000D02*
X78570000Y-149240000D01*
X71970000Y-155840000D02*
X71970000Y-149240000D01*
X78570000Y-149240000D02*
X78570000Y-155840000D01*
X78570000Y-155840000D02*
X71970000Y-155840000D01*
%TO.C,MH1*%
X20990000Y-15000000D02*
G75*
G02*
X14090000Y-15000000I-3450000J0D01*
G01*
X14090000Y-15000000D02*
G75*
G02*
X20990000Y-15000000I3450000J0D01*
G01*
%TO.C,K22*%
X71970000Y-69240000D02*
X78570000Y-69240000D01*
X71970000Y-75840000D02*
X71970000Y-69240000D01*
X78570000Y-69240000D02*
X78570000Y-75840000D01*
X78570000Y-75840000D02*
X71970000Y-75840000D01*
%TO.C,K10*%
X14240000Y-97240000D02*
X20840000Y-97240000D01*
X14240000Y-103840000D02*
X14240000Y-97240000D01*
X20840000Y-97240000D02*
X20840000Y-103840000D01*
X20840000Y-103840000D02*
X14240000Y-103840000D01*
%TO.C,K6*%
X71970000Y-141240000D02*
X78570000Y-141240000D01*
X71970000Y-147840000D02*
X71970000Y-141240000D01*
X78570000Y-141240000D02*
X78570000Y-147840000D01*
X78570000Y-147840000D02*
X71970000Y-147840000D01*
%TO.C,K21*%
X71970000Y-61240000D02*
X78570000Y-61240000D01*
X71970000Y-67840000D02*
X71970000Y-61240000D01*
X78570000Y-61240000D02*
X78570000Y-67840000D01*
X78570000Y-67840000D02*
X71970000Y-67840000D01*
%TO.C,K13*%
X14240000Y-73240000D02*
X20840000Y-73240000D01*
X14240000Y-79840000D02*
X14240000Y-73240000D01*
X20840000Y-73240000D02*
X20840000Y-79840000D01*
X20840000Y-79840000D02*
X14240000Y-79840000D01*
%TO.C,K23*%
X71970000Y-77240000D02*
X78570000Y-77240000D01*
X71970000Y-83840000D02*
X71970000Y-77240000D01*
X78570000Y-77240000D02*
X78570000Y-83840000D01*
X78570000Y-83840000D02*
X71970000Y-83840000D01*
%TO.C,K0*%
X71970000Y-93240000D02*
X78570000Y-93240000D01*
X71970000Y-99840000D02*
X71970000Y-93240000D01*
X78570000Y-93240000D02*
X78570000Y-99840000D01*
X78570000Y-99840000D02*
X71970000Y-99840000D01*
%TO.C,K16*%
X71970000Y-21240000D02*
X78570000Y-21240000D01*
X71970000Y-27840000D02*
X71970000Y-21240000D01*
X78570000Y-21240000D02*
X78570000Y-27840000D01*
X78570000Y-27840000D02*
X71970000Y-27840000D01*
%TO.C,K9*%
X14240000Y-105240000D02*
X20840000Y-105240000D01*
X14240000Y-111840000D02*
X14240000Y-105240000D01*
X20840000Y-105240000D02*
X20840000Y-111840000D01*
X20840000Y-111840000D02*
X14240000Y-111840000D01*
%TO.C,MH4*%
X78720000Y-162080000D02*
G75*
G02*
X71820000Y-162080000I-3450000J0D01*
G01*
X71820000Y-162080000D02*
G75*
G02*
X78720000Y-162080000I3450000J0D01*
G01*
%TO.C,K5*%
X71970000Y-133240000D02*
X78570000Y-133240000D01*
X71970000Y-139840000D02*
X71970000Y-133240000D01*
X78570000Y-133240000D02*
X78570000Y-139840000D01*
X78570000Y-139840000D02*
X71970000Y-139840000D01*
%TO.C,K1*%
X71970000Y-101240000D02*
X78570000Y-101240000D01*
X71970000Y-107840000D02*
X71970000Y-101240000D01*
X78570000Y-101240000D02*
X78570000Y-107840000D01*
X78570000Y-107840000D02*
X71970000Y-107840000D01*
%TO.C,K14*%
X14240000Y-65240000D02*
X20840000Y-65240000D01*
X14240000Y-71840000D02*
X14240000Y-65240000D01*
X20840000Y-65240000D02*
X20840000Y-71840000D01*
X20840000Y-71840000D02*
X14240000Y-71840000D01*
%TO.C,MH3*%
X20990000Y-162080000D02*
G75*
G02*
X14090000Y-162080000I-3450000J0D01*
G01*
X14090000Y-162080000D02*
G75*
G02*
X20990000Y-162080000I3450000J0D01*
G01*
%TO.C,K12*%
X14240000Y-81240000D02*
X20840000Y-81240000D01*
X14240000Y-87840000D02*
X14240000Y-81240000D01*
X20840000Y-81240000D02*
X20840000Y-87840000D01*
X20840000Y-87840000D02*
X14240000Y-87840000D01*
%TO.C,K19*%
X71970000Y-45240000D02*
X78570000Y-45240000D01*
X71970000Y-51840000D02*
X71970000Y-45240000D01*
X78570000Y-45240000D02*
X78570000Y-51840000D01*
X78570000Y-51840000D02*
X71970000Y-51840000D01*
%TO.C,IV*%
X71970000Y-85240000D02*
X78570000Y-85240000D01*
X71970000Y-91840000D02*
X71970000Y-85240000D01*
X78570000Y-85240000D02*
X78570000Y-91840000D01*
X78570000Y-91840000D02*
X71970000Y-91840000D01*
%TO.C,K17*%
X71970000Y-29240000D02*
X78570000Y-29240000D01*
X71970000Y-35840000D02*
X71970000Y-29240000D01*
X78570000Y-29240000D02*
X78570000Y-35840000D01*
X78570000Y-35840000D02*
X71970000Y-35840000D01*
%TD*%
M02*
