%TF.GenerationSoftware,KiCad,Pcbnew,10.0.3*%
%TF.CreationDate,2026-07-17T14:48:35-04:00*%
%TF.ProjectId,board-A-mcx,626f6172-642d-4412-9d6d-63782e6b6963,rev?*%
%TF.SameCoordinates,Original*%
%TF.FileFunction,Legend,Top*%
%TF.FilePolarity,Positive*%
%FSLAX46Y46*%
G04 Gerber Fmt 4.6, Leading zero omitted, Abs format (unit mm)*
G04 Created by KiCad (PCBNEW 10.0.3) date 2026-07-17 14:48:35*
%MOMM*%
%LPD*%
G01*
G04 APERTURE LIST*
%ADD10C,0.200000*%
%ADD11C,0.150000*%
G04 APERTURE END LIST*
D10*
X21582857Y-29084742D02*
X21582857Y-27884742D01*
X22268571Y-29084742D02*
X21754285Y-28399028D01*
X22268571Y-27884742D02*
X21582857Y-28570457D01*
X23411428Y-29084742D02*
X22725714Y-29084742D01*
X23068571Y-29084742D02*
X23068571Y-27884742D01*
X23068571Y-27884742D02*
X22954285Y-28056171D01*
X22954285Y-28056171D02*
X22840000Y-28170457D01*
X22840000Y-28170457D02*
X22725714Y-28227600D01*
X24440000Y-27884742D02*
X24211428Y-27884742D01*
X24211428Y-27884742D02*
X24097142Y-27941885D01*
X24097142Y-27941885D02*
X24040000Y-27999028D01*
X24040000Y-27999028D02*
X23925714Y-28170457D01*
X23925714Y-28170457D02*
X23868571Y-28399028D01*
X23868571Y-28399028D02*
X23868571Y-28856171D01*
X23868571Y-28856171D02*
X23925714Y-28970457D01*
X23925714Y-28970457D02*
X23982857Y-29027600D01*
X23982857Y-29027600D02*
X24097142Y-29084742D01*
X24097142Y-29084742D02*
X24325714Y-29084742D01*
X24325714Y-29084742D02*
X24440000Y-29027600D01*
X24440000Y-29027600D02*
X24497142Y-28970457D01*
X24497142Y-28970457D02*
X24554285Y-28856171D01*
X24554285Y-28856171D02*
X24554285Y-28570457D01*
X24554285Y-28570457D02*
X24497142Y-28456171D01*
X24497142Y-28456171D02*
X24440000Y-28399028D01*
X24440000Y-28399028D02*
X24325714Y-28341885D01*
X24325714Y-28341885D02*
X24097142Y-28341885D01*
X24097142Y-28341885D02*
X23982857Y-28399028D01*
X23982857Y-28399028D02*
X23925714Y-28456171D01*
X23925714Y-28456171D02*
X23868571Y-28570457D01*
X21582857Y-37084742D02*
X21582857Y-35884742D01*
X22268571Y-37084742D02*
X21754285Y-36399028D01*
X22268571Y-35884742D02*
X21582857Y-36570457D01*
X23411428Y-37084742D02*
X22725714Y-37084742D01*
X23068571Y-37084742D02*
X23068571Y-35884742D01*
X23068571Y-35884742D02*
X22954285Y-36056171D01*
X22954285Y-36056171D02*
X22840000Y-36170457D01*
X22840000Y-36170457D02*
X22725714Y-36227600D01*
X23811428Y-35884742D02*
X24611428Y-35884742D01*
X24611428Y-35884742D02*
X24097142Y-37084742D01*
X21582857Y-45084742D02*
X21582857Y-43884742D01*
X22268571Y-45084742D02*
X21754285Y-44399028D01*
X22268571Y-43884742D02*
X21582857Y-44570457D01*
X23411428Y-45084742D02*
X22725714Y-45084742D01*
X23068571Y-45084742D02*
X23068571Y-43884742D01*
X23068571Y-43884742D02*
X22954285Y-44056171D01*
X22954285Y-44056171D02*
X22840000Y-44170457D01*
X22840000Y-44170457D02*
X22725714Y-44227600D01*
X24497142Y-43884742D02*
X23925714Y-43884742D01*
X23925714Y-43884742D02*
X23868571Y-44456171D01*
X23868571Y-44456171D02*
X23925714Y-44399028D01*
X23925714Y-44399028D02*
X24040000Y-44341885D01*
X24040000Y-44341885D02*
X24325714Y-44341885D01*
X24325714Y-44341885D02*
X24440000Y-44399028D01*
X24440000Y-44399028D02*
X24497142Y-44456171D01*
X24497142Y-44456171D02*
X24554285Y-44570457D01*
X24554285Y-44570457D02*
X24554285Y-44856171D01*
X24554285Y-44856171D02*
X24497142Y-44970457D01*
X24497142Y-44970457D02*
X24440000Y-45027600D01*
X24440000Y-45027600D02*
X24325714Y-45084742D01*
X24325714Y-45084742D02*
X24040000Y-45084742D01*
X24040000Y-45084742D02*
X23925714Y-45027600D01*
X23925714Y-45027600D02*
X23868571Y-44970457D01*
X21582857Y-53084742D02*
X21582857Y-51884742D01*
X22268571Y-53084742D02*
X21754285Y-52399028D01*
X22268571Y-51884742D02*
X21582857Y-52570457D01*
X23411428Y-53084742D02*
X22725714Y-53084742D01*
X23068571Y-53084742D02*
X23068571Y-51884742D01*
X23068571Y-51884742D02*
X22954285Y-52056171D01*
X22954285Y-52056171D02*
X22840000Y-52170457D01*
X22840000Y-52170457D02*
X22725714Y-52227600D01*
X24440000Y-52284742D02*
X24440000Y-53084742D01*
X24154285Y-51827600D02*
X23868571Y-52684742D01*
X23868571Y-52684742D02*
X24611428Y-52684742D01*
X21582857Y-61084742D02*
X21582857Y-59884742D01*
X22268571Y-61084742D02*
X21754285Y-60399028D01*
X22268571Y-59884742D02*
X21582857Y-60570457D01*
X23411428Y-61084742D02*
X22725714Y-61084742D01*
X23068571Y-61084742D02*
X23068571Y-59884742D01*
X23068571Y-59884742D02*
X22954285Y-60056171D01*
X22954285Y-60056171D02*
X22840000Y-60170457D01*
X22840000Y-60170457D02*
X22725714Y-60227600D01*
X23811428Y-59884742D02*
X24554285Y-59884742D01*
X24554285Y-59884742D02*
X24154285Y-60341885D01*
X24154285Y-60341885D02*
X24325714Y-60341885D01*
X24325714Y-60341885D02*
X24440000Y-60399028D01*
X24440000Y-60399028D02*
X24497142Y-60456171D01*
X24497142Y-60456171D02*
X24554285Y-60570457D01*
X24554285Y-60570457D02*
X24554285Y-60856171D01*
X24554285Y-60856171D02*
X24497142Y-60970457D01*
X24497142Y-60970457D02*
X24440000Y-61027600D01*
X24440000Y-61027600D02*
X24325714Y-61084742D01*
X24325714Y-61084742D02*
X23982857Y-61084742D01*
X23982857Y-61084742D02*
X23868571Y-61027600D01*
X23868571Y-61027600D02*
X23811428Y-60970457D01*
X21582857Y-69084742D02*
X21582857Y-67884742D01*
X22268571Y-69084742D02*
X21754285Y-68399028D01*
X22268571Y-67884742D02*
X21582857Y-68570457D01*
X23411428Y-69084742D02*
X22725714Y-69084742D01*
X23068571Y-69084742D02*
X23068571Y-67884742D01*
X23068571Y-67884742D02*
X22954285Y-68056171D01*
X22954285Y-68056171D02*
X22840000Y-68170457D01*
X22840000Y-68170457D02*
X22725714Y-68227600D01*
X23868571Y-67999028D02*
X23925714Y-67941885D01*
X23925714Y-67941885D02*
X24040000Y-67884742D01*
X24040000Y-67884742D02*
X24325714Y-67884742D01*
X24325714Y-67884742D02*
X24440000Y-67941885D01*
X24440000Y-67941885D02*
X24497142Y-67999028D01*
X24497142Y-67999028D02*
X24554285Y-68113314D01*
X24554285Y-68113314D02*
X24554285Y-68227600D01*
X24554285Y-68227600D02*
X24497142Y-68399028D01*
X24497142Y-68399028D02*
X23811428Y-69084742D01*
X23811428Y-69084742D02*
X24554285Y-69084742D01*
X21582857Y-77084742D02*
X21582857Y-75884742D01*
X22268571Y-77084742D02*
X21754285Y-76399028D01*
X22268571Y-75884742D02*
X21582857Y-76570457D01*
X23411428Y-77084742D02*
X22725714Y-77084742D01*
X23068571Y-77084742D02*
X23068571Y-75884742D01*
X23068571Y-75884742D02*
X22954285Y-76056171D01*
X22954285Y-76056171D02*
X22840000Y-76170457D01*
X22840000Y-76170457D02*
X22725714Y-76227600D01*
X24554285Y-77084742D02*
X23868571Y-77084742D01*
X24211428Y-77084742D02*
X24211428Y-75884742D01*
X24211428Y-75884742D02*
X24097142Y-76056171D01*
X24097142Y-76056171D02*
X23982857Y-76170457D01*
X23982857Y-76170457D02*
X23868571Y-76227600D01*
X21582857Y-85084742D02*
X21582857Y-83884742D01*
X22268571Y-85084742D02*
X21754285Y-84399028D01*
X22268571Y-83884742D02*
X21582857Y-84570457D01*
X23411428Y-85084742D02*
X22725714Y-85084742D01*
X23068571Y-85084742D02*
X23068571Y-83884742D01*
X23068571Y-83884742D02*
X22954285Y-84056171D01*
X22954285Y-84056171D02*
X22840000Y-84170457D01*
X22840000Y-84170457D02*
X22725714Y-84227600D01*
X24154285Y-83884742D02*
X24268571Y-83884742D01*
X24268571Y-83884742D02*
X24382857Y-83941885D01*
X24382857Y-83941885D02*
X24440000Y-83999028D01*
X24440000Y-83999028D02*
X24497142Y-84113314D01*
X24497142Y-84113314D02*
X24554285Y-84341885D01*
X24554285Y-84341885D02*
X24554285Y-84627600D01*
X24554285Y-84627600D02*
X24497142Y-84856171D01*
X24497142Y-84856171D02*
X24440000Y-84970457D01*
X24440000Y-84970457D02*
X24382857Y-85027600D01*
X24382857Y-85027600D02*
X24268571Y-85084742D01*
X24268571Y-85084742D02*
X24154285Y-85084742D01*
X24154285Y-85084742D02*
X24040000Y-85027600D01*
X24040000Y-85027600D02*
X23982857Y-84970457D01*
X23982857Y-84970457D02*
X23925714Y-84856171D01*
X23925714Y-84856171D02*
X23868571Y-84627600D01*
X23868571Y-84627600D02*
X23868571Y-84341885D01*
X23868571Y-84341885D02*
X23925714Y-84113314D01*
X23925714Y-84113314D02*
X23982857Y-83999028D01*
X23982857Y-83999028D02*
X24040000Y-83941885D01*
X24040000Y-83941885D02*
X24154285Y-83884742D01*
X22154286Y-93084742D02*
X22154286Y-91884742D01*
X22840000Y-93084742D02*
X22325714Y-92399028D01*
X22840000Y-91884742D02*
X22154286Y-92570457D01*
X23411429Y-93084742D02*
X23640000Y-93084742D01*
X23640000Y-93084742D02*
X23754286Y-93027600D01*
X23754286Y-93027600D02*
X23811429Y-92970457D01*
X23811429Y-92970457D02*
X23925714Y-92799028D01*
X23925714Y-92799028D02*
X23982857Y-92570457D01*
X23982857Y-92570457D02*
X23982857Y-92113314D01*
X23982857Y-92113314D02*
X23925714Y-91999028D01*
X23925714Y-91999028D02*
X23868572Y-91941885D01*
X23868572Y-91941885D02*
X23754286Y-91884742D01*
X23754286Y-91884742D02*
X23525714Y-91884742D01*
X23525714Y-91884742D02*
X23411429Y-91941885D01*
X23411429Y-91941885D02*
X23354286Y-91999028D01*
X23354286Y-91999028D02*
X23297143Y-92113314D01*
X23297143Y-92113314D02*
X23297143Y-92399028D01*
X23297143Y-92399028D02*
X23354286Y-92513314D01*
X23354286Y-92513314D02*
X23411429Y-92570457D01*
X23411429Y-92570457D02*
X23525714Y-92627600D01*
X23525714Y-92627600D02*
X23754286Y-92627600D01*
X23754286Y-92627600D02*
X23868572Y-92570457D01*
X23868572Y-92570457D02*
X23925714Y-92513314D01*
X23925714Y-92513314D02*
X23982857Y-92399028D01*
X22154286Y-101084742D02*
X22154286Y-99884742D01*
X22840000Y-101084742D02*
X22325714Y-100399028D01*
X22840000Y-99884742D02*
X22154286Y-100570457D01*
X23525714Y-100399028D02*
X23411429Y-100341885D01*
X23411429Y-100341885D02*
X23354286Y-100284742D01*
X23354286Y-100284742D02*
X23297143Y-100170457D01*
X23297143Y-100170457D02*
X23297143Y-100113314D01*
X23297143Y-100113314D02*
X23354286Y-99999028D01*
X23354286Y-99999028D02*
X23411429Y-99941885D01*
X23411429Y-99941885D02*
X23525714Y-99884742D01*
X23525714Y-99884742D02*
X23754286Y-99884742D01*
X23754286Y-99884742D02*
X23868572Y-99941885D01*
X23868572Y-99941885D02*
X23925714Y-99999028D01*
X23925714Y-99999028D02*
X23982857Y-100113314D01*
X23982857Y-100113314D02*
X23982857Y-100170457D01*
X23982857Y-100170457D02*
X23925714Y-100284742D01*
X23925714Y-100284742D02*
X23868572Y-100341885D01*
X23868572Y-100341885D02*
X23754286Y-100399028D01*
X23754286Y-100399028D02*
X23525714Y-100399028D01*
X23525714Y-100399028D02*
X23411429Y-100456171D01*
X23411429Y-100456171D02*
X23354286Y-100513314D01*
X23354286Y-100513314D02*
X23297143Y-100627600D01*
X23297143Y-100627600D02*
X23297143Y-100856171D01*
X23297143Y-100856171D02*
X23354286Y-100970457D01*
X23354286Y-100970457D02*
X23411429Y-101027600D01*
X23411429Y-101027600D02*
X23525714Y-101084742D01*
X23525714Y-101084742D02*
X23754286Y-101084742D01*
X23754286Y-101084742D02*
X23868572Y-101027600D01*
X23868572Y-101027600D02*
X23925714Y-100970457D01*
X23925714Y-100970457D02*
X23982857Y-100856171D01*
X23982857Y-100856171D02*
X23982857Y-100627600D01*
X23982857Y-100627600D02*
X23925714Y-100513314D01*
X23925714Y-100513314D02*
X23868572Y-100456171D01*
X23868572Y-100456171D02*
X23754286Y-100399028D01*
X22154286Y-109084742D02*
X22154286Y-107884742D01*
X22840000Y-109084742D02*
X22325714Y-108399028D01*
X22840000Y-107884742D02*
X22154286Y-108570457D01*
X23868572Y-107884742D02*
X23640000Y-107884742D01*
X23640000Y-107884742D02*
X23525714Y-107941885D01*
X23525714Y-107941885D02*
X23468572Y-107999028D01*
X23468572Y-107999028D02*
X23354286Y-108170457D01*
X23354286Y-108170457D02*
X23297143Y-108399028D01*
X23297143Y-108399028D02*
X23297143Y-108856171D01*
X23297143Y-108856171D02*
X23354286Y-108970457D01*
X23354286Y-108970457D02*
X23411429Y-109027600D01*
X23411429Y-109027600D02*
X23525714Y-109084742D01*
X23525714Y-109084742D02*
X23754286Y-109084742D01*
X23754286Y-109084742D02*
X23868572Y-109027600D01*
X23868572Y-109027600D02*
X23925714Y-108970457D01*
X23925714Y-108970457D02*
X23982857Y-108856171D01*
X23982857Y-108856171D02*
X23982857Y-108570457D01*
X23982857Y-108570457D02*
X23925714Y-108456171D01*
X23925714Y-108456171D02*
X23868572Y-108399028D01*
X23868572Y-108399028D02*
X23754286Y-108341885D01*
X23754286Y-108341885D02*
X23525714Y-108341885D01*
X23525714Y-108341885D02*
X23411429Y-108399028D01*
X23411429Y-108399028D02*
X23354286Y-108456171D01*
X23354286Y-108456171D02*
X23297143Y-108570457D01*
X22154286Y-117084742D02*
X22154286Y-115884742D01*
X22840000Y-117084742D02*
X22325714Y-116399028D01*
X22840000Y-115884742D02*
X22154286Y-116570457D01*
X23240000Y-115884742D02*
X24040000Y-115884742D01*
X24040000Y-115884742D02*
X23525714Y-117084742D01*
X68312857Y-25084742D02*
X68312857Y-23884742D01*
X68998571Y-25084742D02*
X68484285Y-24399028D01*
X68998571Y-23884742D02*
X68312857Y-24570457D01*
X70141428Y-25084742D02*
X69455714Y-25084742D01*
X69798571Y-25084742D02*
X69798571Y-23884742D01*
X69798571Y-23884742D02*
X69684285Y-24056171D01*
X69684285Y-24056171D02*
X69570000Y-24170457D01*
X69570000Y-24170457D02*
X69455714Y-24227600D01*
X70827142Y-24399028D02*
X70712857Y-24341885D01*
X70712857Y-24341885D02*
X70655714Y-24284742D01*
X70655714Y-24284742D02*
X70598571Y-24170457D01*
X70598571Y-24170457D02*
X70598571Y-24113314D01*
X70598571Y-24113314D02*
X70655714Y-23999028D01*
X70655714Y-23999028D02*
X70712857Y-23941885D01*
X70712857Y-23941885D02*
X70827142Y-23884742D01*
X70827142Y-23884742D02*
X71055714Y-23884742D01*
X71055714Y-23884742D02*
X71170000Y-23941885D01*
X71170000Y-23941885D02*
X71227142Y-23999028D01*
X71227142Y-23999028D02*
X71284285Y-24113314D01*
X71284285Y-24113314D02*
X71284285Y-24170457D01*
X71284285Y-24170457D02*
X71227142Y-24284742D01*
X71227142Y-24284742D02*
X71170000Y-24341885D01*
X71170000Y-24341885D02*
X71055714Y-24399028D01*
X71055714Y-24399028D02*
X70827142Y-24399028D01*
X70827142Y-24399028D02*
X70712857Y-24456171D01*
X70712857Y-24456171D02*
X70655714Y-24513314D01*
X70655714Y-24513314D02*
X70598571Y-24627600D01*
X70598571Y-24627600D02*
X70598571Y-24856171D01*
X70598571Y-24856171D02*
X70655714Y-24970457D01*
X70655714Y-24970457D02*
X70712857Y-25027600D01*
X70712857Y-25027600D02*
X70827142Y-25084742D01*
X70827142Y-25084742D02*
X71055714Y-25084742D01*
X71055714Y-25084742D02*
X71170000Y-25027600D01*
X71170000Y-25027600D02*
X71227142Y-24970457D01*
X71227142Y-24970457D02*
X71284285Y-24856171D01*
X71284285Y-24856171D02*
X71284285Y-24627600D01*
X71284285Y-24627600D02*
X71227142Y-24513314D01*
X71227142Y-24513314D02*
X71170000Y-24456171D01*
X71170000Y-24456171D02*
X71055714Y-24399028D01*
X68312857Y-33084742D02*
X68312857Y-31884742D01*
X68998571Y-33084742D02*
X68484285Y-32399028D01*
X68998571Y-31884742D02*
X68312857Y-32570457D01*
X70141428Y-33084742D02*
X69455714Y-33084742D01*
X69798571Y-33084742D02*
X69798571Y-31884742D01*
X69798571Y-31884742D02*
X69684285Y-32056171D01*
X69684285Y-32056171D02*
X69570000Y-32170457D01*
X69570000Y-32170457D02*
X69455714Y-32227600D01*
X70712857Y-33084742D02*
X70941428Y-33084742D01*
X70941428Y-33084742D02*
X71055714Y-33027600D01*
X71055714Y-33027600D02*
X71112857Y-32970457D01*
X71112857Y-32970457D02*
X71227142Y-32799028D01*
X71227142Y-32799028D02*
X71284285Y-32570457D01*
X71284285Y-32570457D02*
X71284285Y-32113314D01*
X71284285Y-32113314D02*
X71227142Y-31999028D01*
X71227142Y-31999028D02*
X71170000Y-31941885D01*
X71170000Y-31941885D02*
X71055714Y-31884742D01*
X71055714Y-31884742D02*
X70827142Y-31884742D01*
X70827142Y-31884742D02*
X70712857Y-31941885D01*
X70712857Y-31941885D02*
X70655714Y-31999028D01*
X70655714Y-31999028D02*
X70598571Y-32113314D01*
X70598571Y-32113314D02*
X70598571Y-32399028D01*
X70598571Y-32399028D02*
X70655714Y-32513314D01*
X70655714Y-32513314D02*
X70712857Y-32570457D01*
X70712857Y-32570457D02*
X70827142Y-32627600D01*
X70827142Y-32627600D02*
X71055714Y-32627600D01*
X71055714Y-32627600D02*
X71170000Y-32570457D01*
X71170000Y-32570457D02*
X71227142Y-32513314D01*
X71227142Y-32513314D02*
X71284285Y-32399028D01*
X68312857Y-41084742D02*
X68312857Y-39884742D01*
X68998571Y-41084742D02*
X68484285Y-40399028D01*
X68998571Y-39884742D02*
X68312857Y-40570457D01*
X69455714Y-39999028D02*
X69512857Y-39941885D01*
X69512857Y-39941885D02*
X69627143Y-39884742D01*
X69627143Y-39884742D02*
X69912857Y-39884742D01*
X69912857Y-39884742D02*
X70027143Y-39941885D01*
X70027143Y-39941885D02*
X70084285Y-39999028D01*
X70084285Y-39999028D02*
X70141428Y-40113314D01*
X70141428Y-40113314D02*
X70141428Y-40227600D01*
X70141428Y-40227600D02*
X70084285Y-40399028D01*
X70084285Y-40399028D02*
X69398571Y-41084742D01*
X69398571Y-41084742D02*
X70141428Y-41084742D01*
X70884285Y-39884742D02*
X70998571Y-39884742D01*
X70998571Y-39884742D02*
X71112857Y-39941885D01*
X71112857Y-39941885D02*
X71170000Y-39999028D01*
X71170000Y-39999028D02*
X71227142Y-40113314D01*
X71227142Y-40113314D02*
X71284285Y-40341885D01*
X71284285Y-40341885D02*
X71284285Y-40627600D01*
X71284285Y-40627600D02*
X71227142Y-40856171D01*
X71227142Y-40856171D02*
X71170000Y-40970457D01*
X71170000Y-40970457D02*
X71112857Y-41027600D01*
X71112857Y-41027600D02*
X70998571Y-41084742D01*
X70998571Y-41084742D02*
X70884285Y-41084742D01*
X70884285Y-41084742D02*
X70770000Y-41027600D01*
X70770000Y-41027600D02*
X70712857Y-40970457D01*
X70712857Y-40970457D02*
X70655714Y-40856171D01*
X70655714Y-40856171D02*
X70598571Y-40627600D01*
X70598571Y-40627600D02*
X70598571Y-40341885D01*
X70598571Y-40341885D02*
X70655714Y-40113314D01*
X70655714Y-40113314D02*
X70712857Y-39999028D01*
X70712857Y-39999028D02*
X70770000Y-39941885D01*
X70770000Y-39941885D02*
X70884285Y-39884742D01*
X68312857Y-49084742D02*
X68312857Y-47884742D01*
X68998571Y-49084742D02*
X68484285Y-48399028D01*
X68998571Y-47884742D02*
X68312857Y-48570457D01*
X69455714Y-47999028D02*
X69512857Y-47941885D01*
X69512857Y-47941885D02*
X69627143Y-47884742D01*
X69627143Y-47884742D02*
X69912857Y-47884742D01*
X69912857Y-47884742D02*
X70027143Y-47941885D01*
X70027143Y-47941885D02*
X70084285Y-47999028D01*
X70084285Y-47999028D02*
X70141428Y-48113314D01*
X70141428Y-48113314D02*
X70141428Y-48227600D01*
X70141428Y-48227600D02*
X70084285Y-48399028D01*
X70084285Y-48399028D02*
X69398571Y-49084742D01*
X69398571Y-49084742D02*
X70141428Y-49084742D01*
X71284285Y-49084742D02*
X70598571Y-49084742D01*
X70941428Y-49084742D02*
X70941428Y-47884742D01*
X70941428Y-47884742D02*
X70827142Y-48056171D01*
X70827142Y-48056171D02*
X70712857Y-48170457D01*
X70712857Y-48170457D02*
X70598571Y-48227600D01*
X68312857Y-57084742D02*
X68312857Y-55884742D01*
X68998571Y-57084742D02*
X68484285Y-56399028D01*
X68998571Y-55884742D02*
X68312857Y-56570457D01*
X69455714Y-55999028D02*
X69512857Y-55941885D01*
X69512857Y-55941885D02*
X69627143Y-55884742D01*
X69627143Y-55884742D02*
X69912857Y-55884742D01*
X69912857Y-55884742D02*
X70027143Y-55941885D01*
X70027143Y-55941885D02*
X70084285Y-55999028D01*
X70084285Y-55999028D02*
X70141428Y-56113314D01*
X70141428Y-56113314D02*
X70141428Y-56227600D01*
X70141428Y-56227600D02*
X70084285Y-56399028D01*
X70084285Y-56399028D02*
X69398571Y-57084742D01*
X69398571Y-57084742D02*
X70141428Y-57084742D01*
X70598571Y-55999028D02*
X70655714Y-55941885D01*
X70655714Y-55941885D02*
X70770000Y-55884742D01*
X70770000Y-55884742D02*
X71055714Y-55884742D01*
X71055714Y-55884742D02*
X71170000Y-55941885D01*
X71170000Y-55941885D02*
X71227142Y-55999028D01*
X71227142Y-55999028D02*
X71284285Y-56113314D01*
X71284285Y-56113314D02*
X71284285Y-56227600D01*
X71284285Y-56227600D02*
X71227142Y-56399028D01*
X71227142Y-56399028D02*
X70541428Y-57084742D01*
X70541428Y-57084742D02*
X71284285Y-57084742D01*
X68312857Y-65084742D02*
X68312857Y-63884742D01*
X68998571Y-65084742D02*
X68484285Y-64399028D01*
X68998571Y-63884742D02*
X68312857Y-64570457D01*
X69455714Y-63999028D02*
X69512857Y-63941885D01*
X69512857Y-63941885D02*
X69627143Y-63884742D01*
X69627143Y-63884742D02*
X69912857Y-63884742D01*
X69912857Y-63884742D02*
X70027143Y-63941885D01*
X70027143Y-63941885D02*
X70084285Y-63999028D01*
X70084285Y-63999028D02*
X70141428Y-64113314D01*
X70141428Y-64113314D02*
X70141428Y-64227600D01*
X70141428Y-64227600D02*
X70084285Y-64399028D01*
X70084285Y-64399028D02*
X69398571Y-65084742D01*
X69398571Y-65084742D02*
X70141428Y-65084742D01*
X70541428Y-63884742D02*
X71284285Y-63884742D01*
X71284285Y-63884742D02*
X70884285Y-64341885D01*
X70884285Y-64341885D02*
X71055714Y-64341885D01*
X71055714Y-64341885D02*
X71170000Y-64399028D01*
X71170000Y-64399028D02*
X71227142Y-64456171D01*
X71227142Y-64456171D02*
X71284285Y-64570457D01*
X71284285Y-64570457D02*
X71284285Y-64856171D01*
X71284285Y-64856171D02*
X71227142Y-64970457D01*
X71227142Y-64970457D02*
X71170000Y-65027600D01*
X71170000Y-65027600D02*
X71055714Y-65084742D01*
X71055714Y-65084742D02*
X70712857Y-65084742D01*
X70712857Y-65084742D02*
X70598571Y-65027600D01*
X70598571Y-65027600D02*
X70541428Y-64970457D01*
X69255714Y-73084742D02*
X69255714Y-71884742D01*
X69655714Y-71884742D02*
X70055714Y-73084742D01*
X70055714Y-73084742D02*
X70455714Y-71884742D01*
X68884286Y-81084742D02*
X68884286Y-79884742D01*
X69570000Y-81084742D02*
X69055714Y-80399028D01*
X69570000Y-79884742D02*
X68884286Y-80570457D01*
X70312857Y-79884742D02*
X70427143Y-79884742D01*
X70427143Y-79884742D02*
X70541429Y-79941885D01*
X70541429Y-79941885D02*
X70598572Y-79999028D01*
X70598572Y-79999028D02*
X70655714Y-80113314D01*
X70655714Y-80113314D02*
X70712857Y-80341885D01*
X70712857Y-80341885D02*
X70712857Y-80627600D01*
X70712857Y-80627600D02*
X70655714Y-80856171D01*
X70655714Y-80856171D02*
X70598572Y-80970457D01*
X70598572Y-80970457D02*
X70541429Y-81027600D01*
X70541429Y-81027600D02*
X70427143Y-81084742D01*
X70427143Y-81084742D02*
X70312857Y-81084742D01*
X70312857Y-81084742D02*
X70198572Y-81027600D01*
X70198572Y-81027600D02*
X70141429Y-80970457D01*
X70141429Y-80970457D02*
X70084286Y-80856171D01*
X70084286Y-80856171D02*
X70027143Y-80627600D01*
X70027143Y-80627600D02*
X70027143Y-80341885D01*
X70027143Y-80341885D02*
X70084286Y-80113314D01*
X70084286Y-80113314D02*
X70141429Y-79999028D01*
X70141429Y-79999028D02*
X70198572Y-79941885D01*
X70198572Y-79941885D02*
X70312857Y-79884742D01*
X68884286Y-89084742D02*
X68884286Y-87884742D01*
X69570000Y-89084742D02*
X69055714Y-88399028D01*
X69570000Y-87884742D02*
X68884286Y-88570457D01*
X70712857Y-89084742D02*
X70027143Y-89084742D01*
X70370000Y-89084742D02*
X70370000Y-87884742D01*
X70370000Y-87884742D02*
X70255714Y-88056171D01*
X70255714Y-88056171D02*
X70141429Y-88170457D01*
X70141429Y-88170457D02*
X70027143Y-88227600D01*
X68884286Y-97084742D02*
X68884286Y-95884742D01*
X69570000Y-97084742D02*
X69055714Y-96399028D01*
X69570000Y-95884742D02*
X68884286Y-96570457D01*
X70027143Y-95999028D02*
X70084286Y-95941885D01*
X70084286Y-95941885D02*
X70198572Y-95884742D01*
X70198572Y-95884742D02*
X70484286Y-95884742D01*
X70484286Y-95884742D02*
X70598572Y-95941885D01*
X70598572Y-95941885D02*
X70655714Y-95999028D01*
X70655714Y-95999028D02*
X70712857Y-96113314D01*
X70712857Y-96113314D02*
X70712857Y-96227600D01*
X70712857Y-96227600D02*
X70655714Y-96399028D01*
X70655714Y-96399028D02*
X69970000Y-97084742D01*
X69970000Y-97084742D02*
X70712857Y-97084742D01*
X68884286Y-105084742D02*
X68884286Y-103884742D01*
X69570000Y-105084742D02*
X69055714Y-104399028D01*
X69570000Y-103884742D02*
X68884286Y-104570457D01*
X69970000Y-103884742D02*
X70712857Y-103884742D01*
X70712857Y-103884742D02*
X70312857Y-104341885D01*
X70312857Y-104341885D02*
X70484286Y-104341885D01*
X70484286Y-104341885D02*
X70598572Y-104399028D01*
X70598572Y-104399028D02*
X70655714Y-104456171D01*
X70655714Y-104456171D02*
X70712857Y-104570457D01*
X70712857Y-104570457D02*
X70712857Y-104856171D01*
X70712857Y-104856171D02*
X70655714Y-104970457D01*
X70655714Y-104970457D02*
X70598572Y-105027600D01*
X70598572Y-105027600D02*
X70484286Y-105084742D01*
X70484286Y-105084742D02*
X70141429Y-105084742D01*
X70141429Y-105084742D02*
X70027143Y-105027600D01*
X70027143Y-105027600D02*
X69970000Y-104970457D01*
X68884286Y-113084742D02*
X68884286Y-111884742D01*
X69570000Y-113084742D02*
X69055714Y-112399028D01*
X69570000Y-111884742D02*
X68884286Y-112570457D01*
X70598572Y-112284742D02*
X70598572Y-113084742D01*
X70312857Y-111827600D02*
X70027143Y-112684742D01*
X70027143Y-112684742D02*
X70770000Y-112684742D01*
X68884286Y-121084742D02*
X68884286Y-119884742D01*
X69570000Y-121084742D02*
X69055714Y-120399028D01*
X69570000Y-119884742D02*
X68884286Y-120570457D01*
X70655714Y-119884742D02*
X70084286Y-119884742D01*
X70084286Y-119884742D02*
X70027143Y-120456171D01*
X70027143Y-120456171D02*
X70084286Y-120399028D01*
X70084286Y-120399028D02*
X70198572Y-120341885D01*
X70198572Y-120341885D02*
X70484286Y-120341885D01*
X70484286Y-120341885D02*
X70598572Y-120399028D01*
X70598572Y-120399028D02*
X70655714Y-120456171D01*
X70655714Y-120456171D02*
X70712857Y-120570457D01*
X70712857Y-120570457D02*
X70712857Y-120856171D01*
X70712857Y-120856171D02*
X70655714Y-120970457D01*
X70655714Y-120970457D02*
X70598572Y-121027600D01*
X70598572Y-121027600D02*
X70484286Y-121084742D01*
X70484286Y-121084742D02*
X70198572Y-121084742D01*
X70198572Y-121084742D02*
X70084286Y-121027600D01*
X70084286Y-121027600D02*
X70027143Y-120970457D01*
D11*
X16730476Y-112394819D02*
X16730476Y-113109104D01*
X16730476Y-113109104D02*
X16682857Y-113251961D01*
X16682857Y-113251961D02*
X16587619Y-113347200D01*
X16587619Y-113347200D02*
X16444762Y-113394819D01*
X16444762Y-113394819D02*
X16349524Y-113394819D01*
X17730476Y-113394819D02*
X17159048Y-113394819D01*
X17444762Y-113394819D02*
X17444762Y-112394819D01*
X17444762Y-112394819D02*
X17349524Y-112537676D01*
X17349524Y-112537676D02*
X17254286Y-112632914D01*
X17254286Y-112632914D02*
X17159048Y-112680533D01*
X18111429Y-112490057D02*
X18159048Y-112442438D01*
X18159048Y-112442438D02*
X18254286Y-112394819D01*
X18254286Y-112394819D02*
X18492381Y-112394819D01*
X18492381Y-112394819D02*
X18587619Y-112442438D01*
X18587619Y-112442438D02*
X18635238Y-112490057D01*
X18635238Y-112490057D02*
X18682857Y-112585295D01*
X18682857Y-112585295D02*
X18682857Y-112680533D01*
X18682857Y-112680533D02*
X18635238Y-112823390D01*
X18635238Y-112823390D02*
X18063810Y-113394819D01*
X18063810Y-113394819D02*
X18682857Y-113394819D01*
X74460476Y-59594819D02*
X74460476Y-60309104D01*
X74460476Y-60309104D02*
X74412857Y-60451961D01*
X74412857Y-60451961D02*
X74317619Y-60547200D01*
X74317619Y-60547200D02*
X74174762Y-60594819D01*
X74174762Y-60594819D02*
X74079524Y-60594819D01*
X74889048Y-59690057D02*
X74936667Y-59642438D01*
X74936667Y-59642438D02*
X75031905Y-59594819D01*
X75031905Y-59594819D02*
X75270000Y-59594819D01*
X75270000Y-59594819D02*
X75365238Y-59642438D01*
X75365238Y-59642438D02*
X75412857Y-59690057D01*
X75412857Y-59690057D02*
X75460476Y-59785295D01*
X75460476Y-59785295D02*
X75460476Y-59880533D01*
X75460476Y-59880533D02*
X75412857Y-60023390D01*
X75412857Y-60023390D02*
X74841429Y-60594819D01*
X74841429Y-60594819D02*
X75460476Y-60594819D01*
X75936667Y-60594819D02*
X76127143Y-60594819D01*
X76127143Y-60594819D02*
X76222381Y-60547200D01*
X76222381Y-60547200D02*
X76270000Y-60499580D01*
X76270000Y-60499580D02*
X76365238Y-60356723D01*
X76365238Y-60356723D02*
X76412857Y-60166247D01*
X76412857Y-60166247D02*
X76412857Y-59785295D01*
X76412857Y-59785295D02*
X76365238Y-59690057D01*
X76365238Y-59690057D02*
X76317619Y-59642438D01*
X76317619Y-59642438D02*
X76222381Y-59594819D01*
X76222381Y-59594819D02*
X76031905Y-59594819D01*
X76031905Y-59594819D02*
X75936667Y-59642438D01*
X75936667Y-59642438D02*
X75889048Y-59690057D01*
X75889048Y-59690057D02*
X75841429Y-59785295D01*
X75841429Y-59785295D02*
X75841429Y-60023390D01*
X75841429Y-60023390D02*
X75889048Y-60118628D01*
X75889048Y-60118628D02*
X75936667Y-60166247D01*
X75936667Y-60166247D02*
X76031905Y-60213866D01*
X76031905Y-60213866D02*
X76222381Y-60213866D01*
X76222381Y-60213866D02*
X76317619Y-60166247D01*
X76317619Y-60166247D02*
X76365238Y-60118628D01*
X76365238Y-60118628D02*
X76412857Y-60023390D01*
X74936666Y-91594819D02*
X74936666Y-92309104D01*
X74936666Y-92309104D02*
X74889047Y-92451961D01*
X74889047Y-92451961D02*
X74793809Y-92547200D01*
X74793809Y-92547200D02*
X74650952Y-92594819D01*
X74650952Y-92594819D02*
X74555714Y-92594819D01*
X75555714Y-92023390D02*
X75460476Y-91975771D01*
X75460476Y-91975771D02*
X75412857Y-91928152D01*
X75412857Y-91928152D02*
X75365238Y-91832914D01*
X75365238Y-91832914D02*
X75365238Y-91785295D01*
X75365238Y-91785295D02*
X75412857Y-91690057D01*
X75412857Y-91690057D02*
X75460476Y-91642438D01*
X75460476Y-91642438D02*
X75555714Y-91594819D01*
X75555714Y-91594819D02*
X75746190Y-91594819D01*
X75746190Y-91594819D02*
X75841428Y-91642438D01*
X75841428Y-91642438D02*
X75889047Y-91690057D01*
X75889047Y-91690057D02*
X75936666Y-91785295D01*
X75936666Y-91785295D02*
X75936666Y-91832914D01*
X75936666Y-91832914D02*
X75889047Y-91928152D01*
X75889047Y-91928152D02*
X75841428Y-91975771D01*
X75841428Y-91975771D02*
X75746190Y-92023390D01*
X75746190Y-92023390D02*
X75555714Y-92023390D01*
X75555714Y-92023390D02*
X75460476Y-92071009D01*
X75460476Y-92071009D02*
X75412857Y-92118628D01*
X75412857Y-92118628D02*
X75365238Y-92213866D01*
X75365238Y-92213866D02*
X75365238Y-92404342D01*
X75365238Y-92404342D02*
X75412857Y-92499580D01*
X75412857Y-92499580D02*
X75460476Y-92547200D01*
X75460476Y-92547200D02*
X75555714Y-92594819D01*
X75555714Y-92594819D02*
X75746190Y-92594819D01*
X75746190Y-92594819D02*
X75841428Y-92547200D01*
X75841428Y-92547200D02*
X75889047Y-92499580D01*
X75889047Y-92499580D02*
X75936666Y-92404342D01*
X75936666Y-92404342D02*
X75936666Y-92213866D01*
X75936666Y-92213866D02*
X75889047Y-92118628D01*
X75889047Y-92118628D02*
X75841428Y-92071009D01*
X75841428Y-92071009D02*
X75746190Y-92023390D01*
X16730476Y-64394819D02*
X16730476Y-65109104D01*
X16730476Y-65109104D02*
X16682857Y-65251961D01*
X16682857Y-65251961D02*
X16587619Y-65347200D01*
X16587619Y-65347200D02*
X16444762Y-65394819D01*
X16444762Y-65394819D02*
X16349524Y-65394819D01*
X17730476Y-65394819D02*
X17159048Y-65394819D01*
X17444762Y-65394819D02*
X17444762Y-64394819D01*
X17444762Y-64394819D02*
X17349524Y-64537676D01*
X17349524Y-64537676D02*
X17254286Y-64632914D01*
X17254286Y-64632914D02*
X17159048Y-64680533D01*
X18206667Y-65394819D02*
X18397143Y-65394819D01*
X18397143Y-65394819D02*
X18492381Y-65347200D01*
X18492381Y-65347200D02*
X18540000Y-65299580D01*
X18540000Y-65299580D02*
X18635238Y-65156723D01*
X18635238Y-65156723D02*
X18682857Y-64966247D01*
X18682857Y-64966247D02*
X18682857Y-64585295D01*
X18682857Y-64585295D02*
X18635238Y-64490057D01*
X18635238Y-64490057D02*
X18587619Y-64442438D01*
X18587619Y-64442438D02*
X18492381Y-64394819D01*
X18492381Y-64394819D02*
X18301905Y-64394819D01*
X18301905Y-64394819D02*
X18206667Y-64442438D01*
X18206667Y-64442438D02*
X18159048Y-64490057D01*
X18159048Y-64490057D02*
X18111429Y-64585295D01*
X18111429Y-64585295D02*
X18111429Y-64823390D01*
X18111429Y-64823390D02*
X18159048Y-64918628D01*
X18159048Y-64918628D02*
X18206667Y-64966247D01*
X18206667Y-64966247D02*
X18301905Y-65013866D01*
X18301905Y-65013866D02*
X18492381Y-65013866D01*
X18492381Y-65013866D02*
X18587619Y-64966247D01*
X18587619Y-64966247D02*
X18635238Y-64918628D01*
X18635238Y-64918628D02*
X18682857Y-64823390D01*
X16730476Y-32394819D02*
X16730476Y-33109104D01*
X16730476Y-33109104D02*
X16682857Y-33251961D01*
X16682857Y-33251961D02*
X16587619Y-33347200D01*
X16587619Y-33347200D02*
X16444762Y-33394819D01*
X16444762Y-33394819D02*
X16349524Y-33394819D01*
X17159048Y-32490057D02*
X17206667Y-32442438D01*
X17206667Y-32442438D02*
X17301905Y-32394819D01*
X17301905Y-32394819D02*
X17540000Y-32394819D01*
X17540000Y-32394819D02*
X17635238Y-32442438D01*
X17635238Y-32442438D02*
X17682857Y-32490057D01*
X17682857Y-32490057D02*
X17730476Y-32585295D01*
X17730476Y-32585295D02*
X17730476Y-32680533D01*
X17730476Y-32680533D02*
X17682857Y-32823390D01*
X17682857Y-32823390D02*
X17111429Y-33394819D01*
X17111429Y-33394819D02*
X17730476Y-33394819D01*
X18111429Y-32490057D02*
X18159048Y-32442438D01*
X18159048Y-32442438D02*
X18254286Y-32394819D01*
X18254286Y-32394819D02*
X18492381Y-32394819D01*
X18492381Y-32394819D02*
X18587619Y-32442438D01*
X18587619Y-32442438D02*
X18635238Y-32490057D01*
X18635238Y-32490057D02*
X18682857Y-32585295D01*
X18682857Y-32585295D02*
X18682857Y-32680533D01*
X18682857Y-32680533D02*
X18635238Y-32823390D01*
X18635238Y-32823390D02*
X18063810Y-33394819D01*
X18063810Y-33394819D02*
X18682857Y-33394819D01*
X16730476Y-40394819D02*
X16730476Y-41109104D01*
X16730476Y-41109104D02*
X16682857Y-41251961D01*
X16682857Y-41251961D02*
X16587619Y-41347200D01*
X16587619Y-41347200D02*
X16444762Y-41394819D01*
X16444762Y-41394819D02*
X16349524Y-41394819D01*
X17159048Y-40490057D02*
X17206667Y-40442438D01*
X17206667Y-40442438D02*
X17301905Y-40394819D01*
X17301905Y-40394819D02*
X17540000Y-40394819D01*
X17540000Y-40394819D02*
X17635238Y-40442438D01*
X17635238Y-40442438D02*
X17682857Y-40490057D01*
X17682857Y-40490057D02*
X17730476Y-40585295D01*
X17730476Y-40585295D02*
X17730476Y-40680533D01*
X17730476Y-40680533D02*
X17682857Y-40823390D01*
X17682857Y-40823390D02*
X17111429Y-41394819D01*
X17111429Y-41394819D02*
X17730476Y-41394819D01*
X18063810Y-40394819D02*
X18682857Y-40394819D01*
X18682857Y-40394819D02*
X18349524Y-40775771D01*
X18349524Y-40775771D02*
X18492381Y-40775771D01*
X18492381Y-40775771D02*
X18587619Y-40823390D01*
X18587619Y-40823390D02*
X18635238Y-40871009D01*
X18635238Y-40871009D02*
X18682857Y-40966247D01*
X18682857Y-40966247D02*
X18682857Y-41204342D01*
X18682857Y-41204342D02*
X18635238Y-41299580D01*
X18635238Y-41299580D02*
X18587619Y-41347200D01*
X18587619Y-41347200D02*
X18492381Y-41394819D01*
X18492381Y-41394819D02*
X18206667Y-41394819D01*
X18206667Y-41394819D02*
X18111429Y-41347200D01*
X18111429Y-41347200D02*
X18063810Y-41299580D01*
X16730476Y-88394819D02*
X16730476Y-89109104D01*
X16730476Y-89109104D02*
X16682857Y-89251961D01*
X16682857Y-89251961D02*
X16587619Y-89347200D01*
X16587619Y-89347200D02*
X16444762Y-89394819D01*
X16444762Y-89394819D02*
X16349524Y-89394819D01*
X17730476Y-89394819D02*
X17159048Y-89394819D01*
X17444762Y-89394819D02*
X17444762Y-88394819D01*
X17444762Y-88394819D02*
X17349524Y-88537676D01*
X17349524Y-88537676D02*
X17254286Y-88632914D01*
X17254286Y-88632914D02*
X17159048Y-88680533D01*
X18587619Y-88394819D02*
X18397143Y-88394819D01*
X18397143Y-88394819D02*
X18301905Y-88442438D01*
X18301905Y-88442438D02*
X18254286Y-88490057D01*
X18254286Y-88490057D02*
X18159048Y-88632914D01*
X18159048Y-88632914D02*
X18111429Y-88823390D01*
X18111429Y-88823390D02*
X18111429Y-89204342D01*
X18111429Y-89204342D02*
X18159048Y-89299580D01*
X18159048Y-89299580D02*
X18206667Y-89347200D01*
X18206667Y-89347200D02*
X18301905Y-89394819D01*
X18301905Y-89394819D02*
X18492381Y-89394819D01*
X18492381Y-89394819D02*
X18587619Y-89347200D01*
X18587619Y-89347200D02*
X18635238Y-89299580D01*
X18635238Y-89299580D02*
X18682857Y-89204342D01*
X18682857Y-89204342D02*
X18682857Y-88966247D01*
X18682857Y-88966247D02*
X18635238Y-88871009D01*
X18635238Y-88871009D02*
X18587619Y-88823390D01*
X18587619Y-88823390D02*
X18492381Y-88775771D01*
X18492381Y-88775771D02*
X18301905Y-88775771D01*
X18301905Y-88775771D02*
X18206667Y-88823390D01*
X18206667Y-88823390D02*
X18159048Y-88871009D01*
X18159048Y-88871009D02*
X18111429Y-88966247D01*
X74936666Y-99594819D02*
X74936666Y-100309104D01*
X74936666Y-100309104D02*
X74889047Y-100451961D01*
X74889047Y-100451961D02*
X74793809Y-100547200D01*
X74793809Y-100547200D02*
X74650952Y-100594819D01*
X74650952Y-100594819D02*
X74555714Y-100594819D01*
X75460476Y-100594819D02*
X75650952Y-100594819D01*
X75650952Y-100594819D02*
X75746190Y-100547200D01*
X75746190Y-100547200D02*
X75793809Y-100499580D01*
X75793809Y-100499580D02*
X75889047Y-100356723D01*
X75889047Y-100356723D02*
X75936666Y-100166247D01*
X75936666Y-100166247D02*
X75936666Y-99785295D01*
X75936666Y-99785295D02*
X75889047Y-99690057D01*
X75889047Y-99690057D02*
X75841428Y-99642438D01*
X75841428Y-99642438D02*
X75746190Y-99594819D01*
X75746190Y-99594819D02*
X75555714Y-99594819D01*
X75555714Y-99594819D02*
X75460476Y-99642438D01*
X75460476Y-99642438D02*
X75412857Y-99690057D01*
X75412857Y-99690057D02*
X75365238Y-99785295D01*
X75365238Y-99785295D02*
X75365238Y-100023390D01*
X75365238Y-100023390D02*
X75412857Y-100118628D01*
X75412857Y-100118628D02*
X75460476Y-100166247D01*
X75460476Y-100166247D02*
X75555714Y-100213866D01*
X75555714Y-100213866D02*
X75746190Y-100213866D01*
X75746190Y-100213866D02*
X75841428Y-100166247D01*
X75841428Y-100166247D02*
X75889047Y-100118628D01*
X75889047Y-100118628D02*
X75936666Y-100023390D01*
X16730476Y-104394819D02*
X16730476Y-105109104D01*
X16730476Y-105109104D02*
X16682857Y-105251961D01*
X16682857Y-105251961D02*
X16587619Y-105347200D01*
X16587619Y-105347200D02*
X16444762Y-105394819D01*
X16444762Y-105394819D02*
X16349524Y-105394819D01*
X17730476Y-105394819D02*
X17159048Y-105394819D01*
X17444762Y-105394819D02*
X17444762Y-104394819D01*
X17444762Y-104394819D02*
X17349524Y-104537676D01*
X17349524Y-104537676D02*
X17254286Y-104632914D01*
X17254286Y-104632914D02*
X17159048Y-104680533D01*
X18587619Y-104728152D02*
X18587619Y-105394819D01*
X18349524Y-104347200D02*
X18111429Y-105061485D01*
X18111429Y-105061485D02*
X18730476Y-105061485D01*
X16730476Y-72394819D02*
X16730476Y-73109104D01*
X16730476Y-73109104D02*
X16682857Y-73251961D01*
X16682857Y-73251961D02*
X16587619Y-73347200D01*
X16587619Y-73347200D02*
X16444762Y-73394819D01*
X16444762Y-73394819D02*
X16349524Y-73394819D01*
X17730476Y-73394819D02*
X17159048Y-73394819D01*
X17444762Y-73394819D02*
X17444762Y-72394819D01*
X17444762Y-72394819D02*
X17349524Y-72537676D01*
X17349524Y-72537676D02*
X17254286Y-72632914D01*
X17254286Y-72632914D02*
X17159048Y-72680533D01*
X18301905Y-72823390D02*
X18206667Y-72775771D01*
X18206667Y-72775771D02*
X18159048Y-72728152D01*
X18159048Y-72728152D02*
X18111429Y-72632914D01*
X18111429Y-72632914D02*
X18111429Y-72585295D01*
X18111429Y-72585295D02*
X18159048Y-72490057D01*
X18159048Y-72490057D02*
X18206667Y-72442438D01*
X18206667Y-72442438D02*
X18301905Y-72394819D01*
X18301905Y-72394819D02*
X18492381Y-72394819D01*
X18492381Y-72394819D02*
X18587619Y-72442438D01*
X18587619Y-72442438D02*
X18635238Y-72490057D01*
X18635238Y-72490057D02*
X18682857Y-72585295D01*
X18682857Y-72585295D02*
X18682857Y-72632914D01*
X18682857Y-72632914D02*
X18635238Y-72728152D01*
X18635238Y-72728152D02*
X18587619Y-72775771D01*
X18587619Y-72775771D02*
X18492381Y-72823390D01*
X18492381Y-72823390D02*
X18301905Y-72823390D01*
X18301905Y-72823390D02*
X18206667Y-72871009D01*
X18206667Y-72871009D02*
X18159048Y-72918628D01*
X18159048Y-72918628D02*
X18111429Y-73013866D01*
X18111429Y-73013866D02*
X18111429Y-73204342D01*
X18111429Y-73204342D02*
X18159048Y-73299580D01*
X18159048Y-73299580D02*
X18206667Y-73347200D01*
X18206667Y-73347200D02*
X18301905Y-73394819D01*
X18301905Y-73394819D02*
X18492381Y-73394819D01*
X18492381Y-73394819D02*
X18587619Y-73347200D01*
X18587619Y-73347200D02*
X18635238Y-73299580D01*
X18635238Y-73299580D02*
X18682857Y-73204342D01*
X18682857Y-73204342D02*
X18682857Y-73013866D01*
X18682857Y-73013866D02*
X18635238Y-72918628D01*
X18635238Y-72918628D02*
X18587619Y-72871009D01*
X18587619Y-72871009D02*
X18492381Y-72823390D01*
X74460476Y-35594819D02*
X74460476Y-36309104D01*
X74460476Y-36309104D02*
X74412857Y-36451961D01*
X74412857Y-36451961D02*
X74317619Y-36547200D01*
X74317619Y-36547200D02*
X74174762Y-36594819D01*
X74174762Y-36594819D02*
X74079524Y-36594819D01*
X74889048Y-35690057D02*
X74936667Y-35642438D01*
X74936667Y-35642438D02*
X75031905Y-35594819D01*
X75031905Y-35594819D02*
X75270000Y-35594819D01*
X75270000Y-35594819D02*
X75365238Y-35642438D01*
X75365238Y-35642438D02*
X75412857Y-35690057D01*
X75412857Y-35690057D02*
X75460476Y-35785295D01*
X75460476Y-35785295D02*
X75460476Y-35880533D01*
X75460476Y-35880533D02*
X75412857Y-36023390D01*
X75412857Y-36023390D02*
X74841429Y-36594819D01*
X74841429Y-36594819D02*
X75460476Y-36594819D01*
X76317619Y-35594819D02*
X76127143Y-35594819D01*
X76127143Y-35594819D02*
X76031905Y-35642438D01*
X76031905Y-35642438D02*
X75984286Y-35690057D01*
X75984286Y-35690057D02*
X75889048Y-35832914D01*
X75889048Y-35832914D02*
X75841429Y-36023390D01*
X75841429Y-36023390D02*
X75841429Y-36404342D01*
X75841429Y-36404342D02*
X75889048Y-36499580D01*
X75889048Y-36499580D02*
X75936667Y-36547200D01*
X75936667Y-36547200D02*
X76031905Y-36594819D01*
X76031905Y-36594819D02*
X76222381Y-36594819D01*
X76222381Y-36594819D02*
X76317619Y-36547200D01*
X76317619Y-36547200D02*
X76365238Y-36499580D01*
X76365238Y-36499580D02*
X76412857Y-36404342D01*
X76412857Y-36404342D02*
X76412857Y-36166247D01*
X76412857Y-36166247D02*
X76365238Y-36071009D01*
X76365238Y-36071009D02*
X76317619Y-36023390D01*
X76317619Y-36023390D02*
X76222381Y-35975771D01*
X76222381Y-35975771D02*
X76031905Y-35975771D01*
X76031905Y-35975771D02*
X75936667Y-36023390D01*
X75936667Y-36023390D02*
X75889048Y-36071009D01*
X75889048Y-36071009D02*
X75841429Y-36166247D01*
X16730476Y-56394819D02*
X16730476Y-57109104D01*
X16730476Y-57109104D02*
X16682857Y-57251961D01*
X16682857Y-57251961D02*
X16587619Y-57347200D01*
X16587619Y-57347200D02*
X16444762Y-57394819D01*
X16444762Y-57394819D02*
X16349524Y-57394819D01*
X17159048Y-56490057D02*
X17206667Y-56442438D01*
X17206667Y-56442438D02*
X17301905Y-56394819D01*
X17301905Y-56394819D02*
X17540000Y-56394819D01*
X17540000Y-56394819D02*
X17635238Y-56442438D01*
X17635238Y-56442438D02*
X17682857Y-56490057D01*
X17682857Y-56490057D02*
X17730476Y-56585295D01*
X17730476Y-56585295D02*
X17730476Y-56680533D01*
X17730476Y-56680533D02*
X17682857Y-56823390D01*
X17682857Y-56823390D02*
X17111429Y-57394819D01*
X17111429Y-57394819D02*
X17730476Y-57394819D01*
X18349524Y-56394819D02*
X18444762Y-56394819D01*
X18444762Y-56394819D02*
X18540000Y-56442438D01*
X18540000Y-56442438D02*
X18587619Y-56490057D01*
X18587619Y-56490057D02*
X18635238Y-56585295D01*
X18635238Y-56585295D02*
X18682857Y-56775771D01*
X18682857Y-56775771D02*
X18682857Y-57013866D01*
X18682857Y-57013866D02*
X18635238Y-57204342D01*
X18635238Y-57204342D02*
X18587619Y-57299580D01*
X18587619Y-57299580D02*
X18540000Y-57347200D01*
X18540000Y-57347200D02*
X18444762Y-57394819D01*
X18444762Y-57394819D02*
X18349524Y-57394819D01*
X18349524Y-57394819D02*
X18254286Y-57347200D01*
X18254286Y-57347200D02*
X18206667Y-57299580D01*
X18206667Y-57299580D02*
X18159048Y-57204342D01*
X18159048Y-57204342D02*
X18111429Y-57013866D01*
X18111429Y-57013866D02*
X18111429Y-56775771D01*
X18111429Y-56775771D02*
X18159048Y-56585295D01*
X18159048Y-56585295D02*
X18206667Y-56490057D01*
X18206667Y-56490057D02*
X18254286Y-56442438D01*
X18254286Y-56442438D02*
X18349524Y-56394819D01*
X16730476Y-120394819D02*
X16730476Y-121109104D01*
X16730476Y-121109104D02*
X16682857Y-121251961D01*
X16682857Y-121251961D02*
X16587619Y-121347200D01*
X16587619Y-121347200D02*
X16444762Y-121394819D01*
X16444762Y-121394819D02*
X16349524Y-121394819D01*
X17730476Y-121394819D02*
X17159048Y-121394819D01*
X17444762Y-121394819D02*
X17444762Y-120394819D01*
X17444762Y-120394819D02*
X17349524Y-120537676D01*
X17349524Y-120537676D02*
X17254286Y-120632914D01*
X17254286Y-120632914D02*
X17159048Y-120680533D01*
X18063810Y-120394819D02*
X18682857Y-120394819D01*
X18682857Y-120394819D02*
X18349524Y-120775771D01*
X18349524Y-120775771D02*
X18492381Y-120775771D01*
X18492381Y-120775771D02*
X18587619Y-120823390D01*
X18587619Y-120823390D02*
X18635238Y-120871009D01*
X18635238Y-120871009D02*
X18682857Y-120966247D01*
X18682857Y-120966247D02*
X18682857Y-121204342D01*
X18682857Y-121204342D02*
X18635238Y-121299580D01*
X18635238Y-121299580D02*
X18587619Y-121347200D01*
X18587619Y-121347200D02*
X18492381Y-121394819D01*
X18492381Y-121394819D02*
X18206667Y-121394819D01*
X18206667Y-121394819D02*
X18111429Y-121347200D01*
X18111429Y-121347200D02*
X18063810Y-121299580D01*
X74936666Y-75594819D02*
X74936666Y-76309104D01*
X74936666Y-76309104D02*
X74889047Y-76451961D01*
X74889047Y-76451961D02*
X74793809Y-76547200D01*
X74793809Y-76547200D02*
X74650952Y-76594819D01*
X74650952Y-76594819D02*
X74555714Y-76594819D01*
X75841428Y-75594819D02*
X75650952Y-75594819D01*
X75650952Y-75594819D02*
X75555714Y-75642438D01*
X75555714Y-75642438D02*
X75508095Y-75690057D01*
X75508095Y-75690057D02*
X75412857Y-75832914D01*
X75412857Y-75832914D02*
X75365238Y-76023390D01*
X75365238Y-76023390D02*
X75365238Y-76404342D01*
X75365238Y-76404342D02*
X75412857Y-76499580D01*
X75412857Y-76499580D02*
X75460476Y-76547200D01*
X75460476Y-76547200D02*
X75555714Y-76594819D01*
X75555714Y-76594819D02*
X75746190Y-76594819D01*
X75746190Y-76594819D02*
X75841428Y-76547200D01*
X75841428Y-76547200D02*
X75889047Y-76499580D01*
X75889047Y-76499580D02*
X75936666Y-76404342D01*
X75936666Y-76404342D02*
X75936666Y-76166247D01*
X75936666Y-76166247D02*
X75889047Y-76071009D01*
X75889047Y-76071009D02*
X75841428Y-76023390D01*
X75841428Y-76023390D02*
X75746190Y-75975771D01*
X75746190Y-75975771D02*
X75555714Y-75975771D01*
X75555714Y-75975771D02*
X75460476Y-76023390D01*
X75460476Y-76023390D02*
X75412857Y-76071009D01*
X75412857Y-76071009D02*
X75365238Y-76166247D01*
X74460476Y-27594819D02*
X74460476Y-28309104D01*
X74460476Y-28309104D02*
X74412857Y-28451961D01*
X74412857Y-28451961D02*
X74317619Y-28547200D01*
X74317619Y-28547200D02*
X74174762Y-28594819D01*
X74174762Y-28594819D02*
X74079524Y-28594819D01*
X74889048Y-27690057D02*
X74936667Y-27642438D01*
X74936667Y-27642438D02*
X75031905Y-27594819D01*
X75031905Y-27594819D02*
X75270000Y-27594819D01*
X75270000Y-27594819D02*
X75365238Y-27642438D01*
X75365238Y-27642438D02*
X75412857Y-27690057D01*
X75412857Y-27690057D02*
X75460476Y-27785295D01*
X75460476Y-27785295D02*
X75460476Y-27880533D01*
X75460476Y-27880533D02*
X75412857Y-28023390D01*
X75412857Y-28023390D02*
X74841429Y-28594819D01*
X74841429Y-28594819D02*
X75460476Y-28594819D01*
X76365238Y-27594819D02*
X75889048Y-27594819D01*
X75889048Y-27594819D02*
X75841429Y-28071009D01*
X75841429Y-28071009D02*
X75889048Y-28023390D01*
X75889048Y-28023390D02*
X75984286Y-27975771D01*
X75984286Y-27975771D02*
X76222381Y-27975771D01*
X76222381Y-27975771D02*
X76317619Y-28023390D01*
X76317619Y-28023390D02*
X76365238Y-28071009D01*
X76365238Y-28071009D02*
X76412857Y-28166247D01*
X76412857Y-28166247D02*
X76412857Y-28404342D01*
X76412857Y-28404342D02*
X76365238Y-28499580D01*
X76365238Y-28499580D02*
X76317619Y-28547200D01*
X76317619Y-28547200D02*
X76222381Y-28594819D01*
X76222381Y-28594819D02*
X75984286Y-28594819D01*
X75984286Y-28594819D02*
X75889048Y-28547200D01*
X75889048Y-28547200D02*
X75841429Y-28499580D01*
X16730476Y-80394819D02*
X16730476Y-81109104D01*
X16730476Y-81109104D02*
X16682857Y-81251961D01*
X16682857Y-81251961D02*
X16587619Y-81347200D01*
X16587619Y-81347200D02*
X16444762Y-81394819D01*
X16444762Y-81394819D02*
X16349524Y-81394819D01*
X17730476Y-81394819D02*
X17159048Y-81394819D01*
X17444762Y-81394819D02*
X17444762Y-80394819D01*
X17444762Y-80394819D02*
X17349524Y-80537676D01*
X17349524Y-80537676D02*
X17254286Y-80632914D01*
X17254286Y-80632914D02*
X17159048Y-80680533D01*
X18063810Y-80394819D02*
X18730476Y-80394819D01*
X18730476Y-80394819D02*
X18301905Y-81394819D01*
X74460476Y-43594819D02*
X74460476Y-44309104D01*
X74460476Y-44309104D02*
X74412857Y-44451961D01*
X74412857Y-44451961D02*
X74317619Y-44547200D01*
X74317619Y-44547200D02*
X74174762Y-44594819D01*
X74174762Y-44594819D02*
X74079524Y-44594819D01*
X74889048Y-43690057D02*
X74936667Y-43642438D01*
X74936667Y-43642438D02*
X75031905Y-43594819D01*
X75031905Y-43594819D02*
X75270000Y-43594819D01*
X75270000Y-43594819D02*
X75365238Y-43642438D01*
X75365238Y-43642438D02*
X75412857Y-43690057D01*
X75412857Y-43690057D02*
X75460476Y-43785295D01*
X75460476Y-43785295D02*
X75460476Y-43880533D01*
X75460476Y-43880533D02*
X75412857Y-44023390D01*
X75412857Y-44023390D02*
X74841429Y-44594819D01*
X74841429Y-44594819D02*
X75460476Y-44594819D01*
X75793810Y-43594819D02*
X76460476Y-43594819D01*
X76460476Y-43594819D02*
X76031905Y-44594819D01*
X74460476Y-51594819D02*
X74460476Y-52309104D01*
X74460476Y-52309104D02*
X74412857Y-52451961D01*
X74412857Y-52451961D02*
X74317619Y-52547200D01*
X74317619Y-52547200D02*
X74174762Y-52594819D01*
X74174762Y-52594819D02*
X74079524Y-52594819D01*
X74889048Y-51690057D02*
X74936667Y-51642438D01*
X74936667Y-51642438D02*
X75031905Y-51594819D01*
X75031905Y-51594819D02*
X75270000Y-51594819D01*
X75270000Y-51594819D02*
X75365238Y-51642438D01*
X75365238Y-51642438D02*
X75412857Y-51690057D01*
X75412857Y-51690057D02*
X75460476Y-51785295D01*
X75460476Y-51785295D02*
X75460476Y-51880533D01*
X75460476Y-51880533D02*
X75412857Y-52023390D01*
X75412857Y-52023390D02*
X74841429Y-52594819D01*
X74841429Y-52594819D02*
X75460476Y-52594819D01*
X76031905Y-52023390D02*
X75936667Y-51975771D01*
X75936667Y-51975771D02*
X75889048Y-51928152D01*
X75889048Y-51928152D02*
X75841429Y-51832914D01*
X75841429Y-51832914D02*
X75841429Y-51785295D01*
X75841429Y-51785295D02*
X75889048Y-51690057D01*
X75889048Y-51690057D02*
X75936667Y-51642438D01*
X75936667Y-51642438D02*
X76031905Y-51594819D01*
X76031905Y-51594819D02*
X76222381Y-51594819D01*
X76222381Y-51594819D02*
X76317619Y-51642438D01*
X76317619Y-51642438D02*
X76365238Y-51690057D01*
X76365238Y-51690057D02*
X76412857Y-51785295D01*
X76412857Y-51785295D02*
X76412857Y-51832914D01*
X76412857Y-51832914D02*
X76365238Y-51928152D01*
X76365238Y-51928152D02*
X76317619Y-51975771D01*
X76317619Y-51975771D02*
X76222381Y-52023390D01*
X76222381Y-52023390D02*
X76031905Y-52023390D01*
X76031905Y-52023390D02*
X75936667Y-52071009D01*
X75936667Y-52071009D02*
X75889048Y-52118628D01*
X75889048Y-52118628D02*
X75841429Y-52213866D01*
X75841429Y-52213866D02*
X75841429Y-52404342D01*
X75841429Y-52404342D02*
X75889048Y-52499580D01*
X75889048Y-52499580D02*
X75936667Y-52547200D01*
X75936667Y-52547200D02*
X76031905Y-52594819D01*
X76031905Y-52594819D02*
X76222381Y-52594819D01*
X76222381Y-52594819D02*
X76317619Y-52547200D01*
X76317619Y-52547200D02*
X76365238Y-52499580D01*
X76365238Y-52499580D02*
X76412857Y-52404342D01*
X76412857Y-52404342D02*
X76412857Y-52213866D01*
X76412857Y-52213866D02*
X76365238Y-52118628D01*
X76365238Y-52118628D02*
X76317619Y-52071009D01*
X76317619Y-52071009D02*
X76222381Y-52023390D01*
X16730476Y-96394819D02*
X16730476Y-97109104D01*
X16730476Y-97109104D02*
X16682857Y-97251961D01*
X16682857Y-97251961D02*
X16587619Y-97347200D01*
X16587619Y-97347200D02*
X16444762Y-97394819D01*
X16444762Y-97394819D02*
X16349524Y-97394819D01*
X17730476Y-97394819D02*
X17159048Y-97394819D01*
X17444762Y-97394819D02*
X17444762Y-96394819D01*
X17444762Y-96394819D02*
X17349524Y-96537676D01*
X17349524Y-96537676D02*
X17254286Y-96632914D01*
X17254286Y-96632914D02*
X17159048Y-96680533D01*
X18635238Y-96394819D02*
X18159048Y-96394819D01*
X18159048Y-96394819D02*
X18111429Y-96871009D01*
X18111429Y-96871009D02*
X18159048Y-96823390D01*
X18159048Y-96823390D02*
X18254286Y-96775771D01*
X18254286Y-96775771D02*
X18492381Y-96775771D01*
X18492381Y-96775771D02*
X18587619Y-96823390D01*
X18587619Y-96823390D02*
X18635238Y-96871009D01*
X18635238Y-96871009D02*
X18682857Y-96966247D01*
X18682857Y-96966247D02*
X18682857Y-97204342D01*
X18682857Y-97204342D02*
X18635238Y-97299580D01*
X18635238Y-97299580D02*
X18587619Y-97347200D01*
X18587619Y-97347200D02*
X18492381Y-97394819D01*
X18492381Y-97394819D02*
X18254286Y-97394819D01*
X18254286Y-97394819D02*
X18159048Y-97347200D01*
X18159048Y-97347200D02*
X18111429Y-97299580D01*
X74936666Y-83594819D02*
X74936666Y-84309104D01*
X74936666Y-84309104D02*
X74889047Y-84451961D01*
X74889047Y-84451961D02*
X74793809Y-84547200D01*
X74793809Y-84547200D02*
X74650952Y-84594819D01*
X74650952Y-84594819D02*
X74555714Y-84594819D01*
X75317619Y-83594819D02*
X75984285Y-83594819D01*
X75984285Y-83594819D02*
X75555714Y-84594819D01*
X16730476Y-48394819D02*
X16730476Y-49109104D01*
X16730476Y-49109104D02*
X16682857Y-49251961D01*
X16682857Y-49251961D02*
X16587619Y-49347200D01*
X16587619Y-49347200D02*
X16444762Y-49394819D01*
X16444762Y-49394819D02*
X16349524Y-49394819D01*
X17159048Y-48490057D02*
X17206667Y-48442438D01*
X17206667Y-48442438D02*
X17301905Y-48394819D01*
X17301905Y-48394819D02*
X17540000Y-48394819D01*
X17540000Y-48394819D02*
X17635238Y-48442438D01*
X17635238Y-48442438D02*
X17682857Y-48490057D01*
X17682857Y-48490057D02*
X17730476Y-48585295D01*
X17730476Y-48585295D02*
X17730476Y-48680533D01*
X17730476Y-48680533D02*
X17682857Y-48823390D01*
X17682857Y-48823390D02*
X17111429Y-49394819D01*
X17111429Y-49394819D02*
X17730476Y-49394819D01*
X18682857Y-49394819D02*
X18111429Y-49394819D01*
X18397143Y-49394819D02*
X18397143Y-48394819D01*
X18397143Y-48394819D02*
X18301905Y-48537676D01*
X18301905Y-48537676D02*
X18206667Y-48632914D01*
X18206667Y-48632914D02*
X18111429Y-48680533D01*
X74460476Y-67594819D02*
X74460476Y-68309104D01*
X74460476Y-68309104D02*
X74412857Y-68451961D01*
X74412857Y-68451961D02*
X74317619Y-68547200D01*
X74317619Y-68547200D02*
X74174762Y-68594819D01*
X74174762Y-68594819D02*
X74079524Y-68594819D01*
X74841429Y-67594819D02*
X75460476Y-67594819D01*
X75460476Y-67594819D02*
X75127143Y-67975771D01*
X75127143Y-67975771D02*
X75270000Y-67975771D01*
X75270000Y-67975771D02*
X75365238Y-68023390D01*
X75365238Y-68023390D02*
X75412857Y-68071009D01*
X75412857Y-68071009D02*
X75460476Y-68166247D01*
X75460476Y-68166247D02*
X75460476Y-68404342D01*
X75460476Y-68404342D02*
X75412857Y-68499580D01*
X75412857Y-68499580D02*
X75365238Y-68547200D01*
X75365238Y-68547200D02*
X75270000Y-68594819D01*
X75270000Y-68594819D02*
X74984286Y-68594819D01*
X74984286Y-68594819D02*
X74889048Y-68547200D01*
X74889048Y-68547200D02*
X74841429Y-68499580D01*
X76079524Y-67594819D02*
X76174762Y-67594819D01*
X76174762Y-67594819D02*
X76270000Y-67642438D01*
X76270000Y-67642438D02*
X76317619Y-67690057D01*
X76317619Y-67690057D02*
X76365238Y-67785295D01*
X76365238Y-67785295D02*
X76412857Y-67975771D01*
X76412857Y-67975771D02*
X76412857Y-68213866D01*
X76412857Y-68213866D02*
X76365238Y-68404342D01*
X76365238Y-68404342D02*
X76317619Y-68499580D01*
X76317619Y-68499580D02*
X76270000Y-68547200D01*
X76270000Y-68547200D02*
X76174762Y-68594819D01*
X76174762Y-68594819D02*
X76079524Y-68594819D01*
X76079524Y-68594819D02*
X75984286Y-68547200D01*
X75984286Y-68547200D02*
X75936667Y-68499580D01*
X75936667Y-68499580D02*
X75889048Y-68404342D01*
X75889048Y-68404342D02*
X75841429Y-68213866D01*
X75841429Y-68213866D02*
X75841429Y-67975771D01*
X75841429Y-67975771D02*
X75889048Y-67785295D01*
X75889048Y-67785295D02*
X75936667Y-67690057D01*
X75936667Y-67690057D02*
X75984286Y-67642438D01*
X75984286Y-67642438D02*
X76079524Y-67594819D01*
X74460476Y-19594819D02*
X74460476Y-20309104D01*
X74460476Y-20309104D02*
X74412857Y-20451961D01*
X74412857Y-20451961D02*
X74317619Y-20547200D01*
X74317619Y-20547200D02*
X74174762Y-20594819D01*
X74174762Y-20594819D02*
X74079524Y-20594819D01*
X74889048Y-19690057D02*
X74936667Y-19642438D01*
X74936667Y-19642438D02*
X75031905Y-19594819D01*
X75031905Y-19594819D02*
X75270000Y-19594819D01*
X75270000Y-19594819D02*
X75365238Y-19642438D01*
X75365238Y-19642438D02*
X75412857Y-19690057D01*
X75412857Y-19690057D02*
X75460476Y-19785295D01*
X75460476Y-19785295D02*
X75460476Y-19880533D01*
X75460476Y-19880533D02*
X75412857Y-20023390D01*
X75412857Y-20023390D02*
X74841429Y-20594819D01*
X74841429Y-20594819D02*
X75460476Y-20594819D01*
X76317619Y-19928152D02*
X76317619Y-20594819D01*
X76079524Y-19547200D02*
X75841429Y-20261485D01*
X75841429Y-20261485D02*
X76460476Y-20261485D01*
X74460476Y-107594819D02*
X74460476Y-108309104D01*
X74460476Y-108309104D02*
X74412857Y-108451961D01*
X74412857Y-108451961D02*
X74317619Y-108547200D01*
X74317619Y-108547200D02*
X74174762Y-108594819D01*
X74174762Y-108594819D02*
X74079524Y-108594819D01*
X75460476Y-108594819D02*
X74889048Y-108594819D01*
X75174762Y-108594819D02*
X75174762Y-107594819D01*
X75174762Y-107594819D02*
X75079524Y-107737676D01*
X75079524Y-107737676D02*
X74984286Y-107832914D01*
X74984286Y-107832914D02*
X74889048Y-107880533D01*
X76079524Y-107594819D02*
X76174762Y-107594819D01*
X76174762Y-107594819D02*
X76270000Y-107642438D01*
X76270000Y-107642438D02*
X76317619Y-107690057D01*
X76317619Y-107690057D02*
X76365238Y-107785295D01*
X76365238Y-107785295D02*
X76412857Y-107975771D01*
X76412857Y-107975771D02*
X76412857Y-108213866D01*
X76412857Y-108213866D02*
X76365238Y-108404342D01*
X76365238Y-108404342D02*
X76317619Y-108499580D01*
X76317619Y-108499580D02*
X76270000Y-108547200D01*
X76270000Y-108547200D02*
X76174762Y-108594819D01*
X76174762Y-108594819D02*
X76079524Y-108594819D01*
X76079524Y-108594819D02*
X75984286Y-108547200D01*
X75984286Y-108547200D02*
X75936667Y-108499580D01*
X75936667Y-108499580D02*
X75889048Y-108404342D01*
X75889048Y-108404342D02*
X75841429Y-108213866D01*
X75841429Y-108213866D02*
X75841429Y-107975771D01*
X75841429Y-107975771D02*
X75889048Y-107785295D01*
X75889048Y-107785295D02*
X75936667Y-107690057D01*
X75936667Y-107690057D02*
X75984286Y-107642438D01*
X75984286Y-107642438D02*
X76079524Y-107594819D01*
X74460476Y-115594819D02*
X74460476Y-116309104D01*
X74460476Y-116309104D02*
X74412857Y-116451961D01*
X74412857Y-116451961D02*
X74317619Y-116547200D01*
X74317619Y-116547200D02*
X74174762Y-116594819D01*
X74174762Y-116594819D02*
X74079524Y-116594819D01*
X75460476Y-116594819D02*
X74889048Y-116594819D01*
X75174762Y-116594819D02*
X75174762Y-115594819D01*
X75174762Y-115594819D02*
X75079524Y-115737676D01*
X75079524Y-115737676D02*
X74984286Y-115832914D01*
X74984286Y-115832914D02*
X74889048Y-115880533D01*
X76412857Y-116594819D02*
X75841429Y-116594819D01*
X76127143Y-116594819D02*
X76127143Y-115594819D01*
X76127143Y-115594819D02*
X76031905Y-115737676D01*
X76031905Y-115737676D02*
X75936667Y-115832914D01*
X75936667Y-115832914D02*
X75841429Y-115880533D01*
M02*
