%TF.GenerationSoftware,KiCad,Pcbnew,10.0.3*%
%TF.CreationDate,2026-06-19T01:00:04-04:00*%
%TF.ProjectId,board-A-mcx,626f6172-642d-4412-9d6d-63782e6b6963,rev?*%
%TF.SameCoordinates,Original*%
%TF.FileFunction,Other,User*%
%FSLAX46Y46*%
G04 Gerber Fmt 4.6, Leading zero omitted, Abs format (unit mm)*
G04 Created by KiCad (PCBNEW 10.0.3) date 2026-06-19 01:00:04*
%MOMM*%
%LPD*%
G01*
G04 APERTURE LIST*
%ADD10C,0.050000*%
G04 APERTURE END LIST*
%TO.C,K1*%
D10*
X71970000Y-124740000D02*
X78570000Y-124740000D01*
X71970000Y-131340000D02*
X71970000Y-124740000D01*
X78570000Y-124740000D02*
X78570000Y-131340000D01*
X78570000Y-131340000D02*
X71970000Y-131340000D01*
%TO.C,K21*%
X14240000Y-66240000D02*
X20840000Y-66240000D01*
X14240000Y-72840000D02*
X14240000Y-66240000D01*
X20840000Y-66240000D02*
X20840000Y-72840000D01*
X20840000Y-72840000D02*
X14240000Y-72840000D01*
%TO.C,K19*%
X14240000Y-48240000D02*
X20840000Y-48240000D01*
X14240000Y-54840000D02*
X14240000Y-48240000D01*
X20840000Y-48240000D02*
X20840000Y-54840000D01*
X20840000Y-54840000D02*
X14240000Y-54840000D01*
%TO.C,K10*%
X71970000Y-88740000D02*
X78570000Y-88740000D01*
X71970000Y-95340000D02*
X71970000Y-88740000D01*
X78570000Y-88740000D02*
X78570000Y-95340000D01*
X78570000Y-95340000D02*
X71970000Y-95340000D01*
%TO.C,K17*%
X14240000Y-30240000D02*
X20840000Y-30240000D01*
X14240000Y-36840000D02*
X14240000Y-30240000D01*
X20840000Y-30240000D02*
X20840000Y-36840000D01*
X20840000Y-36840000D02*
X14240000Y-36840000D01*
%TO.C,K18*%
X14240000Y-39240000D02*
X20840000Y-39240000D01*
X14240000Y-45840000D02*
X14240000Y-39240000D01*
X20840000Y-39240000D02*
X20840000Y-45840000D01*
X20840000Y-45840000D02*
X14240000Y-45840000D01*
%TO.C,K23*%
X71970000Y-43740000D02*
X78570000Y-43740000D01*
X71970000Y-50340000D02*
X71970000Y-43740000D01*
X78570000Y-43740000D02*
X78570000Y-50340000D01*
X78570000Y-50340000D02*
X71970000Y-50340000D01*
%TO.C,K8*%
X71970000Y-115740000D02*
X78570000Y-115740000D01*
X71970000Y-122340000D02*
X71970000Y-115740000D01*
X78570000Y-115740000D02*
X78570000Y-122340000D01*
X78570000Y-122340000D02*
X71970000Y-122340000D01*
%TO.C,K11*%
X71970000Y-79740000D02*
X78570000Y-79740000D01*
X71970000Y-86340000D02*
X71970000Y-79740000D01*
X78570000Y-79740000D02*
X78570000Y-86340000D01*
X78570000Y-86340000D02*
X71970000Y-86340000D01*
%TO.C,K13*%
X71970000Y-61740000D02*
X78570000Y-61740000D01*
X71970000Y-68340000D02*
X71970000Y-61740000D01*
X78570000Y-61740000D02*
X78570000Y-68340000D01*
X78570000Y-68340000D02*
X71970000Y-68340000D01*
%TO.C,K6*%
X14240000Y-120240000D02*
X20840000Y-120240000D01*
X14240000Y-126840000D02*
X14240000Y-120240000D01*
X20840000Y-120240000D02*
X20840000Y-126840000D01*
X20840000Y-126840000D02*
X14240000Y-126840000D01*
%TO.C,IV*%
X14240000Y-75240000D02*
X20840000Y-75240000D01*
X14240000Y-81840000D02*
X14240000Y-75240000D01*
X20840000Y-75240000D02*
X20840000Y-81840000D01*
X20840000Y-81840000D02*
X14240000Y-81840000D01*
%TO.C,K0*%
X71970000Y-106740000D02*
X78570000Y-106740000D01*
X71970000Y-113340000D02*
X71970000Y-106740000D01*
X78570000Y-106740000D02*
X78570000Y-113340000D01*
X78570000Y-113340000D02*
X71970000Y-113340000D01*
%TO.C,K22*%
X71970000Y-25740000D02*
X78570000Y-25740000D01*
X71970000Y-32340000D02*
X71970000Y-25740000D01*
X78570000Y-25740000D02*
X78570000Y-32340000D01*
X78570000Y-32340000D02*
X71970000Y-32340000D01*
%TO.C,K7*%
X14240000Y-129240000D02*
X20840000Y-129240000D01*
X14240000Y-135840000D02*
X14240000Y-129240000D01*
X20840000Y-129240000D02*
X20840000Y-135840000D01*
X20840000Y-135840000D02*
X14240000Y-135840000D01*
%TO.C,K3*%
X14240000Y-93240000D02*
X20840000Y-93240000D01*
X14240000Y-99840000D02*
X14240000Y-93240000D01*
X20840000Y-93240000D02*
X20840000Y-99840000D01*
X20840000Y-99840000D02*
X14240000Y-99840000D01*
%TO.C,J5*%
X42155000Y-57650000D02*
X42155000Y-99430000D01*
X42155000Y-99430000D02*
X50655000Y-99430000D01*
X50655000Y-57650000D02*
X42155000Y-57650000D01*
X50655000Y-99430000D02*
X50655000Y-57650000D01*
%TO.C,K20*%
X14240000Y-57240000D02*
X20840000Y-57240000D01*
X14240000Y-63840000D02*
X14240000Y-57240000D01*
X20840000Y-57240000D02*
X20840000Y-63840000D01*
X20840000Y-63840000D02*
X14240000Y-63840000D01*
%TO.C,K16*%
X14240000Y-21240000D02*
X20840000Y-21240000D01*
X14240000Y-27840000D02*
X14240000Y-21240000D01*
X20840000Y-21240000D02*
X20840000Y-27840000D01*
X20840000Y-27840000D02*
X14240000Y-27840000D01*
%TO.C,MH4*%
X78720000Y-142080000D02*
G75*
G02*
X71820000Y-142080000I-3450000J0D01*
G01*
X71820000Y-142080000D02*
G75*
G02*
X78720000Y-142080000I3450000J0D01*
G01*
%TO.C,K5*%
X14240000Y-111240000D02*
X20840000Y-111240000D01*
X14240000Y-117840000D02*
X14240000Y-111240000D01*
X20840000Y-111240000D02*
X20840000Y-117840000D01*
X20840000Y-117840000D02*
X14240000Y-117840000D01*
%TO.C,K14*%
X71970000Y-52740000D02*
X78570000Y-52740000D01*
X71970000Y-59340000D02*
X71970000Y-52740000D01*
X78570000Y-52740000D02*
X78570000Y-59340000D01*
X78570000Y-59340000D02*
X71970000Y-59340000D01*
%TO.C,K9*%
X71970000Y-97740000D02*
X78570000Y-97740000D01*
X71970000Y-104340000D02*
X71970000Y-97740000D01*
X78570000Y-97740000D02*
X78570000Y-104340000D01*
X78570000Y-104340000D02*
X71970000Y-104340000D01*
%TO.C,MH2*%
X78720000Y-15000000D02*
G75*
G02*
X71820000Y-15000000I-3450000J0D01*
G01*
X71820000Y-15000000D02*
G75*
G02*
X78720000Y-15000000I3450000J0D01*
G01*
%TO.C,K2*%
X14240000Y-84240000D02*
X20840000Y-84240000D01*
X14240000Y-90840000D02*
X14240000Y-84240000D01*
X20840000Y-84240000D02*
X20840000Y-90840000D01*
X20840000Y-90840000D02*
X14240000Y-90840000D01*
%TO.C,K12*%
X71970000Y-70740000D02*
X78570000Y-70740000D01*
X71970000Y-77340000D02*
X71970000Y-70740000D01*
X78570000Y-70740000D02*
X78570000Y-77340000D01*
X78570000Y-77340000D02*
X71970000Y-77340000D01*
%TO.C,K15*%
X71970000Y-34740000D02*
X78570000Y-34740000D01*
X71970000Y-41340000D02*
X71970000Y-34740000D01*
X78570000Y-34740000D02*
X78570000Y-41340000D01*
X78570000Y-41340000D02*
X71970000Y-41340000D01*
%TO.C,K4*%
X14240000Y-102240000D02*
X20840000Y-102240000D01*
X14240000Y-108840000D02*
X14240000Y-102240000D01*
X20840000Y-102240000D02*
X20840000Y-108840000D01*
X20840000Y-108840000D02*
X14240000Y-108840000D01*
%TO.C,MH3*%
X20990000Y-142080000D02*
G75*
G02*
X14090000Y-142080000I-3450000J0D01*
G01*
X14090000Y-142080000D02*
G75*
G02*
X20990000Y-142080000I3450000J0D01*
G01*
%TO.C,MH1*%
X20990000Y-15000000D02*
G75*
G02*
X14090000Y-15000000I-3450000J0D01*
G01*
X14090000Y-15000000D02*
G75*
G02*
X20990000Y-15000000I3450000J0D01*
G01*
%TD*%
M02*
