%TF.GenerationSoftware,KiCad,Pcbnew,10.0.3*%
%TF.CreationDate,2026-06-19T01:00:04-04:00*%
%TF.ProjectId,board-A-mcx,626f6172-642d-4412-9d6d-63782e6b6963,rev?*%
%TF.SameCoordinates,Original*%
%TF.FileFunction,Legend,Top*%
%TF.FilePolarity,Positive*%
%FSLAX46Y46*%
G04 Gerber Fmt 4.6, Leading zero omitted, Abs format (unit mm)*
G04 Created by KiCad (PCBNEW 10.0.3) date 2026-06-19 01:00:04*
%MOMM*%
%LPD*%
G01*
G04 APERTURE LIST*
%ADD10C,0.150000*%
%ADD11C,0.120000*%
%ADD12C,0.200000*%
G04 APERTURE END LIST*
D10*
X74531905Y-132894819D02*
X74531905Y-131894819D01*
X75103333Y-132894819D02*
X74674762Y-132323390D01*
X75103333Y-131894819D02*
X74531905Y-132466247D01*
X76055714Y-132894819D02*
X75484286Y-132894819D01*
X75770000Y-132894819D02*
X75770000Y-131894819D01*
X75770000Y-131894819D02*
X75674762Y-132037676D01*
X75674762Y-132037676D02*
X75579524Y-132132914D01*
X75579524Y-132132914D02*
X75484286Y-132180533D01*
X16325714Y-65594819D02*
X16325714Y-64594819D01*
X16897142Y-65594819D02*
X16468571Y-65023390D01*
X16897142Y-64594819D02*
X16325714Y-65166247D01*
X17278095Y-64690057D02*
X17325714Y-64642438D01*
X17325714Y-64642438D02*
X17420952Y-64594819D01*
X17420952Y-64594819D02*
X17659047Y-64594819D01*
X17659047Y-64594819D02*
X17754285Y-64642438D01*
X17754285Y-64642438D02*
X17801904Y-64690057D01*
X17801904Y-64690057D02*
X17849523Y-64785295D01*
X17849523Y-64785295D02*
X17849523Y-64880533D01*
X17849523Y-64880533D02*
X17801904Y-65023390D01*
X17801904Y-65023390D02*
X17230476Y-65594819D01*
X17230476Y-65594819D02*
X17849523Y-65594819D01*
X18801904Y-65594819D02*
X18230476Y-65594819D01*
X18516190Y-65594819D02*
X18516190Y-64594819D01*
X18516190Y-64594819D02*
X18420952Y-64737676D01*
X18420952Y-64737676D02*
X18325714Y-64832914D01*
X18325714Y-64832914D02*
X18230476Y-64880533D01*
X16325714Y-47594819D02*
X16325714Y-46594819D01*
X16897142Y-47594819D02*
X16468571Y-47023390D01*
X16897142Y-46594819D02*
X16325714Y-47166247D01*
X17849523Y-47594819D02*
X17278095Y-47594819D01*
X17563809Y-47594819D02*
X17563809Y-46594819D01*
X17563809Y-46594819D02*
X17468571Y-46737676D01*
X17468571Y-46737676D02*
X17373333Y-46832914D01*
X17373333Y-46832914D02*
X17278095Y-46880533D01*
X18325714Y-47594819D02*
X18516190Y-47594819D01*
X18516190Y-47594819D02*
X18611428Y-47547200D01*
X18611428Y-47547200D02*
X18659047Y-47499580D01*
X18659047Y-47499580D02*
X18754285Y-47356723D01*
X18754285Y-47356723D02*
X18801904Y-47166247D01*
X18801904Y-47166247D02*
X18801904Y-46785295D01*
X18801904Y-46785295D02*
X18754285Y-46690057D01*
X18754285Y-46690057D02*
X18706666Y-46642438D01*
X18706666Y-46642438D02*
X18611428Y-46594819D01*
X18611428Y-46594819D02*
X18420952Y-46594819D01*
X18420952Y-46594819D02*
X18325714Y-46642438D01*
X18325714Y-46642438D02*
X18278095Y-46690057D01*
X18278095Y-46690057D02*
X18230476Y-46785295D01*
X18230476Y-46785295D02*
X18230476Y-47023390D01*
X18230476Y-47023390D02*
X18278095Y-47118628D01*
X18278095Y-47118628D02*
X18325714Y-47166247D01*
X18325714Y-47166247D02*
X18420952Y-47213866D01*
X18420952Y-47213866D02*
X18611428Y-47213866D01*
X18611428Y-47213866D02*
X18706666Y-47166247D01*
X18706666Y-47166247D02*
X18754285Y-47118628D01*
X18754285Y-47118628D02*
X18801904Y-47023390D01*
X74055714Y-96894819D02*
X74055714Y-95894819D01*
X74627142Y-96894819D02*
X74198571Y-96323390D01*
X74627142Y-95894819D02*
X74055714Y-96466247D01*
X75579523Y-96894819D02*
X75008095Y-96894819D01*
X75293809Y-96894819D02*
X75293809Y-95894819D01*
X75293809Y-95894819D02*
X75198571Y-96037676D01*
X75198571Y-96037676D02*
X75103333Y-96132914D01*
X75103333Y-96132914D02*
X75008095Y-96180533D01*
X76198571Y-95894819D02*
X76293809Y-95894819D01*
X76293809Y-95894819D02*
X76389047Y-95942438D01*
X76389047Y-95942438D02*
X76436666Y-95990057D01*
X76436666Y-95990057D02*
X76484285Y-96085295D01*
X76484285Y-96085295D02*
X76531904Y-96275771D01*
X76531904Y-96275771D02*
X76531904Y-96513866D01*
X76531904Y-96513866D02*
X76484285Y-96704342D01*
X76484285Y-96704342D02*
X76436666Y-96799580D01*
X76436666Y-96799580D02*
X76389047Y-96847200D01*
X76389047Y-96847200D02*
X76293809Y-96894819D01*
X76293809Y-96894819D02*
X76198571Y-96894819D01*
X76198571Y-96894819D02*
X76103333Y-96847200D01*
X76103333Y-96847200D02*
X76055714Y-96799580D01*
X76055714Y-96799580D02*
X76008095Y-96704342D01*
X76008095Y-96704342D02*
X75960476Y-96513866D01*
X75960476Y-96513866D02*
X75960476Y-96275771D01*
X75960476Y-96275771D02*
X76008095Y-96085295D01*
X76008095Y-96085295D02*
X76055714Y-95990057D01*
X76055714Y-95990057D02*
X76103333Y-95942438D01*
X76103333Y-95942438D02*
X76198571Y-95894819D01*
X16325714Y-29594819D02*
X16325714Y-28594819D01*
X16897142Y-29594819D02*
X16468571Y-29023390D01*
X16897142Y-28594819D02*
X16325714Y-29166247D01*
X17849523Y-29594819D02*
X17278095Y-29594819D01*
X17563809Y-29594819D02*
X17563809Y-28594819D01*
X17563809Y-28594819D02*
X17468571Y-28737676D01*
X17468571Y-28737676D02*
X17373333Y-28832914D01*
X17373333Y-28832914D02*
X17278095Y-28880533D01*
X18182857Y-28594819D02*
X18849523Y-28594819D01*
X18849523Y-28594819D02*
X18420952Y-29594819D01*
X16325714Y-38594819D02*
X16325714Y-37594819D01*
X16897142Y-38594819D02*
X16468571Y-38023390D01*
X16897142Y-37594819D02*
X16325714Y-38166247D01*
X17849523Y-38594819D02*
X17278095Y-38594819D01*
X17563809Y-38594819D02*
X17563809Y-37594819D01*
X17563809Y-37594819D02*
X17468571Y-37737676D01*
X17468571Y-37737676D02*
X17373333Y-37832914D01*
X17373333Y-37832914D02*
X17278095Y-37880533D01*
X18420952Y-38023390D02*
X18325714Y-37975771D01*
X18325714Y-37975771D02*
X18278095Y-37928152D01*
X18278095Y-37928152D02*
X18230476Y-37832914D01*
X18230476Y-37832914D02*
X18230476Y-37785295D01*
X18230476Y-37785295D02*
X18278095Y-37690057D01*
X18278095Y-37690057D02*
X18325714Y-37642438D01*
X18325714Y-37642438D02*
X18420952Y-37594819D01*
X18420952Y-37594819D02*
X18611428Y-37594819D01*
X18611428Y-37594819D02*
X18706666Y-37642438D01*
X18706666Y-37642438D02*
X18754285Y-37690057D01*
X18754285Y-37690057D02*
X18801904Y-37785295D01*
X18801904Y-37785295D02*
X18801904Y-37832914D01*
X18801904Y-37832914D02*
X18754285Y-37928152D01*
X18754285Y-37928152D02*
X18706666Y-37975771D01*
X18706666Y-37975771D02*
X18611428Y-38023390D01*
X18611428Y-38023390D02*
X18420952Y-38023390D01*
X18420952Y-38023390D02*
X18325714Y-38071009D01*
X18325714Y-38071009D02*
X18278095Y-38118628D01*
X18278095Y-38118628D02*
X18230476Y-38213866D01*
X18230476Y-38213866D02*
X18230476Y-38404342D01*
X18230476Y-38404342D02*
X18278095Y-38499580D01*
X18278095Y-38499580D02*
X18325714Y-38547200D01*
X18325714Y-38547200D02*
X18420952Y-38594819D01*
X18420952Y-38594819D02*
X18611428Y-38594819D01*
X18611428Y-38594819D02*
X18706666Y-38547200D01*
X18706666Y-38547200D02*
X18754285Y-38499580D01*
X18754285Y-38499580D02*
X18801904Y-38404342D01*
X18801904Y-38404342D02*
X18801904Y-38213866D01*
X18801904Y-38213866D02*
X18754285Y-38118628D01*
X18754285Y-38118628D02*
X18706666Y-38071009D01*
X18706666Y-38071009D02*
X18611428Y-38023390D01*
X74055714Y-51894819D02*
X74055714Y-50894819D01*
X74627142Y-51894819D02*
X74198571Y-51323390D01*
X74627142Y-50894819D02*
X74055714Y-51466247D01*
X75008095Y-50990057D02*
X75055714Y-50942438D01*
X75055714Y-50942438D02*
X75150952Y-50894819D01*
X75150952Y-50894819D02*
X75389047Y-50894819D01*
X75389047Y-50894819D02*
X75484285Y-50942438D01*
X75484285Y-50942438D02*
X75531904Y-50990057D01*
X75531904Y-50990057D02*
X75579523Y-51085295D01*
X75579523Y-51085295D02*
X75579523Y-51180533D01*
X75579523Y-51180533D02*
X75531904Y-51323390D01*
X75531904Y-51323390D02*
X74960476Y-51894819D01*
X74960476Y-51894819D02*
X75579523Y-51894819D01*
X75912857Y-50894819D02*
X76531904Y-50894819D01*
X76531904Y-50894819D02*
X76198571Y-51275771D01*
X76198571Y-51275771D02*
X76341428Y-51275771D01*
X76341428Y-51275771D02*
X76436666Y-51323390D01*
X76436666Y-51323390D02*
X76484285Y-51371009D01*
X76484285Y-51371009D02*
X76531904Y-51466247D01*
X76531904Y-51466247D02*
X76531904Y-51704342D01*
X76531904Y-51704342D02*
X76484285Y-51799580D01*
X76484285Y-51799580D02*
X76436666Y-51847200D01*
X76436666Y-51847200D02*
X76341428Y-51894819D01*
X76341428Y-51894819D02*
X76055714Y-51894819D01*
X76055714Y-51894819D02*
X75960476Y-51847200D01*
X75960476Y-51847200D02*
X75912857Y-51799580D01*
X74531905Y-123894819D02*
X74531905Y-122894819D01*
X75103333Y-123894819D02*
X74674762Y-123323390D01*
X75103333Y-122894819D02*
X74531905Y-123466247D01*
X75674762Y-123323390D02*
X75579524Y-123275771D01*
X75579524Y-123275771D02*
X75531905Y-123228152D01*
X75531905Y-123228152D02*
X75484286Y-123132914D01*
X75484286Y-123132914D02*
X75484286Y-123085295D01*
X75484286Y-123085295D02*
X75531905Y-122990057D01*
X75531905Y-122990057D02*
X75579524Y-122942438D01*
X75579524Y-122942438D02*
X75674762Y-122894819D01*
X75674762Y-122894819D02*
X75865238Y-122894819D01*
X75865238Y-122894819D02*
X75960476Y-122942438D01*
X75960476Y-122942438D02*
X76008095Y-122990057D01*
X76008095Y-122990057D02*
X76055714Y-123085295D01*
X76055714Y-123085295D02*
X76055714Y-123132914D01*
X76055714Y-123132914D02*
X76008095Y-123228152D01*
X76008095Y-123228152D02*
X75960476Y-123275771D01*
X75960476Y-123275771D02*
X75865238Y-123323390D01*
X75865238Y-123323390D02*
X75674762Y-123323390D01*
X75674762Y-123323390D02*
X75579524Y-123371009D01*
X75579524Y-123371009D02*
X75531905Y-123418628D01*
X75531905Y-123418628D02*
X75484286Y-123513866D01*
X75484286Y-123513866D02*
X75484286Y-123704342D01*
X75484286Y-123704342D02*
X75531905Y-123799580D01*
X75531905Y-123799580D02*
X75579524Y-123847200D01*
X75579524Y-123847200D02*
X75674762Y-123894819D01*
X75674762Y-123894819D02*
X75865238Y-123894819D01*
X75865238Y-123894819D02*
X75960476Y-123847200D01*
X75960476Y-123847200D02*
X76008095Y-123799580D01*
X76008095Y-123799580D02*
X76055714Y-123704342D01*
X76055714Y-123704342D02*
X76055714Y-123513866D01*
X76055714Y-123513866D02*
X76008095Y-123418628D01*
X76008095Y-123418628D02*
X75960476Y-123371009D01*
X75960476Y-123371009D02*
X75865238Y-123323390D01*
X74055714Y-87894819D02*
X74055714Y-86894819D01*
X74627142Y-87894819D02*
X74198571Y-87323390D01*
X74627142Y-86894819D02*
X74055714Y-87466247D01*
X75579523Y-87894819D02*
X75008095Y-87894819D01*
X75293809Y-87894819D02*
X75293809Y-86894819D01*
X75293809Y-86894819D02*
X75198571Y-87037676D01*
X75198571Y-87037676D02*
X75103333Y-87132914D01*
X75103333Y-87132914D02*
X75008095Y-87180533D01*
X76531904Y-87894819D02*
X75960476Y-87894819D01*
X76246190Y-87894819D02*
X76246190Y-86894819D01*
X76246190Y-86894819D02*
X76150952Y-87037676D01*
X76150952Y-87037676D02*
X76055714Y-87132914D01*
X76055714Y-87132914D02*
X75960476Y-87180533D01*
X74055714Y-69894819D02*
X74055714Y-68894819D01*
X74627142Y-69894819D02*
X74198571Y-69323390D01*
X74627142Y-68894819D02*
X74055714Y-69466247D01*
X75579523Y-69894819D02*
X75008095Y-69894819D01*
X75293809Y-69894819D02*
X75293809Y-68894819D01*
X75293809Y-68894819D02*
X75198571Y-69037676D01*
X75198571Y-69037676D02*
X75103333Y-69132914D01*
X75103333Y-69132914D02*
X75008095Y-69180533D01*
X75912857Y-68894819D02*
X76531904Y-68894819D01*
X76531904Y-68894819D02*
X76198571Y-69275771D01*
X76198571Y-69275771D02*
X76341428Y-69275771D01*
X76341428Y-69275771D02*
X76436666Y-69323390D01*
X76436666Y-69323390D02*
X76484285Y-69371009D01*
X76484285Y-69371009D02*
X76531904Y-69466247D01*
X76531904Y-69466247D02*
X76531904Y-69704342D01*
X76531904Y-69704342D02*
X76484285Y-69799580D01*
X76484285Y-69799580D02*
X76436666Y-69847200D01*
X76436666Y-69847200D02*
X76341428Y-69894819D01*
X76341428Y-69894819D02*
X76055714Y-69894819D01*
X76055714Y-69894819D02*
X75960476Y-69847200D01*
X75960476Y-69847200D02*
X75912857Y-69799580D01*
X16801905Y-119594819D02*
X16801905Y-118594819D01*
X17373333Y-119594819D02*
X16944762Y-119023390D01*
X17373333Y-118594819D02*
X16801905Y-119166247D01*
X18230476Y-118594819D02*
X18040000Y-118594819D01*
X18040000Y-118594819D02*
X17944762Y-118642438D01*
X17944762Y-118642438D02*
X17897143Y-118690057D01*
X17897143Y-118690057D02*
X17801905Y-118832914D01*
X17801905Y-118832914D02*
X17754286Y-119023390D01*
X17754286Y-119023390D02*
X17754286Y-119404342D01*
X17754286Y-119404342D02*
X17801905Y-119499580D01*
X17801905Y-119499580D02*
X17849524Y-119547200D01*
X17849524Y-119547200D02*
X17944762Y-119594819D01*
X17944762Y-119594819D02*
X18135238Y-119594819D01*
X18135238Y-119594819D02*
X18230476Y-119547200D01*
X18230476Y-119547200D02*
X18278095Y-119499580D01*
X18278095Y-119499580D02*
X18325714Y-119404342D01*
X18325714Y-119404342D02*
X18325714Y-119166247D01*
X18325714Y-119166247D02*
X18278095Y-119071009D01*
X18278095Y-119071009D02*
X18230476Y-119023390D01*
X18230476Y-119023390D02*
X18135238Y-118975771D01*
X18135238Y-118975771D02*
X17944762Y-118975771D01*
X17944762Y-118975771D02*
X17849524Y-119023390D01*
X17849524Y-119023390D02*
X17801905Y-119071009D01*
X17801905Y-119071009D02*
X17754286Y-119166247D01*
X17111429Y-74594819D02*
X17111429Y-73594819D01*
X17444762Y-73594819D02*
X17778095Y-74594819D01*
X17778095Y-74594819D02*
X18111428Y-73594819D01*
X74531905Y-114894819D02*
X74531905Y-113894819D01*
X75103333Y-114894819D02*
X74674762Y-114323390D01*
X75103333Y-113894819D02*
X74531905Y-114466247D01*
X75722381Y-113894819D02*
X75817619Y-113894819D01*
X75817619Y-113894819D02*
X75912857Y-113942438D01*
X75912857Y-113942438D02*
X75960476Y-113990057D01*
X75960476Y-113990057D02*
X76008095Y-114085295D01*
X76008095Y-114085295D02*
X76055714Y-114275771D01*
X76055714Y-114275771D02*
X76055714Y-114513866D01*
X76055714Y-114513866D02*
X76008095Y-114704342D01*
X76008095Y-114704342D02*
X75960476Y-114799580D01*
X75960476Y-114799580D02*
X75912857Y-114847200D01*
X75912857Y-114847200D02*
X75817619Y-114894819D01*
X75817619Y-114894819D02*
X75722381Y-114894819D01*
X75722381Y-114894819D02*
X75627143Y-114847200D01*
X75627143Y-114847200D02*
X75579524Y-114799580D01*
X75579524Y-114799580D02*
X75531905Y-114704342D01*
X75531905Y-114704342D02*
X75484286Y-114513866D01*
X75484286Y-114513866D02*
X75484286Y-114275771D01*
X75484286Y-114275771D02*
X75531905Y-114085295D01*
X75531905Y-114085295D02*
X75579524Y-113990057D01*
X75579524Y-113990057D02*
X75627143Y-113942438D01*
X75627143Y-113942438D02*
X75722381Y-113894819D01*
X74055714Y-33894819D02*
X74055714Y-32894819D01*
X74627142Y-33894819D02*
X74198571Y-33323390D01*
X74627142Y-32894819D02*
X74055714Y-33466247D01*
X75008095Y-32990057D02*
X75055714Y-32942438D01*
X75055714Y-32942438D02*
X75150952Y-32894819D01*
X75150952Y-32894819D02*
X75389047Y-32894819D01*
X75389047Y-32894819D02*
X75484285Y-32942438D01*
X75484285Y-32942438D02*
X75531904Y-32990057D01*
X75531904Y-32990057D02*
X75579523Y-33085295D01*
X75579523Y-33085295D02*
X75579523Y-33180533D01*
X75579523Y-33180533D02*
X75531904Y-33323390D01*
X75531904Y-33323390D02*
X74960476Y-33894819D01*
X74960476Y-33894819D02*
X75579523Y-33894819D01*
X75960476Y-32990057D02*
X76008095Y-32942438D01*
X76008095Y-32942438D02*
X76103333Y-32894819D01*
X76103333Y-32894819D02*
X76341428Y-32894819D01*
X76341428Y-32894819D02*
X76436666Y-32942438D01*
X76436666Y-32942438D02*
X76484285Y-32990057D01*
X76484285Y-32990057D02*
X76531904Y-33085295D01*
X76531904Y-33085295D02*
X76531904Y-33180533D01*
X76531904Y-33180533D02*
X76484285Y-33323390D01*
X76484285Y-33323390D02*
X75912857Y-33894819D01*
X75912857Y-33894819D02*
X76531904Y-33894819D01*
X16801905Y-128594819D02*
X16801905Y-127594819D01*
X17373333Y-128594819D02*
X16944762Y-128023390D01*
X17373333Y-127594819D02*
X16801905Y-128166247D01*
X17706667Y-127594819D02*
X18373333Y-127594819D01*
X18373333Y-127594819D02*
X17944762Y-128594819D01*
X16801905Y-92594819D02*
X16801905Y-91594819D01*
X17373333Y-92594819D02*
X16944762Y-92023390D01*
X17373333Y-91594819D02*
X16801905Y-92166247D01*
X17706667Y-91594819D02*
X18325714Y-91594819D01*
X18325714Y-91594819D02*
X17992381Y-91975771D01*
X17992381Y-91975771D02*
X18135238Y-91975771D01*
X18135238Y-91975771D02*
X18230476Y-92023390D01*
X18230476Y-92023390D02*
X18278095Y-92071009D01*
X18278095Y-92071009D02*
X18325714Y-92166247D01*
X18325714Y-92166247D02*
X18325714Y-92404342D01*
X18325714Y-92404342D02*
X18278095Y-92499580D01*
X18278095Y-92499580D02*
X18230476Y-92547200D01*
X18230476Y-92547200D02*
X18135238Y-92594819D01*
X18135238Y-92594819D02*
X17849524Y-92594819D01*
X17849524Y-92594819D02*
X17754286Y-92547200D01*
X17754286Y-92547200D02*
X17706667Y-92499580D01*
X40271819Y-96588333D02*
X40986104Y-96588333D01*
X40986104Y-96588333D02*
X41128961Y-96635952D01*
X41128961Y-96635952D02*
X41224200Y-96731190D01*
X41224200Y-96731190D02*
X41271819Y-96874047D01*
X41271819Y-96874047D02*
X41271819Y-96969285D01*
X40271819Y-95635952D02*
X40271819Y-96112142D01*
X40271819Y-96112142D02*
X40748009Y-96159761D01*
X40748009Y-96159761D02*
X40700390Y-96112142D01*
X40700390Y-96112142D02*
X40652771Y-96016904D01*
X40652771Y-96016904D02*
X40652771Y-95778809D01*
X40652771Y-95778809D02*
X40700390Y-95683571D01*
X40700390Y-95683571D02*
X40748009Y-95635952D01*
X40748009Y-95635952D02*
X40843247Y-95588333D01*
X40843247Y-95588333D02*
X41081342Y-95588333D01*
X41081342Y-95588333D02*
X41176580Y-95635952D01*
X41176580Y-95635952D02*
X41224200Y-95683571D01*
X41224200Y-95683571D02*
X41271819Y-95778809D01*
X41271819Y-95778809D02*
X41271819Y-96016904D01*
X41271819Y-96016904D02*
X41224200Y-96112142D01*
X41224200Y-96112142D02*
X41176580Y-96159761D01*
X16325714Y-56594819D02*
X16325714Y-55594819D01*
X16897142Y-56594819D02*
X16468571Y-56023390D01*
X16897142Y-55594819D02*
X16325714Y-56166247D01*
X17278095Y-55690057D02*
X17325714Y-55642438D01*
X17325714Y-55642438D02*
X17420952Y-55594819D01*
X17420952Y-55594819D02*
X17659047Y-55594819D01*
X17659047Y-55594819D02*
X17754285Y-55642438D01*
X17754285Y-55642438D02*
X17801904Y-55690057D01*
X17801904Y-55690057D02*
X17849523Y-55785295D01*
X17849523Y-55785295D02*
X17849523Y-55880533D01*
X17849523Y-55880533D02*
X17801904Y-56023390D01*
X17801904Y-56023390D02*
X17230476Y-56594819D01*
X17230476Y-56594819D02*
X17849523Y-56594819D01*
X18468571Y-55594819D02*
X18563809Y-55594819D01*
X18563809Y-55594819D02*
X18659047Y-55642438D01*
X18659047Y-55642438D02*
X18706666Y-55690057D01*
X18706666Y-55690057D02*
X18754285Y-55785295D01*
X18754285Y-55785295D02*
X18801904Y-55975771D01*
X18801904Y-55975771D02*
X18801904Y-56213866D01*
X18801904Y-56213866D02*
X18754285Y-56404342D01*
X18754285Y-56404342D02*
X18706666Y-56499580D01*
X18706666Y-56499580D02*
X18659047Y-56547200D01*
X18659047Y-56547200D02*
X18563809Y-56594819D01*
X18563809Y-56594819D02*
X18468571Y-56594819D01*
X18468571Y-56594819D02*
X18373333Y-56547200D01*
X18373333Y-56547200D02*
X18325714Y-56499580D01*
X18325714Y-56499580D02*
X18278095Y-56404342D01*
X18278095Y-56404342D02*
X18230476Y-56213866D01*
X18230476Y-56213866D02*
X18230476Y-55975771D01*
X18230476Y-55975771D02*
X18278095Y-55785295D01*
X18278095Y-55785295D02*
X18325714Y-55690057D01*
X18325714Y-55690057D02*
X18373333Y-55642438D01*
X18373333Y-55642438D02*
X18468571Y-55594819D01*
X16325714Y-20594819D02*
X16325714Y-19594819D01*
X16897142Y-20594819D02*
X16468571Y-20023390D01*
X16897142Y-19594819D02*
X16325714Y-20166247D01*
X17849523Y-20594819D02*
X17278095Y-20594819D01*
X17563809Y-20594819D02*
X17563809Y-19594819D01*
X17563809Y-19594819D02*
X17468571Y-19737676D01*
X17468571Y-19737676D02*
X17373333Y-19832914D01*
X17373333Y-19832914D02*
X17278095Y-19880533D01*
X18706666Y-19594819D02*
X18516190Y-19594819D01*
X18516190Y-19594819D02*
X18420952Y-19642438D01*
X18420952Y-19642438D02*
X18373333Y-19690057D01*
X18373333Y-19690057D02*
X18278095Y-19832914D01*
X18278095Y-19832914D02*
X18230476Y-20023390D01*
X18230476Y-20023390D02*
X18230476Y-20404342D01*
X18230476Y-20404342D02*
X18278095Y-20499580D01*
X18278095Y-20499580D02*
X18325714Y-20547200D01*
X18325714Y-20547200D02*
X18420952Y-20594819D01*
X18420952Y-20594819D02*
X18611428Y-20594819D01*
X18611428Y-20594819D02*
X18706666Y-20547200D01*
X18706666Y-20547200D02*
X18754285Y-20499580D01*
X18754285Y-20499580D02*
X18801904Y-20404342D01*
X18801904Y-20404342D02*
X18801904Y-20166247D01*
X18801904Y-20166247D02*
X18754285Y-20071009D01*
X18754285Y-20071009D02*
X18706666Y-20023390D01*
X18706666Y-20023390D02*
X18611428Y-19975771D01*
X18611428Y-19975771D02*
X18420952Y-19975771D01*
X18420952Y-19975771D02*
X18325714Y-20023390D01*
X18325714Y-20023390D02*
X18278095Y-20071009D01*
X18278095Y-20071009D02*
X18230476Y-20166247D01*
X73936667Y-138384819D02*
X73936667Y-137384819D01*
X73936667Y-137384819D02*
X74270000Y-138099104D01*
X74270000Y-138099104D02*
X74603333Y-137384819D01*
X74603333Y-137384819D02*
X74603333Y-138384819D01*
X75079524Y-138384819D02*
X75079524Y-137384819D01*
X75079524Y-137861009D02*
X75650952Y-137861009D01*
X75650952Y-138384819D02*
X75650952Y-137384819D01*
X76555714Y-137718152D02*
X76555714Y-138384819D01*
X76317619Y-137337200D02*
X76079524Y-138051485D01*
X76079524Y-138051485D02*
X76698571Y-138051485D01*
X16801905Y-110594819D02*
X16801905Y-109594819D01*
X17373333Y-110594819D02*
X16944762Y-110023390D01*
X17373333Y-109594819D02*
X16801905Y-110166247D01*
X18278095Y-109594819D02*
X17801905Y-109594819D01*
X17801905Y-109594819D02*
X17754286Y-110071009D01*
X17754286Y-110071009D02*
X17801905Y-110023390D01*
X17801905Y-110023390D02*
X17897143Y-109975771D01*
X17897143Y-109975771D02*
X18135238Y-109975771D01*
X18135238Y-109975771D02*
X18230476Y-110023390D01*
X18230476Y-110023390D02*
X18278095Y-110071009D01*
X18278095Y-110071009D02*
X18325714Y-110166247D01*
X18325714Y-110166247D02*
X18325714Y-110404342D01*
X18325714Y-110404342D02*
X18278095Y-110499580D01*
X18278095Y-110499580D02*
X18230476Y-110547200D01*
X18230476Y-110547200D02*
X18135238Y-110594819D01*
X18135238Y-110594819D02*
X17897143Y-110594819D01*
X17897143Y-110594819D02*
X17801905Y-110547200D01*
X17801905Y-110547200D02*
X17754286Y-110499580D01*
X74055714Y-60894819D02*
X74055714Y-59894819D01*
X74627142Y-60894819D02*
X74198571Y-60323390D01*
X74627142Y-59894819D02*
X74055714Y-60466247D01*
X75579523Y-60894819D02*
X75008095Y-60894819D01*
X75293809Y-60894819D02*
X75293809Y-59894819D01*
X75293809Y-59894819D02*
X75198571Y-60037676D01*
X75198571Y-60037676D02*
X75103333Y-60132914D01*
X75103333Y-60132914D02*
X75008095Y-60180533D01*
X76436666Y-60228152D02*
X76436666Y-60894819D01*
X76198571Y-59847200D02*
X75960476Y-60561485D01*
X75960476Y-60561485D02*
X76579523Y-60561485D01*
X74531905Y-105894819D02*
X74531905Y-104894819D01*
X75103333Y-105894819D02*
X74674762Y-105323390D01*
X75103333Y-104894819D02*
X74531905Y-105466247D01*
X75579524Y-105894819D02*
X75770000Y-105894819D01*
X75770000Y-105894819D02*
X75865238Y-105847200D01*
X75865238Y-105847200D02*
X75912857Y-105799580D01*
X75912857Y-105799580D02*
X76008095Y-105656723D01*
X76008095Y-105656723D02*
X76055714Y-105466247D01*
X76055714Y-105466247D02*
X76055714Y-105085295D01*
X76055714Y-105085295D02*
X76008095Y-104990057D01*
X76008095Y-104990057D02*
X75960476Y-104942438D01*
X75960476Y-104942438D02*
X75865238Y-104894819D01*
X75865238Y-104894819D02*
X75674762Y-104894819D01*
X75674762Y-104894819D02*
X75579524Y-104942438D01*
X75579524Y-104942438D02*
X75531905Y-104990057D01*
X75531905Y-104990057D02*
X75484286Y-105085295D01*
X75484286Y-105085295D02*
X75484286Y-105323390D01*
X75484286Y-105323390D02*
X75531905Y-105418628D01*
X75531905Y-105418628D02*
X75579524Y-105466247D01*
X75579524Y-105466247D02*
X75674762Y-105513866D01*
X75674762Y-105513866D02*
X75865238Y-105513866D01*
X75865238Y-105513866D02*
X75960476Y-105466247D01*
X75960476Y-105466247D02*
X76008095Y-105418628D01*
X76008095Y-105418628D02*
X76055714Y-105323390D01*
X73936667Y-11304819D02*
X73936667Y-10304819D01*
X73936667Y-10304819D02*
X74270000Y-11019104D01*
X74270000Y-11019104D02*
X74603333Y-10304819D01*
X74603333Y-10304819D02*
X74603333Y-11304819D01*
X75079524Y-11304819D02*
X75079524Y-10304819D01*
X75079524Y-10781009D02*
X75650952Y-10781009D01*
X75650952Y-11304819D02*
X75650952Y-10304819D01*
X76079524Y-10400057D02*
X76127143Y-10352438D01*
X76127143Y-10352438D02*
X76222381Y-10304819D01*
X76222381Y-10304819D02*
X76460476Y-10304819D01*
X76460476Y-10304819D02*
X76555714Y-10352438D01*
X76555714Y-10352438D02*
X76603333Y-10400057D01*
X76603333Y-10400057D02*
X76650952Y-10495295D01*
X76650952Y-10495295D02*
X76650952Y-10590533D01*
X76650952Y-10590533D02*
X76603333Y-10733390D01*
X76603333Y-10733390D02*
X76031905Y-11304819D01*
X76031905Y-11304819D02*
X76650952Y-11304819D01*
X16801905Y-83594819D02*
X16801905Y-82594819D01*
X17373333Y-83594819D02*
X16944762Y-83023390D01*
X17373333Y-82594819D02*
X16801905Y-83166247D01*
X17754286Y-82690057D02*
X17801905Y-82642438D01*
X17801905Y-82642438D02*
X17897143Y-82594819D01*
X17897143Y-82594819D02*
X18135238Y-82594819D01*
X18135238Y-82594819D02*
X18230476Y-82642438D01*
X18230476Y-82642438D02*
X18278095Y-82690057D01*
X18278095Y-82690057D02*
X18325714Y-82785295D01*
X18325714Y-82785295D02*
X18325714Y-82880533D01*
X18325714Y-82880533D02*
X18278095Y-83023390D01*
X18278095Y-83023390D02*
X17706667Y-83594819D01*
X17706667Y-83594819D02*
X18325714Y-83594819D01*
X74055714Y-78894819D02*
X74055714Y-77894819D01*
X74627142Y-78894819D02*
X74198571Y-78323390D01*
X74627142Y-77894819D02*
X74055714Y-78466247D01*
X75579523Y-78894819D02*
X75008095Y-78894819D01*
X75293809Y-78894819D02*
X75293809Y-77894819D01*
X75293809Y-77894819D02*
X75198571Y-78037676D01*
X75198571Y-78037676D02*
X75103333Y-78132914D01*
X75103333Y-78132914D02*
X75008095Y-78180533D01*
X75960476Y-77990057D02*
X76008095Y-77942438D01*
X76008095Y-77942438D02*
X76103333Y-77894819D01*
X76103333Y-77894819D02*
X76341428Y-77894819D01*
X76341428Y-77894819D02*
X76436666Y-77942438D01*
X76436666Y-77942438D02*
X76484285Y-77990057D01*
X76484285Y-77990057D02*
X76531904Y-78085295D01*
X76531904Y-78085295D02*
X76531904Y-78180533D01*
X76531904Y-78180533D02*
X76484285Y-78323390D01*
X76484285Y-78323390D02*
X75912857Y-78894819D01*
X75912857Y-78894819D02*
X76531904Y-78894819D01*
X74055714Y-42894819D02*
X74055714Y-41894819D01*
X74627142Y-42894819D02*
X74198571Y-42323390D01*
X74627142Y-41894819D02*
X74055714Y-42466247D01*
X75579523Y-42894819D02*
X75008095Y-42894819D01*
X75293809Y-42894819D02*
X75293809Y-41894819D01*
X75293809Y-41894819D02*
X75198571Y-42037676D01*
X75198571Y-42037676D02*
X75103333Y-42132914D01*
X75103333Y-42132914D02*
X75008095Y-42180533D01*
X76484285Y-41894819D02*
X76008095Y-41894819D01*
X76008095Y-41894819D02*
X75960476Y-42371009D01*
X75960476Y-42371009D02*
X76008095Y-42323390D01*
X76008095Y-42323390D02*
X76103333Y-42275771D01*
X76103333Y-42275771D02*
X76341428Y-42275771D01*
X76341428Y-42275771D02*
X76436666Y-42323390D01*
X76436666Y-42323390D02*
X76484285Y-42371009D01*
X76484285Y-42371009D02*
X76531904Y-42466247D01*
X76531904Y-42466247D02*
X76531904Y-42704342D01*
X76531904Y-42704342D02*
X76484285Y-42799580D01*
X76484285Y-42799580D02*
X76436666Y-42847200D01*
X76436666Y-42847200D02*
X76341428Y-42894819D01*
X76341428Y-42894819D02*
X76103333Y-42894819D01*
X76103333Y-42894819D02*
X76008095Y-42847200D01*
X76008095Y-42847200D02*
X75960476Y-42799580D01*
X16801905Y-101594819D02*
X16801905Y-100594819D01*
X17373333Y-101594819D02*
X16944762Y-101023390D01*
X17373333Y-100594819D02*
X16801905Y-101166247D01*
X18230476Y-100928152D02*
X18230476Y-101594819D01*
X17992381Y-100547200D02*
X17754286Y-101261485D01*
X17754286Y-101261485D02*
X18373333Y-101261485D01*
X16206667Y-138384819D02*
X16206667Y-137384819D01*
X16206667Y-137384819D02*
X16540000Y-138099104D01*
X16540000Y-138099104D02*
X16873333Y-137384819D01*
X16873333Y-137384819D02*
X16873333Y-138384819D01*
X17349524Y-138384819D02*
X17349524Y-137384819D01*
X17349524Y-137861009D02*
X17920952Y-137861009D01*
X17920952Y-138384819D02*
X17920952Y-137384819D01*
X18301905Y-137384819D02*
X18920952Y-137384819D01*
X18920952Y-137384819D02*
X18587619Y-137765771D01*
X18587619Y-137765771D02*
X18730476Y-137765771D01*
X18730476Y-137765771D02*
X18825714Y-137813390D01*
X18825714Y-137813390D02*
X18873333Y-137861009D01*
X18873333Y-137861009D02*
X18920952Y-137956247D01*
X18920952Y-137956247D02*
X18920952Y-138194342D01*
X18920952Y-138194342D02*
X18873333Y-138289580D01*
X18873333Y-138289580D02*
X18825714Y-138337200D01*
X18825714Y-138337200D02*
X18730476Y-138384819D01*
X18730476Y-138384819D02*
X18444762Y-138384819D01*
X18444762Y-138384819D02*
X18349524Y-138337200D01*
X18349524Y-138337200D02*
X18301905Y-138289580D01*
X16206667Y-11304819D02*
X16206667Y-10304819D01*
X16206667Y-10304819D02*
X16540000Y-11019104D01*
X16540000Y-11019104D02*
X16873333Y-10304819D01*
X16873333Y-10304819D02*
X16873333Y-11304819D01*
X17349524Y-11304819D02*
X17349524Y-10304819D01*
X17349524Y-10781009D02*
X17920952Y-10781009D01*
X17920952Y-11304819D02*
X17920952Y-10304819D01*
X18920952Y-11304819D02*
X18349524Y-11304819D01*
X18635238Y-11304819D02*
X18635238Y-10304819D01*
X18635238Y-10304819D02*
X18540000Y-10447676D01*
X18540000Y-10447676D02*
X18444762Y-10542914D01*
X18444762Y-10542914D02*
X18349524Y-10590533D01*
%TO.C,K1*%
D11*
X72270000Y-125040000D02*
X78270000Y-125040000D01*
X72270000Y-131040000D02*
X72270000Y-125040000D01*
X78270000Y-125040000D02*
X78270000Y-131040000D01*
X78270000Y-131040000D02*
X72270000Y-131040000D01*
%TO.C,K21*%
X14540000Y-66540000D02*
X20540000Y-66540000D01*
X14540000Y-72540000D02*
X14540000Y-66540000D01*
X20540000Y-66540000D02*
X20540000Y-72540000D01*
X20540000Y-72540000D02*
X14540000Y-72540000D01*
%TO.C,K19*%
X14540000Y-48540000D02*
X20540000Y-48540000D01*
X14540000Y-54540000D02*
X14540000Y-48540000D01*
X20540000Y-48540000D02*
X20540000Y-54540000D01*
X20540000Y-54540000D02*
X14540000Y-54540000D01*
%TO.C,K10*%
X72270000Y-89040000D02*
X78270000Y-89040000D01*
X72270000Y-95040000D02*
X72270000Y-89040000D01*
X78270000Y-89040000D02*
X78270000Y-95040000D01*
X78270000Y-95040000D02*
X72270000Y-95040000D01*
%TO.C,K17*%
X14540000Y-30540000D02*
X20540000Y-30540000D01*
X14540000Y-36540000D02*
X14540000Y-30540000D01*
X20540000Y-30540000D02*
X20540000Y-36540000D01*
X20540000Y-36540000D02*
X14540000Y-36540000D01*
%TO.C,K18*%
X14540000Y-39540000D02*
X20540000Y-39540000D01*
X14540000Y-45540000D02*
X14540000Y-39540000D01*
X20540000Y-39540000D02*
X20540000Y-45540000D01*
X20540000Y-45540000D02*
X14540000Y-45540000D01*
%TO.C,K23*%
X72270000Y-44040000D02*
X78270000Y-44040000D01*
X72270000Y-50040000D02*
X72270000Y-44040000D01*
X78270000Y-44040000D02*
X78270000Y-50040000D01*
X78270000Y-50040000D02*
X72270000Y-50040000D01*
%TO.C,K8*%
X72270000Y-116040000D02*
X78270000Y-116040000D01*
X72270000Y-122040000D02*
X72270000Y-116040000D01*
X78270000Y-116040000D02*
X78270000Y-122040000D01*
X78270000Y-122040000D02*
X72270000Y-122040000D01*
%TO.C,K11*%
X72270000Y-80040000D02*
X78270000Y-80040000D01*
X72270000Y-86040000D02*
X72270000Y-80040000D01*
X78270000Y-80040000D02*
X78270000Y-86040000D01*
X78270000Y-86040000D02*
X72270000Y-86040000D01*
%TO.C,K13*%
X72270000Y-62040000D02*
X78270000Y-62040000D01*
X72270000Y-68040000D02*
X72270000Y-62040000D01*
X78270000Y-62040000D02*
X78270000Y-68040000D01*
X78270000Y-68040000D02*
X72270000Y-68040000D01*
%TO.C,K6*%
X14540000Y-120540000D02*
X20540000Y-120540000D01*
X14540000Y-126540000D02*
X14540000Y-120540000D01*
X20540000Y-120540000D02*
X20540000Y-126540000D01*
X20540000Y-126540000D02*
X14540000Y-126540000D01*
%TO.C,IV*%
X14540000Y-75540000D02*
X20540000Y-75540000D01*
X14540000Y-81540000D02*
X14540000Y-75540000D01*
X20540000Y-75540000D02*
X20540000Y-81540000D01*
X20540000Y-81540000D02*
X14540000Y-81540000D01*
%TO.C,K0*%
X72270000Y-107040000D02*
X78270000Y-107040000D01*
X72270000Y-113040000D02*
X72270000Y-107040000D01*
X78270000Y-107040000D02*
X78270000Y-113040000D01*
X78270000Y-113040000D02*
X72270000Y-113040000D01*
%TO.C,K22*%
X72270000Y-26040000D02*
X78270000Y-26040000D01*
X72270000Y-32040000D02*
X72270000Y-26040000D01*
X78270000Y-26040000D02*
X78270000Y-32040000D01*
X78270000Y-32040000D02*
X72270000Y-32040000D01*
%TO.C,K7*%
X14540000Y-129540000D02*
X20540000Y-129540000D01*
X14540000Y-135540000D02*
X14540000Y-129540000D01*
X20540000Y-129540000D02*
X20540000Y-135540000D01*
X20540000Y-135540000D02*
X14540000Y-135540000D01*
%TO.C,K3*%
X14540000Y-93540000D02*
X20540000Y-93540000D01*
X14540000Y-99540000D02*
X14540000Y-93540000D01*
X20540000Y-93540000D02*
X20540000Y-99540000D01*
X20540000Y-99540000D02*
X14540000Y-99540000D01*
%TO.C,J5*%
D12*
X42785000Y-57900000D02*
X42785000Y-60040000D01*
X42785000Y-77040000D02*
X42785000Y-80040000D01*
X42785000Y-96940000D02*
X42785000Y-99180000D01*
X50025000Y-57900000D02*
X44605000Y-57900000D01*
X50025000Y-60040000D02*
X50025000Y-57900000D01*
X50025000Y-80040000D02*
X50025000Y-77040000D01*
X50025000Y-96940000D02*
X50025000Y-99180000D01*
X50025000Y-99180000D02*
X44605000Y-99180000D01*
X51205000Y-96140000D02*
G75*
G02*
X51005000Y-96140000I-100000J0D01*
G01*
X51005000Y-96140000D02*
G75*
G02*
X51205000Y-96140000I100000J0D01*
G01*
%TO.C,K20*%
D11*
X14540000Y-57540000D02*
X20540000Y-57540000D01*
X14540000Y-63540000D02*
X14540000Y-57540000D01*
X20540000Y-57540000D02*
X20540000Y-63540000D01*
X20540000Y-63540000D02*
X14540000Y-63540000D01*
%TO.C,K16*%
X14540000Y-21540000D02*
X20540000Y-21540000D01*
X14540000Y-27540000D02*
X14540000Y-21540000D01*
X20540000Y-21540000D02*
X20540000Y-27540000D01*
X20540000Y-27540000D02*
X14540000Y-27540000D01*
%TO.C,K5*%
X14540000Y-111540000D02*
X20540000Y-111540000D01*
X14540000Y-117540000D02*
X14540000Y-111540000D01*
X20540000Y-111540000D02*
X20540000Y-117540000D01*
X20540000Y-117540000D02*
X14540000Y-117540000D01*
%TO.C,K14*%
X72270000Y-53040000D02*
X78270000Y-53040000D01*
X72270000Y-59040000D02*
X72270000Y-53040000D01*
X78270000Y-53040000D02*
X78270000Y-59040000D01*
X78270000Y-59040000D02*
X72270000Y-59040000D01*
%TO.C,K9*%
X72270000Y-98040000D02*
X78270000Y-98040000D01*
X72270000Y-104040000D02*
X72270000Y-98040000D01*
X78270000Y-98040000D02*
X78270000Y-104040000D01*
X78270000Y-104040000D02*
X72270000Y-104040000D01*
%TO.C,K2*%
X14540000Y-84540000D02*
X20540000Y-84540000D01*
X14540000Y-90540000D02*
X14540000Y-84540000D01*
X20540000Y-84540000D02*
X20540000Y-90540000D01*
X20540000Y-90540000D02*
X14540000Y-90540000D01*
%TO.C,K12*%
X72270000Y-71040000D02*
X78270000Y-71040000D01*
X72270000Y-77040000D02*
X72270000Y-71040000D01*
X78270000Y-71040000D02*
X78270000Y-77040000D01*
X78270000Y-77040000D02*
X72270000Y-77040000D01*
%TO.C,K15*%
X72270000Y-35040000D02*
X78270000Y-35040000D01*
X72270000Y-41040000D02*
X72270000Y-35040000D01*
X78270000Y-35040000D02*
X78270000Y-41040000D01*
X78270000Y-41040000D02*
X72270000Y-41040000D01*
%TO.C,K4*%
X14540000Y-102540000D02*
X20540000Y-102540000D01*
X14540000Y-108540000D02*
X14540000Y-102540000D01*
X20540000Y-102540000D02*
X20540000Y-108540000D01*
X20540000Y-108540000D02*
X14540000Y-108540000D01*
%TD*%
M02*
