%TF.GenerationSoftware,KiCad,Pcbnew,10.0.3*%
%TF.CreationDate,2026-06-24T00:17:38-04:00*%
%TF.ProjectId,board-A-mcx,626f6172-642d-4412-9d6d-63782e6b6963,rev?*%
%TF.SameCoordinates,Original*%
%TF.FileFunction,AssemblyDrawing,Bot*%
%FSLAX46Y46*%
G04 Gerber Fmt 4.6, Leading zero omitted, Abs format (unit mm)*
G04 Created by KiCad (PCBNEW 10.0.3) date 2026-06-24 00:17:38*
%MOMM*%
%LPD*%
G01*
G04 APERTURE LIST*
%ADD10C,0.150000*%
%ADD11C,0.100000*%
%ADD12C,0.200000*%
G04 APERTURE END LIST*
D10*
X41827200Y-74221667D02*
X41874819Y-74364524D01*
X41874819Y-74364524D02*
X41874819Y-74602619D01*
X41874819Y-74602619D02*
X41827200Y-74697857D01*
X41827200Y-74697857D02*
X41779580Y-74745476D01*
X41779580Y-74745476D02*
X41684342Y-74793095D01*
X41684342Y-74793095D02*
X41589104Y-74793095D01*
X41589104Y-74793095D02*
X41493866Y-74745476D01*
X41493866Y-74745476D02*
X41446247Y-74697857D01*
X41446247Y-74697857D02*
X41398628Y-74602619D01*
X41398628Y-74602619D02*
X41351009Y-74412143D01*
X41351009Y-74412143D02*
X41303390Y-74316905D01*
X41303390Y-74316905D02*
X41255771Y-74269286D01*
X41255771Y-74269286D02*
X41160533Y-74221667D01*
X41160533Y-74221667D02*
X41065295Y-74221667D01*
X41065295Y-74221667D02*
X40970057Y-74269286D01*
X40970057Y-74269286D02*
X40922438Y-74316905D01*
X40922438Y-74316905D02*
X40874819Y-74412143D01*
X40874819Y-74412143D02*
X40874819Y-74650238D01*
X40874819Y-74650238D02*
X40922438Y-74793095D01*
X41589104Y-75174048D02*
X41589104Y-75650238D01*
X41874819Y-75078810D02*
X40874819Y-75412143D01*
X40874819Y-75412143D02*
X41874819Y-75745476D01*
X41874819Y-76078810D02*
X40874819Y-76078810D01*
X40874819Y-76078810D02*
X41589104Y-76412143D01*
X41589104Y-76412143D02*
X40874819Y-76745476D01*
X40874819Y-76745476D02*
X41874819Y-76745476D01*
X40874819Y-77078810D02*
X40874819Y-77650238D01*
X41874819Y-77364524D02*
X40874819Y-77364524D01*
X41351009Y-77983572D02*
X41351009Y-78316905D01*
X41874819Y-78459762D02*
X41874819Y-77983572D01*
X41874819Y-77983572D02*
X40874819Y-77983572D01*
X40874819Y-77983572D02*
X40874819Y-78459762D01*
X41779580Y-79459762D02*
X41827200Y-79412143D01*
X41827200Y-79412143D02*
X41874819Y-79269286D01*
X41874819Y-79269286D02*
X41874819Y-79174048D01*
X41874819Y-79174048D02*
X41827200Y-79031191D01*
X41827200Y-79031191D02*
X41731961Y-78935953D01*
X41731961Y-78935953D02*
X41636723Y-78888334D01*
X41636723Y-78888334D02*
X41446247Y-78840715D01*
X41446247Y-78840715D02*
X41303390Y-78840715D01*
X41303390Y-78840715D02*
X41112914Y-78888334D01*
X41112914Y-78888334D02*
X41017676Y-78935953D01*
X41017676Y-78935953D02*
X40922438Y-79031191D01*
X40922438Y-79031191D02*
X40874819Y-79174048D01*
X40874819Y-79174048D02*
X40874819Y-79269286D01*
X40874819Y-79269286D02*
X40922438Y-79412143D01*
X40922438Y-79412143D02*
X40970057Y-79459762D01*
X41970057Y-79650239D02*
X41970057Y-80412143D01*
X41970057Y-81316905D02*
X41922438Y-81221667D01*
X41922438Y-81221667D02*
X41827200Y-81126429D01*
X41827200Y-81126429D02*
X41684342Y-80983572D01*
X41684342Y-80983572D02*
X41636723Y-80888334D01*
X41636723Y-80888334D02*
X41636723Y-80793096D01*
X41874819Y-80840715D02*
X41827200Y-80745477D01*
X41827200Y-80745477D02*
X41731961Y-80650239D01*
X41731961Y-80650239D02*
X41541485Y-80602620D01*
X41541485Y-80602620D02*
X41208152Y-80602620D01*
X41208152Y-80602620D02*
X41017676Y-80650239D01*
X41017676Y-80650239D02*
X40922438Y-80745477D01*
X40922438Y-80745477D02*
X40874819Y-80840715D01*
X40874819Y-80840715D02*
X40874819Y-81031191D01*
X40874819Y-81031191D02*
X40922438Y-81126429D01*
X40922438Y-81126429D02*
X41017676Y-81221667D01*
X41017676Y-81221667D02*
X41208152Y-81269286D01*
X41208152Y-81269286D02*
X41541485Y-81269286D01*
X41541485Y-81269286D02*
X41731961Y-81221667D01*
X41731961Y-81221667D02*
X41827200Y-81126429D01*
X41827200Y-81126429D02*
X41874819Y-81031191D01*
X41874819Y-81031191D02*
X41874819Y-80840715D01*
X41827200Y-81650239D02*
X41874819Y-81793096D01*
X41874819Y-81793096D02*
X41874819Y-82031191D01*
X41874819Y-82031191D02*
X41827200Y-82126429D01*
X41827200Y-82126429D02*
X41779580Y-82174048D01*
X41779580Y-82174048D02*
X41684342Y-82221667D01*
X41684342Y-82221667D02*
X41589104Y-82221667D01*
X41589104Y-82221667D02*
X41493866Y-82174048D01*
X41493866Y-82174048D02*
X41446247Y-82126429D01*
X41446247Y-82126429D02*
X41398628Y-82031191D01*
X41398628Y-82031191D02*
X41351009Y-81840715D01*
X41351009Y-81840715D02*
X41303390Y-81745477D01*
X41303390Y-81745477D02*
X41255771Y-81697858D01*
X41255771Y-81697858D02*
X41160533Y-81650239D01*
X41160533Y-81650239D02*
X41065295Y-81650239D01*
X41065295Y-81650239D02*
X40970057Y-81697858D01*
X40970057Y-81697858D02*
X40922438Y-81745477D01*
X40922438Y-81745477D02*
X40874819Y-81840715D01*
X40874819Y-81840715D02*
X40874819Y-82078810D01*
X40874819Y-82078810D02*
X40922438Y-82221667D01*
X41351009Y-82650239D02*
X41351009Y-82983572D01*
X41874819Y-83126429D02*
X41874819Y-82650239D01*
X41874819Y-82650239D02*
X40874819Y-82650239D01*
X40874819Y-82650239D02*
X40874819Y-83126429D01*
X41493866Y-83555001D02*
X41493866Y-84316906D01*
X40874819Y-84983572D02*
X40874819Y-85078810D01*
X40874819Y-85078810D02*
X40922438Y-85174048D01*
X40922438Y-85174048D02*
X40970057Y-85221667D01*
X40970057Y-85221667D02*
X41065295Y-85269286D01*
X41065295Y-85269286D02*
X41255771Y-85316905D01*
X41255771Y-85316905D02*
X41493866Y-85316905D01*
X41493866Y-85316905D02*
X41684342Y-85269286D01*
X41684342Y-85269286D02*
X41779580Y-85221667D01*
X41779580Y-85221667D02*
X41827200Y-85174048D01*
X41827200Y-85174048D02*
X41874819Y-85078810D01*
X41874819Y-85078810D02*
X41874819Y-84983572D01*
X41874819Y-84983572D02*
X41827200Y-84888334D01*
X41827200Y-84888334D02*
X41779580Y-84840715D01*
X41779580Y-84840715D02*
X41684342Y-84793096D01*
X41684342Y-84793096D02*
X41493866Y-84745477D01*
X41493866Y-84745477D02*
X41255771Y-84745477D01*
X41255771Y-84745477D02*
X41065295Y-84793096D01*
X41065295Y-84793096D02*
X40970057Y-84840715D01*
X40970057Y-84840715D02*
X40922438Y-84888334D01*
X40922438Y-84888334D02*
X40874819Y-84983572D01*
X41208152Y-86174048D02*
X41874819Y-86174048D01*
X40827200Y-85935953D02*
X41541485Y-85697858D01*
X41541485Y-85697858D02*
X41541485Y-86316905D01*
X40874819Y-86888334D02*
X40874819Y-86983572D01*
X40874819Y-86983572D02*
X40922438Y-87078810D01*
X40922438Y-87078810D02*
X40970057Y-87126429D01*
X40970057Y-87126429D02*
X41065295Y-87174048D01*
X41065295Y-87174048D02*
X41255771Y-87221667D01*
X41255771Y-87221667D02*
X41493866Y-87221667D01*
X41493866Y-87221667D02*
X41684342Y-87174048D01*
X41684342Y-87174048D02*
X41779580Y-87126429D01*
X41779580Y-87126429D02*
X41827200Y-87078810D01*
X41827200Y-87078810D02*
X41874819Y-86983572D01*
X41874819Y-86983572D02*
X41874819Y-86888334D01*
X41874819Y-86888334D02*
X41827200Y-86793096D01*
X41827200Y-86793096D02*
X41779580Y-86745477D01*
X41779580Y-86745477D02*
X41684342Y-86697858D01*
X41684342Y-86697858D02*
X41493866Y-86650239D01*
X41493866Y-86650239D02*
X41255771Y-86650239D01*
X41255771Y-86650239D02*
X41065295Y-86697858D01*
X41065295Y-86697858D02*
X40970057Y-86745477D01*
X40970057Y-86745477D02*
X40922438Y-86793096D01*
X40922438Y-86793096D02*
X40874819Y-86888334D01*
X41493866Y-87650239D02*
X41493866Y-88412144D01*
X40874819Y-89078810D02*
X40874819Y-89174048D01*
X40874819Y-89174048D02*
X40922438Y-89269286D01*
X40922438Y-89269286D02*
X40970057Y-89316905D01*
X40970057Y-89316905D02*
X41065295Y-89364524D01*
X41065295Y-89364524D02*
X41255771Y-89412143D01*
X41255771Y-89412143D02*
X41493866Y-89412143D01*
X41493866Y-89412143D02*
X41684342Y-89364524D01*
X41684342Y-89364524D02*
X41779580Y-89316905D01*
X41779580Y-89316905D02*
X41827200Y-89269286D01*
X41827200Y-89269286D02*
X41874819Y-89174048D01*
X41874819Y-89174048D02*
X41874819Y-89078810D01*
X41874819Y-89078810D02*
X41827200Y-88983572D01*
X41827200Y-88983572D02*
X41779580Y-88935953D01*
X41779580Y-88935953D02*
X41684342Y-88888334D01*
X41684342Y-88888334D02*
X41493866Y-88840715D01*
X41493866Y-88840715D02*
X41255771Y-88840715D01*
X41255771Y-88840715D02*
X41065295Y-88888334D01*
X41065295Y-88888334D02*
X40970057Y-88935953D01*
X40970057Y-88935953D02*
X40922438Y-88983572D01*
X40922438Y-88983572D02*
X40874819Y-89078810D01*
X41874819Y-90364524D02*
X41874819Y-89793096D01*
X41874819Y-90078810D02*
X40874819Y-90078810D01*
X40874819Y-90078810D02*
X41017676Y-89983572D01*
X41017676Y-89983572D02*
X41112914Y-89888334D01*
X41112914Y-89888334D02*
X41160533Y-89793096D01*
X41493866Y-90793096D02*
X41493866Y-91555001D01*
X40874819Y-91935953D02*
X41874819Y-92602619D01*
X40874819Y-92602619D02*
X41874819Y-91935953D01*
X41493866Y-92983572D02*
X41493866Y-93745477D01*
X41874819Y-94221667D02*
X40874819Y-94221667D01*
X40874819Y-94221667D02*
X40874819Y-94459762D01*
X40874819Y-94459762D02*
X40922438Y-94602619D01*
X40922438Y-94602619D02*
X41017676Y-94697857D01*
X41017676Y-94697857D02*
X41112914Y-94745476D01*
X41112914Y-94745476D02*
X41303390Y-94793095D01*
X41303390Y-94793095D02*
X41446247Y-94793095D01*
X41446247Y-94793095D02*
X41636723Y-94745476D01*
X41636723Y-94745476D02*
X41731961Y-94697857D01*
X41731961Y-94697857D02*
X41827200Y-94602619D01*
X41827200Y-94602619D02*
X41874819Y-94459762D01*
X41874819Y-94459762D02*
X41874819Y-94221667D01*
X41493866Y-95221667D02*
X41493866Y-95983572D01*
X41589104Y-96412143D02*
X41589104Y-96888333D01*
X41874819Y-96316905D02*
X40874819Y-96650238D01*
X40874819Y-96650238D02*
X41874819Y-96983571D01*
%TO.C,J5*%
D11*
X43515000Y-58630000D02*
X43515000Y-99910000D01*
X43515000Y-99910000D02*
X50755000Y-99910000D01*
X50755000Y-58630000D02*
X43515000Y-58630000D01*
X50755000Y-99910000D02*
X50755000Y-58630000D01*
D12*
X42535000Y-96870000D02*
G75*
G02*
X42335000Y-96870000I-100000J0D01*
G01*
X42335000Y-96870000D02*
G75*
G02*
X42535000Y-96870000I100000J0D01*
G01*
%TD*%
M02*
