%TF.GenerationSoftware,KiCad,Pcbnew,10.0.3*%
%TF.CreationDate,2026-06-19T01:00:04-04:00*%
%TF.ProjectId,board-A-mcx,626f6172-642d-4412-9d6d-63782e6b6963,rev?*%
%TF.SameCoordinates,Original*%
%TF.FileFunction,Copper,L1,Top*%
%TF.FilePolarity,Positive*%
%FSLAX46Y46*%
G04 Gerber Fmt 4.6, Leading zero omitted, Abs format (unit mm)*
G04 Created by KiCad (PCBNEW 10.0.3) date 2026-06-19 01:00:04*
%MOMM*%
%LPD*%
G01*
G04 APERTURE LIST*
%TA.AperFunction,ComponentPad*%
%ADD10C,1.700000*%
%TD*%
%TA.AperFunction,ComponentPad*%
%ADD11C,2.000000*%
%TD*%
%TA.AperFunction,SMDPad,CuDef*%
%ADD12R,2.270000X0.410000*%
%TD*%
%TA.AperFunction,SMDPad,CuDef*%
%ADD13R,0.430000X2.540000*%
%TD*%
%TA.AperFunction,SMDPad,CuDef*%
%ADD14R,0.430000X4.700000*%
%TD*%
%TA.AperFunction,ViaPad*%
%ADD15C,0.600000*%
%TD*%
%TA.AperFunction,Conductor*%
%ADD16C,0.340000*%
%TD*%
G04 APERTURE END LIST*
D10*
%TO.P,K1,1*%
%TO.N,SIPM_K1*%
X75270000Y-128040000D03*
D11*
%TO.P,K1,2*%
%TO.N,GNDA*%
X77810000Y-130580000D03*
X77810000Y-125500000D03*
X72730000Y-130580000D03*
X72730000Y-125500000D03*
%TD*%
D10*
%TO.P,K21,1*%
%TO.N,SIPM_K21*%
X17540000Y-69540000D03*
D11*
%TO.P,K21,2*%
%TO.N,GNDA*%
X15000000Y-67000000D03*
X15000000Y-72080000D03*
X20080000Y-67000000D03*
X20080000Y-72080000D03*
%TD*%
D10*
%TO.P,K19,1*%
%TO.N,SIPM_K19*%
X17540000Y-51540000D03*
D11*
%TO.P,K19,2*%
%TO.N,GNDA*%
X15000000Y-49000000D03*
X15000000Y-54080000D03*
X20080000Y-49000000D03*
X20080000Y-54080000D03*
%TD*%
D10*
%TO.P,K10,1*%
%TO.N,SIPM_K10*%
X75270000Y-92040000D03*
D11*
%TO.P,K10,2*%
%TO.N,GNDA*%
X77810000Y-94580000D03*
X77810000Y-89500000D03*
X72730000Y-94580000D03*
X72730000Y-89500000D03*
%TD*%
D10*
%TO.P,K17,1*%
%TO.N,SIPM_K17*%
X17540000Y-33540000D03*
D11*
%TO.P,K17,2*%
%TO.N,GNDA*%
X15000000Y-31000000D03*
X15000000Y-36080000D03*
X20080000Y-31000000D03*
X20080000Y-36080000D03*
%TD*%
D10*
%TO.P,K18,1*%
%TO.N,SIPM_K18*%
X17540000Y-42540000D03*
D11*
%TO.P,K18,2*%
%TO.N,GNDA*%
X15000000Y-40000000D03*
X15000000Y-45080000D03*
X20080000Y-40000000D03*
X20080000Y-45080000D03*
%TD*%
D10*
%TO.P,K23,1*%
%TO.N,SIPM_K23*%
X75270000Y-47040000D03*
D11*
%TO.P,K23,2*%
%TO.N,GNDA*%
X77810000Y-49580000D03*
X77810000Y-44500000D03*
X72730000Y-49580000D03*
X72730000Y-44500000D03*
%TD*%
D10*
%TO.P,K8,1*%
%TO.N,SIPM_K8*%
X75270000Y-119040000D03*
D11*
%TO.P,K8,2*%
%TO.N,GNDA*%
X77810000Y-121580000D03*
X77810000Y-116500000D03*
X72730000Y-121580000D03*
X72730000Y-116500000D03*
%TD*%
D10*
%TO.P,K11,1*%
%TO.N,SIPM_K11*%
X75270000Y-83040000D03*
D11*
%TO.P,K11,2*%
%TO.N,GNDA*%
X77810000Y-85580000D03*
X77810000Y-80500000D03*
X72730000Y-85580000D03*
X72730000Y-80500000D03*
%TD*%
D10*
%TO.P,K13,1*%
%TO.N,SIPM_K13*%
X75270000Y-65040000D03*
D11*
%TO.P,K13,2*%
%TO.N,GNDA*%
X77810000Y-67580000D03*
X77810000Y-62500000D03*
X72730000Y-67580000D03*
X72730000Y-62500000D03*
%TD*%
D10*
%TO.P,K6,1*%
%TO.N,SIPM_K6*%
X17540000Y-123540000D03*
D11*
%TO.P,K6,2*%
%TO.N,GNDA*%
X15000000Y-121000000D03*
X15000000Y-126080000D03*
X20080000Y-121000000D03*
X20080000Y-126080000D03*
%TD*%
D10*
%TO.P,IV,1*%
%TO.N,IV*%
X17540000Y-78540000D03*
D11*
%TO.P,IV,2*%
%TO.N,GNDA*%
X15000000Y-76000000D03*
X15000000Y-81080000D03*
X20080000Y-76000000D03*
X20080000Y-81080000D03*
%TD*%
D10*
%TO.P,K0,1*%
%TO.N,SIPM_K0*%
X75270000Y-110040000D03*
D11*
%TO.P,K0,2*%
%TO.N,GNDA*%
X77810000Y-112580000D03*
X77810000Y-107500000D03*
X72730000Y-112580000D03*
X72730000Y-107500000D03*
%TD*%
D10*
%TO.P,K22,1*%
%TO.N,SIPM_K22*%
X75270000Y-29040000D03*
D11*
%TO.P,K22,2*%
%TO.N,GNDA*%
X77810000Y-31580000D03*
X77810000Y-26500000D03*
X72730000Y-31580000D03*
X72730000Y-26500000D03*
%TD*%
D10*
%TO.P,K7,1*%
%TO.N,SIPM_K7*%
X17540000Y-132540000D03*
D11*
%TO.P,K7,2*%
%TO.N,GNDA*%
X15000000Y-130000000D03*
X15000000Y-135080000D03*
X20080000Y-130000000D03*
X20080000Y-135080000D03*
%TD*%
D10*
%TO.P,K3,1*%
%TO.N,SIPM_K3*%
X17540000Y-96540000D03*
D11*
%TO.P,K3,2*%
%TO.N,GNDA*%
X15000000Y-94000000D03*
X15000000Y-99080000D03*
X20080000Y-94000000D03*
X20080000Y-99080000D03*
%TD*%
D12*
%TO.P,J5,01*%
%TO.N,GNDA*%
X49270000Y-96140000D03*
%TO.P,J5,02*%
%TO.N,SIPM_K7*%
X43540000Y-96140000D03*
%TO.P,J5,03*%
%TO.N,GNDA*%
X49270000Y-95340000D03*
%TO.P,J5,04*%
X43540000Y-95340000D03*
%TO.P,J5,05*%
X49270000Y-94540000D03*
%TO.P,J5,06*%
%TO.N,SIPM_K6*%
X43540000Y-94540000D03*
%TO.P,J5,07*%
%TO.N,GNDA*%
X49270000Y-93740000D03*
%TO.P,J5,08*%
X43540000Y-93740000D03*
%TO.P,J5,09*%
X49270000Y-92940000D03*
%TO.P,J5,10*%
%TO.N,SIPM_K5*%
X43540000Y-92940000D03*
%TO.P,J5,11*%
%TO.N,GNDA*%
X49270000Y-92140000D03*
%TO.P,J5,12*%
X43540000Y-92140000D03*
%TO.P,J5,13*%
X49270000Y-91340000D03*
%TO.P,J5,14*%
%TO.N,SIPM_K4*%
X43540000Y-91340000D03*
%TO.P,J5,15*%
%TO.N,GNDA*%
X49270000Y-90540000D03*
%TO.P,J5,16*%
X43540000Y-90540000D03*
%TO.P,J5,17*%
X49270000Y-89740000D03*
%TO.P,J5,18*%
%TO.N,SIPM_K3*%
X43540000Y-89740000D03*
%TO.P,J5,19*%
%TO.N,GNDA*%
X49270000Y-88940000D03*
%TO.P,J5,20*%
X43540000Y-88940000D03*
%TO.P,J5,21*%
X49270000Y-88140000D03*
%TO.P,J5,22*%
%TO.N,SIPM_K2*%
X43540000Y-88140000D03*
%TO.P,J5,23*%
%TO.N,GNDA*%
X49270000Y-87340000D03*
%TO.P,J5,24*%
X43540000Y-87340000D03*
%TO.P,J5,25*%
X49270000Y-86540000D03*
%TO.P,J5,26*%
%TO.N,SIPM_K1*%
X43540000Y-86540000D03*
%TO.P,J5,27*%
%TO.N,SIPM_K8*%
X49270000Y-85740000D03*
%TO.P,J5,28*%
%TO.N,GNDA*%
X43540000Y-85740000D03*
%TO.P,J5,29*%
X49270000Y-84940000D03*
%TO.P,J5,30*%
%TO.N,SIPM_K0*%
X43540000Y-84940000D03*
%TO.P,J5,31*%
%TO.N,SIPM_K9*%
X49270000Y-84140000D03*
%TO.P,J5,32*%
%TO.N,GNDA*%
X43540000Y-84140000D03*
%TO.P,J5,33*%
X49270000Y-83340000D03*
%TO.P,J5,34*%
X43540000Y-83340000D03*
%TO.P,J5,35*%
%TO.N,SIPM_K10*%
X49270000Y-82540000D03*
%TO.P,J5,36*%
%TO.N,GNDA*%
X43540000Y-82540000D03*
%TO.P,J5,37*%
X49270000Y-81740000D03*
%TO.P,J5,38*%
X43540000Y-81740000D03*
%TO.P,J5,39*%
%TO.N,SIPM_K11*%
X49270000Y-80940000D03*
%TO.P,J5,40*%
%TO.N,IV*%
X43540000Y-80940000D03*
%TO.P,J5,41*%
%TO.N,SIPM_K12*%
X49270000Y-76140000D03*
%TO.P,J5,42*%
%TO.N,IV*%
X43540000Y-76140000D03*
%TO.P,J5,43*%
%TO.N,GNDA*%
X49270000Y-75340000D03*
%TO.P,J5,44*%
X43540000Y-75340000D03*
%TO.P,J5,45*%
%TO.N,SIPM_K13*%
X49270000Y-74540000D03*
%TO.P,J5,46*%
%TO.N,GNDA*%
X43540000Y-74540000D03*
%TO.P,J5,47*%
X49270000Y-73740000D03*
%TO.P,J5,48*%
X43540000Y-73740000D03*
%TO.P,J5,49*%
%TO.N,SIPM_K14*%
X49270000Y-72940000D03*
%TO.P,J5,50*%
%TO.N,GNDA*%
X43540000Y-72940000D03*
%TO.P,J5,51*%
X49270000Y-72140000D03*
%TO.P,J5,52*%
%TO.N,SIPM_K23*%
X43540000Y-72140000D03*
%TO.P,J5,53*%
%TO.N,SIPM_K15*%
X49270000Y-71340000D03*
%TO.P,J5,54*%
%TO.N,GNDA*%
X43540000Y-71340000D03*
%TO.P,J5,55*%
X49270000Y-70540000D03*
%TO.P,J5,56*%
%TO.N,SIPM_K22*%
X43540000Y-70540000D03*
%TO.P,J5,57*%
%TO.N,GNDA*%
X49270000Y-69740000D03*
%TO.P,J5,58*%
X43540000Y-69740000D03*
%TO.P,J5,59*%
X49270000Y-68940000D03*
%TO.P,J5,60*%
%TO.N,SIPM_K21*%
X43540000Y-68940000D03*
%TO.P,J5,61*%
%TO.N,GNDA*%
X49270000Y-68140000D03*
%TO.P,J5,62*%
X43540000Y-68140000D03*
%TO.P,J5,63*%
X49270000Y-67340000D03*
%TO.P,J5,64*%
%TO.N,SIPM_K20*%
X43540000Y-67340000D03*
%TO.P,J5,65*%
%TO.N,GNDA*%
X49270000Y-66540000D03*
%TO.P,J5,66*%
X43540000Y-66540000D03*
%TO.P,J5,67*%
X49270000Y-65740000D03*
%TO.P,J5,68*%
%TO.N,SIPM_K19*%
X43540000Y-65740000D03*
%TO.P,J5,69*%
%TO.N,GNDA*%
X49270000Y-64940000D03*
%TO.P,J5,70*%
X43540000Y-64940000D03*
%TO.P,J5,71*%
X49270000Y-64140000D03*
%TO.P,J5,72*%
%TO.N,SIPM_K18*%
X43540000Y-64140000D03*
%TO.P,J5,73*%
%TO.N,GNDA*%
X49270000Y-63340000D03*
%TO.P,J5,74*%
X43540000Y-63340000D03*
%TO.P,J5,75*%
X49270000Y-62540000D03*
%TO.P,J5,76*%
%TO.N,SIPM_K17*%
X43540000Y-62540000D03*
%TO.P,J5,77*%
%TO.N,THERM4*%
X49270000Y-61740000D03*
%TO.P,J5,78*%
%TO.N,GNDA*%
X43540000Y-61740000D03*
%TO.P,J5,79*%
%TO.N,THERM5*%
X49270000Y-60940000D03*
%TO.P,J5,80*%
%TO.N,SIPM_K16*%
X43540000Y-60940000D03*
D13*
%TO.P,J5,G1*%
%TO.N,GNDA*%
X46405000Y-96605000D03*
D14*
%TO.P,J5,G2*%
X46405000Y-91715000D03*
%TO.P,J5,G3*%
X46405000Y-85365000D03*
D13*
%TO.P,J5,G4*%
X46405000Y-80475000D03*
%TO.P,J5,G5*%
X46405000Y-76605000D03*
D14*
%TO.P,J5,G6*%
X46405000Y-71715000D03*
%TO.P,J5,G7*%
X46405000Y-65365000D03*
D13*
%TO.P,J5,G8*%
X46405000Y-60475000D03*
%TD*%
D10*
%TO.P,K20,1*%
%TO.N,SIPM_K20*%
X17540000Y-60540000D03*
D11*
%TO.P,K20,2*%
%TO.N,GNDA*%
X15000000Y-58000000D03*
X15000000Y-63080000D03*
X20080000Y-58000000D03*
X20080000Y-63080000D03*
%TD*%
D10*
%TO.P,K16,1*%
%TO.N,SIPM_K16*%
X17540000Y-24540000D03*
D11*
%TO.P,K16,2*%
%TO.N,GNDA*%
X15000000Y-22000000D03*
X15000000Y-27080000D03*
X20080000Y-22000000D03*
X20080000Y-27080000D03*
%TD*%
D10*
%TO.P,K5,1*%
%TO.N,SIPM_K5*%
X17540000Y-114540000D03*
D11*
%TO.P,K5,2*%
%TO.N,GNDA*%
X15000000Y-112000000D03*
X15000000Y-117080000D03*
X20080000Y-112000000D03*
X20080000Y-117080000D03*
%TD*%
D10*
%TO.P,K14,1*%
%TO.N,SIPM_K14*%
X75270000Y-56040000D03*
D11*
%TO.P,K14,2*%
%TO.N,GNDA*%
X77810000Y-58580000D03*
X77810000Y-53500000D03*
X72730000Y-58580000D03*
X72730000Y-53500000D03*
%TD*%
D10*
%TO.P,K9,1*%
%TO.N,SIPM_K9*%
X75270000Y-101040000D03*
D11*
%TO.P,K9,2*%
%TO.N,GNDA*%
X77810000Y-103580000D03*
X77810000Y-98500000D03*
X72730000Y-103580000D03*
X72730000Y-98500000D03*
%TD*%
D10*
%TO.P,K2,1*%
%TO.N,SIPM_K2*%
X17540000Y-87540000D03*
D11*
%TO.P,K2,2*%
%TO.N,GNDA*%
X15000000Y-85000000D03*
X15000000Y-90080000D03*
X20080000Y-85000000D03*
X20080000Y-90080000D03*
%TD*%
D10*
%TO.P,K12,1*%
%TO.N,SIPM_K12*%
X75270000Y-74040000D03*
D11*
%TO.P,K12,2*%
%TO.N,GNDA*%
X77810000Y-76580000D03*
X77810000Y-71500000D03*
X72730000Y-76580000D03*
X72730000Y-71500000D03*
%TD*%
D10*
%TO.P,K15,1*%
%TO.N,SIPM_K15*%
X75270000Y-38040000D03*
D11*
%TO.P,K15,2*%
%TO.N,GNDA*%
X77810000Y-40580000D03*
X77810000Y-35500000D03*
X72730000Y-40580000D03*
X72730000Y-35500000D03*
%TD*%
D10*
%TO.P,K4,1*%
%TO.N,SIPM_K4*%
X17540000Y-105540000D03*
D11*
%TO.P,K4,2*%
%TO.N,GNDA*%
X15000000Y-103000000D03*
X15000000Y-108080000D03*
X20080000Y-103000000D03*
X20080000Y-108080000D03*
%TD*%
D15*
%TO.N,SIPM_K1*%
X41540000Y-86540000D03*
%TO.N,GNDA*%
X47925000Y-144155000D03*
X29925000Y-12925000D03*
X11925000Y-144155000D03*
X59925000Y-144155000D03*
X29925000Y-144155000D03*
X65925000Y-12925000D03*
X41925000Y-12925000D03*
X11925000Y-12925000D03*
X35925000Y-12925000D03*
X71925000Y-144155000D03*
X47925000Y-12925000D03*
X35925000Y-144155000D03*
X23925000Y-12925000D03*
X71925000Y-12925000D03*
X41925000Y-144155000D03*
X59925000Y-12925000D03*
X23925000Y-144155000D03*
X53925000Y-12925000D03*
X53925000Y-144155000D03*
X65925000Y-144155000D03*
%TO.N,SIPM_K23*%
X41540000Y-72140000D03*
%TO.N,SIPM_K0*%
X41540000Y-84940000D03*
%TO.N,SIPM_K22*%
X41540000Y-70540000D03*
%TD*%
%TO.N,SIPM_K1*%
D16*
X43540000Y-86540000D02*
X41540000Y-86540000D01*
%TO.N,SIPM_K21*%
X21540000Y-69540000D02*
X17540000Y-69540000D01*
X41540000Y-68940000D02*
X21540000Y-69540000D01*
X43540000Y-68940000D02*
X41540000Y-68940000D01*
%TO.N,SIPM_K19*%
X43540000Y-65740000D02*
X41540000Y-65740000D01*
X41540000Y-65740000D02*
X21540000Y-51540000D01*
X21540000Y-51540000D02*
X17540000Y-51540000D01*
%TO.N,SIPM_K10*%
X51270000Y-82540000D02*
X71270000Y-92040000D01*
X71270000Y-92040000D02*
X75270000Y-92040000D01*
X49270000Y-82540000D02*
X51270000Y-82540000D01*
%TO.N,SIPM_K17*%
X41540000Y-62540000D02*
X21540000Y-33540000D01*
X21540000Y-33540000D02*
X17540000Y-33540000D01*
X43540000Y-62540000D02*
X41540000Y-62540000D01*
%TO.N,SIPM_K18*%
X41540000Y-64140000D02*
X21540000Y-42540000D01*
X43540000Y-64140000D02*
X41540000Y-64140000D01*
X21540000Y-42540000D02*
X17540000Y-42540000D01*
%TO.N,SIPM_K23*%
X43540000Y-72140000D02*
X41540000Y-72140000D01*
%TO.N,SIPM_K8*%
X71270000Y-119040000D02*
X75270000Y-119040000D01*
X51270000Y-85740000D02*
X71270000Y-119040000D01*
X49270000Y-85740000D02*
X51270000Y-85740000D01*
%TO.N,SIPM_K11*%
X49270000Y-80940000D02*
X51270000Y-80940000D01*
X71270000Y-83040000D02*
X75270000Y-83040000D01*
X51270000Y-80940000D02*
X71270000Y-83040000D01*
%TO.N,SIPM_K13*%
X71270000Y-65040000D02*
X75270000Y-65040000D01*
X49270000Y-74540000D02*
X51270000Y-74540000D01*
X51270000Y-74540000D02*
X71270000Y-65040000D01*
%TO.N,SIPM_K6*%
X41540000Y-94540000D02*
X21540000Y-123540000D01*
X21540000Y-123540000D02*
X17540000Y-123540000D01*
X43540000Y-94540000D02*
X41540000Y-94540000D01*
%TO.N,IV*%
X43540000Y-80940000D02*
X41540000Y-80940000D01*
X41540000Y-80940000D02*
X21540000Y-78540000D01*
X43540000Y-80940000D02*
X43540000Y-76140000D01*
X21540000Y-78540000D02*
X17540000Y-78540000D01*
%TO.N,SIPM_K0*%
X43540000Y-84940000D02*
X41540000Y-84940000D01*
%TO.N,SIPM_K22*%
X43540000Y-70540000D02*
X41540000Y-70540000D01*
%TO.N,SIPM_K7*%
X41540000Y-96140000D02*
X21540000Y-132540000D01*
X43540000Y-96140000D02*
X41540000Y-96140000D01*
X21540000Y-132540000D02*
X17540000Y-132540000D01*
%TO.N,SIPM_K3*%
X21540000Y-96540000D02*
X17540000Y-96540000D01*
X41540000Y-89740000D02*
X21540000Y-96540000D01*
X43540000Y-89740000D02*
X41540000Y-89740000D01*
%TO.N,SIPM_K5*%
X41540000Y-92940000D02*
X21540000Y-114540000D01*
X43540000Y-92940000D02*
X41540000Y-92940000D01*
X21540000Y-114540000D02*
X17540000Y-114540000D01*
%TO.N,SIPM_K4*%
X41540000Y-91340000D02*
X21540000Y-105540000D01*
X43540000Y-91340000D02*
X41540000Y-91340000D01*
X21540000Y-105540000D02*
X17540000Y-105540000D01*
%TO.N,SIPM_K2*%
X21540000Y-87540000D02*
X17540000Y-87540000D01*
X41540000Y-88140000D02*
X21540000Y-87540000D01*
X43540000Y-88140000D02*
X41540000Y-88140000D01*
%TO.N,SIPM_K9*%
X49270000Y-84140000D02*
X51270000Y-84140000D01*
X51270000Y-84140000D02*
X71270000Y-101040000D01*
X71270000Y-101040000D02*
X75270000Y-101040000D01*
%TO.N,SIPM_K12*%
X71270000Y-74040000D02*
X75270000Y-74040000D01*
X51270000Y-76140000D02*
X71270000Y-74040000D01*
X49270000Y-76140000D02*
X51270000Y-76140000D01*
%TO.N,SIPM_K14*%
X71270000Y-56040000D02*
X75270000Y-56040000D01*
X49270000Y-72940000D02*
X51270000Y-72940000D01*
X51270000Y-72940000D02*
X71270000Y-56040000D01*
%TO.N,SIPM_K15*%
X49270000Y-71340000D02*
X51270000Y-71340000D01*
X51270000Y-71340000D02*
X71270000Y-38040000D01*
X71270000Y-38040000D02*
X75270000Y-38040000D01*
%TO.N,SIPM_K20*%
X41540000Y-67340000D02*
X21540000Y-60540000D01*
X21540000Y-60540000D02*
X17540000Y-60540000D01*
X43540000Y-67340000D02*
X41540000Y-67340000D01*
%TO.N,SIPM_K16*%
X43540000Y-60940000D02*
X41540000Y-60940000D01*
X41540000Y-60940000D02*
X21540000Y-24540000D01*
X21540000Y-24540000D02*
X17540000Y-24540000D01*
%TD*%
%TA.AperFunction,Conductor*%
%TO.N,GNDA*%
G36*
X83252539Y-10520185D02*
G01*
X83298294Y-10572989D01*
X83309500Y-10624500D01*
X83309500Y-146455500D01*
X83289815Y-146522539D01*
X83237011Y-146568294D01*
X83185500Y-146579500D01*
X9624500Y-146579500D01*
X9557461Y-146559815D01*
X9511706Y-146507011D01*
X9500500Y-146455500D01*
X9500500Y-141958711D01*
X15689500Y-141958711D01*
X15689500Y-142201288D01*
X15721161Y-142441785D01*
X15783947Y-142676104D01*
X15876773Y-142900205D01*
X15876776Y-142900212D01*
X15998064Y-143110289D01*
X15998066Y-143110292D01*
X15998067Y-143110293D01*
X16145733Y-143302736D01*
X16145739Y-143302743D01*
X16317256Y-143474260D01*
X16317262Y-143474265D01*
X16509711Y-143621936D01*
X16719788Y-143743224D01*
X16943900Y-143836054D01*
X17178211Y-143898838D01*
X17358586Y-143922584D01*
X17418711Y-143930500D01*
X17418712Y-143930500D01*
X17661289Y-143930500D01*
X17709388Y-143924167D01*
X17901789Y-143898838D01*
X18136100Y-143836054D01*
X18360212Y-143743224D01*
X18570289Y-143621936D01*
X18762738Y-143474265D01*
X18934265Y-143302738D01*
X19081936Y-143110289D01*
X19203224Y-142900212D01*
X19296054Y-142676100D01*
X19358838Y-142441789D01*
X19390500Y-142201288D01*
X19390500Y-141958712D01*
X19390500Y-141958711D01*
X73419500Y-141958711D01*
X73419500Y-142201288D01*
X73451161Y-142441785D01*
X73513947Y-142676104D01*
X73606773Y-142900205D01*
X73606776Y-142900212D01*
X73728064Y-143110289D01*
X73728066Y-143110292D01*
X73728067Y-143110293D01*
X73875733Y-143302736D01*
X73875739Y-143302743D01*
X74047256Y-143474260D01*
X74047262Y-143474265D01*
X74239711Y-143621936D01*
X74449788Y-143743224D01*
X74673900Y-143836054D01*
X74908211Y-143898838D01*
X75088586Y-143922584D01*
X75148711Y-143930500D01*
X75148712Y-143930500D01*
X75391289Y-143930500D01*
X75439388Y-143924167D01*
X75631789Y-143898838D01*
X75866100Y-143836054D01*
X76090212Y-143743224D01*
X76300289Y-143621936D01*
X76492738Y-143474265D01*
X76664265Y-143302738D01*
X76811936Y-143110289D01*
X76933224Y-142900212D01*
X77026054Y-142676100D01*
X77088838Y-142441789D01*
X77120500Y-142201288D01*
X77120500Y-141958712D01*
X77088838Y-141718211D01*
X77026054Y-141483900D01*
X76933224Y-141259788D01*
X76811936Y-141049711D01*
X76664265Y-140857262D01*
X76664260Y-140857256D01*
X76492743Y-140685739D01*
X76492736Y-140685733D01*
X76300293Y-140538067D01*
X76300292Y-140538066D01*
X76300289Y-140538064D01*
X76090212Y-140416776D01*
X76090205Y-140416773D01*
X75866104Y-140323947D01*
X75631785Y-140261161D01*
X75391289Y-140229500D01*
X75391288Y-140229500D01*
X75148712Y-140229500D01*
X75148711Y-140229500D01*
X74908214Y-140261161D01*
X74673895Y-140323947D01*
X74449794Y-140416773D01*
X74449785Y-140416777D01*
X74239706Y-140538067D01*
X74047263Y-140685733D01*
X74047256Y-140685739D01*
X73875739Y-140857256D01*
X73875733Y-140857263D01*
X73728067Y-141049706D01*
X73606777Y-141259785D01*
X73606773Y-141259794D01*
X73513947Y-141483895D01*
X73451161Y-141718214D01*
X73419500Y-141958711D01*
X19390500Y-141958711D01*
X19358838Y-141718211D01*
X19296054Y-141483900D01*
X19203224Y-141259788D01*
X19081936Y-141049711D01*
X18934265Y-140857262D01*
X18934260Y-140857256D01*
X18762743Y-140685739D01*
X18762736Y-140685733D01*
X18570293Y-140538067D01*
X18570292Y-140538066D01*
X18570289Y-140538064D01*
X18360212Y-140416776D01*
X18360205Y-140416773D01*
X18136104Y-140323947D01*
X17901785Y-140261161D01*
X17661289Y-140229500D01*
X17661288Y-140229500D01*
X17418712Y-140229500D01*
X17418711Y-140229500D01*
X17178214Y-140261161D01*
X16943895Y-140323947D01*
X16719794Y-140416773D01*
X16719785Y-140416777D01*
X16509706Y-140538067D01*
X16317263Y-140685733D01*
X16317256Y-140685739D01*
X16145739Y-140857256D01*
X16145733Y-140857263D01*
X15998067Y-141049706D01*
X15876777Y-141259785D01*
X15876773Y-141259794D01*
X15783947Y-141483895D01*
X15721161Y-141718214D01*
X15689500Y-141958711D01*
X9500500Y-141958711D01*
X9500500Y-114449448D01*
X16389500Y-114449448D01*
X16389500Y-114630551D01*
X16417829Y-114809410D01*
X16473787Y-114981636D01*
X16473788Y-114981639D01*
X16489530Y-115012533D01*
X16556003Y-115142993D01*
X16556006Y-115142997D01*
X16662441Y-115289494D01*
X16662445Y-115289499D01*
X16790500Y-115417554D01*
X16790505Y-115417558D01*
X16918287Y-115510396D01*
X16937006Y-115523996D01*
X17042484Y-115577740D01*
X17098360Y-115606211D01*
X17098363Y-115606212D01*
X17184476Y-115634191D01*
X17270591Y-115662171D01*
X17353429Y-115675291D01*
X17449449Y-115690500D01*
X17449454Y-115690500D01*
X17630551Y-115690500D01*
X17717259Y-115676765D01*
X17809409Y-115662171D01*
X17981639Y-115606211D01*
X18142994Y-115523996D01*
X18289501Y-115417553D01*
X18417553Y-115289501D01*
X18523996Y-115142994D01*
X18524444Y-115142114D01*
X18557009Y-115078205D01*
X18604983Y-115027409D01*
X18667493Y-115010500D01*
X21487236Y-115010500D01*
X21496186Y-115012533D01*
X21549047Y-115010500D01*
X21601943Y-115010500D01*
X21606298Y-115009332D01*
X21610808Y-115008123D01*
X21619980Y-115007772D01*
X21670514Y-114992126D01*
X21697409Y-114984919D01*
X21721600Y-114978438D01*
X21721601Y-114978437D01*
X21721606Y-114978436D01*
X21729555Y-114973846D01*
X21738323Y-114971132D01*
X21783081Y-114942943D01*
X21828894Y-114916494D01*
X21835384Y-114910003D01*
X21843150Y-114905113D01*
X21879087Y-114866300D01*
X21916494Y-114828894D01*
X21916497Y-114828887D01*
X21921440Y-114822447D01*
X21921735Y-114822673D01*
X21930526Y-114810745D01*
X40578275Y-94671176D01*
X40638263Y-94635362D01*
X40708094Y-94637665D01*
X40765596Y-94677355D01*
X40792511Y-94741833D01*
X40780294Y-94810626D01*
X40771336Y-94825825D01*
X21329907Y-123015899D01*
X21275642Y-123059911D01*
X21227829Y-123069500D01*
X18667493Y-123069500D01*
X18600454Y-123049815D01*
X18557009Y-123001795D01*
X18523997Y-122937007D01*
X18523996Y-122937006D01*
X18417558Y-122790505D01*
X18417554Y-122790500D01*
X18289499Y-122662445D01*
X18289494Y-122662441D01*
X18142997Y-122556006D01*
X18142996Y-122556005D01*
X18142994Y-122556004D01*
X18091300Y-122529664D01*
X17981639Y-122473788D01*
X17981636Y-122473787D01*
X17809410Y-122417829D01*
X17630551Y-122389500D01*
X17630546Y-122389500D01*
X17449454Y-122389500D01*
X17449449Y-122389500D01*
X17270589Y-122417829D01*
X17098363Y-122473787D01*
X17098360Y-122473788D01*
X16937002Y-122556006D01*
X16790505Y-122662441D01*
X16790500Y-122662445D01*
X16662445Y-122790500D01*
X16662441Y-122790505D01*
X16556006Y-122937002D01*
X16473788Y-123098360D01*
X16473787Y-123098363D01*
X16417829Y-123270589D01*
X16389500Y-123449448D01*
X16389500Y-123630551D01*
X16417829Y-123809410D01*
X16473787Y-123981636D01*
X16473788Y-123981639D01*
X16497110Y-124027409D01*
X16556003Y-124142993D01*
X16556006Y-124142997D01*
X16662441Y-124289494D01*
X16662445Y-124289499D01*
X16790500Y-124417554D01*
X16790505Y-124417558D01*
X16918287Y-124510396D01*
X16937006Y-124523996D01*
X17042484Y-124577740D01*
X17098360Y-124606211D01*
X17098363Y-124606212D01*
X17184476Y-124634191D01*
X17270591Y-124662171D01*
X17353429Y-124675291D01*
X17449449Y-124690500D01*
X17449454Y-124690500D01*
X17630551Y-124690500D01*
X17717259Y-124676765D01*
X17809409Y-124662171D01*
X17981639Y-124606211D01*
X18142994Y-124523996D01*
X18289501Y-124417553D01*
X18417553Y-124289501D01*
X18523996Y-124142994D01*
X18524444Y-124142114D01*
X18557009Y-124078205D01*
X18604983Y-124027409D01*
X18667493Y-124010500D01*
X21521135Y-124010500D01*
X21564073Y-124013949D01*
X21582851Y-124010500D01*
X21601943Y-124010500D01*
X21638766Y-124000632D01*
X21648432Y-123998454D01*
X21685920Y-123991569D01*
X21692972Y-123988219D01*
X21714065Y-123980456D01*
X21721606Y-123978436D01*
X21758913Y-123956896D01*
X21797822Y-123938415D01*
X21812355Y-123926042D01*
X21822139Y-123920394D01*
X21822140Y-123920393D01*
X21822143Y-123920392D01*
X21828891Y-123916496D01*
X21828891Y-123916495D01*
X21828894Y-123916494D01*
X21859354Y-123886033D01*
X21892155Y-123858111D01*
X21902994Y-123842393D01*
X21916494Y-123828894D01*
X21935561Y-123795867D01*
X21940839Y-123787517D01*
X39595479Y-98188289D01*
X39649742Y-98144279D01*
X39719187Y-98136591D01*
X39781765Y-98167669D01*
X39817606Y-98227646D01*
X39815332Y-98297478D01*
X39806231Y-98318402D01*
X21296996Y-132005212D01*
X21247461Y-132054488D01*
X21188320Y-132069500D01*
X18667493Y-132069500D01*
X18600454Y-132049815D01*
X18557009Y-132001795D01*
X18523997Y-131937007D01*
X18523996Y-131937006D01*
X18417558Y-131790505D01*
X18417554Y-131790500D01*
X18289499Y-131662445D01*
X18289494Y-131662441D01*
X18142997Y-131556006D01*
X18142996Y-131556005D01*
X18142994Y-131556004D01*
X18091300Y-131529664D01*
X17981639Y-131473788D01*
X17981636Y-131473787D01*
X17809410Y-131417829D01*
X17630551Y-131389500D01*
X17630546Y-131389500D01*
X17449454Y-131389500D01*
X17449449Y-131389500D01*
X17270589Y-131417829D01*
X17098363Y-131473787D01*
X17098360Y-131473788D01*
X16937002Y-131556006D01*
X16790505Y-131662441D01*
X16790500Y-131662445D01*
X16662445Y-131790500D01*
X16662441Y-131790505D01*
X16556006Y-131937002D01*
X16473788Y-132098360D01*
X16473787Y-132098363D01*
X16417829Y-132270589D01*
X16389500Y-132449448D01*
X16389500Y-132630551D01*
X16417829Y-132809410D01*
X16473787Y-132981636D01*
X16473788Y-132981639D01*
X16497110Y-133027409D01*
X16556003Y-133142993D01*
X16556006Y-133142997D01*
X16662441Y-133289494D01*
X16662445Y-133289499D01*
X16790500Y-133417554D01*
X16790505Y-133417558D01*
X16918287Y-133510396D01*
X16937006Y-133523996D01*
X17042484Y-133577740D01*
X17098360Y-133606211D01*
X17098363Y-133606212D01*
X17184476Y-133634191D01*
X17270591Y-133662171D01*
X17353429Y-133675291D01*
X17449449Y-133690500D01*
X17449454Y-133690500D01*
X17630551Y-133690500D01*
X17717259Y-133676765D01*
X17809409Y-133662171D01*
X17981639Y-133606211D01*
X18142994Y-133523996D01*
X18289501Y-133417553D01*
X18417553Y-133289501D01*
X18523996Y-133142994D01*
X18524444Y-133142114D01*
X18557009Y-133078205D01*
X18604983Y-133027409D01*
X18667493Y-133010500D01*
X21483120Y-133010500D01*
X21488035Y-133011706D01*
X21544982Y-133010500D01*
X21601943Y-133010500D01*
X21606113Y-133009951D01*
X21606457Y-133009924D01*
X21607417Y-133009787D01*
X21607762Y-133009715D01*
X21611882Y-133009083D01*
X21611892Y-133009083D01*
X21666612Y-132993171D01*
X21721606Y-132978436D01*
X21725985Y-132975907D01*
X21730850Y-132974493D01*
X21779572Y-132944969D01*
X21828894Y-132916494D01*
X21832475Y-132912912D01*
X21836802Y-132910291D01*
X21875355Y-132870068D01*
X21877098Y-132868288D01*
X21916494Y-132828894D01*
X21916501Y-132828881D01*
X21919040Y-132825573D01*
X21919071Y-132825533D01*
X21919924Y-132824421D01*
X21920043Y-132824240D01*
X21922522Y-132820861D01*
X21922527Y-132820857D01*
X21949965Y-132770919D01*
X21978436Y-132721606D01*
X21979745Y-132716719D01*
X24599125Y-127949448D01*
X74119500Y-127949448D01*
X74119500Y-128130551D01*
X74147829Y-128309410D01*
X74203787Y-128481636D01*
X74203788Y-128481639D01*
X74286006Y-128642997D01*
X74392441Y-128789494D01*
X74392445Y-128789499D01*
X74520500Y-128917554D01*
X74520505Y-128917558D01*
X74648287Y-129010396D01*
X74667006Y-129023996D01*
X74772484Y-129077740D01*
X74828360Y-129106211D01*
X74828363Y-129106212D01*
X74914476Y-129134191D01*
X75000591Y-129162171D01*
X75083429Y-129175291D01*
X75179449Y-129190500D01*
X75179454Y-129190500D01*
X75360551Y-129190500D01*
X75447259Y-129176765D01*
X75539409Y-129162171D01*
X75711639Y-129106211D01*
X75872994Y-129023996D01*
X76019501Y-128917553D01*
X76147553Y-128789501D01*
X76253996Y-128642994D01*
X76336211Y-128481639D01*
X76392171Y-128309409D01*
X76406765Y-128217259D01*
X76420500Y-128130551D01*
X76420500Y-127949448D01*
X76404019Y-127845397D01*
X76392171Y-127770591D01*
X76336211Y-127598361D01*
X76336211Y-127598360D01*
X76307740Y-127542484D01*
X76253996Y-127437006D01*
X76240396Y-127418287D01*
X76147558Y-127290505D01*
X76147554Y-127290500D01*
X76019499Y-127162445D01*
X76019494Y-127162441D01*
X75872997Y-127056006D01*
X75872996Y-127056005D01*
X75872994Y-127056004D01*
X75821300Y-127029664D01*
X75711639Y-126973788D01*
X75711636Y-126973787D01*
X75539410Y-126917829D01*
X75360551Y-126889500D01*
X75360546Y-126889500D01*
X75179454Y-126889500D01*
X75179449Y-126889500D01*
X75000589Y-126917829D01*
X74828363Y-126973787D01*
X74828360Y-126973788D01*
X74667002Y-127056006D01*
X74520505Y-127162441D01*
X74520500Y-127162445D01*
X74392445Y-127290500D01*
X74392441Y-127290505D01*
X74286006Y-127437002D01*
X74203788Y-127598360D01*
X74203787Y-127598363D01*
X74147829Y-127770589D01*
X74119500Y-127949448D01*
X24599125Y-127949448D01*
X40763606Y-98530092D01*
X42974500Y-98530092D01*
X42974500Y-98679907D01*
X43003723Y-98826822D01*
X43003725Y-98826830D01*
X43061051Y-98965229D01*
X43061056Y-98965238D01*
X43144280Y-99089790D01*
X43144283Y-99089794D01*
X43250205Y-99195716D01*
X43250209Y-99195719D01*
X43374761Y-99278943D01*
X43374767Y-99278946D01*
X43374768Y-99278947D01*
X43513170Y-99336275D01*
X43660092Y-99365499D01*
X43660096Y-99365500D01*
X43660097Y-99365500D01*
X43809904Y-99365500D01*
X43809905Y-99365499D01*
X43956830Y-99336275D01*
X44095232Y-99278947D01*
X44219791Y-99195719D01*
X44325719Y-99089791D01*
X44408947Y-98965232D01*
X44466275Y-98826830D01*
X44495500Y-98679903D01*
X44495500Y-98530097D01*
X44466275Y-98383170D01*
X44408947Y-98244768D01*
X44408946Y-98244767D01*
X44408943Y-98244761D01*
X44325719Y-98120209D01*
X44325716Y-98120205D01*
X44219794Y-98014283D01*
X44219790Y-98014280D01*
X44095238Y-97931056D01*
X44095229Y-97931051D01*
X43956830Y-97873725D01*
X43956822Y-97873723D01*
X43809907Y-97844500D01*
X43809903Y-97844500D01*
X43660097Y-97844500D01*
X43660092Y-97844500D01*
X43513177Y-97873723D01*
X43513169Y-97873725D01*
X43374770Y-97931051D01*
X43374761Y-97931056D01*
X43250209Y-98014280D01*
X43250205Y-98014283D01*
X43144283Y-98120205D01*
X43144280Y-98120209D01*
X43061056Y-98244761D01*
X43061051Y-98244770D01*
X43003725Y-98383169D01*
X43003723Y-98383177D01*
X42974500Y-98530092D01*
X40763606Y-98530092D01*
X41783004Y-96674788D01*
X41832539Y-96625512D01*
X41891680Y-96610500D01*
X42236185Y-96610500D01*
X42286270Y-96621064D01*
X42335009Y-96642585D01*
X42360135Y-96645500D01*
X44719864Y-96645499D01*
X44719879Y-96645497D01*
X44719882Y-96645497D01*
X44744987Y-96642586D01*
X44744988Y-96642585D01*
X44744991Y-96642585D01*
X44847765Y-96597206D01*
X44927206Y-96517765D01*
X44972585Y-96414991D01*
X44975500Y-96389865D01*
X44975499Y-95890136D01*
X44975497Y-95890117D01*
X44972586Y-95865012D01*
X44972585Y-95865010D01*
X44972585Y-95865009D01*
X44927206Y-95762235D01*
X44847765Y-95682794D01*
X44820866Y-95670917D01*
X44744992Y-95637415D01*
X44719865Y-95634500D01*
X42360143Y-95634500D01*
X42360117Y-95634502D01*
X42335012Y-95637413D01*
X42335010Y-95637414D01*
X42286270Y-95658935D01*
X42236185Y-95669500D01*
X41609719Y-95669500D01*
X41607413Y-95669479D01*
X41595924Y-95669265D01*
X41591966Y-95668294D01*
X41569400Y-95668771D01*
X41566934Y-95668726D01*
X41535851Y-95658967D01*
X41504421Y-95650457D01*
X41502708Y-95648562D01*
X41500272Y-95647798D01*
X41479403Y-95622789D01*
X41457560Y-95598632D01*
X41457143Y-95596112D01*
X41455507Y-95594152D01*
X41451473Y-95561841D01*
X41446156Y-95529699D01*
X41447138Y-95527111D01*
X41446852Y-95524820D01*
X41452399Y-95513246D01*
X41467161Y-95474350D01*
X41750093Y-95064101D01*
X41804358Y-95020089D01*
X41852171Y-95010500D01*
X42236185Y-95010500D01*
X42286270Y-95021064D01*
X42335009Y-95042585D01*
X42360135Y-95045500D01*
X44719864Y-95045499D01*
X44719879Y-95045497D01*
X44719882Y-95045497D01*
X44744987Y-95042586D01*
X44744988Y-95042585D01*
X44744991Y-95042585D01*
X44847765Y-94997206D01*
X44927206Y-94917765D01*
X44972585Y-94814991D01*
X44975500Y-94789865D01*
X44975499Y-94290136D01*
X44975497Y-94290117D01*
X44972586Y-94265012D01*
X44972585Y-94265010D01*
X44972585Y-94265009D01*
X44927206Y-94162235D01*
X44847765Y-94082794D01*
X44809846Y-94066051D01*
X44744992Y-94037415D01*
X44719865Y-94034500D01*
X42360143Y-94034500D01*
X42360117Y-94034502D01*
X42335012Y-94037413D01*
X42335010Y-94037414D01*
X42286270Y-94058935D01*
X42236185Y-94069500D01*
X41558865Y-94069500D01*
X41515927Y-94066051D01*
X41497149Y-94069500D01*
X41478054Y-94069500D01*
X41451923Y-94076502D01*
X41441242Y-94079363D01*
X41431562Y-94081545D01*
X41427924Y-94082213D01*
X41358433Y-94074961D01*
X41303894Y-94031288D01*
X41281623Y-93965063D01*
X41298693Y-93897310D01*
X41314540Y-93876011D01*
X41708761Y-93450253D01*
X41768752Y-93414436D01*
X41799747Y-93410500D01*
X42236185Y-93410500D01*
X42286270Y-93421064D01*
X42335009Y-93442585D01*
X42360135Y-93445500D01*
X44719864Y-93445499D01*
X44719879Y-93445497D01*
X44719882Y-93445497D01*
X44744987Y-93442586D01*
X44744988Y-93442585D01*
X44744991Y-93442585D01*
X44847765Y-93397206D01*
X44927206Y-93317765D01*
X44972585Y-93214991D01*
X44975500Y-93189865D01*
X44975499Y-92690136D01*
X44975497Y-92690117D01*
X44972586Y-92665012D01*
X44972585Y-92665010D01*
X44972585Y-92665009D01*
X44927206Y-92562235D01*
X44847765Y-92482794D01*
X44813053Y-92467467D01*
X44744992Y-92437415D01*
X44719865Y-92434500D01*
X42360143Y-92434500D01*
X42360117Y-92434502D01*
X42335012Y-92437413D01*
X42335010Y-92437414D01*
X42286270Y-92458935D01*
X42236185Y-92469500D01*
X41592764Y-92469500D01*
X41583814Y-92467467D01*
X41530953Y-92469500D01*
X41478057Y-92469500D01*
X41478054Y-92469500D01*
X41478051Y-92469501D01*
X41469190Y-92471875D01*
X41460020Y-92472228D01*
X41409489Y-92487871D01*
X41407189Y-92488488D01*
X41407186Y-92488489D01*
X41358390Y-92501565D01*
X41358387Y-92501566D01*
X41350439Y-92506154D01*
X41341677Y-92508868D01*
X41296948Y-92537036D01*
X41294861Y-92538242D01*
X41251108Y-92563503D01*
X41251100Y-92563510D01*
X41244611Y-92569997D01*
X41236850Y-92574887D01*
X41200936Y-92613672D01*
X41199221Y-92615388D01*
X41199222Y-92615388D01*
X41163508Y-92651102D01*
X41158557Y-92657555D01*
X41158264Y-92657330D01*
X41149471Y-92669253D01*
X21371239Y-114029747D01*
X21311248Y-114065564D01*
X21280253Y-114069500D01*
X18667493Y-114069500D01*
X18600454Y-114049815D01*
X18557009Y-114001795D01*
X18523997Y-113937007D01*
X18523996Y-113937006D01*
X18417558Y-113790505D01*
X18417554Y-113790500D01*
X18289499Y-113662445D01*
X18289494Y-113662441D01*
X18142997Y-113556006D01*
X18142996Y-113556005D01*
X18142994Y-113556004D01*
X18091300Y-113529664D01*
X17981639Y-113473788D01*
X17981636Y-113473787D01*
X17809410Y-113417829D01*
X17630551Y-113389500D01*
X17630546Y-113389500D01*
X17449454Y-113389500D01*
X17449449Y-113389500D01*
X17270589Y-113417829D01*
X17098363Y-113473787D01*
X17098360Y-113473788D01*
X16937002Y-113556006D01*
X16790505Y-113662441D01*
X16790500Y-113662445D01*
X16662445Y-113790500D01*
X16662441Y-113790505D01*
X16556006Y-113937002D01*
X16473788Y-114098360D01*
X16473787Y-114098363D01*
X16417829Y-114270589D01*
X16389500Y-114449448D01*
X9500500Y-114449448D01*
X9500500Y-105449448D01*
X16389500Y-105449448D01*
X16389500Y-105630551D01*
X16417829Y-105809410D01*
X16473787Y-105981636D01*
X16473788Y-105981639D01*
X16497110Y-106027409D01*
X16556003Y-106142993D01*
X16556006Y-106142997D01*
X16662441Y-106289494D01*
X16662445Y-106289499D01*
X16790500Y-106417554D01*
X16790505Y-106417558D01*
X16918287Y-106510396D01*
X16937006Y-106523996D01*
X17042484Y-106577740D01*
X17098360Y-106606211D01*
X17098363Y-106606212D01*
X17184476Y-106634191D01*
X17270591Y-106662171D01*
X17353429Y-106675291D01*
X17449449Y-106690500D01*
X17449454Y-106690500D01*
X17630551Y-106690500D01*
X17717259Y-106676765D01*
X17809409Y-106662171D01*
X17981639Y-106606211D01*
X18142994Y-106523996D01*
X18289501Y-106417553D01*
X18417553Y-106289501D01*
X18523996Y-106142994D01*
X18524444Y-106142114D01*
X18557009Y-106078205D01*
X18604983Y-106027409D01*
X18667493Y-106010500D01*
X21500383Y-106010500D01*
X21522401Y-106014234D01*
X21562087Y-106010500D01*
X21601943Y-106010500D01*
X21623511Y-106004720D01*
X21645742Y-106002629D01*
X21683106Y-105988751D01*
X21721606Y-105978436D01*
X21731906Y-105972488D01*
X21750724Y-105963639D01*
X21761875Y-105959498D01*
X21789632Y-105939788D01*
X21799404Y-105933518D01*
X21828894Y-105916494D01*
X21837303Y-105908084D01*
X21853196Y-105894659D01*
X41657798Y-91833392D01*
X41723856Y-91810632D01*
X41729584Y-91810500D01*
X42236185Y-91810500D01*
X42286270Y-91821064D01*
X42335009Y-91842585D01*
X42360135Y-91845500D01*
X44719864Y-91845499D01*
X44719879Y-91845497D01*
X44719882Y-91845497D01*
X44744987Y-91842586D01*
X44744988Y-91842585D01*
X44744991Y-91842585D01*
X44847765Y-91797206D01*
X44927206Y-91717765D01*
X44972585Y-91614991D01*
X44975500Y-91589865D01*
X44975499Y-91090136D01*
X44975497Y-91090117D01*
X44972586Y-91065012D01*
X44972585Y-91065010D01*
X44972585Y-91065009D01*
X44927206Y-90962235D01*
X44847765Y-90882794D01*
X44809200Y-90865766D01*
X44744992Y-90837415D01*
X44719865Y-90834500D01*
X42360143Y-90834500D01*
X42360117Y-90834502D01*
X42335012Y-90837413D01*
X42335010Y-90837414D01*
X42286270Y-90858935D01*
X42236185Y-90869500D01*
X41579617Y-90869500D01*
X41557599Y-90865766D01*
X41517913Y-90869500D01*
X41478057Y-90869500D01*
X41478046Y-90869501D01*
X41466573Y-90872574D01*
X41466574Y-90872575D01*
X41456479Y-90875279D01*
X41434258Y-90877371D01*
X41396908Y-90891242D01*
X41391289Y-90892748D01*
X41391279Y-90892752D01*
X41358393Y-90901564D01*
X41358388Y-90901566D01*
X41348089Y-90907512D01*
X41348088Y-90907511D01*
X41339046Y-90912730D01*
X41318125Y-90920502D01*
X41285649Y-90943558D01*
X41280616Y-90946465D01*
X41280596Y-90946479D01*
X41251103Y-90963507D01*
X41242690Y-90971920D01*
X41226801Y-90985340D01*
X24659773Y-102747930D01*
X21576570Y-104937006D01*
X21422202Y-105046607D01*
X21356144Y-105069368D01*
X21350416Y-105069500D01*
X18667493Y-105069500D01*
X18600454Y-105049815D01*
X18557009Y-105001795D01*
X18523997Y-104937007D01*
X18523996Y-104937006D01*
X18417558Y-104790505D01*
X18417554Y-104790500D01*
X18289499Y-104662445D01*
X18289494Y-104662441D01*
X18142997Y-104556006D01*
X18142996Y-104556005D01*
X18142994Y-104556004D01*
X18091300Y-104529664D01*
X17981639Y-104473788D01*
X17981636Y-104473787D01*
X17809410Y-104417829D01*
X17630551Y-104389500D01*
X17630546Y-104389500D01*
X17449454Y-104389500D01*
X17449449Y-104389500D01*
X17270589Y-104417829D01*
X17098363Y-104473787D01*
X17098360Y-104473788D01*
X16937002Y-104556006D01*
X16790505Y-104662441D01*
X16790500Y-104662445D01*
X16662445Y-104790500D01*
X16662441Y-104790505D01*
X16556006Y-104937002D01*
X16473788Y-105098360D01*
X16473787Y-105098363D01*
X16417829Y-105270589D01*
X16389500Y-105449448D01*
X9500500Y-105449448D01*
X9500500Y-96449448D01*
X16389500Y-96449448D01*
X16389500Y-96630551D01*
X16417829Y-96809410D01*
X16473787Y-96981636D01*
X16473788Y-96981639D01*
X16497110Y-97027409D01*
X16556003Y-97142993D01*
X16556006Y-97142997D01*
X16662441Y-97289494D01*
X16662445Y-97289499D01*
X16790500Y-97417554D01*
X16790505Y-97417558D01*
X16918287Y-97510396D01*
X16937006Y-97523996D01*
X17042484Y-97577740D01*
X17098360Y-97606211D01*
X17098363Y-97606212D01*
X17184476Y-97634191D01*
X17270591Y-97662171D01*
X17353429Y-97675291D01*
X17449449Y-97690500D01*
X17449454Y-97690500D01*
X17630551Y-97690500D01*
X17717259Y-97676765D01*
X17809409Y-97662171D01*
X17981639Y-97606211D01*
X18142994Y-97523996D01*
X18289501Y-97417553D01*
X18417553Y-97289501D01*
X18523996Y-97142994D01*
X18524444Y-97142114D01*
X18557009Y-97078205D01*
X18604983Y-97027409D01*
X18667493Y-97010500D01*
X21493776Y-97010500D01*
X21509194Y-97013559D01*
X21555517Y-97010500D01*
X21601943Y-97010500D01*
X21605344Y-97009588D01*
X21629294Y-97005628D01*
X21629625Y-97005606D01*
X21632809Y-97005396D01*
X21672919Y-96991757D01*
X21680670Y-96989404D01*
X21721606Y-96978436D01*
X21724664Y-96976670D01*
X21746749Y-96966655D01*
X41598386Y-90217099D01*
X41638302Y-90210500D01*
X42236185Y-90210500D01*
X42286270Y-90221064D01*
X42335009Y-90242585D01*
X42360135Y-90245500D01*
X44719864Y-90245499D01*
X44719879Y-90245497D01*
X44719882Y-90245497D01*
X44744987Y-90242586D01*
X44744988Y-90242585D01*
X44744991Y-90242585D01*
X44847765Y-90197206D01*
X44927206Y-90117765D01*
X44972585Y-90014991D01*
X44975500Y-89989865D01*
X44975499Y-89490136D01*
X44975497Y-89490117D01*
X44972586Y-89465012D01*
X44972585Y-89465010D01*
X44972585Y-89465009D01*
X44927206Y-89362235D01*
X44847765Y-89282794D01*
X44744992Y-89237415D01*
X44719865Y-89234500D01*
X42360143Y-89234500D01*
X42360117Y-89234502D01*
X42335012Y-89237413D01*
X42335010Y-89237414D01*
X42286270Y-89258935D01*
X42236185Y-89269500D01*
X41586223Y-89269500D01*
X41570805Y-89266441D01*
X41524482Y-89269500D01*
X41478057Y-89269500D01*
X41478049Y-89269501D01*
X41474634Y-89270416D01*
X41450722Y-89274370D01*
X41447195Y-89274603D01*
X41447189Y-89274604D01*
X41407101Y-89288231D01*
X41407102Y-89288232D01*
X41403221Y-89289551D01*
X41358394Y-89301564D01*
X41344787Y-89309419D01*
X41333252Y-89313341D01*
X22860284Y-95594152D01*
X21661335Y-96001795D01*
X21481614Y-96062900D01*
X21441698Y-96069500D01*
X18667493Y-96069500D01*
X18600454Y-96049815D01*
X18557009Y-96001795D01*
X18523997Y-95937007D01*
X18523996Y-95937006D01*
X18417558Y-95790505D01*
X18417554Y-95790500D01*
X18289499Y-95662445D01*
X18289494Y-95662441D01*
X18142997Y-95556006D01*
X18142996Y-95556005D01*
X18142994Y-95556004D01*
X18086289Y-95527111D01*
X17981639Y-95473788D01*
X17981636Y-95473787D01*
X17809410Y-95417829D01*
X17630551Y-95389500D01*
X17630546Y-95389500D01*
X17449454Y-95389500D01*
X17449449Y-95389500D01*
X17270589Y-95417829D01*
X17098363Y-95473787D01*
X17098360Y-95473788D01*
X16937002Y-95556006D01*
X16790505Y-95662441D01*
X16790500Y-95662445D01*
X16662445Y-95790500D01*
X16662441Y-95790505D01*
X16556006Y-95937002D01*
X16473788Y-96098360D01*
X16473787Y-96098363D01*
X16417829Y-96270589D01*
X16389500Y-96449448D01*
X9500500Y-96449448D01*
X9500500Y-87449448D01*
X16389500Y-87449448D01*
X16389500Y-87630551D01*
X16417829Y-87809410D01*
X16473787Y-87981636D01*
X16473788Y-87981639D01*
X16497110Y-88027409D01*
X16556003Y-88142993D01*
X16556006Y-88142997D01*
X16662441Y-88289494D01*
X16662445Y-88289499D01*
X16790500Y-88417554D01*
X16790505Y-88417558D01*
X16918287Y-88510396D01*
X16937006Y-88523996D01*
X17042484Y-88577740D01*
X17098360Y-88606211D01*
X17098363Y-88606212D01*
X17184476Y-88634191D01*
X17270591Y-88662171D01*
X17353429Y-88675291D01*
X17449449Y-88690500D01*
X17449454Y-88690500D01*
X17630551Y-88690500D01*
X17717259Y-88676765D01*
X17809409Y-88662171D01*
X17981639Y-88606211D01*
X18142994Y-88523996D01*
X18289501Y-88417553D01*
X18417553Y-88289501D01*
X18523996Y-88142994D01*
X18524444Y-88142114D01*
X18557009Y-88078205D01*
X18604983Y-88027409D01*
X18667493Y-88010500D01*
X21531092Y-88010500D01*
X21534809Y-88010555D01*
X41471137Y-88608645D01*
X41478057Y-88610500D01*
X41532940Y-88610500D01*
X41551614Y-88611060D01*
X41587802Y-88612146D01*
X41587803Y-88612145D01*
X41587807Y-88612146D01*
X41587810Y-88612145D01*
X41595890Y-88611327D01*
X41595962Y-88612043D01*
X41609215Y-88610500D01*
X42236185Y-88610500D01*
X42286270Y-88621064D01*
X42335009Y-88642585D01*
X42360135Y-88645500D01*
X44719864Y-88645499D01*
X44719879Y-88645497D01*
X44719882Y-88645497D01*
X44744987Y-88642586D01*
X44744988Y-88642585D01*
X44744991Y-88642585D01*
X44847765Y-88597206D01*
X44927206Y-88517765D01*
X44972585Y-88414991D01*
X44975500Y-88389865D01*
X44975499Y-87890136D01*
X44975497Y-87890117D01*
X44972586Y-87865012D01*
X44972585Y-87865010D01*
X44972585Y-87865009D01*
X44927206Y-87762235D01*
X44847765Y-87682794D01*
X44817530Y-87669444D01*
X44744992Y-87637415D01*
X44719865Y-87634500D01*
X42360143Y-87634500D01*
X42360117Y-87634502D01*
X42335012Y-87637413D01*
X42335010Y-87637414D01*
X42286270Y-87658935D01*
X42236185Y-87669500D01*
X41548908Y-87669500D01*
X41545190Y-87669444D01*
X21623293Y-87071786D01*
X21623293Y-87071785D01*
X21608855Y-87071352D01*
X21601943Y-87069500D01*
X21547066Y-87069500D01*
X21545198Y-87069444D01*
X21545194Y-87069444D01*
X21492198Y-87067853D01*
X21484111Y-87068673D01*
X21484038Y-87067956D01*
X21470786Y-87069500D01*
X18667493Y-87069500D01*
X18600454Y-87049815D01*
X18557009Y-87001795D01*
X18523997Y-86937007D01*
X18523996Y-86937006D01*
X18417558Y-86790505D01*
X18417554Y-86790500D01*
X18289499Y-86662445D01*
X18289494Y-86662441D01*
X18142997Y-86556006D01*
X18142996Y-86556005D01*
X18142994Y-86556004D01*
X18091300Y-86529664D01*
X17981639Y-86473788D01*
X17981636Y-86473787D01*
X17942105Y-86460943D01*
X40939500Y-86460943D01*
X40939500Y-86619057D01*
X40951127Y-86662447D01*
X40980423Y-86771783D01*
X40980426Y-86771790D01*
X41059475Y-86908709D01*
X41059479Y-86908714D01*
X41059480Y-86908716D01*
X41171284Y-87020520D01*
X41171286Y-87020521D01*
X41171290Y-87020524D01*
X41259332Y-87071354D01*
X41308216Y-87099577D01*
X41460943Y-87140500D01*
X41460945Y-87140500D01*
X41619055Y-87140500D01*
X41619057Y-87140500D01*
X41771784Y-87099577D01*
X41826732Y-87067853D01*
X41897298Y-87027113D01*
X41959297Y-87010500D01*
X42236185Y-87010500D01*
X42286270Y-87021064D01*
X42335009Y-87042585D01*
X42360135Y-87045500D01*
X44719864Y-87045499D01*
X44719879Y-87045497D01*
X44719882Y-87045497D01*
X44744987Y-87042586D01*
X44744988Y-87042585D01*
X44744991Y-87042585D01*
X44847765Y-86997206D01*
X44927206Y-86917765D01*
X44972585Y-86814991D01*
X44975500Y-86789865D01*
X44975499Y-86290136D01*
X44973240Y-86270656D01*
X44972586Y-86265012D01*
X44972585Y-86265010D01*
X44972585Y-86265009D01*
X44927206Y-86162235D01*
X44847765Y-86082794D01*
X44794964Y-86059480D01*
X44744992Y-86037415D01*
X44719865Y-86034500D01*
X42360143Y-86034500D01*
X42360117Y-86034502D01*
X42335012Y-86037413D01*
X42335010Y-86037414D01*
X42286270Y-86058935D01*
X42236185Y-86069500D01*
X41959297Y-86069500D01*
X41897298Y-86052887D01*
X41771790Y-85980426D01*
X41771786Y-85980424D01*
X41771784Y-85980423D01*
X41619057Y-85939500D01*
X41460943Y-85939500D01*
X41308216Y-85980423D01*
X41308209Y-85980426D01*
X41171290Y-86059475D01*
X41171282Y-86059481D01*
X41059481Y-86171282D01*
X41059475Y-86171290D01*
X40980426Y-86308209D01*
X40980423Y-86308216D01*
X40939500Y-86460943D01*
X17942105Y-86460943D01*
X17809410Y-86417829D01*
X17630551Y-86389500D01*
X17630546Y-86389500D01*
X17449454Y-86389500D01*
X17449449Y-86389500D01*
X17270589Y-86417829D01*
X17098363Y-86473787D01*
X17098360Y-86473788D01*
X16937002Y-86556006D01*
X16790505Y-86662441D01*
X16790500Y-86662445D01*
X16662445Y-86790500D01*
X16662441Y-86790505D01*
X16556006Y-86937002D01*
X16473788Y-87098360D01*
X16473787Y-87098363D01*
X16417829Y-87270589D01*
X16389500Y-87449448D01*
X9500500Y-87449448D01*
X9500500Y-84860943D01*
X40939500Y-84860943D01*
X40939500Y-85019056D01*
X40980423Y-85171783D01*
X40980426Y-85171790D01*
X41059475Y-85308709D01*
X41059479Y-85308714D01*
X41059480Y-85308716D01*
X41171284Y-85420520D01*
X41171286Y-85420521D01*
X41171290Y-85420524D01*
X41291855Y-85490131D01*
X41308216Y-85499577D01*
X41460943Y-85540500D01*
X41460945Y-85540500D01*
X41619055Y-85540500D01*
X41619057Y-85540500D01*
X41771784Y-85499577D01*
X41788145Y-85490131D01*
X47834500Y-85490131D01*
X47834500Y-85989856D01*
X47834502Y-85989882D01*
X47837413Y-86014987D01*
X47837415Y-86014991D01*
X47882793Y-86117764D01*
X47882794Y-86117765D01*
X47962235Y-86197206D01*
X48065009Y-86242585D01*
X48090135Y-86245500D01*
X50449864Y-86245499D01*
X50449879Y-86245497D01*
X50449882Y-86245497D01*
X50474987Y-86242586D01*
X50474988Y-86242585D01*
X50474991Y-86242585D01*
X50512824Y-86225879D01*
X50523730Y-86221065D01*
X50573815Y-86210500D01*
X50933574Y-86210500D01*
X51000613Y-86230185D01*
X51039874Y-86270655D01*
X57262034Y-96630551D01*
X70666775Y-118949448D01*
X70864572Y-119278779D01*
X70893506Y-119328894D01*
X70896422Y-119331810D01*
X70898546Y-119335346D01*
X70898547Y-119335347D01*
X70898549Y-119335350D01*
X70939458Y-119374870D01*
X70940927Y-119376315D01*
X70981107Y-119416495D01*
X70982503Y-119417566D01*
X70982504Y-119417566D01*
X70985168Y-119419610D01*
X70985169Y-119419611D01*
X70985183Y-119419622D01*
X70985775Y-119420077D01*
X70986236Y-119420379D01*
X70987648Y-119421424D01*
X71037323Y-119448973D01*
X71039182Y-119450025D01*
X71088388Y-119478433D01*
X71088390Y-119478434D01*
X71088394Y-119478436D01*
X71088397Y-119478436D01*
X71089998Y-119479100D01*
X71089997Y-119479100D01*
X71093137Y-119480400D01*
X71093201Y-119480426D01*
X71093862Y-119480700D01*
X71094363Y-119480865D01*
X71095987Y-119481505D01*
X71095989Y-119481506D01*
X71152158Y-119495521D01*
X71208057Y-119510500D01*
X71212184Y-119510500D01*
X71216188Y-119511499D01*
X71272997Y-119510518D01*
X71275137Y-119510500D01*
X74142507Y-119510500D01*
X74209546Y-119530185D01*
X74252991Y-119578205D01*
X74286002Y-119642992D01*
X74286003Y-119642993D01*
X74392441Y-119789494D01*
X74392445Y-119789499D01*
X74520500Y-119917554D01*
X74520505Y-119917558D01*
X74648287Y-120010396D01*
X74667006Y-120023996D01*
X74772484Y-120077740D01*
X74828360Y-120106211D01*
X74828363Y-120106212D01*
X74914476Y-120134191D01*
X75000591Y-120162171D01*
X75083429Y-120175291D01*
X75179449Y-120190500D01*
X75179454Y-120190500D01*
X75360551Y-120190500D01*
X75447259Y-120176765D01*
X75539409Y-120162171D01*
X75711639Y-120106211D01*
X75872994Y-120023996D01*
X76019501Y-119917553D01*
X76147553Y-119789501D01*
X76253996Y-119642994D01*
X76336211Y-119481639D01*
X76336463Y-119480865D01*
X76346825Y-119448973D01*
X76392171Y-119309409D01*
X76406765Y-119217259D01*
X76420500Y-119130551D01*
X76420500Y-118949448D01*
X76404019Y-118845397D01*
X76392171Y-118770591D01*
X76336211Y-118598361D01*
X76336211Y-118598360D01*
X76290854Y-118509344D01*
X76253996Y-118437006D01*
X76240396Y-118418287D01*
X76147558Y-118290505D01*
X76147554Y-118290500D01*
X76019499Y-118162445D01*
X76019494Y-118162441D01*
X75872997Y-118056006D01*
X75872996Y-118056005D01*
X75872994Y-118056004D01*
X75821300Y-118029664D01*
X75711639Y-117973788D01*
X75711636Y-117973787D01*
X75539410Y-117917829D01*
X75360551Y-117889500D01*
X75360546Y-117889500D01*
X75179454Y-117889500D01*
X75179449Y-117889500D01*
X75000589Y-117917829D01*
X74828363Y-117973787D01*
X74828360Y-117973788D01*
X74667002Y-118056006D01*
X74520505Y-118162441D01*
X74520500Y-118162445D01*
X74392445Y-118290500D01*
X74392441Y-118290505D01*
X74286003Y-118437006D01*
X74286002Y-118437007D01*
X74252991Y-118501795D01*
X74205017Y-118552591D01*
X74142507Y-118569500D01*
X71606426Y-118569500D01*
X71539387Y-118549815D01*
X71500125Y-118509344D01*
X71456679Y-118437007D01*
X66359046Y-109949448D01*
X74119500Y-109949448D01*
X74119500Y-110130551D01*
X74147829Y-110309410D01*
X74203787Y-110481636D01*
X74203788Y-110481639D01*
X74286006Y-110642997D01*
X74392441Y-110789494D01*
X74392445Y-110789499D01*
X74520500Y-110917554D01*
X74520505Y-110917558D01*
X74648287Y-111010396D01*
X74667006Y-111023996D01*
X74772484Y-111077740D01*
X74828360Y-111106211D01*
X74828363Y-111106212D01*
X74914476Y-111134191D01*
X75000591Y-111162171D01*
X75083429Y-111175291D01*
X75179449Y-111190500D01*
X75179454Y-111190500D01*
X75360551Y-111190500D01*
X75447259Y-111176765D01*
X75539409Y-111162171D01*
X75711639Y-111106211D01*
X75872994Y-111023996D01*
X76019501Y-110917553D01*
X76147553Y-110789501D01*
X76253996Y-110642994D01*
X76336211Y-110481639D01*
X76392171Y-110309409D01*
X76406765Y-110217259D01*
X76420500Y-110130551D01*
X76420500Y-109949448D01*
X76404019Y-109845397D01*
X76392171Y-109770591D01*
X76336211Y-109598361D01*
X76336211Y-109598360D01*
X76307740Y-109542484D01*
X76253996Y-109437006D01*
X76240396Y-109418287D01*
X76147558Y-109290505D01*
X76147554Y-109290500D01*
X76019499Y-109162445D01*
X76019494Y-109162441D01*
X75872997Y-109056006D01*
X75872996Y-109056005D01*
X75872994Y-109056004D01*
X75821300Y-109029664D01*
X75711639Y-108973788D01*
X75711636Y-108973787D01*
X75539410Y-108917829D01*
X75360551Y-108889500D01*
X75360546Y-108889500D01*
X75179454Y-108889500D01*
X75179449Y-108889500D01*
X75000589Y-108917829D01*
X74828363Y-108973787D01*
X74828360Y-108973788D01*
X74667002Y-109056006D01*
X74520505Y-109162441D01*
X74520500Y-109162445D01*
X74392445Y-109290500D01*
X74392441Y-109290505D01*
X74286006Y-109437002D01*
X74203788Y-109598360D01*
X74203787Y-109598363D01*
X74147829Y-109770589D01*
X74119500Y-109949448D01*
X66359046Y-109949448D01*
X51675427Y-85501220D01*
X51646494Y-85451106D01*
X51643575Y-85448187D01*
X51641451Y-85444650D01*
X51600541Y-85405129D01*
X51599070Y-85403682D01*
X51558893Y-85363505D01*
X51557482Y-85362422D01*
X51557482Y-85362421D01*
X51554803Y-85360366D01*
X51554802Y-85360365D01*
X51554245Y-85359938D01*
X51553771Y-85359627D01*
X51552349Y-85358574D01*
X51502625Y-85330998D01*
X51502625Y-85330997D01*
X51501667Y-85330466D01*
X51451606Y-85301564D01*
X51447623Y-85300496D01*
X51444014Y-85298495D01*
X51444013Y-85298494D01*
X51388896Y-85284741D01*
X51386826Y-85284205D01*
X51331946Y-85269500D01*
X51330193Y-85269270D01*
X51330177Y-85269268D01*
X51326801Y-85268823D01*
X51326799Y-85268822D01*
X51326106Y-85268731D01*
X51325559Y-85268700D01*
X51323816Y-85268501D01*
X51323812Y-85268501D01*
X51271698Y-85269400D01*
X51267003Y-85269482D01*
X51264863Y-85269500D01*
X50573815Y-85269500D01*
X50523729Y-85258935D01*
X50474991Y-85237415D01*
X50449865Y-85234500D01*
X48090143Y-85234500D01*
X48090117Y-85234502D01*
X48065012Y-85237413D01*
X48065008Y-85237415D01*
X47962235Y-85282793D01*
X47882794Y-85362234D01*
X47837415Y-85465006D01*
X47837415Y-85465008D01*
X47834500Y-85490131D01*
X41788145Y-85490131D01*
X41831660Y-85465008D01*
X41897298Y-85427113D01*
X41959297Y-85410500D01*
X42236185Y-85410500D01*
X42286270Y-85421064D01*
X42335009Y-85442585D01*
X42360135Y-85445500D01*
X44719864Y-85445499D01*
X44719879Y-85445497D01*
X44719882Y-85445497D01*
X44744987Y-85442586D01*
X44744988Y-85442585D01*
X44744991Y-85442585D01*
X44847765Y-85397206D01*
X44927206Y-85317765D01*
X44972585Y-85214991D01*
X44975500Y-85189865D01*
X44975499Y-84690136D01*
X44975497Y-84690117D01*
X44972586Y-84665012D01*
X44972585Y-84665010D01*
X44972585Y-84665009D01*
X44927206Y-84562235D01*
X44847765Y-84482794D01*
X44794964Y-84459480D01*
X44744992Y-84437415D01*
X44719865Y-84434500D01*
X42360143Y-84434500D01*
X42360117Y-84434502D01*
X42335012Y-84437413D01*
X42335010Y-84437414D01*
X42286270Y-84458935D01*
X42236185Y-84469500D01*
X41959297Y-84469500D01*
X41897298Y-84452887D01*
X41771790Y-84380426D01*
X41771786Y-84380424D01*
X41771784Y-84380423D01*
X41619057Y-84339500D01*
X41460943Y-84339500D01*
X41308216Y-84380423D01*
X41308209Y-84380426D01*
X41171290Y-84459475D01*
X41171282Y-84459481D01*
X41059481Y-84571282D01*
X41059475Y-84571290D01*
X40980426Y-84708209D01*
X40980423Y-84708216D01*
X40939500Y-84860943D01*
X9500500Y-84860943D01*
X9500500Y-83890131D01*
X47834500Y-83890131D01*
X47834500Y-84389856D01*
X47834502Y-84389882D01*
X47837413Y-84414987D01*
X47837415Y-84414991D01*
X47882793Y-84517764D01*
X47882794Y-84517765D01*
X47962235Y-84597206D01*
X48065009Y-84642585D01*
X48090135Y-84645500D01*
X50449864Y-84645499D01*
X50449879Y-84645497D01*
X50449882Y-84645497D01*
X50474987Y-84642586D01*
X50474988Y-84642585D01*
X50474991Y-84642585D01*
X50512824Y-84625879D01*
X50523730Y-84621065D01*
X50573815Y-84610500D01*
X51052457Y-84610500D01*
X51119496Y-84630185D01*
X51132489Y-84639785D01*
X70951252Y-101386640D01*
X70981106Y-101416494D01*
X70998392Y-101426474D01*
X71006834Y-101433608D01*
X71006838Y-101433610D01*
X71013640Y-101439358D01*
X71013641Y-101439358D01*
X71013642Y-101439359D01*
X71047128Y-101455114D01*
X71056339Y-101459929D01*
X71088394Y-101478436D01*
X71107676Y-101483602D01*
X71125736Y-101492100D01*
X71167281Y-101499574D01*
X71208057Y-101510500D01*
X71216949Y-101510500D01*
X71238903Y-101512459D01*
X71247664Y-101514035D01*
X71281135Y-101511222D01*
X71284562Y-101510935D01*
X71294942Y-101510500D01*
X74142507Y-101510500D01*
X74209546Y-101530185D01*
X74252991Y-101578205D01*
X74286002Y-101642992D01*
X74286003Y-101642993D01*
X74392441Y-101789494D01*
X74392445Y-101789499D01*
X74520500Y-101917554D01*
X74520505Y-101917558D01*
X74648287Y-102010396D01*
X74667006Y-102023996D01*
X74772484Y-102077740D01*
X74828360Y-102106211D01*
X74828363Y-102106212D01*
X74914476Y-102134191D01*
X75000591Y-102162171D01*
X75083429Y-102175291D01*
X75179449Y-102190500D01*
X75179454Y-102190500D01*
X75360551Y-102190500D01*
X75447259Y-102176765D01*
X75539409Y-102162171D01*
X75711639Y-102106211D01*
X75872994Y-102023996D01*
X76019501Y-101917553D01*
X76147553Y-101789501D01*
X76253996Y-101642994D01*
X76336211Y-101481639D01*
X76392171Y-101309409D01*
X76406765Y-101217259D01*
X76420500Y-101130551D01*
X76420500Y-100949448D01*
X76404019Y-100845397D01*
X76392171Y-100770591D01*
X76336211Y-100598361D01*
X76336211Y-100598360D01*
X76306583Y-100540214D01*
X76253996Y-100437006D01*
X76240396Y-100418287D01*
X76147558Y-100290505D01*
X76147554Y-100290500D01*
X76019499Y-100162445D01*
X76019494Y-100162441D01*
X75872997Y-100056006D01*
X75872996Y-100056005D01*
X75872994Y-100056004D01*
X75821300Y-100029664D01*
X75711639Y-99973788D01*
X75711636Y-99973787D01*
X75539410Y-99917829D01*
X75360551Y-99889500D01*
X75360546Y-99889500D01*
X75179454Y-99889500D01*
X75179449Y-99889500D01*
X75000589Y-99917829D01*
X74828363Y-99973787D01*
X74828360Y-99973788D01*
X74667002Y-100056006D01*
X74520505Y-100162441D01*
X74520500Y-100162445D01*
X74392445Y-100290500D01*
X74392441Y-100290505D01*
X74286003Y-100437006D01*
X74286002Y-100437007D01*
X74252991Y-100501795D01*
X74205017Y-100552591D01*
X74142507Y-100569500D01*
X71487544Y-100569500D01*
X71420505Y-100549815D01*
X71407511Y-100540214D01*
X51592715Y-83796712D01*
X51588747Y-83793359D01*
X51558894Y-83763506D01*
X51541605Y-83753524D01*
X51533152Y-83746381D01*
X51533150Y-83746379D01*
X51526364Y-83740644D01*
X51492872Y-83724885D01*
X51483669Y-83720074D01*
X51451609Y-83701565D01*
X51451606Y-83701564D01*
X51443011Y-83699260D01*
X51432325Y-83696397D01*
X51414265Y-83687900D01*
X51372720Y-83680426D01*
X51367695Y-83679079D01*
X51367694Y-83679079D01*
X51331944Y-83669500D01*
X51331943Y-83669500D01*
X51323046Y-83669500D01*
X51301093Y-83667541D01*
X51292337Y-83665966D01*
X51255448Y-83669065D01*
X51245068Y-83669500D01*
X50573815Y-83669500D01*
X50523729Y-83658935D01*
X50474991Y-83637415D01*
X50449865Y-83634500D01*
X48090143Y-83634500D01*
X48090117Y-83634502D01*
X48065012Y-83637413D01*
X48065008Y-83637415D01*
X47962235Y-83682793D01*
X47882794Y-83762234D01*
X47837415Y-83865006D01*
X47837415Y-83865008D01*
X47834500Y-83890131D01*
X9500500Y-83890131D01*
X9500500Y-82290131D01*
X47834500Y-82290131D01*
X47834500Y-82789856D01*
X47834502Y-82789882D01*
X47837413Y-82814987D01*
X47837415Y-82814991D01*
X47882793Y-82917764D01*
X47882794Y-82917765D01*
X47962235Y-82997206D01*
X48065009Y-83042585D01*
X48090135Y-83045500D01*
X50449864Y-83045499D01*
X50449879Y-83045497D01*
X50449882Y-83045497D01*
X50474987Y-83042586D01*
X50474988Y-83042585D01*
X50474991Y-83042585D01*
X50520493Y-83022494D01*
X50523730Y-83021065D01*
X50573815Y-83010500D01*
X51135983Y-83010500D01*
X51189185Y-83022493D01*
X71051084Y-92456895D01*
X71088394Y-92478436D01*
X71106835Y-92483377D01*
X71124081Y-92491569D01*
X71153264Y-92496928D01*
X71161557Y-92498452D01*
X71161558Y-92498452D01*
X71166447Y-92499350D01*
X71208057Y-92510500D01*
X71227149Y-92510500D01*
X71245927Y-92513949D01*
X71283915Y-92510897D01*
X71293842Y-92510500D01*
X74142507Y-92510500D01*
X74209546Y-92530185D01*
X74252991Y-92578205D01*
X74286002Y-92642992D01*
X74286003Y-92642993D01*
X74392441Y-92789494D01*
X74392445Y-92789499D01*
X74520500Y-92917554D01*
X74520505Y-92917558D01*
X74648287Y-93010396D01*
X74667006Y-93023996D01*
X74772484Y-93077740D01*
X74828360Y-93106211D01*
X74828363Y-93106212D01*
X74914476Y-93134191D01*
X75000591Y-93162171D01*
X75083429Y-93175291D01*
X75179449Y-93190500D01*
X75179454Y-93190500D01*
X75360551Y-93190500D01*
X75447259Y-93176765D01*
X75539409Y-93162171D01*
X75711639Y-93106211D01*
X75872994Y-93023996D01*
X76019501Y-92917553D01*
X76147553Y-92789501D01*
X76253996Y-92642994D01*
X76336211Y-92481639D01*
X76392171Y-92309409D01*
X76406765Y-92217259D01*
X76420500Y-92130551D01*
X76420500Y-91949448D01*
X76403574Y-91842585D01*
X76392171Y-91770591D01*
X76341615Y-91614993D01*
X76336212Y-91598363D01*
X76336211Y-91598360D01*
X76307740Y-91542484D01*
X76253996Y-91437006D01*
X76240396Y-91418287D01*
X76147558Y-91290505D01*
X76147554Y-91290500D01*
X76019499Y-91162445D01*
X76019494Y-91162441D01*
X75872997Y-91056006D01*
X75872996Y-91056005D01*
X75872994Y-91056004D01*
X75821300Y-91029664D01*
X75711639Y-90973788D01*
X75711636Y-90973787D01*
X75539410Y-90917829D01*
X75360551Y-90889500D01*
X75360546Y-90889500D01*
X75179454Y-90889500D01*
X75179449Y-90889500D01*
X75000589Y-90917829D01*
X74828363Y-90973787D01*
X74828360Y-90973788D01*
X74667002Y-91056006D01*
X74520505Y-91162441D01*
X74520500Y-91162445D01*
X74392445Y-91290500D01*
X74392441Y-91290505D01*
X74286003Y-91437006D01*
X74286002Y-91437007D01*
X74252991Y-91501795D01*
X74205017Y-91552591D01*
X74142507Y-91569500D01*
X71404017Y-91569500D01*
X71350814Y-91557506D01*
X71097121Y-91437002D01*
X55156085Y-83865009D01*
X51493407Y-82125237D01*
X51488908Y-82123100D01*
X51451606Y-82101564D01*
X51433170Y-82096624D01*
X51422968Y-82091778D01*
X51422964Y-82091777D01*
X51415923Y-82088432D01*
X51415914Y-82088429D01*
X51378441Y-82081546D01*
X51368751Y-82079362D01*
X51331946Y-82069500D01*
X51331943Y-82069500D01*
X51324145Y-82069500D01*
X51301746Y-82067460D01*
X51294072Y-82066050D01*
X51257603Y-82068980D01*
X51256084Y-82069102D01*
X51246158Y-82069500D01*
X50573815Y-82069500D01*
X50523729Y-82058935D01*
X50474991Y-82037415D01*
X50449865Y-82034500D01*
X48090143Y-82034500D01*
X48090117Y-82034502D01*
X48065012Y-82037413D01*
X48065008Y-82037415D01*
X47962235Y-82082793D01*
X47882794Y-82162234D01*
X47837415Y-82265006D01*
X47837415Y-82265008D01*
X47834500Y-82290131D01*
X9500500Y-82290131D01*
X9500500Y-78449448D01*
X16389500Y-78449448D01*
X16389500Y-78630551D01*
X16417829Y-78809410D01*
X16473787Y-78981636D01*
X16473788Y-78981639D01*
X16488944Y-79011383D01*
X16556003Y-79142993D01*
X16556006Y-79142997D01*
X16662441Y-79289494D01*
X16662445Y-79289499D01*
X16790500Y-79417554D01*
X16790505Y-79417558D01*
X16918287Y-79510396D01*
X16937006Y-79523996D01*
X17042484Y-79577740D01*
X17098360Y-79606211D01*
X17098363Y-79606212D01*
X17184476Y-79634191D01*
X17270591Y-79662171D01*
X17353429Y-79675291D01*
X17449449Y-79690500D01*
X17449454Y-79690500D01*
X17630551Y-79690500D01*
X17717259Y-79676765D01*
X17809409Y-79662171D01*
X17981639Y-79606211D01*
X18142994Y-79523996D01*
X18289501Y-79417553D01*
X18417553Y-79289501D01*
X18523996Y-79142994D01*
X18524444Y-79142114D01*
X18557009Y-79078205D01*
X18604983Y-79027409D01*
X18667493Y-79010500D01*
X21504457Y-79010500D01*
X21519231Y-79011383D01*
X41450633Y-81403151D01*
X41478057Y-81410500D01*
X41511869Y-81410500D01*
X41545444Y-81414529D01*
X41564796Y-81411754D01*
X41582392Y-81410500D01*
X42236185Y-81410500D01*
X42286270Y-81421064D01*
X42335009Y-81442585D01*
X42360135Y-81445500D01*
X44719864Y-81445499D01*
X44719879Y-81445497D01*
X44719882Y-81445497D01*
X44744987Y-81442586D01*
X44744988Y-81442585D01*
X44744991Y-81442585D01*
X44847765Y-81397206D01*
X44927206Y-81317765D01*
X44972585Y-81214991D01*
X44975500Y-81189865D01*
X44975499Y-80690136D01*
X44975499Y-80690135D01*
X44975499Y-80690131D01*
X47834500Y-80690131D01*
X47834500Y-81189856D01*
X47834502Y-81189882D01*
X47837413Y-81214987D01*
X47837415Y-81214991D01*
X47882793Y-81317764D01*
X47882794Y-81317765D01*
X47962235Y-81397206D01*
X48065009Y-81442585D01*
X48090135Y-81445500D01*
X50449864Y-81445499D01*
X50449879Y-81445497D01*
X50449882Y-81445497D01*
X50474987Y-81442586D01*
X50474988Y-81442585D01*
X50474991Y-81442585D01*
X50512824Y-81425879D01*
X50523730Y-81421065D01*
X50573815Y-81410500D01*
X51238876Y-81410500D01*
X51251825Y-81411178D01*
X51257320Y-81411755D01*
X71184015Y-83504058D01*
X71208057Y-83510500D01*
X71245367Y-83510500D01*
X71259929Y-83512029D01*
X71282471Y-83514396D01*
X71282471Y-83514395D01*
X71282472Y-83514396D01*
X71297408Y-83512028D01*
X71316818Y-83510500D01*
X74142507Y-83510500D01*
X74209546Y-83530185D01*
X74252991Y-83578205D01*
X74286002Y-83642992D01*
X74286003Y-83642993D01*
X74392441Y-83789494D01*
X74392445Y-83789499D01*
X74520500Y-83917554D01*
X74520505Y-83917558D01*
X74648287Y-84010396D01*
X74667006Y-84023996D01*
X74772484Y-84077740D01*
X74828360Y-84106211D01*
X74828363Y-84106212D01*
X74914476Y-84134191D01*
X75000591Y-84162171D01*
X75083429Y-84175291D01*
X75179449Y-84190500D01*
X75179454Y-84190500D01*
X75360551Y-84190500D01*
X75447259Y-84176765D01*
X75539409Y-84162171D01*
X75711639Y-84106211D01*
X75872994Y-84023996D01*
X76019501Y-83917553D01*
X76147553Y-83789501D01*
X76253996Y-83642994D01*
X76336211Y-83481639D01*
X76392171Y-83309409D01*
X76406765Y-83217259D01*
X76420500Y-83130551D01*
X76420500Y-82949448D01*
X76399203Y-82814991D01*
X76392171Y-82770591D01*
X76336211Y-82598361D01*
X76336211Y-82598360D01*
X76307740Y-82542484D01*
X76253996Y-82437006D01*
X76240396Y-82418287D01*
X76147558Y-82290505D01*
X76147554Y-82290500D01*
X76019499Y-82162445D01*
X76019494Y-82162441D01*
X75872997Y-82056006D01*
X75872996Y-82056005D01*
X75872994Y-82056004D01*
X75821300Y-82029664D01*
X75711639Y-81973788D01*
X75711636Y-81973787D01*
X75539410Y-81917829D01*
X75360551Y-81889500D01*
X75360546Y-81889500D01*
X75179454Y-81889500D01*
X75179449Y-81889500D01*
X75000589Y-81917829D01*
X74828363Y-81973787D01*
X74828360Y-81973788D01*
X74667002Y-82056006D01*
X74520505Y-82162441D01*
X74520500Y-82162445D01*
X74392445Y-82290500D01*
X74392441Y-82290505D01*
X74286003Y-82437006D01*
X74286002Y-82437007D01*
X74252991Y-82501795D01*
X74205017Y-82552591D01*
X74142507Y-82569500D01*
X71301124Y-82569500D01*
X71288175Y-82568822D01*
X51365695Y-80476960D01*
X51365695Y-80476959D01*
X51355975Y-80475938D01*
X51331943Y-80469500D01*
X51294641Y-80469500D01*
X51288182Y-80468822D01*
X51288176Y-80468822D01*
X51285757Y-80468568D01*
X51257528Y-80465603D01*
X51246315Y-80467381D01*
X51242591Y-80467971D01*
X51223182Y-80469500D01*
X50573815Y-80469500D01*
X50523729Y-80458935D01*
X50474991Y-80437415D01*
X50449865Y-80434500D01*
X48090143Y-80434500D01*
X48090117Y-80434502D01*
X48065012Y-80437413D01*
X48065008Y-80437415D01*
X47962235Y-80482793D01*
X47882794Y-80562234D01*
X47837415Y-80665006D01*
X47837415Y-80665008D01*
X47834500Y-80690131D01*
X44975499Y-80690131D01*
X44975499Y-80690130D01*
X44972586Y-80665012D01*
X44972585Y-80665010D01*
X44972585Y-80665009D01*
X44927206Y-80562235D01*
X44847765Y-80482794D01*
X44834550Y-80476959D01*
X44744992Y-80437415D01*
X44719868Y-80434500D01*
X44719865Y-80434500D01*
X44134500Y-80434500D01*
X44067461Y-80414815D01*
X44021706Y-80362011D01*
X44010500Y-80310500D01*
X44010500Y-76769499D01*
X44030185Y-76702460D01*
X44082989Y-76656705D01*
X44134500Y-76645499D01*
X44719856Y-76645499D01*
X44719864Y-76645499D01*
X44719879Y-76645497D01*
X44719882Y-76645497D01*
X44744987Y-76642586D01*
X44744988Y-76642585D01*
X44744991Y-76642585D01*
X44847765Y-76597206D01*
X44927206Y-76517765D01*
X44972585Y-76414991D01*
X44975500Y-76389865D01*
X44975499Y-75890136D01*
X44975499Y-75890135D01*
X44975499Y-75890131D01*
X47834500Y-75890131D01*
X47834500Y-76389856D01*
X47834502Y-76389882D01*
X47837413Y-76414987D01*
X47837415Y-76414991D01*
X47882793Y-76517764D01*
X47882794Y-76517765D01*
X47962235Y-76597206D01*
X48065009Y-76642585D01*
X48090135Y-76645500D01*
X50449864Y-76645499D01*
X50449879Y-76645497D01*
X50449882Y-76645497D01*
X50474987Y-76642586D01*
X50474988Y-76642585D01*
X50474991Y-76642585D01*
X50512824Y-76625879D01*
X50523730Y-76621065D01*
X50573815Y-76610500D01*
X51232947Y-76610500D01*
X51257528Y-76614396D01*
X51294633Y-76610500D01*
X51331943Y-76610500D01*
X51346563Y-76606582D01*
X51365685Y-76603039D01*
X71288175Y-74511178D01*
X71301124Y-74510500D01*
X74142507Y-74510500D01*
X74209546Y-74530185D01*
X74252991Y-74578205D01*
X74286002Y-74642992D01*
X74286003Y-74642993D01*
X74392441Y-74789494D01*
X74392445Y-74789499D01*
X74520500Y-74917554D01*
X74520505Y-74917558D01*
X74631849Y-74998453D01*
X74667006Y-75023996D01*
X74772484Y-75077740D01*
X74828360Y-75106211D01*
X74828363Y-75106212D01*
X74914476Y-75134191D01*
X75000591Y-75162171D01*
X75083429Y-75175291D01*
X75179449Y-75190500D01*
X75179454Y-75190500D01*
X75360551Y-75190500D01*
X75447259Y-75176765D01*
X75539409Y-75162171D01*
X75711639Y-75106211D01*
X75872994Y-75023996D01*
X76019501Y-74917553D01*
X76147553Y-74789501D01*
X76253996Y-74642994D01*
X76336211Y-74481639D01*
X76392171Y-74309409D01*
X76415481Y-74162235D01*
X76420500Y-74130551D01*
X76420500Y-73949448D01*
X76404019Y-73845397D01*
X76392171Y-73770591D01*
X76336211Y-73598361D01*
X76336211Y-73598360D01*
X76307740Y-73542484D01*
X76253996Y-73437006D01*
X76227776Y-73400917D01*
X76147558Y-73290505D01*
X76147554Y-73290500D01*
X76019499Y-73162445D01*
X76019494Y-73162441D01*
X75872997Y-73056006D01*
X75872996Y-73056005D01*
X75872994Y-73056004D01*
X75821300Y-73029664D01*
X75711639Y-72973788D01*
X75711636Y-72973787D01*
X75539410Y-72917829D01*
X75360551Y-72889500D01*
X75360546Y-72889500D01*
X75179454Y-72889500D01*
X75179449Y-72889500D01*
X75000589Y-72917829D01*
X74828363Y-72973787D01*
X74828360Y-72973788D01*
X74667002Y-73056006D01*
X74520505Y-73162441D01*
X74520500Y-73162445D01*
X74392445Y-73290500D01*
X74392441Y-73290505D01*
X74286003Y-73437006D01*
X74286002Y-73437007D01*
X74252991Y-73501795D01*
X74205017Y-73552591D01*
X74142507Y-73569500D01*
X71307053Y-73569500D01*
X71282472Y-73565604D01*
X71245367Y-73569500D01*
X71208056Y-73569500D01*
X71193441Y-73573415D01*
X71174305Y-73576960D01*
X51251825Y-75668822D01*
X51238876Y-75669500D01*
X50573815Y-75669500D01*
X50523729Y-75658935D01*
X50474991Y-75637415D01*
X50449865Y-75634500D01*
X48090143Y-75634500D01*
X48090117Y-75634502D01*
X48065012Y-75637413D01*
X48065008Y-75637415D01*
X47962235Y-75682793D01*
X47882794Y-75762234D01*
X47837415Y-75865006D01*
X47837415Y-75865008D01*
X47834500Y-75890131D01*
X44975499Y-75890131D01*
X44975499Y-75890130D01*
X44972586Y-75865012D01*
X44972585Y-75865010D01*
X44972585Y-75865009D01*
X44927206Y-75762235D01*
X44847765Y-75682794D01*
X44817657Y-75669500D01*
X44744992Y-75637415D01*
X44719865Y-75634500D01*
X42360143Y-75634500D01*
X42360117Y-75634502D01*
X42335012Y-75637413D01*
X42335008Y-75637415D01*
X42232235Y-75682793D01*
X42152794Y-75762234D01*
X42107415Y-75865006D01*
X42107415Y-75865008D01*
X42104500Y-75890131D01*
X42104500Y-76389856D01*
X42104502Y-76389882D01*
X42107413Y-76414987D01*
X42107415Y-76414991D01*
X42152793Y-76517764D01*
X42152794Y-76517765D01*
X42232235Y-76597206D01*
X42335009Y-76642585D01*
X42360135Y-76645500D01*
X42945500Y-76645499D01*
X43012539Y-76665183D01*
X43058294Y-76717987D01*
X43069500Y-76769499D01*
X43069500Y-80310500D01*
X43049815Y-80377539D01*
X42997011Y-80423294D01*
X42945500Y-80434500D01*
X42360143Y-80434500D01*
X42360117Y-80434502D01*
X42335012Y-80437413D01*
X42335010Y-80437414D01*
X42286270Y-80458935D01*
X42236185Y-80469500D01*
X41575542Y-80469500D01*
X41560768Y-80468617D01*
X21638144Y-78077901D01*
X21638144Y-78077900D01*
X21629357Y-78076845D01*
X21601943Y-78069500D01*
X21568133Y-78069500D01*
X21560773Y-78068617D01*
X21557027Y-78068167D01*
X21534556Y-78065471D01*
X21534555Y-78065471D01*
X21534554Y-78065471D01*
X21522516Y-78067196D01*
X21515203Y-78068245D01*
X21497608Y-78069500D01*
X18667493Y-78069500D01*
X18600454Y-78049815D01*
X18557009Y-78001795D01*
X18523997Y-77937007D01*
X18523996Y-77937006D01*
X18417558Y-77790505D01*
X18417554Y-77790500D01*
X18289499Y-77662445D01*
X18289494Y-77662441D01*
X18142997Y-77556006D01*
X18142996Y-77556005D01*
X18142994Y-77556004D01*
X18091300Y-77529664D01*
X17981639Y-77473788D01*
X17981636Y-77473787D01*
X17809410Y-77417829D01*
X17630551Y-77389500D01*
X17630546Y-77389500D01*
X17449454Y-77389500D01*
X17449449Y-77389500D01*
X17270589Y-77417829D01*
X17098363Y-77473787D01*
X17098360Y-77473788D01*
X16937002Y-77556006D01*
X16790505Y-77662441D01*
X16790500Y-77662445D01*
X16662445Y-77790500D01*
X16662441Y-77790505D01*
X16556006Y-77937002D01*
X16473788Y-78098360D01*
X16473787Y-78098363D01*
X16417829Y-78270589D01*
X16389500Y-78449448D01*
X9500500Y-78449448D01*
X9500500Y-74290131D01*
X47834500Y-74290131D01*
X47834500Y-74789856D01*
X47834502Y-74789882D01*
X47837413Y-74814987D01*
X47837415Y-74814991D01*
X47882793Y-74917764D01*
X47882794Y-74917765D01*
X47962235Y-74997206D01*
X48065009Y-75042585D01*
X48090135Y-75045500D01*
X50449864Y-75045499D01*
X50449879Y-75045497D01*
X50449882Y-75045497D01*
X50474987Y-75042586D01*
X50474988Y-75042585D01*
X50474991Y-75042585D01*
X50512824Y-75025879D01*
X50523730Y-75021065D01*
X50573815Y-75010500D01*
X51251130Y-75010500D01*
X51294073Y-75013949D01*
X51312851Y-75010500D01*
X51331943Y-75010500D01*
X51368766Y-75000632D01*
X51378421Y-74998456D01*
X51415920Y-74991569D01*
X51433166Y-74983376D01*
X51451606Y-74978436D01*
X51488910Y-74956898D01*
X71350814Y-65522493D01*
X71404017Y-65510500D01*
X74142507Y-65510500D01*
X74209546Y-65530185D01*
X74252991Y-65578205D01*
X74286002Y-65642992D01*
X74286003Y-65642993D01*
X74392441Y-65789494D01*
X74392445Y-65789499D01*
X74520500Y-65917554D01*
X74520505Y-65917558D01*
X74648287Y-66010396D01*
X74667006Y-66023996D01*
X74772484Y-66077740D01*
X74828360Y-66106211D01*
X74828363Y-66106212D01*
X74860009Y-66116494D01*
X75000591Y-66162171D01*
X75083429Y-66175291D01*
X75179449Y-66190500D01*
X75179454Y-66190500D01*
X75360551Y-66190500D01*
X75447259Y-66176765D01*
X75539409Y-66162171D01*
X75711639Y-66106211D01*
X75872994Y-66023996D01*
X76019501Y-65917553D01*
X76147553Y-65789501D01*
X76253996Y-65642994D01*
X76336211Y-65481639D01*
X76392171Y-65309409D01*
X76406765Y-65217259D01*
X76420500Y-65130551D01*
X76420500Y-64949448D01*
X76404019Y-64845397D01*
X76392171Y-64770591D01*
X76351526Y-64645497D01*
X76336212Y-64598363D01*
X76336211Y-64598360D01*
X76288697Y-64505111D01*
X76253996Y-64437006D01*
X76234916Y-64410744D01*
X76147558Y-64290505D01*
X76147554Y-64290500D01*
X76019499Y-64162445D01*
X76019494Y-64162441D01*
X75872997Y-64056006D01*
X75872996Y-64056005D01*
X75872994Y-64056004D01*
X75821300Y-64029664D01*
X75711639Y-63973788D01*
X75711636Y-63973787D01*
X75539410Y-63917829D01*
X75360551Y-63889500D01*
X75360546Y-63889500D01*
X75179454Y-63889500D01*
X75179449Y-63889500D01*
X75000589Y-63917829D01*
X74828363Y-63973787D01*
X74828360Y-63973788D01*
X74667002Y-64056006D01*
X74520505Y-64162441D01*
X74520500Y-64162445D01*
X74392445Y-64290500D01*
X74392441Y-64290505D01*
X74286003Y-64437006D01*
X74286002Y-64437007D01*
X74252991Y-64501795D01*
X74205017Y-64552591D01*
X74142507Y-64569500D01*
X71288870Y-64569500D01*
X71245927Y-64566051D01*
X71227149Y-64569500D01*
X71208057Y-64569500D01*
X71188030Y-64574866D01*
X71171250Y-64579362D01*
X71161563Y-64581545D01*
X71124082Y-64588429D01*
X71124080Y-64588430D01*
X71117023Y-64591782D01*
X71117022Y-64591781D01*
X71106826Y-64596624D01*
X71088394Y-64601564D01*
X71051087Y-64623101D01*
X71046593Y-64625237D01*
X71046591Y-64625237D01*
X55752055Y-71890143D01*
X51231483Y-74037415D01*
X51189186Y-74057506D01*
X51135983Y-74069500D01*
X50573815Y-74069500D01*
X50523729Y-74058935D01*
X50520493Y-74057506D01*
X50474991Y-74037415D01*
X50449865Y-74034500D01*
X48090143Y-74034500D01*
X48090117Y-74034502D01*
X48065012Y-74037413D01*
X48065008Y-74037415D01*
X47962235Y-74082793D01*
X47882794Y-74162234D01*
X47837415Y-74265006D01*
X47837415Y-74265008D01*
X47834500Y-74290131D01*
X9500500Y-74290131D01*
X9500500Y-72060943D01*
X40939500Y-72060943D01*
X40939500Y-72219056D01*
X40980423Y-72371783D01*
X40980426Y-72371790D01*
X41059475Y-72508709D01*
X41059479Y-72508714D01*
X41059480Y-72508716D01*
X41171284Y-72620520D01*
X41171286Y-72620521D01*
X41171290Y-72620524D01*
X41291855Y-72690131D01*
X41308216Y-72699577D01*
X41460943Y-72740500D01*
X41460945Y-72740500D01*
X41619055Y-72740500D01*
X41619057Y-72740500D01*
X41771784Y-72699577D01*
X41788145Y-72690131D01*
X47834500Y-72690131D01*
X47834500Y-73189856D01*
X47834502Y-73189882D01*
X47837413Y-73214987D01*
X47837415Y-73214991D01*
X47882793Y-73317764D01*
X47882794Y-73317765D01*
X47962235Y-73397206D01*
X48065009Y-73442585D01*
X48090135Y-73445500D01*
X50449864Y-73445499D01*
X50449879Y-73445497D01*
X50449882Y-73445497D01*
X50474987Y-73442586D01*
X50474988Y-73442585D01*
X50474991Y-73442585D01*
X50512824Y-73425879D01*
X50523730Y-73421065D01*
X50573815Y-73410500D01*
X51250270Y-73410500D01*
X51292337Y-73414034D01*
X51311982Y-73410500D01*
X51331943Y-73410500D01*
X51372720Y-73399573D01*
X51414265Y-73392100D01*
X51432325Y-73383602D01*
X51451606Y-73378436D01*
X51483684Y-73359915D01*
X51492842Y-73355127D01*
X51526361Y-73339357D01*
X51533155Y-73333615D01*
X51551185Y-73320944D01*
X51558894Y-73316494D01*
X51585072Y-73290314D01*
X51592708Y-73283291D01*
X71407511Y-56539785D01*
X71471422Y-56511553D01*
X71487544Y-56510500D01*
X74142507Y-56510500D01*
X74209546Y-56530185D01*
X74252991Y-56578205D01*
X74286002Y-56642992D01*
X74286003Y-56642993D01*
X74392441Y-56789494D01*
X74392445Y-56789499D01*
X74520500Y-56917554D01*
X74520505Y-56917558D01*
X74648287Y-57010396D01*
X74667006Y-57023996D01*
X74772484Y-57077740D01*
X74828360Y-57106211D01*
X74828363Y-57106212D01*
X74914476Y-57134191D01*
X75000591Y-57162171D01*
X75083429Y-57175291D01*
X75179449Y-57190500D01*
X75179454Y-57190500D01*
X75360551Y-57190500D01*
X75447259Y-57176765D01*
X75539409Y-57162171D01*
X75711639Y-57106211D01*
X75872994Y-57023996D01*
X76019501Y-56917553D01*
X76147553Y-56789501D01*
X76253996Y-56642994D01*
X76336211Y-56481639D01*
X76392171Y-56309409D01*
X76406765Y-56217259D01*
X76420500Y-56130551D01*
X76420500Y-55949448D01*
X76404019Y-55845397D01*
X76392171Y-55770591D01*
X76349949Y-55640642D01*
X76336212Y-55598363D01*
X76336211Y-55598360D01*
X76307740Y-55542484D01*
X76253996Y-55437006D01*
X76240396Y-55418287D01*
X76147558Y-55290505D01*
X76147554Y-55290500D01*
X76019499Y-55162445D01*
X76019494Y-55162441D01*
X75872997Y-55056006D01*
X75872996Y-55056005D01*
X75872994Y-55056004D01*
X75821300Y-55029664D01*
X75711639Y-54973788D01*
X75711636Y-54973787D01*
X75539410Y-54917829D01*
X75360551Y-54889500D01*
X75360546Y-54889500D01*
X75179454Y-54889500D01*
X75179449Y-54889500D01*
X75000589Y-54917829D01*
X74828363Y-54973787D01*
X74828360Y-54973788D01*
X74667002Y-55056006D01*
X74520505Y-55162441D01*
X74520500Y-55162445D01*
X74392445Y-55290500D01*
X74392441Y-55290505D01*
X74286003Y-55437006D01*
X74286002Y-55437007D01*
X74252991Y-55501795D01*
X74205017Y-55552591D01*
X74142507Y-55569500D01*
X71289738Y-55569500D01*
X71247664Y-55565965D01*
X71228014Y-55569500D01*
X71208052Y-55569500D01*
X71172301Y-55579080D01*
X71162168Y-55581345D01*
X71125736Y-55587900D01*
X71125728Y-55587902D01*
X71117678Y-55591690D01*
X71096991Y-55599260D01*
X71088397Y-55601562D01*
X71088387Y-55601567D01*
X71056337Y-55620069D01*
X71056338Y-55620070D01*
X71051827Y-55622673D01*
X71013640Y-55640642D01*
X70998396Y-55653520D01*
X70988823Y-55659048D01*
X70988824Y-55659048D01*
X70981110Y-55663502D01*
X70981104Y-55663506D01*
X70954924Y-55689686D01*
X70947279Y-55696716D01*
X51132490Y-72440214D01*
X51068579Y-72468447D01*
X51052457Y-72469500D01*
X50573815Y-72469500D01*
X50523729Y-72458935D01*
X50474991Y-72437415D01*
X50449865Y-72434500D01*
X48090143Y-72434500D01*
X48090117Y-72434502D01*
X48065012Y-72437413D01*
X48065008Y-72437415D01*
X47962235Y-72482793D01*
X47882794Y-72562234D01*
X47837415Y-72665006D01*
X47837415Y-72665008D01*
X47834500Y-72690131D01*
X41788145Y-72690131D01*
X41831660Y-72665008D01*
X41897298Y-72627113D01*
X41959297Y-72610500D01*
X42236185Y-72610500D01*
X42286270Y-72621064D01*
X42335009Y-72642585D01*
X42360135Y-72645500D01*
X44719864Y-72645499D01*
X44719879Y-72645497D01*
X44719882Y-72645497D01*
X44744987Y-72642586D01*
X44744988Y-72642585D01*
X44744991Y-72642585D01*
X44847765Y-72597206D01*
X44927206Y-72517765D01*
X44972585Y-72414991D01*
X44975500Y-72389865D01*
X44975499Y-71890136D01*
X44975497Y-71890117D01*
X44972586Y-71865012D01*
X44972585Y-71865010D01*
X44972585Y-71865009D01*
X44927206Y-71762235D01*
X44847765Y-71682794D01*
X44744992Y-71637415D01*
X44719865Y-71634500D01*
X42360143Y-71634500D01*
X42360117Y-71634502D01*
X42335012Y-71637413D01*
X42335010Y-71637414D01*
X42286270Y-71658935D01*
X42236185Y-71669500D01*
X41959297Y-71669500D01*
X41897298Y-71652887D01*
X41771790Y-71580426D01*
X41771786Y-71580424D01*
X41771784Y-71580423D01*
X41619057Y-71539500D01*
X41460943Y-71539500D01*
X41308216Y-71580423D01*
X41308209Y-71580426D01*
X41171290Y-71659475D01*
X41171282Y-71659481D01*
X41059481Y-71771282D01*
X41059475Y-71771290D01*
X40980426Y-71908209D01*
X40980423Y-71908216D01*
X40939500Y-72060943D01*
X9500500Y-72060943D01*
X9500500Y-69449448D01*
X16389500Y-69449448D01*
X16389500Y-69630551D01*
X16417829Y-69809410D01*
X16473787Y-69981636D01*
X16473788Y-69981639D01*
X16518557Y-70069500D01*
X16556003Y-70142993D01*
X16556006Y-70142997D01*
X16662441Y-70289494D01*
X16662445Y-70289499D01*
X16790500Y-70417554D01*
X16790505Y-70417558D01*
X16918287Y-70510396D01*
X16937006Y-70523996D01*
X17042484Y-70577740D01*
X17098360Y-70606211D01*
X17098363Y-70606212D01*
X17184476Y-70634191D01*
X17270591Y-70662171D01*
X17353429Y-70675291D01*
X17449449Y-70690500D01*
X17449454Y-70690500D01*
X17630551Y-70690500D01*
X17717259Y-70676765D01*
X17809409Y-70662171D01*
X17981639Y-70606211D01*
X18142994Y-70523996D01*
X18229779Y-70460943D01*
X40939500Y-70460943D01*
X40939500Y-70619057D01*
X40951053Y-70662171D01*
X40980423Y-70771783D01*
X40980426Y-70771790D01*
X41059475Y-70908709D01*
X41059479Y-70908714D01*
X41059480Y-70908716D01*
X41171284Y-71020520D01*
X41171286Y-71020521D01*
X41171290Y-71020524D01*
X41291855Y-71090131D01*
X41308216Y-71099577D01*
X41460943Y-71140500D01*
X41460945Y-71140500D01*
X41619055Y-71140500D01*
X41619057Y-71140500D01*
X41771784Y-71099577D01*
X41788145Y-71090131D01*
X47834500Y-71090131D01*
X47834500Y-71589856D01*
X47834502Y-71589882D01*
X47837413Y-71614987D01*
X47837415Y-71614991D01*
X47882793Y-71717764D01*
X47882794Y-71717765D01*
X47962235Y-71797206D01*
X48065009Y-71842585D01*
X48090135Y-71845500D01*
X50449864Y-71845499D01*
X50449879Y-71845497D01*
X50449882Y-71845497D01*
X50474987Y-71842586D01*
X50474988Y-71842585D01*
X50474991Y-71842585D01*
X50512824Y-71825879D01*
X50523730Y-71821065D01*
X50573815Y-71810500D01*
X51265961Y-71810500D01*
X51323812Y-71811499D01*
X51327816Y-71810500D01*
X51331943Y-71810500D01*
X51386932Y-71795764D01*
X51388766Y-71795290D01*
X51444011Y-71781506D01*
X51444022Y-71781499D01*
X51445625Y-71780869D01*
X51445631Y-71780867D01*
X51448774Y-71779628D01*
X51448786Y-71779623D01*
X51449524Y-71779331D01*
X51450023Y-71779091D01*
X51451596Y-71778438D01*
X51451606Y-71778436D01*
X51501735Y-71749494D01*
X51552352Y-71721424D01*
X51555318Y-71718558D01*
X51558894Y-71716494D01*
X51599832Y-71675555D01*
X51641451Y-71635350D01*
X51643575Y-71631812D01*
X51646494Y-71628894D01*
X51674903Y-71579687D01*
X51675990Y-71577841D01*
X51938658Y-71140500D01*
X66467817Y-46949448D01*
X74119500Y-46949448D01*
X74119500Y-47130551D01*
X74147829Y-47309410D01*
X74203787Y-47481636D01*
X74203788Y-47481639D01*
X74286006Y-47642997D01*
X74392441Y-47789494D01*
X74392445Y-47789499D01*
X74520500Y-47917554D01*
X74520505Y-47917558D01*
X74648287Y-48010396D01*
X74667006Y-48023996D01*
X74772484Y-48077740D01*
X74828360Y-48106211D01*
X74828363Y-48106212D01*
X74914476Y-48134191D01*
X75000591Y-48162171D01*
X75083429Y-48175291D01*
X75179449Y-48190500D01*
X75179454Y-48190500D01*
X75360551Y-48190500D01*
X75447259Y-48176765D01*
X75539409Y-48162171D01*
X75711639Y-48106211D01*
X75872994Y-48023996D01*
X76019501Y-47917553D01*
X76147553Y-47789501D01*
X76253996Y-47642994D01*
X76336211Y-47481639D01*
X76392171Y-47309409D01*
X76406765Y-47217259D01*
X76420500Y-47130551D01*
X76420500Y-46949448D01*
X76404019Y-46845397D01*
X76392171Y-46770591D01*
X76336211Y-46598361D01*
X76336211Y-46598360D01*
X76307740Y-46542484D01*
X76253996Y-46437006D01*
X76240396Y-46418287D01*
X76147558Y-46290505D01*
X76147554Y-46290500D01*
X76019499Y-46162445D01*
X76019494Y-46162441D01*
X75872997Y-46056006D01*
X75872996Y-46056005D01*
X75872994Y-46056004D01*
X75821300Y-46029664D01*
X75711639Y-45973788D01*
X75711636Y-45973787D01*
X75539410Y-45917829D01*
X75360551Y-45889500D01*
X75360546Y-45889500D01*
X75179454Y-45889500D01*
X75179449Y-45889500D01*
X75000589Y-45917829D01*
X74828363Y-45973787D01*
X74828360Y-45973788D01*
X74667002Y-46056006D01*
X74520505Y-46162441D01*
X74520500Y-46162445D01*
X74392445Y-46290500D01*
X74392441Y-46290505D01*
X74286006Y-46437002D01*
X74203788Y-46598360D01*
X74203787Y-46598363D01*
X74147829Y-46770589D01*
X74119500Y-46949448D01*
X66467817Y-46949448D01*
X71500125Y-38570655D01*
X71551517Y-38523320D01*
X71606426Y-38510500D01*
X74142507Y-38510500D01*
X74209546Y-38530185D01*
X74252991Y-38578205D01*
X74286002Y-38642992D01*
X74286003Y-38642993D01*
X74392441Y-38789494D01*
X74392445Y-38789499D01*
X74520500Y-38917554D01*
X74520505Y-38917558D01*
X74648287Y-39010396D01*
X74667006Y-39023996D01*
X74772484Y-39077740D01*
X74828360Y-39106211D01*
X74828363Y-39106212D01*
X74914476Y-39134191D01*
X75000591Y-39162171D01*
X75083429Y-39175291D01*
X75179449Y-39190500D01*
X75179454Y-39190500D01*
X75360551Y-39190500D01*
X75447259Y-39176765D01*
X75539409Y-39162171D01*
X75711639Y-39106211D01*
X75872994Y-39023996D01*
X76019501Y-38917553D01*
X76147553Y-38789501D01*
X76253996Y-38642994D01*
X76336211Y-38481639D01*
X76392171Y-38309409D01*
X76406765Y-38217259D01*
X76420500Y-38130551D01*
X76420500Y-37949448D01*
X76397022Y-37801220D01*
X76392171Y-37770591D01*
X76337030Y-37600881D01*
X76336212Y-37598363D01*
X76336211Y-37598360D01*
X76307740Y-37542484D01*
X76253996Y-37437006D01*
X76240396Y-37418287D01*
X76147558Y-37290505D01*
X76147554Y-37290500D01*
X76019499Y-37162445D01*
X76019494Y-37162441D01*
X75872997Y-37056006D01*
X75872996Y-37056005D01*
X75872994Y-37056004D01*
X75821300Y-37029664D01*
X75711639Y-36973788D01*
X75711636Y-36973787D01*
X75539410Y-36917829D01*
X75360551Y-36889500D01*
X75360546Y-36889500D01*
X75179454Y-36889500D01*
X75179449Y-36889500D01*
X75000589Y-36917829D01*
X74828363Y-36973787D01*
X74828360Y-36973788D01*
X74667002Y-37056006D01*
X74520505Y-37162441D01*
X74520500Y-37162445D01*
X74392445Y-37290500D01*
X74392441Y-37290505D01*
X74286003Y-37437006D01*
X74286002Y-37437007D01*
X74252991Y-37501795D01*
X74205017Y-37552591D01*
X74142507Y-37569500D01*
X71274039Y-37569500D01*
X71216188Y-37568501D01*
X71212184Y-37569500D01*
X71208057Y-37569500D01*
X71175476Y-37578229D01*
X71153186Y-37584202D01*
X71151118Y-37584736D01*
X71095988Y-37598493D01*
X71094322Y-37599150D01*
X71094321Y-37599149D01*
X71091263Y-37600355D01*
X71091220Y-37600373D01*
X71090527Y-37600646D01*
X71090039Y-37600881D01*
X71088401Y-37601559D01*
X71039169Y-37629982D01*
X71038242Y-37630517D01*
X70987648Y-37658576D01*
X70984681Y-37661440D01*
X70981104Y-37663506D01*
X70940929Y-37703680D01*
X70940930Y-37703681D01*
X70940167Y-37704444D01*
X70898549Y-37744650D01*
X70896424Y-37748187D01*
X70893506Y-37751106D01*
X70893504Y-37751108D01*
X70893502Y-37751111D01*
X70865090Y-37800321D01*
X70864005Y-37802163D01*
X58043115Y-59148948D01*
X51062434Y-70771784D01*
X51039875Y-70809344D01*
X50988483Y-70856680D01*
X50933574Y-70869500D01*
X50573815Y-70869500D01*
X50523729Y-70858935D01*
X50518622Y-70856680D01*
X50474991Y-70837415D01*
X50449865Y-70834500D01*
X48090143Y-70834500D01*
X48090117Y-70834502D01*
X48065012Y-70837413D01*
X48065008Y-70837415D01*
X47962235Y-70882793D01*
X47882794Y-70962234D01*
X47837415Y-71065006D01*
X47837415Y-71065008D01*
X47834500Y-71090131D01*
X41788145Y-71090131D01*
X41831660Y-71065008D01*
X41897298Y-71027113D01*
X41959297Y-71010500D01*
X42236185Y-71010500D01*
X42286270Y-71021064D01*
X42335009Y-71042585D01*
X42360135Y-71045500D01*
X44719864Y-71045499D01*
X44719879Y-71045497D01*
X44719882Y-71045497D01*
X44744987Y-71042586D01*
X44744988Y-71042585D01*
X44744991Y-71042585D01*
X44847765Y-70997206D01*
X44927206Y-70917765D01*
X44972585Y-70814991D01*
X44975500Y-70789865D01*
X44975499Y-70290136D01*
X44975497Y-70290117D01*
X44972586Y-70265012D01*
X44972585Y-70265010D01*
X44972585Y-70265009D01*
X44927206Y-70162235D01*
X44847765Y-70082794D01*
X44794964Y-70059480D01*
X44744992Y-70037415D01*
X44719865Y-70034500D01*
X42360143Y-70034500D01*
X42360117Y-70034502D01*
X42335012Y-70037413D01*
X42335010Y-70037414D01*
X42286270Y-70058935D01*
X42236185Y-70069500D01*
X41959297Y-70069500D01*
X41897298Y-70052887D01*
X41771790Y-69980426D01*
X41771786Y-69980424D01*
X41771784Y-69980423D01*
X41619057Y-69939500D01*
X41460943Y-69939500D01*
X41308216Y-69980423D01*
X41308209Y-69980426D01*
X41171290Y-70059475D01*
X41171282Y-70059481D01*
X41059481Y-70171282D01*
X41059475Y-70171290D01*
X40980426Y-70308209D01*
X40980423Y-70308216D01*
X40939500Y-70460943D01*
X18229779Y-70460943D01*
X18289501Y-70417553D01*
X18417553Y-70289501D01*
X18523996Y-70142994D01*
X18524444Y-70142114D01*
X18557009Y-70078205D01*
X18604983Y-70027409D01*
X18667493Y-70010500D01*
X21485221Y-70010500D01*
X21492194Y-70012146D01*
X21547061Y-70010500D01*
X21601943Y-70010500D01*
X21601943Y-70010499D01*
X21610004Y-70009438D01*
X21610098Y-70010158D01*
X21623295Y-70008212D01*
X41545190Y-69410555D01*
X41548908Y-69410500D01*
X42236185Y-69410500D01*
X42286270Y-69421064D01*
X42335009Y-69442585D01*
X42360135Y-69445500D01*
X44719864Y-69445499D01*
X44719879Y-69445497D01*
X44719882Y-69445497D01*
X44744987Y-69442586D01*
X44744988Y-69442585D01*
X44744991Y-69442585D01*
X44847765Y-69397206D01*
X44927206Y-69317765D01*
X44972585Y-69214991D01*
X44975500Y-69189865D01*
X44975499Y-68690136D01*
X44975497Y-68690117D01*
X44972586Y-68665012D01*
X44972585Y-68665010D01*
X44972585Y-68665009D01*
X44927206Y-68562235D01*
X44847765Y-68482794D01*
X44813929Y-68467854D01*
X44744992Y-68437415D01*
X44719865Y-68434500D01*
X42360143Y-68434500D01*
X42360117Y-68434502D01*
X42335012Y-68437413D01*
X42335010Y-68437414D01*
X42286270Y-68458935D01*
X42236185Y-68469500D01*
X41594780Y-68469500D01*
X41587807Y-68467854D01*
X41532940Y-68469500D01*
X41478057Y-68469500D01*
X41478055Y-68469500D01*
X41469998Y-68470561D01*
X41469905Y-68469855D01*
X41456705Y-68471786D01*
X21534810Y-69069444D01*
X21531092Y-69069500D01*
X18667493Y-69069500D01*
X18600454Y-69049815D01*
X18557009Y-69001795D01*
X18523997Y-68937007D01*
X18523996Y-68937006D01*
X18417558Y-68790505D01*
X18417554Y-68790500D01*
X18289499Y-68662445D01*
X18289494Y-68662441D01*
X18142997Y-68556006D01*
X18142996Y-68556005D01*
X18142994Y-68556004D01*
X18091300Y-68529664D01*
X17981639Y-68473788D01*
X17981636Y-68473787D01*
X17809410Y-68417829D01*
X17630551Y-68389500D01*
X17630546Y-68389500D01*
X17449454Y-68389500D01*
X17449449Y-68389500D01*
X17270589Y-68417829D01*
X17098363Y-68473787D01*
X17098360Y-68473788D01*
X16937002Y-68556006D01*
X16790505Y-68662441D01*
X16790500Y-68662445D01*
X16662445Y-68790500D01*
X16662441Y-68790505D01*
X16556006Y-68937002D01*
X16473788Y-69098360D01*
X16473787Y-69098363D01*
X16417829Y-69270589D01*
X16389500Y-69449448D01*
X9500500Y-69449448D01*
X9500500Y-60449448D01*
X16389500Y-60449448D01*
X16389500Y-60630551D01*
X16417829Y-60809410D01*
X16473787Y-60981636D01*
X16473788Y-60981639D01*
X16491857Y-61017100D01*
X16556003Y-61142993D01*
X16556006Y-61142997D01*
X16662441Y-61289494D01*
X16662445Y-61289499D01*
X16790500Y-61417554D01*
X16790505Y-61417558D01*
X16890400Y-61490135D01*
X16937006Y-61523996D01*
X17042484Y-61577740D01*
X17098360Y-61606211D01*
X17098363Y-61606212D01*
X17184476Y-61634191D01*
X17270591Y-61662171D01*
X17353429Y-61675291D01*
X17449449Y-61690500D01*
X17449454Y-61690500D01*
X17630551Y-61690500D01*
X17717259Y-61676765D01*
X17809409Y-61662171D01*
X17981639Y-61606211D01*
X18142994Y-61523996D01*
X18289501Y-61417553D01*
X18417553Y-61289501D01*
X18523996Y-61142994D01*
X18524444Y-61142114D01*
X18557009Y-61078205D01*
X18604983Y-61027409D01*
X18667493Y-61010500D01*
X21441698Y-61010500D01*
X21481613Y-61017099D01*
X25151943Y-62265012D01*
X41333246Y-67766655D01*
X41333245Y-67766655D01*
X41344784Y-67770578D01*
X41358394Y-67778436D01*
X41403234Y-67790451D01*
X41447190Y-67805396D01*
X41447186Y-67805396D01*
X41450705Y-67805628D01*
X41450720Y-67805629D01*
X41462877Y-67806431D01*
X41478057Y-67810500D01*
X41524471Y-67810500D01*
X41528529Y-67810768D01*
X41528554Y-67810769D01*
X41532645Y-67811039D01*
X41570805Y-67813559D01*
X41574274Y-67812870D01*
X41598405Y-67810500D01*
X42236185Y-67810500D01*
X42286270Y-67821064D01*
X42335009Y-67842585D01*
X42360135Y-67845500D01*
X44719864Y-67845499D01*
X44719879Y-67845497D01*
X44719882Y-67845497D01*
X44744987Y-67842586D01*
X44744988Y-67842585D01*
X44744991Y-67842585D01*
X44847765Y-67797206D01*
X44927206Y-67717765D01*
X44972585Y-67614991D01*
X44975500Y-67589865D01*
X44975499Y-67090136D01*
X44975497Y-67090117D01*
X44972586Y-67065012D01*
X44972585Y-67065010D01*
X44972585Y-67065009D01*
X44927206Y-66962235D01*
X44847765Y-66882794D01*
X44817657Y-66869500D01*
X44744992Y-66837415D01*
X44719865Y-66834500D01*
X42360143Y-66834500D01*
X42360117Y-66834502D01*
X42335012Y-66837413D01*
X42335010Y-66837414D01*
X42286270Y-66858935D01*
X42236185Y-66869500D01*
X41638302Y-66869500D01*
X41598386Y-66862900D01*
X41523424Y-66837413D01*
X21746751Y-60113343D01*
X21735215Y-60109420D01*
X21721606Y-60101564D01*
X21676768Y-60089549D01*
X21672900Y-60088234D01*
X21672894Y-60088232D01*
X21632809Y-60074604D01*
X21632807Y-60074603D01*
X21632805Y-60074603D01*
X21629283Y-60074370D01*
X21629283Y-60074371D01*
X21626221Y-60074168D01*
X21617126Y-60073568D01*
X21601943Y-60069500D01*
X21555518Y-60069500D01*
X21551444Y-60069231D01*
X21551443Y-60069230D01*
X21509194Y-60066441D01*
X21509192Y-60066441D01*
X21507301Y-60066816D01*
X21505724Y-60067129D01*
X21481594Y-60069500D01*
X18667493Y-60069500D01*
X18600454Y-60049815D01*
X18557009Y-60001795D01*
X18523997Y-59937007D01*
X18523996Y-59937006D01*
X18417558Y-59790505D01*
X18417554Y-59790500D01*
X18289499Y-59662445D01*
X18289494Y-59662441D01*
X18142997Y-59556006D01*
X18142996Y-59556005D01*
X18142994Y-59556004D01*
X18091300Y-59529664D01*
X17981639Y-59473788D01*
X17981636Y-59473787D01*
X17809410Y-59417829D01*
X17630551Y-59389500D01*
X17630546Y-59389500D01*
X17449454Y-59389500D01*
X17449449Y-59389500D01*
X17270589Y-59417829D01*
X17098363Y-59473787D01*
X17098360Y-59473788D01*
X16937002Y-59556006D01*
X16790505Y-59662441D01*
X16790500Y-59662445D01*
X16662445Y-59790500D01*
X16662441Y-59790505D01*
X16556006Y-59937002D01*
X16473788Y-60098360D01*
X16473787Y-60098363D01*
X16417829Y-60270589D01*
X16389500Y-60449448D01*
X9500500Y-60449448D01*
X9500500Y-51449448D01*
X16389500Y-51449448D01*
X16389500Y-51630551D01*
X16417829Y-51809410D01*
X16473787Y-51981636D01*
X16473788Y-51981639D01*
X16500159Y-52033393D01*
X16556003Y-52142993D01*
X16556006Y-52142997D01*
X16662441Y-52289494D01*
X16662445Y-52289499D01*
X16790500Y-52417554D01*
X16790505Y-52417558D01*
X16918287Y-52510396D01*
X16937006Y-52523996D01*
X17042484Y-52577740D01*
X17098360Y-52606211D01*
X17098363Y-52606212D01*
X17184476Y-52634191D01*
X17270591Y-52662171D01*
X17353429Y-52675291D01*
X17449449Y-52690500D01*
X17449454Y-52690500D01*
X17630551Y-52690500D01*
X17717259Y-52676765D01*
X17809409Y-52662171D01*
X17981639Y-52606211D01*
X18142994Y-52523996D01*
X18289501Y-52417553D01*
X18417553Y-52289501D01*
X18523996Y-52142994D01*
X18524444Y-52142114D01*
X18557009Y-52078205D01*
X18604983Y-52027409D01*
X18667493Y-52010500D01*
X21350416Y-52010500D01*
X21417455Y-52030185D01*
X21422195Y-52033388D01*
X41235314Y-66100702D01*
X41251106Y-66116494D01*
X41285627Y-66136424D01*
X41318125Y-66159498D01*
X41318128Y-66159499D01*
X41329269Y-66163637D01*
X41329270Y-66163637D01*
X41339057Y-66167272D01*
X41358394Y-66178436D01*
X41396891Y-66188750D01*
X41401602Y-66190500D01*
X41434258Y-66202629D01*
X41456488Y-66204720D01*
X41478057Y-66210500D01*
X41517913Y-66210500D01*
X41557599Y-66214234D01*
X41566845Y-66212665D01*
X41569322Y-66212246D01*
X41590055Y-66210500D01*
X42236185Y-66210500D01*
X42286270Y-66221064D01*
X42335009Y-66242585D01*
X42360135Y-66245500D01*
X44719864Y-66245499D01*
X44719879Y-66245497D01*
X44719882Y-66245497D01*
X44744987Y-66242586D01*
X44744988Y-66242585D01*
X44744991Y-66242585D01*
X44847765Y-66197206D01*
X44927206Y-66117765D01*
X44972585Y-66014991D01*
X44975500Y-65989865D01*
X44975499Y-65490136D01*
X44974514Y-65481639D01*
X44972586Y-65465012D01*
X44972585Y-65465010D01*
X44972585Y-65465009D01*
X44927206Y-65362235D01*
X44847765Y-65282794D01*
X44817657Y-65269500D01*
X44744992Y-65237415D01*
X44719865Y-65234500D01*
X42360143Y-65234500D01*
X42360117Y-65234502D01*
X42335012Y-65237413D01*
X42335010Y-65237414D01*
X42286270Y-65258935D01*
X42236185Y-65269500D01*
X41729584Y-65269500D01*
X41662545Y-65249815D01*
X41657798Y-65246607D01*
X41640747Y-65234501D01*
X30192453Y-57106212D01*
X21853198Y-51185341D01*
X21844685Y-51179297D01*
X21828894Y-51163506D01*
X21794372Y-51143575D01*
X21761875Y-51120502D01*
X21750721Y-51116359D01*
X21731902Y-51107508D01*
X21721608Y-51101565D01*
X21721601Y-51101562D01*
X21688728Y-51092754D01*
X21677650Y-51089221D01*
X21645743Y-51077371D01*
X21645738Y-51077370D01*
X21633904Y-51076256D01*
X21633904Y-51076257D01*
X21623511Y-51075279D01*
X21601943Y-51069500D01*
X21562088Y-51069500D01*
X21556295Y-51068955D01*
X21522403Y-51065766D01*
X21522396Y-51065766D01*
X21510678Y-51067754D01*
X21489945Y-51069500D01*
X18667493Y-51069500D01*
X18600454Y-51049815D01*
X18557009Y-51001795D01*
X18523997Y-50937007D01*
X18523996Y-50937006D01*
X18417558Y-50790505D01*
X18417554Y-50790500D01*
X18289499Y-50662445D01*
X18289494Y-50662441D01*
X18142997Y-50556006D01*
X18142996Y-50556005D01*
X18142994Y-50556004D01*
X18091300Y-50529664D01*
X17981639Y-50473788D01*
X17981636Y-50473787D01*
X17809410Y-50417829D01*
X17630551Y-50389500D01*
X17630546Y-50389500D01*
X17449454Y-50389500D01*
X17449449Y-50389500D01*
X17270589Y-50417829D01*
X17098363Y-50473787D01*
X17098360Y-50473788D01*
X16937002Y-50556006D01*
X16790505Y-50662441D01*
X16790500Y-50662445D01*
X16662445Y-50790500D01*
X16662441Y-50790505D01*
X16556006Y-50937002D01*
X16473788Y-51098360D01*
X16473787Y-51098363D01*
X16417829Y-51270589D01*
X16389500Y-51449448D01*
X9500500Y-51449448D01*
X9500500Y-24449448D01*
X16389500Y-24449448D01*
X16389500Y-24630551D01*
X16417829Y-24809410D01*
X16473787Y-24981636D01*
X16473788Y-24981639D01*
X16521251Y-25074788D01*
X16556003Y-25142993D01*
X16556006Y-25142997D01*
X16662441Y-25289494D01*
X16662445Y-25289499D01*
X16790500Y-25417554D01*
X16790505Y-25417558D01*
X16918287Y-25510396D01*
X16937006Y-25523996D01*
X17042484Y-25577740D01*
X17098360Y-25606211D01*
X17098363Y-25606212D01*
X17184476Y-25634191D01*
X17270591Y-25662171D01*
X17353429Y-25675291D01*
X17449449Y-25690500D01*
X17449454Y-25690500D01*
X17630551Y-25690500D01*
X17717259Y-25676765D01*
X17809409Y-25662171D01*
X17981639Y-25606211D01*
X18142994Y-25523996D01*
X18289501Y-25417553D01*
X18417553Y-25289501D01*
X18523996Y-25142994D01*
X18524444Y-25142114D01*
X18557009Y-25078205D01*
X18604983Y-25027409D01*
X18667493Y-25010500D01*
X21188320Y-25010500D01*
X21255359Y-25030185D01*
X21296996Y-25074788D01*
X21414966Y-25289494D01*
X39689916Y-58549904D01*
X39806231Y-58761596D01*
X39821262Y-58829830D01*
X39797017Y-58895358D01*
X39741193Y-58937376D01*
X39671515Y-58942543D01*
X39610104Y-58909219D01*
X39595477Y-58891707D01*
X39552803Y-58829830D01*
X21938029Y-33288406D01*
X21916494Y-33251106D01*
X21902994Y-33237606D01*
X21892155Y-33221889D01*
X21892154Y-33221887D01*
X21863133Y-33197182D01*
X21859346Y-33193958D01*
X21828894Y-33163506D01*
X21812362Y-33153961D01*
X21803765Y-33146642D01*
X21803761Y-33146640D01*
X21797824Y-33141587D01*
X21797823Y-33141585D01*
X21763401Y-33125235D01*
X21763400Y-33125234D01*
X21758908Y-33123100D01*
X21721606Y-33101564D01*
X21703172Y-33096623D01*
X21692978Y-33091781D01*
X21692976Y-33091781D01*
X21685927Y-33088433D01*
X21685921Y-33088431D01*
X21685920Y-33088431D01*
X21680029Y-33087349D01*
X21648444Y-33081546D01*
X21648444Y-33081547D01*
X21643550Y-33080648D01*
X21601943Y-33069500D01*
X21582852Y-33069500D01*
X21571745Y-33067460D01*
X21571744Y-33067459D01*
X21564071Y-33066050D01*
X21528860Y-33068879D01*
X21526088Y-33069102D01*
X21516162Y-33069500D01*
X18667493Y-33069500D01*
X18600454Y-33049815D01*
X18557009Y-33001795D01*
X18523997Y-32937007D01*
X18523996Y-32937006D01*
X18417558Y-32790505D01*
X18417554Y-32790500D01*
X18289499Y-32662445D01*
X18289494Y-32662441D01*
X18142997Y-32556006D01*
X18142996Y-32556005D01*
X18142994Y-32556004D01*
X18091300Y-32529664D01*
X17981639Y-32473788D01*
X17981636Y-32473787D01*
X17809410Y-32417829D01*
X17630551Y-32389500D01*
X17630546Y-32389500D01*
X17449454Y-32389500D01*
X17449449Y-32389500D01*
X17270589Y-32417829D01*
X17098363Y-32473787D01*
X17098360Y-32473788D01*
X16937002Y-32556006D01*
X16790505Y-32662441D01*
X16790500Y-32662445D01*
X16662445Y-32790500D01*
X16662441Y-32790505D01*
X16556006Y-32937002D01*
X16473788Y-33098360D01*
X16473787Y-33098363D01*
X16417829Y-33270589D01*
X16389500Y-33449448D01*
X16389500Y-33630551D01*
X16417829Y-33809410D01*
X16473787Y-33981636D01*
X16473788Y-33981639D01*
X16515806Y-34064101D01*
X16556003Y-34142993D01*
X16556006Y-34142997D01*
X16662441Y-34289494D01*
X16662445Y-34289499D01*
X16790500Y-34417554D01*
X16790505Y-34417558D01*
X16918287Y-34510396D01*
X16937006Y-34523996D01*
X17042484Y-34577740D01*
X17098360Y-34606211D01*
X17098363Y-34606212D01*
X17184476Y-34634191D01*
X17270591Y-34662171D01*
X17353429Y-34675291D01*
X17449449Y-34690500D01*
X17449454Y-34690500D01*
X17630551Y-34690500D01*
X17717259Y-34676765D01*
X17809409Y-34662171D01*
X17981639Y-34606211D01*
X18142994Y-34523996D01*
X18289501Y-34417553D01*
X18417553Y-34289501D01*
X18523996Y-34142994D01*
X18524444Y-34142114D01*
X18557009Y-34078205D01*
X18604983Y-34027409D01*
X18667493Y-34010500D01*
X21227829Y-34010500D01*
X21294868Y-34030185D01*
X21329907Y-34064101D01*
X27591212Y-43142993D01*
X40765355Y-62245500D01*
X40771339Y-62254176D01*
X40793195Y-62320539D01*
X40775703Y-62388184D01*
X40724416Y-62435633D01*
X40655618Y-62447822D01*
X40591151Y-62420881D01*
X40578275Y-62408822D01*
X27160438Y-47917558D01*
X21921083Y-42259054D01*
X21916494Y-42251106D01*
X21879087Y-42213699D01*
X21843150Y-42174887D01*
X21835384Y-42169996D01*
X21828894Y-42163506D01*
X21783081Y-42137056D01*
X21781061Y-42135784D01*
X21781060Y-42135782D01*
X21738328Y-42108870D01*
X21730942Y-42105473D01*
X21731096Y-42105137D01*
X21729253Y-42104331D01*
X21729112Y-42104673D01*
X21721606Y-42101563D01*
X21672811Y-42088488D01*
X21668238Y-42087168D01*
X21648939Y-42081193D01*
X21619980Y-42072228D01*
X21619977Y-42072227D01*
X21619975Y-42072227D01*
X21610804Y-42071874D01*
X21601943Y-42069500D01*
X21549051Y-42069500D01*
X21546658Y-42069408D01*
X21546655Y-42069408D01*
X21545088Y-42069347D01*
X21496187Y-42067466D01*
X21488096Y-42068217D01*
X21488061Y-42067848D01*
X21473330Y-42069500D01*
X18667493Y-42069500D01*
X18600454Y-42049815D01*
X18557009Y-42001795D01*
X18523997Y-41937007D01*
X18523996Y-41937006D01*
X18417558Y-41790505D01*
X18417554Y-41790500D01*
X18289499Y-41662445D01*
X18289494Y-41662441D01*
X18142997Y-41556006D01*
X18142996Y-41556005D01*
X18142994Y-41556004D01*
X18091300Y-41529664D01*
X17981639Y-41473788D01*
X17981636Y-41473787D01*
X17809410Y-41417829D01*
X17630551Y-41389500D01*
X17630546Y-41389500D01*
X17449454Y-41389500D01*
X17449449Y-41389500D01*
X17270589Y-41417829D01*
X17098363Y-41473787D01*
X17098360Y-41473788D01*
X16937002Y-41556006D01*
X16790505Y-41662441D01*
X16790500Y-41662445D01*
X16662445Y-41790500D01*
X16662441Y-41790505D01*
X16556006Y-41937002D01*
X16473788Y-42098360D01*
X16473787Y-42098363D01*
X16417829Y-42270589D01*
X16389500Y-42449448D01*
X16389500Y-42630551D01*
X16417829Y-42809410D01*
X16473787Y-42981636D01*
X16473788Y-42981639D01*
X16522992Y-43078205D01*
X16556003Y-43142993D01*
X16556006Y-43142997D01*
X16662441Y-43289494D01*
X16662445Y-43289499D01*
X16790500Y-43417554D01*
X16790505Y-43417558D01*
X16918287Y-43510396D01*
X16937006Y-43523996D01*
X17042484Y-43577740D01*
X17098360Y-43606211D01*
X17098363Y-43606212D01*
X17184476Y-43634191D01*
X17270591Y-43662171D01*
X17353429Y-43675291D01*
X17449449Y-43690500D01*
X17449454Y-43690500D01*
X17630551Y-43690500D01*
X17717259Y-43676765D01*
X17809409Y-43662171D01*
X17981639Y-43606211D01*
X18142994Y-43523996D01*
X18289501Y-43417553D01*
X18417553Y-43289501D01*
X18523996Y-43142994D01*
X18524444Y-43142114D01*
X18557009Y-43078205D01*
X18604983Y-43027409D01*
X18667493Y-43010500D01*
X21280253Y-43010500D01*
X21347292Y-43030185D01*
X21371239Y-43050253D01*
X29481569Y-51809410D01*
X41158916Y-64420945D01*
X41163506Y-64428894D01*
X41200911Y-64466299D01*
X41202524Y-64468041D01*
X41202524Y-64468042D01*
X41236847Y-64505111D01*
X41236849Y-64505112D01*
X41236850Y-64505113D01*
X41244615Y-64510003D01*
X41251106Y-64516494D01*
X41296918Y-64542943D01*
X41341677Y-64571132D01*
X41341683Y-64571134D01*
X41349059Y-64574527D01*
X41348902Y-64574866D01*
X41350740Y-64575669D01*
X41350883Y-64575325D01*
X41358391Y-64578435D01*
X41358393Y-64578435D01*
X41358394Y-64578436D01*
X41407197Y-64591513D01*
X41411756Y-64592829D01*
X41460020Y-64607772D01*
X41464124Y-64607929D01*
X41469193Y-64608124D01*
X41478057Y-64610500D01*
X41530953Y-64610500D01*
X41548573Y-64611177D01*
X41583812Y-64612533D01*
X41583812Y-64612532D01*
X41583814Y-64612533D01*
X41583815Y-64612532D01*
X41591904Y-64611783D01*
X41591938Y-64612151D01*
X41606670Y-64610500D01*
X42236185Y-64610500D01*
X42286270Y-64621064D01*
X42335009Y-64642585D01*
X42360135Y-64645500D01*
X44719864Y-64645499D01*
X44719879Y-64645497D01*
X44719882Y-64645497D01*
X44744987Y-64642586D01*
X44744988Y-64642585D01*
X44744991Y-64642585D01*
X44847765Y-64597206D01*
X44927206Y-64517765D01*
X44972585Y-64414991D01*
X44975500Y-64389865D01*
X44975499Y-63890136D01*
X44975425Y-63889500D01*
X44972586Y-63865012D01*
X44972585Y-63865010D01*
X44972585Y-63865009D01*
X44927206Y-63762235D01*
X44847765Y-63682794D01*
X44817657Y-63669500D01*
X44744992Y-63637415D01*
X44719865Y-63634500D01*
X42360143Y-63634500D01*
X42360117Y-63634502D01*
X42335012Y-63637413D01*
X42335010Y-63637414D01*
X42286270Y-63658935D01*
X42236185Y-63669500D01*
X41799747Y-63669500D01*
X41732708Y-63649815D01*
X41708761Y-63629747D01*
X41314544Y-63203993D01*
X41300874Y-63176497D01*
X41285287Y-63150039D01*
X41285463Y-63145497D01*
X41283440Y-63141428D01*
X41286806Y-63110899D01*
X41287998Y-63080222D01*
X41290600Y-63076498D01*
X41291099Y-63071979D01*
X41310438Y-63048115D01*
X41328024Y-63022954D01*
X41332227Y-63021227D01*
X41335090Y-63017696D01*
X41364256Y-63008077D01*
X41392657Y-62996416D01*
X41398882Y-62996657D01*
X41401444Y-62995813D01*
X41427921Y-62997784D01*
X41431565Y-62998454D01*
X41441234Y-63000633D01*
X41478057Y-63010500D01*
X41485855Y-63010500D01*
X41508254Y-63012540D01*
X41510106Y-63012879D01*
X41515927Y-63013949D01*
X41553911Y-63010897D01*
X41563838Y-63010500D01*
X42236185Y-63010500D01*
X42286270Y-63021064D01*
X42335009Y-63042585D01*
X42360135Y-63045500D01*
X44719864Y-63045499D01*
X44719879Y-63045497D01*
X44719882Y-63045497D01*
X44744987Y-63042586D01*
X44744988Y-63042585D01*
X44744991Y-63042585D01*
X44847765Y-62997206D01*
X44927206Y-62917765D01*
X44972585Y-62814991D01*
X44975500Y-62789865D01*
X44975499Y-62290136D01*
X44975497Y-62290117D01*
X44972586Y-62265012D01*
X44972585Y-62265010D01*
X44972585Y-62265009D01*
X44927206Y-62162235D01*
X44847765Y-62082794D01*
X44817657Y-62069500D01*
X44744992Y-62037415D01*
X44719865Y-62034500D01*
X42360143Y-62034500D01*
X42360117Y-62034502D01*
X42335012Y-62037413D01*
X42335010Y-62037414D01*
X42286270Y-62058935D01*
X42236185Y-62069500D01*
X41852171Y-62069500D01*
X41785132Y-62049815D01*
X41750093Y-62015899D01*
X41525679Y-61690500D01*
X41467161Y-61605649D01*
X41464058Y-61596227D01*
X41457422Y-61588850D01*
X41453310Y-61563592D01*
X41445306Y-61539288D01*
X41447790Y-61529681D01*
X41446196Y-61519888D01*
X41456391Y-61496418D01*
X41462798Y-61471643D01*
X41470081Y-61464904D01*
X41474035Y-61455804D01*
X41495302Y-61441571D01*
X41514085Y-61424194D01*
X41525401Y-61421427D01*
X41532101Y-61416944D01*
X41559987Y-61412971D01*
X41566937Y-61411273D01*
X41569378Y-61411227D01*
X41591966Y-61411706D01*
X41595925Y-61410734D01*
X41607416Y-61410521D01*
X41607737Y-61410608D01*
X41609719Y-61410500D01*
X42236185Y-61410500D01*
X42286270Y-61421064D01*
X42335009Y-61442585D01*
X42360135Y-61445500D01*
X44719864Y-61445499D01*
X44719879Y-61445497D01*
X44719882Y-61445497D01*
X44744987Y-61442586D01*
X44744988Y-61442585D01*
X44744991Y-61442585D01*
X44847765Y-61397206D01*
X44927206Y-61317765D01*
X44972585Y-61214991D01*
X44975500Y-61189865D01*
X44975499Y-60690136D01*
X44975499Y-60690135D01*
X44975499Y-60690131D01*
X47834500Y-60690131D01*
X47834500Y-61189856D01*
X47834502Y-61189882D01*
X47837413Y-61214987D01*
X47837415Y-61214991D01*
X47870496Y-61289913D01*
X47879568Y-61359191D01*
X47870497Y-61390085D01*
X47837415Y-61465009D01*
X47834500Y-61490131D01*
X47834500Y-61989856D01*
X47834502Y-61989882D01*
X47837413Y-62014987D01*
X47837415Y-62014991D01*
X47882793Y-62117764D01*
X47882794Y-62117765D01*
X47962235Y-62197206D01*
X48065009Y-62242585D01*
X48090135Y-62245500D01*
X50449864Y-62245499D01*
X50449879Y-62245497D01*
X50449882Y-62245497D01*
X50474987Y-62242586D01*
X50474988Y-62242585D01*
X50474991Y-62242585D01*
X50577765Y-62197206D01*
X50657206Y-62117765D01*
X50702585Y-62014991D01*
X50705500Y-61989865D01*
X50705499Y-61490136D01*
X50705497Y-61490117D01*
X50702586Y-61465012D01*
X50702585Y-61465011D01*
X50702585Y-61465009D01*
X50669502Y-61390084D01*
X50660431Y-61320809D01*
X50669501Y-61289918D01*
X50702585Y-61214991D01*
X50705500Y-61189865D01*
X50705499Y-60690136D01*
X50705497Y-60690117D01*
X50702586Y-60665012D01*
X50702585Y-60665010D01*
X50702585Y-60665009D01*
X50657206Y-60562235D01*
X50577765Y-60482794D01*
X50547657Y-60469500D01*
X50474992Y-60437415D01*
X50449865Y-60434500D01*
X48090143Y-60434500D01*
X48090117Y-60434502D01*
X48065012Y-60437413D01*
X48065008Y-60437415D01*
X47962235Y-60482793D01*
X47882794Y-60562234D01*
X47837415Y-60665006D01*
X47837415Y-60665008D01*
X47834500Y-60690131D01*
X44975499Y-60690131D01*
X44975499Y-60690130D01*
X44972586Y-60665012D01*
X44972585Y-60665010D01*
X44972585Y-60665009D01*
X44927206Y-60562235D01*
X44847765Y-60482794D01*
X44817657Y-60469500D01*
X44744992Y-60437415D01*
X44719865Y-60434500D01*
X42360143Y-60434500D01*
X42360117Y-60434502D01*
X42335012Y-60437413D01*
X42335010Y-60437414D01*
X42286270Y-60458935D01*
X42236185Y-60469500D01*
X41891680Y-60469500D01*
X41824641Y-60449815D01*
X41783004Y-60405212D01*
X40710754Y-58453717D01*
X40681290Y-58400092D01*
X42974500Y-58400092D01*
X42974500Y-58549907D01*
X43003723Y-58696822D01*
X43003725Y-58696830D01*
X43061051Y-58835229D01*
X43061056Y-58835238D01*
X43144280Y-58959790D01*
X43144283Y-58959794D01*
X43250205Y-59065716D01*
X43250209Y-59065719D01*
X43374761Y-59148943D01*
X43374767Y-59148946D01*
X43374768Y-59148947D01*
X43513170Y-59206275D01*
X43660092Y-59235499D01*
X43660096Y-59235500D01*
X43660097Y-59235500D01*
X43809904Y-59235500D01*
X43809905Y-59235499D01*
X43956830Y-59206275D01*
X44095232Y-59148947D01*
X44219791Y-59065719D01*
X44325719Y-58959791D01*
X44408947Y-58835232D01*
X44466275Y-58696830D01*
X44495500Y-58549903D01*
X44495500Y-58400097D01*
X44466275Y-58253170D01*
X44408947Y-58114768D01*
X44408946Y-58114767D01*
X44408943Y-58114761D01*
X44325719Y-57990209D01*
X44325716Y-57990205D01*
X44219794Y-57884283D01*
X44219790Y-57884280D01*
X44095238Y-57801056D01*
X44095229Y-57801051D01*
X43956830Y-57743725D01*
X43956822Y-57743723D01*
X43809907Y-57714500D01*
X43809903Y-57714500D01*
X43660097Y-57714500D01*
X43660092Y-57714500D01*
X43513177Y-57743723D01*
X43513169Y-57743725D01*
X43374770Y-57801051D01*
X43374761Y-57801056D01*
X43250209Y-57884280D01*
X43250205Y-57884283D01*
X43144283Y-57990205D01*
X43144280Y-57990209D01*
X43061056Y-58114761D01*
X43061051Y-58114770D01*
X43003725Y-58253169D01*
X43003723Y-58253177D01*
X42974500Y-58400092D01*
X40681290Y-58400092D01*
X24529753Y-29004294D01*
X24499618Y-28949448D01*
X74119500Y-28949448D01*
X74119500Y-29130551D01*
X74147829Y-29309410D01*
X74203787Y-29481636D01*
X74203788Y-29481639D01*
X74286006Y-29642997D01*
X74392441Y-29789494D01*
X74392445Y-29789499D01*
X74520500Y-29917554D01*
X74520505Y-29917558D01*
X74648287Y-30010396D01*
X74667006Y-30023996D01*
X74772484Y-30077740D01*
X74828360Y-30106211D01*
X74828363Y-30106212D01*
X74914476Y-30134191D01*
X75000591Y-30162171D01*
X75083429Y-30175291D01*
X75179449Y-30190500D01*
X75179454Y-30190500D01*
X75360551Y-30190500D01*
X75447259Y-30176765D01*
X75539409Y-30162171D01*
X75711639Y-30106211D01*
X75872994Y-30023996D01*
X76019501Y-29917553D01*
X76147553Y-29789501D01*
X76253996Y-29642994D01*
X76336211Y-29481639D01*
X76392171Y-29309409D01*
X76406765Y-29217259D01*
X76420500Y-29130551D01*
X76420500Y-28949448D01*
X76404019Y-28845397D01*
X76392171Y-28770591D01*
X76336211Y-28598361D01*
X76336211Y-28598360D01*
X76307740Y-28542484D01*
X76253996Y-28437006D01*
X76240396Y-28418287D01*
X76147558Y-28290505D01*
X76147554Y-28290500D01*
X76019499Y-28162445D01*
X76019494Y-28162441D01*
X75872997Y-28056006D01*
X75872996Y-28056005D01*
X75872994Y-28056004D01*
X75821300Y-28029664D01*
X75711639Y-27973788D01*
X75711636Y-27973787D01*
X75539410Y-27917829D01*
X75360551Y-27889500D01*
X75360546Y-27889500D01*
X75179454Y-27889500D01*
X75179449Y-27889500D01*
X75000589Y-27917829D01*
X74828363Y-27973787D01*
X74828360Y-27973788D01*
X74667002Y-28056006D01*
X74520505Y-28162441D01*
X74520500Y-28162445D01*
X74392445Y-28290500D01*
X74392441Y-28290505D01*
X74286006Y-28437002D01*
X74203788Y-28598360D01*
X74203787Y-28598363D01*
X74147829Y-28770589D01*
X74119500Y-28949448D01*
X24499618Y-28949448D01*
X21985929Y-24374535D01*
X21979745Y-24363280D01*
X21978436Y-24358394D01*
X21949965Y-24309080D01*
X21922527Y-24259143D01*
X21920037Y-24255752D01*
X21919845Y-24255458D01*
X21919280Y-24254706D01*
X21919051Y-24254439D01*
X21916490Y-24251101D01*
X21877144Y-24211756D01*
X21876209Y-24210821D01*
X21836802Y-24169709D01*
X21832475Y-24167087D01*
X21828894Y-24163506D01*
X21780726Y-24135696D01*
X21778468Y-24134360D01*
X21730847Y-24105505D01*
X21726977Y-24103805D01*
X21726976Y-24103805D01*
X21725719Y-24103253D01*
X21725489Y-24103172D01*
X21721610Y-24101565D01*
X21667883Y-24087168D01*
X21665360Y-24086463D01*
X21611891Y-24070916D01*
X21607719Y-24070277D01*
X21607697Y-24070274D01*
X21606355Y-24070068D01*
X21606148Y-24070052D01*
X21601951Y-24069500D01*
X21601943Y-24069500D01*
X21544982Y-24069500D01*
X21488035Y-24068294D01*
X21483120Y-24069500D01*
X18667493Y-24069500D01*
X18600454Y-24049815D01*
X18557009Y-24001795D01*
X18523997Y-23937007D01*
X18523996Y-23937006D01*
X18417558Y-23790505D01*
X18417554Y-23790500D01*
X18289499Y-23662445D01*
X18289494Y-23662441D01*
X18142997Y-23556006D01*
X18142996Y-23556005D01*
X18142994Y-23556004D01*
X18091300Y-23529664D01*
X17981639Y-23473788D01*
X17981636Y-23473787D01*
X17809410Y-23417829D01*
X17630551Y-23389500D01*
X17630546Y-23389500D01*
X17449454Y-23389500D01*
X17449449Y-23389500D01*
X17270589Y-23417829D01*
X17098363Y-23473787D01*
X17098360Y-23473788D01*
X16937002Y-23556006D01*
X16790505Y-23662441D01*
X16790500Y-23662445D01*
X16662445Y-23790500D01*
X16662441Y-23790505D01*
X16556006Y-23937002D01*
X16473788Y-24098360D01*
X16473787Y-24098363D01*
X16417829Y-24270589D01*
X16389500Y-24449448D01*
X9500500Y-24449448D01*
X9500500Y-14878711D01*
X15689500Y-14878711D01*
X15689500Y-15121288D01*
X15721161Y-15361785D01*
X15783947Y-15596104D01*
X15876773Y-15820205D01*
X15876776Y-15820212D01*
X15998064Y-16030289D01*
X15998066Y-16030292D01*
X15998067Y-16030293D01*
X16145733Y-16222736D01*
X16145739Y-16222743D01*
X16317256Y-16394260D01*
X16317262Y-16394265D01*
X16509711Y-16541936D01*
X16719788Y-16663224D01*
X16943900Y-16756054D01*
X17178211Y-16818838D01*
X17358586Y-16842584D01*
X17418711Y-16850500D01*
X17418712Y-16850500D01*
X17661289Y-16850500D01*
X17709388Y-16844167D01*
X17901789Y-16818838D01*
X18136100Y-16756054D01*
X18360212Y-16663224D01*
X18570289Y-16541936D01*
X18762738Y-16394265D01*
X18934265Y-16222738D01*
X19081936Y-16030289D01*
X19203224Y-15820212D01*
X19296054Y-15596100D01*
X19358838Y-15361789D01*
X19390500Y-15121288D01*
X19390500Y-14878712D01*
X19390500Y-14878711D01*
X73419500Y-14878711D01*
X73419500Y-15121288D01*
X73451161Y-15361785D01*
X73513947Y-15596104D01*
X73606773Y-15820205D01*
X73606776Y-15820212D01*
X73728064Y-16030289D01*
X73728066Y-16030292D01*
X73728067Y-16030293D01*
X73875733Y-16222736D01*
X73875739Y-16222743D01*
X74047256Y-16394260D01*
X74047262Y-16394265D01*
X74239711Y-16541936D01*
X74449788Y-16663224D01*
X74673900Y-16756054D01*
X74908211Y-16818838D01*
X75088586Y-16842584D01*
X75148711Y-16850500D01*
X75148712Y-16850500D01*
X75391289Y-16850500D01*
X75439388Y-16844167D01*
X75631789Y-16818838D01*
X75866100Y-16756054D01*
X76090212Y-16663224D01*
X76300289Y-16541936D01*
X76492738Y-16394265D01*
X76664265Y-16222738D01*
X76811936Y-16030289D01*
X76933224Y-15820212D01*
X77026054Y-15596100D01*
X77088838Y-15361789D01*
X77120500Y-15121288D01*
X77120500Y-14878712D01*
X77088838Y-14638211D01*
X77026054Y-14403900D01*
X76933224Y-14179788D01*
X76811936Y-13969711D01*
X76664265Y-13777262D01*
X76664260Y-13777256D01*
X76492743Y-13605739D01*
X76492736Y-13605733D01*
X76300293Y-13458067D01*
X76300292Y-13458066D01*
X76300289Y-13458064D01*
X76090212Y-13336776D01*
X76090205Y-13336773D01*
X75866104Y-13243947D01*
X75631785Y-13181161D01*
X75391289Y-13149500D01*
X75391288Y-13149500D01*
X75148712Y-13149500D01*
X75148711Y-13149500D01*
X74908214Y-13181161D01*
X74673895Y-13243947D01*
X74449794Y-13336773D01*
X74449785Y-13336777D01*
X74239706Y-13458067D01*
X74047263Y-13605733D01*
X74047256Y-13605739D01*
X73875739Y-13777256D01*
X73875733Y-13777263D01*
X73728067Y-13969706D01*
X73606777Y-14179785D01*
X73606773Y-14179794D01*
X73513947Y-14403895D01*
X73451161Y-14638214D01*
X73419500Y-14878711D01*
X19390500Y-14878711D01*
X19358838Y-14638211D01*
X19296054Y-14403900D01*
X19203224Y-14179788D01*
X19081936Y-13969711D01*
X18934265Y-13777262D01*
X18934260Y-13777256D01*
X18762743Y-13605739D01*
X18762736Y-13605733D01*
X18570293Y-13458067D01*
X18570292Y-13458066D01*
X18570289Y-13458064D01*
X18360212Y-13336776D01*
X18360205Y-13336773D01*
X18136104Y-13243947D01*
X17901785Y-13181161D01*
X17661289Y-13149500D01*
X17661288Y-13149500D01*
X17418712Y-13149500D01*
X17418711Y-13149500D01*
X17178214Y-13181161D01*
X16943895Y-13243947D01*
X16719794Y-13336773D01*
X16719785Y-13336777D01*
X16509706Y-13458067D01*
X16317263Y-13605733D01*
X16317256Y-13605739D01*
X16145739Y-13777256D01*
X16145733Y-13777263D01*
X15998067Y-13969706D01*
X15876777Y-14179785D01*
X15876773Y-14179794D01*
X15783947Y-14403895D01*
X15721161Y-14638214D01*
X15689500Y-14878711D01*
X9500500Y-14878711D01*
X9500500Y-10624500D01*
X9520185Y-10557461D01*
X9572989Y-10511706D01*
X9624500Y-10500500D01*
X83185500Y-10500500D01*
X83252539Y-10520185D01*
G37*
%TD.AperFunction*%
%TD*%
M02*
