M48
; DRILL file KiCad 10.0.3 date 2026-06-19T01:00:04
; FORMAT={-:-/ absolute / metric / decimal}
; #@! TF.CreationDate,2026-06-19T01:00:04-04:00
; #@! TF.GenerationSoftware,Kicad,Pcbnew,10.0.3
; #@! TF.FileFunction,MixedPlating,1,4
FMAT,2
METRIC
; #@! TA.AperFunction,Plated,PTH,ViaDrill
T1C0.300
; #@! TA.AperFunction,Plated,PTH,ComponentDrill
T2C1.100
; #@! TA.AperFunction,Plated,PTH,ComponentDrill
T3C1.400
; #@! TA.AperFunction,NonPlated,NPTH,ComponentDrill
T4C1.020
; #@! TA.AperFunction,NonPlated,NPTH,ComponentDrill
T5C3.200
%
G90
G05
T1
X11.925Y-12.925
X11.925Y-144.155
X23.925Y-12.925
X23.925Y-144.155
X29.925Y-12.925
X29.925Y-144.155
X35.925Y-12.925
X35.925Y-144.155
X41.54Y-70.54
X41.54Y-72.14
X41.54Y-84.94
X41.54Y-86.54
X41.925Y-12.925
X41.925Y-144.155
X47.925Y-12.925
X47.925Y-144.155
X53.925Y-12.925
X53.925Y-144.155
X59.925Y-12.925
X59.925Y-144.155
X65.925Y-12.925
X65.925Y-144.155
X71.925Y-12.925
X71.925Y-144.155
T2
X17.54Y-24.54
X17.54Y-33.54
X17.54Y-42.54
X17.54Y-51.54
X17.54Y-60.54
X17.54Y-69.54
X17.54Y-78.54
X17.54Y-87.54
X17.54Y-96.54
X17.54Y-105.54
X17.54Y-114.54
X17.54Y-123.54
X17.54Y-132.54
X75.27Y-29.04
X75.27Y-38.04
X75.27Y-47.04
X75.27Y-56.04
X75.27Y-65.04
X75.27Y-74.04
X75.27Y-83.04
X75.27Y-92.04
X75.27Y-101.04
X75.27Y-110.04
X75.27Y-119.04
X75.27Y-128.04
T3
X15.0Y-22.0
X15.0Y-27.08
X15.0Y-31.0
X15.0Y-36.08
X15.0Y-40.0
X15.0Y-45.08
X15.0Y-49.0
X15.0Y-54.08
X15.0Y-58.0
X15.0Y-63.08
X15.0Y-67.0
X15.0Y-72.08
X15.0Y-76.0
X15.0Y-81.08
X15.0Y-85.0
X15.0Y-90.08
X15.0Y-94.0
X15.0Y-99.08
X15.0Y-103.0
X15.0Y-108.08
X15.0Y-112.0
X15.0Y-117.08
X15.0Y-121.0
X15.0Y-126.08
X15.0Y-130.0
X15.0Y-135.08
X20.08Y-22.0
X20.08Y-27.08
X20.08Y-31.0
X20.08Y-36.08
X20.08Y-40.0
X20.08Y-45.08
X20.08Y-49.0
X20.08Y-54.08
X20.08Y-58.0
X20.08Y-63.08
X20.08Y-67.0
X20.08Y-72.08
X20.08Y-76.0
X20.08Y-81.08
X20.08Y-85.0
X20.08Y-90.08
X20.08Y-94.0
X20.08Y-99.08
X20.08Y-103.0
X20.08Y-108.08
X20.08Y-112.0
X20.08Y-117.08
X20.08Y-121.0
X20.08Y-126.08
X20.08Y-130.0
X20.08Y-135.08
X72.73Y-26.5
X72.73Y-31.58
X72.73Y-35.5
X72.73Y-40.58
X72.73Y-44.5
X72.73Y-49.58
X72.73Y-53.5
X72.73Y-58.58
X72.73Y-62.5
X72.73Y-67.58
X72.73Y-71.5
X72.73Y-76.58
X72.73Y-80.5
X72.73Y-85.58
X72.73Y-89.5
X72.73Y-94.58
X72.73Y-98.5
X72.73Y-103.58
X72.73Y-107.5
X72.73Y-112.58
X72.73Y-116.5
X72.73Y-121.58
X72.73Y-125.5
X72.73Y-130.58
X77.81Y-26.5
X77.81Y-31.58
X77.81Y-35.5
X77.81Y-40.58
X77.81Y-44.5
X77.81Y-49.58
X77.81Y-53.5
X77.81Y-58.58
X77.81Y-62.5
X77.81Y-67.58
X77.81Y-71.5
X77.81Y-76.58
X77.81Y-80.5
X77.81Y-85.58
X77.81Y-89.5
X77.81Y-94.58
X77.81Y-98.5
X77.81Y-103.58
X77.81Y-107.5
X77.81Y-112.58
X77.81Y-116.5
X77.81Y-121.58
X77.81Y-125.5
X77.81Y-130.58
T4
X43.735Y-58.475
X43.735Y-98.605
T5
X17.54Y-15.0
X17.54Y-142.08
X75.27Y-15.0
X75.27Y-142.08
M30
