%TF.GenerationSoftware,KiCad,Pcbnew,10.0.3*%
%TF.CreationDate,2026-07-17T14:48:35-04:00*%
%TF.ProjectId,board-A-mcx,626f6172-642d-4412-9d6d-63782e6b6963,rev?*%
%TF.SameCoordinates,Original*%
%TF.FileFunction,AssemblyDrawing,Bot*%
%FSLAX46Y46*%
G04 Gerber Fmt 4.6, Leading zero omitted, Abs format (unit mm)*
G04 Created by KiCad (PCBNEW 10.0.3) date 2026-07-17 14:48:35*
%MOMM*%
%LPD*%
G01*
G04 APERTURE LIST*
%ADD10C,0.150000*%
%ADD11C,0.100000*%
%ADD12C,0.200000*%
G04 APERTURE END LIST*
D10*
X41097200Y-67491667D02*
X41144819Y-67634524D01*
X41144819Y-67634524D02*
X41144819Y-67872619D01*
X41144819Y-67872619D02*
X41097200Y-67967857D01*
X41097200Y-67967857D02*
X41049580Y-68015476D01*
X41049580Y-68015476D02*
X40954342Y-68063095D01*
X40954342Y-68063095D02*
X40859104Y-68063095D01*
X40859104Y-68063095D02*
X40763866Y-68015476D01*
X40763866Y-68015476D02*
X40716247Y-67967857D01*
X40716247Y-67967857D02*
X40668628Y-67872619D01*
X40668628Y-67872619D02*
X40621009Y-67682143D01*
X40621009Y-67682143D02*
X40573390Y-67586905D01*
X40573390Y-67586905D02*
X40525771Y-67539286D01*
X40525771Y-67539286D02*
X40430533Y-67491667D01*
X40430533Y-67491667D02*
X40335295Y-67491667D01*
X40335295Y-67491667D02*
X40240057Y-67539286D01*
X40240057Y-67539286D02*
X40192438Y-67586905D01*
X40192438Y-67586905D02*
X40144819Y-67682143D01*
X40144819Y-67682143D02*
X40144819Y-67920238D01*
X40144819Y-67920238D02*
X40192438Y-68063095D01*
X40859104Y-68444048D02*
X40859104Y-68920238D01*
X41144819Y-68348810D02*
X40144819Y-68682143D01*
X40144819Y-68682143D02*
X41144819Y-69015476D01*
X41144819Y-69348810D02*
X40144819Y-69348810D01*
X40144819Y-69348810D02*
X40859104Y-69682143D01*
X40859104Y-69682143D02*
X40144819Y-70015476D01*
X40144819Y-70015476D02*
X41144819Y-70015476D01*
X40144819Y-70348810D02*
X40144819Y-70920238D01*
X41144819Y-70634524D02*
X40144819Y-70634524D01*
X40621009Y-71253572D02*
X40621009Y-71586905D01*
X41144819Y-71729762D02*
X41144819Y-71253572D01*
X41144819Y-71253572D02*
X40144819Y-71253572D01*
X40144819Y-71253572D02*
X40144819Y-71729762D01*
X41049580Y-72729762D02*
X41097200Y-72682143D01*
X41097200Y-72682143D02*
X41144819Y-72539286D01*
X41144819Y-72539286D02*
X41144819Y-72444048D01*
X41144819Y-72444048D02*
X41097200Y-72301191D01*
X41097200Y-72301191D02*
X41001961Y-72205953D01*
X41001961Y-72205953D02*
X40906723Y-72158334D01*
X40906723Y-72158334D02*
X40716247Y-72110715D01*
X40716247Y-72110715D02*
X40573390Y-72110715D01*
X40573390Y-72110715D02*
X40382914Y-72158334D01*
X40382914Y-72158334D02*
X40287676Y-72205953D01*
X40287676Y-72205953D02*
X40192438Y-72301191D01*
X40192438Y-72301191D02*
X40144819Y-72444048D01*
X40144819Y-72444048D02*
X40144819Y-72539286D01*
X40144819Y-72539286D02*
X40192438Y-72682143D01*
X40192438Y-72682143D02*
X40240057Y-72729762D01*
X41240057Y-72920239D02*
X41240057Y-73682143D01*
X41240057Y-74586905D02*
X41192438Y-74491667D01*
X41192438Y-74491667D02*
X41097200Y-74396429D01*
X41097200Y-74396429D02*
X40954342Y-74253572D01*
X40954342Y-74253572D02*
X40906723Y-74158334D01*
X40906723Y-74158334D02*
X40906723Y-74063096D01*
X41144819Y-74110715D02*
X41097200Y-74015477D01*
X41097200Y-74015477D02*
X41001961Y-73920239D01*
X41001961Y-73920239D02*
X40811485Y-73872620D01*
X40811485Y-73872620D02*
X40478152Y-73872620D01*
X40478152Y-73872620D02*
X40287676Y-73920239D01*
X40287676Y-73920239D02*
X40192438Y-74015477D01*
X40192438Y-74015477D02*
X40144819Y-74110715D01*
X40144819Y-74110715D02*
X40144819Y-74301191D01*
X40144819Y-74301191D02*
X40192438Y-74396429D01*
X40192438Y-74396429D02*
X40287676Y-74491667D01*
X40287676Y-74491667D02*
X40478152Y-74539286D01*
X40478152Y-74539286D02*
X40811485Y-74539286D01*
X40811485Y-74539286D02*
X41001961Y-74491667D01*
X41001961Y-74491667D02*
X41097200Y-74396429D01*
X41097200Y-74396429D02*
X41144819Y-74301191D01*
X41144819Y-74301191D02*
X41144819Y-74110715D01*
X41097200Y-74920239D02*
X41144819Y-75063096D01*
X41144819Y-75063096D02*
X41144819Y-75301191D01*
X41144819Y-75301191D02*
X41097200Y-75396429D01*
X41097200Y-75396429D02*
X41049580Y-75444048D01*
X41049580Y-75444048D02*
X40954342Y-75491667D01*
X40954342Y-75491667D02*
X40859104Y-75491667D01*
X40859104Y-75491667D02*
X40763866Y-75444048D01*
X40763866Y-75444048D02*
X40716247Y-75396429D01*
X40716247Y-75396429D02*
X40668628Y-75301191D01*
X40668628Y-75301191D02*
X40621009Y-75110715D01*
X40621009Y-75110715D02*
X40573390Y-75015477D01*
X40573390Y-75015477D02*
X40525771Y-74967858D01*
X40525771Y-74967858D02*
X40430533Y-74920239D01*
X40430533Y-74920239D02*
X40335295Y-74920239D01*
X40335295Y-74920239D02*
X40240057Y-74967858D01*
X40240057Y-74967858D02*
X40192438Y-75015477D01*
X40192438Y-75015477D02*
X40144819Y-75110715D01*
X40144819Y-75110715D02*
X40144819Y-75348810D01*
X40144819Y-75348810D02*
X40192438Y-75491667D01*
X40621009Y-75920239D02*
X40621009Y-76253572D01*
X41144819Y-76396429D02*
X41144819Y-75920239D01*
X41144819Y-75920239D02*
X40144819Y-75920239D01*
X40144819Y-75920239D02*
X40144819Y-76396429D01*
X40763866Y-76825001D02*
X40763866Y-77586906D01*
X40144819Y-78253572D02*
X40144819Y-78348810D01*
X40144819Y-78348810D02*
X40192438Y-78444048D01*
X40192438Y-78444048D02*
X40240057Y-78491667D01*
X40240057Y-78491667D02*
X40335295Y-78539286D01*
X40335295Y-78539286D02*
X40525771Y-78586905D01*
X40525771Y-78586905D02*
X40763866Y-78586905D01*
X40763866Y-78586905D02*
X40954342Y-78539286D01*
X40954342Y-78539286D02*
X41049580Y-78491667D01*
X41049580Y-78491667D02*
X41097200Y-78444048D01*
X41097200Y-78444048D02*
X41144819Y-78348810D01*
X41144819Y-78348810D02*
X41144819Y-78253572D01*
X41144819Y-78253572D02*
X41097200Y-78158334D01*
X41097200Y-78158334D02*
X41049580Y-78110715D01*
X41049580Y-78110715D02*
X40954342Y-78063096D01*
X40954342Y-78063096D02*
X40763866Y-78015477D01*
X40763866Y-78015477D02*
X40525771Y-78015477D01*
X40525771Y-78015477D02*
X40335295Y-78063096D01*
X40335295Y-78063096D02*
X40240057Y-78110715D01*
X40240057Y-78110715D02*
X40192438Y-78158334D01*
X40192438Y-78158334D02*
X40144819Y-78253572D01*
X40478152Y-79444048D02*
X41144819Y-79444048D01*
X40097200Y-79205953D02*
X40811485Y-78967858D01*
X40811485Y-78967858D02*
X40811485Y-79586905D01*
X40144819Y-80158334D02*
X40144819Y-80253572D01*
X40144819Y-80253572D02*
X40192438Y-80348810D01*
X40192438Y-80348810D02*
X40240057Y-80396429D01*
X40240057Y-80396429D02*
X40335295Y-80444048D01*
X40335295Y-80444048D02*
X40525771Y-80491667D01*
X40525771Y-80491667D02*
X40763866Y-80491667D01*
X40763866Y-80491667D02*
X40954342Y-80444048D01*
X40954342Y-80444048D02*
X41049580Y-80396429D01*
X41049580Y-80396429D02*
X41097200Y-80348810D01*
X41097200Y-80348810D02*
X41144819Y-80253572D01*
X41144819Y-80253572D02*
X41144819Y-80158334D01*
X41144819Y-80158334D02*
X41097200Y-80063096D01*
X41097200Y-80063096D02*
X41049580Y-80015477D01*
X41049580Y-80015477D02*
X40954342Y-79967858D01*
X40954342Y-79967858D02*
X40763866Y-79920239D01*
X40763866Y-79920239D02*
X40525771Y-79920239D01*
X40525771Y-79920239D02*
X40335295Y-79967858D01*
X40335295Y-79967858D02*
X40240057Y-80015477D01*
X40240057Y-80015477D02*
X40192438Y-80063096D01*
X40192438Y-80063096D02*
X40144819Y-80158334D01*
X40763866Y-80920239D02*
X40763866Y-81682144D01*
X40144819Y-82348810D02*
X40144819Y-82444048D01*
X40144819Y-82444048D02*
X40192438Y-82539286D01*
X40192438Y-82539286D02*
X40240057Y-82586905D01*
X40240057Y-82586905D02*
X40335295Y-82634524D01*
X40335295Y-82634524D02*
X40525771Y-82682143D01*
X40525771Y-82682143D02*
X40763866Y-82682143D01*
X40763866Y-82682143D02*
X40954342Y-82634524D01*
X40954342Y-82634524D02*
X41049580Y-82586905D01*
X41049580Y-82586905D02*
X41097200Y-82539286D01*
X41097200Y-82539286D02*
X41144819Y-82444048D01*
X41144819Y-82444048D02*
X41144819Y-82348810D01*
X41144819Y-82348810D02*
X41097200Y-82253572D01*
X41097200Y-82253572D02*
X41049580Y-82205953D01*
X41049580Y-82205953D02*
X40954342Y-82158334D01*
X40954342Y-82158334D02*
X40763866Y-82110715D01*
X40763866Y-82110715D02*
X40525771Y-82110715D01*
X40525771Y-82110715D02*
X40335295Y-82158334D01*
X40335295Y-82158334D02*
X40240057Y-82205953D01*
X40240057Y-82205953D02*
X40192438Y-82253572D01*
X40192438Y-82253572D02*
X40144819Y-82348810D01*
X41144819Y-83634524D02*
X41144819Y-83063096D01*
X41144819Y-83348810D02*
X40144819Y-83348810D01*
X40144819Y-83348810D02*
X40287676Y-83253572D01*
X40287676Y-83253572D02*
X40382914Y-83158334D01*
X40382914Y-83158334D02*
X40430533Y-83063096D01*
X40763866Y-84063096D02*
X40763866Y-84825001D01*
X40144819Y-85205953D02*
X41144819Y-85872619D01*
X40144819Y-85872619D02*
X41144819Y-85205953D01*
X40763866Y-86253572D02*
X40763866Y-87015477D01*
X41144819Y-87491667D02*
X40144819Y-87491667D01*
X40144819Y-87491667D02*
X40144819Y-87729762D01*
X40144819Y-87729762D02*
X40192438Y-87872619D01*
X40192438Y-87872619D02*
X40287676Y-87967857D01*
X40287676Y-87967857D02*
X40382914Y-88015476D01*
X40382914Y-88015476D02*
X40573390Y-88063095D01*
X40573390Y-88063095D02*
X40716247Y-88063095D01*
X40716247Y-88063095D02*
X40906723Y-88015476D01*
X40906723Y-88015476D02*
X41001961Y-87967857D01*
X41001961Y-87967857D02*
X41097200Y-87872619D01*
X41097200Y-87872619D02*
X41144819Y-87729762D01*
X41144819Y-87729762D02*
X41144819Y-87491667D01*
X40763866Y-88491667D02*
X40763866Y-89253572D01*
X40859104Y-89682143D02*
X40859104Y-90158333D01*
X41144819Y-89586905D02*
X40144819Y-89920238D01*
X40144819Y-89920238D02*
X41144819Y-90253571D01*
%TO.C,J5*%
D11*
X42785000Y-51900000D02*
X42785000Y-93180000D01*
X42785000Y-93180000D02*
X50025000Y-93180000D01*
X50025000Y-51900000D02*
X42785000Y-51900000D01*
X50025000Y-93180000D02*
X50025000Y-51900000D01*
D12*
X41805000Y-90140000D02*
G75*
G02*
X41605000Y-90140000I-100000J0D01*
G01*
X41605000Y-90140000D02*
G75*
G02*
X41805000Y-90140000I100000J0D01*
G01*
%TD*%
M02*
