%TF.GenerationSoftware,KiCad,Pcbnew,10.0.3*%
%TF.CreationDate,2026-06-19T01:00:04-04:00*%
%TF.ProjectId,board-A-mcx,626f6172-642d-4412-9d6d-63782e6b6963,rev?*%
%TF.SameCoordinates,Original*%
%TF.FileFunction,Paste,Top*%
%TF.FilePolarity,Positive*%
%FSLAX46Y46*%
G04 Gerber Fmt 4.6, Leading zero omitted, Abs format (unit mm)*
G04 Created by KiCad (PCBNEW 10.0.3) date 2026-06-19 01:00:04*
%MOMM*%
%LPD*%
G01*
G04 APERTURE LIST*
%ADD10R,2.270000X0.410000*%
%ADD11R,0.430000X2.540000*%
%ADD12R,0.430000X4.700000*%
G04 APERTURE END LIST*
D10*
%TO.C,J5*%
X49270000Y-96140000D03*
X43540000Y-96140000D03*
X49270000Y-95340000D03*
X43540000Y-95340000D03*
X49270000Y-94540000D03*
X43540000Y-94540000D03*
X49270000Y-93740000D03*
X43540000Y-93740000D03*
X49270000Y-92940000D03*
X43540000Y-92940000D03*
X49270000Y-92140000D03*
X43540000Y-92140000D03*
X49270000Y-91340000D03*
X43540000Y-91340000D03*
X49270000Y-90540000D03*
X43540000Y-90540000D03*
X49270000Y-89740000D03*
X43540000Y-89740000D03*
X49270000Y-88940000D03*
X43540000Y-88940000D03*
X49270000Y-88140000D03*
X43540000Y-88140000D03*
X49270000Y-87340000D03*
X43540000Y-87340000D03*
X49270000Y-86540000D03*
X43540000Y-86540000D03*
X49270000Y-85740000D03*
X43540000Y-85740000D03*
X49270000Y-84940000D03*
X43540000Y-84940000D03*
X49270000Y-84140000D03*
X43540000Y-84140000D03*
X49270000Y-83340000D03*
X43540000Y-83340000D03*
X49270000Y-82540000D03*
X43540000Y-82540000D03*
X49270000Y-81740000D03*
X43540000Y-81740000D03*
X49270000Y-80940000D03*
X43540000Y-80940000D03*
X49270000Y-76140000D03*
X43540000Y-76140000D03*
X49270000Y-75340000D03*
X43540000Y-75340000D03*
X49270000Y-74540000D03*
X43540000Y-74540000D03*
X49270000Y-73740000D03*
X43540000Y-73740000D03*
X49270000Y-72940000D03*
X43540000Y-72940000D03*
X49270000Y-72140000D03*
X43540000Y-72140000D03*
X49270000Y-71340000D03*
X43540000Y-71340000D03*
X49270000Y-70540000D03*
X43540000Y-70540000D03*
X49270000Y-69740000D03*
X43540000Y-69740000D03*
X49270000Y-68940000D03*
X43540000Y-68940000D03*
X49270000Y-68140000D03*
X43540000Y-68140000D03*
X49270000Y-67340000D03*
X43540000Y-67340000D03*
X49270000Y-66540000D03*
X43540000Y-66540000D03*
X49270000Y-65740000D03*
X43540000Y-65740000D03*
X49270000Y-64940000D03*
X43540000Y-64940000D03*
X49270000Y-64140000D03*
X43540000Y-64140000D03*
X49270000Y-63340000D03*
X43540000Y-63340000D03*
X49270000Y-62540000D03*
X43540000Y-62540000D03*
X49270000Y-61740000D03*
X43540000Y-61740000D03*
X49270000Y-60940000D03*
X43540000Y-60940000D03*
D11*
X46405000Y-96605000D03*
D12*
X46405000Y-91715000D03*
X46405000Y-85365000D03*
D11*
X46405000Y-80475000D03*
X46405000Y-76605000D03*
D12*
X46405000Y-71715000D03*
X46405000Y-65365000D03*
D11*
X46405000Y-60475000D03*
%TD*%
M02*
