%TF.GenerationSoftware,KiCad,Pcbnew,10.0.3*%
%TF.CreationDate,2026-07-15T14:37:16-04:00*%
%TF.ProjectId,board-A-mcx,626f6172-642d-4412-9d6d-63782e6b6963,rev?*%
%TF.SameCoordinates,Original*%
%TF.FileFunction,Copper,L1,Top*%
%TF.FilePolarity,Positive*%
%FSLAX46Y46*%
G04 Gerber Fmt 4.6, Leading zero omitted, Abs format (unit mm)*
G04 Created by KiCad (PCBNEW 10.0.3) date 2026-07-15 14:37:16*
%MOMM*%
%LPD*%
G01*
G04 APERTURE LIST*
%TA.AperFunction,ComponentPad*%
%ADD10C,1.700000*%
%TD*%
%TA.AperFunction,ComponentPad*%
%ADD11C,2.000000*%
%TD*%
%TA.AperFunction,ViaPad*%
%ADD12C,0.600000*%
%TD*%
G04 APERTURE END LIST*
D10*
%TO.P,K2,1*%
%TO.N,SIPM_K2*%
X75270000Y-112540000D03*
D11*
%TO.P,K2,2*%
%TO.N,GNDA*%
X72730000Y-110000000D03*
X72730000Y-115080000D03*
X77810000Y-110000000D03*
X77810000Y-115080000D03*
%TD*%
D10*
%TO.P,K4,1*%
%TO.N,SIPM_K4*%
X75270000Y-128540000D03*
D11*
%TO.P,K4,2*%
%TO.N,GNDA*%
X72730000Y-126000000D03*
X72730000Y-131080000D03*
X77810000Y-126000000D03*
X77810000Y-131080000D03*
%TD*%
D10*
%TO.P,K15,1*%
%TO.N,SIPM_K15*%
X17540000Y-60540000D03*
D11*
%TO.P,K15,2*%
%TO.N,GNDA*%
X20080000Y-63080000D03*
X20080000Y-58000000D03*
X15000000Y-63080000D03*
X15000000Y-58000000D03*
%TD*%
D10*
%TO.P,K8,1*%
%TO.N,SIPM_K8*%
X17540000Y-116540000D03*
D11*
%TO.P,K8,2*%
%TO.N,GNDA*%
X20080000Y-119080000D03*
X20080000Y-114000000D03*
X15000000Y-119080000D03*
X15000000Y-114000000D03*
%TD*%
D10*
%TO.P,K20,1*%
%TO.N,SIPM_K20*%
X75270000Y-56540000D03*
D11*
%TO.P,K20,2*%
%TO.N,GNDA*%
X72730000Y-54000000D03*
X72730000Y-59080000D03*
X77810000Y-54000000D03*
X77810000Y-59080000D03*
%TD*%
D10*
%TO.P,K3,1*%
%TO.N,SIPM_K3*%
X75270000Y-120540000D03*
D11*
%TO.P,K3,2*%
%TO.N,GNDA*%
X72730000Y-118000000D03*
X72730000Y-123080000D03*
X77810000Y-118000000D03*
X77810000Y-123080000D03*
%TD*%
D10*
%TO.P,K11,1*%
%TO.N,SIPM_K11*%
X17540000Y-92540000D03*
D11*
%TO.P,K11,2*%
%TO.N,GNDA*%
X20080000Y-95080000D03*
X20080000Y-90000000D03*
X15000000Y-95080000D03*
X15000000Y-90000000D03*
%TD*%
D10*
%TO.P,K18,1*%
%TO.N,SIPM_K18*%
X75270000Y-40540000D03*
D11*
%TO.P,K18,2*%
%TO.N,GNDA*%
X72730000Y-38000000D03*
X72730000Y-43080000D03*
X77810000Y-38000000D03*
X77810000Y-43080000D03*
%TD*%
D10*
%TO.P,K7,1*%
%TO.N,SIPM_K7*%
X75270000Y-152540000D03*
D11*
%TO.P,K7,2*%
%TO.N,GNDA*%
X72730000Y-150000000D03*
X72730000Y-155080000D03*
X77810000Y-150000000D03*
X77810000Y-155080000D03*
%TD*%
D10*
%TO.P,K22,1*%
%TO.N,SIPM_K22*%
X75270000Y-72540000D03*
D11*
%TO.P,K22,2*%
%TO.N,GNDA*%
X72730000Y-70000000D03*
X72730000Y-75080000D03*
X77810000Y-70000000D03*
X77810000Y-75080000D03*
%TD*%
D10*
%TO.P,K10,1*%
%TO.N,SIPM_K10*%
X17540000Y-100540000D03*
D11*
%TO.P,K10,2*%
%TO.N,GNDA*%
X20080000Y-103080000D03*
X20080000Y-98000000D03*
X15000000Y-103080000D03*
X15000000Y-98000000D03*
%TD*%
D10*
%TO.P,K6,1*%
%TO.N,SIPM_K6*%
X75270000Y-144540000D03*
D11*
%TO.P,K6,2*%
%TO.N,GNDA*%
X72730000Y-142000000D03*
X72730000Y-147080000D03*
X77810000Y-142000000D03*
X77810000Y-147080000D03*
%TD*%
D10*
%TO.P,K21,1*%
%TO.N,SIPM_K21*%
X75270000Y-64540000D03*
D11*
%TO.P,K21,2*%
%TO.N,GNDA*%
X72730000Y-62000000D03*
X72730000Y-67080000D03*
X77810000Y-62000000D03*
X77810000Y-67080000D03*
%TD*%
D10*
%TO.P,K13,1*%
%TO.N,SIPM_K13*%
X17540000Y-76540000D03*
D11*
%TO.P,K13,2*%
%TO.N,GNDA*%
X20080000Y-79080000D03*
X20080000Y-74000000D03*
X15000000Y-79080000D03*
X15000000Y-74000000D03*
%TD*%
D10*
%TO.P,K23,1*%
%TO.N,SIPM_K23*%
X75270000Y-80540000D03*
D11*
%TO.P,K23,2*%
%TO.N,GNDA*%
X72730000Y-78000000D03*
X72730000Y-83080000D03*
X77810000Y-78000000D03*
X77810000Y-83080000D03*
%TD*%
D10*
%TO.P,K0,1*%
%TO.N,SIPM_K0*%
X75270000Y-96540000D03*
D11*
%TO.P,K0,2*%
%TO.N,GNDA*%
X72730000Y-94000000D03*
X72730000Y-99080000D03*
X77810000Y-94000000D03*
X77810000Y-99080000D03*
%TD*%
D10*
%TO.P,K16,1*%
%TO.N,SIPM_K16*%
X75270000Y-24540000D03*
D11*
%TO.P,K16,2*%
%TO.N,GNDA*%
X72730000Y-22000000D03*
X72730000Y-27080000D03*
X77810000Y-22000000D03*
X77810000Y-27080000D03*
%TD*%
D10*
%TO.P,K9,1*%
%TO.N,SIPM_K9*%
X17540000Y-108540000D03*
D11*
%TO.P,K9,2*%
%TO.N,GNDA*%
X20080000Y-111080000D03*
X20080000Y-106000000D03*
X15000000Y-111080000D03*
X15000000Y-106000000D03*
%TD*%
D10*
%TO.P,K5,1*%
%TO.N,SIPM_K5*%
X75270000Y-136540000D03*
D11*
%TO.P,K5,2*%
%TO.N,GNDA*%
X72730000Y-134000000D03*
X72730000Y-139080000D03*
X77810000Y-134000000D03*
X77810000Y-139080000D03*
%TD*%
D10*
%TO.P,K1,1*%
%TO.N,SIPM_K1*%
X75270000Y-104540000D03*
D11*
%TO.P,K1,2*%
%TO.N,GNDA*%
X72730000Y-102000000D03*
X72730000Y-107080000D03*
X77810000Y-102000000D03*
X77810000Y-107080000D03*
%TD*%
D10*
%TO.P,K14,1*%
%TO.N,SIPM_K14*%
X17540000Y-68540000D03*
D11*
%TO.P,K14,2*%
%TO.N,GNDA*%
X20080000Y-71080000D03*
X20080000Y-66000000D03*
X15000000Y-71080000D03*
X15000000Y-66000000D03*
%TD*%
D10*
%TO.P,K12,1*%
%TO.N,SIPM_K12*%
X17540000Y-84540000D03*
D11*
%TO.P,K12,2*%
%TO.N,GNDA*%
X20080000Y-87080000D03*
X20080000Y-82000000D03*
X15000000Y-87080000D03*
X15000000Y-82000000D03*
%TD*%
D10*
%TO.P,K19,1*%
%TO.N,SIPM_K19*%
X75270000Y-48540000D03*
D11*
%TO.P,K19,2*%
%TO.N,GNDA*%
X72730000Y-46000000D03*
X72730000Y-51080000D03*
X77810000Y-46000000D03*
X77810000Y-51080000D03*
%TD*%
D10*
%TO.P,IV,1*%
%TO.N,IV*%
X75270000Y-88540000D03*
D11*
%TO.P,IV,2*%
%TO.N,GNDA*%
X72730000Y-86000000D03*
X72730000Y-91080000D03*
X77810000Y-86000000D03*
X77810000Y-91080000D03*
%TD*%
D10*
%TO.P,K17,1*%
%TO.N,SIPM_K17*%
X75270000Y-32540000D03*
D11*
%TO.P,K17,2*%
%TO.N,GNDA*%
X72730000Y-30000000D03*
X72730000Y-35080000D03*
X77810000Y-30000000D03*
X77810000Y-35080000D03*
%TD*%
D12*
%TO.N,GNDA*%
X31925000Y-62925000D03*
X46925000Y-22925000D03*
X41925000Y-162925000D03*
X56925000Y-152925000D03*
X11925000Y-47925000D03*
X66925000Y-112925000D03*
X31925000Y-12925000D03*
X46925000Y-132925000D03*
X41925000Y-52925000D03*
X36925000Y-67925000D03*
X51925000Y-22925000D03*
X46925000Y-142925000D03*
X46925000Y-37925000D03*
X49601073Y-73340000D03*
X46925000Y-97925000D03*
X21925000Y-32925000D03*
X21925000Y-27925000D03*
X56925000Y-62925000D03*
X41925000Y-137925000D03*
X31925000Y-82925000D03*
X36925000Y-147925000D03*
X41925000Y-77925000D03*
X41925000Y-147925000D03*
X21925000Y-147925000D03*
X21925000Y-52925000D03*
X61925000Y-27925000D03*
X51925000Y-57925000D03*
X11925000Y-17925000D03*
X61925000Y-42925000D03*
X49580947Y-103740000D03*
X31925000Y-67925000D03*
X41925000Y-97925000D03*
X56925000Y-22925000D03*
X66925000Y-137925000D03*
X56925000Y-12925000D03*
X31925000Y-112925000D03*
X36925000Y-152925000D03*
X11925000Y-162925000D03*
X56925000Y-72925000D03*
X16925000Y-147925000D03*
X46925000Y-162925000D03*
X51925000Y-117925000D03*
X56925000Y-132925000D03*
X11925000Y-22925000D03*
X36925000Y-142925000D03*
X31925000Y-157925000D03*
X31925000Y-37925000D03*
X36925000Y-132925000D03*
X66925000Y-62925000D03*
X31925000Y-47925000D03*
X66925000Y-102925000D03*
X41925000Y-87925000D03*
X61925000Y-142925000D03*
X51925000Y-27925000D03*
X26925000Y-157925000D03*
X51925000Y-92925000D03*
X56925000Y-57925000D03*
X16925000Y-52925000D03*
X66925000Y-47925000D03*
X26925000Y-47925000D03*
X41925000Y-42925000D03*
X26925000Y-22925000D03*
X21925000Y-12925000D03*
X16925000Y-27925000D03*
X61925000Y-12925000D03*
X16925000Y-122925000D03*
X11925000Y-42925000D03*
X36925000Y-42925000D03*
X21925000Y-132925000D03*
X51925000Y-12925000D03*
X46925000Y-12925000D03*
X66925000Y-27925000D03*
X21925000Y-122925000D03*
X51925000Y-52925000D03*
X41925000Y-67925000D03*
X26925000Y-97925000D03*
X31925000Y-17925000D03*
X16925000Y-127925000D03*
X31925000Y-52925000D03*
X36925000Y-12925000D03*
X41925000Y-32925000D03*
X26925000Y-142925000D03*
X26925000Y-17925000D03*
X26925000Y-67925000D03*
X41925000Y-152925000D03*
X51925000Y-42925000D03*
X51925000Y-152925000D03*
X31925000Y-162925000D03*
X36925000Y-37925000D03*
X71925000Y-17925000D03*
X56925000Y-142925000D03*
X46925000Y-112925000D03*
X66925000Y-52925000D03*
X51925000Y-122925000D03*
X51925000Y-62925000D03*
X51925000Y-157925000D03*
X16925000Y-142925000D03*
X26925000Y-32925000D03*
X31925000Y-87925000D03*
X36925000Y-32925000D03*
X21925000Y-42925000D03*
X11925000Y-132925000D03*
X41925000Y-107925000D03*
X61925000Y-57925000D03*
X36925000Y-157925000D03*
X21925000Y-162925000D03*
X16925000Y-137925000D03*
X41925000Y-127925000D03*
X46925000Y-87925000D03*
X66925000Y-157925000D03*
X26925000Y-92925000D03*
X41925000Y-62925000D03*
X11925000Y-127925000D03*
X36925000Y-112925000D03*
X41925000Y-102925000D03*
X41925000Y-17925000D03*
X56925000Y-137925000D03*
X36925000Y-137925000D03*
X36925000Y-117925000D03*
X36925000Y-27925000D03*
X36925000Y-107925000D03*
X41925000Y-142925000D03*
X26925000Y-162925000D03*
X46925000Y-42925000D03*
X16925000Y-32925000D03*
X26925000Y-12925000D03*
X66925000Y-17925000D03*
X61925000Y-97925000D03*
X26925000Y-132925000D03*
X41925000Y-122925000D03*
X16925000Y-152925000D03*
X31925000Y-42925000D03*
X66925000Y-22925000D03*
X61925000Y-147925000D03*
X11925000Y-12925000D03*
X11925000Y-122925000D03*
X11925000Y-137925000D03*
X31925000Y-22925000D03*
X36925000Y-72925000D03*
X36925000Y-22925000D03*
X26925000Y-107925000D03*
X21925000Y-157925000D03*
X31925000Y-137925000D03*
X41925000Y-47925000D03*
X66925000Y-92925000D03*
X46925000Y-57925000D03*
X56925000Y-127925000D03*
X11925000Y-27925000D03*
X61925000Y-32925000D03*
X66925000Y-132925000D03*
X66925000Y-127925000D03*
X56925000Y-162925000D03*
X36925000Y-57925000D03*
X46925000Y-92925000D03*
X61925000Y-162925000D03*
X46925000Y-47925000D03*
X26925000Y-112925000D03*
X26925000Y-77925000D03*
X16925000Y-132925000D03*
X31925000Y-107925000D03*
X36925000Y-77925000D03*
X26925000Y-27925000D03*
X41925000Y-132925000D03*
X51925000Y-147925000D03*
X21925000Y-22925000D03*
X61925000Y-122925000D03*
X51925000Y-37925000D03*
X66925000Y-162925000D03*
X56925000Y-117925000D03*
X26925000Y-52925000D03*
X56925000Y-32925000D03*
X16925000Y-37925000D03*
X66925000Y-147925000D03*
X61925000Y-157925000D03*
X46925000Y-137925000D03*
X31925000Y-117925000D03*
X36925000Y-62925000D03*
X51925000Y-32925000D03*
X11925000Y-92925000D03*
X41925000Y-157925000D03*
X46925000Y-62925000D03*
X56925000Y-27925000D03*
X46925000Y-52925000D03*
X26925000Y-117925000D03*
X11925000Y-37925000D03*
X26925000Y-57925000D03*
X16925000Y-22925000D03*
X56925000Y-77925000D03*
X61925000Y-77925000D03*
X61925000Y-152925000D03*
X41925000Y-22925000D03*
X21925000Y-37925000D03*
X61925000Y-107925000D03*
X31925000Y-27925000D03*
X21925000Y-47925000D03*
X31925000Y-32925000D03*
X31925000Y-72925000D03*
X11925000Y-107925000D03*
X46925000Y-72925000D03*
X11925000Y-142925000D03*
X66925000Y-67925000D03*
X26925000Y-127925000D03*
X31925000Y-132925000D03*
X66925000Y-12925000D03*
X66925000Y-37925000D03*
X31925000Y-57925000D03*
X46925000Y-27925000D03*
X11925000Y-152925000D03*
X16925000Y-42925000D03*
X46925000Y-82925000D03*
X51925000Y-17925000D03*
X56925000Y-102925000D03*
X51925000Y-162925000D03*
X36925000Y-47925000D03*
X56925000Y-157925000D03*
X61925000Y-22925000D03*
X41925000Y-117925000D03*
X56925000Y-17925000D03*
X66925000Y-72925000D03*
X31925000Y-127925000D03*
X56925000Y-37925000D03*
X51925000Y-127925000D03*
X36925000Y-52925000D03*
X61925000Y-72925000D03*
X21925000Y-17925000D03*
X51925000Y-137925000D03*
X56925000Y-52925000D03*
X51925000Y-132925000D03*
X46925000Y-122925000D03*
X26925000Y-87925000D03*
X11925000Y-157925000D03*
X61925000Y-47925000D03*
X31925000Y-77925000D03*
X61925000Y-17925000D03*
X11925000Y-147925000D03*
X36925000Y-127925000D03*
X66925000Y-142925000D03*
X61925000Y-52925000D03*
X31925000Y-102925000D03*
X51925000Y-142925000D03*
X41925000Y-72925000D03*
X46925000Y-32925000D03*
X56925000Y-92925000D03*
X56925000Y-107925000D03*
X31925000Y-142925000D03*
X46925000Y-117925000D03*
X66925000Y-117925000D03*
X26925000Y-122925000D03*
X41925000Y-112925000D03*
X11925000Y-32925000D03*
X46925000Y-127925000D03*
X11925000Y-52925000D03*
X61925000Y-67925000D03*
X16925000Y-47925000D03*
X46925000Y-147925000D03*
X26925000Y-152925000D03*
X46925000Y-157925000D03*
X26925000Y-147925000D03*
X26925000Y-37925000D03*
X46925000Y-102925000D03*
X51925000Y-77925000D03*
X61925000Y-112925000D03*
X41925000Y-27925000D03*
X56925000Y-147925000D03*
X66925000Y-42925000D03*
X36925000Y-122925000D03*
X21925000Y-137925000D03*
X36925000Y-87925000D03*
X31925000Y-122925000D03*
X56925000Y-47925000D03*
X31925000Y-147925000D03*
X61925000Y-132925000D03*
X41925000Y-57925000D03*
X36925000Y-162925000D03*
X16925000Y-157925000D03*
X26925000Y-72925000D03*
X66925000Y-152925000D03*
X61925000Y-92925000D03*
X61925000Y-127925000D03*
X51925000Y-102925000D03*
X71925000Y-12925000D03*
X66925000Y-97925000D03*
X21925000Y-152925000D03*
X21925000Y-142925000D03*
X46925000Y-77925000D03*
X41925000Y-37925000D03*
X49672677Y-71740000D03*
X26925000Y-42925000D03*
X49270000Y-105340000D03*
X26925000Y-62925000D03*
X46925000Y-17925000D03*
X46925000Y-152925000D03*
X41925000Y-12925000D03*
X36925000Y-97925000D03*
X31925000Y-152925000D03*
X61925000Y-137925000D03*
X51925000Y-112925000D03*
X36925000Y-102925000D03*
X36925000Y-17925000D03*
X11925000Y-67925000D03*
X26925000Y-137925000D03*
X21925000Y-127925000D03*
X56925000Y-122925000D03*
%TD*%
%TA.AperFunction,Conductor*%
%TO.N,GNDA*%
G36*
X83252539Y-10520185D02*
G01*
X83298294Y-10572989D01*
X83309500Y-10624500D01*
X83309500Y-166455500D01*
X83289815Y-166522539D01*
X83237011Y-166568294D01*
X83185500Y-166579500D01*
X9624500Y-166579500D01*
X9557461Y-166559815D01*
X9511706Y-166507011D01*
X9500500Y-166455500D01*
X9500500Y-161958711D01*
X15689500Y-161958711D01*
X15689500Y-162201288D01*
X15721161Y-162441785D01*
X15783947Y-162676104D01*
X15876773Y-162900205D01*
X15876776Y-162900212D01*
X15998064Y-163110289D01*
X15998066Y-163110292D01*
X15998067Y-163110293D01*
X16145733Y-163302736D01*
X16145739Y-163302743D01*
X16317256Y-163474260D01*
X16317262Y-163474265D01*
X16509711Y-163621936D01*
X16719788Y-163743224D01*
X16943900Y-163836054D01*
X17178211Y-163898838D01*
X17358586Y-163922584D01*
X17418711Y-163930500D01*
X17418712Y-163930500D01*
X17661289Y-163930500D01*
X17709388Y-163924167D01*
X17901789Y-163898838D01*
X18136100Y-163836054D01*
X18360212Y-163743224D01*
X18570289Y-163621936D01*
X18762738Y-163474265D01*
X18934265Y-163302738D01*
X19081936Y-163110289D01*
X19203224Y-162900212D01*
X19296054Y-162676100D01*
X19358838Y-162441789D01*
X19390500Y-162201288D01*
X19390500Y-161958712D01*
X19390500Y-161958711D01*
X73419500Y-161958711D01*
X73419500Y-162201288D01*
X73451161Y-162441785D01*
X73513947Y-162676104D01*
X73606773Y-162900205D01*
X73606776Y-162900212D01*
X73728064Y-163110289D01*
X73728066Y-163110292D01*
X73728067Y-163110293D01*
X73875733Y-163302736D01*
X73875739Y-163302743D01*
X74047256Y-163474260D01*
X74047262Y-163474265D01*
X74239711Y-163621936D01*
X74449788Y-163743224D01*
X74673900Y-163836054D01*
X74908211Y-163898838D01*
X75088586Y-163922584D01*
X75148711Y-163930500D01*
X75148712Y-163930500D01*
X75391289Y-163930500D01*
X75439388Y-163924167D01*
X75631789Y-163898838D01*
X75866100Y-163836054D01*
X76090212Y-163743224D01*
X76300289Y-163621936D01*
X76492738Y-163474265D01*
X76664265Y-163302738D01*
X76811936Y-163110289D01*
X76933224Y-162900212D01*
X77026054Y-162676100D01*
X77088838Y-162441789D01*
X77120500Y-162201288D01*
X77120500Y-161958712D01*
X77088838Y-161718211D01*
X77026054Y-161483900D01*
X76933224Y-161259788D01*
X76811936Y-161049711D01*
X76664265Y-160857262D01*
X76664260Y-160857256D01*
X76492743Y-160685739D01*
X76492736Y-160685733D01*
X76300293Y-160538067D01*
X76300292Y-160538066D01*
X76300289Y-160538064D01*
X76090212Y-160416776D01*
X76090205Y-160416773D01*
X75866104Y-160323947D01*
X75631785Y-160261161D01*
X75391289Y-160229500D01*
X75391288Y-160229500D01*
X75148712Y-160229500D01*
X75148711Y-160229500D01*
X74908214Y-160261161D01*
X74673895Y-160323947D01*
X74449794Y-160416773D01*
X74449785Y-160416777D01*
X74239706Y-160538067D01*
X74047263Y-160685733D01*
X74047256Y-160685739D01*
X73875739Y-160857256D01*
X73875733Y-160857263D01*
X73728067Y-161049706D01*
X73606777Y-161259785D01*
X73606773Y-161259794D01*
X73513947Y-161483895D01*
X73451161Y-161718214D01*
X73419500Y-161958711D01*
X19390500Y-161958711D01*
X19358838Y-161718211D01*
X19296054Y-161483900D01*
X19203224Y-161259788D01*
X19081936Y-161049711D01*
X18934265Y-160857262D01*
X18934260Y-160857256D01*
X18762743Y-160685739D01*
X18762736Y-160685733D01*
X18570293Y-160538067D01*
X18570292Y-160538066D01*
X18570289Y-160538064D01*
X18360212Y-160416776D01*
X18360205Y-160416773D01*
X18136104Y-160323947D01*
X17901785Y-160261161D01*
X17661289Y-160229500D01*
X17661288Y-160229500D01*
X17418712Y-160229500D01*
X17418711Y-160229500D01*
X17178214Y-160261161D01*
X16943895Y-160323947D01*
X16719794Y-160416773D01*
X16719785Y-160416777D01*
X16509706Y-160538067D01*
X16317263Y-160685733D01*
X16317256Y-160685739D01*
X16145739Y-160857256D01*
X16145733Y-160857263D01*
X15998067Y-161049706D01*
X15876777Y-161259785D01*
X15876773Y-161259794D01*
X15783947Y-161483895D01*
X15721161Y-161718214D01*
X15689500Y-161958711D01*
X9500500Y-161958711D01*
X9500500Y-152449448D01*
X74119500Y-152449448D01*
X74119500Y-152630551D01*
X74147829Y-152809410D01*
X74203787Y-152981636D01*
X74203788Y-152981639D01*
X74286006Y-153142997D01*
X74392441Y-153289494D01*
X74392445Y-153289499D01*
X74520500Y-153417554D01*
X74520505Y-153417558D01*
X74648287Y-153510396D01*
X74667006Y-153523996D01*
X74772484Y-153577740D01*
X74828360Y-153606211D01*
X74828363Y-153606212D01*
X74914476Y-153634191D01*
X75000591Y-153662171D01*
X75083429Y-153675291D01*
X75179449Y-153690500D01*
X75179454Y-153690500D01*
X75360551Y-153690500D01*
X75447259Y-153676765D01*
X75539409Y-153662171D01*
X75711639Y-153606211D01*
X75872994Y-153523996D01*
X76019501Y-153417553D01*
X76147553Y-153289501D01*
X76253996Y-153142994D01*
X76336211Y-152981639D01*
X76392171Y-152809409D01*
X76406765Y-152717259D01*
X76420500Y-152630551D01*
X76420500Y-152449448D01*
X76404019Y-152345397D01*
X76392171Y-152270591D01*
X76336211Y-152098361D01*
X76336211Y-152098360D01*
X76307740Y-152042484D01*
X76253996Y-151937006D01*
X76240396Y-151918287D01*
X76147558Y-151790505D01*
X76147554Y-151790500D01*
X76019499Y-151662445D01*
X76019494Y-151662441D01*
X75872997Y-151556006D01*
X75872996Y-151556005D01*
X75872994Y-151556004D01*
X75821300Y-151529664D01*
X75711639Y-151473788D01*
X75711636Y-151473787D01*
X75539410Y-151417829D01*
X75360551Y-151389500D01*
X75360546Y-151389500D01*
X75179454Y-151389500D01*
X75179449Y-151389500D01*
X75000589Y-151417829D01*
X74828363Y-151473787D01*
X74828360Y-151473788D01*
X74667002Y-151556006D01*
X74520505Y-151662441D01*
X74520500Y-151662445D01*
X74392445Y-151790500D01*
X74392441Y-151790505D01*
X74286006Y-151937002D01*
X74203788Y-152098360D01*
X74203787Y-152098363D01*
X74147829Y-152270589D01*
X74119500Y-152449448D01*
X9500500Y-152449448D01*
X9500500Y-144449448D01*
X74119500Y-144449448D01*
X74119500Y-144630551D01*
X74147829Y-144809410D01*
X74203787Y-144981636D01*
X74203788Y-144981639D01*
X74286006Y-145142997D01*
X74392441Y-145289494D01*
X74392445Y-145289499D01*
X74520500Y-145417554D01*
X74520505Y-145417558D01*
X74648287Y-145510396D01*
X74667006Y-145523996D01*
X74772484Y-145577740D01*
X74828360Y-145606211D01*
X74828363Y-145606212D01*
X74914476Y-145634191D01*
X75000591Y-145662171D01*
X75083429Y-145675291D01*
X75179449Y-145690500D01*
X75179454Y-145690500D01*
X75360551Y-145690500D01*
X75447259Y-145676765D01*
X75539409Y-145662171D01*
X75711639Y-145606211D01*
X75872994Y-145523996D01*
X76019501Y-145417553D01*
X76147553Y-145289501D01*
X76253996Y-145142994D01*
X76336211Y-144981639D01*
X76392171Y-144809409D01*
X76406765Y-144717259D01*
X76420500Y-144630551D01*
X76420500Y-144449448D01*
X76404019Y-144345397D01*
X76392171Y-144270591D01*
X76336211Y-144098361D01*
X76336211Y-144098360D01*
X76307740Y-144042484D01*
X76253996Y-143937006D01*
X76240396Y-143918287D01*
X76147558Y-143790505D01*
X76147554Y-143790500D01*
X76019499Y-143662445D01*
X76019494Y-143662441D01*
X75872997Y-143556006D01*
X75872996Y-143556005D01*
X75872994Y-143556004D01*
X75821300Y-143529664D01*
X75711639Y-143473788D01*
X75711636Y-143473787D01*
X75539410Y-143417829D01*
X75360551Y-143389500D01*
X75360546Y-143389500D01*
X75179454Y-143389500D01*
X75179449Y-143389500D01*
X75000589Y-143417829D01*
X74828363Y-143473787D01*
X74828360Y-143473788D01*
X74667002Y-143556006D01*
X74520505Y-143662441D01*
X74520500Y-143662445D01*
X74392445Y-143790500D01*
X74392441Y-143790505D01*
X74286006Y-143937002D01*
X74203788Y-144098360D01*
X74203787Y-144098363D01*
X74147829Y-144270589D01*
X74119500Y-144449448D01*
X9500500Y-144449448D01*
X9500500Y-136449448D01*
X74119500Y-136449448D01*
X74119500Y-136630551D01*
X74147829Y-136809410D01*
X74203787Y-136981636D01*
X74203788Y-136981639D01*
X74286006Y-137142997D01*
X74392441Y-137289494D01*
X74392445Y-137289499D01*
X74520500Y-137417554D01*
X74520505Y-137417558D01*
X74648287Y-137510396D01*
X74667006Y-137523996D01*
X74772484Y-137577740D01*
X74828360Y-137606211D01*
X74828363Y-137606212D01*
X74914476Y-137634191D01*
X75000591Y-137662171D01*
X75083429Y-137675291D01*
X75179449Y-137690500D01*
X75179454Y-137690500D01*
X75360551Y-137690500D01*
X75447259Y-137676765D01*
X75539409Y-137662171D01*
X75711639Y-137606211D01*
X75872994Y-137523996D01*
X76019501Y-137417553D01*
X76147553Y-137289501D01*
X76253996Y-137142994D01*
X76336211Y-136981639D01*
X76392171Y-136809409D01*
X76406765Y-136717259D01*
X76420500Y-136630551D01*
X76420500Y-136449448D01*
X76404019Y-136345397D01*
X76392171Y-136270591D01*
X76336211Y-136098361D01*
X76336211Y-136098360D01*
X76307740Y-136042484D01*
X76253996Y-135937006D01*
X76240396Y-135918287D01*
X76147558Y-135790505D01*
X76147554Y-135790500D01*
X76019499Y-135662445D01*
X76019494Y-135662441D01*
X75872997Y-135556006D01*
X75872996Y-135556005D01*
X75872994Y-135556004D01*
X75821300Y-135529664D01*
X75711639Y-135473788D01*
X75711636Y-135473787D01*
X75539410Y-135417829D01*
X75360551Y-135389500D01*
X75360546Y-135389500D01*
X75179454Y-135389500D01*
X75179449Y-135389500D01*
X75000589Y-135417829D01*
X74828363Y-135473787D01*
X74828360Y-135473788D01*
X74667002Y-135556006D01*
X74520505Y-135662441D01*
X74520500Y-135662445D01*
X74392445Y-135790500D01*
X74392441Y-135790505D01*
X74286006Y-135937002D01*
X74203788Y-136098360D01*
X74203787Y-136098363D01*
X74147829Y-136270589D01*
X74119500Y-136449448D01*
X9500500Y-136449448D01*
X9500500Y-128449448D01*
X74119500Y-128449448D01*
X74119500Y-128630551D01*
X74147829Y-128809410D01*
X74203787Y-128981636D01*
X74203788Y-128981639D01*
X74286006Y-129142997D01*
X74392441Y-129289494D01*
X74392445Y-129289499D01*
X74520500Y-129417554D01*
X74520505Y-129417558D01*
X74648287Y-129510396D01*
X74667006Y-129523996D01*
X74772484Y-129577740D01*
X74828360Y-129606211D01*
X74828363Y-129606212D01*
X74914476Y-129634191D01*
X75000591Y-129662171D01*
X75083429Y-129675291D01*
X75179449Y-129690500D01*
X75179454Y-129690500D01*
X75360551Y-129690500D01*
X75447259Y-129676765D01*
X75539409Y-129662171D01*
X75711639Y-129606211D01*
X75872994Y-129523996D01*
X76019501Y-129417553D01*
X76147553Y-129289501D01*
X76253996Y-129142994D01*
X76336211Y-128981639D01*
X76392171Y-128809409D01*
X76406765Y-128717259D01*
X76420500Y-128630551D01*
X76420500Y-128449448D01*
X76404019Y-128345397D01*
X76392171Y-128270591D01*
X76336211Y-128098361D01*
X76336211Y-128098360D01*
X76307740Y-128042484D01*
X76253996Y-127937006D01*
X76240396Y-127918287D01*
X76147558Y-127790505D01*
X76147554Y-127790500D01*
X76019499Y-127662445D01*
X76019494Y-127662441D01*
X75872997Y-127556006D01*
X75872996Y-127556005D01*
X75872994Y-127556004D01*
X75821300Y-127529664D01*
X75711639Y-127473788D01*
X75711636Y-127473787D01*
X75539410Y-127417829D01*
X75360551Y-127389500D01*
X75360546Y-127389500D01*
X75179454Y-127389500D01*
X75179449Y-127389500D01*
X75000589Y-127417829D01*
X74828363Y-127473787D01*
X74828360Y-127473788D01*
X74667002Y-127556006D01*
X74520505Y-127662441D01*
X74520500Y-127662445D01*
X74392445Y-127790500D01*
X74392441Y-127790505D01*
X74286006Y-127937002D01*
X74203788Y-128098360D01*
X74203787Y-128098363D01*
X74147829Y-128270589D01*
X74119500Y-128449448D01*
X9500500Y-128449448D01*
X9500500Y-120449448D01*
X74119500Y-120449448D01*
X74119500Y-120630551D01*
X74147829Y-120809410D01*
X74203787Y-120981636D01*
X74203788Y-120981639D01*
X74286006Y-121142997D01*
X74392441Y-121289494D01*
X74392445Y-121289499D01*
X74520500Y-121417554D01*
X74520505Y-121417558D01*
X74648287Y-121510396D01*
X74667006Y-121523996D01*
X74772484Y-121577740D01*
X74828360Y-121606211D01*
X74828363Y-121606212D01*
X74914476Y-121634191D01*
X75000591Y-121662171D01*
X75083429Y-121675291D01*
X75179449Y-121690500D01*
X75179454Y-121690500D01*
X75360551Y-121690500D01*
X75447259Y-121676765D01*
X75539409Y-121662171D01*
X75711639Y-121606211D01*
X75872994Y-121523996D01*
X76019501Y-121417553D01*
X76147553Y-121289501D01*
X76253996Y-121142994D01*
X76336211Y-120981639D01*
X76392171Y-120809409D01*
X76406765Y-120717259D01*
X76420500Y-120630551D01*
X76420500Y-120449448D01*
X76404019Y-120345397D01*
X76392171Y-120270591D01*
X76336211Y-120098361D01*
X76336211Y-120098360D01*
X76307740Y-120042484D01*
X76253996Y-119937006D01*
X76240396Y-119918287D01*
X76147558Y-119790505D01*
X76147554Y-119790500D01*
X76019499Y-119662445D01*
X76019494Y-119662441D01*
X75872997Y-119556006D01*
X75872996Y-119556005D01*
X75872994Y-119556004D01*
X75821300Y-119529664D01*
X75711639Y-119473788D01*
X75711636Y-119473787D01*
X75539410Y-119417829D01*
X75360551Y-119389500D01*
X75360546Y-119389500D01*
X75179454Y-119389500D01*
X75179449Y-119389500D01*
X75000589Y-119417829D01*
X74828363Y-119473787D01*
X74828360Y-119473788D01*
X74667002Y-119556006D01*
X74520505Y-119662441D01*
X74520500Y-119662445D01*
X74392445Y-119790500D01*
X74392441Y-119790505D01*
X74286006Y-119937002D01*
X74203788Y-120098360D01*
X74203787Y-120098363D01*
X74147829Y-120270589D01*
X74119500Y-120449448D01*
X9500500Y-120449448D01*
X9500500Y-116449448D01*
X16389500Y-116449448D01*
X16389500Y-116630551D01*
X16417829Y-116809410D01*
X16473787Y-116981636D01*
X16473788Y-116981639D01*
X16556006Y-117142997D01*
X16662441Y-117289494D01*
X16662445Y-117289499D01*
X16790500Y-117417554D01*
X16790505Y-117417558D01*
X16918287Y-117510396D01*
X16937006Y-117523996D01*
X17042484Y-117577740D01*
X17098360Y-117606211D01*
X17098363Y-117606212D01*
X17184476Y-117634191D01*
X17270591Y-117662171D01*
X17353429Y-117675291D01*
X17449449Y-117690500D01*
X17449454Y-117690500D01*
X17630551Y-117690500D01*
X17717259Y-117676765D01*
X17809409Y-117662171D01*
X17981639Y-117606211D01*
X18142994Y-117523996D01*
X18289501Y-117417553D01*
X18417553Y-117289501D01*
X18523996Y-117142994D01*
X18606211Y-116981639D01*
X18662171Y-116809409D01*
X18676765Y-116717259D01*
X18690500Y-116630551D01*
X18690500Y-116449448D01*
X18674019Y-116345397D01*
X18662171Y-116270591D01*
X18606211Y-116098361D01*
X18606211Y-116098360D01*
X18577740Y-116042484D01*
X18523996Y-115937006D01*
X18510396Y-115918287D01*
X18417558Y-115790505D01*
X18417554Y-115790500D01*
X18289499Y-115662445D01*
X18289494Y-115662441D01*
X18142997Y-115556006D01*
X18142996Y-115556005D01*
X18142994Y-115556004D01*
X18091300Y-115529664D01*
X17981639Y-115473788D01*
X17981636Y-115473787D01*
X17809410Y-115417829D01*
X17630551Y-115389500D01*
X17630546Y-115389500D01*
X17449454Y-115389500D01*
X17449449Y-115389500D01*
X17270589Y-115417829D01*
X17098363Y-115473787D01*
X17098360Y-115473788D01*
X16937002Y-115556006D01*
X16790505Y-115662441D01*
X16790500Y-115662445D01*
X16662445Y-115790500D01*
X16662441Y-115790505D01*
X16556006Y-115937002D01*
X16473788Y-116098360D01*
X16473787Y-116098363D01*
X16417829Y-116270589D01*
X16389500Y-116449448D01*
X9500500Y-116449448D01*
X9500500Y-112449448D01*
X74119500Y-112449448D01*
X74119500Y-112630551D01*
X74147829Y-112809410D01*
X74203787Y-112981636D01*
X74203788Y-112981639D01*
X74286006Y-113142997D01*
X74392441Y-113289494D01*
X74392445Y-113289499D01*
X74520500Y-113417554D01*
X74520505Y-113417558D01*
X74648287Y-113510396D01*
X74667006Y-113523996D01*
X74772484Y-113577740D01*
X74828360Y-113606211D01*
X74828363Y-113606212D01*
X74914476Y-113634191D01*
X75000591Y-113662171D01*
X75083429Y-113675291D01*
X75179449Y-113690500D01*
X75179454Y-113690500D01*
X75360551Y-113690500D01*
X75447259Y-113676765D01*
X75539409Y-113662171D01*
X75711639Y-113606211D01*
X75872994Y-113523996D01*
X76019501Y-113417553D01*
X76147553Y-113289501D01*
X76253996Y-113142994D01*
X76336211Y-112981639D01*
X76392171Y-112809409D01*
X76406765Y-112717259D01*
X76420500Y-112630551D01*
X76420500Y-112449448D01*
X76404019Y-112345397D01*
X76392171Y-112270591D01*
X76336211Y-112098361D01*
X76336211Y-112098360D01*
X76307740Y-112042484D01*
X76253996Y-111937006D01*
X76240396Y-111918287D01*
X76147558Y-111790505D01*
X76147554Y-111790500D01*
X76019499Y-111662445D01*
X76019494Y-111662441D01*
X75872997Y-111556006D01*
X75872996Y-111556005D01*
X75872994Y-111556004D01*
X75821300Y-111529664D01*
X75711639Y-111473788D01*
X75711636Y-111473787D01*
X75539410Y-111417829D01*
X75360551Y-111389500D01*
X75360546Y-111389500D01*
X75179454Y-111389500D01*
X75179449Y-111389500D01*
X75000589Y-111417829D01*
X74828363Y-111473787D01*
X74828360Y-111473788D01*
X74667002Y-111556006D01*
X74520505Y-111662441D01*
X74520500Y-111662445D01*
X74392445Y-111790500D01*
X74392441Y-111790505D01*
X74286006Y-111937002D01*
X74203788Y-112098360D01*
X74203787Y-112098363D01*
X74147829Y-112270589D01*
X74119500Y-112449448D01*
X9500500Y-112449448D01*
X9500500Y-108449448D01*
X16389500Y-108449448D01*
X16389500Y-108630551D01*
X16417829Y-108809410D01*
X16473787Y-108981636D01*
X16473788Y-108981639D01*
X16556006Y-109142997D01*
X16662441Y-109289494D01*
X16662445Y-109289499D01*
X16790500Y-109417554D01*
X16790505Y-109417558D01*
X16918287Y-109510396D01*
X16937006Y-109523996D01*
X17042484Y-109577740D01*
X17098360Y-109606211D01*
X17098363Y-109606212D01*
X17184476Y-109634191D01*
X17270591Y-109662171D01*
X17353429Y-109675291D01*
X17449449Y-109690500D01*
X17449454Y-109690500D01*
X17630551Y-109690500D01*
X17717259Y-109676765D01*
X17809409Y-109662171D01*
X17981639Y-109606211D01*
X18142994Y-109523996D01*
X18289501Y-109417553D01*
X18417553Y-109289501D01*
X18523996Y-109142994D01*
X18606211Y-108981639D01*
X18662171Y-108809409D01*
X18682682Y-108679907D01*
X18690500Y-108630551D01*
X18690500Y-108530092D01*
X48314500Y-108530092D01*
X48314500Y-108679907D01*
X48343723Y-108826822D01*
X48343725Y-108826830D01*
X48401051Y-108965229D01*
X48401056Y-108965238D01*
X48484280Y-109089790D01*
X48484283Y-109089794D01*
X48590205Y-109195716D01*
X48590209Y-109195719D01*
X48714761Y-109278943D01*
X48714767Y-109278946D01*
X48714768Y-109278947D01*
X48853170Y-109336275D01*
X49000092Y-109365499D01*
X49000096Y-109365500D01*
X49000097Y-109365500D01*
X49149904Y-109365500D01*
X49149905Y-109365499D01*
X49296830Y-109336275D01*
X49435232Y-109278947D01*
X49559791Y-109195719D01*
X49665719Y-109089791D01*
X49748947Y-108965232D01*
X49806275Y-108826830D01*
X49835500Y-108679903D01*
X49835500Y-108530097D01*
X49806275Y-108383170D01*
X49748947Y-108244768D01*
X49748946Y-108244767D01*
X49748943Y-108244761D01*
X49665719Y-108120209D01*
X49665716Y-108120205D01*
X49559794Y-108014283D01*
X49559790Y-108014280D01*
X49435238Y-107931056D01*
X49435229Y-107931051D01*
X49296830Y-107873725D01*
X49296822Y-107873723D01*
X49149907Y-107844500D01*
X49149903Y-107844500D01*
X49000097Y-107844500D01*
X49000092Y-107844500D01*
X48853177Y-107873723D01*
X48853169Y-107873725D01*
X48714770Y-107931051D01*
X48714761Y-107931056D01*
X48590209Y-108014280D01*
X48590205Y-108014283D01*
X48484283Y-108120205D01*
X48484280Y-108120209D01*
X48401056Y-108244761D01*
X48401051Y-108244770D01*
X48343725Y-108383169D01*
X48343723Y-108383177D01*
X48314500Y-108530092D01*
X18690500Y-108530092D01*
X18690500Y-108449448D01*
X18674019Y-108345397D01*
X18662171Y-108270591D01*
X18613310Y-108120209D01*
X18606212Y-108098363D01*
X18606211Y-108098360D01*
X18563369Y-108014280D01*
X18523996Y-107937006D01*
X18478020Y-107873725D01*
X18417558Y-107790505D01*
X18417554Y-107790500D01*
X18289499Y-107662445D01*
X18289494Y-107662441D01*
X18142997Y-107556006D01*
X18142996Y-107556005D01*
X18142994Y-107556004D01*
X18091300Y-107529664D01*
X17981639Y-107473788D01*
X17981636Y-107473787D01*
X17809410Y-107417829D01*
X17630551Y-107389500D01*
X17630546Y-107389500D01*
X17449454Y-107389500D01*
X17449449Y-107389500D01*
X17270589Y-107417829D01*
X17098363Y-107473787D01*
X17098360Y-107473788D01*
X16937002Y-107556006D01*
X16790505Y-107662441D01*
X16790500Y-107662445D01*
X16662445Y-107790500D01*
X16662441Y-107790505D01*
X16556006Y-107937002D01*
X16473788Y-108098360D01*
X16473787Y-108098363D01*
X16417829Y-108270589D01*
X16389500Y-108449448D01*
X9500500Y-108449448D01*
X9500500Y-104449448D01*
X74119500Y-104449448D01*
X74119500Y-104630551D01*
X74147829Y-104809410D01*
X74203787Y-104981636D01*
X74203788Y-104981639D01*
X74286006Y-105142997D01*
X74392441Y-105289494D01*
X74392445Y-105289499D01*
X74520500Y-105417554D01*
X74520505Y-105417558D01*
X74648287Y-105510396D01*
X74667006Y-105523996D01*
X74772484Y-105577740D01*
X74828360Y-105606211D01*
X74828363Y-105606212D01*
X74914476Y-105634191D01*
X75000591Y-105662171D01*
X75083429Y-105675291D01*
X75179449Y-105690500D01*
X75179454Y-105690500D01*
X75360551Y-105690500D01*
X75447259Y-105676765D01*
X75539409Y-105662171D01*
X75711639Y-105606211D01*
X75872994Y-105523996D01*
X76019501Y-105417553D01*
X76147553Y-105289501D01*
X76253996Y-105142994D01*
X76336211Y-104981639D01*
X76392171Y-104809409D01*
X76406765Y-104717259D01*
X76420500Y-104630551D01*
X76420500Y-104449448D01*
X76404019Y-104345397D01*
X76392171Y-104270591D01*
X76336211Y-104098361D01*
X76336211Y-104098360D01*
X76307740Y-104042484D01*
X76253996Y-103937006D01*
X76240396Y-103918287D01*
X76147558Y-103790505D01*
X76147554Y-103790500D01*
X76019499Y-103662445D01*
X76019494Y-103662441D01*
X75872997Y-103556006D01*
X75872996Y-103556005D01*
X75872994Y-103556004D01*
X75821300Y-103529664D01*
X75711639Y-103473788D01*
X75711636Y-103473787D01*
X75539410Y-103417829D01*
X75360551Y-103389500D01*
X75360546Y-103389500D01*
X75179454Y-103389500D01*
X75179449Y-103389500D01*
X75000589Y-103417829D01*
X74828363Y-103473787D01*
X74828360Y-103473788D01*
X74667002Y-103556006D01*
X74520505Y-103662441D01*
X74520500Y-103662445D01*
X74392445Y-103790500D01*
X74392441Y-103790505D01*
X74286006Y-103937002D01*
X74203788Y-104098360D01*
X74203787Y-104098363D01*
X74147829Y-104270589D01*
X74119500Y-104449448D01*
X9500500Y-104449448D01*
X9500500Y-100449448D01*
X16389500Y-100449448D01*
X16389500Y-100630551D01*
X16417829Y-100809410D01*
X16473787Y-100981636D01*
X16473788Y-100981639D01*
X16556006Y-101142997D01*
X16662441Y-101289494D01*
X16662445Y-101289499D01*
X16790500Y-101417554D01*
X16790505Y-101417558D01*
X16918287Y-101510396D01*
X16937006Y-101523996D01*
X17042484Y-101577740D01*
X17098360Y-101606211D01*
X17098363Y-101606212D01*
X17184476Y-101634191D01*
X17270591Y-101662171D01*
X17353429Y-101675291D01*
X17449449Y-101690500D01*
X17449454Y-101690500D01*
X17630551Y-101690500D01*
X17717259Y-101676765D01*
X17809409Y-101662171D01*
X17981639Y-101606211D01*
X18142994Y-101523996D01*
X18289501Y-101417553D01*
X18417553Y-101289501D01*
X18523996Y-101142994D01*
X18606211Y-100981639D01*
X18662171Y-100809409D01*
X18676765Y-100717259D01*
X18690500Y-100630551D01*
X18690500Y-100449448D01*
X18674019Y-100345397D01*
X18662171Y-100270591D01*
X18606211Y-100098361D01*
X18606211Y-100098360D01*
X18577740Y-100042484D01*
X18523996Y-99937006D01*
X18510396Y-99918287D01*
X18417558Y-99790505D01*
X18417554Y-99790500D01*
X18289499Y-99662445D01*
X18289494Y-99662441D01*
X18142997Y-99556006D01*
X18142996Y-99556005D01*
X18142994Y-99556004D01*
X18091300Y-99529664D01*
X17981639Y-99473788D01*
X17981636Y-99473787D01*
X17809410Y-99417829D01*
X17630551Y-99389500D01*
X17630546Y-99389500D01*
X17449454Y-99389500D01*
X17449449Y-99389500D01*
X17270589Y-99417829D01*
X17098363Y-99473787D01*
X17098360Y-99473788D01*
X16937002Y-99556006D01*
X16790505Y-99662441D01*
X16790500Y-99662445D01*
X16662445Y-99790500D01*
X16662441Y-99790505D01*
X16556006Y-99937002D01*
X16473788Y-100098360D01*
X16473787Y-100098363D01*
X16417829Y-100270589D01*
X16389500Y-100449448D01*
X9500500Y-100449448D01*
X9500500Y-96449448D01*
X74119500Y-96449448D01*
X74119500Y-96630551D01*
X74147829Y-96809410D01*
X74203787Y-96981636D01*
X74203788Y-96981639D01*
X74286006Y-97142997D01*
X74392441Y-97289494D01*
X74392445Y-97289499D01*
X74520500Y-97417554D01*
X74520505Y-97417558D01*
X74648287Y-97510396D01*
X74667006Y-97523996D01*
X74772484Y-97577740D01*
X74828360Y-97606211D01*
X74828363Y-97606212D01*
X74914476Y-97634191D01*
X75000591Y-97662171D01*
X75083429Y-97675291D01*
X75179449Y-97690500D01*
X75179454Y-97690500D01*
X75360551Y-97690500D01*
X75447259Y-97676765D01*
X75539409Y-97662171D01*
X75711639Y-97606211D01*
X75872994Y-97523996D01*
X76019501Y-97417553D01*
X76147553Y-97289501D01*
X76253996Y-97142994D01*
X76336211Y-96981639D01*
X76392171Y-96809409D01*
X76406765Y-96717259D01*
X76420500Y-96630551D01*
X76420500Y-96449448D01*
X76404019Y-96345397D01*
X76392171Y-96270591D01*
X76336211Y-96098361D01*
X76336211Y-96098360D01*
X76307740Y-96042484D01*
X76253996Y-95937006D01*
X76240396Y-95918287D01*
X76147558Y-95790505D01*
X76147554Y-95790500D01*
X76019499Y-95662445D01*
X76019494Y-95662441D01*
X75872997Y-95556006D01*
X75872996Y-95556005D01*
X75872994Y-95556004D01*
X75821300Y-95529664D01*
X75711639Y-95473788D01*
X75711636Y-95473787D01*
X75539410Y-95417829D01*
X75360551Y-95389500D01*
X75360546Y-95389500D01*
X75179454Y-95389500D01*
X75179449Y-95389500D01*
X75000589Y-95417829D01*
X74828363Y-95473787D01*
X74828360Y-95473788D01*
X74667002Y-95556006D01*
X74520505Y-95662441D01*
X74520500Y-95662445D01*
X74392445Y-95790500D01*
X74392441Y-95790505D01*
X74286006Y-95937002D01*
X74203788Y-96098360D01*
X74203787Y-96098363D01*
X74147829Y-96270589D01*
X74119500Y-96449448D01*
X9500500Y-96449448D01*
X9500500Y-92449448D01*
X16389500Y-92449448D01*
X16389500Y-92630551D01*
X16417829Y-92809410D01*
X16473787Y-92981636D01*
X16473788Y-92981639D01*
X16556006Y-93142997D01*
X16662441Y-93289494D01*
X16662445Y-93289499D01*
X16790500Y-93417554D01*
X16790505Y-93417558D01*
X16918287Y-93510396D01*
X16937006Y-93523996D01*
X17042484Y-93577740D01*
X17098360Y-93606211D01*
X17098363Y-93606212D01*
X17184476Y-93634191D01*
X17270591Y-93662171D01*
X17353429Y-93675291D01*
X17449449Y-93690500D01*
X17449454Y-93690500D01*
X17630551Y-93690500D01*
X17717259Y-93676765D01*
X17809409Y-93662171D01*
X17981639Y-93606211D01*
X18142994Y-93523996D01*
X18289501Y-93417553D01*
X18417553Y-93289501D01*
X18523996Y-93142994D01*
X18606211Y-92981639D01*
X18662171Y-92809409D01*
X18676765Y-92717259D01*
X18690500Y-92630551D01*
X18690500Y-92449448D01*
X18674019Y-92345397D01*
X18662171Y-92270591D01*
X18606211Y-92098361D01*
X18606211Y-92098360D01*
X18577740Y-92042484D01*
X18523996Y-91937006D01*
X18510396Y-91918287D01*
X18417558Y-91790505D01*
X18417554Y-91790500D01*
X18289499Y-91662445D01*
X18289494Y-91662441D01*
X18142997Y-91556006D01*
X18142996Y-91556005D01*
X18142994Y-91556004D01*
X18091300Y-91529664D01*
X17981639Y-91473788D01*
X17981636Y-91473787D01*
X17809410Y-91417829D01*
X17630551Y-91389500D01*
X17630546Y-91389500D01*
X17449454Y-91389500D01*
X17449449Y-91389500D01*
X17270589Y-91417829D01*
X17098363Y-91473787D01*
X17098360Y-91473788D01*
X16937002Y-91556006D01*
X16790505Y-91662441D01*
X16790500Y-91662445D01*
X16662445Y-91790500D01*
X16662441Y-91790505D01*
X16556006Y-91937002D01*
X16473788Y-92098360D01*
X16473787Y-92098363D01*
X16417829Y-92270589D01*
X16389500Y-92449448D01*
X9500500Y-92449448D01*
X9500500Y-88449448D01*
X74119500Y-88449448D01*
X74119500Y-88630551D01*
X74147829Y-88809410D01*
X74203787Y-88981636D01*
X74203788Y-88981639D01*
X74286006Y-89142997D01*
X74392441Y-89289494D01*
X74392445Y-89289499D01*
X74520500Y-89417554D01*
X74520505Y-89417558D01*
X74648287Y-89510396D01*
X74667006Y-89523996D01*
X74772484Y-89577740D01*
X74828360Y-89606211D01*
X74828363Y-89606212D01*
X74914476Y-89634191D01*
X75000591Y-89662171D01*
X75083429Y-89675291D01*
X75179449Y-89690500D01*
X75179454Y-89690500D01*
X75360551Y-89690500D01*
X75447259Y-89676765D01*
X75539409Y-89662171D01*
X75711639Y-89606211D01*
X75872994Y-89523996D01*
X76019501Y-89417553D01*
X76147553Y-89289501D01*
X76253996Y-89142994D01*
X76336211Y-88981639D01*
X76392171Y-88809409D01*
X76406765Y-88717259D01*
X76420500Y-88630551D01*
X76420500Y-88449448D01*
X76404019Y-88345397D01*
X76392171Y-88270591D01*
X76336211Y-88098361D01*
X76336211Y-88098360D01*
X76307740Y-88042484D01*
X76253996Y-87937006D01*
X76240396Y-87918287D01*
X76147558Y-87790505D01*
X76147554Y-87790500D01*
X76019499Y-87662445D01*
X76019494Y-87662441D01*
X75872997Y-87556006D01*
X75872996Y-87556005D01*
X75872994Y-87556004D01*
X75821300Y-87529664D01*
X75711639Y-87473788D01*
X75711636Y-87473787D01*
X75539410Y-87417829D01*
X75360551Y-87389500D01*
X75360546Y-87389500D01*
X75179454Y-87389500D01*
X75179449Y-87389500D01*
X75000589Y-87417829D01*
X74828363Y-87473787D01*
X74828360Y-87473788D01*
X74667002Y-87556006D01*
X74520505Y-87662441D01*
X74520500Y-87662445D01*
X74392445Y-87790500D01*
X74392441Y-87790505D01*
X74286006Y-87937002D01*
X74203788Y-88098360D01*
X74203787Y-88098363D01*
X74147829Y-88270589D01*
X74119500Y-88449448D01*
X9500500Y-88449448D01*
X9500500Y-84449448D01*
X16389500Y-84449448D01*
X16389500Y-84630551D01*
X16417829Y-84809410D01*
X16473787Y-84981636D01*
X16473788Y-84981639D01*
X16556006Y-85142997D01*
X16662441Y-85289494D01*
X16662445Y-85289499D01*
X16790500Y-85417554D01*
X16790505Y-85417558D01*
X16918287Y-85510396D01*
X16937006Y-85523996D01*
X17042484Y-85577740D01*
X17098360Y-85606211D01*
X17098363Y-85606212D01*
X17184476Y-85634191D01*
X17270591Y-85662171D01*
X17353429Y-85675291D01*
X17449449Y-85690500D01*
X17449454Y-85690500D01*
X17630551Y-85690500D01*
X17717259Y-85676765D01*
X17809409Y-85662171D01*
X17981639Y-85606211D01*
X18142994Y-85523996D01*
X18289501Y-85417553D01*
X18417553Y-85289501D01*
X18523996Y-85142994D01*
X18606211Y-84981639D01*
X18662171Y-84809409D01*
X18676765Y-84717259D01*
X18690500Y-84630551D01*
X18690500Y-84449448D01*
X18674019Y-84345397D01*
X18662171Y-84270591D01*
X18606211Y-84098361D01*
X18606211Y-84098360D01*
X18577740Y-84042484D01*
X18523996Y-83937006D01*
X18510396Y-83918287D01*
X18417558Y-83790505D01*
X18417554Y-83790500D01*
X18289499Y-83662445D01*
X18289494Y-83662441D01*
X18142997Y-83556006D01*
X18142996Y-83556005D01*
X18142994Y-83556004D01*
X18091300Y-83529664D01*
X17981639Y-83473788D01*
X17981636Y-83473787D01*
X17809410Y-83417829D01*
X17630551Y-83389500D01*
X17630546Y-83389500D01*
X17449454Y-83389500D01*
X17449449Y-83389500D01*
X17270589Y-83417829D01*
X17098363Y-83473787D01*
X17098360Y-83473788D01*
X16937002Y-83556006D01*
X16790505Y-83662441D01*
X16790500Y-83662445D01*
X16662445Y-83790500D01*
X16662441Y-83790505D01*
X16556006Y-83937002D01*
X16473788Y-84098360D01*
X16473787Y-84098363D01*
X16417829Y-84270589D01*
X16389500Y-84449448D01*
X9500500Y-84449448D01*
X9500500Y-80449448D01*
X74119500Y-80449448D01*
X74119500Y-80630551D01*
X74147829Y-80809410D01*
X74203787Y-80981636D01*
X74203788Y-80981639D01*
X74286006Y-81142997D01*
X74392441Y-81289494D01*
X74392445Y-81289499D01*
X74520500Y-81417554D01*
X74520505Y-81417558D01*
X74648287Y-81510396D01*
X74667006Y-81523996D01*
X74772484Y-81577740D01*
X74828360Y-81606211D01*
X74828363Y-81606212D01*
X74914476Y-81634191D01*
X75000591Y-81662171D01*
X75083429Y-81675291D01*
X75179449Y-81690500D01*
X75179454Y-81690500D01*
X75360551Y-81690500D01*
X75447259Y-81676765D01*
X75539409Y-81662171D01*
X75711639Y-81606211D01*
X75872994Y-81523996D01*
X76019501Y-81417553D01*
X76147553Y-81289501D01*
X76253996Y-81142994D01*
X76336211Y-80981639D01*
X76392171Y-80809409D01*
X76406765Y-80717259D01*
X76420500Y-80630551D01*
X76420500Y-80449448D01*
X76404019Y-80345397D01*
X76392171Y-80270591D01*
X76336211Y-80098361D01*
X76336211Y-80098360D01*
X76307740Y-80042484D01*
X76253996Y-79937006D01*
X76240396Y-79918287D01*
X76147558Y-79790505D01*
X76147554Y-79790500D01*
X76019499Y-79662445D01*
X76019494Y-79662441D01*
X75872997Y-79556006D01*
X75872996Y-79556005D01*
X75872994Y-79556004D01*
X75821300Y-79529664D01*
X75711639Y-79473788D01*
X75711636Y-79473787D01*
X75539410Y-79417829D01*
X75360551Y-79389500D01*
X75360546Y-79389500D01*
X75179454Y-79389500D01*
X75179449Y-79389500D01*
X75000589Y-79417829D01*
X74828363Y-79473787D01*
X74828360Y-79473788D01*
X74667002Y-79556006D01*
X74520505Y-79662441D01*
X74520500Y-79662445D01*
X74392445Y-79790500D01*
X74392441Y-79790505D01*
X74286006Y-79937002D01*
X74203788Y-80098360D01*
X74203787Y-80098363D01*
X74147829Y-80270589D01*
X74119500Y-80449448D01*
X9500500Y-80449448D01*
X9500500Y-76449448D01*
X16389500Y-76449448D01*
X16389500Y-76630551D01*
X16417829Y-76809410D01*
X16473787Y-76981636D01*
X16473788Y-76981639D01*
X16556006Y-77142997D01*
X16662441Y-77289494D01*
X16662445Y-77289499D01*
X16790500Y-77417554D01*
X16790505Y-77417558D01*
X16918287Y-77510396D01*
X16937006Y-77523996D01*
X17042484Y-77577740D01*
X17098360Y-77606211D01*
X17098363Y-77606212D01*
X17184476Y-77634191D01*
X17270591Y-77662171D01*
X17353429Y-77675291D01*
X17449449Y-77690500D01*
X17449454Y-77690500D01*
X17630551Y-77690500D01*
X17717259Y-77676765D01*
X17809409Y-77662171D01*
X17981639Y-77606211D01*
X18142994Y-77523996D01*
X18289501Y-77417553D01*
X18417553Y-77289501D01*
X18523996Y-77142994D01*
X18606211Y-76981639D01*
X18662171Y-76809409D01*
X18676765Y-76717259D01*
X18690500Y-76630551D01*
X18690500Y-76449448D01*
X18674019Y-76345397D01*
X18662171Y-76270591D01*
X18606211Y-76098361D01*
X18606211Y-76098360D01*
X18577740Y-76042484D01*
X18523996Y-75937006D01*
X18510396Y-75918287D01*
X18417558Y-75790505D01*
X18417554Y-75790500D01*
X18289499Y-75662445D01*
X18289494Y-75662441D01*
X18142997Y-75556006D01*
X18142996Y-75556005D01*
X18142994Y-75556004D01*
X18091300Y-75529664D01*
X17981639Y-75473788D01*
X17981636Y-75473787D01*
X17809410Y-75417829D01*
X17630551Y-75389500D01*
X17630546Y-75389500D01*
X17449454Y-75389500D01*
X17449449Y-75389500D01*
X17270589Y-75417829D01*
X17098363Y-75473787D01*
X17098360Y-75473788D01*
X16937002Y-75556006D01*
X16790505Y-75662441D01*
X16790500Y-75662445D01*
X16662445Y-75790500D01*
X16662441Y-75790505D01*
X16556006Y-75937002D01*
X16473788Y-76098360D01*
X16473787Y-76098363D01*
X16417829Y-76270589D01*
X16389500Y-76449448D01*
X9500500Y-76449448D01*
X9500500Y-72449448D01*
X74119500Y-72449448D01*
X74119500Y-72630551D01*
X74147829Y-72809410D01*
X74203787Y-72981636D01*
X74203788Y-72981639D01*
X74286006Y-73142997D01*
X74392441Y-73289494D01*
X74392445Y-73289499D01*
X74520500Y-73417554D01*
X74520505Y-73417558D01*
X74648287Y-73510396D01*
X74667006Y-73523996D01*
X74772484Y-73577740D01*
X74828360Y-73606211D01*
X74828363Y-73606212D01*
X74914476Y-73634191D01*
X75000591Y-73662171D01*
X75083429Y-73675291D01*
X75179449Y-73690500D01*
X75179454Y-73690500D01*
X75360551Y-73690500D01*
X75447259Y-73676765D01*
X75539409Y-73662171D01*
X75711639Y-73606211D01*
X75872994Y-73523996D01*
X76019501Y-73417553D01*
X76147553Y-73289501D01*
X76253996Y-73142994D01*
X76336211Y-72981639D01*
X76392171Y-72809409D01*
X76406765Y-72717259D01*
X76420500Y-72630551D01*
X76420500Y-72449448D01*
X76404019Y-72345397D01*
X76392171Y-72270591D01*
X76336211Y-72098361D01*
X76336211Y-72098360D01*
X76307740Y-72042484D01*
X76253996Y-71937006D01*
X76240396Y-71918287D01*
X76147558Y-71790505D01*
X76147554Y-71790500D01*
X76019499Y-71662445D01*
X76019494Y-71662441D01*
X75872997Y-71556006D01*
X75872996Y-71556005D01*
X75872994Y-71556004D01*
X75821300Y-71529664D01*
X75711639Y-71473788D01*
X75711636Y-71473787D01*
X75539410Y-71417829D01*
X75360551Y-71389500D01*
X75360546Y-71389500D01*
X75179454Y-71389500D01*
X75179449Y-71389500D01*
X75000589Y-71417829D01*
X74828363Y-71473787D01*
X74828360Y-71473788D01*
X74667002Y-71556006D01*
X74520505Y-71662441D01*
X74520500Y-71662445D01*
X74392445Y-71790500D01*
X74392441Y-71790505D01*
X74286006Y-71937002D01*
X74203788Y-72098360D01*
X74203787Y-72098363D01*
X74147829Y-72270589D01*
X74119500Y-72449448D01*
X9500500Y-72449448D01*
X9500500Y-68449448D01*
X16389500Y-68449448D01*
X16389500Y-68630551D01*
X16417829Y-68809410D01*
X16473787Y-68981636D01*
X16473788Y-68981639D01*
X16556006Y-69142997D01*
X16662441Y-69289494D01*
X16662445Y-69289499D01*
X16790500Y-69417554D01*
X16790505Y-69417558D01*
X16918287Y-69510396D01*
X16937006Y-69523996D01*
X17042484Y-69577740D01*
X17098360Y-69606211D01*
X17098363Y-69606212D01*
X17184476Y-69634191D01*
X17270591Y-69662171D01*
X17353429Y-69675291D01*
X17449449Y-69690500D01*
X17449454Y-69690500D01*
X17630551Y-69690500D01*
X17717259Y-69676765D01*
X17809409Y-69662171D01*
X17981639Y-69606211D01*
X18142994Y-69523996D01*
X18289501Y-69417553D01*
X18417553Y-69289501D01*
X18523996Y-69142994D01*
X18606211Y-68981639D01*
X18662171Y-68809409D01*
X18680003Y-68696822D01*
X18690500Y-68630551D01*
X18690500Y-68449448D01*
X18684791Y-68413403D01*
X18682683Y-68400092D01*
X48314500Y-68400092D01*
X48314500Y-68549907D01*
X48343723Y-68696822D01*
X48343725Y-68696830D01*
X48401051Y-68835229D01*
X48401056Y-68835238D01*
X48484280Y-68959790D01*
X48484283Y-68959794D01*
X48590205Y-69065716D01*
X48590209Y-69065719D01*
X48714761Y-69148943D01*
X48714767Y-69148946D01*
X48714768Y-69148947D01*
X48853170Y-69206275D01*
X49000092Y-69235499D01*
X49000096Y-69235500D01*
X49000097Y-69235500D01*
X49149904Y-69235500D01*
X49149905Y-69235499D01*
X49296830Y-69206275D01*
X49435232Y-69148947D01*
X49559791Y-69065719D01*
X49665719Y-68959791D01*
X49748947Y-68835232D01*
X49806275Y-68696830D01*
X49835500Y-68549903D01*
X49835500Y-68400097D01*
X49806275Y-68253170D01*
X49748947Y-68114768D01*
X49748946Y-68114767D01*
X49748943Y-68114761D01*
X49665719Y-67990209D01*
X49665716Y-67990205D01*
X49559794Y-67884283D01*
X49559790Y-67884280D01*
X49435238Y-67801056D01*
X49435229Y-67801051D01*
X49296830Y-67743725D01*
X49296822Y-67743723D01*
X49149907Y-67714500D01*
X49149903Y-67714500D01*
X49000097Y-67714500D01*
X49000092Y-67714500D01*
X48853177Y-67743723D01*
X48853169Y-67743725D01*
X48714770Y-67801051D01*
X48714761Y-67801056D01*
X48590209Y-67884280D01*
X48590205Y-67884283D01*
X48484283Y-67990205D01*
X48484280Y-67990209D01*
X48401056Y-68114761D01*
X48401051Y-68114770D01*
X48343725Y-68253169D01*
X48343723Y-68253177D01*
X48314500Y-68400092D01*
X18682683Y-68400092D01*
X18671968Y-68332451D01*
X18662171Y-68270591D01*
X18606211Y-68098361D01*
X18606211Y-68098360D01*
X18551102Y-67990205D01*
X18523996Y-67937006D01*
X18485689Y-67884280D01*
X18417558Y-67790505D01*
X18417554Y-67790500D01*
X18289499Y-67662445D01*
X18289494Y-67662441D01*
X18142997Y-67556006D01*
X18142996Y-67556005D01*
X18142994Y-67556004D01*
X18091300Y-67529664D01*
X17981639Y-67473788D01*
X17981636Y-67473787D01*
X17809410Y-67417829D01*
X17630551Y-67389500D01*
X17630546Y-67389500D01*
X17449454Y-67389500D01*
X17449449Y-67389500D01*
X17270589Y-67417829D01*
X17098363Y-67473787D01*
X17098360Y-67473788D01*
X16937002Y-67556006D01*
X16790505Y-67662441D01*
X16790500Y-67662445D01*
X16662445Y-67790500D01*
X16662441Y-67790505D01*
X16556006Y-67937002D01*
X16473788Y-68098360D01*
X16473787Y-68098363D01*
X16417829Y-68270589D01*
X16389500Y-68449448D01*
X9500500Y-68449448D01*
X9500500Y-64449448D01*
X74119500Y-64449448D01*
X74119500Y-64630551D01*
X74147829Y-64809410D01*
X74203787Y-64981636D01*
X74203788Y-64981639D01*
X74286006Y-65142997D01*
X74392441Y-65289494D01*
X74392445Y-65289499D01*
X74520500Y-65417554D01*
X74520505Y-65417558D01*
X74648287Y-65510396D01*
X74667006Y-65523996D01*
X74772484Y-65577740D01*
X74828360Y-65606211D01*
X74828363Y-65606212D01*
X74914476Y-65634191D01*
X75000591Y-65662171D01*
X75083429Y-65675291D01*
X75179449Y-65690500D01*
X75179454Y-65690500D01*
X75360551Y-65690500D01*
X75447259Y-65676765D01*
X75539409Y-65662171D01*
X75711639Y-65606211D01*
X75872994Y-65523996D01*
X76019501Y-65417553D01*
X76147553Y-65289501D01*
X76253996Y-65142994D01*
X76336211Y-64981639D01*
X76392171Y-64809409D01*
X76406765Y-64717259D01*
X76420500Y-64630551D01*
X76420500Y-64449448D01*
X76404019Y-64345397D01*
X76392171Y-64270591D01*
X76336211Y-64098361D01*
X76336211Y-64098360D01*
X76307740Y-64042484D01*
X76253996Y-63937006D01*
X76240396Y-63918287D01*
X76147558Y-63790505D01*
X76147554Y-63790500D01*
X76019499Y-63662445D01*
X76019494Y-63662441D01*
X75872997Y-63556006D01*
X75872996Y-63556005D01*
X75872994Y-63556004D01*
X75821300Y-63529664D01*
X75711639Y-63473788D01*
X75711636Y-63473787D01*
X75539410Y-63417829D01*
X75360551Y-63389500D01*
X75360546Y-63389500D01*
X75179454Y-63389500D01*
X75179449Y-63389500D01*
X75000589Y-63417829D01*
X74828363Y-63473787D01*
X74828360Y-63473788D01*
X74667002Y-63556006D01*
X74520505Y-63662441D01*
X74520500Y-63662445D01*
X74392445Y-63790500D01*
X74392441Y-63790505D01*
X74286006Y-63937002D01*
X74203788Y-64098360D01*
X74203787Y-64098363D01*
X74147829Y-64270589D01*
X74119500Y-64449448D01*
X9500500Y-64449448D01*
X9500500Y-60449448D01*
X16389500Y-60449448D01*
X16389500Y-60630551D01*
X16417829Y-60809410D01*
X16473787Y-60981636D01*
X16473788Y-60981639D01*
X16556006Y-61142997D01*
X16662441Y-61289494D01*
X16662445Y-61289499D01*
X16790500Y-61417554D01*
X16790505Y-61417558D01*
X16918287Y-61510396D01*
X16937006Y-61523996D01*
X17042484Y-61577740D01*
X17098360Y-61606211D01*
X17098363Y-61606212D01*
X17184476Y-61634191D01*
X17270591Y-61662171D01*
X17353429Y-61675291D01*
X17449449Y-61690500D01*
X17449454Y-61690500D01*
X17630551Y-61690500D01*
X17717259Y-61676765D01*
X17809409Y-61662171D01*
X17981639Y-61606211D01*
X18142994Y-61523996D01*
X18289501Y-61417553D01*
X18417553Y-61289501D01*
X18523996Y-61142994D01*
X18606211Y-60981639D01*
X18662171Y-60809409D01*
X18676765Y-60717259D01*
X18690500Y-60630551D01*
X18690500Y-60449448D01*
X18674019Y-60345397D01*
X18662171Y-60270591D01*
X18606211Y-60098361D01*
X18606211Y-60098360D01*
X18577740Y-60042484D01*
X18523996Y-59937006D01*
X18510396Y-59918287D01*
X18417558Y-59790505D01*
X18417554Y-59790500D01*
X18289499Y-59662445D01*
X18289494Y-59662441D01*
X18142997Y-59556006D01*
X18142996Y-59556005D01*
X18142994Y-59556004D01*
X18091300Y-59529664D01*
X17981639Y-59473788D01*
X17981636Y-59473787D01*
X17809410Y-59417829D01*
X17630551Y-59389500D01*
X17630546Y-59389500D01*
X17449454Y-59389500D01*
X17449449Y-59389500D01*
X17270589Y-59417829D01*
X17098363Y-59473787D01*
X17098360Y-59473788D01*
X16937002Y-59556006D01*
X16790505Y-59662441D01*
X16790500Y-59662445D01*
X16662445Y-59790500D01*
X16662441Y-59790505D01*
X16556006Y-59937002D01*
X16473788Y-60098360D01*
X16473787Y-60098363D01*
X16417829Y-60270589D01*
X16389500Y-60449448D01*
X9500500Y-60449448D01*
X9500500Y-56449448D01*
X74119500Y-56449448D01*
X74119500Y-56630551D01*
X74147829Y-56809410D01*
X74203787Y-56981636D01*
X74203788Y-56981639D01*
X74286006Y-57142997D01*
X74392441Y-57289494D01*
X74392445Y-57289499D01*
X74520500Y-57417554D01*
X74520505Y-57417558D01*
X74648287Y-57510396D01*
X74667006Y-57523996D01*
X74772484Y-57577740D01*
X74828360Y-57606211D01*
X74828363Y-57606212D01*
X74914476Y-57634191D01*
X75000591Y-57662171D01*
X75083429Y-57675291D01*
X75179449Y-57690500D01*
X75179454Y-57690500D01*
X75360551Y-57690500D01*
X75447259Y-57676765D01*
X75539409Y-57662171D01*
X75711639Y-57606211D01*
X75872994Y-57523996D01*
X76019501Y-57417553D01*
X76147553Y-57289501D01*
X76253996Y-57142994D01*
X76336211Y-56981639D01*
X76392171Y-56809409D01*
X76406765Y-56717259D01*
X76420500Y-56630551D01*
X76420500Y-56449448D01*
X76404019Y-56345397D01*
X76392171Y-56270591D01*
X76336211Y-56098361D01*
X76336211Y-56098360D01*
X76307740Y-56042484D01*
X76253996Y-55937006D01*
X76240396Y-55918287D01*
X76147558Y-55790505D01*
X76147554Y-55790500D01*
X76019499Y-55662445D01*
X76019494Y-55662441D01*
X75872997Y-55556006D01*
X75872996Y-55556005D01*
X75872994Y-55556004D01*
X75821300Y-55529664D01*
X75711639Y-55473788D01*
X75711636Y-55473787D01*
X75539410Y-55417829D01*
X75360551Y-55389500D01*
X75360546Y-55389500D01*
X75179454Y-55389500D01*
X75179449Y-55389500D01*
X75000589Y-55417829D01*
X74828363Y-55473787D01*
X74828360Y-55473788D01*
X74667002Y-55556006D01*
X74520505Y-55662441D01*
X74520500Y-55662445D01*
X74392445Y-55790500D01*
X74392441Y-55790505D01*
X74286006Y-55937002D01*
X74203788Y-56098360D01*
X74203787Y-56098363D01*
X74147829Y-56270589D01*
X74119500Y-56449448D01*
X9500500Y-56449448D01*
X9500500Y-48449448D01*
X74119500Y-48449448D01*
X74119500Y-48630551D01*
X74147829Y-48809410D01*
X74203787Y-48981636D01*
X74203788Y-48981639D01*
X74286006Y-49142997D01*
X74392441Y-49289494D01*
X74392445Y-49289499D01*
X74520500Y-49417554D01*
X74520505Y-49417558D01*
X74648287Y-49510396D01*
X74667006Y-49523996D01*
X74772484Y-49577740D01*
X74828360Y-49606211D01*
X74828363Y-49606212D01*
X74914476Y-49634191D01*
X75000591Y-49662171D01*
X75083429Y-49675291D01*
X75179449Y-49690500D01*
X75179454Y-49690500D01*
X75360551Y-49690500D01*
X75447259Y-49676765D01*
X75539409Y-49662171D01*
X75711639Y-49606211D01*
X75872994Y-49523996D01*
X76019501Y-49417553D01*
X76147553Y-49289501D01*
X76253996Y-49142994D01*
X76336211Y-48981639D01*
X76392171Y-48809409D01*
X76406765Y-48717259D01*
X76420500Y-48630551D01*
X76420500Y-48449448D01*
X76404019Y-48345397D01*
X76392171Y-48270591D01*
X76336211Y-48098361D01*
X76336211Y-48098360D01*
X76307740Y-48042484D01*
X76253996Y-47937006D01*
X76240396Y-47918287D01*
X76147558Y-47790505D01*
X76147554Y-47790500D01*
X76019499Y-47662445D01*
X76019494Y-47662441D01*
X75872997Y-47556006D01*
X75872996Y-47556005D01*
X75872994Y-47556004D01*
X75821300Y-47529664D01*
X75711639Y-47473788D01*
X75711636Y-47473787D01*
X75539410Y-47417829D01*
X75360551Y-47389500D01*
X75360546Y-47389500D01*
X75179454Y-47389500D01*
X75179449Y-47389500D01*
X75000589Y-47417829D01*
X74828363Y-47473787D01*
X74828360Y-47473788D01*
X74667002Y-47556006D01*
X74520505Y-47662441D01*
X74520500Y-47662445D01*
X74392445Y-47790500D01*
X74392441Y-47790505D01*
X74286006Y-47937002D01*
X74203788Y-48098360D01*
X74203787Y-48098363D01*
X74147829Y-48270589D01*
X74119500Y-48449448D01*
X9500500Y-48449448D01*
X9500500Y-40449448D01*
X74119500Y-40449448D01*
X74119500Y-40630551D01*
X74147829Y-40809410D01*
X74203787Y-40981636D01*
X74203788Y-40981639D01*
X74286006Y-41142997D01*
X74392441Y-41289494D01*
X74392445Y-41289499D01*
X74520500Y-41417554D01*
X74520505Y-41417558D01*
X74648287Y-41510396D01*
X74667006Y-41523996D01*
X74772484Y-41577740D01*
X74828360Y-41606211D01*
X74828363Y-41606212D01*
X74914476Y-41634191D01*
X75000591Y-41662171D01*
X75083429Y-41675291D01*
X75179449Y-41690500D01*
X75179454Y-41690500D01*
X75360551Y-41690500D01*
X75447259Y-41676765D01*
X75539409Y-41662171D01*
X75711639Y-41606211D01*
X75872994Y-41523996D01*
X76019501Y-41417553D01*
X76147553Y-41289501D01*
X76253996Y-41142994D01*
X76336211Y-40981639D01*
X76392171Y-40809409D01*
X76406765Y-40717259D01*
X76420500Y-40630551D01*
X76420500Y-40449448D01*
X76404019Y-40345397D01*
X76392171Y-40270591D01*
X76336211Y-40098361D01*
X76336211Y-40098360D01*
X76307740Y-40042484D01*
X76253996Y-39937006D01*
X76240396Y-39918287D01*
X76147558Y-39790505D01*
X76147554Y-39790500D01*
X76019499Y-39662445D01*
X76019494Y-39662441D01*
X75872997Y-39556006D01*
X75872996Y-39556005D01*
X75872994Y-39556004D01*
X75821300Y-39529664D01*
X75711639Y-39473788D01*
X75711636Y-39473787D01*
X75539410Y-39417829D01*
X75360551Y-39389500D01*
X75360546Y-39389500D01*
X75179454Y-39389500D01*
X75179449Y-39389500D01*
X75000589Y-39417829D01*
X74828363Y-39473787D01*
X74828360Y-39473788D01*
X74667002Y-39556006D01*
X74520505Y-39662441D01*
X74520500Y-39662445D01*
X74392445Y-39790500D01*
X74392441Y-39790505D01*
X74286006Y-39937002D01*
X74203788Y-40098360D01*
X74203787Y-40098363D01*
X74147829Y-40270589D01*
X74119500Y-40449448D01*
X9500500Y-40449448D01*
X9500500Y-32449448D01*
X74119500Y-32449448D01*
X74119500Y-32630551D01*
X74147829Y-32809410D01*
X74203787Y-32981636D01*
X74203788Y-32981639D01*
X74286006Y-33142997D01*
X74392441Y-33289494D01*
X74392445Y-33289499D01*
X74520500Y-33417554D01*
X74520505Y-33417558D01*
X74648287Y-33510396D01*
X74667006Y-33523996D01*
X74772484Y-33577740D01*
X74828360Y-33606211D01*
X74828363Y-33606212D01*
X74914476Y-33634191D01*
X75000591Y-33662171D01*
X75083429Y-33675291D01*
X75179449Y-33690500D01*
X75179454Y-33690500D01*
X75360551Y-33690500D01*
X75447259Y-33676765D01*
X75539409Y-33662171D01*
X75711639Y-33606211D01*
X75872994Y-33523996D01*
X76019501Y-33417553D01*
X76147553Y-33289501D01*
X76253996Y-33142994D01*
X76336211Y-32981639D01*
X76392171Y-32809409D01*
X76406765Y-32717259D01*
X76420500Y-32630551D01*
X76420500Y-32449448D01*
X76404019Y-32345397D01*
X76392171Y-32270591D01*
X76336211Y-32098361D01*
X76336211Y-32098360D01*
X76307740Y-32042484D01*
X76253996Y-31937006D01*
X76240396Y-31918287D01*
X76147558Y-31790505D01*
X76147554Y-31790500D01*
X76019499Y-31662445D01*
X76019494Y-31662441D01*
X75872997Y-31556006D01*
X75872996Y-31556005D01*
X75872994Y-31556004D01*
X75821300Y-31529664D01*
X75711639Y-31473788D01*
X75711636Y-31473787D01*
X75539410Y-31417829D01*
X75360551Y-31389500D01*
X75360546Y-31389500D01*
X75179454Y-31389500D01*
X75179449Y-31389500D01*
X75000589Y-31417829D01*
X74828363Y-31473787D01*
X74828360Y-31473788D01*
X74667002Y-31556006D01*
X74520505Y-31662441D01*
X74520500Y-31662445D01*
X74392445Y-31790500D01*
X74392441Y-31790505D01*
X74286006Y-31937002D01*
X74203788Y-32098360D01*
X74203787Y-32098363D01*
X74147829Y-32270589D01*
X74119500Y-32449448D01*
X9500500Y-32449448D01*
X9500500Y-24449448D01*
X74119500Y-24449448D01*
X74119500Y-24630551D01*
X74147829Y-24809410D01*
X74203787Y-24981636D01*
X74203788Y-24981639D01*
X74286006Y-25142997D01*
X74392441Y-25289494D01*
X74392445Y-25289499D01*
X74520500Y-25417554D01*
X74520505Y-25417558D01*
X74648287Y-25510396D01*
X74667006Y-25523996D01*
X74772484Y-25577740D01*
X74828360Y-25606211D01*
X74828363Y-25606212D01*
X74914476Y-25634191D01*
X75000591Y-25662171D01*
X75083429Y-25675291D01*
X75179449Y-25690500D01*
X75179454Y-25690500D01*
X75360551Y-25690500D01*
X75447259Y-25676765D01*
X75539409Y-25662171D01*
X75711639Y-25606211D01*
X75872994Y-25523996D01*
X76019501Y-25417553D01*
X76147553Y-25289501D01*
X76253996Y-25142994D01*
X76336211Y-24981639D01*
X76392171Y-24809409D01*
X76406765Y-24717259D01*
X76420500Y-24630551D01*
X76420500Y-24449448D01*
X76404019Y-24345397D01*
X76392171Y-24270591D01*
X76336211Y-24098361D01*
X76336211Y-24098360D01*
X76307740Y-24042484D01*
X76253996Y-23937006D01*
X76240396Y-23918287D01*
X76147558Y-23790505D01*
X76147554Y-23790500D01*
X76019499Y-23662445D01*
X76019494Y-23662441D01*
X75872997Y-23556006D01*
X75872996Y-23556005D01*
X75872994Y-23556004D01*
X75821300Y-23529664D01*
X75711639Y-23473788D01*
X75711636Y-23473787D01*
X75539410Y-23417829D01*
X75360551Y-23389500D01*
X75360546Y-23389500D01*
X75179454Y-23389500D01*
X75179449Y-23389500D01*
X75000589Y-23417829D01*
X74828363Y-23473787D01*
X74828360Y-23473788D01*
X74667002Y-23556006D01*
X74520505Y-23662441D01*
X74520500Y-23662445D01*
X74392445Y-23790500D01*
X74392441Y-23790505D01*
X74286006Y-23937002D01*
X74203788Y-24098360D01*
X74203787Y-24098363D01*
X74147829Y-24270589D01*
X74119500Y-24449448D01*
X9500500Y-24449448D01*
X9500500Y-14878711D01*
X15689500Y-14878711D01*
X15689500Y-15121288D01*
X15721161Y-15361785D01*
X15783947Y-15596104D01*
X15876773Y-15820205D01*
X15876776Y-15820212D01*
X15998064Y-16030289D01*
X15998066Y-16030292D01*
X15998067Y-16030293D01*
X16145733Y-16222736D01*
X16145739Y-16222743D01*
X16317256Y-16394260D01*
X16317262Y-16394265D01*
X16509711Y-16541936D01*
X16719788Y-16663224D01*
X16943900Y-16756054D01*
X17178211Y-16818838D01*
X17358586Y-16842584D01*
X17418711Y-16850500D01*
X17418712Y-16850500D01*
X17661289Y-16850500D01*
X17709388Y-16844167D01*
X17901789Y-16818838D01*
X18136100Y-16756054D01*
X18360212Y-16663224D01*
X18570289Y-16541936D01*
X18762738Y-16394265D01*
X18934265Y-16222738D01*
X19081936Y-16030289D01*
X19203224Y-15820212D01*
X19296054Y-15596100D01*
X19358838Y-15361789D01*
X19390500Y-15121288D01*
X19390500Y-14878712D01*
X19390500Y-14878711D01*
X73419500Y-14878711D01*
X73419500Y-15121288D01*
X73451161Y-15361785D01*
X73513947Y-15596104D01*
X73606773Y-15820205D01*
X73606776Y-15820212D01*
X73728064Y-16030289D01*
X73728066Y-16030292D01*
X73728067Y-16030293D01*
X73875733Y-16222736D01*
X73875739Y-16222743D01*
X74047256Y-16394260D01*
X74047262Y-16394265D01*
X74239711Y-16541936D01*
X74449788Y-16663224D01*
X74673900Y-16756054D01*
X74908211Y-16818838D01*
X75088586Y-16842584D01*
X75148711Y-16850500D01*
X75148712Y-16850500D01*
X75391289Y-16850500D01*
X75439388Y-16844167D01*
X75631789Y-16818838D01*
X75866100Y-16756054D01*
X76090212Y-16663224D01*
X76300289Y-16541936D01*
X76492738Y-16394265D01*
X76664265Y-16222738D01*
X76811936Y-16030289D01*
X76933224Y-15820212D01*
X77026054Y-15596100D01*
X77088838Y-15361789D01*
X77120500Y-15121288D01*
X77120500Y-14878712D01*
X77088838Y-14638211D01*
X77026054Y-14403900D01*
X76933224Y-14179788D01*
X76811936Y-13969711D01*
X76664265Y-13777262D01*
X76664260Y-13777256D01*
X76492743Y-13605739D01*
X76492736Y-13605733D01*
X76300293Y-13458067D01*
X76300292Y-13458066D01*
X76300289Y-13458064D01*
X76090212Y-13336776D01*
X76090205Y-13336773D01*
X75866104Y-13243947D01*
X75631785Y-13181161D01*
X75391289Y-13149500D01*
X75391288Y-13149500D01*
X75148712Y-13149500D01*
X75148711Y-13149500D01*
X74908214Y-13181161D01*
X74673895Y-13243947D01*
X74449794Y-13336773D01*
X74449785Y-13336777D01*
X74239706Y-13458067D01*
X74047263Y-13605733D01*
X74047256Y-13605739D01*
X73875739Y-13777256D01*
X73875733Y-13777263D01*
X73728067Y-13969706D01*
X73606777Y-14179785D01*
X73606773Y-14179794D01*
X73513947Y-14403895D01*
X73451161Y-14638214D01*
X73419500Y-14878711D01*
X19390500Y-14878711D01*
X19358838Y-14638211D01*
X19296054Y-14403900D01*
X19203224Y-14179788D01*
X19081936Y-13969711D01*
X18934265Y-13777262D01*
X18934260Y-13777256D01*
X18762743Y-13605739D01*
X18762736Y-13605733D01*
X18570293Y-13458067D01*
X18570292Y-13458066D01*
X18570289Y-13458064D01*
X18360212Y-13336776D01*
X18360205Y-13336773D01*
X18136104Y-13243947D01*
X17901785Y-13181161D01*
X17661289Y-13149500D01*
X17661288Y-13149500D01*
X17418712Y-13149500D01*
X17418711Y-13149500D01*
X17178214Y-13181161D01*
X16943895Y-13243947D01*
X16719794Y-13336773D01*
X16719785Y-13336777D01*
X16509706Y-13458067D01*
X16317263Y-13605733D01*
X16317256Y-13605739D01*
X16145739Y-13777256D01*
X16145733Y-13777263D01*
X15998067Y-13969706D01*
X15876777Y-14179785D01*
X15876773Y-14179794D01*
X15783947Y-14403895D01*
X15721161Y-14638214D01*
X15689500Y-14878711D01*
X9500500Y-14878711D01*
X9500500Y-10624500D01*
X9520185Y-10557461D01*
X9572989Y-10511706D01*
X9624500Y-10500500D01*
X83185500Y-10500500D01*
X83252539Y-10520185D01*
G37*
%TD.AperFunction*%
%TD*%
M02*
