%TF.GenerationSoftware,KiCad,Pcbnew,10.0.3*%
%TF.CreationDate,2026-06-22T23:38:33-04:00*%
%TF.ProjectId,board-A-mcx,626f6172-642d-4412-9d6d-63782e6b6963,rev?*%
%TF.SameCoordinates,Original*%
%TF.FileFunction,Copper,L1,Top*%
%TF.FilePolarity,Positive*%
%FSLAX46Y46*%
G04 Gerber Fmt 4.6, Leading zero omitted, Abs format (unit mm)*
G04 Created by KiCad (PCBNEW 10.0.3) date 2026-06-22 23:38:33*
%MOMM*%
%LPD*%
G01*
G04 APERTURE LIST*
%TA.AperFunction,SMDPad,CuDef*%
%ADD10C,1.650000*%
%TD*%
%TA.AperFunction,SMDPad,CuDef*%
%ADD11R,2.100000X2.100000*%
%TD*%
%TA.AperFunction,ViaPad*%
%ADD12C,0.600000*%
%TD*%
%TA.AperFunction,Conductor*%
%ADD13C,0.340000*%
%TD*%
G04 APERTURE END LIST*
D10*
%TO.P,K20,1*%
%TO.N,SIPM_K20*%
X76000000Y-61270000D03*
D11*
%TO.P,K20,2*%
%TO.N,GNDA*%
X72730000Y-58000000D03*
X72730000Y-64540000D03*
X79270000Y-58000000D03*
X79270000Y-64540000D03*
%TD*%
D10*
%TO.P,K21,1*%
%TO.N,SIPM_K21*%
X76000000Y-70270000D03*
D11*
%TO.P,K21,2*%
%TO.N,GNDA*%
X72730000Y-67000000D03*
X72730000Y-73540000D03*
X79270000Y-67000000D03*
X79270000Y-73540000D03*
%TD*%
D10*
%TO.P,K1,1*%
%TO.N,SIPM_K1*%
X18270000Y-128770000D03*
D11*
%TO.P,K1,2*%
%TO.N,GNDA*%
X21540000Y-132040000D03*
X21540000Y-125500000D03*
X15000000Y-132040000D03*
X15000000Y-125500000D03*
%TD*%
D10*
%TO.P,K14,1*%
%TO.N,SIPM_K14*%
X18270000Y-56770000D03*
D11*
%TO.P,K14,2*%
%TO.N,GNDA*%
X21540000Y-60040000D03*
X21540000Y-53500000D03*
X15000000Y-60040000D03*
X15000000Y-53500000D03*
%TD*%
D10*
%TO.P,K15,1*%
%TO.N,SIPM_K15*%
X18270000Y-38770000D03*
D11*
%TO.P,K15,2*%
%TO.N,GNDA*%
X21540000Y-42040000D03*
X21540000Y-35500000D03*
X15000000Y-42040000D03*
X15000000Y-35500000D03*
%TD*%
D10*
%TO.P,K5,1*%
%TO.N,SIPM_K5*%
X76000000Y-115270000D03*
D11*
%TO.P,K5,2*%
%TO.N,GNDA*%
X72730000Y-112000000D03*
X72730000Y-118540000D03*
X79270000Y-112000000D03*
X79270000Y-118540000D03*
%TD*%
D10*
%TO.P,K18,1*%
%TO.N,SIPM_K18*%
X76000000Y-43270000D03*
D11*
%TO.P,K18,2*%
%TO.N,GNDA*%
X72730000Y-40000000D03*
X72730000Y-46540000D03*
X79270000Y-40000000D03*
X79270000Y-46540000D03*
%TD*%
D10*
%TO.P,K9,1*%
%TO.N,SIPM_K9*%
X18270000Y-101770000D03*
D11*
%TO.P,K9,2*%
%TO.N,GNDA*%
X21540000Y-105040000D03*
X21540000Y-98500000D03*
X15000000Y-105040000D03*
X15000000Y-98500000D03*
%TD*%
D10*
%TO.P,K3,1*%
%TO.N,SIPM_K3*%
X76000000Y-97270000D03*
D11*
%TO.P,K3,2*%
%TO.N,GNDA*%
X72730000Y-94000000D03*
X72730000Y-100540000D03*
X79270000Y-94000000D03*
X79270000Y-100540000D03*
%TD*%
D10*
%TO.P,K4,1*%
%TO.N,SIPM_K4*%
X76000000Y-106270000D03*
D11*
%TO.P,K4,2*%
%TO.N,GNDA*%
X72730000Y-103000000D03*
X72730000Y-109540000D03*
X79270000Y-103000000D03*
X79270000Y-109540000D03*
%TD*%
D10*
%TO.P,K6,1*%
%TO.N,SIPM_K6*%
X76000000Y-124270000D03*
D11*
%TO.P,K6,2*%
%TO.N,GNDA*%
X72730000Y-121000000D03*
X72730000Y-127540000D03*
X79270000Y-121000000D03*
X79270000Y-127540000D03*
%TD*%
D10*
%TO.P,K19,1*%
%TO.N,SIPM_K19*%
X76000000Y-52270000D03*
D11*
%TO.P,K19,2*%
%TO.N,GNDA*%
X72730000Y-49000000D03*
X72730000Y-55540000D03*
X79270000Y-49000000D03*
X79270000Y-55540000D03*
%TD*%
D10*
%TO.P,K8,1*%
%TO.N,SIPM_K8*%
X18270000Y-119770000D03*
D11*
%TO.P,K8,2*%
%TO.N,GNDA*%
X21540000Y-123040000D03*
X21540000Y-116500000D03*
X15000000Y-123040000D03*
X15000000Y-116500000D03*
%TD*%
D10*
%TO.P,K10,1*%
%TO.N,SIPM_K10*%
X18270000Y-92770000D03*
D11*
%TO.P,K10,2*%
%TO.N,GNDA*%
X21540000Y-96040000D03*
X21540000Y-89500000D03*
X15000000Y-96040000D03*
X15000000Y-89500000D03*
%TD*%
D10*
%TO.P,K7,1*%
%TO.N,SIPM_K7*%
X76000000Y-133270000D03*
D11*
%TO.P,K7,2*%
%TO.N,GNDA*%
X72730000Y-130000000D03*
X72730000Y-136540000D03*
X79270000Y-130000000D03*
X79270000Y-136540000D03*
%TD*%
D10*
%TO.P,IV,1*%
%TO.N,IV*%
X76000000Y-79270000D03*
D11*
%TO.P,IV,2*%
%TO.N,GNDA*%
X72730000Y-76000000D03*
X72730000Y-82540000D03*
X79270000Y-76000000D03*
X79270000Y-82540000D03*
%TD*%
D10*
%TO.P,K12,1*%
%TO.N,SIPM_K12*%
X18270000Y-74770000D03*
D11*
%TO.P,K12,2*%
%TO.N,GNDA*%
X21540000Y-78040000D03*
X21540000Y-71500000D03*
X15000000Y-78040000D03*
X15000000Y-71500000D03*
%TD*%
D10*
%TO.P,K22,1*%
%TO.N,SIPM_K22*%
X18270000Y-29770000D03*
D11*
%TO.P,K22,2*%
%TO.N,GNDA*%
X21540000Y-33040000D03*
X21540000Y-26500000D03*
X15000000Y-33040000D03*
X15000000Y-26500000D03*
%TD*%
D10*
%TO.P,K11,1*%
%TO.N,SIPM_K11*%
X18270000Y-83770000D03*
D11*
%TO.P,K11,2*%
%TO.N,GNDA*%
X21540000Y-87040000D03*
X21540000Y-80500000D03*
X15000000Y-87040000D03*
X15000000Y-80500000D03*
%TD*%
D10*
%TO.P,K0,1*%
%TO.N,SIPM_K0*%
X18270000Y-110770000D03*
D11*
%TO.P,K0,2*%
%TO.N,GNDA*%
X21540000Y-114040000D03*
X21540000Y-107500000D03*
X15000000Y-114040000D03*
X15000000Y-107500000D03*
%TD*%
D10*
%TO.P,K17,1*%
%TO.N,SIPM_K17*%
X76000000Y-34270000D03*
D11*
%TO.P,K17,2*%
%TO.N,GNDA*%
X72730000Y-31000000D03*
X72730000Y-37540000D03*
X79270000Y-31000000D03*
X79270000Y-37540000D03*
%TD*%
D10*
%TO.P,K16,1*%
%TO.N,SIPM_K16*%
X76000000Y-25270000D03*
D11*
%TO.P,K16,2*%
%TO.N,GNDA*%
X72730000Y-22000000D03*
X72730000Y-28540000D03*
X79270000Y-22000000D03*
X79270000Y-28540000D03*
%TD*%
D10*
%TO.P,K23,1*%
%TO.N,SIPM_K23*%
X18270000Y-47770000D03*
D11*
%TO.P,K23,2*%
%TO.N,GNDA*%
X21540000Y-51040000D03*
X21540000Y-44500000D03*
X15000000Y-51040000D03*
X15000000Y-44500000D03*
%TD*%
D10*
%TO.P,K2,1*%
%TO.N,SIPM_K2*%
X76000000Y-88270000D03*
D11*
%TO.P,K2,2*%
%TO.N,GNDA*%
X72730000Y-85000000D03*
X72730000Y-91540000D03*
X79270000Y-85000000D03*
X79270000Y-91540000D03*
%TD*%
D10*
%TO.P,K13,1*%
%TO.N,SIPM_K13*%
X18270000Y-65770000D03*
D11*
%TO.P,K13,2*%
%TO.N,GNDA*%
X21540000Y-69040000D03*
X21540000Y-62500000D03*
X15000000Y-69040000D03*
X15000000Y-62500000D03*
%TD*%
D12*
%TO.N,SIPM_K20*%
X72000000Y-61270000D03*
%TO.N,GNDA*%
X47925000Y-12925000D03*
X47925000Y-145615000D03*
X29925000Y-12925000D03*
X11925000Y-12925000D03*
X65925000Y-12925000D03*
X65925000Y-145615000D03*
X71925000Y-12925000D03*
X53925000Y-12925000D03*
X53925000Y-145615000D03*
X59925000Y-145615000D03*
X59925000Y-12925000D03*
X23925000Y-145615000D03*
X71925000Y-145615000D03*
X11925000Y-145615000D03*
X35925000Y-145615000D03*
X35925000Y-12925000D03*
X23925000Y-12925000D03*
X41925000Y-12925000D03*
X29925000Y-145615000D03*
X41925000Y-145615000D03*
%TO.N,SIPM_K21*%
X72000000Y-70270000D03*
%TO.N,SIPM_K1*%
X52000000Y-87270000D03*
%TO.N,SIPM_K14*%
X22270000Y-56770000D03*
%TO.N,SIPM_K15*%
X22270000Y-38770000D03*
%TO.N,SIPM_K5*%
X72000000Y-115270000D03*
%TO.N,SIPM_K18*%
X72000000Y-43270000D03*
%TO.N,SIPM_K9*%
X22270000Y-101770000D03*
%TO.N,SIPM_K3*%
X72000000Y-97270000D03*
%TO.N,SIPM_K4*%
X72000000Y-106270000D03*
%TO.N,SIPM_K6*%
X72000000Y-124270000D03*
%TO.N,SIPM_K19*%
X72000000Y-52270000D03*
%TO.N,SIPM_K8*%
X22270000Y-119770000D03*
%TO.N,SIPM_K10*%
X22270000Y-92770000D03*
%TO.N,SIPM_K7*%
X72000000Y-133270000D03*
%TO.N,IV*%
X72000000Y-79270000D03*
%TO.N,SIPM_K12*%
X22270000Y-74770000D03*
%TO.N,SIPM_K22*%
X52000000Y-71270000D03*
%TO.N,SIPM_K11*%
X22270000Y-83770000D03*
%TO.N,SIPM_K0*%
X52000000Y-85670000D03*
%TO.N,SIPM_K17*%
X72000000Y-34270000D03*
%TO.N,SIPM_K16*%
X72000000Y-25270000D03*
%TO.N,SIPM_K23*%
X52000000Y-72870000D03*
%TO.N,SIPM_K2*%
X72000000Y-88270000D03*
%TO.N,SIPM_K13*%
X22270000Y-65770000D03*
%TD*%
%TO.N,SIPM_K20*%
D13*
X72000000Y-61270000D02*
X76000000Y-61270000D01*
%TO.N,SIPM_K21*%
X72000000Y-70270000D02*
X76000000Y-70270000D01*
%TO.N,SIPM_K1*%
X52000000Y-87270000D02*
X22270000Y-128770000D01*
X22270000Y-128770000D02*
X18270000Y-128770000D01*
%TO.N,SIPM_K14*%
X22270000Y-56770000D02*
X18270000Y-56770000D01*
%TO.N,SIPM_K15*%
X22270000Y-38770000D02*
X18270000Y-38770000D01*
%TO.N,SIPM_K5*%
X72000000Y-115270000D02*
X76000000Y-115270000D01*
%TO.N,SIPM_K18*%
X72000000Y-43270000D02*
X76000000Y-43270000D01*
%TO.N,SIPM_K9*%
X22270000Y-101770000D02*
X18270000Y-101770000D01*
%TO.N,SIPM_K3*%
X72000000Y-97270000D02*
X76000000Y-97270000D01*
%TO.N,SIPM_K4*%
X72000000Y-106270000D02*
X76000000Y-106270000D01*
%TO.N,SIPM_K6*%
X72000000Y-124270000D02*
X76000000Y-124270000D01*
%TO.N,SIPM_K19*%
X72000000Y-52270000D02*
X76000000Y-52270000D01*
%TO.N,SIPM_K8*%
X22270000Y-119770000D02*
X18270000Y-119770000D01*
%TO.N,SIPM_K10*%
X22270000Y-92770000D02*
X18270000Y-92770000D01*
%TO.N,SIPM_K7*%
X72000000Y-133270000D02*
X76000000Y-133270000D01*
%TO.N,IV*%
X72000000Y-79270000D02*
X76000000Y-79270000D01*
%TO.N,SIPM_K12*%
X22270000Y-74770000D02*
X18270000Y-74770000D01*
%TO.N,SIPM_K22*%
X52000000Y-71270000D02*
X22270000Y-29770000D01*
X22270000Y-29770000D02*
X18270000Y-29770000D01*
%TO.N,SIPM_K11*%
X22270000Y-83770000D02*
X18270000Y-83770000D01*
%TO.N,SIPM_K0*%
X22270000Y-110770000D02*
X18270000Y-110770000D01*
X52000000Y-85670000D02*
X22270000Y-110770000D01*
%TO.N,SIPM_K17*%
X72000000Y-34270000D02*
X76000000Y-34270000D01*
%TO.N,SIPM_K16*%
X72000000Y-25270000D02*
X76000000Y-25270000D01*
%TO.N,SIPM_K23*%
X22270000Y-47770000D02*
X18270000Y-47770000D01*
X52000000Y-72870000D02*
X22270000Y-47770000D01*
%TO.N,SIPM_K2*%
X72000000Y-88270000D02*
X76000000Y-88270000D01*
%TO.N,SIPM_K13*%
X22270000Y-65770000D02*
X18270000Y-65770000D01*
%TD*%
%TA.AperFunction,Conductor*%
%TO.N,GNDA*%
G36*
X84712539Y-10520185D02*
G01*
X84758294Y-10572989D01*
X84769500Y-10624500D01*
X84769500Y-147915500D01*
X84749815Y-147982539D01*
X84697011Y-148028294D01*
X84645500Y-148039500D01*
X9624500Y-148039500D01*
X9557461Y-148019815D01*
X9511706Y-147967011D01*
X9500500Y-147915500D01*
X9500500Y-143418711D01*
X16419500Y-143418711D01*
X16419500Y-143661288D01*
X16451161Y-143901785D01*
X16513947Y-144136104D01*
X16606773Y-144360205D01*
X16606776Y-144360212D01*
X16728064Y-144570289D01*
X16728066Y-144570292D01*
X16728067Y-144570293D01*
X16875733Y-144762736D01*
X16875739Y-144762743D01*
X17047256Y-144934260D01*
X17047262Y-144934265D01*
X17239711Y-145081936D01*
X17449788Y-145203224D01*
X17673900Y-145296054D01*
X17908211Y-145358838D01*
X18088586Y-145382584D01*
X18148711Y-145390500D01*
X18148712Y-145390500D01*
X18391289Y-145390500D01*
X18439388Y-145384167D01*
X18631789Y-145358838D01*
X18866100Y-145296054D01*
X19090212Y-145203224D01*
X19300289Y-145081936D01*
X19492738Y-144934265D01*
X19664265Y-144762738D01*
X19811936Y-144570289D01*
X19933224Y-144360212D01*
X20026054Y-144136100D01*
X20088838Y-143901789D01*
X20120500Y-143661288D01*
X20120500Y-143418712D01*
X20120500Y-143418711D01*
X74149500Y-143418711D01*
X74149500Y-143661288D01*
X74181161Y-143901785D01*
X74243947Y-144136104D01*
X74336773Y-144360205D01*
X74336776Y-144360212D01*
X74458064Y-144570289D01*
X74458066Y-144570292D01*
X74458067Y-144570293D01*
X74605733Y-144762736D01*
X74605739Y-144762743D01*
X74777256Y-144934260D01*
X74777262Y-144934265D01*
X74969711Y-145081936D01*
X75179788Y-145203224D01*
X75403900Y-145296054D01*
X75638211Y-145358838D01*
X75818586Y-145382584D01*
X75878711Y-145390500D01*
X75878712Y-145390500D01*
X76121289Y-145390500D01*
X76169388Y-145384167D01*
X76361789Y-145358838D01*
X76596100Y-145296054D01*
X76820212Y-145203224D01*
X77030289Y-145081936D01*
X77222738Y-144934265D01*
X77394265Y-144762738D01*
X77541936Y-144570289D01*
X77663224Y-144360212D01*
X77756054Y-144136100D01*
X77818838Y-143901789D01*
X77850500Y-143661288D01*
X77850500Y-143418712D01*
X77818838Y-143178211D01*
X77756054Y-142943900D01*
X77663224Y-142719788D01*
X77541936Y-142509711D01*
X77394265Y-142317262D01*
X77394260Y-142317256D01*
X77222743Y-142145739D01*
X77222736Y-142145733D01*
X77030293Y-141998067D01*
X77030292Y-141998066D01*
X77030289Y-141998064D01*
X76820212Y-141876776D01*
X76820205Y-141876773D01*
X76596104Y-141783947D01*
X76361785Y-141721161D01*
X76121289Y-141689500D01*
X76121288Y-141689500D01*
X75878712Y-141689500D01*
X75878711Y-141689500D01*
X75638214Y-141721161D01*
X75403895Y-141783947D01*
X75179794Y-141876773D01*
X75179785Y-141876777D01*
X74969706Y-141998067D01*
X74777263Y-142145733D01*
X74777256Y-142145739D01*
X74605739Y-142317256D01*
X74605733Y-142317263D01*
X74458067Y-142509706D01*
X74336777Y-142719785D01*
X74336773Y-142719794D01*
X74243947Y-142943895D01*
X74181161Y-143178214D01*
X74149500Y-143418711D01*
X20120500Y-143418711D01*
X20088838Y-143178211D01*
X20026054Y-142943900D01*
X19933224Y-142719788D01*
X19811936Y-142509711D01*
X19664265Y-142317262D01*
X19664260Y-142317256D01*
X19492743Y-142145739D01*
X19492736Y-142145733D01*
X19300293Y-141998067D01*
X19300292Y-141998066D01*
X19300289Y-141998064D01*
X19090212Y-141876776D01*
X19090205Y-141876773D01*
X18866104Y-141783947D01*
X18631785Y-141721161D01*
X18391289Y-141689500D01*
X18391288Y-141689500D01*
X18148712Y-141689500D01*
X18148711Y-141689500D01*
X17908214Y-141721161D01*
X17673895Y-141783947D01*
X17449794Y-141876773D01*
X17449785Y-141876777D01*
X17239706Y-141998067D01*
X17047263Y-142145733D01*
X17047256Y-142145739D01*
X16875739Y-142317256D01*
X16875733Y-142317263D01*
X16728067Y-142509706D01*
X16606777Y-142719785D01*
X16606773Y-142719794D01*
X16513947Y-142943895D01*
X16451161Y-143178214D01*
X16419500Y-143418711D01*
X9500500Y-143418711D01*
X9500500Y-133190943D01*
X71399500Y-133190943D01*
X71399500Y-133349057D01*
X71402052Y-133358579D01*
X71440423Y-133501783D01*
X71440426Y-133501790D01*
X71519475Y-133638709D01*
X71519479Y-133638714D01*
X71519480Y-133638716D01*
X71631284Y-133750520D01*
X71631286Y-133750521D01*
X71631290Y-133750524D01*
X71648024Y-133760185D01*
X71768216Y-133829577D01*
X71920943Y-133870500D01*
X71920945Y-133870500D01*
X72079055Y-133870500D01*
X72079057Y-133870500D01*
X72231784Y-133829577D01*
X72279454Y-133802054D01*
X72357298Y-133757113D01*
X72419297Y-133740500D01*
X74900566Y-133740500D01*
X74967605Y-133760185D01*
X75011050Y-133808204D01*
X75037386Y-133859890D01*
X75141517Y-134003214D01*
X75266786Y-134128483D01*
X75410110Y-134232614D01*
X75487529Y-134272061D01*
X75567957Y-134313042D01*
X75567960Y-134313043D01*
X75652201Y-134340414D01*
X75736445Y-134367786D01*
X75911421Y-134395500D01*
X75911422Y-134395500D01*
X76088578Y-134395500D01*
X76088579Y-134395500D01*
X76263555Y-134367786D01*
X76432042Y-134313042D01*
X76589890Y-134232614D01*
X76733214Y-134128483D01*
X76858483Y-134003214D01*
X76962614Y-133859890D01*
X77043042Y-133702042D01*
X77097786Y-133533555D01*
X77125500Y-133358579D01*
X77125500Y-133181421D01*
X77097786Y-133006445D01*
X77043042Y-132837958D01*
X77043042Y-132837957D01*
X76962613Y-132680109D01*
X76954905Y-132669500D01*
X76858483Y-132536786D01*
X76733214Y-132411517D01*
X76589890Y-132307386D01*
X76432042Y-132226957D01*
X76432039Y-132226956D01*
X76263556Y-132172214D01*
X76176067Y-132158357D01*
X76088579Y-132144500D01*
X75911421Y-132144500D01*
X75853095Y-132153738D01*
X75736443Y-132172214D01*
X75567960Y-132226956D01*
X75567957Y-132226957D01*
X75410109Y-132307386D01*
X75328338Y-132366796D01*
X75266786Y-132411517D01*
X75266784Y-132411519D01*
X75266783Y-132411519D01*
X75141519Y-132536783D01*
X75141519Y-132536784D01*
X75141517Y-132536786D01*
X75096796Y-132598338D01*
X75037386Y-132680109D01*
X75011051Y-132731795D01*
X74963076Y-132782591D01*
X74900566Y-132799500D01*
X72419297Y-132799500D01*
X72357298Y-132782887D01*
X72231790Y-132710426D01*
X72231786Y-132710424D01*
X72231784Y-132710423D01*
X72079057Y-132669500D01*
X71920943Y-132669500D01*
X71768216Y-132710423D01*
X71768209Y-132710426D01*
X71631290Y-132789475D01*
X71631282Y-132789481D01*
X71519481Y-132901282D01*
X71519475Y-132901290D01*
X71440426Y-133038209D01*
X71440423Y-133038216D01*
X71399500Y-133190943D01*
X9500500Y-133190943D01*
X9500500Y-119681421D01*
X17144500Y-119681421D01*
X17144500Y-119858578D01*
X17172214Y-120033556D01*
X17226956Y-120202039D01*
X17226957Y-120202042D01*
X17307386Y-120359890D01*
X17411517Y-120503214D01*
X17536786Y-120628483D01*
X17680110Y-120732614D01*
X17757529Y-120772061D01*
X17837957Y-120813042D01*
X17837960Y-120813043D01*
X17922201Y-120840414D01*
X18006445Y-120867786D01*
X18181421Y-120895500D01*
X18181422Y-120895500D01*
X18358578Y-120895500D01*
X18358579Y-120895500D01*
X18533555Y-120867786D01*
X18702042Y-120813042D01*
X18859890Y-120732614D01*
X19003214Y-120628483D01*
X19128483Y-120503214D01*
X19232614Y-120359890D01*
X19258949Y-120308204D01*
X19306924Y-120257409D01*
X19369434Y-120240500D01*
X21850703Y-120240500D01*
X21912702Y-120257113D01*
X22001198Y-120308205D01*
X22038216Y-120329577D01*
X22190943Y-120370500D01*
X22190945Y-120370500D01*
X22349055Y-120370500D01*
X22349057Y-120370500D01*
X22501784Y-120329577D01*
X22638716Y-120250520D01*
X22750520Y-120138716D01*
X22829577Y-120001784D01*
X22870500Y-119849057D01*
X22870500Y-119690943D01*
X22829577Y-119538216D01*
X22811233Y-119506443D01*
X22750524Y-119401290D01*
X22750518Y-119401282D01*
X22638717Y-119289481D01*
X22638709Y-119289475D01*
X22501790Y-119210426D01*
X22501786Y-119210424D01*
X22501784Y-119210423D01*
X22349057Y-119169500D01*
X22190943Y-119169500D01*
X22038216Y-119210423D01*
X22038209Y-119210426D01*
X21912702Y-119282887D01*
X21850703Y-119299500D01*
X19369434Y-119299500D01*
X19302395Y-119279815D01*
X19258949Y-119231795D01*
X19232613Y-119180109D01*
X19224905Y-119169500D01*
X19128483Y-119036786D01*
X19003214Y-118911517D01*
X18859890Y-118807386D01*
X18702042Y-118726957D01*
X18702039Y-118726956D01*
X18533556Y-118672214D01*
X18446067Y-118658357D01*
X18358579Y-118644500D01*
X18181421Y-118644500D01*
X18123095Y-118653738D01*
X18006443Y-118672214D01*
X17837960Y-118726956D01*
X17837957Y-118726957D01*
X17680109Y-118807386D01*
X17598338Y-118866796D01*
X17536786Y-118911517D01*
X17536784Y-118911519D01*
X17536783Y-118911519D01*
X17411519Y-119036783D01*
X17411519Y-119036784D01*
X17411517Y-119036786D01*
X17366796Y-119098338D01*
X17307386Y-119180109D01*
X17226957Y-119337957D01*
X17226956Y-119337960D01*
X17172214Y-119506443D01*
X17144500Y-119681421D01*
X9500500Y-119681421D01*
X9500500Y-110681421D01*
X17144500Y-110681421D01*
X17144500Y-110858578D01*
X17172214Y-111033556D01*
X17226956Y-111202039D01*
X17226957Y-111202042D01*
X17281051Y-111308205D01*
X17307386Y-111359890D01*
X17411517Y-111503214D01*
X17536786Y-111628483D01*
X17680110Y-111732614D01*
X17757529Y-111772061D01*
X17837957Y-111813042D01*
X17837960Y-111813043D01*
X17922201Y-111840414D01*
X18006445Y-111867786D01*
X18181421Y-111895500D01*
X18181422Y-111895500D01*
X18358578Y-111895500D01*
X18358579Y-111895500D01*
X18533555Y-111867786D01*
X18702042Y-111813042D01*
X18859890Y-111732614D01*
X19003214Y-111628483D01*
X19128483Y-111503214D01*
X19232614Y-111359890D01*
X19258949Y-111308204D01*
X19306924Y-111257409D01*
X19369434Y-111240500D01*
X22250164Y-111240500D01*
X22292133Y-111244044D01*
X22311882Y-111240500D01*
X22331943Y-111240500D01*
X22367580Y-111230950D01*
X22377747Y-111228679D01*
X22414071Y-111222162D01*
X22432227Y-111213628D01*
X22451606Y-111208436D01*
X22488079Y-111187378D01*
X22526189Y-111169467D01*
X22533084Y-111163645D01*
X22551072Y-111151009D01*
X22558894Y-111146494D01*
X22584990Y-111120396D01*
X22592680Y-111113330D01*
X22687169Y-111033556D01*
X51235300Y-86931367D01*
X51260158Y-86920398D01*
X51283386Y-86906291D01*
X51291655Y-86906500D01*
X51299222Y-86903162D01*
X51326065Y-86907373D01*
X51353233Y-86908063D01*
X51360075Y-86912709D01*
X51368247Y-86913992D01*
X51388554Y-86932050D01*
X51411034Y-86947317D01*
X51414278Y-86954925D01*
X51420459Y-86960422D01*
X51427779Y-86986591D01*
X51438437Y-87011588D01*
X51437684Y-87022000D01*
X51439281Y-87027709D01*
X51437542Y-87046871D01*
X51436570Y-87052594D01*
X51399500Y-87190943D01*
X51399500Y-87270946D01*
X51397751Y-87281248D01*
X51386831Y-87303637D01*
X51379815Y-87327532D01*
X51376303Y-87332707D01*
X35111431Y-110036784D01*
X22113815Y-128180110D01*
X22065384Y-128247714D01*
X22010340Y-128290748D01*
X21964581Y-128299500D01*
X19369434Y-128299500D01*
X19302395Y-128279815D01*
X19258949Y-128231795D01*
X19232613Y-128180109D01*
X19128483Y-128036786D01*
X19003214Y-127911517D01*
X18859890Y-127807386D01*
X18702042Y-127726957D01*
X18702039Y-127726956D01*
X18533556Y-127672214D01*
X18446067Y-127658357D01*
X18358579Y-127644500D01*
X18181421Y-127644500D01*
X18123095Y-127653738D01*
X18006443Y-127672214D01*
X17837960Y-127726956D01*
X17837957Y-127726957D01*
X17680109Y-127807386D01*
X17598338Y-127866796D01*
X17536786Y-127911517D01*
X17536784Y-127911519D01*
X17536783Y-127911519D01*
X17411519Y-128036783D01*
X17411519Y-128036784D01*
X17411517Y-128036786D01*
X17366796Y-128098338D01*
X17307386Y-128180109D01*
X17226957Y-128337957D01*
X17226956Y-128337960D01*
X17172214Y-128506443D01*
X17144500Y-128681421D01*
X17144500Y-128858578D01*
X17172214Y-129033556D01*
X17226956Y-129202039D01*
X17226957Y-129202042D01*
X17281051Y-129308205D01*
X17307386Y-129359890D01*
X17411517Y-129503214D01*
X17536786Y-129628483D01*
X17680110Y-129732614D01*
X17757529Y-129772061D01*
X17837957Y-129813042D01*
X17837960Y-129813043D01*
X17922201Y-129840414D01*
X18006445Y-129867786D01*
X18181421Y-129895500D01*
X18181422Y-129895500D01*
X18358578Y-129895500D01*
X18358579Y-129895500D01*
X18533555Y-129867786D01*
X18702042Y-129813042D01*
X18859890Y-129732614D01*
X19003214Y-129628483D01*
X19128483Y-129503214D01*
X19232614Y-129359890D01*
X19258949Y-129308204D01*
X19306924Y-129257409D01*
X19369434Y-129240500D01*
X22246917Y-129240500D01*
X22285591Y-129244304D01*
X22308612Y-129240500D01*
X22331943Y-129240500D01*
X22363609Y-129232014D01*
X22375458Y-129229453D01*
X22407819Y-129224107D01*
X22407823Y-129224105D01*
X22407824Y-129224105D01*
X22419798Y-129218677D01*
X22419798Y-129218676D01*
X22429070Y-129214474D01*
X22451606Y-129208436D01*
X22485262Y-129189004D01*
X22520654Y-129172963D01*
X22530822Y-129164615D01*
X22547495Y-129153073D01*
X22558894Y-129146494D01*
X22586375Y-129119012D01*
X22616408Y-129094359D01*
X22629991Y-129075396D01*
X22637189Y-129068199D01*
X22637189Y-129068198D01*
X22637191Y-129068197D01*
X22646493Y-129058895D01*
X22646493Y-129058894D01*
X22646494Y-129058894D01*
X22662881Y-129030509D01*
X22669457Y-129020307D01*
X26129143Y-124190943D01*
X71399500Y-124190943D01*
X71399500Y-124349057D01*
X71402052Y-124358579D01*
X71440423Y-124501783D01*
X71440426Y-124501790D01*
X71519475Y-124638709D01*
X71519479Y-124638714D01*
X71519480Y-124638716D01*
X71631284Y-124750520D01*
X71631286Y-124750521D01*
X71631290Y-124750524D01*
X71648024Y-124760185D01*
X71768216Y-124829577D01*
X71920943Y-124870500D01*
X71920945Y-124870500D01*
X72079055Y-124870500D01*
X72079057Y-124870500D01*
X72231784Y-124829577D01*
X72279454Y-124802054D01*
X72357298Y-124757113D01*
X72419297Y-124740500D01*
X74900566Y-124740500D01*
X74967605Y-124760185D01*
X75011050Y-124808204D01*
X75037386Y-124859890D01*
X75141517Y-125003214D01*
X75266786Y-125128483D01*
X75410110Y-125232614D01*
X75487529Y-125272061D01*
X75567957Y-125313042D01*
X75567960Y-125313043D01*
X75652201Y-125340414D01*
X75736445Y-125367786D01*
X75911421Y-125395500D01*
X75911422Y-125395500D01*
X76088578Y-125395500D01*
X76088579Y-125395500D01*
X76263555Y-125367786D01*
X76432042Y-125313042D01*
X76589890Y-125232614D01*
X76733214Y-125128483D01*
X76858483Y-125003214D01*
X76962614Y-124859890D01*
X77043042Y-124702042D01*
X77097786Y-124533555D01*
X77125500Y-124358579D01*
X77125500Y-124181421D01*
X77097786Y-124006445D01*
X77043042Y-123837958D01*
X77043042Y-123837957D01*
X76962613Y-123680109D01*
X76954905Y-123669500D01*
X76858483Y-123536786D01*
X76733214Y-123411517D01*
X76589890Y-123307386D01*
X76432042Y-123226957D01*
X76432039Y-123226956D01*
X76263556Y-123172214D01*
X76176067Y-123158357D01*
X76088579Y-123144500D01*
X75911421Y-123144500D01*
X75853095Y-123153738D01*
X75736443Y-123172214D01*
X75567960Y-123226956D01*
X75567957Y-123226957D01*
X75410109Y-123307386D01*
X75328338Y-123366796D01*
X75266786Y-123411517D01*
X75266784Y-123411519D01*
X75266783Y-123411519D01*
X75141519Y-123536783D01*
X75141519Y-123536784D01*
X75141517Y-123536786D01*
X75096796Y-123598338D01*
X75037386Y-123680109D01*
X75011051Y-123731795D01*
X74963076Y-123782591D01*
X74900566Y-123799500D01*
X72419297Y-123799500D01*
X72357298Y-123782887D01*
X72231790Y-123710426D01*
X72231786Y-123710424D01*
X72231784Y-123710423D01*
X72079057Y-123669500D01*
X71920943Y-123669500D01*
X71768216Y-123710423D01*
X71768209Y-123710426D01*
X71631290Y-123789475D01*
X71631282Y-123789481D01*
X71519481Y-123901282D01*
X71519475Y-123901290D01*
X71440426Y-124038209D01*
X71440423Y-124038216D01*
X71399500Y-124190943D01*
X26129143Y-124190943D01*
X32576613Y-115190943D01*
X71399500Y-115190943D01*
X71399500Y-115349057D01*
X71402052Y-115358579D01*
X71440423Y-115501783D01*
X71440426Y-115501790D01*
X71519475Y-115638709D01*
X71519479Y-115638714D01*
X71519480Y-115638716D01*
X71631284Y-115750520D01*
X71631286Y-115750521D01*
X71631290Y-115750524D01*
X71648024Y-115760185D01*
X71768216Y-115829577D01*
X71920943Y-115870500D01*
X71920945Y-115870500D01*
X72079055Y-115870500D01*
X72079057Y-115870500D01*
X72231784Y-115829577D01*
X72279454Y-115802054D01*
X72357298Y-115757113D01*
X72419297Y-115740500D01*
X74900566Y-115740500D01*
X74967605Y-115760185D01*
X75011050Y-115808204D01*
X75037386Y-115859890D01*
X75141517Y-116003214D01*
X75266786Y-116128483D01*
X75410110Y-116232614D01*
X75487529Y-116272061D01*
X75567957Y-116313042D01*
X75567960Y-116313043D01*
X75652201Y-116340414D01*
X75736445Y-116367786D01*
X75911421Y-116395500D01*
X75911422Y-116395500D01*
X76088578Y-116395500D01*
X76088579Y-116395500D01*
X76263555Y-116367786D01*
X76432042Y-116313042D01*
X76589890Y-116232614D01*
X76733214Y-116128483D01*
X76858483Y-116003214D01*
X76962614Y-115859890D01*
X77043042Y-115702042D01*
X77097786Y-115533555D01*
X77125500Y-115358579D01*
X77125500Y-115181421D01*
X77097786Y-115006445D01*
X77043042Y-114837958D01*
X77043042Y-114837957D01*
X76962613Y-114680109D01*
X76954905Y-114669500D01*
X76858483Y-114536786D01*
X76733214Y-114411517D01*
X76589890Y-114307386D01*
X76432042Y-114226957D01*
X76432039Y-114226956D01*
X76263556Y-114172214D01*
X76176067Y-114158357D01*
X76088579Y-114144500D01*
X75911421Y-114144500D01*
X75853095Y-114153738D01*
X75736443Y-114172214D01*
X75567960Y-114226956D01*
X75567957Y-114226957D01*
X75410109Y-114307386D01*
X75328338Y-114366796D01*
X75266786Y-114411517D01*
X75266784Y-114411519D01*
X75266783Y-114411519D01*
X75141519Y-114536783D01*
X75141519Y-114536784D01*
X75141517Y-114536786D01*
X75096796Y-114598338D01*
X75037386Y-114680109D01*
X75011051Y-114731795D01*
X74963076Y-114782591D01*
X74900566Y-114799500D01*
X72419297Y-114799500D01*
X72357298Y-114782887D01*
X72231790Y-114710426D01*
X72231786Y-114710424D01*
X72231784Y-114710423D01*
X72079057Y-114669500D01*
X71920943Y-114669500D01*
X71768216Y-114710423D01*
X71768209Y-114710426D01*
X71631290Y-114789475D01*
X71631282Y-114789481D01*
X71519481Y-114901282D01*
X71519475Y-114901290D01*
X71440426Y-115038209D01*
X71440423Y-115038216D01*
X71399500Y-115190943D01*
X32576613Y-115190943D01*
X39024083Y-106190943D01*
X71399500Y-106190943D01*
X71399500Y-106349057D01*
X71402052Y-106358579D01*
X71440423Y-106501783D01*
X71440426Y-106501790D01*
X71519475Y-106638709D01*
X71519479Y-106638714D01*
X71519480Y-106638716D01*
X71631284Y-106750520D01*
X71631286Y-106750521D01*
X71631290Y-106750524D01*
X71648024Y-106760185D01*
X71768216Y-106829577D01*
X71920943Y-106870500D01*
X71920945Y-106870500D01*
X72079055Y-106870500D01*
X72079057Y-106870500D01*
X72231784Y-106829577D01*
X72279454Y-106802054D01*
X72357298Y-106757113D01*
X72419297Y-106740500D01*
X74900566Y-106740500D01*
X74967605Y-106760185D01*
X75011050Y-106808204D01*
X75037386Y-106859890D01*
X75141517Y-107003214D01*
X75266786Y-107128483D01*
X75410110Y-107232614D01*
X75487529Y-107272061D01*
X75567957Y-107313042D01*
X75567960Y-107313043D01*
X75652201Y-107340414D01*
X75736445Y-107367786D01*
X75911421Y-107395500D01*
X75911422Y-107395500D01*
X76088578Y-107395500D01*
X76088579Y-107395500D01*
X76263555Y-107367786D01*
X76432042Y-107313042D01*
X76589890Y-107232614D01*
X76733214Y-107128483D01*
X76858483Y-107003214D01*
X76962614Y-106859890D01*
X77043042Y-106702042D01*
X77097786Y-106533555D01*
X77125500Y-106358579D01*
X77125500Y-106181421D01*
X77097786Y-106006445D01*
X77043042Y-105837958D01*
X77043042Y-105837957D01*
X76962613Y-105680109D01*
X76954905Y-105669500D01*
X76858483Y-105536786D01*
X76733214Y-105411517D01*
X76589890Y-105307386D01*
X76432042Y-105226957D01*
X76432039Y-105226956D01*
X76263556Y-105172214D01*
X76176067Y-105158357D01*
X76088579Y-105144500D01*
X75911421Y-105144500D01*
X75853095Y-105153738D01*
X75736443Y-105172214D01*
X75567960Y-105226956D01*
X75567957Y-105226957D01*
X75410109Y-105307386D01*
X75328338Y-105366796D01*
X75266786Y-105411517D01*
X75266784Y-105411519D01*
X75266783Y-105411519D01*
X75141519Y-105536783D01*
X75141519Y-105536784D01*
X75141517Y-105536786D01*
X75096796Y-105598338D01*
X75037386Y-105680109D01*
X75011051Y-105731795D01*
X74963076Y-105782591D01*
X74900566Y-105799500D01*
X72419297Y-105799500D01*
X72357298Y-105782887D01*
X72231790Y-105710426D01*
X72231786Y-105710424D01*
X72231784Y-105710423D01*
X72079057Y-105669500D01*
X71920943Y-105669500D01*
X71768216Y-105710423D01*
X71768209Y-105710426D01*
X71631290Y-105789475D01*
X71631282Y-105789481D01*
X71519481Y-105901282D01*
X71519475Y-105901290D01*
X71440426Y-106038209D01*
X71440423Y-106038216D01*
X71399500Y-106190943D01*
X39024083Y-106190943D01*
X43989244Y-99260092D01*
X49044500Y-99260092D01*
X49044500Y-99409907D01*
X49073723Y-99556822D01*
X49073725Y-99556830D01*
X49131051Y-99695229D01*
X49131056Y-99695238D01*
X49214280Y-99819790D01*
X49214283Y-99819794D01*
X49320205Y-99925716D01*
X49320209Y-99925719D01*
X49444761Y-100008943D01*
X49444767Y-100008946D01*
X49444768Y-100008947D01*
X49583170Y-100066275D01*
X49730092Y-100095499D01*
X49730096Y-100095500D01*
X49730097Y-100095500D01*
X49879904Y-100095500D01*
X49879905Y-100095499D01*
X50026830Y-100066275D01*
X50165232Y-100008947D01*
X50289791Y-99925719D01*
X50395719Y-99819791D01*
X50478947Y-99695232D01*
X50536275Y-99556830D01*
X50565500Y-99409903D01*
X50565500Y-99260097D01*
X50536275Y-99113170D01*
X50478947Y-98974768D01*
X50478946Y-98974767D01*
X50478943Y-98974761D01*
X50395719Y-98850209D01*
X50395716Y-98850205D01*
X50289794Y-98744283D01*
X50289790Y-98744280D01*
X50165238Y-98661056D01*
X50165229Y-98661051D01*
X50026830Y-98603725D01*
X50026822Y-98603723D01*
X49879907Y-98574500D01*
X49879903Y-98574500D01*
X49730097Y-98574500D01*
X49730092Y-98574500D01*
X49583177Y-98603723D01*
X49583169Y-98603725D01*
X49444770Y-98661051D01*
X49444761Y-98661056D01*
X49320209Y-98744280D01*
X49320205Y-98744283D01*
X49214283Y-98850205D01*
X49214280Y-98850209D01*
X49131056Y-98974761D01*
X49131051Y-98974770D01*
X49073725Y-99113169D01*
X49073723Y-99113177D01*
X49044500Y-99260092D01*
X43989244Y-99260092D01*
X45471552Y-97190943D01*
X71399500Y-97190943D01*
X71399500Y-97349057D01*
X71402052Y-97358579D01*
X71440423Y-97501783D01*
X71440426Y-97501790D01*
X71519475Y-97638709D01*
X71519479Y-97638714D01*
X71519480Y-97638716D01*
X71631284Y-97750520D01*
X71631286Y-97750521D01*
X71631290Y-97750524D01*
X71648024Y-97760185D01*
X71768216Y-97829577D01*
X71920943Y-97870500D01*
X71920945Y-97870500D01*
X72079055Y-97870500D01*
X72079057Y-97870500D01*
X72231784Y-97829577D01*
X72279454Y-97802054D01*
X72357298Y-97757113D01*
X72419297Y-97740500D01*
X74900566Y-97740500D01*
X74967605Y-97760185D01*
X75011050Y-97808204D01*
X75037386Y-97859890D01*
X75141517Y-98003214D01*
X75266786Y-98128483D01*
X75410110Y-98232614D01*
X75487529Y-98272061D01*
X75567957Y-98313042D01*
X75567960Y-98313043D01*
X75652201Y-98340414D01*
X75736445Y-98367786D01*
X75911421Y-98395500D01*
X75911422Y-98395500D01*
X76088578Y-98395500D01*
X76088579Y-98395500D01*
X76263555Y-98367786D01*
X76432042Y-98313042D01*
X76589890Y-98232614D01*
X76733214Y-98128483D01*
X76858483Y-98003214D01*
X76962614Y-97859890D01*
X77043042Y-97702042D01*
X77097786Y-97533555D01*
X77125500Y-97358579D01*
X77125500Y-97181421D01*
X77097786Y-97006445D01*
X77043042Y-96837958D01*
X77043042Y-96837957D01*
X76962613Y-96680109D01*
X76954905Y-96669500D01*
X76858483Y-96536786D01*
X76733214Y-96411517D01*
X76589890Y-96307386D01*
X76432042Y-96226957D01*
X76432039Y-96226956D01*
X76263556Y-96172214D01*
X76176067Y-96158357D01*
X76088579Y-96144500D01*
X75911421Y-96144500D01*
X75853095Y-96153738D01*
X75736443Y-96172214D01*
X75567960Y-96226956D01*
X75567957Y-96226957D01*
X75410109Y-96307386D01*
X75328338Y-96366796D01*
X75266786Y-96411517D01*
X75266784Y-96411519D01*
X75266783Y-96411519D01*
X75141519Y-96536783D01*
X75141519Y-96536784D01*
X75141517Y-96536786D01*
X75096796Y-96598338D01*
X75037386Y-96680109D01*
X75011051Y-96731795D01*
X74963076Y-96782591D01*
X74900566Y-96799500D01*
X72419297Y-96799500D01*
X72357298Y-96782887D01*
X72231790Y-96710426D01*
X72231786Y-96710424D01*
X72231784Y-96710423D01*
X72079057Y-96669500D01*
X71920943Y-96669500D01*
X71768216Y-96710423D01*
X71768209Y-96710426D01*
X71631290Y-96789475D01*
X71631282Y-96789481D01*
X71519481Y-96901282D01*
X71519475Y-96901290D01*
X71440426Y-97038209D01*
X71440423Y-97038216D01*
X71399500Y-97190943D01*
X45471552Y-97190943D01*
X51919022Y-88190943D01*
X71399500Y-88190943D01*
X71399500Y-88349057D01*
X71402052Y-88358579D01*
X71440423Y-88501783D01*
X71440426Y-88501790D01*
X71519475Y-88638709D01*
X71519479Y-88638714D01*
X71519480Y-88638716D01*
X71631284Y-88750520D01*
X71631286Y-88750521D01*
X71631290Y-88750524D01*
X71648024Y-88760185D01*
X71768216Y-88829577D01*
X71920943Y-88870500D01*
X71920945Y-88870500D01*
X72079055Y-88870500D01*
X72079057Y-88870500D01*
X72231784Y-88829577D01*
X72279454Y-88802054D01*
X72357298Y-88757113D01*
X72419297Y-88740500D01*
X74900566Y-88740500D01*
X74967605Y-88760185D01*
X75011050Y-88808204D01*
X75037386Y-88859890D01*
X75141517Y-89003214D01*
X75266786Y-89128483D01*
X75410110Y-89232614D01*
X75487529Y-89272061D01*
X75567957Y-89313042D01*
X75567960Y-89313043D01*
X75652201Y-89340414D01*
X75736445Y-89367786D01*
X75911421Y-89395500D01*
X75911422Y-89395500D01*
X76088578Y-89395500D01*
X76088579Y-89395500D01*
X76263555Y-89367786D01*
X76432042Y-89313042D01*
X76589890Y-89232614D01*
X76733214Y-89128483D01*
X76858483Y-89003214D01*
X76962614Y-88859890D01*
X77043042Y-88702042D01*
X77097786Y-88533555D01*
X77125500Y-88358579D01*
X77125500Y-88181421D01*
X77097786Y-88006445D01*
X77063617Y-87901282D01*
X77043043Y-87837960D01*
X77043042Y-87837957D01*
X76962613Y-87680109D01*
X76932534Y-87638709D01*
X76858483Y-87536786D01*
X76733214Y-87411517D01*
X76589890Y-87307386D01*
X76538592Y-87281248D01*
X76432042Y-87226957D01*
X76432039Y-87226956D01*
X76263556Y-87172214D01*
X76176067Y-87158357D01*
X76088579Y-87144500D01*
X75911421Y-87144500D01*
X75853095Y-87153738D01*
X75736443Y-87172214D01*
X75567960Y-87226956D01*
X75567957Y-87226957D01*
X75410109Y-87307386D01*
X75352756Y-87349056D01*
X75266786Y-87411517D01*
X75266784Y-87411519D01*
X75266783Y-87411519D01*
X75141519Y-87536783D01*
X75141519Y-87536784D01*
X75141517Y-87536786D01*
X75096796Y-87598338D01*
X75037386Y-87680109D01*
X75011051Y-87731795D01*
X74963076Y-87782591D01*
X74900566Y-87799500D01*
X72419297Y-87799500D01*
X72357298Y-87782887D01*
X72231790Y-87710426D01*
X72231786Y-87710424D01*
X72231784Y-87710423D01*
X72079057Y-87669500D01*
X71920943Y-87669500D01*
X71768216Y-87710423D01*
X71768209Y-87710426D01*
X71631290Y-87789475D01*
X71631282Y-87789481D01*
X71519481Y-87901282D01*
X71519475Y-87901290D01*
X71440426Y-88038209D01*
X71440423Y-88038216D01*
X71399500Y-88190943D01*
X51919022Y-88190943D01*
X52139258Y-87883516D01*
X52194299Y-87840485D01*
X52207960Y-87835960D01*
X52231784Y-87829577D01*
X52283880Y-87799500D01*
X52368709Y-87750524D01*
X52368708Y-87750524D01*
X52368716Y-87750520D01*
X52480520Y-87638716D01*
X52559577Y-87501784D01*
X52600500Y-87349057D01*
X52600500Y-87190943D01*
X52559577Y-87038216D01*
X52550215Y-87022000D01*
X52480524Y-86901290D01*
X52480518Y-86901282D01*
X52368717Y-86789481D01*
X52368709Y-86789475D01*
X52231790Y-86710426D01*
X52231786Y-86710424D01*
X52231784Y-86710423D01*
X52079057Y-86669500D01*
X51920943Y-86669500D01*
X51907328Y-86673148D01*
X51898961Y-86672948D01*
X51891307Y-86676326D01*
X51864556Y-86672128D01*
X51837478Y-86671483D01*
X51830547Y-86666791D01*
X51822282Y-86665495D01*
X51802046Y-86647500D01*
X51779617Y-86632319D01*
X51776323Y-86624626D01*
X51770070Y-86619066D01*
X51762774Y-86592985D01*
X51752114Y-86568089D01*
X51753501Y-86559836D01*
X51751248Y-86551779D01*
X51759210Y-86525894D01*
X51763703Y-86499187D01*
X51769864Y-86491263D01*
X51771792Y-86484998D01*
X51795242Y-86458628D01*
X51983425Y-86299751D01*
X52047348Y-86271546D01*
X52063417Y-86270500D01*
X52079055Y-86270500D01*
X52079057Y-86270500D01*
X52231784Y-86229577D01*
X52368716Y-86150520D01*
X52480520Y-86038716D01*
X52559577Y-85901784D01*
X52600500Y-85749057D01*
X52600500Y-85590943D01*
X52559577Y-85438216D01*
X52559573Y-85438209D01*
X52480524Y-85301290D01*
X52480518Y-85301282D01*
X52368717Y-85189481D01*
X52368709Y-85189475D01*
X52231790Y-85110426D01*
X52231786Y-85110424D01*
X52231784Y-85110423D01*
X52079057Y-85069500D01*
X51920943Y-85069500D01*
X51768216Y-85110423D01*
X51768209Y-85110426D01*
X51631290Y-85189475D01*
X51631282Y-85189481D01*
X51519481Y-85301282D01*
X51519475Y-85301290D01*
X51440426Y-85438209D01*
X51440422Y-85438219D01*
X51419855Y-85514969D01*
X51383489Y-85574628D01*
X51380074Y-85577620D01*
X27439900Y-105789475D01*
X22776103Y-109726957D01*
X22132595Y-110270248D01*
X22068671Y-110298454D01*
X22052602Y-110299500D01*
X19369434Y-110299500D01*
X19302395Y-110279815D01*
X19258949Y-110231795D01*
X19232613Y-110180109D01*
X19128483Y-110036786D01*
X19003214Y-109911517D01*
X18859890Y-109807386D01*
X18702042Y-109726957D01*
X18702039Y-109726956D01*
X18533556Y-109672214D01*
X18446067Y-109658357D01*
X18358579Y-109644500D01*
X18181421Y-109644500D01*
X18123095Y-109653738D01*
X18006443Y-109672214D01*
X17837960Y-109726956D01*
X17837957Y-109726957D01*
X17680109Y-109807386D01*
X17598338Y-109866796D01*
X17536786Y-109911517D01*
X17536784Y-109911519D01*
X17536783Y-109911519D01*
X17411519Y-110036783D01*
X17411519Y-110036784D01*
X17411517Y-110036786D01*
X17366796Y-110098338D01*
X17307386Y-110180109D01*
X17226957Y-110337957D01*
X17226956Y-110337960D01*
X17172214Y-110506443D01*
X17144500Y-110681421D01*
X9500500Y-110681421D01*
X9500500Y-101681421D01*
X17144500Y-101681421D01*
X17144500Y-101858578D01*
X17172214Y-102033556D01*
X17226956Y-102202039D01*
X17226957Y-102202042D01*
X17307386Y-102359890D01*
X17411517Y-102503214D01*
X17536786Y-102628483D01*
X17680110Y-102732614D01*
X17757529Y-102772061D01*
X17837957Y-102813042D01*
X17837960Y-102813043D01*
X17922201Y-102840414D01*
X18006445Y-102867786D01*
X18181421Y-102895500D01*
X18181422Y-102895500D01*
X18358578Y-102895500D01*
X18358579Y-102895500D01*
X18533555Y-102867786D01*
X18702042Y-102813042D01*
X18859890Y-102732614D01*
X19003214Y-102628483D01*
X19128483Y-102503214D01*
X19232614Y-102359890D01*
X19258949Y-102308204D01*
X19306924Y-102257409D01*
X19369434Y-102240500D01*
X21850703Y-102240500D01*
X21912702Y-102257113D01*
X22001198Y-102308205D01*
X22038216Y-102329577D01*
X22190943Y-102370500D01*
X22190945Y-102370500D01*
X22349055Y-102370500D01*
X22349057Y-102370500D01*
X22501784Y-102329577D01*
X22638716Y-102250520D01*
X22750520Y-102138716D01*
X22829577Y-102001784D01*
X22870500Y-101849057D01*
X22870500Y-101690943D01*
X22829577Y-101538216D01*
X22811233Y-101506443D01*
X22750524Y-101401290D01*
X22750518Y-101401282D01*
X22638717Y-101289481D01*
X22638709Y-101289475D01*
X22501790Y-101210426D01*
X22501786Y-101210424D01*
X22501784Y-101210423D01*
X22349057Y-101169500D01*
X22190943Y-101169500D01*
X22038216Y-101210423D01*
X22038209Y-101210426D01*
X21912702Y-101282887D01*
X21850703Y-101299500D01*
X19369434Y-101299500D01*
X19302395Y-101279815D01*
X19258949Y-101231795D01*
X19232613Y-101180109D01*
X19224905Y-101169500D01*
X19128483Y-101036786D01*
X19003214Y-100911517D01*
X18859890Y-100807386D01*
X18702042Y-100726957D01*
X18702039Y-100726956D01*
X18533556Y-100672214D01*
X18446067Y-100658357D01*
X18358579Y-100644500D01*
X18181421Y-100644500D01*
X18123095Y-100653738D01*
X18006443Y-100672214D01*
X17837960Y-100726956D01*
X17837957Y-100726957D01*
X17680109Y-100807386D01*
X17598338Y-100866796D01*
X17536786Y-100911517D01*
X17536784Y-100911519D01*
X17536783Y-100911519D01*
X17411519Y-101036783D01*
X17411519Y-101036784D01*
X17411517Y-101036786D01*
X17366796Y-101098338D01*
X17307386Y-101180109D01*
X17226957Y-101337957D01*
X17226956Y-101337960D01*
X17172214Y-101506443D01*
X17144500Y-101681421D01*
X9500500Y-101681421D01*
X9500500Y-92681421D01*
X17144500Y-92681421D01*
X17144500Y-92858578D01*
X17172214Y-93033556D01*
X17226956Y-93202039D01*
X17226957Y-93202042D01*
X17307386Y-93359890D01*
X17411517Y-93503214D01*
X17536786Y-93628483D01*
X17680110Y-93732614D01*
X17757529Y-93772061D01*
X17837957Y-93813042D01*
X17837960Y-93813043D01*
X17922201Y-93840414D01*
X18006445Y-93867786D01*
X18181421Y-93895500D01*
X18181422Y-93895500D01*
X18358578Y-93895500D01*
X18358579Y-93895500D01*
X18533555Y-93867786D01*
X18702042Y-93813042D01*
X18859890Y-93732614D01*
X19003214Y-93628483D01*
X19128483Y-93503214D01*
X19232614Y-93359890D01*
X19258949Y-93308204D01*
X19306924Y-93257409D01*
X19369434Y-93240500D01*
X21850703Y-93240500D01*
X21912702Y-93257113D01*
X22001198Y-93308205D01*
X22038216Y-93329577D01*
X22190943Y-93370500D01*
X22190945Y-93370500D01*
X22349055Y-93370500D01*
X22349057Y-93370500D01*
X22501784Y-93329577D01*
X22638716Y-93250520D01*
X22750520Y-93138716D01*
X22829577Y-93001784D01*
X22870500Y-92849057D01*
X22870500Y-92690943D01*
X22829577Y-92538216D01*
X22811233Y-92506443D01*
X22750524Y-92401290D01*
X22750518Y-92401282D01*
X22638717Y-92289481D01*
X22638709Y-92289475D01*
X22501790Y-92210426D01*
X22501786Y-92210424D01*
X22501784Y-92210423D01*
X22349057Y-92169500D01*
X22190943Y-92169500D01*
X22038216Y-92210423D01*
X22038209Y-92210426D01*
X21912702Y-92282887D01*
X21850703Y-92299500D01*
X19369434Y-92299500D01*
X19302395Y-92279815D01*
X19258949Y-92231795D01*
X19232613Y-92180109D01*
X19224905Y-92169500D01*
X19128483Y-92036786D01*
X19003214Y-91911517D01*
X18859890Y-91807386D01*
X18702042Y-91726957D01*
X18702039Y-91726956D01*
X18533556Y-91672214D01*
X18446067Y-91658357D01*
X18358579Y-91644500D01*
X18181421Y-91644500D01*
X18123095Y-91653738D01*
X18006443Y-91672214D01*
X17837960Y-91726956D01*
X17837957Y-91726957D01*
X17680109Y-91807386D01*
X17598338Y-91866796D01*
X17536786Y-91911517D01*
X17536784Y-91911519D01*
X17536783Y-91911519D01*
X17411519Y-92036783D01*
X17411519Y-92036784D01*
X17411517Y-92036786D01*
X17366796Y-92098338D01*
X17307386Y-92180109D01*
X17226957Y-92337957D01*
X17226956Y-92337960D01*
X17172214Y-92506443D01*
X17144500Y-92681421D01*
X9500500Y-92681421D01*
X9500500Y-83681421D01*
X17144500Y-83681421D01*
X17144500Y-83858578D01*
X17172214Y-84033556D01*
X17226956Y-84202039D01*
X17226957Y-84202042D01*
X17307386Y-84359890D01*
X17411517Y-84503214D01*
X17536786Y-84628483D01*
X17680110Y-84732614D01*
X17757529Y-84772061D01*
X17837957Y-84813042D01*
X17837960Y-84813043D01*
X17922201Y-84840414D01*
X18006445Y-84867786D01*
X18181421Y-84895500D01*
X18181422Y-84895500D01*
X18358578Y-84895500D01*
X18358579Y-84895500D01*
X18533555Y-84867786D01*
X18702042Y-84813042D01*
X18859890Y-84732614D01*
X19003214Y-84628483D01*
X19128483Y-84503214D01*
X19232614Y-84359890D01*
X19258949Y-84308204D01*
X19306924Y-84257409D01*
X19369434Y-84240500D01*
X21850703Y-84240500D01*
X21912702Y-84257113D01*
X22001198Y-84308205D01*
X22038216Y-84329577D01*
X22190943Y-84370500D01*
X22190945Y-84370500D01*
X22349055Y-84370500D01*
X22349057Y-84370500D01*
X22501784Y-84329577D01*
X22638716Y-84250520D01*
X22750520Y-84138716D01*
X22829577Y-84001784D01*
X22870500Y-83849057D01*
X22870500Y-83690943D01*
X22829577Y-83538216D01*
X22811233Y-83506443D01*
X22750524Y-83401290D01*
X22750518Y-83401282D01*
X22638717Y-83289481D01*
X22638709Y-83289475D01*
X22501790Y-83210426D01*
X22501786Y-83210424D01*
X22501784Y-83210423D01*
X22349057Y-83169500D01*
X22190943Y-83169500D01*
X22038216Y-83210423D01*
X22038209Y-83210426D01*
X21912702Y-83282887D01*
X21850703Y-83299500D01*
X19369434Y-83299500D01*
X19302395Y-83279815D01*
X19258949Y-83231795D01*
X19232613Y-83180109D01*
X19224905Y-83169500D01*
X19128483Y-83036786D01*
X19003214Y-82911517D01*
X18859890Y-82807386D01*
X18702042Y-82726957D01*
X18702039Y-82726956D01*
X18533556Y-82672214D01*
X18446067Y-82658357D01*
X18358579Y-82644500D01*
X18181421Y-82644500D01*
X18123095Y-82653738D01*
X18006443Y-82672214D01*
X17837960Y-82726956D01*
X17837957Y-82726957D01*
X17680109Y-82807386D01*
X17598338Y-82866796D01*
X17536786Y-82911517D01*
X17536784Y-82911519D01*
X17536783Y-82911519D01*
X17411519Y-83036783D01*
X17411519Y-83036784D01*
X17411517Y-83036786D01*
X17366796Y-83098338D01*
X17307386Y-83180109D01*
X17226957Y-83337957D01*
X17226956Y-83337960D01*
X17172214Y-83506443D01*
X17144500Y-83681421D01*
X9500500Y-83681421D01*
X9500500Y-79190943D01*
X71399500Y-79190943D01*
X71399500Y-79349057D01*
X71402052Y-79358579D01*
X71440423Y-79501783D01*
X71440426Y-79501790D01*
X71519475Y-79638709D01*
X71519479Y-79638714D01*
X71519480Y-79638716D01*
X71631284Y-79750520D01*
X71631286Y-79750521D01*
X71631290Y-79750524D01*
X71648024Y-79760185D01*
X71768216Y-79829577D01*
X71920943Y-79870500D01*
X71920945Y-79870500D01*
X72079055Y-79870500D01*
X72079057Y-79870500D01*
X72231784Y-79829577D01*
X72279454Y-79802054D01*
X72357298Y-79757113D01*
X72419297Y-79740500D01*
X74900566Y-79740500D01*
X74967605Y-79760185D01*
X75011050Y-79808204D01*
X75037386Y-79859890D01*
X75141517Y-80003214D01*
X75266786Y-80128483D01*
X75410110Y-80232614D01*
X75487529Y-80272061D01*
X75567957Y-80313042D01*
X75567960Y-80313043D01*
X75652201Y-80340414D01*
X75736445Y-80367786D01*
X75911421Y-80395500D01*
X75911422Y-80395500D01*
X76088578Y-80395500D01*
X76088579Y-80395500D01*
X76263555Y-80367786D01*
X76432042Y-80313042D01*
X76589890Y-80232614D01*
X76733214Y-80128483D01*
X76858483Y-80003214D01*
X76962614Y-79859890D01*
X77043042Y-79702042D01*
X77097786Y-79533555D01*
X77125500Y-79358579D01*
X77125500Y-79181421D01*
X77097786Y-79006445D01*
X77043042Y-78837958D01*
X77043042Y-78837957D01*
X76962613Y-78680109D01*
X76954905Y-78669500D01*
X76858483Y-78536786D01*
X76733214Y-78411517D01*
X76589890Y-78307386D01*
X76432042Y-78226957D01*
X76432039Y-78226956D01*
X76263556Y-78172214D01*
X76176067Y-78158357D01*
X76088579Y-78144500D01*
X75911421Y-78144500D01*
X75853095Y-78153738D01*
X75736443Y-78172214D01*
X75567960Y-78226956D01*
X75567957Y-78226957D01*
X75410109Y-78307386D01*
X75328338Y-78366796D01*
X75266786Y-78411517D01*
X75266784Y-78411519D01*
X75266783Y-78411519D01*
X75141519Y-78536783D01*
X75141519Y-78536784D01*
X75141517Y-78536786D01*
X75096796Y-78598338D01*
X75037386Y-78680109D01*
X75011051Y-78731795D01*
X74963076Y-78782591D01*
X74900566Y-78799500D01*
X72419297Y-78799500D01*
X72357298Y-78782887D01*
X72231790Y-78710426D01*
X72231786Y-78710424D01*
X72231784Y-78710423D01*
X72079057Y-78669500D01*
X71920943Y-78669500D01*
X71768216Y-78710423D01*
X71768209Y-78710426D01*
X71631290Y-78789475D01*
X71631282Y-78789481D01*
X71519481Y-78901282D01*
X71519475Y-78901290D01*
X71440426Y-79038209D01*
X71440423Y-79038216D01*
X71399500Y-79190943D01*
X9500500Y-79190943D01*
X9500500Y-74681421D01*
X17144500Y-74681421D01*
X17144500Y-74858578D01*
X17172214Y-75033556D01*
X17226956Y-75202039D01*
X17226957Y-75202042D01*
X17307386Y-75359890D01*
X17411517Y-75503214D01*
X17536786Y-75628483D01*
X17680110Y-75732614D01*
X17757529Y-75772061D01*
X17837957Y-75813042D01*
X17837960Y-75813043D01*
X17922201Y-75840414D01*
X18006445Y-75867786D01*
X18181421Y-75895500D01*
X18181422Y-75895500D01*
X18358578Y-75895500D01*
X18358579Y-75895500D01*
X18533555Y-75867786D01*
X18702042Y-75813042D01*
X18859890Y-75732614D01*
X19003214Y-75628483D01*
X19128483Y-75503214D01*
X19232614Y-75359890D01*
X19258949Y-75308204D01*
X19306924Y-75257409D01*
X19369434Y-75240500D01*
X21850703Y-75240500D01*
X21912702Y-75257113D01*
X22001198Y-75308205D01*
X22038216Y-75329577D01*
X22190943Y-75370500D01*
X22190945Y-75370500D01*
X22349055Y-75370500D01*
X22349057Y-75370500D01*
X22501784Y-75329577D01*
X22638716Y-75250520D01*
X22750520Y-75138716D01*
X22829577Y-75001784D01*
X22870500Y-74849057D01*
X22870500Y-74690943D01*
X22829577Y-74538216D01*
X22811233Y-74506443D01*
X22750524Y-74401290D01*
X22750518Y-74401282D01*
X22638717Y-74289481D01*
X22638709Y-74289475D01*
X22501790Y-74210426D01*
X22501786Y-74210424D01*
X22501784Y-74210423D01*
X22349057Y-74169500D01*
X22190943Y-74169500D01*
X22038216Y-74210423D01*
X22038209Y-74210426D01*
X21912702Y-74282887D01*
X21850703Y-74299500D01*
X19369434Y-74299500D01*
X19302395Y-74279815D01*
X19258949Y-74231795D01*
X19232613Y-74180109D01*
X19224905Y-74169500D01*
X19128483Y-74036786D01*
X19003214Y-73911517D01*
X18859890Y-73807386D01*
X18702042Y-73726957D01*
X18702039Y-73726956D01*
X18533556Y-73672214D01*
X18446067Y-73658357D01*
X18358579Y-73644500D01*
X18181421Y-73644500D01*
X18123095Y-73653738D01*
X18006443Y-73672214D01*
X17837960Y-73726956D01*
X17837957Y-73726957D01*
X17680109Y-73807386D01*
X17598338Y-73866796D01*
X17536786Y-73911517D01*
X17536784Y-73911519D01*
X17536783Y-73911519D01*
X17411519Y-74036783D01*
X17411519Y-74036784D01*
X17411517Y-74036786D01*
X17366796Y-74098338D01*
X17307386Y-74180109D01*
X17226957Y-74337957D01*
X17226956Y-74337960D01*
X17172214Y-74506443D01*
X17144500Y-74681421D01*
X9500500Y-74681421D01*
X9500500Y-65681421D01*
X17144500Y-65681421D01*
X17144500Y-65858578D01*
X17172214Y-66033556D01*
X17226956Y-66202039D01*
X17226957Y-66202042D01*
X17307386Y-66359890D01*
X17411517Y-66503214D01*
X17536786Y-66628483D01*
X17680110Y-66732614D01*
X17757529Y-66772061D01*
X17837957Y-66813042D01*
X17837960Y-66813043D01*
X17922201Y-66840414D01*
X18006445Y-66867786D01*
X18181421Y-66895500D01*
X18181422Y-66895500D01*
X18358578Y-66895500D01*
X18358579Y-66895500D01*
X18533555Y-66867786D01*
X18702042Y-66813042D01*
X18859890Y-66732614D01*
X19003214Y-66628483D01*
X19128483Y-66503214D01*
X19232614Y-66359890D01*
X19258949Y-66308204D01*
X19306924Y-66257409D01*
X19369434Y-66240500D01*
X21850703Y-66240500D01*
X21912702Y-66257113D01*
X22001198Y-66308205D01*
X22038216Y-66329577D01*
X22190943Y-66370500D01*
X22190945Y-66370500D01*
X22349055Y-66370500D01*
X22349057Y-66370500D01*
X22501784Y-66329577D01*
X22638716Y-66250520D01*
X22750520Y-66138716D01*
X22829577Y-66001784D01*
X22870500Y-65849057D01*
X22870500Y-65690943D01*
X22829577Y-65538216D01*
X22811233Y-65506443D01*
X22750524Y-65401290D01*
X22750518Y-65401282D01*
X22638717Y-65289481D01*
X22638709Y-65289475D01*
X22501790Y-65210426D01*
X22501786Y-65210424D01*
X22501784Y-65210423D01*
X22349057Y-65169500D01*
X22190943Y-65169500D01*
X22038216Y-65210423D01*
X22038209Y-65210426D01*
X21912702Y-65282887D01*
X21850703Y-65299500D01*
X19369434Y-65299500D01*
X19302395Y-65279815D01*
X19258949Y-65231795D01*
X19232613Y-65180109D01*
X19224905Y-65169500D01*
X19128483Y-65036786D01*
X19003214Y-64911517D01*
X18859890Y-64807386D01*
X18702042Y-64726957D01*
X18702039Y-64726956D01*
X18533556Y-64672214D01*
X18446067Y-64658357D01*
X18358579Y-64644500D01*
X18181421Y-64644500D01*
X18123095Y-64653738D01*
X18006443Y-64672214D01*
X17837960Y-64726956D01*
X17837957Y-64726957D01*
X17680109Y-64807386D01*
X17598338Y-64866796D01*
X17536786Y-64911517D01*
X17536784Y-64911519D01*
X17536783Y-64911519D01*
X17411519Y-65036783D01*
X17411519Y-65036784D01*
X17411517Y-65036786D01*
X17366796Y-65098338D01*
X17307386Y-65180109D01*
X17226957Y-65337957D01*
X17226956Y-65337960D01*
X17172214Y-65506443D01*
X17144500Y-65681421D01*
X9500500Y-65681421D01*
X9500500Y-56681421D01*
X17144500Y-56681421D01*
X17144500Y-56858578D01*
X17172214Y-57033556D01*
X17226956Y-57202039D01*
X17226957Y-57202042D01*
X17307386Y-57359890D01*
X17411517Y-57503214D01*
X17536786Y-57628483D01*
X17680110Y-57732614D01*
X17757529Y-57772061D01*
X17837957Y-57813042D01*
X17837960Y-57813043D01*
X17922201Y-57840414D01*
X18006445Y-57867786D01*
X18181421Y-57895500D01*
X18181422Y-57895500D01*
X18358578Y-57895500D01*
X18358579Y-57895500D01*
X18533555Y-57867786D01*
X18702042Y-57813042D01*
X18859890Y-57732614D01*
X19003214Y-57628483D01*
X19128483Y-57503214D01*
X19232614Y-57359890D01*
X19258949Y-57308204D01*
X19306924Y-57257409D01*
X19369434Y-57240500D01*
X21850703Y-57240500D01*
X21912702Y-57257113D01*
X22001198Y-57308205D01*
X22038216Y-57329577D01*
X22190943Y-57370500D01*
X22190945Y-57370500D01*
X22349055Y-57370500D01*
X22349057Y-57370500D01*
X22501784Y-57329577D01*
X22638716Y-57250520D01*
X22750520Y-57138716D01*
X22829577Y-57001784D01*
X22870500Y-56849057D01*
X22870500Y-56690943D01*
X22829577Y-56538216D01*
X22811233Y-56506443D01*
X22750524Y-56401290D01*
X22750518Y-56401282D01*
X22638717Y-56289481D01*
X22638709Y-56289475D01*
X22501790Y-56210426D01*
X22501786Y-56210424D01*
X22501784Y-56210423D01*
X22349057Y-56169500D01*
X22190943Y-56169500D01*
X22038216Y-56210423D01*
X22038209Y-56210426D01*
X21912702Y-56282887D01*
X21850703Y-56299500D01*
X19369434Y-56299500D01*
X19302395Y-56279815D01*
X19258949Y-56231795D01*
X19232613Y-56180109D01*
X19224905Y-56169500D01*
X19128483Y-56036786D01*
X19003214Y-55911517D01*
X18859890Y-55807386D01*
X18702042Y-55726957D01*
X18702039Y-55726956D01*
X18533556Y-55672214D01*
X18446067Y-55658357D01*
X18358579Y-55644500D01*
X18181421Y-55644500D01*
X18123095Y-55653738D01*
X18006443Y-55672214D01*
X17837960Y-55726956D01*
X17837957Y-55726957D01*
X17680109Y-55807386D01*
X17598338Y-55866796D01*
X17536786Y-55911517D01*
X17536784Y-55911519D01*
X17536783Y-55911519D01*
X17411519Y-56036783D01*
X17411519Y-56036784D01*
X17411517Y-56036786D01*
X17366796Y-56098338D01*
X17307386Y-56180109D01*
X17226957Y-56337957D01*
X17226956Y-56337960D01*
X17172214Y-56506443D01*
X17144500Y-56681421D01*
X9500500Y-56681421D01*
X9500500Y-38681421D01*
X17144500Y-38681421D01*
X17144500Y-38858578D01*
X17172214Y-39033556D01*
X17226956Y-39202039D01*
X17226957Y-39202042D01*
X17307386Y-39359890D01*
X17411517Y-39503214D01*
X17536786Y-39628483D01*
X17680110Y-39732614D01*
X17757529Y-39772061D01*
X17837957Y-39813042D01*
X17837960Y-39813043D01*
X17922201Y-39840414D01*
X18006445Y-39867786D01*
X18181421Y-39895500D01*
X18181422Y-39895500D01*
X18358578Y-39895500D01*
X18358579Y-39895500D01*
X18533555Y-39867786D01*
X18702042Y-39813042D01*
X18859890Y-39732614D01*
X19003214Y-39628483D01*
X19128483Y-39503214D01*
X19232614Y-39359890D01*
X19258949Y-39308204D01*
X19306924Y-39257409D01*
X19369434Y-39240500D01*
X21850703Y-39240500D01*
X21912702Y-39257113D01*
X22001198Y-39308205D01*
X22038216Y-39329577D01*
X22190943Y-39370500D01*
X22190945Y-39370500D01*
X22349055Y-39370500D01*
X22349057Y-39370500D01*
X22501784Y-39329577D01*
X22638716Y-39250520D01*
X22750520Y-39138716D01*
X22829577Y-39001784D01*
X22870500Y-38849057D01*
X22870500Y-38690943D01*
X22829577Y-38538216D01*
X22811233Y-38506443D01*
X22750524Y-38401290D01*
X22750518Y-38401282D01*
X22638717Y-38289481D01*
X22638709Y-38289475D01*
X22501790Y-38210426D01*
X22501786Y-38210424D01*
X22501784Y-38210423D01*
X22349057Y-38169500D01*
X22190943Y-38169500D01*
X22038216Y-38210423D01*
X22038209Y-38210426D01*
X21912702Y-38282887D01*
X21850703Y-38299500D01*
X19369434Y-38299500D01*
X19302395Y-38279815D01*
X19258949Y-38231795D01*
X19232613Y-38180109D01*
X19224905Y-38169500D01*
X19128483Y-38036786D01*
X19003214Y-37911517D01*
X18859890Y-37807386D01*
X18702042Y-37726957D01*
X18702039Y-37726956D01*
X18533556Y-37672214D01*
X18446067Y-37658357D01*
X18358579Y-37644500D01*
X18181421Y-37644500D01*
X18123095Y-37653738D01*
X18006443Y-37672214D01*
X17837960Y-37726956D01*
X17837957Y-37726957D01*
X17680109Y-37807386D01*
X17598338Y-37866796D01*
X17536786Y-37911517D01*
X17536784Y-37911519D01*
X17536783Y-37911519D01*
X17411519Y-38036783D01*
X17411519Y-38036784D01*
X17411517Y-38036786D01*
X17366796Y-38098338D01*
X17307386Y-38180109D01*
X17226957Y-38337957D01*
X17226956Y-38337960D01*
X17172214Y-38506443D01*
X17144500Y-38681421D01*
X9500500Y-38681421D01*
X9500500Y-29681421D01*
X17144500Y-29681421D01*
X17144500Y-29858578D01*
X17172214Y-30033556D01*
X17226956Y-30202039D01*
X17226957Y-30202042D01*
X17281051Y-30308205D01*
X17307386Y-30359890D01*
X17411517Y-30503214D01*
X17536786Y-30628483D01*
X17680110Y-30732614D01*
X17757529Y-30772061D01*
X17837957Y-30813042D01*
X17837960Y-30813043D01*
X17922201Y-30840414D01*
X18006445Y-30867786D01*
X18181421Y-30895500D01*
X18181422Y-30895500D01*
X18358578Y-30895500D01*
X18358579Y-30895500D01*
X18533555Y-30867786D01*
X18702042Y-30813042D01*
X18859890Y-30732614D01*
X19003214Y-30628483D01*
X19128483Y-30503214D01*
X19232614Y-30359890D01*
X19258949Y-30308204D01*
X19306924Y-30257409D01*
X19369434Y-30240500D01*
X21964581Y-30240500D01*
X22031620Y-30260185D01*
X22065383Y-30292285D01*
X51364591Y-71190943D01*
X51376303Y-71207291D01*
X51397751Y-71258750D01*
X51399500Y-71269052D01*
X51399500Y-71349057D01*
X51436570Y-71487407D01*
X51437542Y-71493128D01*
X51434101Y-71522289D01*
X51433403Y-71551639D01*
X51430055Y-71556584D01*
X51429356Y-71562517D01*
X51410697Y-71585186D01*
X51394241Y-71609502D01*
X51388749Y-71611853D01*
X51384955Y-71616464D01*
X51357005Y-71625446D01*
X51330012Y-71637006D01*
X51324121Y-71636015D01*
X51318436Y-71637843D01*
X51290067Y-71630289D01*
X51261110Y-71625420D01*
X51253714Y-71620609D01*
X51250919Y-71619865D01*
X51248511Y-71617225D01*
X51235299Y-71608631D01*
X22592673Y-47426663D01*
X22584994Y-47419606D01*
X22558894Y-47393506D01*
X22558893Y-47393505D01*
X22558892Y-47393504D01*
X22551074Y-47388990D01*
X22551074Y-47388991D01*
X22541515Y-47383472D01*
X22526189Y-47370533D01*
X22488079Y-47352621D01*
X22451606Y-47331564D01*
X22451601Y-47331562D01*
X22442886Y-47329227D01*
X22422242Y-47321678D01*
X22414071Y-47317838D01*
X22414068Y-47317837D01*
X22377761Y-47311321D01*
X22367577Y-47309047D01*
X22331944Y-47299500D01*
X22331943Y-47299500D01*
X22322918Y-47299500D01*
X22301017Y-47297550D01*
X22298275Y-47297058D01*
X22292131Y-47295955D01*
X22255374Y-47299060D01*
X22244940Y-47299500D01*
X19369434Y-47299500D01*
X19302395Y-47279815D01*
X19258949Y-47231795D01*
X19232613Y-47180109D01*
X19128483Y-47036786D01*
X19003214Y-46911517D01*
X18859890Y-46807386D01*
X18702042Y-46726957D01*
X18702039Y-46726956D01*
X18533556Y-46672214D01*
X18446067Y-46658357D01*
X18358579Y-46644500D01*
X18181421Y-46644500D01*
X18123095Y-46653738D01*
X18006443Y-46672214D01*
X17837960Y-46726956D01*
X17837957Y-46726957D01*
X17680109Y-46807386D01*
X17598338Y-46866796D01*
X17536786Y-46911517D01*
X17536784Y-46911519D01*
X17536783Y-46911519D01*
X17411519Y-47036783D01*
X17411519Y-47036784D01*
X17411517Y-47036786D01*
X17366796Y-47098338D01*
X17307386Y-47180109D01*
X17226957Y-47337957D01*
X17226956Y-47337960D01*
X17172214Y-47506443D01*
X17144500Y-47681421D01*
X17144500Y-47858578D01*
X17172214Y-48033556D01*
X17226956Y-48202039D01*
X17226957Y-48202042D01*
X17256583Y-48260185D01*
X17307386Y-48359890D01*
X17411517Y-48503214D01*
X17536786Y-48628483D01*
X17680110Y-48732614D01*
X17757529Y-48772061D01*
X17837957Y-48813042D01*
X17837960Y-48813043D01*
X17922201Y-48840414D01*
X18006445Y-48867786D01*
X18181421Y-48895500D01*
X18181422Y-48895500D01*
X18358578Y-48895500D01*
X18358579Y-48895500D01*
X18533555Y-48867786D01*
X18702042Y-48813042D01*
X18859890Y-48732614D01*
X19003214Y-48628483D01*
X19128483Y-48503214D01*
X19232614Y-48359890D01*
X19258949Y-48308204D01*
X19306924Y-48257409D01*
X19369434Y-48240500D01*
X22052602Y-48240500D01*
X22119641Y-48260185D01*
X22132594Y-48269751D01*
X51380076Y-72962379D01*
X51418601Y-73020666D01*
X51419857Y-73025032D01*
X51440422Y-73101782D01*
X51440426Y-73101790D01*
X51519475Y-73238709D01*
X51519479Y-73238714D01*
X51519480Y-73238716D01*
X51631284Y-73350520D01*
X51631286Y-73350521D01*
X51631290Y-73350524D01*
X51768209Y-73429573D01*
X51768216Y-73429577D01*
X51920943Y-73470500D01*
X51920945Y-73470500D01*
X52079055Y-73470500D01*
X52079057Y-73470500D01*
X52231784Y-73429577D01*
X52368716Y-73350520D01*
X52480520Y-73238716D01*
X52559577Y-73101784D01*
X52600500Y-72949057D01*
X52600500Y-72790943D01*
X52559577Y-72638216D01*
X52559573Y-72638209D01*
X52480524Y-72501290D01*
X52480518Y-72501282D01*
X52368717Y-72389481D01*
X52368709Y-72389475D01*
X52231790Y-72310426D01*
X52231786Y-72310424D01*
X52231784Y-72310423D01*
X52079057Y-72269500D01*
X52079056Y-72269500D01*
X52063417Y-72269500D01*
X52038801Y-72262272D01*
X52013358Y-72258947D01*
X52000833Y-72251123D01*
X51996378Y-72249815D01*
X51983432Y-72240254D01*
X51795243Y-72081372D01*
X51756719Y-72023087D01*
X51755822Y-71953223D01*
X51792838Y-71893965D01*
X51856016Y-71864126D01*
X51907331Y-71866852D01*
X51920943Y-71870500D01*
X51920945Y-71870500D01*
X52079055Y-71870500D01*
X52079057Y-71870500D01*
X52231784Y-71829577D01*
X52368716Y-71750520D01*
X52480520Y-71638716D01*
X52559577Y-71501784D01*
X52600500Y-71349057D01*
X52600500Y-71190943D01*
X52559577Y-71038216D01*
X52539370Y-71003216D01*
X52480524Y-70901290D01*
X52480518Y-70901282D01*
X52368717Y-70789481D01*
X52368709Y-70789475D01*
X52231790Y-70710426D01*
X52231786Y-70710424D01*
X52231785Y-70710423D01*
X52231784Y-70710423D01*
X52207962Y-70704039D01*
X52148304Y-70667675D01*
X52139256Y-70656480D01*
X52126531Y-70638717D01*
X51805752Y-70190943D01*
X71399500Y-70190943D01*
X71399500Y-70349057D01*
X71402052Y-70358579D01*
X71440423Y-70501783D01*
X71440426Y-70501790D01*
X71519475Y-70638709D01*
X71519479Y-70638714D01*
X71519480Y-70638716D01*
X71631284Y-70750520D01*
X71631286Y-70750521D01*
X71631290Y-70750524D01*
X71698765Y-70789480D01*
X71768216Y-70829577D01*
X71920943Y-70870500D01*
X71920945Y-70870500D01*
X72079055Y-70870500D01*
X72079057Y-70870500D01*
X72231784Y-70829577D01*
X72301235Y-70789480D01*
X72357298Y-70757113D01*
X72419297Y-70740500D01*
X74900566Y-70740500D01*
X74967605Y-70760185D01*
X75011050Y-70808204D01*
X75037386Y-70859890D01*
X75141517Y-71003214D01*
X75266786Y-71128483D01*
X75410110Y-71232614D01*
X75461405Y-71258750D01*
X75567957Y-71313042D01*
X75567960Y-71313043D01*
X75652201Y-71340414D01*
X75736445Y-71367786D01*
X75911421Y-71395500D01*
X75911422Y-71395500D01*
X76088578Y-71395500D01*
X76088579Y-71395500D01*
X76263555Y-71367786D01*
X76432042Y-71313042D01*
X76589890Y-71232614D01*
X76733214Y-71128483D01*
X76858483Y-71003214D01*
X76962614Y-70859890D01*
X77043042Y-70702042D01*
X77097786Y-70533555D01*
X77125500Y-70358579D01*
X77125500Y-70181421D01*
X77097786Y-70006445D01*
X77043042Y-69837958D01*
X77043042Y-69837957D01*
X76962613Y-69680109D01*
X76954905Y-69669500D01*
X76858483Y-69536786D01*
X76733214Y-69411517D01*
X76589890Y-69307386D01*
X76432042Y-69226957D01*
X76432039Y-69226956D01*
X76263556Y-69172214D01*
X76176067Y-69158357D01*
X76088579Y-69144500D01*
X75911421Y-69144500D01*
X75853095Y-69153738D01*
X75736443Y-69172214D01*
X75567960Y-69226956D01*
X75567957Y-69226957D01*
X75410109Y-69307386D01*
X75328338Y-69366796D01*
X75266786Y-69411517D01*
X75266784Y-69411519D01*
X75266783Y-69411519D01*
X75141519Y-69536783D01*
X75141519Y-69536784D01*
X75141517Y-69536786D01*
X75096796Y-69598338D01*
X75037386Y-69680109D01*
X75011051Y-69731795D01*
X74963076Y-69782591D01*
X74900566Y-69799500D01*
X72419297Y-69799500D01*
X72357298Y-69782887D01*
X72231790Y-69710426D01*
X72231786Y-69710424D01*
X72231784Y-69710423D01*
X72079057Y-69669500D01*
X71920943Y-69669500D01*
X71768216Y-69710423D01*
X71768209Y-69710426D01*
X71631290Y-69789475D01*
X71631282Y-69789481D01*
X71519481Y-69901282D01*
X71519475Y-69901290D01*
X71440426Y-70038209D01*
X71440423Y-70038216D01*
X71399500Y-70190943D01*
X51805752Y-70190943D01*
X45358283Y-61190943D01*
X71399500Y-61190943D01*
X71399500Y-61349057D01*
X71402052Y-61358579D01*
X71440423Y-61501783D01*
X71440426Y-61501790D01*
X71519475Y-61638709D01*
X71519479Y-61638714D01*
X71519480Y-61638716D01*
X71631284Y-61750520D01*
X71631286Y-61750521D01*
X71631290Y-61750524D01*
X71648024Y-61760185D01*
X71768216Y-61829577D01*
X71920943Y-61870500D01*
X71920945Y-61870500D01*
X72079055Y-61870500D01*
X72079057Y-61870500D01*
X72231784Y-61829577D01*
X72279454Y-61802054D01*
X72357298Y-61757113D01*
X72419297Y-61740500D01*
X74900566Y-61740500D01*
X74967605Y-61760185D01*
X75011050Y-61808204D01*
X75037386Y-61859890D01*
X75141517Y-62003214D01*
X75266786Y-62128483D01*
X75410110Y-62232614D01*
X75487529Y-62272061D01*
X75567957Y-62313042D01*
X75567960Y-62313043D01*
X75652201Y-62340414D01*
X75736445Y-62367786D01*
X75911421Y-62395500D01*
X75911422Y-62395500D01*
X76088578Y-62395500D01*
X76088579Y-62395500D01*
X76263555Y-62367786D01*
X76432042Y-62313042D01*
X76589890Y-62232614D01*
X76733214Y-62128483D01*
X76858483Y-62003214D01*
X76962614Y-61859890D01*
X77043042Y-61702042D01*
X77097786Y-61533555D01*
X77125500Y-61358579D01*
X77125500Y-61181421D01*
X77097786Y-61006445D01*
X77043042Y-60837958D01*
X77043042Y-60837957D01*
X76962613Y-60680109D01*
X76954905Y-60669500D01*
X76858483Y-60536786D01*
X76733214Y-60411517D01*
X76589890Y-60307386D01*
X76432042Y-60226957D01*
X76432039Y-60226956D01*
X76263556Y-60172214D01*
X76176067Y-60158357D01*
X76088579Y-60144500D01*
X75911421Y-60144500D01*
X75853095Y-60153738D01*
X75736443Y-60172214D01*
X75567960Y-60226956D01*
X75567957Y-60226957D01*
X75410109Y-60307386D01*
X75328338Y-60366796D01*
X75266786Y-60411517D01*
X75266784Y-60411519D01*
X75266783Y-60411519D01*
X75141519Y-60536783D01*
X75141519Y-60536784D01*
X75141517Y-60536786D01*
X75096796Y-60598338D01*
X75037386Y-60680109D01*
X75011051Y-60731795D01*
X74963076Y-60782591D01*
X74900566Y-60799500D01*
X72419297Y-60799500D01*
X72357298Y-60782887D01*
X72231790Y-60710426D01*
X72231786Y-60710424D01*
X72231784Y-60710423D01*
X72079057Y-60669500D01*
X71920943Y-60669500D01*
X71768216Y-60710423D01*
X71768209Y-60710426D01*
X71631290Y-60789475D01*
X71631282Y-60789481D01*
X71519481Y-60901282D01*
X71519475Y-60901290D01*
X71440426Y-61038209D01*
X71440423Y-61038216D01*
X71399500Y-61190943D01*
X45358283Y-61190943D01*
X43881919Y-59130092D01*
X49044500Y-59130092D01*
X49044500Y-59279907D01*
X49073723Y-59426822D01*
X49073725Y-59426830D01*
X49131051Y-59565229D01*
X49131056Y-59565238D01*
X49214280Y-59689790D01*
X49214283Y-59689794D01*
X49320205Y-59795716D01*
X49320209Y-59795719D01*
X49444761Y-59878943D01*
X49444767Y-59878946D01*
X49444768Y-59878947D01*
X49583170Y-59936275D01*
X49730092Y-59965499D01*
X49730096Y-59965500D01*
X49730097Y-59965500D01*
X49879904Y-59965500D01*
X49879905Y-59965499D01*
X50026830Y-59936275D01*
X50165232Y-59878947D01*
X50289791Y-59795719D01*
X50395719Y-59689791D01*
X50478947Y-59565232D01*
X50536275Y-59426830D01*
X50565500Y-59279903D01*
X50565500Y-59130097D01*
X50536275Y-58983170D01*
X50478947Y-58844768D01*
X50478946Y-58844767D01*
X50478943Y-58844761D01*
X50395719Y-58720209D01*
X50395716Y-58720205D01*
X50289794Y-58614283D01*
X50289790Y-58614280D01*
X50165238Y-58531056D01*
X50165229Y-58531051D01*
X50026830Y-58473725D01*
X50026822Y-58473723D01*
X49879907Y-58444500D01*
X49879903Y-58444500D01*
X49730097Y-58444500D01*
X49730092Y-58444500D01*
X49583177Y-58473723D01*
X49583169Y-58473725D01*
X49444770Y-58531051D01*
X49444761Y-58531056D01*
X49320209Y-58614280D01*
X49320205Y-58614283D01*
X49214283Y-58720205D01*
X49214280Y-58720209D01*
X49131056Y-58844761D01*
X49131051Y-58844770D01*
X49073725Y-58983169D01*
X49073723Y-58983177D01*
X49044500Y-59130092D01*
X43881919Y-59130092D01*
X38910813Y-52190943D01*
X71399500Y-52190943D01*
X71399500Y-52349057D01*
X71402052Y-52358579D01*
X71440423Y-52501783D01*
X71440426Y-52501790D01*
X71519475Y-52638709D01*
X71519479Y-52638714D01*
X71519480Y-52638716D01*
X71631284Y-52750520D01*
X71631286Y-52750521D01*
X71631290Y-52750524D01*
X71648024Y-52760185D01*
X71768216Y-52829577D01*
X71920943Y-52870500D01*
X71920945Y-52870500D01*
X72079055Y-52870500D01*
X72079057Y-52870500D01*
X72231784Y-52829577D01*
X72279454Y-52802054D01*
X72357298Y-52757113D01*
X72419297Y-52740500D01*
X74900566Y-52740500D01*
X74967605Y-52760185D01*
X75011050Y-52808204D01*
X75037386Y-52859890D01*
X75141517Y-53003214D01*
X75266786Y-53128483D01*
X75410110Y-53232614D01*
X75487529Y-53272061D01*
X75567957Y-53313042D01*
X75567960Y-53313043D01*
X75652201Y-53340414D01*
X75736445Y-53367786D01*
X75911421Y-53395500D01*
X75911422Y-53395500D01*
X76088578Y-53395500D01*
X76088579Y-53395500D01*
X76263555Y-53367786D01*
X76432042Y-53313042D01*
X76589890Y-53232614D01*
X76733214Y-53128483D01*
X76858483Y-53003214D01*
X76962614Y-52859890D01*
X77043042Y-52702042D01*
X77097786Y-52533555D01*
X77125500Y-52358579D01*
X77125500Y-52181421D01*
X77097786Y-52006445D01*
X77043042Y-51837958D01*
X77043042Y-51837957D01*
X76962613Y-51680109D01*
X76954905Y-51669500D01*
X76858483Y-51536786D01*
X76733214Y-51411517D01*
X76589890Y-51307386D01*
X76432042Y-51226957D01*
X76432039Y-51226956D01*
X76263556Y-51172214D01*
X76176067Y-51158357D01*
X76088579Y-51144500D01*
X75911421Y-51144500D01*
X75853095Y-51153738D01*
X75736443Y-51172214D01*
X75567960Y-51226956D01*
X75567957Y-51226957D01*
X75410109Y-51307386D01*
X75328338Y-51366796D01*
X75266786Y-51411517D01*
X75266784Y-51411519D01*
X75266783Y-51411519D01*
X75141519Y-51536783D01*
X75141519Y-51536784D01*
X75141517Y-51536786D01*
X75096796Y-51598338D01*
X75037386Y-51680109D01*
X75011051Y-51731795D01*
X74963076Y-51782591D01*
X74900566Y-51799500D01*
X72419297Y-51799500D01*
X72357298Y-51782887D01*
X72231790Y-51710426D01*
X72231786Y-51710424D01*
X72231784Y-51710423D01*
X72079057Y-51669500D01*
X71920943Y-51669500D01*
X71768216Y-51710423D01*
X71768209Y-51710426D01*
X71631290Y-51789475D01*
X71631282Y-51789481D01*
X71519481Y-51901282D01*
X71519475Y-51901290D01*
X71440426Y-52038209D01*
X71440423Y-52038216D01*
X71399500Y-52190943D01*
X38910813Y-52190943D01*
X32463344Y-43190943D01*
X71399500Y-43190943D01*
X71399500Y-43349057D01*
X71402052Y-43358579D01*
X71440423Y-43501783D01*
X71440426Y-43501790D01*
X71519475Y-43638709D01*
X71519479Y-43638714D01*
X71519480Y-43638716D01*
X71631284Y-43750520D01*
X71631286Y-43750521D01*
X71631290Y-43750524D01*
X71648024Y-43760185D01*
X71768216Y-43829577D01*
X71920943Y-43870500D01*
X71920945Y-43870500D01*
X72079055Y-43870500D01*
X72079057Y-43870500D01*
X72231784Y-43829577D01*
X72279454Y-43802054D01*
X72357298Y-43757113D01*
X72419297Y-43740500D01*
X74900566Y-43740500D01*
X74967605Y-43760185D01*
X75011050Y-43808204D01*
X75037386Y-43859890D01*
X75141517Y-44003214D01*
X75266786Y-44128483D01*
X75410110Y-44232614D01*
X75487529Y-44272061D01*
X75567957Y-44313042D01*
X75567960Y-44313043D01*
X75652201Y-44340414D01*
X75736445Y-44367786D01*
X75911421Y-44395500D01*
X75911422Y-44395500D01*
X76088578Y-44395500D01*
X76088579Y-44395500D01*
X76263555Y-44367786D01*
X76432042Y-44313042D01*
X76589890Y-44232614D01*
X76733214Y-44128483D01*
X76858483Y-44003214D01*
X76962614Y-43859890D01*
X77043042Y-43702042D01*
X77097786Y-43533555D01*
X77125500Y-43358579D01*
X77125500Y-43181421D01*
X77097786Y-43006445D01*
X77043042Y-42837958D01*
X77043042Y-42837957D01*
X76962613Y-42680109D01*
X76954905Y-42669500D01*
X76858483Y-42536786D01*
X76733214Y-42411517D01*
X76589890Y-42307386D01*
X76432042Y-42226957D01*
X76432039Y-42226956D01*
X76263556Y-42172214D01*
X76176067Y-42158357D01*
X76088579Y-42144500D01*
X75911421Y-42144500D01*
X75853095Y-42153738D01*
X75736443Y-42172214D01*
X75567960Y-42226956D01*
X75567957Y-42226957D01*
X75410109Y-42307386D01*
X75328338Y-42366796D01*
X75266786Y-42411517D01*
X75266784Y-42411519D01*
X75266783Y-42411519D01*
X75141519Y-42536783D01*
X75141519Y-42536784D01*
X75141517Y-42536786D01*
X75096796Y-42598338D01*
X75037386Y-42680109D01*
X75011051Y-42731795D01*
X74963076Y-42782591D01*
X74900566Y-42799500D01*
X72419297Y-42799500D01*
X72357298Y-42782887D01*
X72231790Y-42710426D01*
X72231786Y-42710424D01*
X72231784Y-42710423D01*
X72079057Y-42669500D01*
X71920943Y-42669500D01*
X71768216Y-42710423D01*
X71768209Y-42710426D01*
X71631290Y-42789475D01*
X71631282Y-42789481D01*
X71519481Y-42901282D01*
X71519475Y-42901290D01*
X71440426Y-43038209D01*
X71440423Y-43038216D01*
X71399500Y-43190943D01*
X32463344Y-43190943D01*
X26015874Y-34190943D01*
X71399500Y-34190943D01*
X71399500Y-34349057D01*
X71402052Y-34358579D01*
X71440423Y-34501783D01*
X71440426Y-34501790D01*
X71519475Y-34638709D01*
X71519479Y-34638714D01*
X71519480Y-34638716D01*
X71631284Y-34750520D01*
X71631286Y-34750521D01*
X71631290Y-34750524D01*
X71648024Y-34760185D01*
X71768216Y-34829577D01*
X71920943Y-34870500D01*
X71920945Y-34870500D01*
X72079055Y-34870500D01*
X72079057Y-34870500D01*
X72231784Y-34829577D01*
X72279454Y-34802054D01*
X72357298Y-34757113D01*
X72419297Y-34740500D01*
X74900566Y-34740500D01*
X74967605Y-34760185D01*
X75011050Y-34808204D01*
X75037386Y-34859890D01*
X75141517Y-35003214D01*
X75266786Y-35128483D01*
X75410110Y-35232614D01*
X75487529Y-35272061D01*
X75567957Y-35313042D01*
X75567960Y-35313043D01*
X75652201Y-35340414D01*
X75736445Y-35367786D01*
X75911421Y-35395500D01*
X75911422Y-35395500D01*
X76088578Y-35395500D01*
X76088579Y-35395500D01*
X76263555Y-35367786D01*
X76432042Y-35313042D01*
X76589890Y-35232614D01*
X76733214Y-35128483D01*
X76858483Y-35003214D01*
X76962614Y-34859890D01*
X77043042Y-34702042D01*
X77097786Y-34533555D01*
X77125500Y-34358579D01*
X77125500Y-34181421D01*
X77097786Y-34006445D01*
X77043042Y-33837958D01*
X77043042Y-33837957D01*
X76962613Y-33680109D01*
X76954905Y-33669500D01*
X76858483Y-33536786D01*
X76733214Y-33411517D01*
X76589890Y-33307386D01*
X76432042Y-33226957D01*
X76432039Y-33226956D01*
X76263556Y-33172214D01*
X76176067Y-33158357D01*
X76088579Y-33144500D01*
X75911421Y-33144500D01*
X75853095Y-33153738D01*
X75736443Y-33172214D01*
X75567960Y-33226956D01*
X75567957Y-33226957D01*
X75410109Y-33307386D01*
X75328338Y-33366796D01*
X75266786Y-33411517D01*
X75266784Y-33411519D01*
X75266783Y-33411519D01*
X75141519Y-33536783D01*
X75141519Y-33536784D01*
X75141517Y-33536786D01*
X75096796Y-33598338D01*
X75037386Y-33680109D01*
X75011051Y-33731795D01*
X74963076Y-33782591D01*
X74900566Y-33799500D01*
X72419297Y-33799500D01*
X72357298Y-33782887D01*
X72231790Y-33710426D01*
X72231786Y-33710424D01*
X72231784Y-33710423D01*
X72079057Y-33669500D01*
X71920943Y-33669500D01*
X71768216Y-33710423D01*
X71768209Y-33710426D01*
X71631290Y-33789475D01*
X71631282Y-33789481D01*
X71519481Y-33901282D01*
X71519475Y-33901290D01*
X71440426Y-34038209D01*
X71440423Y-34038216D01*
X71399500Y-34190943D01*
X26015874Y-34190943D01*
X22665924Y-29514760D01*
X22646494Y-29481106D01*
X22629994Y-29464606D01*
X22616408Y-29445641D01*
X22591065Y-29424837D01*
X22582072Y-29416684D01*
X22558895Y-29393507D01*
X22558894Y-29393506D01*
X22547492Y-29386923D01*
X22547492Y-29386922D01*
X22538678Y-29381833D01*
X22520654Y-29367037D01*
X22485269Y-29350998D01*
X22479993Y-29347952D01*
X22451605Y-29331563D01*
X22438897Y-29328158D01*
X22419808Y-29321326D01*
X22407821Y-29315893D01*
X22375475Y-29310548D01*
X22375475Y-29310547D01*
X22369467Y-29309554D01*
X22331943Y-29299500D01*
X22308614Y-29299500D01*
X22298573Y-29297841D01*
X22285591Y-29295696D01*
X22285589Y-29295695D01*
X22254671Y-29298737D01*
X22252975Y-29298904D01*
X22240838Y-29299500D01*
X19369434Y-29299500D01*
X19302395Y-29279815D01*
X19258949Y-29231795D01*
X19232613Y-29180109D01*
X19128483Y-29036786D01*
X19003214Y-28911517D01*
X18859890Y-28807386D01*
X18702042Y-28726957D01*
X18702039Y-28726956D01*
X18533556Y-28672214D01*
X18446067Y-28658357D01*
X18358579Y-28644500D01*
X18181421Y-28644500D01*
X18123095Y-28653738D01*
X18006443Y-28672214D01*
X17837960Y-28726956D01*
X17837957Y-28726957D01*
X17680109Y-28807386D01*
X17598338Y-28866796D01*
X17536786Y-28911517D01*
X17536784Y-28911519D01*
X17536783Y-28911519D01*
X17411519Y-29036783D01*
X17411519Y-29036784D01*
X17411517Y-29036786D01*
X17366796Y-29098338D01*
X17307386Y-29180109D01*
X17226957Y-29337957D01*
X17226956Y-29337960D01*
X17172214Y-29506443D01*
X17144500Y-29681421D01*
X9500500Y-29681421D01*
X9500500Y-25190943D01*
X71399500Y-25190943D01*
X71399500Y-25349057D01*
X71402052Y-25358579D01*
X71440423Y-25501783D01*
X71440426Y-25501790D01*
X71519475Y-25638709D01*
X71519479Y-25638714D01*
X71519480Y-25638716D01*
X71631284Y-25750520D01*
X71631286Y-25750521D01*
X71631290Y-25750524D01*
X71648024Y-25760185D01*
X71768216Y-25829577D01*
X71920943Y-25870500D01*
X71920945Y-25870500D01*
X72079055Y-25870500D01*
X72079057Y-25870500D01*
X72231784Y-25829577D01*
X72279454Y-25802054D01*
X72357298Y-25757113D01*
X72419297Y-25740500D01*
X74900566Y-25740500D01*
X74967605Y-25760185D01*
X75011050Y-25808204D01*
X75037386Y-25859890D01*
X75141517Y-26003214D01*
X75266786Y-26128483D01*
X75410110Y-26232614D01*
X75487529Y-26272061D01*
X75567957Y-26313042D01*
X75567960Y-26313043D01*
X75652201Y-26340414D01*
X75736445Y-26367786D01*
X75911421Y-26395500D01*
X75911422Y-26395500D01*
X76088578Y-26395500D01*
X76088579Y-26395500D01*
X76263555Y-26367786D01*
X76432042Y-26313042D01*
X76589890Y-26232614D01*
X76733214Y-26128483D01*
X76858483Y-26003214D01*
X76962614Y-25859890D01*
X77043042Y-25702042D01*
X77097786Y-25533555D01*
X77125500Y-25358579D01*
X77125500Y-25181421D01*
X77097786Y-25006445D01*
X77043042Y-24837958D01*
X77043042Y-24837957D01*
X76962613Y-24680109D01*
X76954905Y-24669500D01*
X76858483Y-24536786D01*
X76733214Y-24411517D01*
X76589890Y-24307386D01*
X76432042Y-24226957D01*
X76432039Y-24226956D01*
X76263556Y-24172214D01*
X76176067Y-24158357D01*
X76088579Y-24144500D01*
X75911421Y-24144500D01*
X75853095Y-24153738D01*
X75736443Y-24172214D01*
X75567960Y-24226956D01*
X75567957Y-24226957D01*
X75410109Y-24307386D01*
X75328338Y-24366796D01*
X75266786Y-24411517D01*
X75266784Y-24411519D01*
X75266783Y-24411519D01*
X75141519Y-24536783D01*
X75141519Y-24536784D01*
X75141517Y-24536786D01*
X75096796Y-24598338D01*
X75037386Y-24680109D01*
X75011051Y-24731795D01*
X74963076Y-24782591D01*
X74900566Y-24799500D01*
X72419297Y-24799500D01*
X72357298Y-24782887D01*
X72231790Y-24710426D01*
X72231786Y-24710424D01*
X72231784Y-24710423D01*
X72079057Y-24669500D01*
X71920943Y-24669500D01*
X71768216Y-24710423D01*
X71768209Y-24710426D01*
X71631290Y-24789475D01*
X71631282Y-24789481D01*
X71519481Y-24901282D01*
X71519475Y-24901290D01*
X71440426Y-25038209D01*
X71440423Y-25038216D01*
X71399500Y-25190943D01*
X9500500Y-25190943D01*
X9500500Y-14878711D01*
X16419500Y-14878711D01*
X16419500Y-15121288D01*
X16451161Y-15361785D01*
X16513947Y-15596104D01*
X16606773Y-15820205D01*
X16606776Y-15820212D01*
X16728064Y-16030289D01*
X16728066Y-16030292D01*
X16728067Y-16030293D01*
X16875733Y-16222736D01*
X16875739Y-16222743D01*
X17047256Y-16394260D01*
X17047262Y-16394265D01*
X17239711Y-16541936D01*
X17449788Y-16663224D01*
X17673900Y-16756054D01*
X17908211Y-16818838D01*
X18088586Y-16842584D01*
X18148711Y-16850500D01*
X18148712Y-16850500D01*
X18391289Y-16850500D01*
X18439388Y-16844167D01*
X18631789Y-16818838D01*
X18866100Y-16756054D01*
X19090212Y-16663224D01*
X19300289Y-16541936D01*
X19492738Y-16394265D01*
X19664265Y-16222738D01*
X19811936Y-16030289D01*
X19933224Y-15820212D01*
X20026054Y-15596100D01*
X20088838Y-15361789D01*
X20120500Y-15121288D01*
X20120500Y-14878712D01*
X20120500Y-14878711D01*
X74149500Y-14878711D01*
X74149500Y-15121288D01*
X74181161Y-15361785D01*
X74243947Y-15596104D01*
X74336773Y-15820205D01*
X74336776Y-15820212D01*
X74458064Y-16030289D01*
X74458066Y-16030292D01*
X74458067Y-16030293D01*
X74605733Y-16222736D01*
X74605739Y-16222743D01*
X74777256Y-16394260D01*
X74777262Y-16394265D01*
X74969711Y-16541936D01*
X75179788Y-16663224D01*
X75403900Y-16756054D01*
X75638211Y-16818838D01*
X75818586Y-16842584D01*
X75878711Y-16850500D01*
X75878712Y-16850500D01*
X76121289Y-16850500D01*
X76169388Y-16844167D01*
X76361789Y-16818838D01*
X76596100Y-16756054D01*
X76820212Y-16663224D01*
X77030289Y-16541936D01*
X77222738Y-16394265D01*
X77394265Y-16222738D01*
X77541936Y-16030289D01*
X77663224Y-15820212D01*
X77756054Y-15596100D01*
X77818838Y-15361789D01*
X77850500Y-15121288D01*
X77850500Y-14878712D01*
X77818838Y-14638211D01*
X77756054Y-14403900D01*
X77663224Y-14179788D01*
X77541936Y-13969711D01*
X77394265Y-13777262D01*
X77394260Y-13777256D01*
X77222743Y-13605739D01*
X77222736Y-13605733D01*
X77030293Y-13458067D01*
X77030292Y-13458066D01*
X77030289Y-13458064D01*
X76820212Y-13336776D01*
X76820205Y-13336773D01*
X76596104Y-13243947D01*
X76361785Y-13181161D01*
X76121289Y-13149500D01*
X76121288Y-13149500D01*
X75878712Y-13149500D01*
X75878711Y-13149500D01*
X75638214Y-13181161D01*
X75403895Y-13243947D01*
X75179794Y-13336773D01*
X75179785Y-13336777D01*
X74969706Y-13458067D01*
X74777263Y-13605733D01*
X74777256Y-13605739D01*
X74605739Y-13777256D01*
X74605733Y-13777263D01*
X74458067Y-13969706D01*
X74336777Y-14179785D01*
X74336773Y-14179794D01*
X74243947Y-14403895D01*
X74181161Y-14638214D01*
X74149500Y-14878711D01*
X20120500Y-14878711D01*
X20088838Y-14638211D01*
X20026054Y-14403900D01*
X19933224Y-14179788D01*
X19811936Y-13969711D01*
X19664265Y-13777262D01*
X19664260Y-13777256D01*
X19492743Y-13605739D01*
X19492736Y-13605733D01*
X19300293Y-13458067D01*
X19300292Y-13458066D01*
X19300289Y-13458064D01*
X19090212Y-13336776D01*
X19090205Y-13336773D01*
X18866104Y-13243947D01*
X18631785Y-13181161D01*
X18391289Y-13149500D01*
X18391288Y-13149500D01*
X18148712Y-13149500D01*
X18148711Y-13149500D01*
X17908214Y-13181161D01*
X17673895Y-13243947D01*
X17449794Y-13336773D01*
X17449785Y-13336777D01*
X17239706Y-13458067D01*
X17047263Y-13605733D01*
X17047256Y-13605739D01*
X16875739Y-13777256D01*
X16875733Y-13777263D01*
X16728067Y-13969706D01*
X16606777Y-14179785D01*
X16606773Y-14179794D01*
X16513947Y-14403895D01*
X16451161Y-14638214D01*
X16419500Y-14878711D01*
X9500500Y-14878711D01*
X9500500Y-10624500D01*
X9520185Y-10557461D01*
X9572989Y-10511706D01*
X9624500Y-10500500D01*
X84645500Y-10500500D01*
X84712539Y-10520185D01*
G37*
%TD.AperFunction*%
%TD*%
M02*
