M48
; DRILL file KiCad 10.0.3 date 2026-07-15T14:37:19
; FORMAT={-:-/ absolute / metric / decimal}
; #@! TF.CreationDate,2026-07-15T14:37:19-04:00
; #@! TF.GenerationSoftware,Kicad,Pcbnew,10.0.3
; #@! TF.FileFunction,MixedPlating,1,4
FMAT,2
METRIC
; #@! TA.AperFunction,Plated,PTH,ViaDrill
T1C0.300
; #@! TA.AperFunction,Plated,PTH,ComponentDrill
T2C1.100
; #@! TA.AperFunction,Plated,PTH,ComponentDrill
T3C1.400
; #@! TA.AperFunction,NonPlated,NPTH,ComponentDrill
T4C1.020
; #@! TA.AperFunction,NonPlated,NPTH,ComponentDrill
T5C3.200
%
G90
G05
T1
X11.925Y-12.925
X11.925Y-17.925
X11.925Y-22.925
X11.925Y-27.925
X11.925Y-32.925
X11.925Y-37.925
X11.925Y-42.925
X11.925Y-47.925
X11.925Y-52.925
X11.925Y-67.925
X11.925Y-92.925
X11.925Y-107.925
X11.925Y-122.925
X11.925Y-127.925
X11.925Y-132.925
X11.925Y-137.925
X11.925Y-142.925
X11.925Y-147.925
X11.925Y-152.925
X11.925Y-157.925
X11.925Y-162.925
X16.925Y-22.925
X16.925Y-27.925
X16.925Y-32.925
X16.925Y-37.925
X16.925Y-42.925
X16.925Y-47.925
X16.925Y-52.925
X16.925Y-122.925
X16.925Y-127.925
X16.925Y-132.925
X16.925Y-137.925
X16.925Y-142.925
X16.925Y-147.925
X16.925Y-152.925
X16.925Y-157.925
X21.925Y-12.925
X21.925Y-17.925
X21.925Y-22.925
X21.925Y-27.925
X21.925Y-32.925
X21.925Y-37.925
X21.925Y-42.925
X21.925Y-47.925
X21.925Y-52.925
X21.925Y-122.925
X21.925Y-127.925
X21.925Y-132.925
X21.925Y-137.925
X21.925Y-142.925
X21.925Y-147.925
X21.925Y-152.925
X21.925Y-157.925
X21.925Y-162.925
X26.925Y-12.925
X26.925Y-17.925
X26.925Y-22.925
X26.925Y-27.925
X26.925Y-32.925
X26.925Y-37.925
X26.925Y-42.925
X26.925Y-47.925
X26.925Y-52.925
X26.925Y-57.925
X26.925Y-62.925
X26.925Y-67.925
X26.925Y-72.925
X26.925Y-77.925
X26.925Y-87.925
X26.925Y-92.925
X26.925Y-97.925
X26.925Y-107.925
X26.925Y-112.925
X26.925Y-117.925
X26.925Y-122.925
X26.925Y-127.925
X26.925Y-132.925
X26.925Y-137.925
X26.925Y-142.925
X26.925Y-147.925
X26.925Y-152.925
X26.925Y-157.925
X26.925Y-162.925
X31.925Y-12.925
X31.925Y-17.925
X31.925Y-22.925
X31.925Y-27.925
X31.925Y-32.925
X31.925Y-37.925
X31.925Y-42.925
X31.925Y-47.925
X31.925Y-52.925
X31.925Y-57.925
X31.925Y-62.925
X31.925Y-67.925
X31.925Y-72.925
X31.925Y-77.925
X31.925Y-82.925
X31.925Y-87.925
X31.925Y-102.925
X31.925Y-107.925
X31.925Y-112.925
X31.925Y-117.925
X31.925Y-122.925
X31.925Y-127.925
X31.925Y-132.925
X31.925Y-137.925
X31.925Y-142.925
X31.925Y-147.925
X31.925Y-152.925
X31.925Y-157.925
X31.925Y-162.925
X36.925Y-12.925
X36.925Y-17.925
X36.925Y-22.925
X36.925Y-27.925
X36.925Y-32.925
X36.925Y-37.925
X36.925Y-42.925
X36.925Y-47.925
X36.925Y-52.925
X36.925Y-57.925
X36.925Y-62.925
X36.925Y-67.925
X36.925Y-72.925
X36.925Y-77.925
X36.925Y-87.925
X36.925Y-97.925
X36.925Y-102.925
X36.925Y-107.925
X36.925Y-112.925
X36.925Y-117.925
X36.925Y-122.925
X36.925Y-127.925
X36.925Y-132.925
X36.925Y-137.925
X36.925Y-142.925
X36.925Y-147.925
X36.925Y-152.925
X36.925Y-157.925
X36.925Y-162.925
X41.925Y-12.925
X41.925Y-17.925
X41.925Y-22.925
X41.925Y-27.925
X41.925Y-32.925
X41.925Y-37.925
X41.925Y-42.925
X41.925Y-47.925
X41.925Y-52.925
X41.925Y-57.925
X41.925Y-62.925
X41.925Y-67.925
X41.925Y-72.925
X41.925Y-77.925
X41.925Y-87.925
X41.925Y-97.925
X41.925Y-102.925
X41.925Y-107.925
X41.925Y-112.925
X41.925Y-117.925
X41.925Y-122.925
X41.925Y-127.925
X41.925Y-132.925
X41.925Y-137.925
X41.925Y-142.925
X41.925Y-147.925
X41.925Y-152.925
X41.925Y-157.925
X41.925Y-162.925
X46.925Y-12.925
X46.925Y-17.925
X46.925Y-22.925
X46.925Y-27.925
X46.925Y-32.925
X46.925Y-37.925
X46.925Y-42.925
X46.925Y-47.925
X46.925Y-52.925
X46.925Y-57.925
X46.925Y-62.925
X46.925Y-72.925
X46.925Y-77.925
X46.925Y-82.925
X46.925Y-87.925
X46.925Y-92.925
X46.925Y-97.925
X46.925Y-102.925
X46.925Y-112.925
X46.925Y-117.925
X46.925Y-122.925
X46.925Y-127.925
X46.925Y-132.925
X46.925Y-137.925
X46.925Y-142.925
X46.925Y-147.925
X46.925Y-152.925
X46.925Y-157.925
X46.925Y-162.925
X49.27Y-105.34
X49.581Y-103.74
X49.601Y-73.34
X49.673Y-71.74
X51.925Y-12.925
X51.925Y-17.925
X51.925Y-22.925
X51.925Y-27.925
X51.925Y-32.925
X51.925Y-37.925
X51.925Y-42.925
X51.925Y-52.925
X51.925Y-57.925
X51.925Y-62.925
X51.925Y-77.925
X51.925Y-92.925
X51.925Y-102.925
X51.925Y-112.925
X51.925Y-117.925
X51.925Y-122.925
X51.925Y-127.925
X51.925Y-132.925
X51.925Y-137.925
X51.925Y-142.925
X51.925Y-147.925
X51.925Y-152.925
X51.925Y-157.925
X51.925Y-162.925
X56.925Y-12.925
X56.925Y-17.925
X56.925Y-22.925
X56.925Y-27.925
X56.925Y-32.925
X56.925Y-37.925
X56.925Y-47.925
X56.925Y-52.925
X56.925Y-57.925
X56.925Y-62.925
X56.925Y-72.925
X56.925Y-77.925
X56.925Y-92.925
X56.925Y-102.925
X56.925Y-107.925
X56.925Y-117.925
X56.925Y-122.925
X56.925Y-127.925
X56.925Y-132.925
X56.925Y-137.925
X56.925Y-142.925
X56.925Y-147.925
X56.925Y-152.925
X56.925Y-157.925
X56.925Y-162.925
X61.925Y-12.925
X61.925Y-17.925
X61.925Y-22.925
X61.925Y-27.925
X61.925Y-32.925
X61.925Y-42.925
X61.925Y-47.925
X61.925Y-52.925
X61.925Y-57.925
X61.925Y-67.925
X61.925Y-72.925
X61.925Y-77.925
X61.925Y-92.925
X61.925Y-97.925
X61.925Y-107.925
X61.925Y-112.925
X61.925Y-122.925
X61.925Y-127.925
X61.925Y-132.925
X61.925Y-137.925
X61.925Y-142.925
X61.925Y-147.925
X61.925Y-152.925
X61.925Y-157.925
X61.925Y-162.925
X66.925Y-12.925
X66.925Y-17.925
X66.925Y-22.925
X66.925Y-27.925
X66.925Y-37.925
X66.925Y-42.925
X66.925Y-47.925
X66.925Y-52.925
X66.925Y-62.925
X66.925Y-67.925
X66.925Y-72.925
X66.925Y-92.925
X66.925Y-97.925
X66.925Y-102.925
X66.925Y-112.925
X66.925Y-117.925
X66.925Y-127.925
X66.925Y-132.925
X66.925Y-137.925
X66.925Y-142.925
X66.925Y-147.925
X66.925Y-152.925
X66.925Y-157.925
X66.925Y-162.925
X71.925Y-12.925
X71.925Y-17.925
T2
X17.54Y-60.54
X17.54Y-68.54
X17.54Y-76.54
X17.54Y-84.54
X17.54Y-92.54
X17.54Y-100.54
X17.54Y-108.54
X17.54Y-116.54
X75.27Y-24.54
X75.27Y-32.54
X75.27Y-40.54
X75.27Y-48.54
X75.27Y-56.54
X75.27Y-64.54
X75.27Y-72.54
X75.27Y-80.54
X75.27Y-88.54
X75.27Y-96.54
X75.27Y-104.54
X75.27Y-112.54
X75.27Y-120.54
X75.27Y-128.54
X75.27Y-136.54
X75.27Y-144.54
X75.27Y-152.54
T3
X15.0Y-58.0
X15.0Y-63.08
X15.0Y-66.0
X15.0Y-71.08
X15.0Y-74.0
X15.0Y-79.08
X15.0Y-82.0
X15.0Y-87.08
X15.0Y-90.0
X15.0Y-95.08
X15.0Y-98.0
X15.0Y-103.08
X15.0Y-106.0
X15.0Y-111.08
X15.0Y-114.0
X15.0Y-119.08
X20.08Y-58.0
X20.08Y-63.08
X20.08Y-66.0
X20.08Y-71.08
X20.08Y-74.0
X20.08Y-79.08
X20.08Y-82.0
X20.08Y-87.08
X20.08Y-90.0
X20.08Y-95.08
X20.08Y-98.0
X20.08Y-103.08
X20.08Y-106.0
X20.08Y-111.08
X20.08Y-114.0
X20.08Y-119.08
X72.73Y-22.0
X72.73Y-27.08
X72.73Y-30.0
X72.73Y-35.08
X72.73Y-38.0
X72.73Y-43.08
X72.73Y-46.0
X72.73Y-51.08
X72.73Y-54.0
X72.73Y-59.08
X72.73Y-62.0
X72.73Y-67.08
X72.73Y-70.0
X72.73Y-75.08
X72.73Y-78.0
X72.73Y-83.08
X72.73Y-86.0
X72.73Y-91.08
X72.73Y-94.0
X72.73Y-99.08
X72.73Y-102.0
X72.73Y-107.08
X72.73Y-110.0
X72.73Y-115.08
X72.73Y-118.0
X72.73Y-123.08
X72.73Y-126.0
X72.73Y-131.08
X72.73Y-134.0
X72.73Y-139.08
X72.73Y-142.0
X72.73Y-147.08
X72.73Y-150.0
X72.73Y-155.08
X77.81Y-22.0
X77.81Y-27.08
X77.81Y-30.0
X77.81Y-35.08
X77.81Y-38.0
X77.81Y-43.08
X77.81Y-46.0
X77.81Y-51.08
X77.81Y-54.0
X77.81Y-59.08
X77.81Y-62.0
X77.81Y-67.08
X77.81Y-70.0
X77.81Y-75.08
X77.81Y-78.0
X77.81Y-83.08
X77.81Y-86.0
X77.81Y-91.08
X77.81Y-94.0
X77.81Y-99.08
X77.81Y-102.0
X77.81Y-107.08
X77.81Y-110.0
X77.81Y-115.08
X77.81Y-118.0
X77.81Y-123.08
X77.81Y-126.0
X77.81Y-131.08
X77.81Y-134.0
X77.81Y-139.08
X77.81Y-142.0
X77.81Y-147.08
X77.81Y-150.0
X77.81Y-155.08
T4
X49.075Y-68.475
X49.075Y-108.605
T5
X17.54Y-15.0
X17.54Y-162.08
X75.27Y-15.0
X75.27Y-162.08
M30
