%TF.GenerationSoftware,KiCad,Pcbnew,10.0.3*%
%TF.CreationDate,2026-07-18T12:11:47-04:00*%
%TF.ProjectId,board-A-mcx,626f6172-642d-4412-9d6d-63782e6b6963,rev?*%
%TF.SameCoordinates,Original*%
%TF.FileFunction,Soldermask,Top*%
%TF.FilePolarity,Negative*%
%FSLAX46Y46*%
G04 Gerber Fmt 4.6, Leading zero omitted, Abs format (unit mm)*
G04 Created by KiCad (PCBNEW 10.0.3) date 2026-07-18 12:11:47*
%MOMM*%
%LPD*%
G01*
G04 APERTURE LIST*
%ADD10C,1.904000*%
%ADD11C,2.204000*%
%ADD12C,3.200000*%
%ADD13C,1.020000*%
G04 APERTURE END LIST*
D10*
%TO.C,J13*%
X17540000Y-108540000D03*
D11*
X20080000Y-111080000D03*
X20080000Y-106000000D03*
X15000000Y-111080000D03*
X15000000Y-106000000D03*
%TD*%
D10*
%TO.C,J29*%
X75270000Y-64540000D03*
D11*
X72730000Y-62000000D03*
X72730000Y-67080000D03*
X77810000Y-62000000D03*
X77810000Y-67080000D03*
%TD*%
D10*
%TO.C,J8*%
X75270000Y-96540000D03*
D11*
X72730000Y-94000000D03*
X72730000Y-99080000D03*
X77810000Y-94000000D03*
X77810000Y-99080000D03*
%TD*%
D10*
%TO.C,J19*%
X17540000Y-60540000D03*
D11*
X20080000Y-63080000D03*
X20080000Y-58000000D03*
X15000000Y-63080000D03*
X15000000Y-58000000D03*
%TD*%
D10*
%TO.C,J23*%
X17540000Y-28540000D03*
D11*
X20080000Y-31080000D03*
X20080000Y-26000000D03*
X15000000Y-31080000D03*
X15000000Y-26000000D03*
%TD*%
D10*
%TO.C,J22*%
X17540000Y-36540000D03*
D11*
X20080000Y-39080000D03*
X20080000Y-34000000D03*
X15000000Y-39080000D03*
X15000000Y-34000000D03*
%TD*%
D12*
%TO.C,MH4*%
X75270000Y-130080000D03*
%TD*%
D10*
%TO.C,J16*%
X17540000Y-84540000D03*
D11*
X20080000Y-87080000D03*
X20080000Y-82000000D03*
X15000000Y-87080000D03*
X15000000Y-82000000D03*
%TD*%
D10*
%TO.C,J9*%
X75270000Y-104540000D03*
D11*
X72730000Y-102000000D03*
X72730000Y-107080000D03*
X77810000Y-102000000D03*
X77810000Y-107080000D03*
%TD*%
D10*
%TO.C,J14*%
X17540000Y-100540000D03*
D11*
X20080000Y-103080000D03*
X20080000Y-98000000D03*
X15000000Y-103080000D03*
X15000000Y-98000000D03*
%TD*%
D12*
%TO.C,MH2*%
X75270000Y-15000000D03*
%TD*%
D10*
%TO.C,J18*%
X17540000Y-68540000D03*
D11*
X20080000Y-71080000D03*
X20080000Y-66000000D03*
X15000000Y-71080000D03*
X15000000Y-66000000D03*
%TD*%
D10*
%TO.C,J26*%
X75270000Y-40540000D03*
D11*
X72730000Y-38000000D03*
X72730000Y-43080000D03*
X77810000Y-38000000D03*
X77810000Y-43080000D03*
%TD*%
D10*
%TO.C,J20*%
X17540000Y-52540000D03*
D11*
X20080000Y-55080000D03*
X20080000Y-50000000D03*
X15000000Y-55080000D03*
X15000000Y-50000000D03*
%TD*%
D10*
%TO.C,J12*%
X17540000Y-116540000D03*
D11*
X20080000Y-119080000D03*
X20080000Y-114000000D03*
X15000000Y-119080000D03*
X15000000Y-114000000D03*
%TD*%
D10*
%TO.C,J6*%
X75270000Y-80540000D03*
D11*
X72730000Y-78000000D03*
X72730000Y-83080000D03*
X77810000Y-78000000D03*
X77810000Y-83080000D03*
%TD*%
D10*
%TO.C,J25*%
X75270000Y-32540000D03*
D11*
X72730000Y-30000000D03*
X72730000Y-35080000D03*
X77810000Y-30000000D03*
X77810000Y-35080000D03*
%TD*%
D10*
%TO.C,J17*%
X17540000Y-76540000D03*
D11*
X20080000Y-79080000D03*
X20080000Y-74000000D03*
X15000000Y-79080000D03*
X15000000Y-74000000D03*
%TD*%
D10*
%TO.C,J27*%
X75270000Y-48540000D03*
D11*
X72730000Y-46000000D03*
X72730000Y-51080000D03*
X77810000Y-46000000D03*
X77810000Y-51080000D03*
%TD*%
D12*
%TO.C,MH3*%
X17540000Y-130080000D03*
%TD*%
%TO.C,MH1*%
X17540000Y-15000000D03*
%TD*%
D10*
%TO.C,J28*%
X75270000Y-56540000D03*
D11*
X72730000Y-54000000D03*
X72730000Y-59080000D03*
X77810000Y-54000000D03*
X77810000Y-59080000D03*
%TD*%
D10*
%TO.C,J15*%
X17540000Y-92540000D03*
D11*
X20080000Y-95080000D03*
X20080000Y-90000000D03*
X15000000Y-95080000D03*
X15000000Y-90000000D03*
%TD*%
D10*
%TO.C,J7*%
X75270000Y-88540000D03*
D11*
X72730000Y-86000000D03*
X72730000Y-91080000D03*
X77810000Y-86000000D03*
X77810000Y-91080000D03*
%TD*%
D10*
%TO.C,J21*%
X17540000Y-44540000D03*
D11*
X20080000Y-47080000D03*
X20080000Y-42000000D03*
X15000000Y-47080000D03*
X15000000Y-42000000D03*
%TD*%
D10*
%TO.C,J30*%
X75270000Y-72540000D03*
D11*
X72730000Y-70000000D03*
X72730000Y-75080000D03*
X77810000Y-70000000D03*
X77810000Y-75080000D03*
%TD*%
D10*
%TO.C,J24*%
X75270000Y-24540000D03*
D11*
X72730000Y-22000000D03*
X72730000Y-27080000D03*
X77810000Y-22000000D03*
X77810000Y-27080000D03*
%TD*%
D10*
%TO.C,J10*%
X75270000Y-112540000D03*
D11*
X72730000Y-110000000D03*
X72730000Y-115080000D03*
X77810000Y-110000000D03*
X77810000Y-115080000D03*
%TD*%
D10*
%TO.C,J11*%
X75270000Y-120540000D03*
D11*
X72730000Y-118000000D03*
X72730000Y-123080000D03*
X77810000Y-118000000D03*
X77810000Y-123080000D03*
%TD*%
D13*
%TO.C,J5*%
X49075000Y-92605000D03*
X49075000Y-52475000D03*
%TD*%
M02*
