%TF.GenerationSoftware,KiCad,Pcbnew,10.0.3*%
%TF.CreationDate,2026-07-17T14:48:35-04:00*%
%TF.ProjectId,board-A-mcx,626f6172-642d-4412-9d6d-63782e6b6963,rev?*%
%TF.SameCoordinates,Original*%
%TF.FileFunction,Paste,Bot*%
%TF.FilePolarity,Positive*%
%FSLAX46Y46*%
G04 Gerber Fmt 4.6, Leading zero omitted, Abs format (unit mm)*
G04 Created by KiCad (PCBNEW 10.0.3) date 2026-07-17 14:48:35*
%MOMM*%
%LPD*%
G01*
G04 APERTURE LIST*
%ADD10R,2.270000X0.410000*%
%ADD11R,0.430000X2.540000*%
%ADD12R,0.430000X4.700000*%
G04 APERTURE END LIST*
D10*
%TO.C,J5*%
X43540000Y-90140000D03*
X49270000Y-90140000D03*
X43540000Y-89340000D03*
X49270000Y-89340000D03*
X43540000Y-88540000D03*
X49270000Y-88540000D03*
X43540000Y-87740000D03*
X49270000Y-87740000D03*
X43540000Y-86940000D03*
X49270000Y-86940000D03*
X43540000Y-86140000D03*
X49270000Y-86140000D03*
X43540000Y-85340000D03*
X49270000Y-85340000D03*
X43540000Y-84540000D03*
X49270000Y-84540000D03*
X43540000Y-83740000D03*
X49270000Y-83740000D03*
X43540000Y-82940000D03*
X49270000Y-82940000D03*
X43540000Y-82140000D03*
X49270000Y-82140000D03*
X43540000Y-81340000D03*
X49270000Y-81340000D03*
X43540000Y-80540000D03*
X49270000Y-80540000D03*
X43540000Y-79740000D03*
X49270000Y-79740000D03*
X43540000Y-78940000D03*
X49270000Y-78940000D03*
X43540000Y-78140000D03*
X49270000Y-78140000D03*
X43540000Y-77340000D03*
X49270000Y-77340000D03*
X43540000Y-76540000D03*
X49270000Y-76540000D03*
X43540000Y-75740000D03*
X49270000Y-75740000D03*
X43540000Y-74940000D03*
X49270000Y-74940000D03*
X43540000Y-70140000D03*
X49270000Y-70140000D03*
X43540000Y-69340000D03*
X49270000Y-69340000D03*
X43540000Y-68540000D03*
X49270000Y-68540000D03*
X43540000Y-67740000D03*
X49270000Y-67740000D03*
X43540000Y-66940000D03*
X49270000Y-66940000D03*
X43540000Y-66140000D03*
X49270000Y-66140000D03*
X43540000Y-65340000D03*
X49270000Y-65340000D03*
X43540000Y-64540000D03*
X49270000Y-64540000D03*
X43540000Y-63740000D03*
X49270000Y-63740000D03*
X43540000Y-62940000D03*
X49270000Y-62940000D03*
X43540000Y-62140000D03*
X49270000Y-62140000D03*
X43540000Y-61340000D03*
X49270000Y-61340000D03*
X43540000Y-60540000D03*
X49270000Y-60540000D03*
X43540000Y-59740000D03*
X49270000Y-59740000D03*
X43540000Y-58940000D03*
X49270000Y-58940000D03*
X43540000Y-58140000D03*
X49270000Y-58140000D03*
X43540000Y-57340000D03*
X49270000Y-57340000D03*
X43540000Y-56540000D03*
X49270000Y-56540000D03*
X43540000Y-55740000D03*
X49270000Y-55740000D03*
X43540000Y-54940000D03*
X49270000Y-54940000D03*
D11*
X46405000Y-90605000D03*
D12*
X46405000Y-85715000D03*
X46405000Y-79365000D03*
D11*
X46405000Y-74475000D03*
X46405000Y-70605000D03*
D12*
X46405000Y-65715000D03*
X46405000Y-59365000D03*
D11*
X46405000Y-54475000D03*
%TD*%
M02*
