%TF.GenerationSoftware,KiCad,Pcbnew,10.0.3*%
%TF.CreationDate,2026-07-18T12:11:47-04:00*%
%TF.ProjectId,board-A-mcx,626f6172-642d-4412-9d6d-63782e6b6963,rev?*%
%TF.SameCoordinates,Original*%
%TF.FileFunction,Copper,L4,Bot*%
%TF.FilePolarity,Positive*%
%FSLAX46Y46*%
G04 Gerber Fmt 4.6, Leading zero omitted, Abs format (unit mm)*
G04 Created by KiCad (PCBNEW 10.0.3) date 2026-07-18 12:11:47*
%MOMM*%
%LPD*%
G01*
G04 APERTURE LIST*
%TA.AperFunction,ComponentPad*%
%ADD10C,1.700000*%
%TD*%
%TA.AperFunction,ComponentPad*%
%ADD11C,2.000000*%
%TD*%
%TA.AperFunction,SMDPad,CuDef*%
%ADD12R,2.270000X0.410000*%
%TD*%
%TA.AperFunction,SMDPad,CuDef*%
%ADD13R,0.430000X2.540000*%
%TD*%
%TA.AperFunction,SMDPad,CuDef*%
%ADD14R,0.430000X4.700000*%
%TD*%
%TA.AperFunction,ViaPad*%
%ADD15C,0.600000*%
%TD*%
%TA.AperFunction,Conductor*%
%ADD16C,0.325000*%
%TD*%
G04 APERTURE END LIST*
D10*
%TO.P,J13,1*%
%TO.N,SIPM_K7*%
X17540000Y-108540000D03*
D11*
%TO.P,J13,2*%
%TO.N,GNDA*%
X20080000Y-111080000D03*
X20080000Y-106000000D03*
X15000000Y-111080000D03*
X15000000Y-106000000D03*
%TD*%
D10*
%TO.P,J29,1*%
%TO.N,SIPM_K23*%
X75270000Y-64540000D03*
D11*
%TO.P,J29,2*%
%TO.N,GNDA*%
X72730000Y-62000000D03*
X72730000Y-67080000D03*
X77810000Y-62000000D03*
X77810000Y-67080000D03*
%TD*%
D10*
%TO.P,J8,1*%
%TO.N,SIPM_K2*%
X75270000Y-96540000D03*
D11*
%TO.P,J8,2*%
%TO.N,GNDA*%
X72730000Y-94000000D03*
X72730000Y-99080000D03*
X77810000Y-94000000D03*
X77810000Y-99080000D03*
%TD*%
D10*
%TO.P,J19,1*%
%TO.N,SIPM_K13*%
X17540000Y-60540000D03*
D11*
%TO.P,J19,2*%
%TO.N,GNDA*%
X20080000Y-63080000D03*
X20080000Y-58000000D03*
X15000000Y-63080000D03*
X15000000Y-58000000D03*
%TD*%
D10*
%TO.P,J23,1*%
%TO.N,SIPM_K17*%
X17540000Y-28540000D03*
D11*
%TO.P,J23,2*%
%TO.N,GNDA*%
X20080000Y-31080000D03*
X20080000Y-26000000D03*
X15000000Y-31080000D03*
X15000000Y-26000000D03*
%TD*%
D10*
%TO.P,J22,1*%
%TO.N,SIPM_K16*%
X17540000Y-36540000D03*
D11*
%TO.P,J22,2*%
%TO.N,GNDA*%
X20080000Y-39080000D03*
X20080000Y-34000000D03*
X15000000Y-39080000D03*
X15000000Y-34000000D03*
%TD*%
D10*
%TO.P,J16,1*%
%TO.N,SIPM_K10*%
X17540000Y-84540000D03*
D11*
%TO.P,J16,2*%
%TO.N,GNDA*%
X20080000Y-87080000D03*
X20080000Y-82000000D03*
X15000000Y-87080000D03*
X15000000Y-82000000D03*
%TD*%
D10*
%TO.P,J9,1*%
%TO.N,SIPM_K3*%
X75270000Y-104540000D03*
D11*
%TO.P,J9,2*%
%TO.N,GNDA*%
X72730000Y-102000000D03*
X72730000Y-107080000D03*
X77810000Y-102000000D03*
X77810000Y-107080000D03*
%TD*%
D10*
%TO.P,J14,1*%
%TO.N,SIPM_K8*%
X17540000Y-100540000D03*
D11*
%TO.P,J14,2*%
%TO.N,GNDA*%
X20080000Y-103080000D03*
X20080000Y-98000000D03*
X15000000Y-103080000D03*
X15000000Y-98000000D03*
%TD*%
D10*
%TO.P,J18,1*%
%TO.N,SIPM_K12*%
X17540000Y-68540000D03*
D11*
%TO.P,J18,2*%
%TO.N,GNDA*%
X20080000Y-71080000D03*
X20080000Y-66000000D03*
X15000000Y-71080000D03*
X15000000Y-66000000D03*
%TD*%
D10*
%TO.P,J26,1*%
%TO.N,SIPM_K20*%
X75270000Y-40540000D03*
D11*
%TO.P,J26,2*%
%TO.N,GNDA*%
X72730000Y-38000000D03*
X72730000Y-43080000D03*
X77810000Y-38000000D03*
X77810000Y-43080000D03*
%TD*%
D10*
%TO.P,J20,1*%
%TO.N,SIPM_K14*%
X17540000Y-52540000D03*
D11*
%TO.P,J20,2*%
%TO.N,GNDA*%
X20080000Y-55080000D03*
X20080000Y-50000000D03*
X15000000Y-55080000D03*
X15000000Y-50000000D03*
%TD*%
D10*
%TO.P,J12,1*%
%TO.N,SIPM_K6*%
X17540000Y-116540000D03*
D11*
%TO.P,J12,2*%
%TO.N,GNDA*%
X20080000Y-119080000D03*
X20080000Y-114000000D03*
X15000000Y-119080000D03*
X15000000Y-114000000D03*
%TD*%
D10*
%TO.P,J6,1*%
%TO.N,SIPM_K0*%
X75270000Y-80540000D03*
D11*
%TO.P,J6,2*%
%TO.N,GNDA*%
X72730000Y-78000000D03*
X72730000Y-83080000D03*
X77810000Y-78000000D03*
X77810000Y-83080000D03*
%TD*%
D10*
%TO.P,J25,1*%
%TO.N,SIPM_K19*%
X75270000Y-32540000D03*
D11*
%TO.P,J25,2*%
%TO.N,GNDA*%
X72730000Y-30000000D03*
X72730000Y-35080000D03*
X77810000Y-30000000D03*
X77810000Y-35080000D03*
%TD*%
D10*
%TO.P,J17,1*%
%TO.N,SIPM_K11*%
X17540000Y-76540000D03*
D11*
%TO.P,J17,2*%
%TO.N,GNDA*%
X20080000Y-79080000D03*
X20080000Y-74000000D03*
X15000000Y-79080000D03*
X15000000Y-74000000D03*
%TD*%
D10*
%TO.P,J27,1*%
%TO.N,SIPM_K21*%
X75270000Y-48540000D03*
D11*
%TO.P,J27,2*%
%TO.N,GNDA*%
X72730000Y-46000000D03*
X72730000Y-51080000D03*
X77810000Y-46000000D03*
X77810000Y-51080000D03*
%TD*%
D10*
%TO.P,J28,1*%
%TO.N,SIPM_K22*%
X75270000Y-56540000D03*
D11*
%TO.P,J28,2*%
%TO.N,GNDA*%
X72730000Y-54000000D03*
X72730000Y-59080000D03*
X77810000Y-54000000D03*
X77810000Y-59080000D03*
%TD*%
D10*
%TO.P,J15,1*%
%TO.N,SIPM_K9*%
X17540000Y-92540000D03*
D11*
%TO.P,J15,2*%
%TO.N,GNDA*%
X20080000Y-95080000D03*
X20080000Y-90000000D03*
X15000000Y-95080000D03*
X15000000Y-90000000D03*
%TD*%
D10*
%TO.P,J7,1*%
%TO.N,SIPM_K1*%
X75270000Y-88540000D03*
D11*
%TO.P,J7,2*%
%TO.N,GNDA*%
X72730000Y-86000000D03*
X72730000Y-91080000D03*
X77810000Y-86000000D03*
X77810000Y-91080000D03*
%TD*%
D10*
%TO.P,J21,1*%
%TO.N,SIPM_K15*%
X17540000Y-44540000D03*
D11*
%TO.P,J21,2*%
%TO.N,GNDA*%
X20080000Y-47080000D03*
X20080000Y-42000000D03*
X15000000Y-47080000D03*
X15000000Y-42000000D03*
%TD*%
D10*
%TO.P,J30,1*%
%TO.N,IV*%
X75270000Y-72540000D03*
D11*
%TO.P,J30,2*%
%TO.N,GNDA*%
X72730000Y-70000000D03*
X72730000Y-75080000D03*
X77810000Y-70000000D03*
X77810000Y-75080000D03*
%TD*%
D10*
%TO.P,J24,1*%
%TO.N,SIPM_K18*%
X75270000Y-24540000D03*
D11*
%TO.P,J24,2*%
%TO.N,GNDA*%
X72730000Y-22000000D03*
X72730000Y-27080000D03*
X77810000Y-22000000D03*
X77810000Y-27080000D03*
%TD*%
D10*
%TO.P,J10,1*%
%TO.N,SIPM_K4*%
X75270000Y-112540000D03*
D11*
%TO.P,J10,2*%
%TO.N,GNDA*%
X72730000Y-110000000D03*
X72730000Y-115080000D03*
X77810000Y-110000000D03*
X77810000Y-115080000D03*
%TD*%
D10*
%TO.P,J11,1*%
%TO.N,SIPM_K5*%
X75270000Y-120540000D03*
D11*
%TO.P,J11,2*%
%TO.N,GNDA*%
X72730000Y-118000000D03*
X72730000Y-123080000D03*
X77810000Y-118000000D03*
X77810000Y-123080000D03*
%TD*%
D12*
%TO.P,J5,01*%
%TO.N,GNDA*%
X43540000Y-90140000D03*
%TO.P,J5,02*%
%TO.N,SIPM_K7*%
X49270000Y-90140000D03*
%TO.P,J5,03*%
%TO.N,GNDA*%
X43540000Y-89340000D03*
%TO.P,J5,04*%
X49270000Y-89340000D03*
%TO.P,J5,05*%
X43540000Y-88540000D03*
%TO.P,J5,06*%
%TO.N,SIPM_K6*%
X49270000Y-88540000D03*
%TO.P,J5,07*%
%TO.N,GNDA*%
X43540000Y-87740000D03*
%TO.P,J5,08*%
X49270000Y-87740000D03*
%TO.P,J5,09*%
X43540000Y-86940000D03*
%TO.P,J5,10*%
%TO.N,SIPM_K5*%
X49270000Y-86940000D03*
%TO.P,J5,11*%
%TO.N,GNDA*%
X43540000Y-86140000D03*
%TO.P,J5,12*%
X49270000Y-86140000D03*
%TO.P,J5,13*%
X43540000Y-85340000D03*
%TO.P,J5,14*%
%TO.N,SIPM_K4*%
X49270000Y-85340000D03*
%TO.P,J5,15*%
%TO.N,GNDA*%
X43540000Y-84540000D03*
%TO.P,J5,16*%
X49270000Y-84540000D03*
%TO.P,J5,17*%
X43540000Y-83740000D03*
%TO.P,J5,18*%
%TO.N,SIPM_K3*%
X49270000Y-83740000D03*
%TO.P,J5,19*%
%TO.N,GNDA*%
X43540000Y-82940000D03*
%TO.P,J5,20*%
X49270000Y-82940000D03*
%TO.P,J5,21*%
X43540000Y-82140000D03*
%TO.P,J5,22*%
%TO.N,SIPM_K2*%
X49270000Y-82140000D03*
%TO.P,J5,23*%
%TO.N,GNDA*%
X43540000Y-81340000D03*
%TO.P,J5,24*%
X49270000Y-81340000D03*
%TO.P,J5,25*%
X43540000Y-80540000D03*
%TO.P,J5,26*%
%TO.N,SIPM_K1*%
X49270000Y-80540000D03*
%TO.P,J5,27*%
%TO.N,SIPM_K8*%
X43540000Y-79740000D03*
%TO.P,J5,28*%
%TO.N,GNDA*%
X49270000Y-79740000D03*
%TO.P,J5,29*%
X43540000Y-78940000D03*
%TO.P,J5,30*%
%TO.N,SIPM_K0*%
X49270000Y-78940000D03*
%TO.P,J5,31*%
%TO.N,SIPM_K9*%
X43540000Y-78140000D03*
%TO.P,J5,32*%
%TO.N,GNDA*%
X49270000Y-78140000D03*
%TO.P,J5,33*%
X43540000Y-77340000D03*
%TO.P,J5,34*%
X49270000Y-77340000D03*
%TO.P,J5,35*%
%TO.N,SIPM_K10*%
X43540000Y-76540000D03*
%TO.P,J5,36*%
%TO.N,GNDA*%
X49270000Y-76540000D03*
%TO.P,J5,37*%
X43540000Y-75740000D03*
%TO.P,J5,38*%
X49270000Y-75740000D03*
%TO.P,J5,39*%
%TO.N,SIPM_K11*%
X43540000Y-74940000D03*
%TO.P,J5,40*%
%TO.N,IV*%
X49270000Y-74940000D03*
%TO.P,J5,41*%
%TO.N,SIPM_K12*%
X43540000Y-70140000D03*
%TO.P,J5,42*%
%TO.N,IV*%
X49270000Y-70140000D03*
%TO.P,J5,43*%
%TO.N,GNDA*%
X43540000Y-69340000D03*
%TO.P,J5,44*%
X49270000Y-69340000D03*
%TO.P,J5,45*%
%TO.N,SIPM_K13*%
X43540000Y-68540000D03*
%TO.P,J5,46*%
%TO.N,GNDA*%
X49270000Y-68540000D03*
%TO.P,J5,47*%
X43540000Y-67740000D03*
%TO.P,J5,48*%
X49270000Y-67740000D03*
%TO.P,J5,49*%
%TO.N,SIPM_K14*%
X43540000Y-66940000D03*
%TO.P,J5,50*%
%TO.N,GNDA*%
X49270000Y-66940000D03*
%TO.P,J5,51*%
X43540000Y-66140000D03*
%TO.P,J5,52*%
%TO.N,SIPM_K23*%
X49270000Y-66140000D03*
%TO.P,J5,53*%
%TO.N,SIPM_K15*%
X43540000Y-65340000D03*
%TO.P,J5,54*%
%TO.N,GNDA*%
X49270000Y-65340000D03*
%TO.P,J5,55*%
X43540000Y-64540000D03*
%TO.P,J5,56*%
%TO.N,SIPM_K22*%
X49270000Y-64540000D03*
%TO.P,J5,57*%
%TO.N,GNDA*%
X43540000Y-63740000D03*
%TO.P,J5,58*%
X49270000Y-63740000D03*
%TO.P,J5,59*%
X43540000Y-62940000D03*
%TO.P,J5,60*%
%TO.N,SIPM_K21*%
X49270000Y-62940000D03*
%TO.P,J5,61*%
%TO.N,GNDA*%
X43540000Y-62140000D03*
%TO.P,J5,62*%
X49270000Y-62140000D03*
%TO.P,J5,63*%
X43540000Y-61340000D03*
%TO.P,J5,64*%
%TO.N,SIPM_K20*%
X49270000Y-61340000D03*
%TO.P,J5,65*%
%TO.N,GNDA*%
X43540000Y-60540000D03*
%TO.P,J5,66*%
X49270000Y-60540000D03*
%TO.P,J5,67*%
X43540000Y-59740000D03*
%TO.P,J5,68*%
%TO.N,SIPM_K19*%
X49270000Y-59740000D03*
%TO.P,J5,69*%
%TO.N,GNDA*%
X43540000Y-58940000D03*
%TO.P,J5,70*%
X49270000Y-58940000D03*
%TO.P,J5,71*%
X43540000Y-58140000D03*
%TO.P,J5,72*%
%TO.N,SIPM_K18*%
X49270000Y-58140000D03*
%TO.P,J5,73*%
%TO.N,GNDA*%
X43540000Y-57340000D03*
%TO.P,J5,74*%
X49270000Y-57340000D03*
%TO.P,J5,75*%
X43540000Y-56540000D03*
%TO.P,J5,76*%
%TO.N,SIPM_K17*%
X49270000Y-56540000D03*
%TO.P,J5,77*%
%TO.N,THERM4*%
X43540000Y-55740000D03*
%TO.P,J5,78*%
%TO.N,GNDA*%
X49270000Y-55740000D03*
%TO.P,J5,79*%
%TO.N,THERM5*%
X43540000Y-54940000D03*
%TO.P,J5,80*%
%TO.N,SIPM_K16*%
X49270000Y-54940000D03*
D13*
%TO.P,J5,G1*%
%TO.N,GNDA*%
X46405000Y-90605000D03*
D14*
%TO.P,J5,G2*%
X46405000Y-85715000D03*
%TO.P,J5,G3*%
X46405000Y-79365000D03*
D13*
%TO.P,J5,G4*%
X46405000Y-74475000D03*
%TO.P,J5,G5*%
X46405000Y-70605000D03*
D14*
%TO.P,J5,G6*%
X46405000Y-65715000D03*
%TO.P,J5,G7*%
X46405000Y-59365000D03*
D13*
%TO.P,J5,G8*%
X46405000Y-54475000D03*
%TD*%
D15*
%TO.N,GNDA*%
X56925000Y-117925000D03*
X41925000Y-32925000D03*
X61925000Y-87925000D03*
X26925000Y-67925000D03*
X36925000Y-117925000D03*
X71925000Y-127925000D03*
X66925000Y-22925000D03*
X41925000Y-72925000D03*
X66925000Y-117925000D03*
X31925000Y-32925000D03*
X31925000Y-72925000D03*
X31925000Y-27827500D03*
X46925000Y-117925000D03*
X31925000Y-42925000D03*
X36940000Y-42980000D03*
X52540000Y-86840000D03*
X66925000Y-37925000D03*
X31925000Y-77925000D03*
X36925000Y-22925000D03*
X61925000Y-77925000D03*
X16925000Y-122925000D03*
X60380000Y-51430000D03*
X66925000Y-112925000D03*
X41925000Y-82925000D03*
X50290000Y-46610000D03*
X26925000Y-122925000D03*
X61925000Y-127925000D03*
X34480000Y-69320000D03*
X66925000Y-12925000D03*
X56925000Y-112925000D03*
X46925000Y-122925000D03*
X36930000Y-32950000D03*
X11925000Y-27925000D03*
X42190000Y-107680000D03*
X31925000Y-87925000D03*
X51925000Y-32925000D03*
X16925000Y-22925000D03*
X66925000Y-127925000D03*
X31925000Y-97925000D03*
X11925000Y-107925000D03*
X26920000Y-32920000D03*
X26925000Y-52925000D03*
X11925000Y-127925000D03*
X56925000Y-67925000D03*
X61925000Y-52925000D03*
X56925000Y-37925000D03*
X31925000Y-12925000D03*
X11925000Y-122925000D03*
X51925000Y-67925000D03*
X46925000Y-42925000D03*
X56925000Y-22925000D03*
X61925000Y-67925000D03*
X36925000Y-57925000D03*
X56925000Y-27925000D03*
X26893563Y-107659978D03*
X11925000Y-92925000D03*
X31925000Y-117925000D03*
X41370000Y-77323122D03*
X51925000Y-27925000D03*
X66925000Y-57925000D03*
X51925000Y-22925000D03*
X21925000Y-22925000D03*
X66925000Y-102925000D03*
X41925000Y-52925000D03*
X31925000Y-57925000D03*
X36925000Y-82925000D03*
X31925000Y-47925000D03*
X31925000Y-17925000D03*
X36940000Y-37910000D03*
X26925000Y-22925000D03*
X46925000Y-47925000D03*
X36925000Y-92925000D03*
X11925000Y-12925000D03*
X66925000Y-27925000D03*
X53470000Y-62270000D03*
X51925000Y-97925000D03*
X61925000Y-22925000D03*
X40870000Y-66000000D03*
X26925000Y-92925000D03*
X51430000Y-88390000D03*
X66925000Y-92925000D03*
X31925000Y-92925000D03*
X52380000Y-81350000D03*
X41925000Y-87925000D03*
X26925000Y-47925000D03*
X31925000Y-127925000D03*
X26925000Y-82925000D03*
X56925000Y-12925000D03*
X61925000Y-12925000D03*
X66925000Y-62925000D03*
X46925000Y-62925000D03*
X61925000Y-122925000D03*
X46925000Y-77925000D03*
X55937500Y-102925000D03*
X61925000Y-117925000D03*
X46925000Y-72925000D03*
X31843563Y-107659978D03*
X36960000Y-75700000D03*
X56925000Y-107925000D03*
X54600000Y-51130000D03*
X46925000Y-67925000D03*
X21925000Y-17925000D03*
X66925000Y-87925000D03*
X21790000Y-102925000D03*
X61925000Y-32925000D03*
X61925000Y-107925000D03*
X36925000Y-127925000D03*
X56590000Y-41680000D03*
X47760000Y-53560000D03*
X21775000Y-112940000D03*
X66925000Y-122925000D03*
X61925000Y-27925000D03*
X46925000Y-112925000D03*
X53410000Y-60530000D03*
X57973814Y-86876186D03*
X67973814Y-96876186D03*
X51925000Y-37925000D03*
X46925000Y-12925000D03*
X34530000Y-67700000D03*
X41380000Y-78950000D03*
X41370000Y-75733122D03*
X46925000Y-37925000D03*
X21925000Y-122925000D03*
X36925000Y-47925000D03*
X53530000Y-65410000D03*
X61925000Y-17925000D03*
X26925000Y-127925000D03*
X56925000Y-127925000D03*
X31925000Y-52925000D03*
X61925000Y-102925000D03*
X41925000Y-27925000D03*
X51925000Y-112925000D03*
X11925000Y-22925000D03*
X41925000Y-57925000D03*
X51925000Y-17925000D03*
X61925000Y-62925000D03*
X36925000Y-112925000D03*
X51925000Y-127925000D03*
X66925000Y-67925000D03*
X48070000Y-104000000D03*
X36925000Y-62925000D03*
X31925000Y-37960000D03*
X62973814Y-91876186D03*
X51925000Y-12925000D03*
X36925000Y-122925000D03*
X53490000Y-63730000D03*
X26925000Y-62925000D03*
X26925000Y-117925000D03*
X46925000Y-97925000D03*
X36925000Y-12925000D03*
X40930000Y-67800000D03*
X41925000Y-37925000D03*
X26925000Y-27827500D03*
X46925000Y-17925000D03*
X41925000Y-62925000D03*
X55937500Y-97925000D03*
X26925000Y-17925000D03*
X41925000Y-92920000D03*
X51925000Y-42925000D03*
X71925000Y-17925000D03*
X41836186Y-112836186D03*
X26925000Y-87925000D03*
X31925000Y-82925000D03*
X21925000Y-127925000D03*
X46925000Y-27925000D03*
X58920000Y-57540000D03*
X11925000Y-67925000D03*
X51520000Y-91600000D03*
X41925000Y-22925000D03*
X48520000Y-91350000D03*
X26925000Y-42925000D03*
X36960000Y-77350000D03*
X51770000Y-50720000D03*
X41925000Y-117925000D03*
X58440000Y-47910000D03*
X36925000Y-87925000D03*
X36925000Y-72925000D03*
X31925000Y-122925000D03*
X40990000Y-69360000D03*
X66925000Y-17925000D03*
X56925000Y-17925000D03*
X52350000Y-82940000D03*
X53280000Y-58750000D03*
X66925000Y-107925000D03*
X61925000Y-82925000D03*
X41925000Y-17925000D03*
X41840000Y-42930000D03*
X61925000Y-112925000D03*
X26925000Y-72925000D03*
X42033336Y-102591284D03*
X66925000Y-47925000D03*
X46925000Y-127925000D03*
X26920000Y-38010000D03*
X66925000Y-77925000D03*
X41925000Y-12925000D03*
X41925000Y-127925000D03*
X36925000Y-52925000D03*
X46925000Y-32925000D03*
X36813563Y-107659978D03*
X55030000Y-92200000D03*
X57893866Y-92486238D03*
X46925000Y-22925000D03*
X56925000Y-122925000D03*
X61925000Y-42925000D03*
X51836186Y-102836186D03*
X51925000Y-77925000D03*
X51902545Y-107840000D03*
X11925000Y-52925000D03*
X36925000Y-27925000D03*
X41925000Y-122925000D03*
X41840000Y-47920000D03*
X31925000Y-22925000D03*
X56925000Y-77925000D03*
X36925000Y-17925000D03*
X46925000Y-82925000D03*
X31925000Y-112925000D03*
X46925000Y-57925000D03*
X26925000Y-102925000D03*
X26910000Y-112940000D03*
X51925000Y-117925000D03*
X71925000Y-12925000D03*
X26925000Y-12925000D03*
X61925000Y-97925000D03*
X51925000Y-122925000D03*
X56925000Y-32925000D03*
X58730000Y-90110000D03*
X11925000Y-17925000D03*
X26925000Y-97925000D03*
X21758563Y-107659978D03*
X21925000Y-12925000D03*
X46700000Y-107720000D03*
X21790000Y-117925000D03*
X52440000Y-84530000D03*
X52520000Y-56850000D03*
%TD*%
%TO.N,SIPM_K7*%
D16*
X17540000Y-108540000D02*
X42410000Y-108540000D01*
X50230000Y-91100000D02*
X50230000Y-100720000D01*
X42410000Y-108540000D02*
X50230000Y-100720000D01*
X49270000Y-90140000D02*
X50230000Y-91100000D01*
%TO.N,SIPM_K23*%
X49270000Y-66140000D02*
X69250000Y-66140000D01*
X69250000Y-66140000D02*
X70850000Y-64540000D01*
X70850000Y-64540000D02*
X75270000Y-64540000D01*
%TO.N,SIPM_K2*%
X49270000Y-82140000D02*
X57717200Y-82140000D01*
X57717200Y-82140000D02*
X72117200Y-96540000D01*
X72117200Y-96540000D02*
X75270000Y-96540000D01*
%TO.N,SIPM_K13*%
X28692900Y-68540000D02*
X20692900Y-60540000D01*
X43540000Y-68540000D02*
X28692900Y-68540000D01*
X20692900Y-60540000D02*
X17540000Y-60540000D01*
%TO.N,SIPM_K16*%
X49270000Y-54940000D02*
X50190000Y-54020000D01*
X50190000Y-54020000D02*
X50190000Y-49330000D01*
X37400000Y-36540000D02*
X17540000Y-36540000D01*
X50190000Y-49330000D02*
X37400000Y-36540000D01*
%TO.N,SIPM_K17*%
X53040000Y-45900000D02*
X53040000Y-54570000D01*
X17540000Y-28540000D02*
X35680000Y-28540000D01*
X53040000Y-54570000D02*
X51070000Y-56540000D01*
X35680000Y-28540000D02*
X53040000Y-45900000D01*
X51070000Y-56540000D02*
X49270000Y-56540000D01*
%TO.N,SIPM_K10*%
X43540000Y-76540000D02*
X28692900Y-76540000D01*
X28692900Y-76540000D02*
X20692900Y-84540000D01*
X20692900Y-84540000D02*
X17540000Y-84540000D01*
%TO.N,SIPM_K3*%
X70980000Y-104540000D02*
X63735000Y-97295000D01*
X63735000Y-93645000D02*
X53830000Y-83740000D01*
X63735000Y-97295000D02*
X63735000Y-93645000D01*
X53830000Y-83740000D02*
X49270000Y-83740000D01*
X75270000Y-104540000D02*
X70980000Y-104540000D01*
%TO.N,SIPM_K8*%
X41492900Y-79740000D02*
X20692900Y-100540000D01*
X43540000Y-79740000D02*
X41492900Y-79740000D01*
X20692900Y-100540000D02*
X17540000Y-100540000D01*
%TO.N,SIPM_K12*%
X20692900Y-68540000D02*
X17540000Y-68540000D01*
X22292900Y-70140000D02*
X20692900Y-68540000D01*
X43540000Y-70140000D02*
X22292900Y-70140000D01*
%TO.N,SIPM_K20*%
X67960000Y-42150000D02*
X69570000Y-40540000D01*
X56210000Y-61340000D02*
X67960000Y-49590000D01*
X69570000Y-40540000D02*
X75270000Y-40540000D01*
X49270000Y-61340000D02*
X53937500Y-61340000D01*
X67960000Y-49590000D02*
X67960000Y-42150000D01*
X55262500Y-61340000D02*
X56210000Y-61340000D01*
X53981917Y-61340000D02*
X55218083Y-61340000D01*
%TO.N,SIPM_K14*%
X35092900Y-66940000D02*
X20692900Y-52540000D01*
X20692900Y-52540000D02*
X17540000Y-52540000D01*
X43540000Y-66940000D02*
X35092900Y-66940000D01*
%TO.N,SIPM_K6*%
X49270000Y-88540000D02*
X50340000Y-88540000D01*
X53910000Y-92110000D02*
X53910000Y-101770000D01*
X53910000Y-101770000D02*
X39140000Y-116540000D01*
X50340000Y-88540000D02*
X53910000Y-92110000D01*
X39140000Y-116540000D02*
X17540000Y-116540000D01*
%TO.N,SIPM_K0*%
X70517200Y-78940000D02*
X72117200Y-80540000D01*
X49270000Y-78940000D02*
X70517200Y-78940000D01*
X72117200Y-80540000D02*
X75270000Y-80540000D01*
%TO.N,SIPM_K19*%
X53580000Y-59740000D02*
X63660000Y-49660000D01*
X63660000Y-49660000D02*
X63660000Y-38830000D01*
X69950000Y-32540000D02*
X75270000Y-32540000D01*
X63660000Y-38830000D02*
X69950000Y-32540000D01*
X49270000Y-59740000D02*
X53580000Y-59740000D01*
%TO.N,SIPM_K11*%
X20692900Y-76540000D02*
X17540000Y-76540000D01*
X43540000Y-74940000D02*
X22292900Y-74940000D01*
X22292900Y-74940000D02*
X20692900Y-76540000D01*
%TO.N,SIPM_K21*%
X57717200Y-62940000D02*
X72117200Y-48540000D01*
X49270000Y-62940000D02*
X57717200Y-62940000D01*
X72117200Y-48540000D02*
X75270000Y-48540000D01*
%TO.N,SIPM_K22*%
X64115100Y-64540000D02*
X49270000Y-64540000D01*
X75270000Y-56540000D02*
X72115100Y-56540000D01*
X72115100Y-56540000D02*
X64115100Y-64540000D01*
%TO.N,SIPM_K9*%
X43540000Y-78140000D02*
X35092900Y-78140000D01*
X20692900Y-92540000D02*
X17540000Y-92540000D01*
X35092900Y-78140000D02*
X20692900Y-92540000D01*
%TO.N,SIPM_K1*%
X72117200Y-88540000D02*
X75270000Y-88540000D01*
X64117200Y-80540000D02*
X72117200Y-88540000D01*
X49270000Y-80540000D02*
X64117200Y-80540000D01*
%TO.N,SIPM_K15*%
X20692900Y-44540000D02*
X17540000Y-44540000D01*
X43540000Y-65340000D02*
X41492900Y-65340000D01*
X41492900Y-65340000D02*
X20692900Y-44540000D01*
%TO.N,IV*%
X49270000Y-74940000D02*
X50769200Y-74940000D01*
X50769200Y-72540000D02*
X75270000Y-72540000D01*
X50769200Y-72540000D02*
X50769200Y-74940000D01*
X50769200Y-70140000D02*
X50769200Y-72540000D01*
X49270000Y-70140000D02*
X50769200Y-70140000D01*
%TO.N,SIPM_K18*%
X52450000Y-58140000D02*
X49270000Y-58140000D01*
X59060000Y-47593083D02*
X59102500Y-47635583D01*
X59060000Y-48226917D02*
X59060000Y-51530000D01*
X59060000Y-38410000D02*
X59060000Y-47593083D01*
X59060000Y-51530000D02*
X52450000Y-58140000D01*
X72930000Y-24540000D02*
X59060000Y-38410000D01*
X59102500Y-48184417D02*
X59060000Y-48226917D01*
X59102500Y-47635583D02*
X59102500Y-48184417D01*
X75270000Y-24540000D02*
X72930000Y-24540000D01*
%TO.N,SIPM_K4*%
X49270000Y-85340000D02*
X52390000Y-85340000D01*
X52390000Y-85340000D02*
X59802100Y-92752100D01*
X59802100Y-92752100D02*
X59802100Y-99017900D01*
X59802100Y-99017900D02*
X73324200Y-112540000D01*
X73324200Y-112540000D02*
X75270000Y-112540000D01*
%TO.N,SIPM_K5*%
X51340000Y-86940000D02*
X56650000Y-92250000D01*
X56650000Y-103945500D02*
X73244500Y-120540000D01*
X56650000Y-92250000D02*
X56650000Y-103945500D01*
X49270000Y-86940000D02*
X51340000Y-86940000D01*
X73244500Y-120540000D02*
X75270000Y-120540000D01*
%TD*%
%TA.AperFunction,Conductor*%
%TO.N,GNDA*%
G36*
X83252539Y-10520185D02*
G01*
X83298294Y-10572989D01*
X83309500Y-10624500D01*
X83309500Y-134455500D01*
X83289815Y-134522539D01*
X83237011Y-134568294D01*
X83185500Y-134579500D01*
X9624500Y-134579500D01*
X9557461Y-134559815D01*
X9511706Y-134507011D01*
X9500500Y-134455500D01*
X9500500Y-129958711D01*
X15689500Y-129958711D01*
X15689500Y-130201288D01*
X15721161Y-130441785D01*
X15783947Y-130676104D01*
X15876773Y-130900205D01*
X15876776Y-130900212D01*
X15998064Y-131110289D01*
X15998066Y-131110292D01*
X15998067Y-131110293D01*
X16145733Y-131302736D01*
X16145739Y-131302743D01*
X16317256Y-131474260D01*
X16317262Y-131474265D01*
X16509711Y-131621936D01*
X16719788Y-131743224D01*
X16943900Y-131836054D01*
X17178211Y-131898838D01*
X17358586Y-131922584D01*
X17418711Y-131930500D01*
X17418712Y-131930500D01*
X17661289Y-131930500D01*
X17709388Y-131924167D01*
X17901789Y-131898838D01*
X18136100Y-131836054D01*
X18360212Y-131743224D01*
X18570289Y-131621936D01*
X18762738Y-131474265D01*
X18934265Y-131302738D01*
X19081936Y-131110289D01*
X19203224Y-130900212D01*
X19296054Y-130676100D01*
X19358838Y-130441789D01*
X19390500Y-130201288D01*
X19390500Y-129958712D01*
X19390500Y-129958711D01*
X73419500Y-129958711D01*
X73419500Y-130201288D01*
X73451161Y-130441785D01*
X73513947Y-130676104D01*
X73606773Y-130900205D01*
X73606776Y-130900212D01*
X73728064Y-131110289D01*
X73728066Y-131110292D01*
X73728067Y-131110293D01*
X73875733Y-131302736D01*
X73875739Y-131302743D01*
X74047256Y-131474260D01*
X74047262Y-131474265D01*
X74239711Y-131621936D01*
X74449788Y-131743224D01*
X74673900Y-131836054D01*
X74908211Y-131898838D01*
X75088586Y-131922584D01*
X75148711Y-131930500D01*
X75148712Y-131930500D01*
X75391289Y-131930500D01*
X75439388Y-131924167D01*
X75631789Y-131898838D01*
X75866100Y-131836054D01*
X76090212Y-131743224D01*
X76300289Y-131621936D01*
X76492738Y-131474265D01*
X76664265Y-131302738D01*
X76811936Y-131110289D01*
X76933224Y-130900212D01*
X77026054Y-130676100D01*
X77088838Y-130441789D01*
X77120500Y-130201288D01*
X77120500Y-129958712D01*
X77088838Y-129718211D01*
X77026054Y-129483900D01*
X76933224Y-129259788D01*
X76811936Y-129049711D01*
X76664265Y-128857262D01*
X76664260Y-128857256D01*
X76492743Y-128685739D01*
X76492736Y-128685733D01*
X76300293Y-128538067D01*
X76300292Y-128538066D01*
X76300289Y-128538064D01*
X76090212Y-128416776D01*
X76090205Y-128416773D01*
X75866104Y-128323947D01*
X75631785Y-128261161D01*
X75391289Y-128229500D01*
X75391288Y-128229500D01*
X75148712Y-128229500D01*
X75148711Y-128229500D01*
X74908214Y-128261161D01*
X74673895Y-128323947D01*
X74449794Y-128416773D01*
X74449785Y-128416777D01*
X74239706Y-128538067D01*
X74047263Y-128685733D01*
X74047256Y-128685739D01*
X73875739Y-128857256D01*
X73875733Y-128857263D01*
X73728067Y-129049706D01*
X73606777Y-129259785D01*
X73606773Y-129259794D01*
X73513947Y-129483895D01*
X73451161Y-129718214D01*
X73419500Y-129958711D01*
X19390500Y-129958711D01*
X19358838Y-129718211D01*
X19296054Y-129483900D01*
X19203224Y-129259788D01*
X19081936Y-129049711D01*
X18934265Y-128857262D01*
X18934260Y-128857256D01*
X18762743Y-128685739D01*
X18762736Y-128685733D01*
X18570293Y-128538067D01*
X18570292Y-128538066D01*
X18570289Y-128538064D01*
X18360212Y-128416776D01*
X18360205Y-128416773D01*
X18136104Y-128323947D01*
X17901785Y-128261161D01*
X17661289Y-128229500D01*
X17661288Y-128229500D01*
X17418712Y-128229500D01*
X17418711Y-128229500D01*
X17178214Y-128261161D01*
X16943895Y-128323947D01*
X16719794Y-128416773D01*
X16719785Y-128416777D01*
X16509706Y-128538067D01*
X16317263Y-128685733D01*
X16317256Y-128685739D01*
X16145739Y-128857256D01*
X16145733Y-128857263D01*
X15998067Y-129049706D01*
X15876777Y-129259785D01*
X15876773Y-129259794D01*
X15783947Y-129483895D01*
X15721161Y-129718214D01*
X15689500Y-129958711D01*
X9500500Y-129958711D01*
X9500500Y-108449448D01*
X16389500Y-108449448D01*
X16389500Y-108630551D01*
X16417829Y-108809410D01*
X16473787Y-108981636D01*
X16473788Y-108981639D01*
X16556006Y-109142997D01*
X16662441Y-109289494D01*
X16662445Y-109289499D01*
X16790500Y-109417554D01*
X16790505Y-109417558D01*
X16918287Y-109510396D01*
X16937006Y-109523996D01*
X17042484Y-109577740D01*
X17098360Y-109606211D01*
X17098363Y-109606212D01*
X17184476Y-109634191D01*
X17270591Y-109662171D01*
X17353429Y-109675291D01*
X17449449Y-109690500D01*
X17449454Y-109690500D01*
X17630551Y-109690500D01*
X17717259Y-109676765D01*
X17809409Y-109662171D01*
X17981639Y-109606211D01*
X18142994Y-109523996D01*
X18289501Y-109417553D01*
X18417553Y-109289501D01*
X18523996Y-109142994D01*
X18560829Y-109070704D01*
X18608804Y-109019909D01*
X18671314Y-109003000D01*
X42470952Y-109003000D01*
X42470955Y-109003000D01*
X42588711Y-108971447D01*
X42694289Y-108910492D01*
X50600492Y-101004289D01*
X50661447Y-100898711D01*
X50693000Y-100780955D01*
X50693000Y-100659045D01*
X50693000Y-91039045D01*
X50661447Y-90921289D01*
X50661443Y-90921282D01*
X50600496Y-90815717D01*
X50600490Y-90815709D01*
X50567167Y-90782386D01*
X50533682Y-90721063D01*
X50538666Y-90651371D01*
X50571637Y-90607328D01*
X50569640Y-90605331D01*
X50577766Y-90597205D01*
X50657206Y-90517765D01*
X50702585Y-90414991D01*
X50705500Y-90389865D01*
X50705499Y-89890136D01*
X50703264Y-89870867D01*
X50715092Y-89802008D01*
X50762272Y-89750474D01*
X50829824Y-89732627D01*
X50896301Y-89754135D01*
X50914119Y-89768900D01*
X53410681Y-92265462D01*
X53444166Y-92326785D01*
X53447000Y-92353143D01*
X53447000Y-101526857D01*
X53427315Y-101593896D01*
X53410681Y-101614538D01*
X38984538Y-116040681D01*
X38923215Y-116074166D01*
X38896857Y-116077000D01*
X18671314Y-116077000D01*
X18604275Y-116057315D01*
X18560829Y-116009295D01*
X18523996Y-115937006D01*
X18510396Y-115918287D01*
X18417558Y-115790505D01*
X18417554Y-115790500D01*
X18289499Y-115662445D01*
X18289494Y-115662441D01*
X18142997Y-115556006D01*
X18142996Y-115556005D01*
X18142994Y-115556004D01*
X18091300Y-115529664D01*
X17981639Y-115473788D01*
X17981636Y-115473787D01*
X17809410Y-115417829D01*
X17630551Y-115389500D01*
X17630546Y-115389500D01*
X17449454Y-115389500D01*
X17449449Y-115389500D01*
X17270589Y-115417829D01*
X17098363Y-115473787D01*
X17098360Y-115473788D01*
X16937002Y-115556006D01*
X16790505Y-115662441D01*
X16790500Y-115662445D01*
X16662445Y-115790500D01*
X16662441Y-115790505D01*
X16556006Y-115937002D01*
X16473788Y-116098360D01*
X16473787Y-116098363D01*
X16417829Y-116270589D01*
X16389500Y-116449448D01*
X16389500Y-116630551D01*
X16417829Y-116809410D01*
X16473787Y-116981636D01*
X16473788Y-116981639D01*
X16556006Y-117142997D01*
X16662441Y-117289494D01*
X16662445Y-117289499D01*
X16790500Y-117417554D01*
X16790505Y-117417558D01*
X16918287Y-117510396D01*
X16937006Y-117523996D01*
X17042484Y-117577740D01*
X17098360Y-117606211D01*
X17098363Y-117606212D01*
X17184476Y-117634191D01*
X17270591Y-117662171D01*
X17353429Y-117675291D01*
X17449449Y-117690500D01*
X17449454Y-117690500D01*
X17630551Y-117690500D01*
X17717259Y-117676765D01*
X17809409Y-117662171D01*
X17981639Y-117606211D01*
X18142994Y-117523996D01*
X18289501Y-117417553D01*
X18417553Y-117289501D01*
X18523996Y-117142994D01*
X18560829Y-117070704D01*
X18608804Y-117019909D01*
X18671314Y-117003000D01*
X39200952Y-117003000D01*
X39200955Y-117003000D01*
X39318711Y-116971447D01*
X39424289Y-116910492D01*
X54280492Y-102054289D01*
X54341447Y-101948712D01*
X54373000Y-101830955D01*
X54373000Y-101709045D01*
X54373000Y-92049045D01*
X54359279Y-91997838D01*
X54341447Y-91931288D01*
X54341311Y-91931053D01*
X54280494Y-91825714D01*
X54280489Y-91825708D01*
X50705372Y-88250591D01*
X50679618Y-88212994D01*
X50657208Y-88162239D01*
X50657207Y-88162237D01*
X50657206Y-88162235D01*
X50577765Y-88082794D01*
X50564643Y-88077000D01*
X50474992Y-88037415D01*
X50449865Y-88034500D01*
X48090143Y-88034500D01*
X48090117Y-88034502D01*
X48065012Y-88037413D01*
X48065008Y-88037415D01*
X47962235Y-88082793D01*
X47882794Y-88162234D01*
X47837415Y-88265006D01*
X47837415Y-88265008D01*
X47834500Y-88290131D01*
X47834500Y-88789856D01*
X47834502Y-88789882D01*
X47837413Y-88814987D01*
X47837415Y-88814991D01*
X47882793Y-88917764D01*
X47882794Y-88917765D01*
X47962235Y-88997206D01*
X48065009Y-89042585D01*
X48090135Y-89045500D01*
X50139356Y-89045499D01*
X50206395Y-89065184D01*
X50227037Y-89081818D01*
X50571098Y-89425879D01*
X50604583Y-89487202D01*
X50599599Y-89556894D01*
X50557727Y-89612827D01*
X50492263Y-89637244D01*
X50469129Y-89636734D01*
X50449869Y-89634500D01*
X48090143Y-89634500D01*
X48090117Y-89634502D01*
X48065012Y-89637413D01*
X48065008Y-89637415D01*
X47962235Y-89682793D01*
X47882794Y-89762234D01*
X47837415Y-89865006D01*
X47837415Y-89865008D01*
X47834500Y-89890131D01*
X47834500Y-90389856D01*
X47834502Y-90389882D01*
X47837413Y-90414987D01*
X47837415Y-90414991D01*
X47882793Y-90517764D01*
X47882794Y-90517765D01*
X47962235Y-90597206D01*
X48065009Y-90642585D01*
X48090135Y-90645500D01*
X49069356Y-90645499D01*
X49136395Y-90665183D01*
X49157037Y-90681818D01*
X49730681Y-91255462D01*
X49764166Y-91316785D01*
X49767000Y-91343143D01*
X49767000Y-91922156D01*
X49747315Y-91989195D01*
X49694511Y-92034950D01*
X49625353Y-92044894D01*
X49564340Y-92018013D01*
X49559794Y-92014283D01*
X49435238Y-91931056D01*
X49435229Y-91931051D01*
X49296830Y-91873725D01*
X49296822Y-91873723D01*
X49149907Y-91844500D01*
X49149903Y-91844500D01*
X49000097Y-91844500D01*
X49000092Y-91844500D01*
X48853177Y-91873723D01*
X48853169Y-91873725D01*
X48714770Y-91931051D01*
X48714761Y-91931056D01*
X48590209Y-92014280D01*
X48590205Y-92014283D01*
X48484283Y-92120205D01*
X48484280Y-92120209D01*
X48401056Y-92244761D01*
X48401051Y-92244770D01*
X48343725Y-92383169D01*
X48343723Y-92383177D01*
X48314500Y-92530092D01*
X48314500Y-92679907D01*
X48343723Y-92826822D01*
X48343725Y-92826830D01*
X48401051Y-92965229D01*
X48401056Y-92965238D01*
X48484280Y-93089790D01*
X48484283Y-93089794D01*
X48590205Y-93195716D01*
X48590209Y-93195719D01*
X48714761Y-93278943D01*
X48714767Y-93278946D01*
X48714768Y-93278947D01*
X48853170Y-93336275D01*
X48976021Y-93360711D01*
X49000092Y-93365499D01*
X49000096Y-93365500D01*
X49000097Y-93365500D01*
X49149904Y-93365500D01*
X49149905Y-93365499D01*
X49296830Y-93336275D01*
X49435232Y-93278947D01*
X49559791Y-93195719D01*
X49559796Y-93195713D01*
X49564334Y-93191991D01*
X49628643Y-93164677D01*
X49697511Y-93176467D01*
X49749072Y-93223618D01*
X49767000Y-93287843D01*
X49767000Y-100476857D01*
X49747315Y-100543896D01*
X49730681Y-100564538D01*
X42254538Y-108040681D01*
X42193215Y-108074166D01*
X42166857Y-108077000D01*
X18671314Y-108077000D01*
X18604275Y-108057315D01*
X18560829Y-108009295D01*
X18523996Y-107937006D01*
X18510396Y-107918287D01*
X18417558Y-107790505D01*
X18417554Y-107790500D01*
X18289499Y-107662445D01*
X18289494Y-107662441D01*
X18142997Y-107556006D01*
X18142996Y-107556005D01*
X18142994Y-107556004D01*
X18091300Y-107529664D01*
X17981639Y-107473788D01*
X17981636Y-107473787D01*
X17809410Y-107417829D01*
X17630551Y-107389500D01*
X17630546Y-107389500D01*
X17449454Y-107389500D01*
X17449449Y-107389500D01*
X17270589Y-107417829D01*
X17098363Y-107473787D01*
X17098360Y-107473788D01*
X16937002Y-107556006D01*
X16790505Y-107662441D01*
X16790500Y-107662445D01*
X16662445Y-107790500D01*
X16662441Y-107790505D01*
X16556006Y-107937002D01*
X16473788Y-108098360D01*
X16473787Y-108098363D01*
X16417829Y-108270589D01*
X16389500Y-108449448D01*
X9500500Y-108449448D01*
X9500500Y-100449448D01*
X16389500Y-100449448D01*
X16389500Y-100630551D01*
X16417829Y-100809410D01*
X16473787Y-100981636D01*
X16473788Y-100981639D01*
X16556006Y-101142997D01*
X16662441Y-101289494D01*
X16662445Y-101289499D01*
X16790500Y-101417554D01*
X16790505Y-101417558D01*
X16918287Y-101510396D01*
X16937006Y-101523996D01*
X17042484Y-101577740D01*
X17098360Y-101606211D01*
X17098363Y-101606212D01*
X17123989Y-101614538D01*
X17270591Y-101662171D01*
X17353429Y-101675291D01*
X17449449Y-101690500D01*
X17449454Y-101690500D01*
X17630551Y-101690500D01*
X17717259Y-101676765D01*
X17809409Y-101662171D01*
X17981639Y-101606211D01*
X18142994Y-101523996D01*
X18289501Y-101417553D01*
X18417553Y-101289501D01*
X18523996Y-101142994D01*
X18560829Y-101070704D01*
X18608804Y-101019909D01*
X18671314Y-101003000D01*
X20753852Y-101003000D01*
X20753855Y-101003000D01*
X20871611Y-100971447D01*
X20977189Y-100910492D01*
X35197550Y-86690131D01*
X47834500Y-86690131D01*
X47834500Y-87189856D01*
X47834502Y-87189882D01*
X47837413Y-87214987D01*
X47837415Y-87214991D01*
X47882793Y-87317764D01*
X47882794Y-87317765D01*
X47962235Y-87397206D01*
X48065009Y-87442585D01*
X48090135Y-87445500D01*
X50449864Y-87445499D01*
X50449879Y-87445497D01*
X50449882Y-87445497D01*
X50474987Y-87442586D01*
X50474987Y-87442585D01*
X50474991Y-87442585D01*
X50531058Y-87417829D01*
X50540716Y-87413565D01*
X50590801Y-87403000D01*
X51096857Y-87403000D01*
X51163896Y-87422685D01*
X51184538Y-87439319D01*
X56150681Y-92405462D01*
X56184166Y-92466785D01*
X56187000Y-92493143D01*
X56187000Y-103884545D01*
X56187000Y-104006455D01*
X56196171Y-104040681D01*
X56218553Y-104124212D01*
X56218556Y-104124217D01*
X56279503Y-104229782D01*
X56279507Y-104229787D01*
X56279508Y-104229789D01*
X72874008Y-120824289D01*
X72960211Y-120910492D01*
X72960213Y-120910493D01*
X72960217Y-120910496D01*
X73065782Y-120971443D01*
X73065789Y-120971447D01*
X73183545Y-121003000D01*
X74138686Y-121003000D01*
X74205725Y-121022685D01*
X74249171Y-121070705D01*
X74286006Y-121142997D01*
X74392441Y-121289494D01*
X74392445Y-121289499D01*
X74520500Y-121417554D01*
X74520505Y-121417558D01*
X74648287Y-121510396D01*
X74667006Y-121523996D01*
X74772484Y-121577740D01*
X74828360Y-121606211D01*
X74828363Y-121606212D01*
X74914476Y-121634191D01*
X75000591Y-121662171D01*
X75083429Y-121675291D01*
X75179449Y-121690500D01*
X75179454Y-121690500D01*
X75360551Y-121690500D01*
X75447259Y-121676765D01*
X75539409Y-121662171D01*
X75711639Y-121606211D01*
X75872994Y-121523996D01*
X76019501Y-121417553D01*
X76147553Y-121289501D01*
X76253996Y-121142994D01*
X76336211Y-120981639D01*
X76392171Y-120809409D01*
X76406765Y-120717259D01*
X76420500Y-120630551D01*
X76420500Y-120449448D01*
X76404019Y-120345397D01*
X76392171Y-120270591D01*
X76336211Y-120098361D01*
X76336211Y-120098360D01*
X76290829Y-120009295D01*
X76253996Y-119937006D01*
X76240396Y-119918287D01*
X76147558Y-119790505D01*
X76147554Y-119790500D01*
X76019499Y-119662445D01*
X76019494Y-119662441D01*
X75872997Y-119556006D01*
X75872996Y-119556005D01*
X75872994Y-119556004D01*
X75821300Y-119529664D01*
X75711639Y-119473788D01*
X75711636Y-119473787D01*
X75539410Y-119417829D01*
X75360551Y-119389500D01*
X75360546Y-119389500D01*
X75179454Y-119389500D01*
X75179449Y-119389500D01*
X75000589Y-119417829D01*
X74828363Y-119473787D01*
X74828360Y-119473788D01*
X74667002Y-119556006D01*
X74520505Y-119662441D01*
X74520500Y-119662445D01*
X74392445Y-119790500D01*
X74392441Y-119790505D01*
X74286006Y-119937002D01*
X74249171Y-120009295D01*
X74201196Y-120060091D01*
X74138686Y-120077000D01*
X73487643Y-120077000D01*
X73420604Y-120057315D01*
X73399962Y-120040681D01*
X57149319Y-103790038D01*
X57115834Y-103728715D01*
X57113000Y-103702357D01*
X57113000Y-92189047D01*
X57113000Y-92189045D01*
X57081447Y-92071289D01*
X57060467Y-92034950D01*
X57020496Y-91965717D01*
X57020490Y-91965709D01*
X51624290Y-86569509D01*
X51624282Y-86569503D01*
X51518717Y-86508556D01*
X51518712Y-86508553D01*
X51489272Y-86500664D01*
X51400955Y-86477000D01*
X51400952Y-86477000D01*
X50590801Y-86477000D01*
X50540715Y-86466435D01*
X50474991Y-86437415D01*
X50449865Y-86434500D01*
X48090143Y-86434500D01*
X48090117Y-86434502D01*
X48065012Y-86437413D01*
X48065008Y-86437415D01*
X47962235Y-86482793D01*
X47882794Y-86562234D01*
X47837415Y-86665006D01*
X47837415Y-86665008D01*
X47834500Y-86690131D01*
X35197550Y-86690131D01*
X36797550Y-85090131D01*
X47834500Y-85090131D01*
X47834500Y-85589856D01*
X47834502Y-85589882D01*
X47837413Y-85614987D01*
X47837415Y-85614991D01*
X47882793Y-85717764D01*
X47882794Y-85717765D01*
X47962235Y-85797206D01*
X48065009Y-85842585D01*
X48090135Y-85845500D01*
X50449864Y-85845499D01*
X50449879Y-85845497D01*
X50449882Y-85845497D01*
X50474987Y-85842586D01*
X50474987Y-85842585D01*
X50474991Y-85842585D01*
X50530018Y-85818288D01*
X50540716Y-85813565D01*
X50590801Y-85803000D01*
X52146857Y-85803000D01*
X52213896Y-85822685D01*
X52234538Y-85839319D01*
X59302781Y-92907562D01*
X59336266Y-92968885D01*
X59339100Y-92995243D01*
X59339100Y-98956945D01*
X59339100Y-99078855D01*
X59362764Y-99167172D01*
X59370653Y-99196612D01*
X59370656Y-99196617D01*
X59431603Y-99302182D01*
X59431607Y-99302187D01*
X59431608Y-99302189D01*
X72953708Y-112824289D01*
X73039911Y-112910492D01*
X73039913Y-112910493D01*
X73039917Y-112910496D01*
X73145482Y-112971443D01*
X73145489Y-112971447D01*
X73263245Y-113003000D01*
X74138686Y-113003000D01*
X74205725Y-113022685D01*
X74249171Y-113070705D01*
X74286006Y-113142997D01*
X74392441Y-113289494D01*
X74392445Y-113289499D01*
X74520500Y-113417554D01*
X74520505Y-113417558D01*
X74648287Y-113510396D01*
X74667006Y-113523996D01*
X74772484Y-113577740D01*
X74828360Y-113606211D01*
X74828363Y-113606212D01*
X74914476Y-113634191D01*
X75000591Y-113662171D01*
X75083429Y-113675291D01*
X75179449Y-113690500D01*
X75179454Y-113690500D01*
X75360551Y-113690500D01*
X75447259Y-113676765D01*
X75539409Y-113662171D01*
X75711639Y-113606211D01*
X75872994Y-113523996D01*
X76019501Y-113417553D01*
X76147553Y-113289501D01*
X76253996Y-113142994D01*
X76336211Y-112981639D01*
X76392171Y-112809409D01*
X76406765Y-112717259D01*
X76420500Y-112630551D01*
X76420500Y-112449448D01*
X76404019Y-112345397D01*
X76392171Y-112270591D01*
X76336211Y-112098361D01*
X76336211Y-112098360D01*
X76290829Y-112009295D01*
X76253996Y-111937006D01*
X76240396Y-111918287D01*
X76147558Y-111790505D01*
X76147554Y-111790500D01*
X76019499Y-111662445D01*
X76019494Y-111662441D01*
X75872997Y-111556006D01*
X75872996Y-111556005D01*
X75872994Y-111556004D01*
X75821300Y-111529664D01*
X75711639Y-111473788D01*
X75711636Y-111473787D01*
X75539410Y-111417829D01*
X75360551Y-111389500D01*
X75360546Y-111389500D01*
X75179454Y-111389500D01*
X75179449Y-111389500D01*
X75000589Y-111417829D01*
X74828363Y-111473787D01*
X74828360Y-111473788D01*
X74667002Y-111556006D01*
X74520505Y-111662441D01*
X74520500Y-111662445D01*
X74392445Y-111790500D01*
X74392441Y-111790505D01*
X74286006Y-111937002D01*
X74249171Y-112009295D01*
X74201196Y-112060091D01*
X74138686Y-112077000D01*
X73567343Y-112077000D01*
X73500304Y-112057315D01*
X73479662Y-112040681D01*
X60301419Y-98862438D01*
X60267934Y-98801115D01*
X60265100Y-98774757D01*
X60265100Y-92691147D01*
X60265100Y-92691145D01*
X60247046Y-92623767D01*
X60233547Y-92573388D01*
X60233545Y-92573385D01*
X60233545Y-92573383D01*
X60172594Y-92467814D01*
X60172589Y-92467808D01*
X52674290Y-84969509D01*
X52674282Y-84969503D01*
X52568717Y-84908556D01*
X52568712Y-84908553D01*
X52539272Y-84900664D01*
X52450955Y-84877000D01*
X52450952Y-84877000D01*
X50590801Y-84877000D01*
X50540715Y-84866435D01*
X50474991Y-84837415D01*
X50449865Y-84834500D01*
X48090143Y-84834500D01*
X48090117Y-84834502D01*
X48065012Y-84837413D01*
X48065008Y-84837415D01*
X47962235Y-84882793D01*
X47882794Y-84962234D01*
X47837415Y-85065006D01*
X47837415Y-85065008D01*
X47834500Y-85090131D01*
X36797550Y-85090131D01*
X38397550Y-83490131D01*
X47834500Y-83490131D01*
X47834500Y-83989856D01*
X47834502Y-83989882D01*
X47837413Y-84014987D01*
X47837415Y-84014991D01*
X47882793Y-84117764D01*
X47882794Y-84117765D01*
X47962235Y-84197206D01*
X48065009Y-84242585D01*
X48090135Y-84245500D01*
X50449864Y-84245499D01*
X50449879Y-84245497D01*
X50449882Y-84245497D01*
X50474987Y-84242586D01*
X50474987Y-84242585D01*
X50474991Y-84242585D01*
X50530018Y-84218288D01*
X50540716Y-84213565D01*
X50590801Y-84203000D01*
X53586857Y-84203000D01*
X53653896Y-84222685D01*
X53674538Y-84239319D01*
X63235681Y-93800462D01*
X63269166Y-93861785D01*
X63272000Y-93888143D01*
X63272000Y-97234045D01*
X63272000Y-97355955D01*
X63288506Y-97417554D01*
X63303553Y-97473712D01*
X63303556Y-97473717D01*
X63364503Y-97579282D01*
X63364507Y-97579287D01*
X63364508Y-97579289D01*
X70695711Y-104910492D01*
X70695712Y-104910493D01*
X70695714Y-104910494D01*
X70801284Y-104971445D01*
X70801285Y-104971445D01*
X70801288Y-104971447D01*
X70919045Y-105003000D01*
X71040955Y-105003000D01*
X74138686Y-105003000D01*
X74205725Y-105022685D01*
X74249171Y-105070705D01*
X74286006Y-105142997D01*
X74392441Y-105289494D01*
X74392445Y-105289499D01*
X74520500Y-105417554D01*
X74520505Y-105417558D01*
X74648287Y-105510396D01*
X74667006Y-105523996D01*
X74772484Y-105577740D01*
X74828360Y-105606211D01*
X74828363Y-105606212D01*
X74914476Y-105634191D01*
X75000591Y-105662171D01*
X75083429Y-105675291D01*
X75179449Y-105690500D01*
X75179454Y-105690500D01*
X75360551Y-105690500D01*
X75447259Y-105676765D01*
X75539409Y-105662171D01*
X75711639Y-105606211D01*
X75872994Y-105523996D01*
X76019501Y-105417553D01*
X76147553Y-105289501D01*
X76253996Y-105142994D01*
X76336211Y-104981639D01*
X76392171Y-104809409D01*
X76406765Y-104717259D01*
X76420500Y-104630551D01*
X76420500Y-104449448D01*
X76404019Y-104345397D01*
X76392171Y-104270591D01*
X76344612Y-104124217D01*
X76336212Y-104098363D01*
X76336211Y-104098360D01*
X76289382Y-104006455D01*
X76253996Y-103937006D01*
X76215881Y-103884545D01*
X76147558Y-103790505D01*
X76147554Y-103790500D01*
X76019499Y-103662445D01*
X76019494Y-103662441D01*
X75872997Y-103556006D01*
X75872996Y-103556005D01*
X75872994Y-103556004D01*
X75821300Y-103529664D01*
X75711639Y-103473788D01*
X75711636Y-103473787D01*
X75539410Y-103417829D01*
X75360551Y-103389500D01*
X75360546Y-103389500D01*
X75179454Y-103389500D01*
X75179449Y-103389500D01*
X75000589Y-103417829D01*
X74828363Y-103473787D01*
X74828360Y-103473788D01*
X74667002Y-103556006D01*
X74520505Y-103662441D01*
X74520500Y-103662445D01*
X74392445Y-103790500D01*
X74392441Y-103790505D01*
X74286006Y-103937002D01*
X74286004Y-103937006D01*
X74250620Y-104006452D01*
X74249171Y-104009295D01*
X74201196Y-104060091D01*
X74138686Y-104077000D01*
X71223143Y-104077000D01*
X71156104Y-104057315D01*
X71135462Y-104040681D01*
X64234319Y-97139538D01*
X64200834Y-97078215D01*
X64198000Y-97051857D01*
X64198000Y-93584047D01*
X64198000Y-93584045D01*
X64166447Y-93466289D01*
X64166447Y-93466288D01*
X64166447Y-93466287D01*
X64138310Y-93417553D01*
X64105492Y-93360711D01*
X54114289Y-83369508D01*
X54114287Y-83369507D01*
X54114282Y-83369503D01*
X54008717Y-83308556D01*
X54008712Y-83308553D01*
X53979272Y-83300664D01*
X53890955Y-83277000D01*
X53890952Y-83277000D01*
X50590801Y-83277000D01*
X50540715Y-83266435D01*
X50474991Y-83237415D01*
X50449865Y-83234500D01*
X48090143Y-83234500D01*
X48090117Y-83234502D01*
X48065012Y-83237413D01*
X48065008Y-83237415D01*
X47962235Y-83282793D01*
X47882794Y-83362234D01*
X47837415Y-83465006D01*
X47837415Y-83465008D01*
X47834500Y-83490131D01*
X38397550Y-83490131D01*
X39997550Y-81890131D01*
X47834500Y-81890131D01*
X47834500Y-82389856D01*
X47834502Y-82389882D01*
X47837413Y-82414987D01*
X47837415Y-82414991D01*
X47882793Y-82517764D01*
X47882794Y-82517765D01*
X47962235Y-82597206D01*
X48065009Y-82642585D01*
X48090135Y-82645500D01*
X50449864Y-82645499D01*
X50449879Y-82645497D01*
X50449882Y-82645497D01*
X50474987Y-82642586D01*
X50474987Y-82642585D01*
X50474991Y-82642585D01*
X50530018Y-82618288D01*
X50540716Y-82613565D01*
X50590801Y-82603000D01*
X57474057Y-82603000D01*
X57541096Y-82622685D01*
X57561738Y-82639319D01*
X71832911Y-96910492D01*
X71832912Y-96910493D01*
X71832914Y-96910494D01*
X71938484Y-96971445D01*
X71938485Y-96971445D01*
X71938488Y-96971447D01*
X72056245Y-97003000D01*
X74138686Y-97003000D01*
X74205725Y-97022685D01*
X74249170Y-97070704D01*
X74284243Y-97139538D01*
X74286006Y-97142997D01*
X74392441Y-97289494D01*
X74392445Y-97289499D01*
X74520500Y-97417554D01*
X74520505Y-97417558D01*
X74648287Y-97510396D01*
X74667006Y-97523996D01*
X74772484Y-97577740D01*
X74828360Y-97606211D01*
X74828363Y-97606212D01*
X74914476Y-97634191D01*
X75000591Y-97662171D01*
X75083429Y-97675291D01*
X75179449Y-97690500D01*
X75179454Y-97690500D01*
X75360551Y-97690500D01*
X75447259Y-97676765D01*
X75539409Y-97662171D01*
X75711639Y-97606211D01*
X75872994Y-97523996D01*
X76019501Y-97417553D01*
X76147553Y-97289501D01*
X76253996Y-97142994D01*
X76336211Y-96981639D01*
X76392171Y-96809409D01*
X76406765Y-96717259D01*
X76420500Y-96630551D01*
X76420500Y-96449448D01*
X76404019Y-96345397D01*
X76392171Y-96270591D01*
X76336211Y-96098361D01*
X76336211Y-96098360D01*
X76290829Y-96009295D01*
X76253996Y-95937006D01*
X76240396Y-95918287D01*
X76147558Y-95790505D01*
X76147554Y-95790500D01*
X76019499Y-95662445D01*
X76019494Y-95662441D01*
X75872997Y-95556006D01*
X75872996Y-95556005D01*
X75872994Y-95556004D01*
X75821300Y-95529664D01*
X75711639Y-95473788D01*
X75711636Y-95473787D01*
X75539410Y-95417829D01*
X75360551Y-95389500D01*
X75360546Y-95389500D01*
X75179454Y-95389500D01*
X75179449Y-95389500D01*
X75000589Y-95417829D01*
X74828363Y-95473787D01*
X74828360Y-95473788D01*
X74667002Y-95556006D01*
X74520505Y-95662441D01*
X74520500Y-95662445D01*
X74392445Y-95790500D01*
X74392441Y-95790505D01*
X74286006Y-95937002D01*
X74249171Y-96009295D01*
X74201196Y-96060091D01*
X74138686Y-96077000D01*
X72360343Y-96077000D01*
X72293304Y-96057315D01*
X72272662Y-96040681D01*
X58001490Y-81769509D01*
X58001482Y-81769503D01*
X57895917Y-81708556D01*
X57895912Y-81708553D01*
X57866472Y-81700664D01*
X57778155Y-81677000D01*
X57778152Y-81677000D01*
X50590801Y-81677000D01*
X50540715Y-81666435D01*
X50531056Y-81662170D01*
X50474991Y-81637415D01*
X50449865Y-81634500D01*
X48090143Y-81634500D01*
X48090117Y-81634502D01*
X48065012Y-81637413D01*
X48065008Y-81637415D01*
X47962235Y-81682793D01*
X47882794Y-81762234D01*
X47837415Y-81865006D01*
X47837415Y-81865008D01*
X47834500Y-81890131D01*
X39997550Y-81890131D01*
X41597550Y-80290131D01*
X47834500Y-80290131D01*
X47834500Y-80789856D01*
X47834502Y-80789882D01*
X47837413Y-80814987D01*
X47837415Y-80814991D01*
X47882793Y-80917764D01*
X47882794Y-80917765D01*
X47962235Y-80997206D01*
X48065009Y-81042585D01*
X48090135Y-81045500D01*
X50449864Y-81045499D01*
X50449879Y-81045497D01*
X50449882Y-81045497D01*
X50474987Y-81042586D01*
X50474987Y-81042585D01*
X50474991Y-81042585D01*
X50530018Y-81018288D01*
X50540716Y-81013565D01*
X50590801Y-81003000D01*
X63874057Y-81003000D01*
X63941096Y-81022685D01*
X63961738Y-81039319D01*
X71832911Y-88910492D01*
X71832912Y-88910493D01*
X71832914Y-88910494D01*
X71938484Y-88971445D01*
X71938485Y-88971445D01*
X71938488Y-88971447D01*
X72056245Y-89003000D01*
X72178154Y-89003000D01*
X74138686Y-89003000D01*
X74205725Y-89022685D01*
X74249171Y-89070705D01*
X74286006Y-89142997D01*
X74392441Y-89289494D01*
X74392445Y-89289499D01*
X74520500Y-89417554D01*
X74520505Y-89417558D01*
X74616363Y-89487202D01*
X74667006Y-89523996D01*
X74731572Y-89556894D01*
X74828360Y-89606211D01*
X74828363Y-89606212D01*
X74914476Y-89634191D01*
X75000591Y-89662171D01*
X75083429Y-89675291D01*
X75179449Y-89690500D01*
X75179454Y-89690500D01*
X75360551Y-89690500D01*
X75447259Y-89676765D01*
X75539409Y-89662171D01*
X75711639Y-89606211D01*
X75872994Y-89523996D01*
X76019501Y-89417553D01*
X76147553Y-89289501D01*
X76253996Y-89142994D01*
X76336211Y-88981639D01*
X76392171Y-88809409D01*
X76406765Y-88717259D01*
X76420500Y-88630551D01*
X76420500Y-88449448D01*
X76395266Y-88290135D01*
X76392171Y-88270591D01*
X76336211Y-88098361D01*
X76336211Y-88098360D01*
X76290829Y-88009295D01*
X76253996Y-87937006D01*
X76240396Y-87918287D01*
X76147558Y-87790505D01*
X76147554Y-87790500D01*
X76019499Y-87662445D01*
X76019494Y-87662441D01*
X75872997Y-87556006D01*
X75872996Y-87556005D01*
X75872994Y-87556004D01*
X75821300Y-87529664D01*
X75711639Y-87473788D01*
X75711636Y-87473787D01*
X75539410Y-87417829D01*
X75360551Y-87389500D01*
X75360546Y-87389500D01*
X75179454Y-87389500D01*
X75179449Y-87389500D01*
X75000589Y-87417829D01*
X74828363Y-87473787D01*
X74828360Y-87473788D01*
X74667002Y-87556006D01*
X74520505Y-87662441D01*
X74520500Y-87662445D01*
X74392445Y-87790500D01*
X74392441Y-87790505D01*
X74286006Y-87937002D01*
X74249171Y-88009295D01*
X74201196Y-88060091D01*
X74138686Y-88077000D01*
X72360343Y-88077000D01*
X72293304Y-88057315D01*
X72272662Y-88040681D01*
X64401490Y-80169509D01*
X64401482Y-80169503D01*
X64295917Y-80108556D01*
X64295912Y-80108553D01*
X64257874Y-80098361D01*
X64178155Y-80077000D01*
X64178152Y-80077000D01*
X50590801Y-80077000D01*
X50540715Y-80066435D01*
X50474991Y-80037415D01*
X50449865Y-80034500D01*
X48090143Y-80034500D01*
X48090117Y-80034502D01*
X48065012Y-80037413D01*
X48065008Y-80037415D01*
X47962235Y-80082793D01*
X47882794Y-80162234D01*
X47837415Y-80265006D01*
X47837415Y-80265008D01*
X47834500Y-80290131D01*
X41597550Y-80290131D01*
X41648362Y-80239319D01*
X41709685Y-80205834D01*
X41736043Y-80203000D01*
X42219199Y-80203000D01*
X42269284Y-80213564D01*
X42335009Y-80242585D01*
X42360135Y-80245500D01*
X44719864Y-80245499D01*
X44719879Y-80245497D01*
X44719882Y-80245497D01*
X44744987Y-80242586D01*
X44744988Y-80242585D01*
X44744991Y-80242585D01*
X44847765Y-80197206D01*
X44927206Y-80117765D01*
X44972585Y-80014991D01*
X44975500Y-79989865D01*
X44975499Y-79490136D01*
X44975497Y-79490117D01*
X44972586Y-79465012D01*
X44972585Y-79465010D01*
X44972585Y-79465009D01*
X44927206Y-79362235D01*
X44847765Y-79282794D01*
X44834643Y-79277000D01*
X44744992Y-79237415D01*
X44719865Y-79234500D01*
X42360143Y-79234500D01*
X42360117Y-79234502D01*
X42335012Y-79237413D01*
X42335011Y-79237414D01*
X42269284Y-79266435D01*
X42219199Y-79277000D01*
X41553855Y-79277000D01*
X41431945Y-79277000D01*
X41361291Y-79295931D01*
X41314187Y-79308553D01*
X41314182Y-79308556D01*
X41208617Y-79369503D01*
X41208609Y-79369509D01*
X20537438Y-100040681D01*
X20476115Y-100074166D01*
X20449757Y-100077000D01*
X18671314Y-100077000D01*
X18604275Y-100057315D01*
X18560829Y-100009295D01*
X18523996Y-99937006D01*
X18510396Y-99918287D01*
X18417558Y-99790505D01*
X18417554Y-99790500D01*
X18289499Y-99662445D01*
X18289494Y-99662441D01*
X18142997Y-99556006D01*
X18142996Y-99556005D01*
X18142994Y-99556004D01*
X18091300Y-99529664D01*
X17981639Y-99473788D01*
X17981636Y-99473787D01*
X17809410Y-99417829D01*
X17630551Y-99389500D01*
X17630546Y-99389500D01*
X17449454Y-99389500D01*
X17449449Y-99389500D01*
X17270589Y-99417829D01*
X17098363Y-99473787D01*
X17098360Y-99473788D01*
X16937002Y-99556006D01*
X16790505Y-99662441D01*
X16790500Y-99662445D01*
X16662445Y-99790500D01*
X16662441Y-99790505D01*
X16556006Y-99937002D01*
X16473788Y-100098360D01*
X16473787Y-100098363D01*
X16417829Y-100270589D01*
X16389500Y-100449448D01*
X9500500Y-100449448D01*
X9500500Y-92449448D01*
X16389500Y-92449448D01*
X16389500Y-92630551D01*
X16417829Y-92809410D01*
X16473787Y-92981636D01*
X16473788Y-92981639D01*
X16556006Y-93142997D01*
X16662441Y-93289494D01*
X16662445Y-93289499D01*
X16790500Y-93417554D01*
X16790505Y-93417558D01*
X16918287Y-93510396D01*
X16937006Y-93523996D01*
X17042484Y-93577740D01*
X17098360Y-93606211D01*
X17098363Y-93606212D01*
X17184476Y-93634191D01*
X17270591Y-93662171D01*
X17353429Y-93675291D01*
X17449449Y-93690500D01*
X17449454Y-93690500D01*
X17630551Y-93690500D01*
X17717259Y-93676765D01*
X17809409Y-93662171D01*
X17981639Y-93606211D01*
X18142994Y-93523996D01*
X18289501Y-93417553D01*
X18417553Y-93289501D01*
X18523996Y-93142994D01*
X18560829Y-93070704D01*
X18608804Y-93019909D01*
X18671314Y-93003000D01*
X20753852Y-93003000D01*
X20753855Y-93003000D01*
X20871611Y-92971447D01*
X20977189Y-92910492D01*
X35197550Y-78690131D01*
X47834500Y-78690131D01*
X47834500Y-79189856D01*
X47834502Y-79189882D01*
X47837413Y-79214987D01*
X47837415Y-79214991D01*
X47882793Y-79317764D01*
X47882794Y-79317765D01*
X47962235Y-79397206D01*
X48065009Y-79442585D01*
X48090135Y-79445500D01*
X50449864Y-79445499D01*
X50449879Y-79445497D01*
X50449882Y-79445497D01*
X50474987Y-79442586D01*
X50474987Y-79442585D01*
X50474991Y-79442585D01*
X50531058Y-79417829D01*
X50540716Y-79413565D01*
X50590801Y-79403000D01*
X70274057Y-79403000D01*
X70341096Y-79422685D01*
X70361738Y-79439319D01*
X71746708Y-80824289D01*
X71832911Y-80910492D01*
X71832913Y-80910493D01*
X71832917Y-80910496D01*
X71938482Y-80971443D01*
X71938489Y-80971447D01*
X72056245Y-81003000D01*
X74138686Y-81003000D01*
X74205725Y-81022685D01*
X74249171Y-81070705D01*
X74286006Y-81142997D01*
X74392441Y-81289494D01*
X74392445Y-81289499D01*
X74520500Y-81417554D01*
X74520505Y-81417558D01*
X74648287Y-81510396D01*
X74667006Y-81523996D01*
X74772484Y-81577740D01*
X74828360Y-81606211D01*
X74828363Y-81606212D01*
X74914476Y-81634191D01*
X75000591Y-81662171D01*
X75083429Y-81675291D01*
X75179449Y-81690500D01*
X75179454Y-81690500D01*
X75360551Y-81690500D01*
X75447259Y-81676765D01*
X75539409Y-81662171D01*
X75711639Y-81606211D01*
X75872994Y-81523996D01*
X76019501Y-81417553D01*
X76147553Y-81289501D01*
X76253996Y-81142994D01*
X76336211Y-80981639D01*
X76392171Y-80809409D01*
X76406765Y-80717259D01*
X76420500Y-80630551D01*
X76420500Y-80449448D01*
X76395266Y-80290135D01*
X76392171Y-80270591D01*
X76336211Y-80098361D01*
X76336211Y-80098360D01*
X76303672Y-80034500D01*
X76253996Y-79937006D01*
X76240396Y-79918287D01*
X76147558Y-79790505D01*
X76147554Y-79790500D01*
X76019499Y-79662445D01*
X76019494Y-79662441D01*
X75872997Y-79556006D01*
X75872996Y-79556005D01*
X75872994Y-79556004D01*
X75821300Y-79529664D01*
X75711639Y-79473788D01*
X75711636Y-79473787D01*
X75539410Y-79417829D01*
X75360551Y-79389500D01*
X75360546Y-79389500D01*
X75179454Y-79389500D01*
X75179449Y-79389500D01*
X75000589Y-79417829D01*
X74828363Y-79473787D01*
X74828360Y-79473788D01*
X74667002Y-79556006D01*
X74520505Y-79662441D01*
X74520500Y-79662445D01*
X74392445Y-79790500D01*
X74392441Y-79790505D01*
X74286006Y-79937002D01*
X74286004Y-79937006D01*
X74259070Y-79989868D01*
X74249171Y-80009295D01*
X74201196Y-80060091D01*
X74138686Y-80077000D01*
X72360343Y-80077000D01*
X72293304Y-80057315D01*
X72272662Y-80040681D01*
X70801490Y-78569509D01*
X70801482Y-78569503D01*
X70695917Y-78508556D01*
X70695912Y-78508553D01*
X70666472Y-78500664D01*
X70578155Y-78477000D01*
X70578152Y-78477000D01*
X50590801Y-78477000D01*
X50540715Y-78466435D01*
X50474991Y-78437415D01*
X50449865Y-78434500D01*
X48090143Y-78434500D01*
X48090117Y-78434502D01*
X48065012Y-78437413D01*
X48065008Y-78437415D01*
X47962235Y-78482793D01*
X47882794Y-78562234D01*
X47837415Y-78665006D01*
X47837415Y-78665008D01*
X47834500Y-78690131D01*
X35197550Y-78690131D01*
X35248362Y-78639319D01*
X35309685Y-78605834D01*
X35336043Y-78603000D01*
X42219199Y-78603000D01*
X42269284Y-78613564D01*
X42335009Y-78642585D01*
X42360135Y-78645500D01*
X44719864Y-78645499D01*
X44719879Y-78645497D01*
X44719882Y-78645497D01*
X44744987Y-78642586D01*
X44744988Y-78642585D01*
X44744991Y-78642585D01*
X44847765Y-78597206D01*
X44927206Y-78517765D01*
X44972585Y-78414991D01*
X44975500Y-78389865D01*
X44975499Y-77890136D01*
X44975497Y-77890117D01*
X44972586Y-77865012D01*
X44972585Y-77865010D01*
X44972585Y-77865009D01*
X44927206Y-77762235D01*
X44847765Y-77682794D01*
X44834643Y-77677000D01*
X44744992Y-77637415D01*
X44719865Y-77634500D01*
X42360143Y-77634500D01*
X42360117Y-77634502D01*
X42335012Y-77637413D01*
X42335011Y-77637414D01*
X42269284Y-77666435D01*
X42219199Y-77677000D01*
X35153855Y-77677000D01*
X35031945Y-77677000D01*
X34923840Y-77705966D01*
X34914184Y-77708554D01*
X34808614Y-77769505D01*
X34808608Y-77769510D01*
X20537438Y-92040681D01*
X20476115Y-92074166D01*
X20449757Y-92077000D01*
X18671314Y-92077000D01*
X18604275Y-92057315D01*
X18560829Y-92009295D01*
X18523996Y-91937006D01*
X18510396Y-91918287D01*
X18417558Y-91790505D01*
X18417554Y-91790500D01*
X18289499Y-91662445D01*
X18289494Y-91662441D01*
X18142997Y-91556006D01*
X18142996Y-91556005D01*
X18142994Y-91556004D01*
X18091300Y-91529664D01*
X17981639Y-91473788D01*
X17981636Y-91473787D01*
X17809410Y-91417829D01*
X17630551Y-91389500D01*
X17630546Y-91389500D01*
X17449454Y-91389500D01*
X17449449Y-91389500D01*
X17270589Y-91417829D01*
X17098363Y-91473787D01*
X17098360Y-91473788D01*
X16937002Y-91556006D01*
X16790505Y-91662441D01*
X16790500Y-91662445D01*
X16662445Y-91790500D01*
X16662441Y-91790505D01*
X16556006Y-91937002D01*
X16473788Y-92098360D01*
X16473787Y-92098363D01*
X16417829Y-92270589D01*
X16389500Y-92449448D01*
X9500500Y-92449448D01*
X9500500Y-84449448D01*
X16389500Y-84449448D01*
X16389500Y-84630551D01*
X16417829Y-84809410D01*
X16473787Y-84981636D01*
X16473788Y-84981639D01*
X16556006Y-85142997D01*
X16662441Y-85289494D01*
X16662445Y-85289499D01*
X16790500Y-85417554D01*
X16790505Y-85417558D01*
X16918287Y-85510396D01*
X16937006Y-85523996D01*
X17042484Y-85577740D01*
X17098360Y-85606211D01*
X17098363Y-85606212D01*
X17184476Y-85634191D01*
X17270591Y-85662171D01*
X17353429Y-85675291D01*
X17449449Y-85690500D01*
X17449454Y-85690500D01*
X17630551Y-85690500D01*
X17717259Y-85676765D01*
X17809409Y-85662171D01*
X17981639Y-85606211D01*
X18142994Y-85523996D01*
X18289501Y-85417553D01*
X18417553Y-85289501D01*
X18523996Y-85142994D01*
X18560829Y-85070704D01*
X18608804Y-85019909D01*
X18671314Y-85003000D01*
X20753852Y-85003000D01*
X20753855Y-85003000D01*
X20871611Y-84971447D01*
X20977189Y-84910492D01*
X28848362Y-77039319D01*
X28909685Y-77005834D01*
X28936043Y-77003000D01*
X42219199Y-77003000D01*
X42269284Y-77013564D01*
X42335009Y-77042585D01*
X42360135Y-77045500D01*
X44719864Y-77045499D01*
X44719879Y-77045497D01*
X44719882Y-77045497D01*
X44744987Y-77042586D01*
X44744988Y-77042585D01*
X44744991Y-77042585D01*
X44847765Y-76997206D01*
X44927206Y-76917765D01*
X44972585Y-76814991D01*
X44975500Y-76789865D01*
X44975499Y-76290136D01*
X44975497Y-76290117D01*
X44972586Y-76265012D01*
X44972585Y-76265010D01*
X44972585Y-76265009D01*
X44927206Y-76162235D01*
X44847765Y-76082794D01*
X44834643Y-76077000D01*
X44744992Y-76037415D01*
X44719865Y-76034500D01*
X42360143Y-76034500D01*
X42360117Y-76034502D01*
X42335012Y-76037413D01*
X42335011Y-76037414D01*
X42269284Y-76066435D01*
X42219199Y-76077000D01*
X28753854Y-76077000D01*
X28631945Y-76077000D01*
X28523840Y-76105966D01*
X28514184Y-76108554D01*
X28408614Y-76169505D01*
X28408608Y-76169510D01*
X20537438Y-84040681D01*
X20476115Y-84074166D01*
X20449757Y-84077000D01*
X18671314Y-84077000D01*
X18604275Y-84057315D01*
X18560829Y-84009295D01*
X18523996Y-83937006D01*
X18510396Y-83918287D01*
X18417558Y-83790505D01*
X18417554Y-83790500D01*
X18289499Y-83662445D01*
X18289494Y-83662441D01*
X18142997Y-83556006D01*
X18142996Y-83556005D01*
X18142994Y-83556004D01*
X18091300Y-83529664D01*
X17981639Y-83473788D01*
X17981636Y-83473787D01*
X17809410Y-83417829D01*
X17630551Y-83389500D01*
X17630546Y-83389500D01*
X17449454Y-83389500D01*
X17449449Y-83389500D01*
X17270589Y-83417829D01*
X17098363Y-83473787D01*
X17098360Y-83473788D01*
X16937002Y-83556006D01*
X16790505Y-83662441D01*
X16790500Y-83662445D01*
X16662445Y-83790500D01*
X16662441Y-83790505D01*
X16556006Y-83937002D01*
X16473788Y-84098360D01*
X16473787Y-84098363D01*
X16417829Y-84270589D01*
X16389500Y-84449448D01*
X9500500Y-84449448D01*
X9500500Y-76449448D01*
X16389500Y-76449448D01*
X16389500Y-76630551D01*
X16417829Y-76809410D01*
X16473787Y-76981636D01*
X16473788Y-76981639D01*
X16556006Y-77142997D01*
X16662441Y-77289494D01*
X16662445Y-77289499D01*
X16790500Y-77417554D01*
X16790505Y-77417558D01*
X16918287Y-77510396D01*
X16937006Y-77523996D01*
X17042484Y-77577740D01*
X17098360Y-77606211D01*
X17098363Y-77606212D01*
X17184476Y-77634191D01*
X17270591Y-77662171D01*
X17353429Y-77675291D01*
X17449449Y-77690500D01*
X17449454Y-77690500D01*
X17630551Y-77690500D01*
X17717259Y-77676765D01*
X17809409Y-77662171D01*
X17981639Y-77606211D01*
X18142994Y-77523996D01*
X18289501Y-77417553D01*
X18417553Y-77289501D01*
X18523996Y-77142994D01*
X18560829Y-77070704D01*
X18608804Y-77019909D01*
X18671314Y-77003000D01*
X20753852Y-77003000D01*
X20753855Y-77003000D01*
X20871611Y-76971447D01*
X20977189Y-76910492D01*
X22448362Y-75439319D01*
X22509685Y-75405834D01*
X22536043Y-75403000D01*
X42219199Y-75403000D01*
X42269284Y-75413564D01*
X42335009Y-75442585D01*
X42360135Y-75445500D01*
X44719864Y-75445499D01*
X44719879Y-75445497D01*
X44719882Y-75445497D01*
X44744987Y-75442586D01*
X44744988Y-75442585D01*
X44744991Y-75442585D01*
X44847765Y-75397206D01*
X44927206Y-75317765D01*
X44972585Y-75214991D01*
X44975500Y-75189865D01*
X44975499Y-74690136D01*
X44975497Y-74690117D01*
X44972586Y-74665012D01*
X44972585Y-74665010D01*
X44972585Y-74665009D01*
X44927206Y-74562235D01*
X44847765Y-74482794D01*
X44834643Y-74477000D01*
X44744992Y-74437415D01*
X44719865Y-74434500D01*
X42360143Y-74434500D01*
X42360117Y-74434502D01*
X42335012Y-74437413D01*
X42335011Y-74437414D01*
X42269284Y-74466435D01*
X42219199Y-74477000D01*
X22353855Y-74477000D01*
X22231945Y-74477000D01*
X22161291Y-74495931D01*
X22114187Y-74508553D01*
X22114182Y-74508556D01*
X22008617Y-74569503D01*
X22008609Y-74569509D01*
X20537438Y-76040681D01*
X20476115Y-76074166D01*
X20449757Y-76077000D01*
X18671314Y-76077000D01*
X18604275Y-76057315D01*
X18560829Y-76009295D01*
X18523996Y-75937006D01*
X18510396Y-75918287D01*
X18417558Y-75790505D01*
X18417554Y-75790500D01*
X18289499Y-75662445D01*
X18289494Y-75662441D01*
X18142997Y-75556006D01*
X18142996Y-75556005D01*
X18142994Y-75556004D01*
X18091300Y-75529664D01*
X17981639Y-75473788D01*
X17981636Y-75473787D01*
X17809410Y-75417829D01*
X17630551Y-75389500D01*
X17630546Y-75389500D01*
X17449454Y-75389500D01*
X17449449Y-75389500D01*
X17270589Y-75417829D01*
X17098363Y-75473787D01*
X17098360Y-75473788D01*
X16937002Y-75556006D01*
X16790505Y-75662441D01*
X16790500Y-75662445D01*
X16662445Y-75790500D01*
X16662441Y-75790505D01*
X16556006Y-75937002D01*
X16473788Y-76098360D01*
X16473787Y-76098363D01*
X16417829Y-76270589D01*
X16389500Y-76449448D01*
X9500500Y-76449448D01*
X9500500Y-68449448D01*
X16389500Y-68449448D01*
X16389500Y-68630551D01*
X16417829Y-68809410D01*
X16473787Y-68981636D01*
X16473788Y-68981639D01*
X16556006Y-69142997D01*
X16662441Y-69289494D01*
X16662445Y-69289499D01*
X16790500Y-69417554D01*
X16790505Y-69417558D01*
X16918287Y-69510396D01*
X16937006Y-69523996D01*
X17042484Y-69577740D01*
X17098360Y-69606211D01*
X17098363Y-69606212D01*
X17184476Y-69634191D01*
X17270591Y-69662171D01*
X17353429Y-69675291D01*
X17449449Y-69690500D01*
X17449454Y-69690500D01*
X17630551Y-69690500D01*
X17717259Y-69676765D01*
X17809409Y-69662171D01*
X17981639Y-69606211D01*
X18142994Y-69523996D01*
X18289501Y-69417553D01*
X18417553Y-69289501D01*
X18523996Y-69142994D01*
X18560829Y-69070704D01*
X18608804Y-69019909D01*
X18671314Y-69003000D01*
X20449757Y-69003000D01*
X20516796Y-69022685D01*
X20537438Y-69039319D01*
X21922408Y-70424289D01*
X22008611Y-70510492D01*
X22008613Y-70510493D01*
X22008617Y-70510496D01*
X22114182Y-70571443D01*
X22114189Y-70571447D01*
X22231945Y-70603000D01*
X42219199Y-70603000D01*
X42269284Y-70613564D01*
X42335009Y-70642585D01*
X42360135Y-70645500D01*
X44719864Y-70645499D01*
X44719879Y-70645497D01*
X44719882Y-70645497D01*
X44744987Y-70642586D01*
X44744988Y-70642585D01*
X44744991Y-70642585D01*
X44847765Y-70597206D01*
X44927206Y-70517765D01*
X44972585Y-70414991D01*
X44975500Y-70389865D01*
X44975499Y-69890136D01*
X44975499Y-69890135D01*
X44975499Y-69890131D01*
X47834500Y-69890131D01*
X47834500Y-70389856D01*
X47834502Y-70389882D01*
X47837413Y-70414987D01*
X47837415Y-70414991D01*
X47882793Y-70517764D01*
X47882794Y-70517765D01*
X47962235Y-70597206D01*
X48065009Y-70642585D01*
X48090135Y-70645500D01*
X50182200Y-70645499D01*
X50249239Y-70665184D01*
X50294994Y-70717987D01*
X50306200Y-70769499D01*
X50306200Y-74310500D01*
X50286515Y-74377539D01*
X50233711Y-74423294D01*
X50182200Y-74434500D01*
X48090143Y-74434500D01*
X48090117Y-74434502D01*
X48065012Y-74437413D01*
X48065008Y-74437415D01*
X47962235Y-74482793D01*
X47882794Y-74562234D01*
X47837415Y-74665006D01*
X47837415Y-74665008D01*
X47834500Y-74690131D01*
X47834500Y-75189856D01*
X47834502Y-75189882D01*
X47837413Y-75214987D01*
X47837415Y-75214991D01*
X47882793Y-75317764D01*
X47882794Y-75317765D01*
X47962235Y-75397206D01*
X48065009Y-75442585D01*
X48090135Y-75445500D01*
X50449864Y-75445499D01*
X50449879Y-75445497D01*
X50449882Y-75445497D01*
X50474987Y-75442586D01*
X50474987Y-75442585D01*
X50474991Y-75442585D01*
X50531058Y-75417829D01*
X50540716Y-75413565D01*
X50590801Y-75403000D01*
X50830152Y-75403000D01*
X50830155Y-75403000D01*
X50947911Y-75371447D01*
X51053489Y-75310492D01*
X51139692Y-75224289D01*
X51200647Y-75118711D01*
X51232200Y-75000955D01*
X51232200Y-73127000D01*
X51251885Y-73059961D01*
X51304689Y-73014206D01*
X51356200Y-73003000D01*
X74138686Y-73003000D01*
X74205725Y-73022685D01*
X74249171Y-73070705D01*
X74286006Y-73142997D01*
X74392441Y-73289494D01*
X74392445Y-73289499D01*
X74520500Y-73417554D01*
X74520505Y-73417558D01*
X74648287Y-73510396D01*
X74667006Y-73523996D01*
X74772484Y-73577740D01*
X74828360Y-73606211D01*
X74828363Y-73606212D01*
X74914476Y-73634191D01*
X75000591Y-73662171D01*
X75083429Y-73675291D01*
X75179449Y-73690500D01*
X75179454Y-73690500D01*
X75360551Y-73690500D01*
X75447259Y-73676765D01*
X75539409Y-73662171D01*
X75711639Y-73606211D01*
X75872994Y-73523996D01*
X76019501Y-73417553D01*
X76147553Y-73289501D01*
X76253996Y-73142994D01*
X76336211Y-72981639D01*
X76392171Y-72809409D01*
X76406765Y-72717259D01*
X76420500Y-72630551D01*
X76420500Y-72449448D01*
X76404019Y-72345397D01*
X76392171Y-72270591D01*
X76336211Y-72098361D01*
X76336211Y-72098360D01*
X76290829Y-72009295D01*
X76253996Y-71937006D01*
X76240396Y-71918287D01*
X76147558Y-71790505D01*
X76147554Y-71790500D01*
X76019499Y-71662445D01*
X76019494Y-71662441D01*
X75872997Y-71556006D01*
X75872996Y-71556005D01*
X75872994Y-71556004D01*
X75821300Y-71529664D01*
X75711639Y-71473788D01*
X75711636Y-71473787D01*
X75539410Y-71417829D01*
X75360551Y-71389500D01*
X75360546Y-71389500D01*
X75179454Y-71389500D01*
X75179449Y-71389500D01*
X75000589Y-71417829D01*
X74828363Y-71473787D01*
X74828360Y-71473788D01*
X74667002Y-71556006D01*
X74520505Y-71662441D01*
X74520500Y-71662445D01*
X74392445Y-71790500D01*
X74392441Y-71790505D01*
X74286006Y-71937002D01*
X74286004Y-71937006D01*
X74251609Y-72004511D01*
X74249171Y-72009295D01*
X74201196Y-72060091D01*
X74138686Y-72077000D01*
X51356200Y-72077000D01*
X51289161Y-72057315D01*
X51243406Y-72004511D01*
X51232200Y-71953000D01*
X51232200Y-70079047D01*
X51232200Y-70079045D01*
X51200647Y-69961289D01*
X51159567Y-69890135D01*
X51139696Y-69855717D01*
X51139690Y-69855709D01*
X51053490Y-69769509D01*
X51053482Y-69769503D01*
X50947917Y-69708556D01*
X50947912Y-69708553D01*
X50918472Y-69700664D01*
X50830155Y-69677000D01*
X50830152Y-69677000D01*
X50590801Y-69677000D01*
X50540715Y-69666435D01*
X50520060Y-69657315D01*
X50474991Y-69637415D01*
X50449865Y-69634500D01*
X48090143Y-69634500D01*
X48090117Y-69634502D01*
X48065012Y-69637413D01*
X48065008Y-69637415D01*
X47962235Y-69682793D01*
X47882794Y-69762234D01*
X47837415Y-69865006D01*
X47837415Y-69865008D01*
X47834500Y-69890131D01*
X44975499Y-69890131D01*
X44975499Y-69890130D01*
X44972586Y-69865012D01*
X44972585Y-69865010D01*
X44972585Y-69865009D01*
X44927206Y-69762235D01*
X44847765Y-69682794D01*
X44834643Y-69677000D01*
X44744992Y-69637415D01*
X44719865Y-69634500D01*
X42360143Y-69634500D01*
X42360117Y-69634502D01*
X42335012Y-69637413D01*
X42335011Y-69637414D01*
X42269284Y-69666435D01*
X42219199Y-69677000D01*
X22536043Y-69677000D01*
X22469004Y-69657315D01*
X22448362Y-69640681D01*
X20977190Y-68169509D01*
X20977182Y-68169503D01*
X20871617Y-68108556D01*
X20871612Y-68108553D01*
X20833574Y-68098361D01*
X20753855Y-68077000D01*
X20753852Y-68077000D01*
X18671314Y-68077000D01*
X18604275Y-68057315D01*
X18560829Y-68009295D01*
X18523996Y-67937006D01*
X18510396Y-67918287D01*
X18417558Y-67790505D01*
X18417554Y-67790500D01*
X18289499Y-67662445D01*
X18289494Y-67662441D01*
X18142997Y-67556006D01*
X18142996Y-67556005D01*
X18142994Y-67556004D01*
X18091300Y-67529664D01*
X17981639Y-67473788D01*
X17981636Y-67473787D01*
X17809410Y-67417829D01*
X17630551Y-67389500D01*
X17630546Y-67389500D01*
X17449454Y-67389500D01*
X17449449Y-67389500D01*
X17270589Y-67417829D01*
X17098363Y-67473787D01*
X17098360Y-67473788D01*
X16937002Y-67556006D01*
X16790505Y-67662441D01*
X16790500Y-67662445D01*
X16662445Y-67790500D01*
X16662441Y-67790505D01*
X16556006Y-67937002D01*
X16473788Y-68098360D01*
X16473787Y-68098363D01*
X16417829Y-68270589D01*
X16389500Y-68449448D01*
X9500500Y-68449448D01*
X9500500Y-60449448D01*
X16389500Y-60449448D01*
X16389500Y-60630551D01*
X16417829Y-60809410D01*
X16473787Y-60981636D01*
X16473788Y-60981639D01*
X16556006Y-61142997D01*
X16662441Y-61289494D01*
X16662445Y-61289499D01*
X16790500Y-61417554D01*
X16790505Y-61417558D01*
X16918287Y-61510396D01*
X16937006Y-61523996D01*
X17042484Y-61577740D01*
X17098360Y-61606211D01*
X17098363Y-61606212D01*
X17184476Y-61634191D01*
X17270591Y-61662171D01*
X17353429Y-61675291D01*
X17449449Y-61690500D01*
X17449454Y-61690500D01*
X17630551Y-61690500D01*
X17717259Y-61676765D01*
X17809409Y-61662171D01*
X17981639Y-61606211D01*
X18142994Y-61523996D01*
X18289501Y-61417553D01*
X18417553Y-61289501D01*
X18523996Y-61142994D01*
X18560829Y-61070704D01*
X18608804Y-61019909D01*
X18671314Y-61003000D01*
X20449757Y-61003000D01*
X20516796Y-61022685D01*
X20537438Y-61039319D01*
X28408611Y-68910492D01*
X28408612Y-68910493D01*
X28408614Y-68910494D01*
X28514184Y-68971445D01*
X28514185Y-68971445D01*
X28514188Y-68971447D01*
X28631945Y-69003000D01*
X42219199Y-69003000D01*
X42269284Y-69013564D01*
X42335009Y-69042585D01*
X42360135Y-69045500D01*
X44719864Y-69045499D01*
X44719879Y-69045497D01*
X44719882Y-69045497D01*
X44744987Y-69042586D01*
X44744988Y-69042585D01*
X44744991Y-69042585D01*
X44847765Y-68997206D01*
X44927206Y-68917765D01*
X44972585Y-68814991D01*
X44975500Y-68789865D01*
X44975499Y-68290136D01*
X44975497Y-68290117D01*
X44972586Y-68265012D01*
X44972585Y-68265010D01*
X44972585Y-68265009D01*
X44927206Y-68162235D01*
X44847765Y-68082794D01*
X44834643Y-68077000D01*
X44744992Y-68037415D01*
X44719865Y-68034500D01*
X42360143Y-68034500D01*
X42360117Y-68034502D01*
X42335012Y-68037413D01*
X42335011Y-68037414D01*
X42269284Y-68066435D01*
X42219199Y-68077000D01*
X28936043Y-68077000D01*
X28869004Y-68057315D01*
X28848362Y-68040681D01*
X20977190Y-60169509D01*
X20977182Y-60169503D01*
X20871617Y-60108556D01*
X20871612Y-60108553D01*
X20833574Y-60098361D01*
X20753855Y-60077000D01*
X20753852Y-60077000D01*
X18671314Y-60077000D01*
X18604275Y-60057315D01*
X18560829Y-60009295D01*
X18523996Y-59937006D01*
X18510396Y-59918287D01*
X18417558Y-59790505D01*
X18417554Y-59790500D01*
X18289499Y-59662445D01*
X18289494Y-59662441D01*
X18142997Y-59556006D01*
X18142996Y-59556005D01*
X18142994Y-59556004D01*
X18091300Y-59529664D01*
X17981639Y-59473788D01*
X17981636Y-59473787D01*
X17809410Y-59417829D01*
X17630551Y-59389500D01*
X17630546Y-59389500D01*
X17449454Y-59389500D01*
X17449449Y-59389500D01*
X17270589Y-59417829D01*
X17098363Y-59473787D01*
X17098360Y-59473788D01*
X16937002Y-59556006D01*
X16790505Y-59662441D01*
X16790500Y-59662445D01*
X16662445Y-59790500D01*
X16662441Y-59790505D01*
X16556006Y-59937002D01*
X16473788Y-60098360D01*
X16473787Y-60098363D01*
X16417829Y-60270589D01*
X16389500Y-60449448D01*
X9500500Y-60449448D01*
X9500500Y-52449448D01*
X16389500Y-52449448D01*
X16389500Y-52630551D01*
X16417829Y-52809410D01*
X16473787Y-52981636D01*
X16473788Y-52981639D01*
X16556006Y-53142997D01*
X16662441Y-53289494D01*
X16662445Y-53289499D01*
X16790500Y-53417554D01*
X16790505Y-53417558D01*
X16918287Y-53510396D01*
X16937006Y-53523996D01*
X17042484Y-53577740D01*
X17098360Y-53606211D01*
X17098363Y-53606212D01*
X17184476Y-53634191D01*
X17270591Y-53662171D01*
X17353429Y-53675291D01*
X17449449Y-53690500D01*
X17449454Y-53690500D01*
X17630551Y-53690500D01*
X17717259Y-53676765D01*
X17809409Y-53662171D01*
X17981639Y-53606211D01*
X18142994Y-53523996D01*
X18289501Y-53417553D01*
X18417553Y-53289501D01*
X18523996Y-53142994D01*
X18560829Y-53070704D01*
X18608804Y-53019909D01*
X18671314Y-53003000D01*
X20449757Y-53003000D01*
X20516796Y-53022685D01*
X20537438Y-53039319D01*
X34808611Y-67310492D01*
X34808612Y-67310493D01*
X34808614Y-67310494D01*
X34914184Y-67371445D01*
X34914185Y-67371445D01*
X34914188Y-67371447D01*
X35031945Y-67403000D01*
X42219199Y-67403000D01*
X42269284Y-67413564D01*
X42335009Y-67442585D01*
X42360135Y-67445500D01*
X44719864Y-67445499D01*
X44719879Y-67445497D01*
X44719882Y-67445497D01*
X44744987Y-67442586D01*
X44744988Y-67442585D01*
X44744991Y-67442585D01*
X44847765Y-67397206D01*
X44927206Y-67317765D01*
X44972585Y-67214991D01*
X44975500Y-67189865D01*
X44975499Y-66690136D01*
X44975497Y-66690117D01*
X44972586Y-66665012D01*
X44972585Y-66665010D01*
X44972585Y-66665009D01*
X44927206Y-66562235D01*
X44847765Y-66482794D01*
X44834643Y-66477000D01*
X44744992Y-66437415D01*
X44719865Y-66434500D01*
X42360143Y-66434500D01*
X42360117Y-66434502D01*
X42335012Y-66437413D01*
X42335011Y-66437414D01*
X42269284Y-66466435D01*
X42219199Y-66477000D01*
X35336043Y-66477000D01*
X35269004Y-66457315D01*
X35248362Y-66440681D01*
X34697812Y-65890131D01*
X47834500Y-65890131D01*
X47834500Y-66389856D01*
X47834502Y-66389882D01*
X47837413Y-66414987D01*
X47837415Y-66414991D01*
X47882793Y-66517764D01*
X47882794Y-66517765D01*
X47962235Y-66597206D01*
X48065009Y-66642585D01*
X48090135Y-66645500D01*
X50449864Y-66645499D01*
X50449879Y-66645497D01*
X50449882Y-66645497D01*
X50474987Y-66642586D01*
X50474987Y-66642585D01*
X50474991Y-66642585D01*
X50530018Y-66618288D01*
X50540716Y-66613565D01*
X50590801Y-66603000D01*
X69310952Y-66603000D01*
X69310955Y-66603000D01*
X69428711Y-66571447D01*
X69534289Y-66510492D01*
X71005462Y-65039319D01*
X71066785Y-65005834D01*
X71093143Y-65003000D01*
X74138686Y-65003000D01*
X74205725Y-65022685D01*
X74249170Y-65070704D01*
X74259071Y-65090136D01*
X74286006Y-65142997D01*
X74392441Y-65289494D01*
X74392445Y-65289499D01*
X74520500Y-65417554D01*
X74520505Y-65417558D01*
X74648287Y-65510396D01*
X74667006Y-65523996D01*
X74772484Y-65577740D01*
X74828360Y-65606211D01*
X74828363Y-65606212D01*
X74914476Y-65634191D01*
X75000591Y-65662171D01*
X75076325Y-65674166D01*
X75179449Y-65690500D01*
X75179454Y-65690500D01*
X75360551Y-65690500D01*
X75447259Y-65676765D01*
X75539409Y-65662171D01*
X75711639Y-65606211D01*
X75872994Y-65523996D01*
X76019501Y-65417553D01*
X76147553Y-65289501D01*
X76253996Y-65142994D01*
X76336211Y-64981639D01*
X76392171Y-64809409D01*
X76406765Y-64717259D01*
X76420500Y-64630551D01*
X76420500Y-64449448D01*
X76395266Y-64290135D01*
X76392171Y-64270591D01*
X76336211Y-64098361D01*
X76336211Y-64098360D01*
X76290829Y-64009295D01*
X76253996Y-63937006D01*
X76240396Y-63918287D01*
X76147558Y-63790505D01*
X76147554Y-63790500D01*
X76019499Y-63662445D01*
X76019494Y-63662441D01*
X75872997Y-63556006D01*
X75872996Y-63556005D01*
X75872994Y-63556004D01*
X75821300Y-63529664D01*
X75711639Y-63473788D01*
X75711636Y-63473787D01*
X75539410Y-63417829D01*
X75360551Y-63389500D01*
X75360546Y-63389500D01*
X75179454Y-63389500D01*
X75179449Y-63389500D01*
X75000589Y-63417829D01*
X74828363Y-63473787D01*
X74828360Y-63473788D01*
X74667002Y-63556006D01*
X74520505Y-63662441D01*
X74520500Y-63662445D01*
X74392445Y-63790500D01*
X74392441Y-63790505D01*
X74286006Y-63937002D01*
X74249171Y-64009295D01*
X74201196Y-64060091D01*
X74138686Y-64077000D01*
X70910955Y-64077000D01*
X70789045Y-64077000D01*
X70718391Y-64095931D01*
X70671287Y-64108553D01*
X70671282Y-64108556D01*
X70565717Y-64169503D01*
X70565709Y-64169509D01*
X69094538Y-65640681D01*
X69033215Y-65674166D01*
X69006857Y-65677000D01*
X50590801Y-65677000D01*
X50540715Y-65666435D01*
X50531056Y-65662170D01*
X50474991Y-65637415D01*
X50449865Y-65634500D01*
X48090143Y-65634500D01*
X48090117Y-65634502D01*
X48065012Y-65637413D01*
X48065008Y-65637415D01*
X47962235Y-65682793D01*
X47882794Y-65762234D01*
X47837415Y-65865006D01*
X47837415Y-65865008D01*
X47834500Y-65890131D01*
X34697812Y-65890131D01*
X20977190Y-52169509D01*
X20977182Y-52169503D01*
X20871617Y-52108556D01*
X20871612Y-52108553D01*
X20833574Y-52098361D01*
X20753855Y-52077000D01*
X20753852Y-52077000D01*
X18671314Y-52077000D01*
X18604275Y-52057315D01*
X18560829Y-52009295D01*
X18551102Y-51990205D01*
X18523996Y-51937006D01*
X18497467Y-51900492D01*
X18417558Y-51790505D01*
X18417554Y-51790500D01*
X18289499Y-51662445D01*
X18289494Y-51662441D01*
X18142997Y-51556006D01*
X18142996Y-51556005D01*
X18142994Y-51556004D01*
X18091300Y-51529664D01*
X17981639Y-51473788D01*
X17981636Y-51473787D01*
X17809410Y-51417829D01*
X17630551Y-51389500D01*
X17630546Y-51389500D01*
X17449454Y-51389500D01*
X17449449Y-51389500D01*
X17270589Y-51417829D01*
X17098363Y-51473787D01*
X17098360Y-51473788D01*
X16937002Y-51556006D01*
X16790505Y-51662441D01*
X16790500Y-51662445D01*
X16662445Y-51790500D01*
X16662441Y-51790505D01*
X16556006Y-51937002D01*
X16473788Y-52098360D01*
X16473787Y-52098363D01*
X16417829Y-52270589D01*
X16389500Y-52449448D01*
X9500500Y-52449448D01*
X9500500Y-44449448D01*
X16389500Y-44449448D01*
X16389500Y-44630551D01*
X16417829Y-44809410D01*
X16473787Y-44981636D01*
X16473788Y-44981639D01*
X16556006Y-45142997D01*
X16662441Y-45289494D01*
X16662445Y-45289499D01*
X16790500Y-45417554D01*
X16790505Y-45417558D01*
X16918287Y-45510396D01*
X16937006Y-45523996D01*
X17042484Y-45577740D01*
X17098360Y-45606211D01*
X17098363Y-45606212D01*
X17184476Y-45634191D01*
X17270591Y-45662171D01*
X17353429Y-45675291D01*
X17449449Y-45690500D01*
X17449454Y-45690500D01*
X17630551Y-45690500D01*
X17717259Y-45676765D01*
X17809409Y-45662171D01*
X17981639Y-45606211D01*
X18142994Y-45523996D01*
X18289501Y-45417553D01*
X18417553Y-45289501D01*
X18523996Y-45142994D01*
X18560829Y-45070704D01*
X18608804Y-45019909D01*
X18671314Y-45003000D01*
X20449757Y-45003000D01*
X20516796Y-45022685D01*
X20537438Y-45039319D01*
X41208611Y-65710492D01*
X41208613Y-65710493D01*
X41208617Y-65710496D01*
X41298231Y-65762234D01*
X41314189Y-65771447D01*
X41431945Y-65803000D01*
X41553855Y-65803000D01*
X42219199Y-65803000D01*
X42269284Y-65813564D01*
X42335009Y-65842585D01*
X42360135Y-65845500D01*
X44719864Y-65845499D01*
X44719879Y-65845497D01*
X44719882Y-65845497D01*
X44744987Y-65842586D01*
X44744988Y-65842585D01*
X44744991Y-65842585D01*
X44847765Y-65797206D01*
X44927206Y-65717765D01*
X44972585Y-65614991D01*
X44975500Y-65589865D01*
X44975499Y-65090136D01*
X44973246Y-65070705D01*
X44972586Y-65065012D01*
X44972585Y-65065010D01*
X44972585Y-65065009D01*
X44927206Y-64962235D01*
X44847765Y-64882794D01*
X44834643Y-64877000D01*
X44744992Y-64837415D01*
X44719865Y-64834500D01*
X42360143Y-64834500D01*
X42360117Y-64834502D01*
X42335012Y-64837413D01*
X42335011Y-64837414D01*
X42269284Y-64866435D01*
X42219199Y-64877000D01*
X41736043Y-64877000D01*
X41669004Y-64857315D01*
X41648362Y-64840681D01*
X41097812Y-64290131D01*
X47834500Y-64290131D01*
X47834500Y-64789856D01*
X47834502Y-64789882D01*
X47837413Y-64814987D01*
X47837415Y-64814991D01*
X47882793Y-64917764D01*
X47882794Y-64917765D01*
X47962235Y-64997206D01*
X48065009Y-65042585D01*
X48090135Y-65045500D01*
X50449864Y-65045499D01*
X50449879Y-65045497D01*
X50449882Y-65045497D01*
X50474987Y-65042586D01*
X50474987Y-65042585D01*
X50474991Y-65042585D01*
X50530018Y-65018288D01*
X50540716Y-65013565D01*
X50590801Y-65003000D01*
X64176052Y-65003000D01*
X64176055Y-65003000D01*
X64293811Y-64971447D01*
X64399389Y-64910492D01*
X72270562Y-57039319D01*
X72331885Y-57005834D01*
X72358243Y-57003000D01*
X74138686Y-57003000D01*
X74205725Y-57022685D01*
X74249171Y-57070705D01*
X74286006Y-57142997D01*
X74392441Y-57289494D01*
X74392445Y-57289499D01*
X74520500Y-57417554D01*
X74520505Y-57417558D01*
X74648287Y-57510396D01*
X74667006Y-57523996D01*
X74772484Y-57577740D01*
X74828360Y-57606211D01*
X74828363Y-57606212D01*
X74914476Y-57634191D01*
X75000591Y-57662171D01*
X75076325Y-57674166D01*
X75179449Y-57690500D01*
X75179454Y-57690500D01*
X75360551Y-57690500D01*
X75447259Y-57676765D01*
X75539409Y-57662171D01*
X75711639Y-57606211D01*
X75872994Y-57523996D01*
X76019501Y-57417553D01*
X76147553Y-57289501D01*
X76253996Y-57142994D01*
X76336211Y-56981639D01*
X76392171Y-56809409D01*
X76406765Y-56717259D01*
X76420500Y-56630551D01*
X76420500Y-56449448D01*
X76395266Y-56290135D01*
X76392171Y-56270591D01*
X76342516Y-56117765D01*
X76336212Y-56098363D01*
X76336211Y-56098360D01*
X76303672Y-56034500D01*
X76253996Y-55937006D01*
X76240396Y-55918287D01*
X76147558Y-55790505D01*
X76147554Y-55790500D01*
X76019499Y-55662445D01*
X76019494Y-55662441D01*
X75872997Y-55556006D01*
X75872996Y-55556005D01*
X75872994Y-55556004D01*
X75821300Y-55529664D01*
X75711639Y-55473788D01*
X75711636Y-55473787D01*
X75539410Y-55417829D01*
X75360551Y-55389500D01*
X75360546Y-55389500D01*
X75179454Y-55389500D01*
X75179449Y-55389500D01*
X75000589Y-55417829D01*
X74828363Y-55473787D01*
X74828360Y-55473788D01*
X74667002Y-55556006D01*
X74520505Y-55662441D01*
X74520500Y-55662445D01*
X74392445Y-55790500D01*
X74392441Y-55790505D01*
X74286006Y-55937002D01*
X74286004Y-55937006D01*
X74259070Y-55989868D01*
X74249171Y-56009295D01*
X74201196Y-56060091D01*
X74138686Y-56077000D01*
X72176054Y-56077000D01*
X72054145Y-56077000D01*
X71946040Y-56105966D01*
X71936384Y-56108554D01*
X71830814Y-56169505D01*
X71830808Y-56169510D01*
X63959638Y-64040681D01*
X63898315Y-64074166D01*
X63871957Y-64077000D01*
X50590801Y-64077000D01*
X50540715Y-64066435D01*
X50474991Y-64037415D01*
X50449865Y-64034500D01*
X48090143Y-64034500D01*
X48090117Y-64034502D01*
X48065012Y-64037413D01*
X48065008Y-64037415D01*
X47962235Y-64082793D01*
X47882794Y-64162234D01*
X47837415Y-64265006D01*
X47837415Y-64265008D01*
X47834500Y-64290131D01*
X41097812Y-64290131D01*
X39497812Y-62690131D01*
X47834500Y-62690131D01*
X47834500Y-63189856D01*
X47834502Y-63189882D01*
X47837413Y-63214987D01*
X47837415Y-63214991D01*
X47882793Y-63317764D01*
X47882794Y-63317765D01*
X47962235Y-63397206D01*
X48065009Y-63442585D01*
X48090135Y-63445500D01*
X50449864Y-63445499D01*
X50449879Y-63445497D01*
X50449882Y-63445497D01*
X50474987Y-63442586D01*
X50474987Y-63442585D01*
X50474991Y-63442585D01*
X50531058Y-63417829D01*
X50540716Y-63413565D01*
X50590801Y-63403000D01*
X57778152Y-63403000D01*
X57778155Y-63403000D01*
X57895911Y-63371447D01*
X58001489Y-63310492D01*
X72272662Y-49039319D01*
X72333985Y-49005834D01*
X72360343Y-49003000D01*
X74138686Y-49003000D01*
X74205725Y-49022685D01*
X74249171Y-49070705D01*
X74286006Y-49142997D01*
X74392441Y-49289494D01*
X74392445Y-49289499D01*
X74520500Y-49417554D01*
X74520505Y-49417558D01*
X74590235Y-49468219D01*
X74667006Y-49523996D01*
X74763462Y-49573143D01*
X74828360Y-49606211D01*
X74828363Y-49606212D01*
X74914476Y-49634191D01*
X75000591Y-49662171D01*
X75083429Y-49675291D01*
X75179449Y-49690500D01*
X75179454Y-49690500D01*
X75360551Y-49690500D01*
X75447259Y-49676765D01*
X75539409Y-49662171D01*
X75711639Y-49606211D01*
X75872994Y-49523996D01*
X76019501Y-49417553D01*
X76147553Y-49289501D01*
X76253996Y-49142994D01*
X76336211Y-48981639D01*
X76392171Y-48809409D01*
X76406765Y-48717259D01*
X76420500Y-48630551D01*
X76420500Y-48449448D01*
X76404019Y-48345397D01*
X76392171Y-48270591D01*
X76336211Y-48098361D01*
X76336211Y-48098360D01*
X76290829Y-48009295D01*
X76253996Y-47937006D01*
X76240396Y-47918287D01*
X76147558Y-47790505D01*
X76147554Y-47790500D01*
X76019499Y-47662445D01*
X76019494Y-47662441D01*
X75872997Y-47556006D01*
X75872996Y-47556005D01*
X75872994Y-47556004D01*
X75821300Y-47529664D01*
X75711639Y-47473788D01*
X75711636Y-47473787D01*
X75539410Y-47417829D01*
X75360551Y-47389500D01*
X75360546Y-47389500D01*
X75179454Y-47389500D01*
X75179449Y-47389500D01*
X75000589Y-47417829D01*
X74828363Y-47473787D01*
X74828360Y-47473788D01*
X74667002Y-47556006D01*
X74520505Y-47662441D01*
X74520500Y-47662445D01*
X74392445Y-47790500D01*
X74392441Y-47790505D01*
X74286006Y-47937002D01*
X74286004Y-47937006D01*
X74255379Y-47997112D01*
X74249171Y-48009295D01*
X74201196Y-48060091D01*
X74138686Y-48077000D01*
X72178155Y-48077000D01*
X72056245Y-48077000D01*
X71948140Y-48105966D01*
X71938484Y-48108554D01*
X71832914Y-48169505D01*
X71832908Y-48169510D01*
X57561738Y-62440681D01*
X57500415Y-62474166D01*
X57474057Y-62477000D01*
X50590801Y-62477000D01*
X50540715Y-62466435D01*
X50474991Y-62437415D01*
X50449865Y-62434500D01*
X48090143Y-62434500D01*
X48090117Y-62434502D01*
X48065012Y-62437413D01*
X48065008Y-62437415D01*
X47962235Y-62482793D01*
X47882794Y-62562234D01*
X47837415Y-62665006D01*
X47837415Y-62665008D01*
X47834500Y-62690131D01*
X39497812Y-62690131D01*
X37897812Y-61090131D01*
X47834500Y-61090131D01*
X47834500Y-61589856D01*
X47834502Y-61589882D01*
X47837413Y-61614987D01*
X47837415Y-61614991D01*
X47882793Y-61717764D01*
X47882794Y-61717765D01*
X47962235Y-61797206D01*
X48065009Y-61842585D01*
X48090135Y-61845500D01*
X50449864Y-61845499D01*
X50449879Y-61845497D01*
X50449882Y-61845497D01*
X50474987Y-61842586D01*
X50474987Y-61842585D01*
X50474991Y-61842585D01*
X50530018Y-61818288D01*
X50540716Y-61813565D01*
X50590801Y-61803000D01*
X56270952Y-61803000D01*
X56270955Y-61803000D01*
X56388711Y-61771447D01*
X56494289Y-61710492D01*
X68330492Y-49874289D01*
X68391447Y-49768712D01*
X68423000Y-49650955D01*
X68423000Y-49529046D01*
X68423000Y-42393143D01*
X68442685Y-42326104D01*
X68459319Y-42305462D01*
X69725462Y-41039319D01*
X69786785Y-41005834D01*
X69813143Y-41003000D01*
X74138686Y-41003000D01*
X74205725Y-41022685D01*
X74249171Y-41070705D01*
X74286006Y-41142997D01*
X74392441Y-41289494D01*
X74392445Y-41289499D01*
X74520500Y-41417554D01*
X74520505Y-41417558D01*
X74648287Y-41510396D01*
X74667006Y-41523996D01*
X74772484Y-41577740D01*
X74828360Y-41606211D01*
X74828363Y-41606212D01*
X74914476Y-41634191D01*
X75000591Y-41662171D01*
X75083429Y-41675291D01*
X75179449Y-41690500D01*
X75179454Y-41690500D01*
X75360551Y-41690500D01*
X75447259Y-41676765D01*
X75539409Y-41662171D01*
X75711639Y-41606211D01*
X75872994Y-41523996D01*
X76019501Y-41417553D01*
X76147553Y-41289501D01*
X76253996Y-41142994D01*
X76336211Y-40981639D01*
X76392171Y-40809409D01*
X76406765Y-40717259D01*
X76420500Y-40630551D01*
X76420500Y-40449448D01*
X76404019Y-40345397D01*
X76392171Y-40270591D01*
X76336211Y-40098361D01*
X76336211Y-40098360D01*
X76290829Y-40009295D01*
X76253996Y-39937006D01*
X76240396Y-39918287D01*
X76147558Y-39790505D01*
X76147554Y-39790500D01*
X76019499Y-39662445D01*
X76019494Y-39662441D01*
X75872997Y-39556006D01*
X75872996Y-39556005D01*
X75872994Y-39556004D01*
X75821300Y-39529664D01*
X75711639Y-39473788D01*
X75711636Y-39473787D01*
X75539410Y-39417829D01*
X75360551Y-39389500D01*
X75360546Y-39389500D01*
X75179454Y-39389500D01*
X75179449Y-39389500D01*
X75000589Y-39417829D01*
X74828363Y-39473787D01*
X74828360Y-39473788D01*
X74667002Y-39556006D01*
X74520505Y-39662441D01*
X74520500Y-39662445D01*
X74392445Y-39790500D01*
X74392441Y-39790505D01*
X74286006Y-39937002D01*
X74249171Y-40009295D01*
X74201196Y-40060091D01*
X74138686Y-40077000D01*
X69630955Y-40077000D01*
X69509045Y-40077000D01*
X69438391Y-40095931D01*
X69391287Y-40108553D01*
X69391282Y-40108556D01*
X69285717Y-40169503D01*
X69285709Y-40169509D01*
X67589509Y-41865709D01*
X67589503Y-41865717D01*
X67528556Y-41971282D01*
X67528553Y-41971287D01*
X67512776Y-42030167D01*
X67497000Y-42089045D01*
X67497000Y-42089047D01*
X67497000Y-49346857D01*
X67477315Y-49413896D01*
X67460681Y-49434538D01*
X56054538Y-60840681D01*
X55993215Y-60874166D01*
X55966857Y-60877000D01*
X50590801Y-60877000D01*
X50540715Y-60866435D01*
X50474991Y-60837415D01*
X50449865Y-60834500D01*
X48090143Y-60834500D01*
X48090117Y-60834502D01*
X48065012Y-60837413D01*
X48065008Y-60837415D01*
X47962235Y-60882793D01*
X47882794Y-60962234D01*
X47837415Y-61065006D01*
X47837415Y-61065008D01*
X47834500Y-61090131D01*
X37897812Y-61090131D01*
X36297812Y-59490131D01*
X47834500Y-59490131D01*
X47834500Y-59989856D01*
X47834502Y-59989882D01*
X47837413Y-60014987D01*
X47837415Y-60014991D01*
X47882793Y-60117764D01*
X47882794Y-60117765D01*
X47962235Y-60197206D01*
X48065009Y-60242585D01*
X48090135Y-60245500D01*
X50449864Y-60245499D01*
X50449879Y-60245497D01*
X50449882Y-60245497D01*
X50474987Y-60242586D01*
X50474987Y-60242585D01*
X50474991Y-60242585D01*
X50530018Y-60218288D01*
X50540716Y-60213565D01*
X50590801Y-60203000D01*
X53640952Y-60203000D01*
X53640955Y-60203000D01*
X53758711Y-60171447D01*
X53864289Y-60110492D01*
X64030492Y-49944289D01*
X64091447Y-49838711D01*
X64123000Y-49720955D01*
X64123000Y-49599045D01*
X64123000Y-39073143D01*
X64142685Y-39006104D01*
X64159319Y-38985462D01*
X70105462Y-33039319D01*
X70166785Y-33005834D01*
X70193143Y-33003000D01*
X74138686Y-33003000D01*
X74205725Y-33022685D01*
X74249171Y-33070705D01*
X74286006Y-33142997D01*
X74392441Y-33289494D01*
X74392445Y-33289499D01*
X74520500Y-33417554D01*
X74520505Y-33417558D01*
X74648287Y-33510396D01*
X74667006Y-33523996D01*
X74772484Y-33577740D01*
X74828360Y-33606211D01*
X74828363Y-33606212D01*
X74914476Y-33634191D01*
X75000591Y-33662171D01*
X75083429Y-33675291D01*
X75179449Y-33690500D01*
X75179454Y-33690500D01*
X75360551Y-33690500D01*
X75447259Y-33676765D01*
X75539409Y-33662171D01*
X75711639Y-33606211D01*
X75872994Y-33523996D01*
X76019501Y-33417553D01*
X76147553Y-33289501D01*
X76253996Y-33142994D01*
X76336211Y-32981639D01*
X76392171Y-32809409D01*
X76406765Y-32717259D01*
X76420500Y-32630551D01*
X76420500Y-32449448D01*
X76404019Y-32345397D01*
X76392171Y-32270591D01*
X76336211Y-32098361D01*
X76336211Y-32098360D01*
X76290829Y-32009295D01*
X76253996Y-31937006D01*
X76240396Y-31918287D01*
X76147558Y-31790505D01*
X76147554Y-31790500D01*
X76019499Y-31662445D01*
X76019494Y-31662441D01*
X75872997Y-31556006D01*
X75872996Y-31556005D01*
X75872994Y-31556004D01*
X75821300Y-31529664D01*
X75711639Y-31473788D01*
X75711636Y-31473787D01*
X75539410Y-31417829D01*
X75360551Y-31389500D01*
X75360546Y-31389500D01*
X75179454Y-31389500D01*
X75179449Y-31389500D01*
X75000589Y-31417829D01*
X74828363Y-31473787D01*
X74828360Y-31473788D01*
X74667002Y-31556006D01*
X74520505Y-31662441D01*
X74520500Y-31662445D01*
X74392445Y-31790500D01*
X74392441Y-31790505D01*
X74286006Y-31937002D01*
X74249171Y-32009295D01*
X74201196Y-32060091D01*
X74138686Y-32077000D01*
X70010955Y-32077000D01*
X69889045Y-32077000D01*
X69780940Y-32105966D01*
X69771284Y-32108554D01*
X69665714Y-32169505D01*
X69665708Y-32169510D01*
X63289509Y-38545709D01*
X63289503Y-38545717D01*
X63228556Y-38651282D01*
X63228553Y-38651287D01*
X63228056Y-38653143D01*
X63197000Y-38769045D01*
X63197000Y-38769047D01*
X63197000Y-49416857D01*
X63177315Y-49483896D01*
X63160681Y-49504538D01*
X53424538Y-59240681D01*
X53363215Y-59274166D01*
X53336857Y-59277000D01*
X50590801Y-59277000D01*
X50540715Y-59266435D01*
X50474991Y-59237415D01*
X50449865Y-59234500D01*
X48090143Y-59234500D01*
X48090117Y-59234502D01*
X48065012Y-59237413D01*
X48065008Y-59237415D01*
X47962235Y-59282793D01*
X47882794Y-59362234D01*
X47837415Y-59465006D01*
X47837415Y-59465008D01*
X47834500Y-59490131D01*
X36297812Y-59490131D01*
X34697812Y-57890131D01*
X47834500Y-57890131D01*
X47834500Y-58389856D01*
X47834502Y-58389882D01*
X47837413Y-58414987D01*
X47837415Y-58414991D01*
X47882793Y-58517764D01*
X47882794Y-58517765D01*
X47962235Y-58597206D01*
X48065009Y-58642585D01*
X48090135Y-58645500D01*
X50449864Y-58645499D01*
X50449879Y-58645497D01*
X50449882Y-58645497D01*
X50474987Y-58642586D01*
X50474987Y-58642585D01*
X50474991Y-58642585D01*
X50530018Y-58618288D01*
X50540716Y-58613565D01*
X50590801Y-58603000D01*
X52510952Y-58603000D01*
X52510955Y-58603000D01*
X52628711Y-58571447D01*
X52734289Y-58510492D01*
X59334079Y-51910699D01*
X59334084Y-51910696D01*
X59344287Y-51900492D01*
X59344289Y-51900492D01*
X59430492Y-51814289D01*
X59491447Y-51708711D01*
X59523000Y-51590955D01*
X59523000Y-48414221D01*
X59532440Y-48366765D01*
X59533942Y-48363136D01*
X59533947Y-48363128D01*
X59565500Y-48245372D01*
X59565500Y-48123462D01*
X59565500Y-47574628D01*
X59533947Y-47456872D01*
X59533942Y-47456864D01*
X59532437Y-47453227D01*
X59523000Y-47405778D01*
X59523000Y-38653143D01*
X59542685Y-38586104D01*
X59559319Y-38565462D01*
X73085462Y-25039319D01*
X73146785Y-25005834D01*
X73173143Y-25003000D01*
X74138686Y-25003000D01*
X74205725Y-25022685D01*
X74249171Y-25070705D01*
X74286006Y-25142997D01*
X74392441Y-25289494D01*
X74392445Y-25289499D01*
X74520500Y-25417554D01*
X74520505Y-25417558D01*
X74648287Y-25510396D01*
X74667006Y-25523996D01*
X74772484Y-25577740D01*
X74828360Y-25606211D01*
X74828363Y-25606212D01*
X74914476Y-25634191D01*
X75000591Y-25662171D01*
X75083429Y-25675291D01*
X75179449Y-25690500D01*
X75179454Y-25690500D01*
X75360551Y-25690500D01*
X75447259Y-25676765D01*
X75539409Y-25662171D01*
X75711639Y-25606211D01*
X75872994Y-25523996D01*
X76019501Y-25417553D01*
X76147553Y-25289501D01*
X76253996Y-25142994D01*
X76336211Y-24981639D01*
X76392171Y-24809409D01*
X76406765Y-24717259D01*
X76420500Y-24630551D01*
X76420500Y-24449448D01*
X76404019Y-24345397D01*
X76392171Y-24270591D01*
X76336211Y-24098361D01*
X76336211Y-24098360D01*
X76290829Y-24009295D01*
X76253996Y-23937006D01*
X76240396Y-23918287D01*
X76147558Y-23790505D01*
X76147554Y-23790500D01*
X76019499Y-23662445D01*
X76019494Y-23662441D01*
X75872997Y-23556006D01*
X75872996Y-23556005D01*
X75872994Y-23556004D01*
X75821300Y-23529664D01*
X75711639Y-23473788D01*
X75711636Y-23473787D01*
X75539410Y-23417829D01*
X75360551Y-23389500D01*
X75360546Y-23389500D01*
X75179454Y-23389500D01*
X75179449Y-23389500D01*
X75000589Y-23417829D01*
X74828363Y-23473787D01*
X74828360Y-23473788D01*
X74667002Y-23556006D01*
X74520505Y-23662441D01*
X74520500Y-23662445D01*
X74392445Y-23790500D01*
X74392441Y-23790505D01*
X74286006Y-23937002D01*
X74249171Y-24009295D01*
X74201196Y-24060091D01*
X74138686Y-24077000D01*
X72990955Y-24077000D01*
X72869045Y-24077000D01*
X72798391Y-24095931D01*
X72751287Y-24108553D01*
X72751282Y-24108556D01*
X72645717Y-24169503D01*
X72645709Y-24169509D01*
X58689509Y-38125709D01*
X58689503Y-38125717D01*
X58628556Y-38231282D01*
X58628553Y-38231287D01*
X58612776Y-38290167D01*
X58597000Y-38349045D01*
X58597000Y-47532128D01*
X58597000Y-47654038D01*
X58628553Y-47771793D01*
X58630060Y-47775431D01*
X58631687Y-47783610D01*
X58634477Y-47787952D01*
X58639500Y-47822887D01*
X58639500Y-47997112D01*
X58630063Y-48044561D01*
X58628553Y-48048204D01*
X58628553Y-48048206D01*
X58597000Y-48165962D01*
X58597000Y-48165964D01*
X58597000Y-51286857D01*
X58577315Y-51353896D01*
X58560681Y-51374538D01*
X52294538Y-57640681D01*
X52233215Y-57674166D01*
X52206857Y-57677000D01*
X50590801Y-57677000D01*
X50540715Y-57666435D01*
X50531056Y-57662170D01*
X50474991Y-57637415D01*
X50449865Y-57634500D01*
X48090143Y-57634500D01*
X48090117Y-57634502D01*
X48065012Y-57637413D01*
X48065008Y-57637415D01*
X47962235Y-57682793D01*
X47882794Y-57762234D01*
X47837415Y-57865006D01*
X47837415Y-57865008D01*
X47834500Y-57890131D01*
X34697812Y-57890131D01*
X31497812Y-54690131D01*
X42104500Y-54690131D01*
X42104500Y-55189856D01*
X42104502Y-55189882D01*
X42107413Y-55214987D01*
X42107415Y-55214991D01*
X42140496Y-55289913D01*
X42149568Y-55359191D01*
X42140497Y-55390085D01*
X42107415Y-55465009D01*
X42104500Y-55490131D01*
X42104500Y-55989856D01*
X42104502Y-55989882D01*
X42107413Y-56014987D01*
X42107415Y-56014991D01*
X42152793Y-56117764D01*
X42152794Y-56117765D01*
X42232235Y-56197206D01*
X42335009Y-56242585D01*
X42360135Y-56245500D01*
X44719864Y-56245499D01*
X44719879Y-56245497D01*
X44719882Y-56245497D01*
X44744987Y-56242586D01*
X44744988Y-56242585D01*
X44744991Y-56242585D01*
X44847765Y-56197206D01*
X44927206Y-56117765D01*
X44972585Y-56014991D01*
X44975500Y-55989865D01*
X44975499Y-55490136D01*
X44975497Y-55490117D01*
X44972586Y-55465012D01*
X44972585Y-55465011D01*
X44972585Y-55465009D01*
X44939502Y-55390084D01*
X44930431Y-55320809D01*
X44939501Y-55289918D01*
X44972585Y-55214991D01*
X44975500Y-55189865D01*
X44975499Y-54690136D01*
X44975497Y-54690117D01*
X44972586Y-54665012D01*
X44972585Y-54665010D01*
X44972585Y-54665009D01*
X44927206Y-54562235D01*
X44847765Y-54482794D01*
X44823731Y-54472182D01*
X44744992Y-54437415D01*
X44719865Y-54434500D01*
X42360143Y-54434500D01*
X42360117Y-54434502D01*
X42335012Y-54437413D01*
X42335008Y-54437415D01*
X42232235Y-54482793D01*
X42152794Y-54562234D01*
X42107415Y-54665006D01*
X42107415Y-54665008D01*
X42104500Y-54690131D01*
X31497812Y-54690131D01*
X20977190Y-44169509D01*
X20977182Y-44169503D01*
X20871617Y-44108556D01*
X20871612Y-44108553D01*
X20833574Y-44098361D01*
X20753855Y-44077000D01*
X20753852Y-44077000D01*
X18671314Y-44077000D01*
X18604275Y-44057315D01*
X18560829Y-44009295D01*
X18523996Y-43937006D01*
X18510396Y-43918287D01*
X18417558Y-43790505D01*
X18417554Y-43790500D01*
X18289499Y-43662445D01*
X18289494Y-43662441D01*
X18142997Y-43556006D01*
X18142996Y-43556005D01*
X18142994Y-43556004D01*
X18091300Y-43529664D01*
X17981639Y-43473788D01*
X17981636Y-43473787D01*
X17809410Y-43417829D01*
X17630551Y-43389500D01*
X17630546Y-43389500D01*
X17449454Y-43389500D01*
X17449449Y-43389500D01*
X17270589Y-43417829D01*
X17098363Y-43473787D01*
X17098360Y-43473788D01*
X16937002Y-43556006D01*
X16790505Y-43662441D01*
X16790500Y-43662445D01*
X16662445Y-43790500D01*
X16662441Y-43790505D01*
X16556006Y-43937002D01*
X16473788Y-44098360D01*
X16473787Y-44098363D01*
X16417829Y-44270589D01*
X16389500Y-44449448D01*
X9500500Y-44449448D01*
X9500500Y-36449448D01*
X16389500Y-36449448D01*
X16389500Y-36630551D01*
X16417829Y-36809410D01*
X16473787Y-36981636D01*
X16473788Y-36981639D01*
X16556006Y-37142997D01*
X16662441Y-37289494D01*
X16662445Y-37289499D01*
X16790500Y-37417554D01*
X16790505Y-37417558D01*
X16918287Y-37510396D01*
X16937006Y-37523996D01*
X17042484Y-37577740D01*
X17098360Y-37606211D01*
X17098363Y-37606212D01*
X17184476Y-37634191D01*
X17270591Y-37662171D01*
X17353429Y-37675291D01*
X17449449Y-37690500D01*
X17449454Y-37690500D01*
X17630551Y-37690500D01*
X17717259Y-37676765D01*
X17809409Y-37662171D01*
X17981639Y-37606211D01*
X18142994Y-37523996D01*
X18289501Y-37417553D01*
X18417553Y-37289501D01*
X18523996Y-37142994D01*
X18560829Y-37070704D01*
X18608804Y-37019909D01*
X18671314Y-37003000D01*
X37156857Y-37003000D01*
X37223896Y-37022685D01*
X37244538Y-37039319D01*
X49690681Y-49485462D01*
X49724166Y-49546785D01*
X49727000Y-49573143D01*
X49727000Y-51764018D01*
X49707315Y-51831057D01*
X49654511Y-51876812D01*
X49585353Y-51886756D01*
X49534109Y-51867120D01*
X49435238Y-51801056D01*
X49435229Y-51801051D01*
X49296830Y-51743725D01*
X49296822Y-51743723D01*
X49149907Y-51714500D01*
X49149903Y-51714500D01*
X49000097Y-51714500D01*
X49000092Y-51714500D01*
X48853177Y-51743723D01*
X48853169Y-51743725D01*
X48714770Y-51801051D01*
X48714761Y-51801056D01*
X48590209Y-51884280D01*
X48590205Y-51884283D01*
X48484283Y-51990205D01*
X48484280Y-51990209D01*
X48401056Y-52114761D01*
X48401051Y-52114770D01*
X48343725Y-52253169D01*
X48343723Y-52253177D01*
X48314500Y-52400092D01*
X48314500Y-52549907D01*
X48343723Y-52696822D01*
X48343725Y-52696830D01*
X48401051Y-52835229D01*
X48401056Y-52835238D01*
X48484280Y-52959790D01*
X48484283Y-52959794D01*
X48590205Y-53065716D01*
X48590209Y-53065719D01*
X48714761Y-53148943D01*
X48714767Y-53148946D01*
X48714768Y-53148947D01*
X48853170Y-53206275D01*
X49000092Y-53235499D01*
X49000096Y-53235500D01*
X49000097Y-53235500D01*
X49149904Y-53235500D01*
X49149905Y-53235499D01*
X49296830Y-53206275D01*
X49435232Y-53148947D01*
X49534110Y-53082878D01*
X49600786Y-53062001D01*
X49668166Y-53080485D01*
X49714857Y-53132464D01*
X49727000Y-53185981D01*
X49727000Y-53776856D01*
X49707315Y-53843895D01*
X49690681Y-53864537D01*
X49157037Y-54398181D01*
X49095714Y-54431666D01*
X49069356Y-54434500D01*
X48090143Y-54434500D01*
X48090117Y-54434502D01*
X48065012Y-54437413D01*
X48065008Y-54437415D01*
X47962235Y-54482793D01*
X47882794Y-54562234D01*
X47837415Y-54665006D01*
X47837415Y-54665008D01*
X47834500Y-54690131D01*
X47834500Y-55189856D01*
X47834502Y-55189882D01*
X47837413Y-55214987D01*
X47837415Y-55214991D01*
X47882793Y-55317764D01*
X47882794Y-55317765D01*
X47962235Y-55397206D01*
X48065009Y-55442585D01*
X48090135Y-55445500D01*
X50449864Y-55445499D01*
X50449879Y-55445497D01*
X50449882Y-55445497D01*
X50474987Y-55442586D01*
X50474988Y-55442585D01*
X50474991Y-55442585D01*
X50577765Y-55397206D01*
X50657206Y-55317765D01*
X50702585Y-55214991D01*
X50705500Y-55189865D01*
X50705499Y-54690136D01*
X50705497Y-54690117D01*
X50702586Y-54665012D01*
X50702585Y-54665010D01*
X50702585Y-54665009D01*
X50657206Y-54562235D01*
X50577765Y-54482794D01*
X50569640Y-54474669D01*
X50572126Y-54472182D01*
X50540443Y-54433360D01*
X50532543Y-54363938D01*
X50556334Y-54309707D01*
X50560489Y-54304291D01*
X50560492Y-54304289D01*
X50621447Y-54198712D01*
X50653000Y-54080955D01*
X50653000Y-53959046D01*
X50653000Y-49269045D01*
X50642150Y-49228553D01*
X50621447Y-49151288D01*
X50560492Y-49045711D01*
X37684289Y-36169508D01*
X37684287Y-36169507D01*
X37684282Y-36169503D01*
X37578717Y-36108556D01*
X37578712Y-36108553D01*
X37540674Y-36098361D01*
X37460955Y-36077000D01*
X37460952Y-36077000D01*
X18671314Y-36077000D01*
X18604275Y-36057315D01*
X18560829Y-36009295D01*
X18523996Y-35937006D01*
X18510396Y-35918287D01*
X18417558Y-35790505D01*
X18417554Y-35790500D01*
X18289499Y-35662445D01*
X18289494Y-35662441D01*
X18142997Y-35556006D01*
X18142996Y-35556005D01*
X18142994Y-35556004D01*
X18091300Y-35529664D01*
X17981639Y-35473788D01*
X17981636Y-35473787D01*
X17809410Y-35417829D01*
X17630551Y-35389500D01*
X17630546Y-35389500D01*
X17449454Y-35389500D01*
X17449449Y-35389500D01*
X17270589Y-35417829D01*
X17098363Y-35473787D01*
X17098360Y-35473788D01*
X16937002Y-35556006D01*
X16790505Y-35662441D01*
X16790500Y-35662445D01*
X16662445Y-35790500D01*
X16662441Y-35790505D01*
X16556006Y-35937002D01*
X16473788Y-36098360D01*
X16473787Y-36098363D01*
X16417829Y-36270589D01*
X16389500Y-36449448D01*
X9500500Y-36449448D01*
X9500500Y-28449448D01*
X16389500Y-28449448D01*
X16389500Y-28630551D01*
X16417829Y-28809410D01*
X16473787Y-28981636D01*
X16473788Y-28981639D01*
X16556006Y-29142997D01*
X16662441Y-29289494D01*
X16662445Y-29289499D01*
X16790500Y-29417554D01*
X16790505Y-29417558D01*
X16918287Y-29510396D01*
X16937006Y-29523996D01*
X17042484Y-29577740D01*
X17098360Y-29606211D01*
X17098363Y-29606212D01*
X17184476Y-29634191D01*
X17270591Y-29662171D01*
X17353429Y-29675291D01*
X17449449Y-29690500D01*
X17449454Y-29690500D01*
X17630551Y-29690500D01*
X17717259Y-29676765D01*
X17809409Y-29662171D01*
X17981639Y-29606211D01*
X18142994Y-29523996D01*
X18289501Y-29417553D01*
X18417553Y-29289501D01*
X18523996Y-29142994D01*
X18560829Y-29070704D01*
X18608804Y-29019909D01*
X18671314Y-29003000D01*
X35436857Y-29003000D01*
X35503896Y-29022685D01*
X35524538Y-29039319D01*
X52540681Y-46055462D01*
X52574166Y-46116785D01*
X52577000Y-46143143D01*
X52577000Y-54326857D01*
X52557315Y-54393896D01*
X52540681Y-54414538D01*
X50914538Y-56040681D01*
X50887610Y-56055384D01*
X50861792Y-56071977D01*
X50855591Y-56072868D01*
X50853215Y-56074166D01*
X50826857Y-56077000D01*
X50590801Y-56077000D01*
X50540715Y-56066435D01*
X50474991Y-56037415D01*
X50449865Y-56034500D01*
X48090143Y-56034500D01*
X48090117Y-56034502D01*
X48065012Y-56037413D01*
X48065008Y-56037415D01*
X47962235Y-56082793D01*
X47882794Y-56162234D01*
X47837415Y-56265006D01*
X47837415Y-56265008D01*
X47834500Y-56290131D01*
X47834500Y-56789856D01*
X47834502Y-56789882D01*
X47837413Y-56814987D01*
X47837415Y-56814991D01*
X47882793Y-56917764D01*
X47882794Y-56917765D01*
X47962235Y-56997206D01*
X48065009Y-57042585D01*
X48090135Y-57045500D01*
X50449864Y-57045499D01*
X50449879Y-57045497D01*
X50449882Y-57045497D01*
X50474987Y-57042586D01*
X50474987Y-57042585D01*
X50474991Y-57042585D01*
X50530018Y-57018288D01*
X50540716Y-57013565D01*
X50590801Y-57003000D01*
X51130952Y-57003000D01*
X51130955Y-57003000D01*
X51248711Y-56971447D01*
X51354289Y-56910492D01*
X53410492Y-54854289D01*
X53471447Y-54748711D01*
X53503000Y-54630955D01*
X53503000Y-54509045D01*
X53503000Y-45839045D01*
X53471447Y-45721289D01*
X53471447Y-45721288D01*
X53471447Y-45721287D01*
X53437315Y-45662170D01*
X53410492Y-45615711D01*
X35964289Y-28169508D01*
X35964287Y-28169507D01*
X35964282Y-28169503D01*
X35858717Y-28108556D01*
X35858712Y-28108553D01*
X35820674Y-28098361D01*
X35740955Y-28077000D01*
X35740952Y-28077000D01*
X18671314Y-28077000D01*
X18604275Y-28057315D01*
X18560829Y-28009295D01*
X18523996Y-27937006D01*
X18510396Y-27918287D01*
X18417558Y-27790505D01*
X18417554Y-27790500D01*
X18289499Y-27662445D01*
X18289494Y-27662441D01*
X18142997Y-27556006D01*
X18142996Y-27556005D01*
X18142994Y-27556004D01*
X18091300Y-27529664D01*
X17981639Y-27473788D01*
X17981636Y-27473787D01*
X17809410Y-27417829D01*
X17630551Y-27389500D01*
X17630546Y-27389500D01*
X17449454Y-27389500D01*
X17449449Y-27389500D01*
X17270589Y-27417829D01*
X17098363Y-27473787D01*
X17098360Y-27473788D01*
X16937002Y-27556006D01*
X16790505Y-27662441D01*
X16790500Y-27662445D01*
X16662445Y-27790500D01*
X16662441Y-27790505D01*
X16556006Y-27937002D01*
X16473788Y-28098360D01*
X16473787Y-28098363D01*
X16417829Y-28270589D01*
X16389500Y-28449448D01*
X9500500Y-28449448D01*
X9500500Y-14878711D01*
X15689500Y-14878711D01*
X15689500Y-15121288D01*
X15721161Y-15361785D01*
X15783947Y-15596104D01*
X15876773Y-15820205D01*
X15876776Y-15820212D01*
X15998064Y-16030289D01*
X15998066Y-16030292D01*
X15998067Y-16030293D01*
X16145733Y-16222736D01*
X16145739Y-16222743D01*
X16317256Y-16394260D01*
X16317262Y-16394265D01*
X16509711Y-16541936D01*
X16719788Y-16663224D01*
X16943900Y-16756054D01*
X17178211Y-16818838D01*
X17358586Y-16842584D01*
X17418711Y-16850500D01*
X17418712Y-16850500D01*
X17661289Y-16850500D01*
X17709388Y-16844167D01*
X17901789Y-16818838D01*
X18136100Y-16756054D01*
X18360212Y-16663224D01*
X18570289Y-16541936D01*
X18762738Y-16394265D01*
X18934265Y-16222738D01*
X19081936Y-16030289D01*
X19203224Y-15820212D01*
X19296054Y-15596100D01*
X19358838Y-15361789D01*
X19390500Y-15121288D01*
X19390500Y-14878712D01*
X19390500Y-14878711D01*
X73419500Y-14878711D01*
X73419500Y-15121288D01*
X73451161Y-15361785D01*
X73513947Y-15596104D01*
X73606773Y-15820205D01*
X73606776Y-15820212D01*
X73728064Y-16030289D01*
X73728066Y-16030292D01*
X73728067Y-16030293D01*
X73875733Y-16222736D01*
X73875739Y-16222743D01*
X74047256Y-16394260D01*
X74047262Y-16394265D01*
X74239711Y-16541936D01*
X74449788Y-16663224D01*
X74673900Y-16756054D01*
X74908211Y-16818838D01*
X75088586Y-16842584D01*
X75148711Y-16850500D01*
X75148712Y-16850500D01*
X75391289Y-16850500D01*
X75439388Y-16844167D01*
X75631789Y-16818838D01*
X75866100Y-16756054D01*
X76090212Y-16663224D01*
X76300289Y-16541936D01*
X76492738Y-16394265D01*
X76664265Y-16222738D01*
X76811936Y-16030289D01*
X76933224Y-15820212D01*
X77026054Y-15596100D01*
X77088838Y-15361789D01*
X77120500Y-15121288D01*
X77120500Y-14878712D01*
X77088838Y-14638211D01*
X77026054Y-14403900D01*
X76933224Y-14179788D01*
X76811936Y-13969711D01*
X76664265Y-13777262D01*
X76664260Y-13777256D01*
X76492743Y-13605739D01*
X76492736Y-13605733D01*
X76300293Y-13458067D01*
X76300292Y-13458066D01*
X76300289Y-13458064D01*
X76090212Y-13336776D01*
X76090205Y-13336773D01*
X75866104Y-13243947D01*
X75631785Y-13181161D01*
X75391289Y-13149500D01*
X75391288Y-13149500D01*
X75148712Y-13149500D01*
X75148711Y-13149500D01*
X74908214Y-13181161D01*
X74673895Y-13243947D01*
X74449794Y-13336773D01*
X74449785Y-13336777D01*
X74239706Y-13458067D01*
X74047263Y-13605733D01*
X74047256Y-13605739D01*
X73875739Y-13777256D01*
X73875733Y-13777263D01*
X73728067Y-13969706D01*
X73606777Y-14179785D01*
X73606773Y-14179794D01*
X73513947Y-14403895D01*
X73451161Y-14638214D01*
X73419500Y-14878711D01*
X19390500Y-14878711D01*
X19358838Y-14638211D01*
X19296054Y-14403900D01*
X19203224Y-14179788D01*
X19081936Y-13969711D01*
X18934265Y-13777262D01*
X18934260Y-13777256D01*
X18762743Y-13605739D01*
X18762736Y-13605733D01*
X18570293Y-13458067D01*
X18570292Y-13458066D01*
X18570289Y-13458064D01*
X18360212Y-13336776D01*
X18360205Y-13336773D01*
X18136104Y-13243947D01*
X17901785Y-13181161D01*
X17661289Y-13149500D01*
X17661288Y-13149500D01*
X17418712Y-13149500D01*
X17418711Y-13149500D01*
X17178214Y-13181161D01*
X16943895Y-13243947D01*
X16719794Y-13336773D01*
X16719785Y-13336777D01*
X16509706Y-13458067D01*
X16317263Y-13605733D01*
X16317256Y-13605739D01*
X16145739Y-13777256D01*
X16145733Y-13777263D01*
X15998067Y-13969706D01*
X15876777Y-14179785D01*
X15876773Y-14179794D01*
X15783947Y-14403895D01*
X15721161Y-14638214D01*
X15689500Y-14878711D01*
X9500500Y-14878711D01*
X9500500Y-10624500D01*
X9520185Y-10557461D01*
X9572989Y-10511706D01*
X9624500Y-10500500D01*
X83185500Y-10500500D01*
X83252539Y-10520185D01*
G37*
%TD.AperFunction*%
%TD*%
M02*
