%TF.GenerationSoftware,KiCad,Pcbnew,10.0.3*%
%TF.CreationDate,2026-06-24T00:17:40-04:00*%
%TF.ProjectId,board-B-sma,626f6172-642d-4422-9d73-6d612e6b6963,rev?*%
%TF.SameCoordinates,Original*%
%TF.FileFunction,Legend,Top*%
%TF.FilePolarity,Positive*%
%FSLAX46Y46*%
G04 Gerber Fmt 4.6, Leading zero omitted, Abs format (unit mm)*
G04 Created by KiCad (PCBNEW 10.0.3) date 2026-06-24 00:17:40*
%MOMM*%
%LPD*%
G01*
G04 APERTURE LIST*
%ADD10C,0.150000*%
%ADD11C,0.120000*%
G04 APERTURE END LIST*
D10*
X74531905Y-150194819D02*
X74531905Y-149194819D01*
X75103333Y-150194819D02*
X74674762Y-149623390D01*
X75103333Y-149194819D02*
X74531905Y-149766247D01*
X75436667Y-149194819D02*
X76103333Y-149194819D01*
X76103333Y-149194819D02*
X75674762Y-150194819D01*
X74055714Y-50194819D02*
X74055714Y-49194819D01*
X74627142Y-50194819D02*
X74198571Y-49623390D01*
X74627142Y-49194819D02*
X74055714Y-49766247D01*
X75579523Y-50194819D02*
X75008095Y-50194819D01*
X75293809Y-50194819D02*
X75293809Y-49194819D01*
X75293809Y-49194819D02*
X75198571Y-49337676D01*
X75198571Y-49337676D02*
X75103333Y-49432914D01*
X75103333Y-49432914D02*
X75008095Y-49480533D01*
X76150952Y-49623390D02*
X76055714Y-49575771D01*
X76055714Y-49575771D02*
X76008095Y-49528152D01*
X76008095Y-49528152D02*
X75960476Y-49432914D01*
X75960476Y-49432914D02*
X75960476Y-49385295D01*
X75960476Y-49385295D02*
X76008095Y-49290057D01*
X76008095Y-49290057D02*
X76055714Y-49242438D01*
X76055714Y-49242438D02*
X76150952Y-49194819D01*
X76150952Y-49194819D02*
X76341428Y-49194819D01*
X76341428Y-49194819D02*
X76436666Y-49242438D01*
X76436666Y-49242438D02*
X76484285Y-49290057D01*
X76484285Y-49290057D02*
X76531904Y-49385295D01*
X76531904Y-49385295D02*
X76531904Y-49432914D01*
X76531904Y-49432914D02*
X76484285Y-49528152D01*
X76484285Y-49528152D02*
X76436666Y-49575771D01*
X76436666Y-49575771D02*
X76341428Y-49623390D01*
X76341428Y-49623390D02*
X76150952Y-49623390D01*
X76150952Y-49623390D02*
X76055714Y-49671009D01*
X76055714Y-49671009D02*
X76008095Y-49718628D01*
X76008095Y-49718628D02*
X75960476Y-49813866D01*
X75960476Y-49813866D02*
X75960476Y-50004342D01*
X75960476Y-50004342D02*
X76008095Y-50099580D01*
X76008095Y-50099580D02*
X76055714Y-50147200D01*
X76055714Y-50147200D02*
X76150952Y-50194819D01*
X76150952Y-50194819D02*
X76341428Y-50194819D01*
X76341428Y-50194819D02*
X76436666Y-50147200D01*
X76436666Y-50147200D02*
X76484285Y-50099580D01*
X76484285Y-50099580D02*
X76531904Y-50004342D01*
X76531904Y-50004342D02*
X76531904Y-49813866D01*
X76531904Y-49813866D02*
X76484285Y-49718628D01*
X76484285Y-49718628D02*
X76436666Y-49671009D01*
X76436666Y-49671009D02*
X76341428Y-49623390D01*
X74841429Y-90194819D02*
X74841429Y-89194819D01*
X75174762Y-89194819D02*
X75508095Y-90194819D01*
X75508095Y-90194819D02*
X75841428Y-89194819D01*
X16325714Y-24794819D02*
X16325714Y-23794819D01*
X16897142Y-24794819D02*
X16468571Y-24223390D01*
X16897142Y-23794819D02*
X16325714Y-24366247D01*
X17278095Y-23890057D02*
X17325714Y-23842438D01*
X17325714Y-23842438D02*
X17420952Y-23794819D01*
X17420952Y-23794819D02*
X17659047Y-23794819D01*
X17659047Y-23794819D02*
X17754285Y-23842438D01*
X17754285Y-23842438D02*
X17801904Y-23890057D01*
X17801904Y-23890057D02*
X17849523Y-23985295D01*
X17849523Y-23985295D02*
X17849523Y-24080533D01*
X17849523Y-24080533D02*
X17801904Y-24223390D01*
X17801904Y-24223390D02*
X17230476Y-24794819D01*
X17230476Y-24794819D02*
X17849523Y-24794819D01*
X18230476Y-23890057D02*
X18278095Y-23842438D01*
X18278095Y-23842438D02*
X18373333Y-23794819D01*
X18373333Y-23794819D02*
X18611428Y-23794819D01*
X18611428Y-23794819D02*
X18706666Y-23842438D01*
X18706666Y-23842438D02*
X18754285Y-23890057D01*
X18754285Y-23890057D02*
X18801904Y-23985295D01*
X18801904Y-23985295D02*
X18801904Y-24080533D01*
X18801904Y-24080533D02*
X18754285Y-24223390D01*
X18754285Y-24223390D02*
X18182857Y-24794819D01*
X18182857Y-24794819D02*
X18801904Y-24794819D01*
X16206667Y-11304819D02*
X16206667Y-10304819D01*
X16206667Y-10304819D02*
X16540000Y-11019104D01*
X16540000Y-11019104D02*
X16873333Y-10304819D01*
X16873333Y-10304819D02*
X16873333Y-11304819D01*
X17349524Y-11304819D02*
X17349524Y-10304819D01*
X17349524Y-10781009D02*
X17920952Y-10781009D01*
X17920952Y-11304819D02*
X17920952Y-10304819D01*
X18920952Y-11304819D02*
X18349524Y-11304819D01*
X18635238Y-11304819D02*
X18635238Y-10304819D01*
X18635238Y-10304819D02*
X18540000Y-10447676D01*
X18540000Y-10447676D02*
X18444762Y-10542914D01*
X18444762Y-10542914D02*
X18349524Y-10590533D01*
X16325714Y-64794819D02*
X16325714Y-63794819D01*
X16897142Y-64794819D02*
X16468571Y-64223390D01*
X16897142Y-63794819D02*
X16325714Y-64366247D01*
X17849523Y-64794819D02*
X17278095Y-64794819D01*
X17563809Y-64794819D02*
X17563809Y-63794819D01*
X17563809Y-63794819D02*
X17468571Y-63937676D01*
X17468571Y-63937676D02*
X17373333Y-64032914D01*
X17373333Y-64032914D02*
X17278095Y-64080533D01*
X18182857Y-63794819D02*
X18801904Y-63794819D01*
X18801904Y-63794819D02*
X18468571Y-64175771D01*
X18468571Y-64175771D02*
X18611428Y-64175771D01*
X18611428Y-64175771D02*
X18706666Y-64223390D01*
X18706666Y-64223390D02*
X18754285Y-64271009D01*
X18754285Y-64271009D02*
X18801904Y-64366247D01*
X18801904Y-64366247D02*
X18801904Y-64604342D01*
X18801904Y-64604342D02*
X18754285Y-64699580D01*
X18754285Y-64699580D02*
X18706666Y-64747200D01*
X18706666Y-64747200D02*
X18611428Y-64794819D01*
X18611428Y-64794819D02*
X18325714Y-64794819D01*
X18325714Y-64794819D02*
X18230476Y-64747200D01*
X18230476Y-64747200D02*
X18182857Y-64699580D01*
X16801905Y-134794819D02*
X16801905Y-133794819D01*
X17373333Y-134794819D02*
X16944762Y-134223390D01*
X17373333Y-133794819D02*
X16801905Y-134366247D01*
X18325714Y-134794819D02*
X17754286Y-134794819D01*
X18040000Y-134794819D02*
X18040000Y-133794819D01*
X18040000Y-133794819D02*
X17944762Y-133937676D01*
X17944762Y-133937676D02*
X17849524Y-134032914D01*
X17849524Y-134032914D02*
X17754286Y-134080533D01*
X74055714Y-40194819D02*
X74055714Y-39194819D01*
X74627142Y-40194819D02*
X74198571Y-39623390D01*
X74627142Y-39194819D02*
X74055714Y-39766247D01*
X75579523Y-40194819D02*
X75008095Y-40194819D01*
X75293809Y-40194819D02*
X75293809Y-39194819D01*
X75293809Y-39194819D02*
X75198571Y-39337676D01*
X75198571Y-39337676D02*
X75103333Y-39432914D01*
X75103333Y-39432914D02*
X75008095Y-39480533D01*
X75912857Y-39194819D02*
X76579523Y-39194819D01*
X76579523Y-39194819D02*
X76150952Y-40194819D01*
X74531905Y-140194819D02*
X74531905Y-139194819D01*
X75103333Y-140194819D02*
X74674762Y-139623390D01*
X75103333Y-139194819D02*
X74531905Y-139766247D01*
X75960476Y-139194819D02*
X75770000Y-139194819D01*
X75770000Y-139194819D02*
X75674762Y-139242438D01*
X75674762Y-139242438D02*
X75627143Y-139290057D01*
X75627143Y-139290057D02*
X75531905Y-139432914D01*
X75531905Y-139432914D02*
X75484286Y-139623390D01*
X75484286Y-139623390D02*
X75484286Y-140004342D01*
X75484286Y-140004342D02*
X75531905Y-140099580D01*
X75531905Y-140099580D02*
X75579524Y-140147200D01*
X75579524Y-140147200D02*
X75674762Y-140194819D01*
X75674762Y-140194819D02*
X75865238Y-140194819D01*
X75865238Y-140194819D02*
X75960476Y-140147200D01*
X75960476Y-140147200D02*
X76008095Y-140099580D01*
X76008095Y-140099580D02*
X76055714Y-140004342D01*
X76055714Y-140004342D02*
X76055714Y-139766247D01*
X76055714Y-139766247D02*
X76008095Y-139671009D01*
X76008095Y-139671009D02*
X75960476Y-139623390D01*
X75960476Y-139623390D02*
X75865238Y-139575771D01*
X75865238Y-139575771D02*
X75674762Y-139575771D01*
X75674762Y-139575771D02*
X75579524Y-139623390D01*
X75579524Y-139623390D02*
X75531905Y-139671009D01*
X75531905Y-139671009D02*
X75484286Y-139766247D01*
X74055714Y-80194819D02*
X74055714Y-79194819D01*
X74627142Y-80194819D02*
X74198571Y-79623390D01*
X74627142Y-79194819D02*
X74055714Y-79766247D01*
X75008095Y-79290057D02*
X75055714Y-79242438D01*
X75055714Y-79242438D02*
X75150952Y-79194819D01*
X75150952Y-79194819D02*
X75389047Y-79194819D01*
X75389047Y-79194819D02*
X75484285Y-79242438D01*
X75484285Y-79242438D02*
X75531904Y-79290057D01*
X75531904Y-79290057D02*
X75579523Y-79385295D01*
X75579523Y-79385295D02*
X75579523Y-79480533D01*
X75579523Y-79480533D02*
X75531904Y-79623390D01*
X75531904Y-79623390D02*
X74960476Y-80194819D01*
X74960476Y-80194819D02*
X75579523Y-80194819D01*
X76531904Y-80194819D02*
X75960476Y-80194819D01*
X76246190Y-80194819D02*
X76246190Y-79194819D01*
X76246190Y-79194819D02*
X76150952Y-79337676D01*
X76150952Y-79337676D02*
X76055714Y-79432914D01*
X76055714Y-79432914D02*
X75960476Y-79480533D01*
X74531905Y-130194819D02*
X74531905Y-129194819D01*
X75103333Y-130194819D02*
X74674762Y-129623390D01*
X75103333Y-129194819D02*
X74531905Y-129766247D01*
X76008095Y-129194819D02*
X75531905Y-129194819D01*
X75531905Y-129194819D02*
X75484286Y-129671009D01*
X75484286Y-129671009D02*
X75531905Y-129623390D01*
X75531905Y-129623390D02*
X75627143Y-129575771D01*
X75627143Y-129575771D02*
X75865238Y-129575771D01*
X75865238Y-129575771D02*
X75960476Y-129623390D01*
X75960476Y-129623390D02*
X76008095Y-129671009D01*
X76008095Y-129671009D02*
X76055714Y-129766247D01*
X76055714Y-129766247D02*
X76055714Y-130004342D01*
X76055714Y-130004342D02*
X76008095Y-130099580D01*
X76008095Y-130099580D02*
X75960476Y-130147200D01*
X75960476Y-130147200D02*
X75865238Y-130194819D01*
X75865238Y-130194819D02*
X75627143Y-130194819D01*
X75627143Y-130194819D02*
X75531905Y-130147200D01*
X75531905Y-130147200D02*
X75484286Y-130099580D01*
X74055714Y-30194819D02*
X74055714Y-29194819D01*
X74627142Y-30194819D02*
X74198571Y-29623390D01*
X74627142Y-29194819D02*
X74055714Y-29766247D01*
X75579523Y-30194819D02*
X75008095Y-30194819D01*
X75293809Y-30194819D02*
X75293809Y-29194819D01*
X75293809Y-29194819D02*
X75198571Y-29337676D01*
X75198571Y-29337676D02*
X75103333Y-29432914D01*
X75103333Y-29432914D02*
X75008095Y-29480533D01*
X76436666Y-29194819D02*
X76246190Y-29194819D01*
X76246190Y-29194819D02*
X76150952Y-29242438D01*
X76150952Y-29242438D02*
X76103333Y-29290057D01*
X76103333Y-29290057D02*
X76008095Y-29432914D01*
X76008095Y-29432914D02*
X75960476Y-29623390D01*
X75960476Y-29623390D02*
X75960476Y-30004342D01*
X75960476Y-30004342D02*
X76008095Y-30099580D01*
X76008095Y-30099580D02*
X76055714Y-30147200D01*
X76055714Y-30147200D02*
X76150952Y-30194819D01*
X76150952Y-30194819D02*
X76341428Y-30194819D01*
X76341428Y-30194819D02*
X76436666Y-30147200D01*
X76436666Y-30147200D02*
X76484285Y-30099580D01*
X76484285Y-30099580D02*
X76531904Y-30004342D01*
X76531904Y-30004342D02*
X76531904Y-29766247D01*
X76531904Y-29766247D02*
X76484285Y-29671009D01*
X76484285Y-29671009D02*
X76436666Y-29623390D01*
X76436666Y-29623390D02*
X76341428Y-29575771D01*
X76341428Y-29575771D02*
X76150952Y-29575771D01*
X76150952Y-29575771D02*
X76055714Y-29623390D01*
X76055714Y-29623390D02*
X76008095Y-29671009D01*
X76008095Y-29671009D02*
X75960476Y-29766247D01*
X16325714Y-94794819D02*
X16325714Y-93794819D01*
X16897142Y-94794819D02*
X16468571Y-94223390D01*
X16897142Y-93794819D02*
X16325714Y-94366247D01*
X17849523Y-94794819D02*
X17278095Y-94794819D01*
X17563809Y-94794819D02*
X17563809Y-93794819D01*
X17563809Y-93794819D02*
X17468571Y-93937676D01*
X17468571Y-93937676D02*
X17373333Y-94032914D01*
X17373333Y-94032914D02*
X17278095Y-94080533D01*
X18468571Y-93794819D02*
X18563809Y-93794819D01*
X18563809Y-93794819D02*
X18659047Y-93842438D01*
X18659047Y-93842438D02*
X18706666Y-93890057D01*
X18706666Y-93890057D02*
X18754285Y-93985295D01*
X18754285Y-93985295D02*
X18801904Y-94175771D01*
X18801904Y-94175771D02*
X18801904Y-94413866D01*
X18801904Y-94413866D02*
X18754285Y-94604342D01*
X18754285Y-94604342D02*
X18706666Y-94699580D01*
X18706666Y-94699580D02*
X18659047Y-94747200D01*
X18659047Y-94747200D02*
X18563809Y-94794819D01*
X18563809Y-94794819D02*
X18468571Y-94794819D01*
X18468571Y-94794819D02*
X18373333Y-94747200D01*
X18373333Y-94747200D02*
X18325714Y-94699580D01*
X18325714Y-94699580D02*
X18278095Y-94604342D01*
X18278095Y-94604342D02*
X18230476Y-94413866D01*
X18230476Y-94413866D02*
X18230476Y-94175771D01*
X18230476Y-94175771D02*
X18278095Y-93985295D01*
X18278095Y-93985295D02*
X18325714Y-93890057D01*
X18325714Y-93890057D02*
X18373333Y-93842438D01*
X18373333Y-93842438D02*
X18468571Y-93794819D01*
X74055714Y-70194819D02*
X74055714Y-69194819D01*
X74627142Y-70194819D02*
X74198571Y-69623390D01*
X74627142Y-69194819D02*
X74055714Y-69766247D01*
X75008095Y-69290057D02*
X75055714Y-69242438D01*
X75055714Y-69242438D02*
X75150952Y-69194819D01*
X75150952Y-69194819D02*
X75389047Y-69194819D01*
X75389047Y-69194819D02*
X75484285Y-69242438D01*
X75484285Y-69242438D02*
X75531904Y-69290057D01*
X75531904Y-69290057D02*
X75579523Y-69385295D01*
X75579523Y-69385295D02*
X75579523Y-69480533D01*
X75579523Y-69480533D02*
X75531904Y-69623390D01*
X75531904Y-69623390D02*
X74960476Y-70194819D01*
X74960476Y-70194819D02*
X75579523Y-70194819D01*
X76198571Y-69194819D02*
X76293809Y-69194819D01*
X76293809Y-69194819D02*
X76389047Y-69242438D01*
X76389047Y-69242438D02*
X76436666Y-69290057D01*
X76436666Y-69290057D02*
X76484285Y-69385295D01*
X76484285Y-69385295D02*
X76531904Y-69575771D01*
X76531904Y-69575771D02*
X76531904Y-69813866D01*
X76531904Y-69813866D02*
X76484285Y-70004342D01*
X76484285Y-70004342D02*
X76436666Y-70099580D01*
X76436666Y-70099580D02*
X76389047Y-70147200D01*
X76389047Y-70147200D02*
X76293809Y-70194819D01*
X76293809Y-70194819D02*
X76198571Y-70194819D01*
X76198571Y-70194819D02*
X76103333Y-70147200D01*
X76103333Y-70147200D02*
X76055714Y-70099580D01*
X76055714Y-70099580D02*
X76008095Y-70004342D01*
X76008095Y-70004342D02*
X75960476Y-69813866D01*
X75960476Y-69813866D02*
X75960476Y-69575771D01*
X75960476Y-69575771D02*
X76008095Y-69385295D01*
X76008095Y-69385295D02*
X76055714Y-69290057D01*
X76055714Y-69290057D02*
X76103333Y-69242438D01*
X76103333Y-69242438D02*
X76198571Y-69194819D01*
X16325714Y-74794819D02*
X16325714Y-73794819D01*
X16897142Y-74794819D02*
X16468571Y-74223390D01*
X16897142Y-73794819D02*
X16325714Y-74366247D01*
X17849523Y-74794819D02*
X17278095Y-74794819D01*
X17563809Y-74794819D02*
X17563809Y-73794819D01*
X17563809Y-73794819D02*
X17468571Y-73937676D01*
X17468571Y-73937676D02*
X17373333Y-74032914D01*
X17373333Y-74032914D02*
X17278095Y-74080533D01*
X18230476Y-73890057D02*
X18278095Y-73842438D01*
X18278095Y-73842438D02*
X18373333Y-73794819D01*
X18373333Y-73794819D02*
X18611428Y-73794819D01*
X18611428Y-73794819D02*
X18706666Y-73842438D01*
X18706666Y-73842438D02*
X18754285Y-73890057D01*
X18754285Y-73890057D02*
X18801904Y-73985295D01*
X18801904Y-73985295D02*
X18801904Y-74080533D01*
X18801904Y-74080533D02*
X18754285Y-74223390D01*
X18754285Y-74223390D02*
X18182857Y-74794819D01*
X18182857Y-74794819D02*
X18801904Y-74794819D01*
X74531905Y-100194819D02*
X74531905Y-99194819D01*
X75103333Y-100194819D02*
X74674762Y-99623390D01*
X75103333Y-99194819D02*
X74531905Y-99766247D01*
X75484286Y-99290057D02*
X75531905Y-99242438D01*
X75531905Y-99242438D02*
X75627143Y-99194819D01*
X75627143Y-99194819D02*
X75865238Y-99194819D01*
X75865238Y-99194819D02*
X75960476Y-99242438D01*
X75960476Y-99242438D02*
X76008095Y-99290057D01*
X76008095Y-99290057D02*
X76055714Y-99385295D01*
X76055714Y-99385295D02*
X76055714Y-99480533D01*
X76055714Y-99480533D02*
X76008095Y-99623390D01*
X76008095Y-99623390D02*
X75436667Y-100194819D01*
X75436667Y-100194819D02*
X76055714Y-100194819D01*
X73936667Y-11304819D02*
X73936667Y-10304819D01*
X73936667Y-10304819D02*
X74270000Y-11019104D01*
X74270000Y-11019104D02*
X74603333Y-10304819D01*
X74603333Y-10304819D02*
X74603333Y-11304819D01*
X75079524Y-11304819D02*
X75079524Y-10304819D01*
X75079524Y-10781009D02*
X75650952Y-10781009D01*
X75650952Y-11304819D02*
X75650952Y-10304819D01*
X76079524Y-10400057D02*
X76127143Y-10352438D01*
X76127143Y-10352438D02*
X76222381Y-10304819D01*
X76222381Y-10304819D02*
X76460476Y-10304819D01*
X76460476Y-10304819D02*
X76555714Y-10352438D01*
X76555714Y-10352438D02*
X76603333Y-10400057D01*
X76603333Y-10400057D02*
X76650952Y-10495295D01*
X76650952Y-10495295D02*
X76650952Y-10590533D01*
X76650952Y-10590533D02*
X76603333Y-10733390D01*
X76603333Y-10733390D02*
X76031905Y-11304819D01*
X76031905Y-11304819D02*
X76650952Y-11304819D01*
X16801905Y-114794819D02*
X16801905Y-113794819D01*
X17373333Y-114794819D02*
X16944762Y-114223390D01*
X17373333Y-113794819D02*
X16801905Y-114366247D01*
X17992381Y-113794819D02*
X18087619Y-113794819D01*
X18087619Y-113794819D02*
X18182857Y-113842438D01*
X18182857Y-113842438D02*
X18230476Y-113890057D01*
X18230476Y-113890057D02*
X18278095Y-113985295D01*
X18278095Y-113985295D02*
X18325714Y-114175771D01*
X18325714Y-114175771D02*
X18325714Y-114413866D01*
X18325714Y-114413866D02*
X18278095Y-114604342D01*
X18278095Y-114604342D02*
X18230476Y-114699580D01*
X18230476Y-114699580D02*
X18182857Y-114747200D01*
X18182857Y-114747200D02*
X18087619Y-114794819D01*
X18087619Y-114794819D02*
X17992381Y-114794819D01*
X17992381Y-114794819D02*
X17897143Y-114747200D01*
X17897143Y-114747200D02*
X17849524Y-114699580D01*
X17849524Y-114699580D02*
X17801905Y-114604342D01*
X17801905Y-114604342D02*
X17754286Y-114413866D01*
X17754286Y-114413866D02*
X17754286Y-114175771D01*
X17754286Y-114175771D02*
X17801905Y-113985295D01*
X17801905Y-113985295D02*
X17849524Y-113890057D01*
X17849524Y-113890057D02*
X17897143Y-113842438D01*
X17897143Y-113842438D02*
X17992381Y-113794819D01*
X16325714Y-84794819D02*
X16325714Y-83794819D01*
X16897142Y-84794819D02*
X16468571Y-84223390D01*
X16897142Y-83794819D02*
X16325714Y-84366247D01*
X17849523Y-84794819D02*
X17278095Y-84794819D01*
X17563809Y-84794819D02*
X17563809Y-83794819D01*
X17563809Y-83794819D02*
X17468571Y-83937676D01*
X17468571Y-83937676D02*
X17373333Y-84032914D01*
X17373333Y-84032914D02*
X17278095Y-84080533D01*
X18801904Y-84794819D02*
X18230476Y-84794819D01*
X18516190Y-84794819D02*
X18516190Y-83794819D01*
X18516190Y-83794819D02*
X18420952Y-83937676D01*
X18420952Y-83937676D02*
X18325714Y-84032914D01*
X18325714Y-84032914D02*
X18230476Y-84080533D01*
X16325714Y-34794819D02*
X16325714Y-33794819D01*
X16897142Y-34794819D02*
X16468571Y-34223390D01*
X16897142Y-33794819D02*
X16325714Y-34366247D01*
X17849523Y-34794819D02*
X17278095Y-34794819D01*
X17563809Y-34794819D02*
X17563809Y-33794819D01*
X17563809Y-33794819D02*
X17468571Y-33937676D01*
X17468571Y-33937676D02*
X17373333Y-34032914D01*
X17373333Y-34032914D02*
X17278095Y-34080533D01*
X18754285Y-33794819D02*
X18278095Y-33794819D01*
X18278095Y-33794819D02*
X18230476Y-34271009D01*
X18230476Y-34271009D02*
X18278095Y-34223390D01*
X18278095Y-34223390D02*
X18373333Y-34175771D01*
X18373333Y-34175771D02*
X18611428Y-34175771D01*
X18611428Y-34175771D02*
X18706666Y-34223390D01*
X18706666Y-34223390D02*
X18754285Y-34271009D01*
X18754285Y-34271009D02*
X18801904Y-34366247D01*
X18801904Y-34366247D02*
X18801904Y-34604342D01*
X18801904Y-34604342D02*
X18754285Y-34699580D01*
X18754285Y-34699580D02*
X18706666Y-34747200D01*
X18706666Y-34747200D02*
X18611428Y-34794819D01*
X18611428Y-34794819D02*
X18373333Y-34794819D01*
X18373333Y-34794819D02*
X18278095Y-34747200D01*
X18278095Y-34747200D02*
X18230476Y-34699580D01*
X16801905Y-124794819D02*
X16801905Y-123794819D01*
X17373333Y-124794819D02*
X16944762Y-124223390D01*
X17373333Y-123794819D02*
X16801905Y-124366247D01*
X17944762Y-124223390D02*
X17849524Y-124175771D01*
X17849524Y-124175771D02*
X17801905Y-124128152D01*
X17801905Y-124128152D02*
X17754286Y-124032914D01*
X17754286Y-124032914D02*
X17754286Y-123985295D01*
X17754286Y-123985295D02*
X17801905Y-123890057D01*
X17801905Y-123890057D02*
X17849524Y-123842438D01*
X17849524Y-123842438D02*
X17944762Y-123794819D01*
X17944762Y-123794819D02*
X18135238Y-123794819D01*
X18135238Y-123794819D02*
X18230476Y-123842438D01*
X18230476Y-123842438D02*
X18278095Y-123890057D01*
X18278095Y-123890057D02*
X18325714Y-123985295D01*
X18325714Y-123985295D02*
X18325714Y-124032914D01*
X18325714Y-124032914D02*
X18278095Y-124128152D01*
X18278095Y-124128152D02*
X18230476Y-124175771D01*
X18230476Y-124175771D02*
X18135238Y-124223390D01*
X18135238Y-124223390D02*
X17944762Y-124223390D01*
X17944762Y-124223390D02*
X17849524Y-124271009D01*
X17849524Y-124271009D02*
X17801905Y-124318628D01*
X17801905Y-124318628D02*
X17754286Y-124413866D01*
X17754286Y-124413866D02*
X17754286Y-124604342D01*
X17754286Y-124604342D02*
X17801905Y-124699580D01*
X17801905Y-124699580D02*
X17849524Y-124747200D01*
X17849524Y-124747200D02*
X17944762Y-124794819D01*
X17944762Y-124794819D02*
X18135238Y-124794819D01*
X18135238Y-124794819D02*
X18230476Y-124747200D01*
X18230476Y-124747200D02*
X18278095Y-124699580D01*
X18278095Y-124699580D02*
X18325714Y-124604342D01*
X18325714Y-124604342D02*
X18325714Y-124413866D01*
X18325714Y-124413866D02*
X18278095Y-124318628D01*
X18278095Y-124318628D02*
X18230476Y-124271009D01*
X18230476Y-124271009D02*
X18135238Y-124223390D01*
X74531905Y-110194819D02*
X74531905Y-109194819D01*
X75103333Y-110194819D02*
X74674762Y-109623390D01*
X75103333Y-109194819D02*
X74531905Y-109766247D01*
X75436667Y-109194819D02*
X76055714Y-109194819D01*
X76055714Y-109194819D02*
X75722381Y-109575771D01*
X75722381Y-109575771D02*
X75865238Y-109575771D01*
X75865238Y-109575771D02*
X75960476Y-109623390D01*
X75960476Y-109623390D02*
X76008095Y-109671009D01*
X76008095Y-109671009D02*
X76055714Y-109766247D01*
X76055714Y-109766247D02*
X76055714Y-110004342D01*
X76055714Y-110004342D02*
X76008095Y-110099580D01*
X76008095Y-110099580D02*
X75960476Y-110147200D01*
X75960476Y-110147200D02*
X75865238Y-110194819D01*
X75865238Y-110194819D02*
X75579524Y-110194819D01*
X75579524Y-110194819D02*
X75484286Y-110147200D01*
X75484286Y-110147200D02*
X75436667Y-110099580D01*
X74531905Y-120194819D02*
X74531905Y-119194819D01*
X75103333Y-120194819D02*
X74674762Y-119623390D01*
X75103333Y-119194819D02*
X74531905Y-119766247D01*
X75960476Y-119528152D02*
X75960476Y-120194819D01*
X75722381Y-119147200D02*
X75484286Y-119861485D01*
X75484286Y-119861485D02*
X76103333Y-119861485D01*
X74055714Y-60194819D02*
X74055714Y-59194819D01*
X74627142Y-60194819D02*
X74198571Y-59623390D01*
X74627142Y-59194819D02*
X74055714Y-59766247D01*
X75579523Y-60194819D02*
X75008095Y-60194819D01*
X75293809Y-60194819D02*
X75293809Y-59194819D01*
X75293809Y-59194819D02*
X75198571Y-59337676D01*
X75198571Y-59337676D02*
X75103333Y-59432914D01*
X75103333Y-59432914D02*
X75008095Y-59480533D01*
X76055714Y-60194819D02*
X76246190Y-60194819D01*
X76246190Y-60194819D02*
X76341428Y-60147200D01*
X76341428Y-60147200D02*
X76389047Y-60099580D01*
X76389047Y-60099580D02*
X76484285Y-59956723D01*
X76484285Y-59956723D02*
X76531904Y-59766247D01*
X76531904Y-59766247D02*
X76531904Y-59385295D01*
X76531904Y-59385295D02*
X76484285Y-59290057D01*
X76484285Y-59290057D02*
X76436666Y-59242438D01*
X76436666Y-59242438D02*
X76341428Y-59194819D01*
X76341428Y-59194819D02*
X76150952Y-59194819D01*
X76150952Y-59194819D02*
X76055714Y-59242438D01*
X76055714Y-59242438D02*
X76008095Y-59290057D01*
X76008095Y-59290057D02*
X75960476Y-59385295D01*
X75960476Y-59385295D02*
X75960476Y-59623390D01*
X75960476Y-59623390D02*
X76008095Y-59718628D01*
X76008095Y-59718628D02*
X76055714Y-59766247D01*
X76055714Y-59766247D02*
X76150952Y-59813866D01*
X76150952Y-59813866D02*
X76341428Y-59813866D01*
X76341428Y-59813866D02*
X76436666Y-59766247D01*
X76436666Y-59766247D02*
X76484285Y-59718628D01*
X76484285Y-59718628D02*
X76531904Y-59623390D01*
X73936667Y-150384819D02*
X73936667Y-149384819D01*
X73936667Y-149384819D02*
X74270000Y-150099104D01*
X74270000Y-150099104D02*
X74603333Y-149384819D01*
X74603333Y-149384819D02*
X74603333Y-150384819D01*
X75079524Y-150384819D02*
X75079524Y-149384819D01*
X75079524Y-149861009D02*
X75650952Y-149861009D01*
X75650952Y-150384819D02*
X75650952Y-149384819D01*
X76555714Y-149718152D02*
X76555714Y-150384819D01*
X76317619Y-149337200D02*
X76079524Y-150051485D01*
X76079524Y-150051485D02*
X76698571Y-150051485D01*
X16325714Y-54794819D02*
X16325714Y-53794819D01*
X16897142Y-54794819D02*
X16468571Y-54223390D01*
X16897142Y-53794819D02*
X16325714Y-54366247D01*
X17849523Y-54794819D02*
X17278095Y-54794819D01*
X17563809Y-54794819D02*
X17563809Y-53794819D01*
X17563809Y-53794819D02*
X17468571Y-53937676D01*
X17468571Y-53937676D02*
X17373333Y-54032914D01*
X17373333Y-54032914D02*
X17278095Y-54080533D01*
X18706666Y-54128152D02*
X18706666Y-54794819D01*
X18468571Y-53747200D02*
X18230476Y-54461485D01*
X18230476Y-54461485D02*
X18849523Y-54461485D01*
X16801905Y-104794819D02*
X16801905Y-103794819D01*
X17373333Y-104794819D02*
X16944762Y-104223390D01*
X17373333Y-103794819D02*
X16801905Y-104366247D01*
X17849524Y-104794819D02*
X18040000Y-104794819D01*
X18040000Y-104794819D02*
X18135238Y-104747200D01*
X18135238Y-104747200D02*
X18182857Y-104699580D01*
X18182857Y-104699580D02*
X18278095Y-104556723D01*
X18278095Y-104556723D02*
X18325714Y-104366247D01*
X18325714Y-104366247D02*
X18325714Y-103985295D01*
X18325714Y-103985295D02*
X18278095Y-103890057D01*
X18278095Y-103890057D02*
X18230476Y-103842438D01*
X18230476Y-103842438D02*
X18135238Y-103794819D01*
X18135238Y-103794819D02*
X17944762Y-103794819D01*
X17944762Y-103794819D02*
X17849524Y-103842438D01*
X17849524Y-103842438D02*
X17801905Y-103890057D01*
X17801905Y-103890057D02*
X17754286Y-103985295D01*
X17754286Y-103985295D02*
X17754286Y-104223390D01*
X17754286Y-104223390D02*
X17801905Y-104318628D01*
X17801905Y-104318628D02*
X17849524Y-104366247D01*
X17849524Y-104366247D02*
X17944762Y-104413866D01*
X17944762Y-104413866D02*
X18135238Y-104413866D01*
X18135238Y-104413866D02*
X18230476Y-104366247D01*
X18230476Y-104366247D02*
X18278095Y-104318628D01*
X18278095Y-104318628D02*
X18325714Y-104223390D01*
X16325714Y-44794819D02*
X16325714Y-43794819D01*
X16897142Y-44794819D02*
X16468571Y-44223390D01*
X16897142Y-43794819D02*
X16325714Y-44366247D01*
X17278095Y-43890057D02*
X17325714Y-43842438D01*
X17325714Y-43842438D02*
X17420952Y-43794819D01*
X17420952Y-43794819D02*
X17659047Y-43794819D01*
X17659047Y-43794819D02*
X17754285Y-43842438D01*
X17754285Y-43842438D02*
X17801904Y-43890057D01*
X17801904Y-43890057D02*
X17849523Y-43985295D01*
X17849523Y-43985295D02*
X17849523Y-44080533D01*
X17849523Y-44080533D02*
X17801904Y-44223390D01*
X17801904Y-44223390D02*
X17230476Y-44794819D01*
X17230476Y-44794819D02*
X17849523Y-44794819D01*
X18182857Y-43794819D02*
X18801904Y-43794819D01*
X18801904Y-43794819D02*
X18468571Y-44175771D01*
X18468571Y-44175771D02*
X18611428Y-44175771D01*
X18611428Y-44175771D02*
X18706666Y-44223390D01*
X18706666Y-44223390D02*
X18754285Y-44271009D01*
X18754285Y-44271009D02*
X18801904Y-44366247D01*
X18801904Y-44366247D02*
X18801904Y-44604342D01*
X18801904Y-44604342D02*
X18754285Y-44699580D01*
X18754285Y-44699580D02*
X18706666Y-44747200D01*
X18706666Y-44747200D02*
X18611428Y-44794819D01*
X18611428Y-44794819D02*
X18325714Y-44794819D01*
X18325714Y-44794819D02*
X18230476Y-44747200D01*
X18230476Y-44747200D02*
X18182857Y-44699580D01*
X16206667Y-150384819D02*
X16206667Y-149384819D01*
X16206667Y-149384819D02*
X16540000Y-150099104D01*
X16540000Y-150099104D02*
X16873333Y-149384819D01*
X16873333Y-149384819D02*
X16873333Y-150384819D01*
X17349524Y-150384819D02*
X17349524Y-149384819D01*
X17349524Y-149861009D02*
X17920952Y-149861009D01*
X17920952Y-150384819D02*
X17920952Y-149384819D01*
X18301905Y-149384819D02*
X18920952Y-149384819D01*
X18920952Y-149384819D02*
X18587619Y-149765771D01*
X18587619Y-149765771D02*
X18730476Y-149765771D01*
X18730476Y-149765771D02*
X18825714Y-149813390D01*
X18825714Y-149813390D02*
X18873333Y-149861009D01*
X18873333Y-149861009D02*
X18920952Y-149956247D01*
X18920952Y-149956247D02*
X18920952Y-150194342D01*
X18920952Y-150194342D02*
X18873333Y-150289580D01*
X18873333Y-150289580D02*
X18825714Y-150337200D01*
X18825714Y-150337200D02*
X18730476Y-150384819D01*
X18730476Y-150384819D02*
X18444762Y-150384819D01*
X18444762Y-150384819D02*
X18349524Y-150337200D01*
X18349524Y-150337200D02*
X18301905Y-150289580D01*
%TO.C,K7*%
D11*
X71170000Y-140440000D02*
X79370000Y-140440000D01*
X71170000Y-148640000D02*
X71170000Y-140440000D01*
X71170000Y-148640000D02*
X79370000Y-148640000D01*
X75270000Y-148140000D02*
X74770000Y-148640000D01*
X75770000Y-148640000D02*
X75270000Y-148140000D01*
X79370000Y-148640000D02*
X79370000Y-140440000D01*
%TO.C,K18*%
X71170000Y-40440000D02*
X79370000Y-40440000D01*
X71170000Y-48640000D02*
X71170000Y-40440000D01*
X71170000Y-48640000D02*
X79370000Y-48640000D01*
X75270000Y-48140000D02*
X74770000Y-48640000D01*
X75770000Y-48640000D02*
X75270000Y-48140000D01*
X79370000Y-48640000D02*
X79370000Y-40440000D01*
%TO.C,IV*%
X71170000Y-80440000D02*
X79370000Y-80440000D01*
X71170000Y-88640000D02*
X71170000Y-80440000D01*
X71170000Y-88640000D02*
X79370000Y-88640000D01*
X75270000Y-88140000D02*
X74770000Y-88640000D01*
X75770000Y-88640000D02*
X75270000Y-88140000D01*
X79370000Y-88640000D02*
X79370000Y-80440000D01*
%TO.C,K22*%
X13440000Y-25440000D02*
X13440000Y-33640000D01*
X17040000Y-25440000D02*
X17540000Y-25940000D01*
X17540000Y-25940000D02*
X18040000Y-25440000D01*
X21640000Y-25440000D02*
X13440000Y-25440000D01*
X21640000Y-25440000D02*
X21640000Y-33640000D01*
X21640000Y-33640000D02*
X13440000Y-33640000D01*
%TO.C,K13*%
X13440000Y-65440000D02*
X13440000Y-73640000D01*
X17040000Y-65440000D02*
X17540000Y-65940000D01*
X17540000Y-65940000D02*
X18040000Y-65440000D01*
X21640000Y-65440000D02*
X13440000Y-65440000D01*
X21640000Y-65440000D02*
X21640000Y-73640000D01*
X21640000Y-73640000D02*
X13440000Y-73640000D01*
%TO.C,K1*%
X13440000Y-135440000D02*
X13440000Y-143640000D01*
X17040000Y-135440000D02*
X17540000Y-135940000D01*
X17540000Y-135940000D02*
X18040000Y-135440000D01*
X21640000Y-135440000D02*
X13440000Y-135440000D01*
X21640000Y-135440000D02*
X21640000Y-143640000D01*
X21640000Y-143640000D02*
X13440000Y-143640000D01*
%TO.C,K17*%
X71170000Y-30440000D02*
X79370000Y-30440000D01*
X71170000Y-38640000D02*
X71170000Y-30440000D01*
X71170000Y-38640000D02*
X79370000Y-38640000D01*
X75270000Y-38140000D02*
X74770000Y-38640000D01*
X75770000Y-38640000D02*
X75270000Y-38140000D01*
X79370000Y-38640000D02*
X79370000Y-30440000D01*
%TO.C,K6*%
X71170000Y-130440000D02*
X79370000Y-130440000D01*
X71170000Y-138640000D02*
X71170000Y-130440000D01*
X71170000Y-138640000D02*
X79370000Y-138640000D01*
X75270000Y-138140000D02*
X74770000Y-138640000D01*
X75770000Y-138640000D02*
X75270000Y-138140000D01*
X79370000Y-138640000D02*
X79370000Y-130440000D01*
%TO.C,K21*%
X71170000Y-70440000D02*
X79370000Y-70440000D01*
X71170000Y-78640000D02*
X71170000Y-70440000D01*
X71170000Y-78640000D02*
X79370000Y-78640000D01*
X75270000Y-78140000D02*
X74770000Y-78640000D01*
X75770000Y-78640000D02*
X75270000Y-78140000D01*
X79370000Y-78640000D02*
X79370000Y-70440000D01*
%TO.C,K5*%
X71170000Y-120440000D02*
X79370000Y-120440000D01*
X71170000Y-128640000D02*
X71170000Y-120440000D01*
X71170000Y-128640000D02*
X79370000Y-128640000D01*
X75270000Y-128140000D02*
X74770000Y-128640000D01*
X75770000Y-128640000D02*
X75270000Y-128140000D01*
X79370000Y-128640000D02*
X79370000Y-120440000D01*
%TO.C,K16*%
X71170000Y-20440000D02*
X79370000Y-20440000D01*
X71170000Y-28640000D02*
X71170000Y-20440000D01*
X71170000Y-28640000D02*
X79370000Y-28640000D01*
X75270000Y-28140000D02*
X74770000Y-28640000D01*
X75770000Y-28640000D02*
X75270000Y-28140000D01*
X79370000Y-28640000D02*
X79370000Y-20440000D01*
%TO.C,K10*%
X13440000Y-95440000D02*
X13440000Y-103640000D01*
X17040000Y-95440000D02*
X17540000Y-95940000D01*
X17540000Y-95940000D02*
X18040000Y-95440000D01*
X21640000Y-95440000D02*
X13440000Y-95440000D01*
X21640000Y-95440000D02*
X21640000Y-103640000D01*
X21640000Y-103640000D02*
X13440000Y-103640000D01*
%TO.C,K20*%
X71170000Y-60440000D02*
X79370000Y-60440000D01*
X71170000Y-68640000D02*
X71170000Y-60440000D01*
X71170000Y-68640000D02*
X79370000Y-68640000D01*
X75270000Y-68140000D02*
X74770000Y-68640000D01*
X75770000Y-68640000D02*
X75270000Y-68140000D01*
X79370000Y-68640000D02*
X79370000Y-60440000D01*
%TO.C,K12*%
X13440000Y-75440000D02*
X13440000Y-83640000D01*
X17040000Y-75440000D02*
X17540000Y-75940000D01*
X17540000Y-75940000D02*
X18040000Y-75440000D01*
X21640000Y-75440000D02*
X13440000Y-75440000D01*
X21640000Y-75440000D02*
X21640000Y-83640000D01*
X21640000Y-83640000D02*
X13440000Y-83640000D01*
%TO.C,K2*%
X71170000Y-90440000D02*
X79370000Y-90440000D01*
X71170000Y-98640000D02*
X71170000Y-90440000D01*
X71170000Y-98640000D02*
X79370000Y-98640000D01*
X75270000Y-98140000D02*
X74770000Y-98640000D01*
X75770000Y-98640000D02*
X75270000Y-98140000D01*
X79370000Y-98640000D02*
X79370000Y-90440000D01*
%TO.C,K0*%
X13440000Y-115440000D02*
X13440000Y-123640000D01*
X17040000Y-115440000D02*
X17540000Y-115940000D01*
X17540000Y-115940000D02*
X18040000Y-115440000D01*
X21640000Y-115440000D02*
X13440000Y-115440000D01*
X21640000Y-115440000D02*
X21640000Y-123640000D01*
X21640000Y-123640000D02*
X13440000Y-123640000D01*
%TO.C,K11*%
X13440000Y-85440000D02*
X13440000Y-93640000D01*
X17040000Y-85440000D02*
X17540000Y-85940000D01*
X17540000Y-85940000D02*
X18040000Y-85440000D01*
X21640000Y-85440000D02*
X13440000Y-85440000D01*
X21640000Y-85440000D02*
X21640000Y-93640000D01*
X21640000Y-93640000D02*
X13440000Y-93640000D01*
%TO.C,K15*%
X13440000Y-35440000D02*
X13440000Y-43640000D01*
X17040000Y-35440000D02*
X17540000Y-35940000D01*
X17540000Y-35940000D02*
X18040000Y-35440000D01*
X21640000Y-35440000D02*
X13440000Y-35440000D01*
X21640000Y-35440000D02*
X21640000Y-43640000D01*
X21640000Y-43640000D02*
X13440000Y-43640000D01*
%TO.C,K8*%
X13440000Y-125440000D02*
X13440000Y-133640000D01*
X17040000Y-125440000D02*
X17540000Y-125940000D01*
X17540000Y-125940000D02*
X18040000Y-125440000D01*
X21640000Y-125440000D02*
X13440000Y-125440000D01*
X21640000Y-125440000D02*
X21640000Y-133640000D01*
X21640000Y-133640000D02*
X13440000Y-133640000D01*
%TO.C,K3*%
X71170000Y-100440000D02*
X79370000Y-100440000D01*
X71170000Y-108640000D02*
X71170000Y-100440000D01*
X71170000Y-108640000D02*
X79370000Y-108640000D01*
X75270000Y-108140000D02*
X74770000Y-108640000D01*
X75770000Y-108640000D02*
X75270000Y-108140000D01*
X79370000Y-108640000D02*
X79370000Y-100440000D01*
%TO.C,K4*%
X71170000Y-110440000D02*
X79370000Y-110440000D01*
X71170000Y-118640000D02*
X71170000Y-110440000D01*
X71170000Y-118640000D02*
X79370000Y-118640000D01*
X75270000Y-118140000D02*
X74770000Y-118640000D01*
X75770000Y-118640000D02*
X75270000Y-118140000D01*
X79370000Y-118640000D02*
X79370000Y-110440000D01*
%TO.C,K19*%
X71170000Y-50440000D02*
X79370000Y-50440000D01*
X71170000Y-58640000D02*
X71170000Y-50440000D01*
X71170000Y-58640000D02*
X79370000Y-58640000D01*
X75270000Y-58140000D02*
X74770000Y-58640000D01*
X75770000Y-58640000D02*
X75270000Y-58140000D01*
X79370000Y-58640000D02*
X79370000Y-50440000D01*
%TO.C,K14*%
X13440000Y-55440000D02*
X13440000Y-63640000D01*
X17040000Y-55440000D02*
X17540000Y-55940000D01*
X17540000Y-55940000D02*
X18040000Y-55440000D01*
X21640000Y-55440000D02*
X13440000Y-55440000D01*
X21640000Y-55440000D02*
X21640000Y-63640000D01*
X21640000Y-63640000D02*
X13440000Y-63640000D01*
%TO.C,K9*%
X13440000Y-105440000D02*
X13440000Y-113640000D01*
X17040000Y-105440000D02*
X17540000Y-105940000D01*
X17540000Y-105940000D02*
X18040000Y-105440000D01*
X21640000Y-105440000D02*
X13440000Y-105440000D01*
X21640000Y-105440000D02*
X21640000Y-113640000D01*
X21640000Y-113640000D02*
X13440000Y-113640000D01*
%TO.C,K23*%
X13440000Y-45440000D02*
X13440000Y-53640000D01*
X17040000Y-45440000D02*
X17540000Y-45940000D01*
X17540000Y-45940000D02*
X18040000Y-45440000D01*
X21640000Y-45440000D02*
X13440000Y-45440000D01*
X21640000Y-45440000D02*
X21640000Y-53640000D01*
X21640000Y-53640000D02*
X13440000Y-53640000D01*
%TD*%
M02*
