%TF.GenerationSoftware,KiCad,Pcbnew,10.0.3*%
%TF.CreationDate,2026-06-22T23:38:40-04:00*%
%TF.ProjectId,board-B-sma,626f6172-642d-4422-9d73-6d612e6b6963,rev?*%
%TF.SameCoordinates,Original*%
%TF.FileFunction,Other,User*%
%FSLAX46Y46*%
G04 Gerber Fmt 4.6, Leading zero omitted, Abs format (unit mm)*
G04 Created by KiCad (PCBNEW 10.0.3) date 2026-06-22 23:38:40*
%MOMM*%
%LPD*%
G01*
G04 APERTURE LIST*
%ADD10C,0.050000*%
G04 APERTURE END LIST*
%TO.C,K17*%
D10*
X63270000Y-38840000D02*
X63270000Y-30240000D01*
X63270000Y-38840000D02*
X79570000Y-38840000D01*
X79570000Y-30240000D02*
X63270000Y-30240000D01*
X79570000Y-30240000D02*
X79570000Y-38840000D01*
%TO.C,IV*%
X63270000Y-88840000D02*
X63270000Y-80240000D01*
X63270000Y-88840000D02*
X79570000Y-88840000D01*
X79570000Y-80240000D02*
X63270000Y-80240000D01*
X79570000Y-80240000D02*
X79570000Y-88840000D01*
%TO.C,K21*%
X63270000Y-78840000D02*
X63270000Y-70240000D01*
X63270000Y-78840000D02*
X79570000Y-78840000D01*
X79570000Y-70240000D02*
X63270000Y-70240000D01*
X79570000Y-70240000D02*
X79570000Y-78840000D01*
%TO.C,MH3*%
X20990000Y-154080000D02*
G75*
G02*
X14090000Y-154080000I-3450000J0D01*
G01*
X14090000Y-154080000D02*
G75*
G02*
X20990000Y-154080000I3450000J0D01*
G01*
%TO.C,K9*%
X13240000Y-113840000D02*
X13240000Y-105240000D01*
X13240000Y-113840000D02*
X29540000Y-113840000D01*
X29540000Y-105240000D02*
X13240000Y-105240000D01*
X29540000Y-105240000D02*
X29540000Y-113840000D01*
%TO.C,K23*%
X13240000Y-53840000D02*
X13240000Y-45240000D01*
X13240000Y-53840000D02*
X29540000Y-53840000D01*
X29540000Y-45240000D02*
X13240000Y-45240000D01*
X29540000Y-45240000D02*
X29540000Y-53840000D01*
%TO.C,MH4*%
X78720000Y-154080000D02*
G75*
G02*
X71820000Y-154080000I-3450000J0D01*
G01*
X71820000Y-154080000D02*
G75*
G02*
X78720000Y-154080000I3450000J0D01*
G01*
%TO.C,MH1*%
X20990000Y-15000000D02*
G75*
G02*
X14090000Y-15000000I-3450000J0D01*
G01*
X14090000Y-15000000D02*
G75*
G02*
X20990000Y-15000000I3450000J0D01*
G01*
%TO.C,K13*%
X13240000Y-73840000D02*
X13240000Y-65240000D01*
X13240000Y-73840000D02*
X29540000Y-73840000D01*
X29540000Y-65240000D02*
X13240000Y-65240000D01*
X29540000Y-65240000D02*
X29540000Y-73840000D01*
%TO.C,K0*%
X13240000Y-123840000D02*
X13240000Y-115240000D01*
X13240000Y-123840000D02*
X29540000Y-123840000D01*
X29540000Y-115240000D02*
X13240000Y-115240000D01*
X29540000Y-115240000D02*
X29540000Y-123840000D01*
%TO.C,K10*%
X13240000Y-103840000D02*
X13240000Y-95240000D01*
X13240000Y-103840000D02*
X29540000Y-103840000D01*
X29540000Y-95240000D02*
X13240000Y-95240000D01*
X29540000Y-95240000D02*
X29540000Y-103840000D01*
%TO.C,K18*%
X63270000Y-48840000D02*
X63270000Y-40240000D01*
X63270000Y-48840000D02*
X79570000Y-48840000D01*
X79570000Y-40240000D02*
X63270000Y-40240000D01*
X79570000Y-40240000D02*
X79570000Y-48840000D01*
%TO.C,K1*%
X13240000Y-143840000D02*
X13240000Y-135240000D01*
X13240000Y-143840000D02*
X29540000Y-143840000D01*
X29540000Y-135240000D02*
X13240000Y-135240000D01*
X29540000Y-135240000D02*
X29540000Y-143840000D01*
%TO.C,K7*%
X63270000Y-148840000D02*
X63270000Y-140240000D01*
X63270000Y-148840000D02*
X79570000Y-148840000D01*
X79570000Y-140240000D02*
X63270000Y-140240000D01*
X79570000Y-140240000D02*
X79570000Y-148840000D01*
%TO.C,K4*%
X63270000Y-118840000D02*
X63270000Y-110240000D01*
X63270000Y-118840000D02*
X79570000Y-118840000D01*
X79570000Y-110240000D02*
X63270000Y-110240000D01*
X79570000Y-110240000D02*
X79570000Y-118840000D01*
%TO.C,K3*%
X63270000Y-108840000D02*
X63270000Y-100240000D01*
X63270000Y-108840000D02*
X79570000Y-108840000D01*
X79570000Y-100240000D02*
X63270000Y-100240000D01*
X79570000Y-100240000D02*
X79570000Y-108840000D01*
%TO.C,K8*%
X13240000Y-133840000D02*
X13240000Y-125240000D01*
X13240000Y-133840000D02*
X29540000Y-133840000D01*
X29540000Y-125240000D02*
X13240000Y-125240000D01*
X29540000Y-125240000D02*
X29540000Y-133840000D01*
%TO.C,K20*%
X63270000Y-68840000D02*
X63270000Y-60240000D01*
X63270000Y-68840000D02*
X79570000Y-68840000D01*
X79570000Y-60240000D02*
X63270000Y-60240000D01*
X79570000Y-60240000D02*
X79570000Y-68840000D01*
%TO.C,K22*%
X13240000Y-33840000D02*
X13240000Y-25240000D01*
X13240000Y-33840000D02*
X29540000Y-33840000D01*
X29540000Y-25240000D02*
X13240000Y-25240000D01*
X29540000Y-25240000D02*
X29540000Y-33840000D01*
%TO.C,K2*%
X63270000Y-98840000D02*
X63270000Y-90240000D01*
X63270000Y-98840000D02*
X79570000Y-98840000D01*
X79570000Y-90240000D02*
X63270000Y-90240000D01*
X79570000Y-90240000D02*
X79570000Y-98840000D01*
%TO.C,K5*%
X63270000Y-128840000D02*
X63270000Y-120240000D01*
X63270000Y-128840000D02*
X79570000Y-128840000D01*
X79570000Y-120240000D02*
X63270000Y-120240000D01*
X79570000Y-120240000D02*
X79570000Y-128840000D01*
%TO.C,K11*%
X13240000Y-93840000D02*
X13240000Y-85240000D01*
X13240000Y-93840000D02*
X29540000Y-93840000D01*
X29540000Y-85240000D02*
X13240000Y-85240000D01*
X29540000Y-85240000D02*
X29540000Y-93840000D01*
%TO.C,K16*%
X63270000Y-28840000D02*
X63270000Y-20240000D01*
X63270000Y-28840000D02*
X79570000Y-28840000D01*
X79570000Y-20240000D02*
X63270000Y-20240000D01*
X79570000Y-20240000D02*
X79570000Y-28840000D01*
%TO.C,K14*%
X13240000Y-63840000D02*
X13240000Y-55240000D01*
X13240000Y-63840000D02*
X29540000Y-63840000D01*
X29540000Y-55240000D02*
X13240000Y-55240000D01*
X29540000Y-55240000D02*
X29540000Y-63840000D01*
%TO.C,MH2*%
X78720000Y-15000000D02*
G75*
G02*
X71820000Y-15000000I-3450000J0D01*
G01*
X71820000Y-15000000D02*
G75*
G02*
X78720000Y-15000000I3450000J0D01*
G01*
%TO.C,K12*%
X13240000Y-83840000D02*
X13240000Y-75240000D01*
X13240000Y-83840000D02*
X29540000Y-83840000D01*
X29540000Y-75240000D02*
X13240000Y-75240000D01*
X29540000Y-75240000D02*
X29540000Y-83840000D01*
%TO.C,K6*%
X63270000Y-138840000D02*
X63270000Y-130240000D01*
X63270000Y-138840000D02*
X79570000Y-138840000D01*
X79570000Y-130240000D02*
X63270000Y-130240000D01*
X79570000Y-130240000D02*
X79570000Y-138840000D01*
%TO.C,K15*%
X13240000Y-43840000D02*
X13240000Y-35240000D01*
X13240000Y-43840000D02*
X29540000Y-43840000D01*
X29540000Y-35240000D02*
X13240000Y-35240000D01*
X29540000Y-35240000D02*
X29540000Y-43840000D01*
%TO.C,K19*%
X63270000Y-58840000D02*
X63270000Y-50240000D01*
X63270000Y-58840000D02*
X79570000Y-58840000D01*
X79570000Y-50240000D02*
X63270000Y-50240000D01*
X79570000Y-50240000D02*
X79570000Y-58840000D01*
%TD*%
M02*
