%TF.GenerationSoftware,KiCad,Pcbnew,10.0.3*%
%TF.CreationDate,2026-06-17T00:20:36-04:00*%
%TF.ProjectId,board-B-sma,626f6172-642d-4422-9d73-6d612e6b6963,rev?*%
%TF.SameCoordinates,Original*%
%TF.FileFunction,Other,User*%
%FSLAX46Y46*%
G04 Gerber Fmt 4.6, Leading zero omitted, Abs format (unit mm)*
G04 Created by KiCad (PCBNEW 10.0.3) date 2026-06-17 00:20:36*
%MOMM*%
%LPD*%
G01*
G04 APERTURE LIST*
%ADD10C,0.050000*%
G04 APERTURE END LIST*
%TO.C,K1*%
D10*
X63270000Y-143840000D02*
X63270000Y-135240000D01*
X63270000Y-143840000D02*
X79570000Y-143840000D01*
X79570000Y-135240000D02*
X63270000Y-135240000D01*
X79570000Y-135240000D02*
X79570000Y-143840000D01*
%TO.C,K2*%
X13240000Y-98840000D02*
X13240000Y-90240000D01*
X13240000Y-98840000D02*
X29540000Y-98840000D01*
X29540000Y-90240000D02*
X13240000Y-90240000D01*
X29540000Y-90240000D02*
X29540000Y-98840000D01*
%TO.C,MH2*%
X78720000Y-15000000D02*
G75*
G02*
X71820000Y-15000000I-3450000J0D01*
G01*
X71820000Y-15000000D02*
G75*
G02*
X78720000Y-15000000I3450000J0D01*
G01*
%TO.C,K20*%
X13240000Y-68840000D02*
X13240000Y-60240000D01*
X13240000Y-68840000D02*
X29540000Y-68840000D01*
X29540000Y-60240000D02*
X13240000Y-60240000D01*
X29540000Y-60240000D02*
X29540000Y-68840000D01*
%TO.C,IV*%
X13240000Y-88840000D02*
X13240000Y-80240000D01*
X13240000Y-88840000D02*
X29540000Y-88840000D01*
X29540000Y-80240000D02*
X13240000Y-80240000D01*
X29540000Y-80240000D02*
X29540000Y-88840000D01*
%TO.C,K4*%
X13240000Y-118840000D02*
X13240000Y-110240000D01*
X13240000Y-118840000D02*
X29540000Y-118840000D01*
X29540000Y-110240000D02*
X13240000Y-110240000D01*
X29540000Y-110240000D02*
X29540000Y-118840000D01*
%TO.C,K9*%
X63270000Y-113840000D02*
X63270000Y-105240000D01*
X63270000Y-113840000D02*
X79570000Y-113840000D01*
X79570000Y-105240000D02*
X63270000Y-105240000D01*
X79570000Y-105240000D02*
X79570000Y-113840000D01*
%TO.C,K14*%
X63270000Y-63840000D02*
X63270000Y-55240000D01*
X63270000Y-63840000D02*
X79570000Y-63840000D01*
X79570000Y-55240000D02*
X63270000Y-55240000D01*
X79570000Y-55240000D02*
X79570000Y-63840000D01*
%TO.C,K12*%
X63270000Y-83840000D02*
X63270000Y-75240000D01*
X63270000Y-83840000D02*
X79570000Y-83840000D01*
X79570000Y-75240000D02*
X63270000Y-75240000D01*
X79570000Y-75240000D02*
X79570000Y-83840000D01*
%TO.C,K8*%
X63270000Y-133840000D02*
X63270000Y-125240000D01*
X63270000Y-133840000D02*
X79570000Y-133840000D01*
X79570000Y-125240000D02*
X63270000Y-125240000D01*
X79570000Y-125240000D02*
X79570000Y-133840000D01*
%TO.C,MH4*%
X78720000Y-154080000D02*
G75*
G02*
X71820000Y-154080000I-3450000J0D01*
G01*
X71820000Y-154080000D02*
G75*
G02*
X78720000Y-154080000I3450000J0D01*
G01*
%TO.C,K21*%
X13240000Y-78840000D02*
X13240000Y-70240000D01*
X13240000Y-78840000D02*
X29540000Y-78840000D01*
X29540000Y-70240000D02*
X13240000Y-70240000D01*
X29540000Y-70240000D02*
X29540000Y-78840000D01*
%TO.C,K7*%
X13240000Y-148840000D02*
X13240000Y-140240000D01*
X13240000Y-148840000D02*
X29540000Y-148840000D01*
X29540000Y-140240000D02*
X13240000Y-140240000D01*
X29540000Y-140240000D02*
X29540000Y-148840000D01*
%TO.C,K16*%
X13240000Y-28840000D02*
X13240000Y-20240000D01*
X13240000Y-28840000D02*
X29540000Y-28840000D01*
X29540000Y-20240000D02*
X13240000Y-20240000D01*
X29540000Y-20240000D02*
X29540000Y-28840000D01*
%TO.C,MH1*%
X20990000Y-15000000D02*
G75*
G02*
X14090000Y-15000000I-3450000J0D01*
G01*
X14090000Y-15000000D02*
G75*
G02*
X20990000Y-15000000I3450000J0D01*
G01*
%TO.C,K3*%
X13240000Y-108840000D02*
X13240000Y-100240000D01*
X13240000Y-108840000D02*
X29540000Y-108840000D01*
X29540000Y-100240000D02*
X13240000Y-100240000D01*
X29540000Y-100240000D02*
X29540000Y-108840000D01*
%TO.C,K15*%
X63270000Y-43840000D02*
X63270000Y-35240000D01*
X63270000Y-43840000D02*
X79570000Y-43840000D01*
X79570000Y-35240000D02*
X63270000Y-35240000D01*
X79570000Y-35240000D02*
X79570000Y-43840000D01*
%TO.C,MH3*%
X20990000Y-154080000D02*
G75*
G02*
X14090000Y-154080000I-3450000J0D01*
G01*
X14090000Y-154080000D02*
G75*
G02*
X20990000Y-154080000I3450000J0D01*
G01*
%TO.C,K10*%
X63270000Y-103840000D02*
X63270000Y-95240000D01*
X63270000Y-103840000D02*
X79570000Y-103840000D01*
X79570000Y-95240000D02*
X63270000Y-95240000D01*
X79570000Y-95240000D02*
X79570000Y-103840000D01*
%TO.C,J5*%
X42155000Y-63650000D02*
X42155000Y-105430000D01*
X42155000Y-105430000D02*
X50655000Y-105430000D01*
X50655000Y-63650000D02*
X42155000Y-63650000D01*
X50655000Y-105430000D02*
X50655000Y-63650000D01*
%TO.C,K11*%
X63270000Y-93840000D02*
X63270000Y-85240000D01*
X63270000Y-93840000D02*
X79570000Y-93840000D01*
X79570000Y-85240000D02*
X63270000Y-85240000D01*
X79570000Y-85240000D02*
X79570000Y-93840000D01*
%TO.C,K0*%
X63270000Y-123840000D02*
X63270000Y-115240000D01*
X63270000Y-123840000D02*
X79570000Y-123840000D01*
X79570000Y-115240000D02*
X63270000Y-115240000D01*
X79570000Y-115240000D02*
X79570000Y-123840000D01*
%TO.C,K18*%
X13240000Y-48840000D02*
X13240000Y-40240000D01*
X13240000Y-48840000D02*
X29540000Y-48840000D01*
X29540000Y-40240000D02*
X13240000Y-40240000D01*
X29540000Y-40240000D02*
X29540000Y-48840000D01*
%TO.C,K19*%
X13240000Y-58840000D02*
X13240000Y-50240000D01*
X13240000Y-58840000D02*
X29540000Y-58840000D01*
X29540000Y-50240000D02*
X13240000Y-50240000D01*
X29540000Y-50240000D02*
X29540000Y-58840000D01*
%TO.C,K5*%
X13240000Y-128840000D02*
X13240000Y-120240000D01*
X13240000Y-128840000D02*
X29540000Y-128840000D01*
X29540000Y-120240000D02*
X13240000Y-120240000D01*
X29540000Y-120240000D02*
X29540000Y-128840000D01*
%TO.C,K17*%
X13240000Y-38840000D02*
X13240000Y-30240000D01*
X13240000Y-38840000D02*
X29540000Y-38840000D01*
X29540000Y-30240000D02*
X13240000Y-30240000D01*
X29540000Y-30240000D02*
X29540000Y-38840000D01*
%TO.C,K13*%
X63270000Y-73840000D02*
X63270000Y-65240000D01*
X63270000Y-73840000D02*
X79570000Y-73840000D01*
X79570000Y-65240000D02*
X63270000Y-65240000D01*
X79570000Y-65240000D02*
X79570000Y-73840000D01*
%TO.C,K22*%
X63270000Y-33840000D02*
X63270000Y-25240000D01*
X63270000Y-33840000D02*
X79570000Y-33840000D01*
X79570000Y-25240000D02*
X63270000Y-25240000D01*
X79570000Y-25240000D02*
X79570000Y-33840000D01*
%TO.C,K6*%
X13240000Y-138840000D02*
X13240000Y-130240000D01*
X13240000Y-138840000D02*
X29540000Y-138840000D01*
X29540000Y-130240000D02*
X13240000Y-130240000D01*
X29540000Y-130240000D02*
X29540000Y-138840000D01*
%TO.C,K23*%
X63270000Y-53840000D02*
X63270000Y-45240000D01*
X63270000Y-53840000D02*
X79570000Y-53840000D01*
X79570000Y-45240000D02*
X63270000Y-45240000D01*
X79570000Y-45240000D02*
X79570000Y-53840000D01*
%TD*%
M02*
