%TF.GenerationSoftware,KiCad,Pcbnew,10.0.3*%
%TF.CreationDate,2026-06-17T00:20:36-04:00*%
%TF.ProjectId,board-B-sma,626f6172-642d-4422-9d73-6d612e6b6963,rev?*%
%TF.SameCoordinates,Original*%
%TF.FileFunction,OtherDrawing,Comment*%
%FSLAX46Y46*%
G04 Gerber Fmt 4.6, Leading zero omitted, Abs format (unit mm)*
G04 Created by KiCad (PCBNEW 10.0.3) date 2026-06-17 00:20:36*
%MOMM*%
%LPD*%
G01*
G04 APERTURE LIST*
%ADD10C,0.100000*%
G04 APERTURE END LIST*
%TO.C,K1*%
D10*
X70770000Y-135240000D02*
X70770000Y-143840000D01*
%TO.C,K2*%
X22040000Y-98840000D02*
X22040000Y-90240000D01*
%TO.C,K20*%
X22040000Y-68840000D02*
X22040000Y-60240000D01*
%TO.C,IV*%
X22040000Y-88840000D02*
X22040000Y-80240000D01*
%TO.C,K4*%
X22040000Y-118840000D02*
X22040000Y-110240000D01*
%TO.C,K9*%
X70770000Y-105240000D02*
X70770000Y-113840000D01*
%TO.C,K14*%
X70770000Y-55240000D02*
X70770000Y-63840000D01*
%TO.C,K12*%
X70770000Y-75240000D02*
X70770000Y-83840000D01*
%TO.C,K8*%
X70770000Y-125240000D02*
X70770000Y-133840000D01*
%TO.C,K21*%
X22040000Y-78840000D02*
X22040000Y-70240000D01*
%TO.C,K7*%
X22040000Y-148840000D02*
X22040000Y-140240000D01*
%TO.C,K16*%
X22040000Y-28840000D02*
X22040000Y-20240000D01*
%TO.C,K3*%
X22040000Y-108840000D02*
X22040000Y-100240000D01*
%TO.C,K15*%
X70770000Y-35240000D02*
X70770000Y-43840000D01*
%TO.C,K10*%
X70770000Y-95240000D02*
X70770000Y-103840000D01*
%TO.C,K11*%
X70770000Y-85240000D02*
X70770000Y-93840000D01*
%TO.C,K0*%
X70770000Y-115240000D02*
X70770000Y-123840000D01*
%TO.C,K18*%
X22040000Y-48840000D02*
X22040000Y-40240000D01*
%TO.C,K19*%
X22040000Y-58840000D02*
X22040000Y-50240000D01*
%TO.C,K5*%
X22040000Y-128840000D02*
X22040000Y-120240000D01*
%TO.C,K17*%
X22040000Y-38840000D02*
X22040000Y-30240000D01*
%TO.C,K13*%
X70770000Y-65240000D02*
X70770000Y-73840000D01*
%TO.C,K22*%
X70770000Y-25240000D02*
X70770000Y-33840000D01*
%TO.C,K6*%
X22040000Y-138840000D02*
X22040000Y-130240000D01*
%TO.C,K23*%
X70770000Y-45240000D02*
X70770000Y-53840000D01*
%TD*%
M02*
