%TF.GenerationSoftware,KiCad,Pcbnew,10.0.3*%
%TF.CreationDate,2026-06-24T00:17:40-04:00*%
%TF.ProjectId,board-B-sma,626f6172-642d-4422-9d73-6d612e6b6963,rev?*%
%TF.SameCoordinates,Original*%
%TF.FileFunction,OtherDrawing,Comment*%
%FSLAX46Y46*%
G04 Gerber Fmt 4.6, Leading zero omitted, Abs format (unit mm)*
G04 Created by KiCad (PCBNEW 10.0.3) date 2026-06-24 00:17:40*
%MOMM*%
%LPD*%
G01*
G04 APERTURE LIST*
%ADD10C,0.100000*%
G04 APERTURE END LIST*
%TO.C,K7*%
D10*
X70770000Y-140240000D02*
X70770000Y-148840000D01*
%TO.C,K18*%
X70770000Y-40240000D02*
X70770000Y-48840000D01*
%TO.C,IV*%
X70770000Y-80240000D02*
X70770000Y-88840000D01*
%TO.C,K22*%
X22040000Y-33840000D02*
X22040000Y-25240000D01*
%TO.C,K13*%
X22040000Y-73840000D02*
X22040000Y-65240000D01*
%TO.C,K1*%
X22040000Y-143840000D02*
X22040000Y-135240000D01*
%TO.C,K17*%
X70770000Y-30240000D02*
X70770000Y-38840000D01*
%TO.C,K6*%
X70770000Y-130240000D02*
X70770000Y-138840000D01*
%TO.C,K21*%
X70770000Y-70240000D02*
X70770000Y-78840000D01*
%TO.C,K5*%
X70770000Y-120240000D02*
X70770000Y-128840000D01*
%TO.C,K16*%
X70770000Y-20240000D02*
X70770000Y-28840000D01*
%TO.C,K10*%
X22040000Y-103840000D02*
X22040000Y-95240000D01*
%TO.C,K20*%
X70770000Y-60240000D02*
X70770000Y-68840000D01*
%TO.C,K12*%
X22040000Y-83840000D02*
X22040000Y-75240000D01*
%TO.C,K2*%
X70770000Y-90240000D02*
X70770000Y-98840000D01*
%TO.C,K0*%
X22040000Y-123840000D02*
X22040000Y-115240000D01*
%TO.C,K11*%
X22040000Y-93840000D02*
X22040000Y-85240000D01*
%TO.C,K15*%
X22040000Y-43840000D02*
X22040000Y-35240000D01*
%TO.C,K8*%
X22040000Y-133840000D02*
X22040000Y-125240000D01*
%TO.C,K3*%
X70770000Y-100240000D02*
X70770000Y-108840000D01*
%TO.C,K4*%
X70770000Y-110240000D02*
X70770000Y-118840000D01*
%TO.C,K19*%
X70770000Y-50240000D02*
X70770000Y-58840000D01*
%TO.C,K14*%
X22040000Y-63840000D02*
X22040000Y-55240000D01*
%TO.C,K9*%
X22040000Y-113840000D02*
X22040000Y-105240000D01*
%TO.C,K23*%
X22040000Y-53840000D02*
X22040000Y-45240000D01*
%TD*%
M02*
