%TF.GenerationSoftware,KiCad,Pcbnew,10.0.3*%
%TF.CreationDate,2026-06-17T00:20:36-04:00*%
%TF.ProjectId,board-B-sma,626f6172-642d-4422-9d73-6d612e6b6963,rev?*%
%TF.SameCoordinates,Original*%
%TF.FileFunction,Legend,Top*%
%TF.FilePolarity,Positive*%
%FSLAX46Y46*%
G04 Gerber Fmt 4.6, Leading zero omitted, Abs format (unit mm)*
G04 Created by KiCad (PCBNEW 10.0.3) date 2026-06-17 00:20:36*
%MOMM*%
%LPD*%
G01*
G04 APERTURE LIST*
%ADD10C,0.150000*%
%ADD11C,0.120000*%
%ADD12C,0.200000*%
G04 APERTURE END LIST*
D10*
X74531905Y-145194819D02*
X74531905Y-144194819D01*
X75103333Y-145194819D02*
X74674762Y-144623390D01*
X75103333Y-144194819D02*
X74531905Y-144766247D01*
X76055714Y-145194819D02*
X75484286Y-145194819D01*
X75770000Y-145194819D02*
X75770000Y-144194819D01*
X75770000Y-144194819D02*
X75674762Y-144337676D01*
X75674762Y-144337676D02*
X75579524Y-144432914D01*
X75579524Y-144432914D02*
X75484286Y-144480533D01*
X16801905Y-89794819D02*
X16801905Y-88794819D01*
X17373333Y-89794819D02*
X16944762Y-89223390D01*
X17373333Y-88794819D02*
X16801905Y-89366247D01*
X17754286Y-88890057D02*
X17801905Y-88842438D01*
X17801905Y-88842438D02*
X17897143Y-88794819D01*
X17897143Y-88794819D02*
X18135238Y-88794819D01*
X18135238Y-88794819D02*
X18230476Y-88842438D01*
X18230476Y-88842438D02*
X18278095Y-88890057D01*
X18278095Y-88890057D02*
X18325714Y-88985295D01*
X18325714Y-88985295D02*
X18325714Y-89080533D01*
X18325714Y-89080533D02*
X18278095Y-89223390D01*
X18278095Y-89223390D02*
X17706667Y-89794819D01*
X17706667Y-89794819D02*
X18325714Y-89794819D01*
X73936667Y-11304819D02*
X73936667Y-10304819D01*
X73936667Y-10304819D02*
X74270000Y-11019104D01*
X74270000Y-11019104D02*
X74603333Y-10304819D01*
X74603333Y-10304819D02*
X74603333Y-11304819D01*
X75079524Y-11304819D02*
X75079524Y-10304819D01*
X75079524Y-10781009D02*
X75650952Y-10781009D01*
X75650952Y-11304819D02*
X75650952Y-10304819D01*
X76079524Y-10400057D02*
X76127143Y-10352438D01*
X76127143Y-10352438D02*
X76222381Y-10304819D01*
X76222381Y-10304819D02*
X76460476Y-10304819D01*
X76460476Y-10304819D02*
X76555714Y-10352438D01*
X76555714Y-10352438D02*
X76603333Y-10400057D01*
X76603333Y-10400057D02*
X76650952Y-10495295D01*
X76650952Y-10495295D02*
X76650952Y-10590533D01*
X76650952Y-10590533D02*
X76603333Y-10733390D01*
X76603333Y-10733390D02*
X76031905Y-11304819D01*
X76031905Y-11304819D02*
X76650952Y-11304819D01*
X16325714Y-59794819D02*
X16325714Y-58794819D01*
X16897142Y-59794819D02*
X16468571Y-59223390D01*
X16897142Y-58794819D02*
X16325714Y-59366247D01*
X17278095Y-58890057D02*
X17325714Y-58842438D01*
X17325714Y-58842438D02*
X17420952Y-58794819D01*
X17420952Y-58794819D02*
X17659047Y-58794819D01*
X17659047Y-58794819D02*
X17754285Y-58842438D01*
X17754285Y-58842438D02*
X17801904Y-58890057D01*
X17801904Y-58890057D02*
X17849523Y-58985295D01*
X17849523Y-58985295D02*
X17849523Y-59080533D01*
X17849523Y-59080533D02*
X17801904Y-59223390D01*
X17801904Y-59223390D02*
X17230476Y-59794819D01*
X17230476Y-59794819D02*
X17849523Y-59794819D01*
X18468571Y-58794819D02*
X18563809Y-58794819D01*
X18563809Y-58794819D02*
X18659047Y-58842438D01*
X18659047Y-58842438D02*
X18706666Y-58890057D01*
X18706666Y-58890057D02*
X18754285Y-58985295D01*
X18754285Y-58985295D02*
X18801904Y-59175771D01*
X18801904Y-59175771D02*
X18801904Y-59413866D01*
X18801904Y-59413866D02*
X18754285Y-59604342D01*
X18754285Y-59604342D02*
X18706666Y-59699580D01*
X18706666Y-59699580D02*
X18659047Y-59747200D01*
X18659047Y-59747200D02*
X18563809Y-59794819D01*
X18563809Y-59794819D02*
X18468571Y-59794819D01*
X18468571Y-59794819D02*
X18373333Y-59747200D01*
X18373333Y-59747200D02*
X18325714Y-59699580D01*
X18325714Y-59699580D02*
X18278095Y-59604342D01*
X18278095Y-59604342D02*
X18230476Y-59413866D01*
X18230476Y-59413866D02*
X18230476Y-59175771D01*
X18230476Y-59175771D02*
X18278095Y-58985295D01*
X18278095Y-58985295D02*
X18325714Y-58890057D01*
X18325714Y-58890057D02*
X18373333Y-58842438D01*
X18373333Y-58842438D02*
X18468571Y-58794819D01*
X17111429Y-79794819D02*
X17111429Y-78794819D01*
X17444762Y-78794819D02*
X17778095Y-79794819D01*
X17778095Y-79794819D02*
X18111428Y-78794819D01*
X16801905Y-109794819D02*
X16801905Y-108794819D01*
X17373333Y-109794819D02*
X16944762Y-109223390D01*
X17373333Y-108794819D02*
X16801905Y-109366247D01*
X18230476Y-109128152D02*
X18230476Y-109794819D01*
X17992381Y-108747200D02*
X17754286Y-109461485D01*
X17754286Y-109461485D02*
X18373333Y-109461485D01*
X74531905Y-115194819D02*
X74531905Y-114194819D01*
X75103333Y-115194819D02*
X74674762Y-114623390D01*
X75103333Y-114194819D02*
X74531905Y-114766247D01*
X75579524Y-115194819D02*
X75770000Y-115194819D01*
X75770000Y-115194819D02*
X75865238Y-115147200D01*
X75865238Y-115147200D02*
X75912857Y-115099580D01*
X75912857Y-115099580D02*
X76008095Y-114956723D01*
X76008095Y-114956723D02*
X76055714Y-114766247D01*
X76055714Y-114766247D02*
X76055714Y-114385295D01*
X76055714Y-114385295D02*
X76008095Y-114290057D01*
X76008095Y-114290057D02*
X75960476Y-114242438D01*
X75960476Y-114242438D02*
X75865238Y-114194819D01*
X75865238Y-114194819D02*
X75674762Y-114194819D01*
X75674762Y-114194819D02*
X75579524Y-114242438D01*
X75579524Y-114242438D02*
X75531905Y-114290057D01*
X75531905Y-114290057D02*
X75484286Y-114385295D01*
X75484286Y-114385295D02*
X75484286Y-114623390D01*
X75484286Y-114623390D02*
X75531905Y-114718628D01*
X75531905Y-114718628D02*
X75579524Y-114766247D01*
X75579524Y-114766247D02*
X75674762Y-114813866D01*
X75674762Y-114813866D02*
X75865238Y-114813866D01*
X75865238Y-114813866D02*
X75960476Y-114766247D01*
X75960476Y-114766247D02*
X76008095Y-114718628D01*
X76008095Y-114718628D02*
X76055714Y-114623390D01*
X74055714Y-65194819D02*
X74055714Y-64194819D01*
X74627142Y-65194819D02*
X74198571Y-64623390D01*
X74627142Y-64194819D02*
X74055714Y-64766247D01*
X75579523Y-65194819D02*
X75008095Y-65194819D01*
X75293809Y-65194819D02*
X75293809Y-64194819D01*
X75293809Y-64194819D02*
X75198571Y-64337676D01*
X75198571Y-64337676D02*
X75103333Y-64432914D01*
X75103333Y-64432914D02*
X75008095Y-64480533D01*
X76436666Y-64528152D02*
X76436666Y-65194819D01*
X76198571Y-64147200D02*
X75960476Y-64861485D01*
X75960476Y-64861485D02*
X76579523Y-64861485D01*
X74055714Y-85194819D02*
X74055714Y-84194819D01*
X74627142Y-85194819D02*
X74198571Y-84623390D01*
X74627142Y-84194819D02*
X74055714Y-84766247D01*
X75579523Y-85194819D02*
X75008095Y-85194819D01*
X75293809Y-85194819D02*
X75293809Y-84194819D01*
X75293809Y-84194819D02*
X75198571Y-84337676D01*
X75198571Y-84337676D02*
X75103333Y-84432914D01*
X75103333Y-84432914D02*
X75008095Y-84480533D01*
X75960476Y-84290057D02*
X76008095Y-84242438D01*
X76008095Y-84242438D02*
X76103333Y-84194819D01*
X76103333Y-84194819D02*
X76341428Y-84194819D01*
X76341428Y-84194819D02*
X76436666Y-84242438D01*
X76436666Y-84242438D02*
X76484285Y-84290057D01*
X76484285Y-84290057D02*
X76531904Y-84385295D01*
X76531904Y-84385295D02*
X76531904Y-84480533D01*
X76531904Y-84480533D02*
X76484285Y-84623390D01*
X76484285Y-84623390D02*
X75912857Y-85194819D01*
X75912857Y-85194819D02*
X76531904Y-85194819D01*
X74531905Y-135194819D02*
X74531905Y-134194819D01*
X75103333Y-135194819D02*
X74674762Y-134623390D01*
X75103333Y-134194819D02*
X74531905Y-134766247D01*
X75674762Y-134623390D02*
X75579524Y-134575771D01*
X75579524Y-134575771D02*
X75531905Y-134528152D01*
X75531905Y-134528152D02*
X75484286Y-134432914D01*
X75484286Y-134432914D02*
X75484286Y-134385295D01*
X75484286Y-134385295D02*
X75531905Y-134290057D01*
X75531905Y-134290057D02*
X75579524Y-134242438D01*
X75579524Y-134242438D02*
X75674762Y-134194819D01*
X75674762Y-134194819D02*
X75865238Y-134194819D01*
X75865238Y-134194819D02*
X75960476Y-134242438D01*
X75960476Y-134242438D02*
X76008095Y-134290057D01*
X76008095Y-134290057D02*
X76055714Y-134385295D01*
X76055714Y-134385295D02*
X76055714Y-134432914D01*
X76055714Y-134432914D02*
X76008095Y-134528152D01*
X76008095Y-134528152D02*
X75960476Y-134575771D01*
X75960476Y-134575771D02*
X75865238Y-134623390D01*
X75865238Y-134623390D02*
X75674762Y-134623390D01*
X75674762Y-134623390D02*
X75579524Y-134671009D01*
X75579524Y-134671009D02*
X75531905Y-134718628D01*
X75531905Y-134718628D02*
X75484286Y-134813866D01*
X75484286Y-134813866D02*
X75484286Y-135004342D01*
X75484286Y-135004342D02*
X75531905Y-135099580D01*
X75531905Y-135099580D02*
X75579524Y-135147200D01*
X75579524Y-135147200D02*
X75674762Y-135194819D01*
X75674762Y-135194819D02*
X75865238Y-135194819D01*
X75865238Y-135194819D02*
X75960476Y-135147200D01*
X75960476Y-135147200D02*
X76008095Y-135099580D01*
X76008095Y-135099580D02*
X76055714Y-135004342D01*
X76055714Y-135004342D02*
X76055714Y-134813866D01*
X76055714Y-134813866D02*
X76008095Y-134718628D01*
X76008095Y-134718628D02*
X75960476Y-134671009D01*
X75960476Y-134671009D02*
X75865238Y-134623390D01*
X73936667Y-150384819D02*
X73936667Y-149384819D01*
X73936667Y-149384819D02*
X74270000Y-150099104D01*
X74270000Y-150099104D02*
X74603333Y-149384819D01*
X74603333Y-149384819D02*
X74603333Y-150384819D01*
X75079524Y-150384819D02*
X75079524Y-149384819D01*
X75079524Y-149861009D02*
X75650952Y-149861009D01*
X75650952Y-150384819D02*
X75650952Y-149384819D01*
X76555714Y-149718152D02*
X76555714Y-150384819D01*
X76317619Y-149337200D02*
X76079524Y-150051485D01*
X76079524Y-150051485D02*
X76698571Y-150051485D01*
X16325714Y-69794819D02*
X16325714Y-68794819D01*
X16897142Y-69794819D02*
X16468571Y-69223390D01*
X16897142Y-68794819D02*
X16325714Y-69366247D01*
X17278095Y-68890057D02*
X17325714Y-68842438D01*
X17325714Y-68842438D02*
X17420952Y-68794819D01*
X17420952Y-68794819D02*
X17659047Y-68794819D01*
X17659047Y-68794819D02*
X17754285Y-68842438D01*
X17754285Y-68842438D02*
X17801904Y-68890057D01*
X17801904Y-68890057D02*
X17849523Y-68985295D01*
X17849523Y-68985295D02*
X17849523Y-69080533D01*
X17849523Y-69080533D02*
X17801904Y-69223390D01*
X17801904Y-69223390D02*
X17230476Y-69794819D01*
X17230476Y-69794819D02*
X17849523Y-69794819D01*
X18801904Y-69794819D02*
X18230476Y-69794819D01*
X18516190Y-69794819D02*
X18516190Y-68794819D01*
X18516190Y-68794819D02*
X18420952Y-68937676D01*
X18420952Y-68937676D02*
X18325714Y-69032914D01*
X18325714Y-69032914D02*
X18230476Y-69080533D01*
X16801905Y-139794819D02*
X16801905Y-138794819D01*
X17373333Y-139794819D02*
X16944762Y-139223390D01*
X17373333Y-138794819D02*
X16801905Y-139366247D01*
X17706667Y-138794819D02*
X18373333Y-138794819D01*
X18373333Y-138794819D02*
X17944762Y-139794819D01*
X16325714Y-19794819D02*
X16325714Y-18794819D01*
X16897142Y-19794819D02*
X16468571Y-19223390D01*
X16897142Y-18794819D02*
X16325714Y-19366247D01*
X17849523Y-19794819D02*
X17278095Y-19794819D01*
X17563809Y-19794819D02*
X17563809Y-18794819D01*
X17563809Y-18794819D02*
X17468571Y-18937676D01*
X17468571Y-18937676D02*
X17373333Y-19032914D01*
X17373333Y-19032914D02*
X17278095Y-19080533D01*
X18706666Y-18794819D02*
X18516190Y-18794819D01*
X18516190Y-18794819D02*
X18420952Y-18842438D01*
X18420952Y-18842438D02*
X18373333Y-18890057D01*
X18373333Y-18890057D02*
X18278095Y-19032914D01*
X18278095Y-19032914D02*
X18230476Y-19223390D01*
X18230476Y-19223390D02*
X18230476Y-19604342D01*
X18230476Y-19604342D02*
X18278095Y-19699580D01*
X18278095Y-19699580D02*
X18325714Y-19747200D01*
X18325714Y-19747200D02*
X18420952Y-19794819D01*
X18420952Y-19794819D02*
X18611428Y-19794819D01*
X18611428Y-19794819D02*
X18706666Y-19747200D01*
X18706666Y-19747200D02*
X18754285Y-19699580D01*
X18754285Y-19699580D02*
X18801904Y-19604342D01*
X18801904Y-19604342D02*
X18801904Y-19366247D01*
X18801904Y-19366247D02*
X18754285Y-19271009D01*
X18754285Y-19271009D02*
X18706666Y-19223390D01*
X18706666Y-19223390D02*
X18611428Y-19175771D01*
X18611428Y-19175771D02*
X18420952Y-19175771D01*
X18420952Y-19175771D02*
X18325714Y-19223390D01*
X18325714Y-19223390D02*
X18278095Y-19271009D01*
X18278095Y-19271009D02*
X18230476Y-19366247D01*
X16206667Y-11304819D02*
X16206667Y-10304819D01*
X16206667Y-10304819D02*
X16540000Y-11019104D01*
X16540000Y-11019104D02*
X16873333Y-10304819D01*
X16873333Y-10304819D02*
X16873333Y-11304819D01*
X17349524Y-11304819D02*
X17349524Y-10304819D01*
X17349524Y-10781009D02*
X17920952Y-10781009D01*
X17920952Y-11304819D02*
X17920952Y-10304819D01*
X18920952Y-11304819D02*
X18349524Y-11304819D01*
X18635238Y-11304819D02*
X18635238Y-10304819D01*
X18635238Y-10304819D02*
X18540000Y-10447676D01*
X18540000Y-10447676D02*
X18444762Y-10542914D01*
X18444762Y-10542914D02*
X18349524Y-10590533D01*
X16801905Y-99794819D02*
X16801905Y-98794819D01*
X17373333Y-99794819D02*
X16944762Y-99223390D01*
X17373333Y-98794819D02*
X16801905Y-99366247D01*
X17706667Y-98794819D02*
X18325714Y-98794819D01*
X18325714Y-98794819D02*
X17992381Y-99175771D01*
X17992381Y-99175771D02*
X18135238Y-99175771D01*
X18135238Y-99175771D02*
X18230476Y-99223390D01*
X18230476Y-99223390D02*
X18278095Y-99271009D01*
X18278095Y-99271009D02*
X18325714Y-99366247D01*
X18325714Y-99366247D02*
X18325714Y-99604342D01*
X18325714Y-99604342D02*
X18278095Y-99699580D01*
X18278095Y-99699580D02*
X18230476Y-99747200D01*
X18230476Y-99747200D02*
X18135238Y-99794819D01*
X18135238Y-99794819D02*
X17849524Y-99794819D01*
X17849524Y-99794819D02*
X17754286Y-99747200D01*
X17754286Y-99747200D02*
X17706667Y-99699580D01*
X74055714Y-45194819D02*
X74055714Y-44194819D01*
X74627142Y-45194819D02*
X74198571Y-44623390D01*
X74627142Y-44194819D02*
X74055714Y-44766247D01*
X75579523Y-45194819D02*
X75008095Y-45194819D01*
X75293809Y-45194819D02*
X75293809Y-44194819D01*
X75293809Y-44194819D02*
X75198571Y-44337676D01*
X75198571Y-44337676D02*
X75103333Y-44432914D01*
X75103333Y-44432914D02*
X75008095Y-44480533D01*
X76484285Y-44194819D02*
X76008095Y-44194819D01*
X76008095Y-44194819D02*
X75960476Y-44671009D01*
X75960476Y-44671009D02*
X76008095Y-44623390D01*
X76008095Y-44623390D02*
X76103333Y-44575771D01*
X76103333Y-44575771D02*
X76341428Y-44575771D01*
X76341428Y-44575771D02*
X76436666Y-44623390D01*
X76436666Y-44623390D02*
X76484285Y-44671009D01*
X76484285Y-44671009D02*
X76531904Y-44766247D01*
X76531904Y-44766247D02*
X76531904Y-45004342D01*
X76531904Y-45004342D02*
X76484285Y-45099580D01*
X76484285Y-45099580D02*
X76436666Y-45147200D01*
X76436666Y-45147200D02*
X76341428Y-45194819D01*
X76341428Y-45194819D02*
X76103333Y-45194819D01*
X76103333Y-45194819D02*
X76008095Y-45147200D01*
X76008095Y-45147200D02*
X75960476Y-45099580D01*
X16206667Y-150384819D02*
X16206667Y-149384819D01*
X16206667Y-149384819D02*
X16540000Y-150099104D01*
X16540000Y-150099104D02*
X16873333Y-149384819D01*
X16873333Y-149384819D02*
X16873333Y-150384819D01*
X17349524Y-150384819D02*
X17349524Y-149384819D01*
X17349524Y-149861009D02*
X17920952Y-149861009D01*
X17920952Y-150384819D02*
X17920952Y-149384819D01*
X18301905Y-149384819D02*
X18920952Y-149384819D01*
X18920952Y-149384819D02*
X18587619Y-149765771D01*
X18587619Y-149765771D02*
X18730476Y-149765771D01*
X18730476Y-149765771D02*
X18825714Y-149813390D01*
X18825714Y-149813390D02*
X18873333Y-149861009D01*
X18873333Y-149861009D02*
X18920952Y-149956247D01*
X18920952Y-149956247D02*
X18920952Y-150194342D01*
X18920952Y-150194342D02*
X18873333Y-150289580D01*
X18873333Y-150289580D02*
X18825714Y-150337200D01*
X18825714Y-150337200D02*
X18730476Y-150384819D01*
X18730476Y-150384819D02*
X18444762Y-150384819D01*
X18444762Y-150384819D02*
X18349524Y-150337200D01*
X18349524Y-150337200D02*
X18301905Y-150289580D01*
X74055714Y-105194819D02*
X74055714Y-104194819D01*
X74627142Y-105194819D02*
X74198571Y-104623390D01*
X74627142Y-104194819D02*
X74055714Y-104766247D01*
X75579523Y-105194819D02*
X75008095Y-105194819D01*
X75293809Y-105194819D02*
X75293809Y-104194819D01*
X75293809Y-104194819D02*
X75198571Y-104337676D01*
X75198571Y-104337676D02*
X75103333Y-104432914D01*
X75103333Y-104432914D02*
X75008095Y-104480533D01*
X76198571Y-104194819D02*
X76293809Y-104194819D01*
X76293809Y-104194819D02*
X76389047Y-104242438D01*
X76389047Y-104242438D02*
X76436666Y-104290057D01*
X76436666Y-104290057D02*
X76484285Y-104385295D01*
X76484285Y-104385295D02*
X76531904Y-104575771D01*
X76531904Y-104575771D02*
X76531904Y-104813866D01*
X76531904Y-104813866D02*
X76484285Y-105004342D01*
X76484285Y-105004342D02*
X76436666Y-105099580D01*
X76436666Y-105099580D02*
X76389047Y-105147200D01*
X76389047Y-105147200D02*
X76293809Y-105194819D01*
X76293809Y-105194819D02*
X76198571Y-105194819D01*
X76198571Y-105194819D02*
X76103333Y-105147200D01*
X76103333Y-105147200D02*
X76055714Y-105099580D01*
X76055714Y-105099580D02*
X76008095Y-105004342D01*
X76008095Y-105004342D02*
X75960476Y-104813866D01*
X75960476Y-104813866D02*
X75960476Y-104575771D01*
X75960476Y-104575771D02*
X76008095Y-104385295D01*
X76008095Y-104385295D02*
X76055714Y-104290057D01*
X76055714Y-104290057D02*
X76103333Y-104242438D01*
X76103333Y-104242438D02*
X76198571Y-104194819D01*
X40271819Y-102588333D02*
X40986104Y-102588333D01*
X40986104Y-102588333D02*
X41128961Y-102635952D01*
X41128961Y-102635952D02*
X41224200Y-102731190D01*
X41224200Y-102731190D02*
X41271819Y-102874047D01*
X41271819Y-102874047D02*
X41271819Y-102969285D01*
X40271819Y-101635952D02*
X40271819Y-102112142D01*
X40271819Y-102112142D02*
X40748009Y-102159761D01*
X40748009Y-102159761D02*
X40700390Y-102112142D01*
X40700390Y-102112142D02*
X40652771Y-102016904D01*
X40652771Y-102016904D02*
X40652771Y-101778809D01*
X40652771Y-101778809D02*
X40700390Y-101683571D01*
X40700390Y-101683571D02*
X40748009Y-101635952D01*
X40748009Y-101635952D02*
X40843247Y-101588333D01*
X40843247Y-101588333D02*
X41081342Y-101588333D01*
X41081342Y-101588333D02*
X41176580Y-101635952D01*
X41176580Y-101635952D02*
X41224200Y-101683571D01*
X41224200Y-101683571D02*
X41271819Y-101778809D01*
X41271819Y-101778809D02*
X41271819Y-102016904D01*
X41271819Y-102016904D02*
X41224200Y-102112142D01*
X41224200Y-102112142D02*
X41176580Y-102159761D01*
X74055714Y-95194819D02*
X74055714Y-94194819D01*
X74627142Y-95194819D02*
X74198571Y-94623390D01*
X74627142Y-94194819D02*
X74055714Y-94766247D01*
X75579523Y-95194819D02*
X75008095Y-95194819D01*
X75293809Y-95194819D02*
X75293809Y-94194819D01*
X75293809Y-94194819D02*
X75198571Y-94337676D01*
X75198571Y-94337676D02*
X75103333Y-94432914D01*
X75103333Y-94432914D02*
X75008095Y-94480533D01*
X76531904Y-95194819D02*
X75960476Y-95194819D01*
X76246190Y-95194819D02*
X76246190Y-94194819D01*
X76246190Y-94194819D02*
X76150952Y-94337676D01*
X76150952Y-94337676D02*
X76055714Y-94432914D01*
X76055714Y-94432914D02*
X75960476Y-94480533D01*
X74531905Y-125194819D02*
X74531905Y-124194819D01*
X75103333Y-125194819D02*
X74674762Y-124623390D01*
X75103333Y-124194819D02*
X74531905Y-124766247D01*
X75722381Y-124194819D02*
X75817619Y-124194819D01*
X75817619Y-124194819D02*
X75912857Y-124242438D01*
X75912857Y-124242438D02*
X75960476Y-124290057D01*
X75960476Y-124290057D02*
X76008095Y-124385295D01*
X76008095Y-124385295D02*
X76055714Y-124575771D01*
X76055714Y-124575771D02*
X76055714Y-124813866D01*
X76055714Y-124813866D02*
X76008095Y-125004342D01*
X76008095Y-125004342D02*
X75960476Y-125099580D01*
X75960476Y-125099580D02*
X75912857Y-125147200D01*
X75912857Y-125147200D02*
X75817619Y-125194819D01*
X75817619Y-125194819D02*
X75722381Y-125194819D01*
X75722381Y-125194819D02*
X75627143Y-125147200D01*
X75627143Y-125147200D02*
X75579524Y-125099580D01*
X75579524Y-125099580D02*
X75531905Y-125004342D01*
X75531905Y-125004342D02*
X75484286Y-124813866D01*
X75484286Y-124813866D02*
X75484286Y-124575771D01*
X75484286Y-124575771D02*
X75531905Y-124385295D01*
X75531905Y-124385295D02*
X75579524Y-124290057D01*
X75579524Y-124290057D02*
X75627143Y-124242438D01*
X75627143Y-124242438D02*
X75722381Y-124194819D01*
X16325714Y-39794819D02*
X16325714Y-38794819D01*
X16897142Y-39794819D02*
X16468571Y-39223390D01*
X16897142Y-38794819D02*
X16325714Y-39366247D01*
X17849523Y-39794819D02*
X17278095Y-39794819D01*
X17563809Y-39794819D02*
X17563809Y-38794819D01*
X17563809Y-38794819D02*
X17468571Y-38937676D01*
X17468571Y-38937676D02*
X17373333Y-39032914D01*
X17373333Y-39032914D02*
X17278095Y-39080533D01*
X18420952Y-39223390D02*
X18325714Y-39175771D01*
X18325714Y-39175771D02*
X18278095Y-39128152D01*
X18278095Y-39128152D02*
X18230476Y-39032914D01*
X18230476Y-39032914D02*
X18230476Y-38985295D01*
X18230476Y-38985295D02*
X18278095Y-38890057D01*
X18278095Y-38890057D02*
X18325714Y-38842438D01*
X18325714Y-38842438D02*
X18420952Y-38794819D01*
X18420952Y-38794819D02*
X18611428Y-38794819D01*
X18611428Y-38794819D02*
X18706666Y-38842438D01*
X18706666Y-38842438D02*
X18754285Y-38890057D01*
X18754285Y-38890057D02*
X18801904Y-38985295D01*
X18801904Y-38985295D02*
X18801904Y-39032914D01*
X18801904Y-39032914D02*
X18754285Y-39128152D01*
X18754285Y-39128152D02*
X18706666Y-39175771D01*
X18706666Y-39175771D02*
X18611428Y-39223390D01*
X18611428Y-39223390D02*
X18420952Y-39223390D01*
X18420952Y-39223390D02*
X18325714Y-39271009D01*
X18325714Y-39271009D02*
X18278095Y-39318628D01*
X18278095Y-39318628D02*
X18230476Y-39413866D01*
X18230476Y-39413866D02*
X18230476Y-39604342D01*
X18230476Y-39604342D02*
X18278095Y-39699580D01*
X18278095Y-39699580D02*
X18325714Y-39747200D01*
X18325714Y-39747200D02*
X18420952Y-39794819D01*
X18420952Y-39794819D02*
X18611428Y-39794819D01*
X18611428Y-39794819D02*
X18706666Y-39747200D01*
X18706666Y-39747200D02*
X18754285Y-39699580D01*
X18754285Y-39699580D02*
X18801904Y-39604342D01*
X18801904Y-39604342D02*
X18801904Y-39413866D01*
X18801904Y-39413866D02*
X18754285Y-39318628D01*
X18754285Y-39318628D02*
X18706666Y-39271009D01*
X18706666Y-39271009D02*
X18611428Y-39223390D01*
X16325714Y-49794819D02*
X16325714Y-48794819D01*
X16897142Y-49794819D02*
X16468571Y-49223390D01*
X16897142Y-48794819D02*
X16325714Y-49366247D01*
X17849523Y-49794819D02*
X17278095Y-49794819D01*
X17563809Y-49794819D02*
X17563809Y-48794819D01*
X17563809Y-48794819D02*
X17468571Y-48937676D01*
X17468571Y-48937676D02*
X17373333Y-49032914D01*
X17373333Y-49032914D02*
X17278095Y-49080533D01*
X18325714Y-49794819D02*
X18516190Y-49794819D01*
X18516190Y-49794819D02*
X18611428Y-49747200D01*
X18611428Y-49747200D02*
X18659047Y-49699580D01*
X18659047Y-49699580D02*
X18754285Y-49556723D01*
X18754285Y-49556723D02*
X18801904Y-49366247D01*
X18801904Y-49366247D02*
X18801904Y-48985295D01*
X18801904Y-48985295D02*
X18754285Y-48890057D01*
X18754285Y-48890057D02*
X18706666Y-48842438D01*
X18706666Y-48842438D02*
X18611428Y-48794819D01*
X18611428Y-48794819D02*
X18420952Y-48794819D01*
X18420952Y-48794819D02*
X18325714Y-48842438D01*
X18325714Y-48842438D02*
X18278095Y-48890057D01*
X18278095Y-48890057D02*
X18230476Y-48985295D01*
X18230476Y-48985295D02*
X18230476Y-49223390D01*
X18230476Y-49223390D02*
X18278095Y-49318628D01*
X18278095Y-49318628D02*
X18325714Y-49366247D01*
X18325714Y-49366247D02*
X18420952Y-49413866D01*
X18420952Y-49413866D02*
X18611428Y-49413866D01*
X18611428Y-49413866D02*
X18706666Y-49366247D01*
X18706666Y-49366247D02*
X18754285Y-49318628D01*
X18754285Y-49318628D02*
X18801904Y-49223390D01*
X16801905Y-119794819D02*
X16801905Y-118794819D01*
X17373333Y-119794819D02*
X16944762Y-119223390D01*
X17373333Y-118794819D02*
X16801905Y-119366247D01*
X18278095Y-118794819D02*
X17801905Y-118794819D01*
X17801905Y-118794819D02*
X17754286Y-119271009D01*
X17754286Y-119271009D02*
X17801905Y-119223390D01*
X17801905Y-119223390D02*
X17897143Y-119175771D01*
X17897143Y-119175771D02*
X18135238Y-119175771D01*
X18135238Y-119175771D02*
X18230476Y-119223390D01*
X18230476Y-119223390D02*
X18278095Y-119271009D01*
X18278095Y-119271009D02*
X18325714Y-119366247D01*
X18325714Y-119366247D02*
X18325714Y-119604342D01*
X18325714Y-119604342D02*
X18278095Y-119699580D01*
X18278095Y-119699580D02*
X18230476Y-119747200D01*
X18230476Y-119747200D02*
X18135238Y-119794819D01*
X18135238Y-119794819D02*
X17897143Y-119794819D01*
X17897143Y-119794819D02*
X17801905Y-119747200D01*
X17801905Y-119747200D02*
X17754286Y-119699580D01*
X16325714Y-29794819D02*
X16325714Y-28794819D01*
X16897142Y-29794819D02*
X16468571Y-29223390D01*
X16897142Y-28794819D02*
X16325714Y-29366247D01*
X17849523Y-29794819D02*
X17278095Y-29794819D01*
X17563809Y-29794819D02*
X17563809Y-28794819D01*
X17563809Y-28794819D02*
X17468571Y-28937676D01*
X17468571Y-28937676D02*
X17373333Y-29032914D01*
X17373333Y-29032914D02*
X17278095Y-29080533D01*
X18182857Y-28794819D02*
X18849523Y-28794819D01*
X18849523Y-28794819D02*
X18420952Y-29794819D01*
X74055714Y-75194819D02*
X74055714Y-74194819D01*
X74627142Y-75194819D02*
X74198571Y-74623390D01*
X74627142Y-74194819D02*
X74055714Y-74766247D01*
X75579523Y-75194819D02*
X75008095Y-75194819D01*
X75293809Y-75194819D02*
X75293809Y-74194819D01*
X75293809Y-74194819D02*
X75198571Y-74337676D01*
X75198571Y-74337676D02*
X75103333Y-74432914D01*
X75103333Y-74432914D02*
X75008095Y-74480533D01*
X75912857Y-74194819D02*
X76531904Y-74194819D01*
X76531904Y-74194819D02*
X76198571Y-74575771D01*
X76198571Y-74575771D02*
X76341428Y-74575771D01*
X76341428Y-74575771D02*
X76436666Y-74623390D01*
X76436666Y-74623390D02*
X76484285Y-74671009D01*
X76484285Y-74671009D02*
X76531904Y-74766247D01*
X76531904Y-74766247D02*
X76531904Y-75004342D01*
X76531904Y-75004342D02*
X76484285Y-75099580D01*
X76484285Y-75099580D02*
X76436666Y-75147200D01*
X76436666Y-75147200D02*
X76341428Y-75194819D01*
X76341428Y-75194819D02*
X76055714Y-75194819D01*
X76055714Y-75194819D02*
X75960476Y-75147200D01*
X75960476Y-75147200D02*
X75912857Y-75099580D01*
X74055714Y-35194819D02*
X74055714Y-34194819D01*
X74627142Y-35194819D02*
X74198571Y-34623390D01*
X74627142Y-34194819D02*
X74055714Y-34766247D01*
X75008095Y-34290057D02*
X75055714Y-34242438D01*
X75055714Y-34242438D02*
X75150952Y-34194819D01*
X75150952Y-34194819D02*
X75389047Y-34194819D01*
X75389047Y-34194819D02*
X75484285Y-34242438D01*
X75484285Y-34242438D02*
X75531904Y-34290057D01*
X75531904Y-34290057D02*
X75579523Y-34385295D01*
X75579523Y-34385295D02*
X75579523Y-34480533D01*
X75579523Y-34480533D02*
X75531904Y-34623390D01*
X75531904Y-34623390D02*
X74960476Y-35194819D01*
X74960476Y-35194819D02*
X75579523Y-35194819D01*
X75960476Y-34290057D02*
X76008095Y-34242438D01*
X76008095Y-34242438D02*
X76103333Y-34194819D01*
X76103333Y-34194819D02*
X76341428Y-34194819D01*
X76341428Y-34194819D02*
X76436666Y-34242438D01*
X76436666Y-34242438D02*
X76484285Y-34290057D01*
X76484285Y-34290057D02*
X76531904Y-34385295D01*
X76531904Y-34385295D02*
X76531904Y-34480533D01*
X76531904Y-34480533D02*
X76484285Y-34623390D01*
X76484285Y-34623390D02*
X75912857Y-35194819D01*
X75912857Y-35194819D02*
X76531904Y-35194819D01*
X16801905Y-129794819D02*
X16801905Y-128794819D01*
X17373333Y-129794819D02*
X16944762Y-129223390D01*
X17373333Y-128794819D02*
X16801905Y-129366247D01*
X18230476Y-128794819D02*
X18040000Y-128794819D01*
X18040000Y-128794819D02*
X17944762Y-128842438D01*
X17944762Y-128842438D02*
X17897143Y-128890057D01*
X17897143Y-128890057D02*
X17801905Y-129032914D01*
X17801905Y-129032914D02*
X17754286Y-129223390D01*
X17754286Y-129223390D02*
X17754286Y-129604342D01*
X17754286Y-129604342D02*
X17801905Y-129699580D01*
X17801905Y-129699580D02*
X17849524Y-129747200D01*
X17849524Y-129747200D02*
X17944762Y-129794819D01*
X17944762Y-129794819D02*
X18135238Y-129794819D01*
X18135238Y-129794819D02*
X18230476Y-129747200D01*
X18230476Y-129747200D02*
X18278095Y-129699580D01*
X18278095Y-129699580D02*
X18325714Y-129604342D01*
X18325714Y-129604342D02*
X18325714Y-129366247D01*
X18325714Y-129366247D02*
X18278095Y-129271009D01*
X18278095Y-129271009D02*
X18230476Y-129223390D01*
X18230476Y-129223390D02*
X18135238Y-129175771D01*
X18135238Y-129175771D02*
X17944762Y-129175771D01*
X17944762Y-129175771D02*
X17849524Y-129223390D01*
X17849524Y-129223390D02*
X17801905Y-129271009D01*
X17801905Y-129271009D02*
X17754286Y-129366247D01*
X74055714Y-55194819D02*
X74055714Y-54194819D01*
X74627142Y-55194819D02*
X74198571Y-54623390D01*
X74627142Y-54194819D02*
X74055714Y-54766247D01*
X75008095Y-54290057D02*
X75055714Y-54242438D01*
X75055714Y-54242438D02*
X75150952Y-54194819D01*
X75150952Y-54194819D02*
X75389047Y-54194819D01*
X75389047Y-54194819D02*
X75484285Y-54242438D01*
X75484285Y-54242438D02*
X75531904Y-54290057D01*
X75531904Y-54290057D02*
X75579523Y-54385295D01*
X75579523Y-54385295D02*
X75579523Y-54480533D01*
X75579523Y-54480533D02*
X75531904Y-54623390D01*
X75531904Y-54623390D02*
X74960476Y-55194819D01*
X74960476Y-55194819D02*
X75579523Y-55194819D01*
X75912857Y-54194819D02*
X76531904Y-54194819D01*
X76531904Y-54194819D02*
X76198571Y-54575771D01*
X76198571Y-54575771D02*
X76341428Y-54575771D01*
X76341428Y-54575771D02*
X76436666Y-54623390D01*
X76436666Y-54623390D02*
X76484285Y-54671009D01*
X76484285Y-54671009D02*
X76531904Y-54766247D01*
X76531904Y-54766247D02*
X76531904Y-55004342D01*
X76531904Y-55004342D02*
X76484285Y-55099580D01*
X76484285Y-55099580D02*
X76436666Y-55147200D01*
X76436666Y-55147200D02*
X76341428Y-55194819D01*
X76341428Y-55194819D02*
X76055714Y-55194819D01*
X76055714Y-55194819D02*
X75960476Y-55147200D01*
X75960476Y-55147200D02*
X75912857Y-55099580D01*
%TO.C,K1*%
D11*
X71170000Y-135440000D02*
X79370000Y-135440000D01*
X71170000Y-143640000D02*
X71170000Y-135440000D01*
X71170000Y-143640000D02*
X79370000Y-143640000D01*
X75270000Y-143140000D02*
X74770000Y-143640000D01*
X75770000Y-143640000D02*
X75270000Y-143140000D01*
X79370000Y-143640000D02*
X79370000Y-135440000D01*
%TO.C,K2*%
X13440000Y-90440000D02*
X13440000Y-98640000D01*
X17040000Y-90440000D02*
X17540000Y-90940000D01*
X17540000Y-90940000D02*
X18040000Y-90440000D01*
X21640000Y-90440000D02*
X13440000Y-90440000D01*
X21640000Y-90440000D02*
X21640000Y-98640000D01*
X21640000Y-98640000D02*
X13440000Y-98640000D01*
%TO.C,K20*%
X13440000Y-60440000D02*
X13440000Y-68640000D01*
X17040000Y-60440000D02*
X17540000Y-60940000D01*
X17540000Y-60940000D02*
X18040000Y-60440000D01*
X21640000Y-60440000D02*
X13440000Y-60440000D01*
X21640000Y-60440000D02*
X21640000Y-68640000D01*
X21640000Y-68640000D02*
X13440000Y-68640000D01*
%TO.C,IV*%
X13440000Y-80440000D02*
X13440000Y-88640000D01*
X17040000Y-80440000D02*
X17540000Y-80940000D01*
X17540000Y-80940000D02*
X18040000Y-80440000D01*
X21640000Y-80440000D02*
X13440000Y-80440000D01*
X21640000Y-80440000D02*
X21640000Y-88640000D01*
X21640000Y-88640000D02*
X13440000Y-88640000D01*
%TO.C,K4*%
X13440000Y-110440000D02*
X13440000Y-118640000D01*
X17040000Y-110440000D02*
X17540000Y-110940000D01*
X17540000Y-110940000D02*
X18040000Y-110440000D01*
X21640000Y-110440000D02*
X13440000Y-110440000D01*
X21640000Y-110440000D02*
X21640000Y-118640000D01*
X21640000Y-118640000D02*
X13440000Y-118640000D01*
%TO.C,K9*%
X71170000Y-105440000D02*
X79370000Y-105440000D01*
X71170000Y-113640000D02*
X71170000Y-105440000D01*
X71170000Y-113640000D02*
X79370000Y-113640000D01*
X75270000Y-113140000D02*
X74770000Y-113640000D01*
X75770000Y-113640000D02*
X75270000Y-113140000D01*
X79370000Y-113640000D02*
X79370000Y-105440000D01*
%TO.C,K14*%
X71170000Y-55440000D02*
X79370000Y-55440000D01*
X71170000Y-63640000D02*
X71170000Y-55440000D01*
X71170000Y-63640000D02*
X79370000Y-63640000D01*
X75270000Y-63140000D02*
X74770000Y-63640000D01*
X75770000Y-63640000D02*
X75270000Y-63140000D01*
X79370000Y-63640000D02*
X79370000Y-55440000D01*
%TO.C,K12*%
X71170000Y-75440000D02*
X79370000Y-75440000D01*
X71170000Y-83640000D02*
X71170000Y-75440000D01*
X71170000Y-83640000D02*
X79370000Y-83640000D01*
X75270000Y-83140000D02*
X74770000Y-83640000D01*
X75770000Y-83640000D02*
X75270000Y-83140000D01*
X79370000Y-83640000D02*
X79370000Y-75440000D01*
%TO.C,K8*%
X71170000Y-125440000D02*
X79370000Y-125440000D01*
X71170000Y-133640000D02*
X71170000Y-125440000D01*
X71170000Y-133640000D02*
X79370000Y-133640000D01*
X75270000Y-133140000D02*
X74770000Y-133640000D01*
X75770000Y-133640000D02*
X75270000Y-133140000D01*
X79370000Y-133640000D02*
X79370000Y-125440000D01*
%TO.C,K21*%
X13440000Y-70440000D02*
X13440000Y-78640000D01*
X17040000Y-70440000D02*
X17540000Y-70940000D01*
X17540000Y-70940000D02*
X18040000Y-70440000D01*
X21640000Y-70440000D02*
X13440000Y-70440000D01*
X21640000Y-70440000D02*
X21640000Y-78640000D01*
X21640000Y-78640000D02*
X13440000Y-78640000D01*
%TO.C,K7*%
X13440000Y-140440000D02*
X13440000Y-148640000D01*
X17040000Y-140440000D02*
X17540000Y-140940000D01*
X17540000Y-140940000D02*
X18040000Y-140440000D01*
X21640000Y-140440000D02*
X13440000Y-140440000D01*
X21640000Y-140440000D02*
X21640000Y-148640000D01*
X21640000Y-148640000D02*
X13440000Y-148640000D01*
%TO.C,K16*%
X13440000Y-20440000D02*
X13440000Y-28640000D01*
X17040000Y-20440000D02*
X17540000Y-20940000D01*
X17540000Y-20940000D02*
X18040000Y-20440000D01*
X21640000Y-20440000D02*
X13440000Y-20440000D01*
X21640000Y-20440000D02*
X21640000Y-28640000D01*
X21640000Y-28640000D02*
X13440000Y-28640000D01*
%TO.C,K3*%
X13440000Y-100440000D02*
X13440000Y-108640000D01*
X17040000Y-100440000D02*
X17540000Y-100940000D01*
X17540000Y-100940000D02*
X18040000Y-100440000D01*
X21640000Y-100440000D02*
X13440000Y-100440000D01*
X21640000Y-100440000D02*
X21640000Y-108640000D01*
X21640000Y-108640000D02*
X13440000Y-108640000D01*
%TO.C,K15*%
X71170000Y-35440000D02*
X79370000Y-35440000D01*
X71170000Y-43640000D02*
X71170000Y-35440000D01*
X71170000Y-43640000D02*
X79370000Y-43640000D01*
X75270000Y-43140000D02*
X74770000Y-43640000D01*
X75770000Y-43640000D02*
X75270000Y-43140000D01*
X79370000Y-43640000D02*
X79370000Y-35440000D01*
%TO.C,K10*%
X71170000Y-95440000D02*
X79370000Y-95440000D01*
X71170000Y-103640000D02*
X71170000Y-95440000D01*
X71170000Y-103640000D02*
X79370000Y-103640000D01*
X75270000Y-103140000D02*
X74770000Y-103640000D01*
X75770000Y-103640000D02*
X75270000Y-103140000D01*
X79370000Y-103640000D02*
X79370000Y-95440000D01*
%TO.C,J5*%
D12*
X42785000Y-63900000D02*
X42785000Y-66040000D01*
X42785000Y-83040000D02*
X42785000Y-86040000D01*
X42785000Y-102940000D02*
X42785000Y-105180000D01*
X50025000Y-63900000D02*
X44605000Y-63900000D01*
X50025000Y-66040000D02*
X50025000Y-63900000D01*
X50025000Y-86040000D02*
X50025000Y-83040000D01*
X50025000Y-102940000D02*
X50025000Y-105180000D01*
X50025000Y-105180000D02*
X44605000Y-105180000D01*
X51205000Y-102140000D02*
G75*
G02*
X51005000Y-102140000I-100000J0D01*
G01*
X51005000Y-102140000D02*
G75*
G02*
X51205000Y-102140000I100000J0D01*
G01*
%TO.C,K11*%
D11*
X71170000Y-85440000D02*
X79370000Y-85440000D01*
X71170000Y-93640000D02*
X71170000Y-85440000D01*
X71170000Y-93640000D02*
X79370000Y-93640000D01*
X75270000Y-93140000D02*
X74770000Y-93640000D01*
X75770000Y-93640000D02*
X75270000Y-93140000D01*
X79370000Y-93640000D02*
X79370000Y-85440000D01*
%TO.C,K0*%
X71170000Y-115440000D02*
X79370000Y-115440000D01*
X71170000Y-123640000D02*
X71170000Y-115440000D01*
X71170000Y-123640000D02*
X79370000Y-123640000D01*
X75270000Y-123140000D02*
X74770000Y-123640000D01*
X75770000Y-123640000D02*
X75270000Y-123140000D01*
X79370000Y-123640000D02*
X79370000Y-115440000D01*
%TO.C,K18*%
X13440000Y-40440000D02*
X13440000Y-48640000D01*
X17040000Y-40440000D02*
X17540000Y-40940000D01*
X17540000Y-40940000D02*
X18040000Y-40440000D01*
X21640000Y-40440000D02*
X13440000Y-40440000D01*
X21640000Y-40440000D02*
X21640000Y-48640000D01*
X21640000Y-48640000D02*
X13440000Y-48640000D01*
%TO.C,K19*%
X13440000Y-50440000D02*
X13440000Y-58640000D01*
X17040000Y-50440000D02*
X17540000Y-50940000D01*
X17540000Y-50940000D02*
X18040000Y-50440000D01*
X21640000Y-50440000D02*
X13440000Y-50440000D01*
X21640000Y-50440000D02*
X21640000Y-58640000D01*
X21640000Y-58640000D02*
X13440000Y-58640000D01*
%TO.C,K5*%
X13440000Y-120440000D02*
X13440000Y-128640000D01*
X17040000Y-120440000D02*
X17540000Y-120940000D01*
X17540000Y-120940000D02*
X18040000Y-120440000D01*
X21640000Y-120440000D02*
X13440000Y-120440000D01*
X21640000Y-120440000D02*
X21640000Y-128640000D01*
X21640000Y-128640000D02*
X13440000Y-128640000D01*
%TO.C,K17*%
X13440000Y-30440000D02*
X13440000Y-38640000D01*
X17040000Y-30440000D02*
X17540000Y-30940000D01*
X17540000Y-30940000D02*
X18040000Y-30440000D01*
X21640000Y-30440000D02*
X13440000Y-30440000D01*
X21640000Y-30440000D02*
X21640000Y-38640000D01*
X21640000Y-38640000D02*
X13440000Y-38640000D01*
%TO.C,K13*%
X71170000Y-65440000D02*
X79370000Y-65440000D01*
X71170000Y-73640000D02*
X71170000Y-65440000D01*
X71170000Y-73640000D02*
X79370000Y-73640000D01*
X75270000Y-73140000D02*
X74770000Y-73640000D01*
X75770000Y-73640000D02*
X75270000Y-73140000D01*
X79370000Y-73640000D02*
X79370000Y-65440000D01*
%TO.C,K22*%
X71170000Y-25440000D02*
X79370000Y-25440000D01*
X71170000Y-33640000D02*
X71170000Y-25440000D01*
X71170000Y-33640000D02*
X79370000Y-33640000D01*
X75270000Y-33140000D02*
X74770000Y-33640000D01*
X75770000Y-33640000D02*
X75270000Y-33140000D01*
X79370000Y-33640000D02*
X79370000Y-25440000D01*
%TO.C,K6*%
X13440000Y-130440000D02*
X13440000Y-138640000D01*
X17040000Y-130440000D02*
X17540000Y-130940000D01*
X17540000Y-130940000D02*
X18040000Y-130440000D01*
X21640000Y-130440000D02*
X13440000Y-130440000D01*
X21640000Y-130440000D02*
X21640000Y-138640000D01*
X21640000Y-138640000D02*
X13440000Y-138640000D01*
%TO.C,K23*%
X71170000Y-45440000D02*
X79370000Y-45440000D01*
X71170000Y-53640000D02*
X71170000Y-45440000D01*
X71170000Y-53640000D02*
X79370000Y-53640000D01*
X75270000Y-53140000D02*
X74770000Y-53640000D01*
X75770000Y-53640000D02*
X75270000Y-53140000D01*
X79370000Y-53640000D02*
X79370000Y-45440000D01*
%TD*%
M02*
