%TF.GenerationSoftware,KiCad,Pcbnew,10.0.3*%
%TF.CreationDate,2026-06-17T00:20:36-04:00*%
%TF.ProjectId,board-B-sma,626f6172-642d-4422-9d73-6d612e6b6963,rev?*%
%TF.SameCoordinates,Original*%
%TF.FileFunction,Copper,L1,Top*%
%TF.FilePolarity,Positive*%
%FSLAX46Y46*%
G04 Gerber Fmt 4.6, Leading zero omitted, Abs format (unit mm)*
G04 Created by KiCad (PCBNEW 10.0.3) date 2026-06-17 00:20:36*
%MOMM*%
%LPD*%
G01*
G04 APERTURE LIST*
G04 Aperture macros list*
%AMRoundRect*
0 Rectangle with rounded corners*
0 $1 Rounding radius*
0 $2 $3 $4 $5 $6 $7 $8 $9 X,Y pos of 4 corners*
0 Add a 4 corners polygon primitive as box body*
4,1,4,$2,$3,$4,$5,$6,$7,$8,$9,$2,$3,0*
0 Add four circle primitives for the rounded corners*
1,1,$1+$1,$2,$3*
1,1,$1+$1,$4,$5*
1,1,$1+$1,$6,$7*
1,1,$1+$1,$8,$9*
0 Add four rect primitives between the rounded corners*
20,1,$1+$1,$2,$3,$4,$5,0*
20,1,$1+$1,$4,$5,$6,$7,0*
20,1,$1+$1,$6,$7,$8,$9,0*
20,1,$1+$1,$8,$9,$2,$3,0*%
G04 Aperture macros list end*
%TA.AperFunction,ComponentPad*%
%ADD10RoundRect,0.200100X0.949900X-0.949900X0.949900X0.949900X-0.949900X0.949900X-0.949900X-0.949900X0*%
%TD*%
%TA.AperFunction,ComponentPad*%
%ADD11C,2.500000*%
%TD*%
%TA.AperFunction,ComponentPad*%
%ADD12RoundRect,0.200100X-0.949900X0.949900X-0.949900X-0.949900X0.949900X-0.949900X0.949900X0.949900X0*%
%TD*%
%TA.AperFunction,SMDPad,CuDef*%
%ADD13R,2.270000X0.410000*%
%TD*%
%TA.AperFunction,SMDPad,CuDef*%
%ADD14R,0.430000X2.540000*%
%TD*%
%TA.AperFunction,SMDPad,CuDef*%
%ADD15R,0.430000X4.700000*%
%TD*%
%TA.AperFunction,ViaPad*%
%ADD16C,0.600000*%
%TD*%
%TA.AperFunction,Conductor*%
%ADD17C,0.340000*%
%TD*%
G04 APERTURE END LIST*
D10*
%TO.P,K1,1*%
%TO.N,SIPM_K1*%
X75270000Y-139540000D03*
D11*
%TO.P,K1,2*%
%TO.N,GNDA*%
X72730000Y-142080000D03*
X77810000Y-142080000D03*
X72730000Y-137000000D03*
X77810000Y-137000000D03*
%TD*%
D12*
%TO.P,K2,1*%
%TO.N,SIPM_K2*%
X17540000Y-94540000D03*
D11*
%TO.P,K2,2*%
%TO.N,GNDA*%
X20080000Y-92000000D03*
X15000000Y-92000000D03*
X20080000Y-97080000D03*
X15000000Y-97080000D03*
%TD*%
D12*
%TO.P,K20,1*%
%TO.N,SIPM_K20*%
X17540000Y-64540000D03*
D11*
%TO.P,K20,2*%
%TO.N,GNDA*%
X20080000Y-62000000D03*
X15000000Y-62000000D03*
X20080000Y-67080000D03*
X15000000Y-67080000D03*
%TD*%
D12*
%TO.P,IV,1*%
%TO.N,IV*%
X17540000Y-84540000D03*
D11*
%TO.P,IV,2*%
%TO.N,GNDA*%
X20080000Y-82000000D03*
X15000000Y-82000000D03*
X20080000Y-87080000D03*
X15000000Y-87080000D03*
%TD*%
D12*
%TO.P,K4,1*%
%TO.N,SIPM_K4*%
X17540000Y-114540000D03*
D11*
%TO.P,K4,2*%
%TO.N,GNDA*%
X20080000Y-112000000D03*
X15000000Y-112000000D03*
X20080000Y-117080000D03*
X15000000Y-117080000D03*
%TD*%
D10*
%TO.P,K9,1*%
%TO.N,SIPM_K9*%
X75270000Y-109540000D03*
D11*
%TO.P,K9,2*%
%TO.N,GNDA*%
X72730000Y-112080000D03*
X77810000Y-112080000D03*
X72730000Y-107000000D03*
X77810000Y-107000000D03*
%TD*%
D10*
%TO.P,K14,1*%
%TO.N,SIPM_K14*%
X75270000Y-59540000D03*
D11*
%TO.P,K14,2*%
%TO.N,GNDA*%
X72730000Y-62080000D03*
X77810000Y-62080000D03*
X72730000Y-57000000D03*
X77810000Y-57000000D03*
%TD*%
D10*
%TO.P,K12,1*%
%TO.N,SIPM_K12*%
X75270000Y-79540000D03*
D11*
%TO.P,K12,2*%
%TO.N,GNDA*%
X72730000Y-82080000D03*
X77810000Y-82080000D03*
X72730000Y-77000000D03*
X77810000Y-77000000D03*
%TD*%
D10*
%TO.P,K8,1*%
%TO.N,SIPM_K8*%
X75270000Y-129540000D03*
D11*
%TO.P,K8,2*%
%TO.N,GNDA*%
X72730000Y-132080000D03*
X77810000Y-132080000D03*
X72730000Y-127000000D03*
X77810000Y-127000000D03*
%TD*%
D12*
%TO.P,K21,1*%
%TO.N,SIPM_K21*%
X17540000Y-74540000D03*
D11*
%TO.P,K21,2*%
%TO.N,GNDA*%
X20080000Y-72000000D03*
X15000000Y-72000000D03*
X20080000Y-77080000D03*
X15000000Y-77080000D03*
%TD*%
D12*
%TO.P,K7,1*%
%TO.N,SIPM_K7*%
X17540000Y-144540000D03*
D11*
%TO.P,K7,2*%
%TO.N,GNDA*%
X20080000Y-142000000D03*
X15000000Y-142000000D03*
X20080000Y-147080000D03*
X15000000Y-147080000D03*
%TD*%
D12*
%TO.P,K16,1*%
%TO.N,SIPM_K16*%
X17540000Y-24540000D03*
D11*
%TO.P,K16,2*%
%TO.N,GNDA*%
X20080000Y-22000000D03*
X15000000Y-22000000D03*
X20080000Y-27080000D03*
X15000000Y-27080000D03*
%TD*%
D12*
%TO.P,K3,1*%
%TO.N,SIPM_K3*%
X17540000Y-104540000D03*
D11*
%TO.P,K3,2*%
%TO.N,GNDA*%
X20080000Y-102000000D03*
X15000000Y-102000000D03*
X20080000Y-107080000D03*
X15000000Y-107080000D03*
%TD*%
D10*
%TO.P,K15,1*%
%TO.N,SIPM_K15*%
X75270000Y-39540000D03*
D11*
%TO.P,K15,2*%
%TO.N,GNDA*%
X72730000Y-42080000D03*
X77810000Y-42080000D03*
X72730000Y-37000000D03*
X77810000Y-37000000D03*
%TD*%
D10*
%TO.P,K10,1*%
%TO.N,SIPM_K10*%
X75270000Y-99540000D03*
D11*
%TO.P,K10,2*%
%TO.N,GNDA*%
X72730000Y-102080000D03*
X77810000Y-102080000D03*
X72730000Y-97000000D03*
X77810000Y-97000000D03*
%TD*%
D13*
%TO.P,J5,01*%
%TO.N,GNDA*%
X49270000Y-102140000D03*
%TO.P,J5,02*%
%TO.N,SIPM_K7*%
X43540000Y-102140000D03*
%TO.P,J5,03*%
%TO.N,GNDA*%
X49270000Y-101340000D03*
%TO.P,J5,04*%
X43540000Y-101340000D03*
%TO.P,J5,05*%
X49270000Y-100540000D03*
%TO.P,J5,06*%
%TO.N,SIPM_K6*%
X43540000Y-100540000D03*
%TO.P,J5,07*%
%TO.N,GNDA*%
X49270000Y-99740000D03*
%TO.P,J5,08*%
X43540000Y-99740000D03*
%TO.P,J5,09*%
X49270000Y-98940000D03*
%TO.P,J5,10*%
%TO.N,SIPM_K5*%
X43540000Y-98940000D03*
%TO.P,J5,11*%
%TO.N,GNDA*%
X49270000Y-98140000D03*
%TO.P,J5,12*%
X43540000Y-98140000D03*
%TO.P,J5,13*%
X49270000Y-97340000D03*
%TO.P,J5,14*%
%TO.N,SIPM_K4*%
X43540000Y-97340000D03*
%TO.P,J5,15*%
%TO.N,GNDA*%
X49270000Y-96540000D03*
%TO.P,J5,16*%
X43540000Y-96540000D03*
%TO.P,J5,17*%
X49270000Y-95740000D03*
%TO.P,J5,18*%
%TO.N,SIPM_K3*%
X43540000Y-95740000D03*
%TO.P,J5,19*%
%TO.N,GNDA*%
X49270000Y-94940000D03*
%TO.P,J5,20*%
X43540000Y-94940000D03*
%TO.P,J5,21*%
X49270000Y-94140000D03*
%TO.P,J5,22*%
%TO.N,SIPM_K2*%
X43540000Y-94140000D03*
%TO.P,J5,23*%
%TO.N,GNDA*%
X49270000Y-93340000D03*
%TO.P,J5,24*%
X43540000Y-93340000D03*
%TO.P,J5,25*%
X49270000Y-92540000D03*
%TO.P,J5,26*%
%TO.N,SIPM_K1*%
X43540000Y-92540000D03*
%TO.P,J5,27*%
%TO.N,SIPM_K8*%
X49270000Y-91740000D03*
%TO.P,J5,28*%
%TO.N,GNDA*%
X43540000Y-91740000D03*
%TO.P,J5,29*%
X49270000Y-90940000D03*
%TO.P,J5,30*%
%TO.N,SIPM_K0*%
X43540000Y-90940000D03*
%TO.P,J5,31*%
%TO.N,SIPM_K9*%
X49270000Y-90140000D03*
%TO.P,J5,32*%
%TO.N,GNDA*%
X43540000Y-90140000D03*
%TO.P,J5,33*%
X49270000Y-89340000D03*
%TO.P,J5,34*%
X43540000Y-89340000D03*
%TO.P,J5,35*%
%TO.N,SIPM_K10*%
X49270000Y-88540000D03*
%TO.P,J5,36*%
%TO.N,GNDA*%
X43540000Y-88540000D03*
%TO.P,J5,37*%
X49270000Y-87740000D03*
%TO.P,J5,38*%
X43540000Y-87740000D03*
%TO.P,J5,39*%
%TO.N,SIPM_K11*%
X49270000Y-86940000D03*
%TO.P,J5,40*%
%TO.N,IV*%
X43540000Y-86940000D03*
%TO.P,J5,41*%
%TO.N,SIPM_K12*%
X49270000Y-82140000D03*
%TO.P,J5,42*%
%TO.N,IV*%
X43540000Y-82140000D03*
%TO.P,J5,43*%
%TO.N,GNDA*%
X49270000Y-81340000D03*
%TO.P,J5,44*%
X43540000Y-81340000D03*
%TO.P,J5,45*%
%TO.N,SIPM_K13*%
X49270000Y-80540000D03*
%TO.P,J5,46*%
%TO.N,GNDA*%
X43540000Y-80540000D03*
%TO.P,J5,47*%
X49270000Y-79740000D03*
%TO.P,J5,48*%
X43540000Y-79740000D03*
%TO.P,J5,49*%
%TO.N,SIPM_K14*%
X49270000Y-78940000D03*
%TO.P,J5,50*%
%TO.N,GNDA*%
X43540000Y-78940000D03*
%TO.P,J5,51*%
X49270000Y-78140000D03*
%TO.P,J5,52*%
%TO.N,SIPM_K23*%
X43540000Y-78140000D03*
%TO.P,J5,53*%
%TO.N,SIPM_K15*%
X49270000Y-77340000D03*
%TO.P,J5,54*%
%TO.N,GNDA*%
X43540000Y-77340000D03*
%TO.P,J5,55*%
X49270000Y-76540000D03*
%TO.P,J5,56*%
%TO.N,SIPM_K22*%
X43540000Y-76540000D03*
%TO.P,J5,57*%
%TO.N,GNDA*%
X49270000Y-75740000D03*
%TO.P,J5,58*%
X43540000Y-75740000D03*
%TO.P,J5,59*%
X49270000Y-74940000D03*
%TO.P,J5,60*%
%TO.N,SIPM_K21*%
X43540000Y-74940000D03*
%TO.P,J5,61*%
%TO.N,GNDA*%
X49270000Y-74140000D03*
%TO.P,J5,62*%
X43540000Y-74140000D03*
%TO.P,J5,63*%
X49270000Y-73340000D03*
%TO.P,J5,64*%
%TO.N,SIPM_K20*%
X43540000Y-73340000D03*
%TO.P,J5,65*%
%TO.N,GNDA*%
X49270000Y-72540000D03*
%TO.P,J5,66*%
X43540000Y-72540000D03*
%TO.P,J5,67*%
X49270000Y-71740000D03*
%TO.P,J5,68*%
%TO.N,SIPM_K19*%
X43540000Y-71740000D03*
%TO.P,J5,69*%
%TO.N,GNDA*%
X49270000Y-70940000D03*
%TO.P,J5,70*%
X43540000Y-70940000D03*
%TO.P,J5,71*%
X49270000Y-70140000D03*
%TO.P,J5,72*%
%TO.N,SIPM_K18*%
X43540000Y-70140000D03*
%TO.P,J5,73*%
%TO.N,GNDA*%
X49270000Y-69340000D03*
%TO.P,J5,74*%
X43540000Y-69340000D03*
%TO.P,J5,75*%
X49270000Y-68540000D03*
%TO.P,J5,76*%
%TO.N,SIPM_K17*%
X43540000Y-68540000D03*
%TO.P,J5,77*%
%TO.N,THERM4*%
X49270000Y-67740000D03*
%TO.P,J5,78*%
%TO.N,GNDA*%
X43540000Y-67740000D03*
%TO.P,J5,79*%
%TO.N,THERM5*%
X49270000Y-66940000D03*
%TO.P,J5,80*%
%TO.N,SIPM_K16*%
X43540000Y-66940000D03*
D14*
%TO.P,J5,G1*%
%TO.N,GNDA*%
X46405000Y-102605000D03*
D15*
%TO.P,J5,G2*%
X46405000Y-97715000D03*
%TO.P,J5,G3*%
X46405000Y-91365000D03*
D14*
%TO.P,J5,G4*%
X46405000Y-86475000D03*
%TO.P,J5,G5*%
X46405000Y-82605000D03*
D15*
%TO.P,J5,G6*%
X46405000Y-77715000D03*
%TO.P,J5,G7*%
X46405000Y-71365000D03*
D14*
%TO.P,J5,G8*%
X46405000Y-66475000D03*
%TD*%
D10*
%TO.P,K11,1*%
%TO.N,SIPM_K11*%
X75270000Y-89540000D03*
D11*
%TO.P,K11,2*%
%TO.N,GNDA*%
X72730000Y-92080000D03*
X77810000Y-92080000D03*
X72730000Y-87000000D03*
X77810000Y-87000000D03*
%TD*%
D10*
%TO.P,K0,1*%
%TO.N,SIPM_K0*%
X75270000Y-119540000D03*
D11*
%TO.P,K0,2*%
%TO.N,GNDA*%
X72730000Y-122080000D03*
X77810000Y-122080000D03*
X72730000Y-117000000D03*
X77810000Y-117000000D03*
%TD*%
D12*
%TO.P,K18,1*%
%TO.N,SIPM_K18*%
X17540000Y-44540000D03*
D11*
%TO.P,K18,2*%
%TO.N,GNDA*%
X20080000Y-42000000D03*
X15000000Y-42000000D03*
X20080000Y-47080000D03*
X15000000Y-47080000D03*
%TD*%
D12*
%TO.P,K19,1*%
%TO.N,SIPM_K19*%
X17540000Y-54540000D03*
D11*
%TO.P,K19,2*%
%TO.N,GNDA*%
X20080000Y-52000000D03*
X15000000Y-52000000D03*
X20080000Y-57080000D03*
X15000000Y-57080000D03*
%TD*%
D12*
%TO.P,K5,1*%
%TO.N,SIPM_K5*%
X17540000Y-124540000D03*
D11*
%TO.P,K5,2*%
%TO.N,GNDA*%
X20080000Y-122000000D03*
X15000000Y-122000000D03*
X20080000Y-127080000D03*
X15000000Y-127080000D03*
%TD*%
D12*
%TO.P,K17,1*%
%TO.N,SIPM_K17*%
X17540000Y-34540000D03*
D11*
%TO.P,K17,2*%
%TO.N,GNDA*%
X20080000Y-32000000D03*
X15000000Y-32000000D03*
X20080000Y-37080000D03*
X15000000Y-37080000D03*
%TD*%
D10*
%TO.P,K13,1*%
%TO.N,SIPM_K13*%
X75270000Y-69540000D03*
D11*
%TO.P,K13,2*%
%TO.N,GNDA*%
X72730000Y-72080000D03*
X77810000Y-72080000D03*
X72730000Y-67000000D03*
X77810000Y-67000000D03*
%TD*%
D10*
%TO.P,K22,1*%
%TO.N,SIPM_K22*%
X75270000Y-29540000D03*
D11*
%TO.P,K22,2*%
%TO.N,GNDA*%
X72730000Y-32080000D03*
X77810000Y-32080000D03*
X72730000Y-27000000D03*
X77810000Y-27000000D03*
%TD*%
D12*
%TO.P,K6,1*%
%TO.N,SIPM_K6*%
X17540000Y-134540000D03*
D11*
%TO.P,K6,2*%
%TO.N,GNDA*%
X20080000Y-132000000D03*
X15000000Y-132000000D03*
X20080000Y-137080000D03*
X15000000Y-137080000D03*
%TD*%
D10*
%TO.P,K23,1*%
%TO.N,SIPM_K23*%
X75270000Y-49540000D03*
D11*
%TO.P,K23,2*%
%TO.N,GNDA*%
X72730000Y-52080000D03*
X77810000Y-52080000D03*
X72730000Y-47000000D03*
X77810000Y-47000000D03*
%TD*%
D16*
%TO.N,SIPM_K1*%
X41540000Y-92540000D03*
%TO.N,GNDA*%
X47925000Y-12925000D03*
X65925000Y-12925000D03*
X71925000Y-156155000D03*
X41925000Y-12925000D03*
X53925000Y-156155000D03*
X35925000Y-156155000D03*
X65925000Y-156155000D03*
X53925000Y-12925000D03*
X23925000Y-12925000D03*
X23925000Y-156155000D03*
X59925000Y-156155000D03*
X29925000Y-12925000D03*
X59925000Y-12925000D03*
X71925000Y-12925000D03*
X11925000Y-12925000D03*
X29925000Y-156155000D03*
X41925000Y-156155000D03*
X47925000Y-156155000D03*
X35925000Y-12925000D03*
X11925000Y-156155000D03*
%TO.N,SIPM_K0*%
X41540000Y-90940000D03*
%TO.N,SIPM_K23*%
X41540000Y-78140000D03*
%TO.N,SIPM_K22*%
X41540000Y-76540000D03*
%TD*%
%TO.N,SIPM_K1*%
D17*
X43540000Y-92540000D02*
X41540000Y-92540000D01*
%TO.N,SIPM_K2*%
X21540000Y-94540000D02*
X17540000Y-94540000D01*
X41540000Y-94140000D02*
X21540000Y-94540000D01*
X43540000Y-94140000D02*
X41540000Y-94140000D01*
%TO.N,SIPM_K20*%
X41540000Y-73340000D02*
X21540000Y-64540000D01*
X21540000Y-64540000D02*
X17540000Y-64540000D01*
X43540000Y-73340000D02*
X41540000Y-73340000D01*
%TO.N,IV*%
X41540000Y-86940000D02*
X21540000Y-84540000D01*
X43540000Y-86940000D02*
X41540000Y-86940000D01*
X21540000Y-84540000D02*
X17540000Y-84540000D01*
X43540000Y-86940000D02*
X43540000Y-82140000D01*
%TO.N,SIPM_K4*%
X21540000Y-114540000D02*
X17540000Y-114540000D01*
X43540000Y-97340000D02*
X41540000Y-97340000D01*
X41540000Y-97340000D02*
X21540000Y-114540000D01*
%TO.N,SIPM_K9*%
X71270000Y-109540000D02*
X75270000Y-109540000D01*
X49270000Y-90140000D02*
X51270000Y-90140000D01*
X51270000Y-90140000D02*
X71270000Y-109540000D01*
%TO.N,SIPM_K14*%
X51270000Y-78940000D02*
X71270000Y-59540000D01*
X71270000Y-59540000D02*
X75270000Y-59540000D01*
X49270000Y-78940000D02*
X51270000Y-78940000D01*
%TO.N,SIPM_K12*%
X49270000Y-82140000D02*
X51270000Y-82140000D01*
X51270000Y-82140000D02*
X71270000Y-79540000D01*
X71270000Y-79540000D02*
X75270000Y-79540000D01*
%TO.N,SIPM_K8*%
X51270000Y-91740000D02*
X71270000Y-129540000D01*
X49270000Y-91740000D02*
X51270000Y-91740000D01*
X71270000Y-129540000D02*
X75270000Y-129540000D01*
%TO.N,SIPM_K21*%
X21540000Y-74540000D02*
X17540000Y-74540000D01*
X43540000Y-74940000D02*
X41540000Y-74940000D01*
X41540000Y-74940000D02*
X21540000Y-74540000D01*
%TO.N,SIPM_K7*%
X43540000Y-102140000D02*
X41540000Y-102140000D01*
X21540000Y-144540000D02*
X17540000Y-144540000D01*
X41540000Y-102140000D02*
X21540000Y-144540000D01*
%TO.N,SIPM_K16*%
X41540000Y-66940000D02*
X21540000Y-24540000D01*
X21540000Y-24540000D02*
X17540000Y-24540000D01*
X43540000Y-66940000D02*
X41540000Y-66940000D01*
%TO.N,SIPM_K3*%
X21540000Y-104540000D02*
X17540000Y-104540000D01*
X43540000Y-95740000D02*
X41540000Y-95740000D01*
X41540000Y-95740000D02*
X21540000Y-104540000D01*
%TO.N,SIPM_K15*%
X71270000Y-39540000D02*
X75270000Y-39540000D01*
X51270000Y-77340000D02*
X71270000Y-39540000D01*
X49270000Y-77340000D02*
X51270000Y-77340000D01*
%TO.N,SIPM_K10*%
X71270000Y-99540000D02*
X75270000Y-99540000D01*
X51270000Y-88540000D02*
X71270000Y-99540000D01*
X49270000Y-88540000D02*
X51270000Y-88540000D01*
%TO.N,SIPM_K6*%
X21540000Y-134540000D02*
X17540000Y-134540000D01*
X41540000Y-100540000D02*
X21540000Y-134540000D01*
X43540000Y-100540000D02*
X41540000Y-100540000D01*
%TO.N,SIPM_K5*%
X41540000Y-98940000D02*
X21540000Y-124540000D01*
X43540000Y-98940000D02*
X41540000Y-98940000D01*
X21540000Y-124540000D02*
X17540000Y-124540000D01*
%TO.N,SIPM_K0*%
X43540000Y-90940000D02*
X41540000Y-90940000D01*
%TO.N,SIPM_K11*%
X71270000Y-89540000D02*
X75270000Y-89540000D01*
X49270000Y-86940000D02*
X51270000Y-86940000D01*
X51270000Y-86940000D02*
X71270000Y-89540000D01*
%TO.N,SIPM_K13*%
X51270000Y-80540000D02*
X71270000Y-69540000D01*
X49270000Y-80540000D02*
X51270000Y-80540000D01*
X71270000Y-69540000D02*
X75270000Y-69540000D01*
%TO.N,SIPM_K23*%
X43540000Y-78140000D02*
X41540000Y-78140000D01*
%TO.N,SIPM_K22*%
X43540000Y-76540000D02*
X41540000Y-76540000D01*
%TO.N,SIPM_K19*%
X41540000Y-71740000D02*
X21540000Y-54540000D01*
X43540000Y-71740000D02*
X41540000Y-71740000D01*
X21540000Y-54540000D02*
X17540000Y-54540000D01*
%TO.N,SIPM_K18*%
X21540000Y-44540000D02*
X17540000Y-44540000D01*
X41540000Y-70140000D02*
X21540000Y-44540000D01*
X43540000Y-70140000D02*
X41540000Y-70140000D01*
%TO.N,SIPM_K17*%
X41540000Y-68540000D02*
X21540000Y-34540000D01*
X43540000Y-68540000D02*
X41540000Y-68540000D01*
X21540000Y-34540000D02*
X17540000Y-34540000D01*
%TD*%
%TA.AperFunction,Conductor*%
%TO.N,GNDA*%
G36*
X83252539Y-10520185D02*
G01*
X83298294Y-10572989D01*
X83309500Y-10624500D01*
X83309500Y-158455500D01*
X83289815Y-158522539D01*
X83237011Y-158568294D01*
X83185500Y-158579500D01*
X9624500Y-158579500D01*
X9557461Y-158559815D01*
X9511706Y-158507011D01*
X9500500Y-158455500D01*
X9500500Y-153958711D01*
X15689500Y-153958711D01*
X15689500Y-154201288D01*
X15721161Y-154441785D01*
X15783947Y-154676104D01*
X15876773Y-154900205D01*
X15876776Y-154900212D01*
X15998064Y-155110289D01*
X15998066Y-155110292D01*
X15998067Y-155110293D01*
X16145733Y-155302736D01*
X16145739Y-155302743D01*
X16317256Y-155474260D01*
X16317262Y-155474265D01*
X16509711Y-155621936D01*
X16719788Y-155743224D01*
X16943900Y-155836054D01*
X17178211Y-155898838D01*
X17358586Y-155922584D01*
X17418711Y-155930500D01*
X17418712Y-155930500D01*
X17661289Y-155930500D01*
X17709388Y-155924167D01*
X17901789Y-155898838D01*
X18136100Y-155836054D01*
X18360212Y-155743224D01*
X18570289Y-155621936D01*
X18762738Y-155474265D01*
X18934265Y-155302738D01*
X19081936Y-155110289D01*
X19203224Y-154900212D01*
X19296054Y-154676100D01*
X19358838Y-154441789D01*
X19390500Y-154201288D01*
X19390500Y-153958712D01*
X19390500Y-153958711D01*
X73419500Y-153958711D01*
X73419500Y-154201288D01*
X73451161Y-154441785D01*
X73513947Y-154676104D01*
X73606773Y-154900205D01*
X73606776Y-154900212D01*
X73728064Y-155110289D01*
X73728066Y-155110292D01*
X73728067Y-155110293D01*
X73875733Y-155302736D01*
X73875739Y-155302743D01*
X74047256Y-155474260D01*
X74047262Y-155474265D01*
X74239711Y-155621936D01*
X74449788Y-155743224D01*
X74673900Y-155836054D01*
X74908211Y-155898838D01*
X75088586Y-155922584D01*
X75148711Y-155930500D01*
X75148712Y-155930500D01*
X75391289Y-155930500D01*
X75439388Y-155924167D01*
X75631789Y-155898838D01*
X75866100Y-155836054D01*
X76090212Y-155743224D01*
X76300289Y-155621936D01*
X76492738Y-155474265D01*
X76664265Y-155302738D01*
X76811936Y-155110289D01*
X76933224Y-154900212D01*
X77026054Y-154676100D01*
X77088838Y-154441789D01*
X77120500Y-154201288D01*
X77120500Y-153958712D01*
X77088838Y-153718211D01*
X77026054Y-153483900D01*
X76933224Y-153259788D01*
X76811936Y-153049711D01*
X76664265Y-152857262D01*
X76664260Y-152857256D01*
X76492743Y-152685739D01*
X76492736Y-152685733D01*
X76300293Y-152538067D01*
X76300292Y-152538066D01*
X76300289Y-152538064D01*
X76090212Y-152416776D01*
X76090205Y-152416773D01*
X75866104Y-152323947D01*
X75631785Y-152261161D01*
X75391289Y-152229500D01*
X75391288Y-152229500D01*
X75148712Y-152229500D01*
X75148711Y-152229500D01*
X74908214Y-152261161D01*
X74673895Y-152323947D01*
X74449794Y-152416773D01*
X74449785Y-152416777D01*
X74239706Y-152538067D01*
X74047263Y-152685733D01*
X74047256Y-152685739D01*
X73875739Y-152857256D01*
X73875733Y-152857263D01*
X73728067Y-153049706D01*
X73606777Y-153259785D01*
X73606773Y-153259794D01*
X73513947Y-153483895D01*
X73451161Y-153718214D01*
X73419500Y-153958711D01*
X19390500Y-153958711D01*
X19358838Y-153718211D01*
X19296054Y-153483900D01*
X19203224Y-153259788D01*
X19081936Y-153049711D01*
X18934265Y-152857262D01*
X18934260Y-152857256D01*
X18762743Y-152685739D01*
X18762736Y-152685733D01*
X18570293Y-152538067D01*
X18570292Y-152538066D01*
X18570289Y-152538064D01*
X18360212Y-152416776D01*
X18360205Y-152416773D01*
X18136104Y-152323947D01*
X17901785Y-152261161D01*
X17661289Y-152229500D01*
X17661288Y-152229500D01*
X17418712Y-152229500D01*
X17418711Y-152229500D01*
X17178214Y-152261161D01*
X16943895Y-152323947D01*
X16719794Y-152416773D01*
X16719785Y-152416777D01*
X16509706Y-152538067D01*
X16317263Y-152685733D01*
X16317256Y-152685739D01*
X16145739Y-152857256D01*
X16145733Y-152857263D01*
X15998067Y-153049706D01*
X15876777Y-153259785D01*
X15876773Y-153259794D01*
X15783947Y-153483895D01*
X15721161Y-153718214D01*
X15689500Y-153958711D01*
X9500500Y-153958711D01*
X9500500Y-123542217D01*
X16089500Y-123542217D01*
X16089500Y-123542224D01*
X16089500Y-123542225D01*
X16089500Y-125537780D01*
X16089501Y-125537786D01*
X16095909Y-125597402D01*
X16095910Y-125597404D01*
X16146216Y-125732279D01*
X16232482Y-125847518D01*
X16347721Y-125933784D01*
X16347725Y-125933785D01*
X16347726Y-125933786D01*
X16482587Y-125984087D01*
X16482590Y-125984088D01*
X16482596Y-125984090D01*
X16542217Y-125990500D01*
X18537782Y-125990499D01*
X18597404Y-125984090D01*
X18732279Y-125933784D01*
X18847518Y-125847518D01*
X18933784Y-125732279D01*
X18984090Y-125597404D01*
X18990500Y-125537783D01*
X18990500Y-125134500D01*
X19010185Y-125067461D01*
X19062989Y-125021706D01*
X19114500Y-125010500D01*
X21507104Y-125010500D01*
X21535869Y-125014542D01*
X21568784Y-125010500D01*
X21601943Y-125010500D01*
X21601944Y-125010500D01*
X21609990Y-125008343D01*
X21621615Y-125005227D01*
X21638598Y-125001925D01*
X21658831Y-124999442D01*
X21689579Y-124987017D01*
X21721606Y-124978436D01*
X21746762Y-124963912D01*
X21773694Y-124953030D01*
X21794122Y-124937634D01*
X21806734Y-124929287D01*
X21828894Y-124916494D01*
X21843301Y-124902086D01*
X21856354Y-124890738D01*
X21872631Y-124878473D01*
X21893045Y-124852342D01*
X21916494Y-124828894D01*
X21931017Y-124803738D01*
X40160871Y-101469524D01*
X40217653Y-101428816D01*
X40287433Y-101425269D01*
X40348053Y-101460010D01*
X40380268Y-101522010D01*
X40373848Y-101591584D01*
X40365464Y-101608736D01*
X26023253Y-125990499D01*
X21581067Y-133542217D01*
X21306859Y-134008370D01*
X21255902Y-134056174D01*
X21199979Y-134069500D01*
X19114499Y-134069500D01*
X19047460Y-134049815D01*
X19001705Y-133997011D01*
X18990499Y-133945500D01*
X18990499Y-133542219D01*
X18990498Y-133542213D01*
X18984090Y-133482597D01*
X18984090Y-133482596D01*
X18933784Y-133347721D01*
X18847518Y-133232482D01*
X18732279Y-133146216D01*
X18732276Y-133146215D01*
X18732273Y-133146213D01*
X18597412Y-133095912D01*
X18597409Y-133095911D01*
X18597405Y-133095910D01*
X18597404Y-133095910D01*
X18537783Y-133089500D01*
X18537773Y-133089500D01*
X16542219Y-133089500D01*
X16542213Y-133089501D01*
X16482597Y-133095909D01*
X16347721Y-133146216D01*
X16232482Y-133232482D01*
X16146216Y-133347721D01*
X16146213Y-133347726D01*
X16095912Y-133482587D01*
X16095911Y-133482590D01*
X16095910Y-133482594D01*
X16095910Y-133482596D01*
X16089500Y-133542217D01*
X16089500Y-133542224D01*
X16089500Y-133542225D01*
X16089500Y-135537780D01*
X16089501Y-135537786D01*
X16095909Y-135597402D01*
X16095910Y-135597404D01*
X16146216Y-135732279D01*
X16232482Y-135847518D01*
X16347721Y-135933784D01*
X16347725Y-135933785D01*
X16347726Y-135933786D01*
X16482587Y-135984087D01*
X16482590Y-135984088D01*
X16482596Y-135984090D01*
X16542217Y-135990500D01*
X18537782Y-135990499D01*
X18597404Y-135984090D01*
X18732279Y-135933784D01*
X18847518Y-135847518D01*
X18933784Y-135732279D01*
X18984090Y-135597404D01*
X18990500Y-135537783D01*
X18990500Y-135134500D01*
X19010185Y-135067461D01*
X19062989Y-135021706D01*
X19114500Y-135010500D01*
X21538084Y-135010500D01*
X21598118Y-135010988D01*
X21600000Y-135010500D01*
X21601943Y-135010500D01*
X21659635Y-134995040D01*
X21660118Y-134994913D01*
X21718038Y-134979898D01*
X21718050Y-134979890D01*
X21720163Y-134979037D01*
X21720163Y-134979036D01*
X21720171Y-134979034D01*
X21721505Y-134978493D01*
X21721601Y-134978437D01*
X21721606Y-134978436D01*
X21773595Y-134948419D01*
X21825825Y-134918828D01*
X21827200Y-134917473D01*
X21828885Y-134916501D01*
X21828889Y-134916496D01*
X21828894Y-134916494D01*
X21871107Y-134874279D01*
X21871573Y-134873816D01*
X21914134Y-134831944D01*
X21914137Y-134831938D01*
X21915593Y-134830073D01*
X21915613Y-134830047D01*
X21916439Y-134828987D01*
X21916490Y-134828897D01*
X21916494Y-134828894D01*
X21946321Y-134777230D01*
X21946690Y-134776597D01*
X39132998Y-105559873D01*
X39183953Y-105512071D01*
X39252666Y-105499406D01*
X39317317Y-105525900D01*
X39357382Y-105583142D01*
X39360139Y-105652957D01*
X39352026Y-105675646D01*
X21275255Y-143998401D01*
X21228851Y-144050636D01*
X21163105Y-144069500D01*
X19114499Y-144069500D01*
X19047460Y-144049815D01*
X19001705Y-143997011D01*
X18990499Y-143945500D01*
X18990499Y-143542219D01*
X18990498Y-143542213D01*
X18984090Y-143482597D01*
X18984090Y-143482596D01*
X18933784Y-143347721D01*
X18847518Y-143232482D01*
X18732279Y-143146216D01*
X18732276Y-143146215D01*
X18732273Y-143146213D01*
X18597412Y-143095912D01*
X18597409Y-143095911D01*
X18597405Y-143095910D01*
X18597404Y-143095910D01*
X18537783Y-143089500D01*
X18537773Y-143089500D01*
X16542219Y-143089500D01*
X16542213Y-143089501D01*
X16482597Y-143095909D01*
X16347721Y-143146216D01*
X16232482Y-143232482D01*
X16146216Y-143347721D01*
X16146213Y-143347726D01*
X16095912Y-143482587D01*
X16095911Y-143482590D01*
X16095910Y-143482594D01*
X16095910Y-143482596D01*
X16089500Y-143542217D01*
X16089500Y-143542224D01*
X16089500Y-143542225D01*
X16089500Y-145537780D01*
X16089501Y-145537786D01*
X16095909Y-145597402D01*
X16095910Y-145597404D01*
X16146216Y-145732279D01*
X16232482Y-145847518D01*
X16347721Y-145933784D01*
X16347725Y-145933785D01*
X16347726Y-145933786D01*
X16482587Y-145984087D01*
X16482590Y-145984088D01*
X16482596Y-145984090D01*
X16542217Y-145990500D01*
X18537782Y-145990499D01*
X18597404Y-145984090D01*
X18732279Y-145933784D01*
X18847518Y-145847518D01*
X18933784Y-145732279D01*
X18984090Y-145597404D01*
X18990500Y-145537783D01*
X18990500Y-145134500D01*
X19010185Y-145067461D01*
X19062989Y-145021706D01*
X19114500Y-145010500D01*
X21497789Y-145010500D01*
X21517205Y-145014012D01*
X21559502Y-145010500D01*
X21601943Y-145010500D01*
X21610246Y-145008274D01*
X21632085Y-145004472D01*
X21640665Y-145003761D01*
X21680616Y-144989419D01*
X21721606Y-144978436D01*
X21738692Y-144968571D01*
X21757265Y-144961904D01*
X21787920Y-144940639D01*
X21796561Y-144935160D01*
X21828894Y-144916494D01*
X21842848Y-144902539D01*
X21859059Y-144891295D01*
X21886478Y-144858909D01*
X21916494Y-144828894D01*
X21920797Y-144821441D01*
X21926361Y-144811802D01*
X21939109Y-144796747D01*
X21957214Y-144758362D01*
X21978436Y-144721606D01*
X21980663Y-144713291D01*
X21988284Y-144692493D01*
X24889358Y-138542217D01*
X73819500Y-138542217D01*
X73819500Y-138542224D01*
X73819500Y-138542225D01*
X73819500Y-140537780D01*
X73819501Y-140537786D01*
X73825909Y-140597402D01*
X73825910Y-140597404D01*
X73876216Y-140732279D01*
X73962482Y-140847518D01*
X74077721Y-140933784D01*
X74077725Y-140933785D01*
X74077726Y-140933786D01*
X74212587Y-140984087D01*
X74212590Y-140984088D01*
X74212596Y-140984090D01*
X74272217Y-140990500D01*
X76267782Y-140990499D01*
X76327404Y-140984090D01*
X76462279Y-140933784D01*
X76577518Y-140847518D01*
X76663784Y-140732279D01*
X76714090Y-140597404D01*
X76720500Y-140537783D01*
X76720499Y-138542218D01*
X76714090Y-138482596D01*
X76663784Y-138347721D01*
X76577518Y-138232482D01*
X76462279Y-138146216D01*
X76462276Y-138146215D01*
X76462273Y-138146213D01*
X76327412Y-138095912D01*
X76327409Y-138095911D01*
X76327405Y-138095910D01*
X76327404Y-138095910D01*
X76267783Y-138089500D01*
X76267773Y-138089500D01*
X74272219Y-138089500D01*
X74272213Y-138089501D01*
X74212597Y-138095909D01*
X74077721Y-138146216D01*
X73962482Y-138232482D01*
X73876216Y-138347721D01*
X73876213Y-138347726D01*
X73825912Y-138482587D01*
X73825911Y-138482590D01*
X73825910Y-138482594D01*
X73825910Y-138482596D01*
X73819500Y-138542217D01*
X24889358Y-138542217D01*
X36433658Y-114068303D01*
X40932814Y-104530092D01*
X42974500Y-104530092D01*
X42974500Y-104679907D01*
X43003723Y-104826822D01*
X43003725Y-104826830D01*
X43061051Y-104965229D01*
X43061056Y-104965238D01*
X43144280Y-105089790D01*
X43144283Y-105089794D01*
X43250205Y-105195716D01*
X43250209Y-105195719D01*
X43374761Y-105278943D01*
X43374767Y-105278946D01*
X43374768Y-105278947D01*
X43513170Y-105336275D01*
X43660092Y-105365499D01*
X43660096Y-105365500D01*
X43660097Y-105365500D01*
X43809904Y-105365500D01*
X43809905Y-105365499D01*
X43956830Y-105336275D01*
X44095232Y-105278947D01*
X44219791Y-105195719D01*
X44325719Y-105089791D01*
X44408947Y-104965232D01*
X44466275Y-104826830D01*
X44495500Y-104679903D01*
X44495500Y-104530097D01*
X44466275Y-104383170D01*
X44408947Y-104244768D01*
X44408946Y-104244767D01*
X44408943Y-104244761D01*
X44325719Y-104120209D01*
X44325716Y-104120205D01*
X44219794Y-104014283D01*
X44219790Y-104014280D01*
X44095238Y-103931056D01*
X44095229Y-103931051D01*
X43956830Y-103873725D01*
X43956822Y-103873723D01*
X43809907Y-103844500D01*
X43809903Y-103844500D01*
X43660097Y-103844500D01*
X43660092Y-103844500D01*
X43513177Y-103873723D01*
X43513169Y-103873725D01*
X43374770Y-103931051D01*
X43374761Y-103931056D01*
X43250209Y-104014280D01*
X43250205Y-104014283D01*
X43144283Y-104120205D01*
X43144280Y-104120209D01*
X43061056Y-104244761D01*
X43061051Y-104244770D01*
X43003725Y-104383169D01*
X43003723Y-104383177D01*
X42974500Y-104530092D01*
X40932814Y-104530092D01*
X40960639Y-104471104D01*
X41804745Y-102681599D01*
X41851149Y-102629364D01*
X41916895Y-102610500D01*
X42236185Y-102610500D01*
X42286270Y-102621064D01*
X42335009Y-102642585D01*
X42360135Y-102645500D01*
X44719864Y-102645499D01*
X44719879Y-102645497D01*
X44719882Y-102645497D01*
X44744987Y-102642586D01*
X44744988Y-102642585D01*
X44744991Y-102642585D01*
X44847765Y-102597206D01*
X44927206Y-102517765D01*
X44972585Y-102414991D01*
X44975500Y-102389865D01*
X44975499Y-101890136D01*
X44975497Y-101890117D01*
X44972586Y-101865012D01*
X44972585Y-101865010D01*
X44972585Y-101865009D01*
X44927206Y-101762235D01*
X44847765Y-101682794D01*
X44809703Y-101665988D01*
X44744992Y-101637415D01*
X44719865Y-101634500D01*
X42360143Y-101634500D01*
X42360117Y-101634502D01*
X42335012Y-101637413D01*
X42335010Y-101637414D01*
X42286270Y-101658935D01*
X42236185Y-101669500D01*
X41638257Y-101669500D01*
X41571218Y-101649815D01*
X41525463Y-101597011D01*
X41515519Y-101527853D01*
X41531377Y-101482629D01*
X41773142Y-101071629D01*
X41824099Y-101023826D01*
X41880022Y-101010500D01*
X42236185Y-101010500D01*
X42286270Y-101021064D01*
X42335009Y-101042585D01*
X42360135Y-101045500D01*
X44719864Y-101045499D01*
X44719879Y-101045497D01*
X44719882Y-101045497D01*
X44744987Y-101042586D01*
X44744988Y-101042585D01*
X44744991Y-101042585D01*
X44847765Y-100997206D01*
X44927206Y-100917765D01*
X44972585Y-100814991D01*
X44975500Y-100789865D01*
X44975499Y-100290136D01*
X44975497Y-100290117D01*
X44972586Y-100265012D01*
X44972585Y-100265010D01*
X44972585Y-100265009D01*
X44927206Y-100162235D01*
X44847765Y-100082794D01*
X44816552Y-100069012D01*
X44744992Y-100037415D01*
X44719865Y-100034500D01*
X42360143Y-100034500D01*
X42360117Y-100034502D01*
X42335012Y-100037413D01*
X42335010Y-100037414D01*
X42286270Y-100058935D01*
X42236185Y-100069500D01*
X41542432Y-100069500D01*
X41541426Y-100069496D01*
X41540548Y-100069488D01*
X41508071Y-100069224D01*
X41441194Y-100048993D01*
X41395871Y-99995818D01*
X41386492Y-99926581D01*
X41411365Y-99868891D01*
X41732250Y-99458160D01*
X41789035Y-99417450D01*
X41829965Y-99410500D01*
X42236185Y-99410500D01*
X42286270Y-99421064D01*
X42335009Y-99442585D01*
X42360135Y-99445500D01*
X44719864Y-99445499D01*
X44719879Y-99445497D01*
X44719882Y-99445497D01*
X44744987Y-99442586D01*
X44744988Y-99442585D01*
X44744991Y-99442585D01*
X44847765Y-99397206D01*
X44927206Y-99317765D01*
X44972585Y-99214991D01*
X44975500Y-99189865D01*
X44975499Y-98690136D01*
X44973890Y-98676261D01*
X44972586Y-98665012D01*
X44972585Y-98665010D01*
X44972585Y-98665009D01*
X44927206Y-98562235D01*
X44847765Y-98482794D01*
X44834681Y-98477017D01*
X44744992Y-98437415D01*
X44719865Y-98434500D01*
X42360143Y-98434500D01*
X42360117Y-98434502D01*
X42335012Y-98437413D01*
X42335010Y-98437414D01*
X42286270Y-98458935D01*
X42236185Y-98469500D01*
X41572896Y-98469500D01*
X41544131Y-98465458D01*
X41511217Y-98469500D01*
X41478055Y-98469500D01*
X41458372Y-98474774D01*
X41441398Y-98478073D01*
X41421175Y-98480556D01*
X41421169Y-98480558D01*
X41397449Y-98490142D01*
X41397448Y-98490141D01*
X41390408Y-98492985D01*
X41358394Y-98501564D01*
X41333246Y-98516081D01*
X41325217Y-98519326D01*
X41325210Y-98519330D01*
X41306305Y-98526969D01*
X41285874Y-98542365D01*
X41279821Y-98546926D01*
X41251106Y-98563506D01*
X41230571Y-98584039D01*
X41223648Y-98589257D01*
X41207375Y-98601521D01*
X41207369Y-98601526D01*
X41191623Y-98621678D01*
X41191624Y-98621679D01*
X41186954Y-98627657D01*
X41163506Y-98651106D01*
X41148982Y-98676259D01*
X41143645Y-98683092D01*
X21347750Y-124021840D01*
X21290966Y-124062550D01*
X21250035Y-124069500D01*
X19114499Y-124069500D01*
X19047460Y-124049815D01*
X19001705Y-123997011D01*
X18990499Y-123945500D01*
X18990499Y-123542219D01*
X18990498Y-123542213D01*
X18984090Y-123482597D01*
X18984090Y-123482596D01*
X18933784Y-123347721D01*
X18847518Y-123232482D01*
X18732279Y-123146216D01*
X18732276Y-123146215D01*
X18732273Y-123146213D01*
X18597412Y-123095912D01*
X18597409Y-123095911D01*
X18597405Y-123095910D01*
X18597404Y-123095910D01*
X18537783Y-123089500D01*
X18537773Y-123089500D01*
X16542219Y-123089500D01*
X16542213Y-123089501D01*
X16482597Y-123095909D01*
X16347721Y-123146216D01*
X16232482Y-123232482D01*
X16146216Y-123347721D01*
X16146213Y-123347726D01*
X16095912Y-123482587D01*
X16095911Y-123482590D01*
X16095910Y-123482594D01*
X16095910Y-123482596D01*
X16089500Y-123542217D01*
X9500500Y-123542217D01*
X9500500Y-113542217D01*
X16089500Y-113542217D01*
X16089500Y-113542224D01*
X16089500Y-113542225D01*
X16089500Y-115537780D01*
X16089501Y-115537786D01*
X16095909Y-115597402D01*
X16095910Y-115597404D01*
X16146216Y-115732279D01*
X16232482Y-115847518D01*
X16347721Y-115933784D01*
X16347725Y-115933785D01*
X16347726Y-115933786D01*
X16482587Y-115984087D01*
X16482590Y-115984088D01*
X16482596Y-115984090D01*
X16542217Y-115990500D01*
X18537782Y-115990499D01*
X18597404Y-115984090D01*
X18732279Y-115933784D01*
X18847518Y-115847518D01*
X18933784Y-115732279D01*
X18984090Y-115597404D01*
X18990500Y-115537783D01*
X18990500Y-115134500D01*
X19010185Y-115067461D01*
X19062989Y-115021706D01*
X19114500Y-115010500D01*
X21522317Y-115010500D01*
X21566454Y-115013822D01*
X21584043Y-115010500D01*
X21601943Y-115010500D01*
X21640228Y-115000240D01*
X21649251Y-114998183D01*
X21688187Y-114990830D01*
X21704317Y-114983068D01*
X21721606Y-114978436D01*
X21759938Y-114956304D01*
X21799820Y-114937115D01*
X21804585Y-114933015D01*
X21823453Y-114919635D01*
X21824252Y-114919173D01*
X21828894Y-114916494D01*
X21856918Y-114888468D01*
X21863718Y-114882161D01*
X38543226Y-100537786D01*
X41679623Y-97840485D01*
X41743287Y-97811697D01*
X41760476Y-97810500D01*
X42236185Y-97810500D01*
X42286270Y-97821064D01*
X42335009Y-97842585D01*
X42360135Y-97845500D01*
X44719864Y-97845499D01*
X44719879Y-97845497D01*
X44719882Y-97845497D01*
X44744987Y-97842586D01*
X44744988Y-97842585D01*
X44744991Y-97842585D01*
X44847765Y-97797206D01*
X44927206Y-97717765D01*
X44972585Y-97614991D01*
X44975500Y-97589865D01*
X44975499Y-97090136D01*
X44975497Y-97090117D01*
X44972586Y-97065012D01*
X44972585Y-97065010D01*
X44972585Y-97065009D01*
X44927206Y-96962235D01*
X44847765Y-96882794D01*
X44817657Y-96869500D01*
X44744992Y-96837415D01*
X44719865Y-96834500D01*
X42360143Y-96834500D01*
X42360117Y-96834502D01*
X42335012Y-96837413D01*
X42335010Y-96837414D01*
X42286270Y-96858935D01*
X42236185Y-96869500D01*
X41557683Y-96869500D01*
X41513546Y-96866178D01*
X41495957Y-96869500D01*
X41478053Y-96869500D01*
X41439801Y-96879750D01*
X41435304Y-96880955D01*
X41391813Y-96889170D01*
X41375684Y-96896929D01*
X41364469Y-96899935D01*
X41364468Y-96899934D01*
X41358396Y-96901562D01*
X41324089Y-96921369D01*
X41324088Y-96921368D01*
X41320040Y-96923704D01*
X41280180Y-96942885D01*
X41266615Y-96954550D01*
X41256558Y-96960357D01*
X41256556Y-96960357D01*
X41251110Y-96963502D01*
X41251104Y-96963506D01*
X41223090Y-96991519D01*
X41216266Y-96997849D01*
X21400376Y-114039515D01*
X21336712Y-114068303D01*
X21319523Y-114069500D01*
X19114499Y-114069500D01*
X19047460Y-114049815D01*
X19001705Y-113997011D01*
X18990499Y-113945500D01*
X18990499Y-113542219D01*
X18990498Y-113542213D01*
X18984090Y-113482597D01*
X18984090Y-113482596D01*
X18933784Y-113347721D01*
X18847518Y-113232482D01*
X18732279Y-113146216D01*
X18732276Y-113146215D01*
X18732273Y-113146213D01*
X18597412Y-113095912D01*
X18597409Y-113095911D01*
X18597405Y-113095910D01*
X18597404Y-113095910D01*
X18537783Y-113089500D01*
X18537773Y-113089500D01*
X16542219Y-113089500D01*
X16542213Y-113089501D01*
X16482597Y-113095909D01*
X16347721Y-113146216D01*
X16232482Y-113232482D01*
X16146216Y-113347721D01*
X16146213Y-113347726D01*
X16095912Y-113482587D01*
X16095911Y-113482590D01*
X16095910Y-113482594D01*
X16095910Y-113482596D01*
X16089500Y-113542217D01*
X9500500Y-113542217D01*
X9500500Y-103542217D01*
X16089500Y-103542217D01*
X16089500Y-103542224D01*
X16089500Y-103542225D01*
X16089500Y-105537780D01*
X16089501Y-105537786D01*
X16095909Y-105597402D01*
X16095910Y-105597404D01*
X16146216Y-105732279D01*
X16232482Y-105847518D01*
X16347721Y-105933784D01*
X16347725Y-105933785D01*
X16347726Y-105933786D01*
X16482587Y-105984087D01*
X16482590Y-105984088D01*
X16482596Y-105984090D01*
X16542217Y-105990500D01*
X18537782Y-105990499D01*
X18597404Y-105984090D01*
X18732279Y-105933784D01*
X18847518Y-105847518D01*
X18933784Y-105732279D01*
X18984090Y-105597404D01*
X18990500Y-105537783D01*
X18990500Y-105134500D01*
X19010185Y-105067461D01*
X19062989Y-105021706D01*
X19114500Y-105010500D01*
X21514311Y-105010500D01*
X21550348Y-105014447D01*
X21575994Y-105010500D01*
X21601943Y-105010500D01*
X21630417Y-105002869D01*
X21643648Y-105000088D01*
X21656242Y-104998149D01*
X21672791Y-104995603D01*
X21696545Y-104985151D01*
X21721606Y-104978436D01*
X21752998Y-104960311D01*
X41615067Y-96221000D01*
X41665007Y-96210500D01*
X42236185Y-96210500D01*
X42286270Y-96221064D01*
X42335009Y-96242585D01*
X42360135Y-96245500D01*
X44719864Y-96245499D01*
X44719879Y-96245497D01*
X44719882Y-96245497D01*
X44744987Y-96242586D01*
X44744988Y-96242585D01*
X44744991Y-96242585D01*
X44847765Y-96197206D01*
X44927206Y-96117765D01*
X44972585Y-96014991D01*
X44975500Y-95989865D01*
X44975499Y-95490136D01*
X44975497Y-95490117D01*
X44972586Y-95465012D01*
X44972585Y-95465010D01*
X44972585Y-95465009D01*
X44927206Y-95362235D01*
X44847765Y-95282794D01*
X44808718Y-95265553D01*
X44744992Y-95237415D01*
X44719865Y-95234500D01*
X42360143Y-95234500D01*
X42360117Y-95234502D01*
X42335012Y-95237413D01*
X42335010Y-95237414D01*
X42286270Y-95258935D01*
X42236185Y-95269500D01*
X41565688Y-95269500D01*
X41529651Y-95265553D01*
X41504006Y-95269500D01*
X41478053Y-95269500D01*
X41449579Y-95277130D01*
X41436354Y-95279911D01*
X41407209Y-95284397D01*
X41392132Y-95291031D01*
X41392131Y-95291030D01*
X41383448Y-95294850D01*
X41358394Y-95301564D01*
X41327008Y-95319683D01*
X41320807Y-95322412D01*
X41320801Y-95322416D01*
X24595386Y-102681599D01*
X21755712Y-103931056D01*
X21464932Y-104058999D01*
X21414992Y-104069500D01*
X19114499Y-104069500D01*
X19047460Y-104049815D01*
X19001705Y-103997011D01*
X18990499Y-103945500D01*
X18990499Y-103542219D01*
X18990498Y-103542213D01*
X18984090Y-103482597D01*
X18984090Y-103482596D01*
X18933784Y-103347721D01*
X18847518Y-103232482D01*
X18732279Y-103146216D01*
X18732276Y-103146215D01*
X18732273Y-103146213D01*
X18597412Y-103095912D01*
X18597409Y-103095911D01*
X18597405Y-103095910D01*
X18597404Y-103095910D01*
X18537783Y-103089500D01*
X18537773Y-103089500D01*
X16542219Y-103089500D01*
X16542213Y-103089501D01*
X16482597Y-103095909D01*
X16347721Y-103146216D01*
X16232482Y-103232482D01*
X16146216Y-103347721D01*
X16146213Y-103347726D01*
X16095912Y-103482587D01*
X16095911Y-103482590D01*
X16095910Y-103482594D01*
X16095910Y-103482596D01*
X16089500Y-103542217D01*
X9500500Y-103542217D01*
X9500500Y-93542217D01*
X16089500Y-93542217D01*
X16089500Y-93542224D01*
X16089500Y-93542225D01*
X16089500Y-95537780D01*
X16089501Y-95537786D01*
X16095909Y-95597402D01*
X16095910Y-95597404D01*
X16146216Y-95732279D01*
X16232482Y-95847518D01*
X16347721Y-95933784D01*
X16347725Y-95933785D01*
X16347726Y-95933786D01*
X16482587Y-95984087D01*
X16482590Y-95984088D01*
X16482596Y-95984090D01*
X16542217Y-95990500D01*
X18537782Y-95990499D01*
X18597404Y-95984090D01*
X18732279Y-95933784D01*
X18847518Y-95847518D01*
X18933784Y-95732279D01*
X18984090Y-95597404D01*
X18990500Y-95537783D01*
X18990500Y-95134500D01*
X19010185Y-95067461D01*
X19062989Y-95021706D01*
X19114500Y-95010500D01*
X21482835Y-95010500D01*
X21487478Y-95011645D01*
X21544728Y-95010500D01*
X21601943Y-95010500D01*
X21601948Y-95010498D01*
X21605360Y-95010049D01*
X21619065Y-95009012D01*
X41543439Y-94610524D01*
X41545919Y-94610500D01*
X42236185Y-94610500D01*
X42286270Y-94621064D01*
X42335009Y-94642585D01*
X42360135Y-94645500D01*
X44719864Y-94645499D01*
X44719879Y-94645497D01*
X44719882Y-94645497D01*
X44744987Y-94642586D01*
X44744988Y-94642585D01*
X44744991Y-94642585D01*
X44847765Y-94597206D01*
X44927206Y-94517765D01*
X44972585Y-94414991D01*
X44975500Y-94389865D01*
X44975499Y-93890136D01*
X44975497Y-93890117D01*
X44972586Y-93865012D01*
X44972585Y-93865010D01*
X44972585Y-93865009D01*
X44927206Y-93762235D01*
X44847765Y-93682794D01*
X44744992Y-93637415D01*
X44719865Y-93634500D01*
X42360143Y-93634500D01*
X42360117Y-93634502D01*
X42335012Y-93637413D01*
X42335010Y-93637414D01*
X42286270Y-93658935D01*
X42236185Y-93669500D01*
X41597166Y-93669500D01*
X41592523Y-93668355D01*
X41535273Y-93669500D01*
X41478057Y-93669500D01*
X41478056Y-93669500D01*
X41474622Y-93669952D01*
X41460929Y-93670986D01*
X21536561Y-94069475D01*
X21534081Y-94069500D01*
X19114499Y-94069500D01*
X19047460Y-94049815D01*
X19001705Y-93997011D01*
X18990499Y-93945500D01*
X18990499Y-93542219D01*
X18990498Y-93542213D01*
X18984090Y-93482597D01*
X18984090Y-93482596D01*
X18933784Y-93347721D01*
X18847518Y-93232482D01*
X18732279Y-93146216D01*
X18732276Y-93146215D01*
X18732273Y-93146213D01*
X18597412Y-93095912D01*
X18597409Y-93095911D01*
X18597405Y-93095910D01*
X18597404Y-93095910D01*
X18537783Y-93089500D01*
X18537773Y-93089500D01*
X16542219Y-93089500D01*
X16542213Y-93089501D01*
X16482597Y-93095909D01*
X16347721Y-93146216D01*
X16232482Y-93232482D01*
X16146216Y-93347721D01*
X16146213Y-93347726D01*
X16095912Y-93482587D01*
X16095911Y-93482590D01*
X16095910Y-93482594D01*
X16095910Y-93482596D01*
X16089500Y-93542217D01*
X9500500Y-93542217D01*
X9500500Y-92460943D01*
X40939500Y-92460943D01*
X40939500Y-92619056D01*
X40980423Y-92771783D01*
X40980426Y-92771790D01*
X41059475Y-92908709D01*
X41059479Y-92908714D01*
X41059480Y-92908716D01*
X41171284Y-93020520D01*
X41171286Y-93020521D01*
X41171290Y-93020524D01*
X41301866Y-93095911D01*
X41308216Y-93099577D01*
X41460943Y-93140500D01*
X41460945Y-93140500D01*
X41619055Y-93140500D01*
X41619057Y-93140500D01*
X41771784Y-93099577D01*
X41819454Y-93072054D01*
X41897298Y-93027113D01*
X41959297Y-93010500D01*
X42236185Y-93010500D01*
X42286270Y-93021064D01*
X42335009Y-93042585D01*
X42360135Y-93045500D01*
X44719864Y-93045499D01*
X44719879Y-93045497D01*
X44719882Y-93045497D01*
X44744987Y-93042586D01*
X44744988Y-93042585D01*
X44744991Y-93042585D01*
X44847765Y-92997206D01*
X44927206Y-92917765D01*
X44972585Y-92814991D01*
X44975500Y-92789865D01*
X44975499Y-92290136D01*
X44973919Y-92276509D01*
X44972586Y-92265012D01*
X44972585Y-92265010D01*
X44972585Y-92265009D01*
X44927206Y-92162235D01*
X44847765Y-92082794D01*
X44794964Y-92059480D01*
X44744992Y-92037415D01*
X44719865Y-92034500D01*
X42360143Y-92034500D01*
X42360117Y-92034502D01*
X42335012Y-92037413D01*
X42335010Y-92037414D01*
X42286270Y-92058935D01*
X42236185Y-92069500D01*
X41959297Y-92069500D01*
X41897298Y-92052887D01*
X41771790Y-91980426D01*
X41771786Y-91980424D01*
X41771784Y-91980423D01*
X41619057Y-91939500D01*
X41460943Y-91939500D01*
X41308216Y-91980423D01*
X41308209Y-91980426D01*
X41171290Y-92059475D01*
X41171282Y-92059481D01*
X41059481Y-92171282D01*
X41059475Y-92171290D01*
X40980426Y-92308209D01*
X40980423Y-92308216D01*
X40939500Y-92460943D01*
X9500500Y-92460943D01*
X9500500Y-90860943D01*
X40939500Y-90860943D01*
X40939500Y-91019057D01*
X40978413Y-91164280D01*
X40980423Y-91171783D01*
X40980426Y-91171790D01*
X41059475Y-91308709D01*
X41059479Y-91308714D01*
X41059480Y-91308716D01*
X41171284Y-91420520D01*
X41171286Y-91420521D01*
X41171290Y-91420524D01*
X41291855Y-91490131D01*
X41308216Y-91499577D01*
X41460943Y-91540500D01*
X41460945Y-91540500D01*
X41619055Y-91540500D01*
X41619057Y-91540500D01*
X41771784Y-91499577D01*
X41819454Y-91472054D01*
X41897298Y-91427113D01*
X41959297Y-91410500D01*
X42236185Y-91410500D01*
X42286270Y-91421064D01*
X42335009Y-91442585D01*
X42360135Y-91445500D01*
X44719864Y-91445499D01*
X44719879Y-91445497D01*
X44719882Y-91445497D01*
X44744987Y-91442586D01*
X44744988Y-91442585D01*
X44744991Y-91442585D01*
X44847765Y-91397206D01*
X44927206Y-91317765D01*
X44972585Y-91214991D01*
X44975500Y-91189865D01*
X44975499Y-90690136D01*
X44975497Y-90690117D01*
X44972586Y-90665012D01*
X44972585Y-90665010D01*
X44972585Y-90665009D01*
X44927206Y-90562235D01*
X44847765Y-90482794D01*
X44794964Y-90459480D01*
X44744992Y-90437415D01*
X44719865Y-90434500D01*
X42360143Y-90434500D01*
X42360117Y-90434502D01*
X42335012Y-90437413D01*
X42335010Y-90437414D01*
X42286270Y-90458935D01*
X42236185Y-90469500D01*
X41959297Y-90469500D01*
X41897298Y-90452887D01*
X41771790Y-90380426D01*
X41771786Y-90380424D01*
X41771784Y-90380423D01*
X41619057Y-90339500D01*
X41460943Y-90339500D01*
X41308216Y-90380423D01*
X41308209Y-90380426D01*
X41171290Y-90459475D01*
X41171282Y-90459481D01*
X41059481Y-90571282D01*
X41059475Y-90571290D01*
X40980426Y-90708209D01*
X40980423Y-90708216D01*
X40939500Y-90860943D01*
X9500500Y-90860943D01*
X9500500Y-89890131D01*
X47834500Y-89890131D01*
X47834500Y-90389856D01*
X47834502Y-90389882D01*
X47837413Y-90414987D01*
X47837415Y-90414991D01*
X47882793Y-90517764D01*
X47882794Y-90517765D01*
X47962235Y-90597206D01*
X48065009Y-90642585D01*
X48090135Y-90645500D01*
X50449864Y-90645499D01*
X50449879Y-90645497D01*
X50449882Y-90645497D01*
X50474987Y-90642586D01*
X50474988Y-90642585D01*
X50474991Y-90642585D01*
X50512824Y-90625879D01*
X50523730Y-90621065D01*
X50573815Y-90610500D01*
X51029035Y-90610500D01*
X51096074Y-90630185D01*
X51115371Y-90645494D01*
X51579241Y-91095448D01*
X51581321Y-91099124D01*
X51584924Y-91101336D01*
X51598384Y-91129271D01*
X51613656Y-91156254D01*
X51613418Y-91160473D01*
X51615253Y-91164280D01*
X51611473Y-91195059D01*
X51609733Y-91226013D01*
X51607253Y-91229432D01*
X51606738Y-91233629D01*
X51586914Y-91257483D01*
X51568718Y-91282578D01*
X51564782Y-91284114D01*
X51562081Y-91287365D01*
X51532511Y-91296713D01*
X51503633Y-91307989D01*
X51498345Y-91307516D01*
X51495462Y-91308428D01*
X51483620Y-91306199D01*
X51460431Y-91304126D01*
X51452152Y-91301879D01*
X51451606Y-91301564D01*
X51402521Y-91288411D01*
X51402025Y-91288277D01*
X51402003Y-91288263D01*
X51398004Y-91287113D01*
X51349279Y-91272108D01*
X51349277Y-91272107D01*
X51340457Y-91271781D01*
X51331943Y-91269500D01*
X51278689Y-91269500D01*
X51268269Y-91269115D01*
X51225479Y-91267534D01*
X51225478Y-91267534D01*
X51225477Y-91267534D01*
X51225475Y-91267534D01*
X51217380Y-91268297D01*
X51217339Y-91267867D01*
X51202880Y-91269500D01*
X50573815Y-91269500D01*
X50523729Y-91258935D01*
X50474991Y-91237415D01*
X50449865Y-91234500D01*
X48090143Y-91234500D01*
X48090117Y-91234502D01*
X48065012Y-91237413D01*
X48065008Y-91237415D01*
X47962235Y-91282793D01*
X47882794Y-91362234D01*
X47837415Y-91465006D01*
X47837415Y-91465008D01*
X47834500Y-91490131D01*
X47834500Y-91989856D01*
X47834502Y-91989882D01*
X47837413Y-92014987D01*
X47837415Y-92014991D01*
X47882793Y-92117764D01*
X47882794Y-92117765D01*
X47962235Y-92197206D01*
X48065009Y-92242585D01*
X48090135Y-92245500D01*
X50449864Y-92245499D01*
X50449879Y-92245497D01*
X50449882Y-92245497D01*
X50474987Y-92242586D01*
X50474988Y-92242585D01*
X50474991Y-92242585D01*
X50512824Y-92225879D01*
X50523730Y-92221065D01*
X50573815Y-92210500D01*
X50911963Y-92210500D01*
X50979002Y-92230185D01*
X51021567Y-92276509D01*
X70478342Y-129049815D01*
X70829281Y-129713088D01*
X70831564Y-129721606D01*
X70858182Y-129767711D01*
X70879588Y-129808168D01*
X70883095Y-129814796D01*
X70887799Y-129821418D01*
X70887448Y-129821667D01*
X70888216Y-129822707D01*
X70888558Y-129822445D01*
X70893505Y-129828892D01*
X70893506Y-129828894D01*
X70931161Y-129866549D01*
X70967398Y-129905567D01*
X70974867Y-129910255D01*
X70981106Y-129916494D01*
X71025252Y-129941981D01*
X71029103Y-129944300D01*
X71072324Y-129971430D01*
X71080757Y-129974027D01*
X71088394Y-129978436D01*
X71139803Y-129992210D01*
X71141997Y-129992886D01*
X71141998Y-129992886D01*
X71141999Y-129992887D01*
X71184621Y-130006013D01*
X71190722Y-130007892D01*
X71191980Y-130007938D01*
X71199542Y-130008217D01*
X71208057Y-130010500D01*
X71261295Y-130010500D01*
X71278879Y-130011149D01*
X71314521Y-130012467D01*
X71314521Y-130012466D01*
X71314523Y-130012467D01*
X71314524Y-130012466D01*
X71322614Y-130011705D01*
X71322654Y-130012133D01*
X71337125Y-130010500D01*
X73695501Y-130010500D01*
X73762540Y-130030185D01*
X73808295Y-130082989D01*
X73819501Y-130134500D01*
X73819501Y-130537786D01*
X73825909Y-130597402D01*
X73825910Y-130597404D01*
X73876216Y-130732279D01*
X73962482Y-130847518D01*
X74077721Y-130933784D01*
X74077725Y-130933785D01*
X74077726Y-130933786D01*
X74212587Y-130984087D01*
X74212590Y-130984088D01*
X74212596Y-130984090D01*
X74272217Y-130990500D01*
X76267782Y-130990499D01*
X76327404Y-130984090D01*
X76462279Y-130933784D01*
X76577518Y-130847518D01*
X76663784Y-130732279D01*
X76714090Y-130597404D01*
X76720500Y-130537783D01*
X76720499Y-128542218D01*
X76714090Y-128482596D01*
X76663784Y-128347721D01*
X76577518Y-128232482D01*
X76462279Y-128146216D01*
X76462276Y-128146215D01*
X76462273Y-128146213D01*
X76327412Y-128095912D01*
X76327409Y-128095911D01*
X76327405Y-128095910D01*
X76327404Y-128095910D01*
X76267783Y-128089500D01*
X76267773Y-128089500D01*
X74272219Y-128089500D01*
X74272213Y-128089501D01*
X74212597Y-128095909D01*
X74077721Y-128146216D01*
X73962482Y-128232482D01*
X73876216Y-128347721D01*
X73876213Y-128347726D01*
X73825912Y-128482587D01*
X73825911Y-128482590D01*
X73825910Y-128482594D01*
X73825910Y-128482596D01*
X73819500Y-128542217D01*
X73819500Y-128542225D01*
X73819500Y-128945500D01*
X73799815Y-129012539D01*
X73747011Y-129058294D01*
X73695500Y-129069500D01*
X71628036Y-129069500D01*
X71560997Y-129049815D01*
X71518432Y-129003491D01*
X66012292Y-118596887D01*
X65983366Y-118542217D01*
X73819500Y-118542217D01*
X73819500Y-118542224D01*
X73819500Y-118542225D01*
X73819500Y-120537780D01*
X73819501Y-120537786D01*
X73825909Y-120597402D01*
X73825910Y-120597404D01*
X73876216Y-120732279D01*
X73962482Y-120847518D01*
X74077721Y-120933784D01*
X74077725Y-120933785D01*
X74077726Y-120933786D01*
X74212587Y-120984087D01*
X74212590Y-120984088D01*
X74212596Y-120984090D01*
X74272217Y-120990500D01*
X76267782Y-120990499D01*
X76327404Y-120984090D01*
X76462279Y-120933784D01*
X76577518Y-120847518D01*
X76663784Y-120732279D01*
X76714090Y-120597404D01*
X76720500Y-120537783D01*
X76720499Y-118542218D01*
X76714090Y-118482596D01*
X76663784Y-118347721D01*
X76577518Y-118232482D01*
X76462279Y-118146216D01*
X76462276Y-118146215D01*
X76462273Y-118146213D01*
X76327412Y-118095912D01*
X76327409Y-118095911D01*
X76327405Y-118095910D01*
X76327404Y-118095910D01*
X76267783Y-118089500D01*
X76267773Y-118089500D01*
X74272219Y-118089500D01*
X74272213Y-118089501D01*
X74212597Y-118095909D01*
X74077721Y-118146216D01*
X73962482Y-118232482D01*
X73876216Y-118347721D01*
X73876213Y-118347726D01*
X73825912Y-118482587D01*
X73825911Y-118482590D01*
X73825910Y-118482594D01*
X73825910Y-118482596D01*
X73819500Y-118542217D01*
X65983366Y-118542217D01*
X65951821Y-118482596D01*
X51717264Y-91579284D01*
X51712782Y-91569876D01*
X51709357Y-91561834D01*
X51708436Y-91558394D01*
X51706366Y-91554809D01*
X51703427Y-91547906D01*
X51700192Y-91520374D01*
X51693655Y-91493444D01*
X51696173Y-91486165D01*
X51695274Y-91478513D01*
X51707436Y-91453606D01*
X51716497Y-91427414D01*
X51722552Y-91422650D01*
X51725932Y-91415729D01*
X51749626Y-91401352D01*
X51771412Y-91384215D01*
X51779080Y-91383481D01*
X51785666Y-91379486D01*
X51813371Y-91380201D01*
X51840964Y-91377563D01*
X51847811Y-91381091D01*
X51855513Y-91381291D01*
X51878435Y-91396874D01*
X51903071Y-91409570D01*
X51903851Y-91410320D01*
X70939139Y-109874547D01*
X70940484Y-109875872D01*
X70981106Y-109916494D01*
X70981108Y-109916495D01*
X70981513Y-109916806D01*
X70981515Y-109916808D01*
X70984695Y-109919248D01*
X70985920Y-109920188D01*
X70986473Y-109920551D01*
X70986868Y-109920844D01*
X70986873Y-109920849D01*
X70986877Y-109920851D01*
X71037015Y-109948789D01*
X71038658Y-109949721D01*
X71088394Y-109978436D01*
X71088397Y-109978437D01*
X71088865Y-109978631D01*
X71088874Y-109978635D01*
X71092556Y-109980160D01*
X71092634Y-109980192D01*
X71094006Y-109980760D01*
X71094614Y-109980961D01*
X71095087Y-109981148D01*
X71095090Y-109981150D01*
X71150823Y-109995177D01*
X71150824Y-109995178D01*
X71151704Y-109995399D01*
X71208057Y-110010500D01*
X71211696Y-110010500D01*
X71215228Y-110011389D01*
X71271811Y-110010527D01*
X71272668Y-110010514D01*
X71274555Y-110010500D01*
X73695501Y-110010500D01*
X73762540Y-110030185D01*
X73808295Y-110082989D01*
X73819501Y-110134500D01*
X73819501Y-110537786D01*
X73825909Y-110597402D01*
X73825910Y-110597404D01*
X73876216Y-110732279D01*
X73962482Y-110847518D01*
X74077721Y-110933784D01*
X74077725Y-110933785D01*
X74077726Y-110933786D01*
X74212587Y-110984087D01*
X74212590Y-110984088D01*
X74212596Y-110984090D01*
X74272217Y-110990500D01*
X76267782Y-110990499D01*
X76327404Y-110984090D01*
X76462279Y-110933784D01*
X76577518Y-110847518D01*
X76663784Y-110732279D01*
X76714090Y-110597404D01*
X76720500Y-110537783D01*
X76720499Y-108542218D01*
X76714090Y-108482596D01*
X76663784Y-108347721D01*
X76577518Y-108232482D01*
X76462279Y-108146216D01*
X76462276Y-108146215D01*
X76462273Y-108146213D01*
X76327412Y-108095912D01*
X76327409Y-108095911D01*
X76327405Y-108095910D01*
X76327404Y-108095910D01*
X76267783Y-108089500D01*
X76267773Y-108089500D01*
X74272219Y-108089500D01*
X74272213Y-108089501D01*
X74212597Y-108095909D01*
X74077721Y-108146216D01*
X73962482Y-108232482D01*
X73876216Y-108347721D01*
X73876213Y-108347726D01*
X73825912Y-108482587D01*
X73825911Y-108482590D01*
X73825910Y-108482594D01*
X73825910Y-108482596D01*
X73819500Y-108542217D01*
X73819500Y-108542225D01*
X73819500Y-108945500D01*
X73799815Y-109012539D01*
X73747011Y-109058294D01*
X73695500Y-109069500D01*
X71510964Y-109069500D01*
X71443925Y-109049815D01*
X71424628Y-109034506D01*
X51600860Y-89805452D01*
X51600859Y-89805451D01*
X51600191Y-89804803D01*
X51558894Y-89763506D01*
X51555740Y-89761685D01*
X51553133Y-89759156D01*
X51553129Y-89759153D01*
X51553127Y-89759151D01*
X51535483Y-89749319D01*
X51502986Y-89731210D01*
X51501350Y-89730282D01*
X51451602Y-89701561D01*
X51451115Y-89701360D01*
X51451105Y-89701356D01*
X51447531Y-89699875D01*
X51447479Y-89699854D01*
X51446008Y-89699244D01*
X51445384Y-89699038D01*
X51444912Y-89698851D01*
X51444909Y-89698850D01*
X51389246Y-89684839D01*
X51387423Y-89684365D01*
X51331940Y-89669499D01*
X51331434Y-89669432D01*
X51331434Y-89669433D01*
X51327422Y-89668905D01*
X51327420Y-89668904D01*
X51327417Y-89668904D01*
X51325930Y-89668708D01*
X51325287Y-89668671D01*
X51324775Y-89668611D01*
X51324771Y-89668611D01*
X51283064Y-89669246D01*
X51267300Y-89669486D01*
X51265414Y-89669500D01*
X50573815Y-89669500D01*
X50523729Y-89658935D01*
X50474991Y-89637415D01*
X50449865Y-89634500D01*
X48090143Y-89634500D01*
X48090117Y-89634502D01*
X48065012Y-89637413D01*
X48065008Y-89637415D01*
X47962235Y-89682793D01*
X47882794Y-89762234D01*
X47837415Y-89865006D01*
X47837415Y-89865008D01*
X47834500Y-89890131D01*
X9500500Y-89890131D01*
X9500500Y-88290131D01*
X47834500Y-88290131D01*
X47834500Y-88789856D01*
X47834502Y-88789882D01*
X47837413Y-88814987D01*
X47837415Y-88814991D01*
X47882793Y-88917764D01*
X47882794Y-88917765D01*
X47962235Y-88997206D01*
X48065009Y-89042585D01*
X48090135Y-89045500D01*
X50449864Y-89045499D01*
X50449879Y-89045497D01*
X50449882Y-89045497D01*
X50474987Y-89042586D01*
X50474988Y-89042585D01*
X50474991Y-89042585D01*
X50512895Y-89025849D01*
X50523730Y-89021065D01*
X50573815Y-89010500D01*
X51117298Y-89010500D01*
X51177056Y-89025849D01*
X53639918Y-90380423D01*
X71038988Y-99949912D01*
X71088394Y-99978436D01*
X71093183Y-99979719D01*
X71097532Y-99982111D01*
X71097536Y-99982112D01*
X71097539Y-99982113D01*
X71151702Y-99995427D01*
X71151703Y-99995427D01*
X71152948Y-99995733D01*
X71208057Y-100010500D01*
X71213018Y-100010500D01*
X71217835Y-100011684D01*
X71273574Y-100010526D01*
X71276148Y-100010500D01*
X73695501Y-100010500D01*
X73762540Y-100030185D01*
X73808295Y-100082989D01*
X73819501Y-100134500D01*
X73819501Y-100537786D01*
X73825909Y-100597402D01*
X73825910Y-100597404D01*
X73876216Y-100732279D01*
X73962482Y-100847518D01*
X74077721Y-100933784D01*
X74077725Y-100933785D01*
X74077726Y-100933786D01*
X74212587Y-100984087D01*
X74212590Y-100984088D01*
X74212596Y-100984090D01*
X74272217Y-100990500D01*
X76267782Y-100990499D01*
X76327404Y-100984090D01*
X76462279Y-100933784D01*
X76577518Y-100847518D01*
X76663784Y-100732279D01*
X76714090Y-100597404D01*
X76720500Y-100537783D01*
X76720499Y-98542218D01*
X76714090Y-98482596D01*
X76663784Y-98347721D01*
X76577518Y-98232482D01*
X76462279Y-98146216D01*
X76462276Y-98146215D01*
X76462273Y-98146213D01*
X76327412Y-98095912D01*
X76327409Y-98095911D01*
X76327405Y-98095910D01*
X76327404Y-98095910D01*
X76267783Y-98089500D01*
X76267773Y-98089500D01*
X74272219Y-98089500D01*
X74272213Y-98089501D01*
X74212597Y-98095909D01*
X74077721Y-98146216D01*
X73962482Y-98232482D01*
X73876216Y-98347721D01*
X73876213Y-98347726D01*
X73825912Y-98482587D01*
X73825911Y-98482590D01*
X73825910Y-98482594D01*
X73825910Y-98482596D01*
X73819500Y-98542217D01*
X73819500Y-98542225D01*
X73819500Y-98945500D01*
X73799815Y-99012539D01*
X73747011Y-99058294D01*
X73695500Y-99069500D01*
X71422702Y-99069500D01*
X71362944Y-99054151D01*
X51502157Y-88130718D01*
X51502157Y-88130717D01*
X51500984Y-88130072D01*
X51451606Y-88101564D01*
X51446814Y-88100280D01*
X51442467Y-88097889D01*
X51434413Y-88095909D01*
X51388313Y-88084576D01*
X51385824Y-88083936D01*
X51331944Y-88069500D01*
X51328041Y-88068985D01*
X51328041Y-88068986D01*
X51326353Y-88068763D01*
X51326083Y-88068749D01*
X51322163Y-88068315D01*
X51266426Y-88069473D01*
X51263852Y-88069500D01*
X50573815Y-88069500D01*
X50523729Y-88058935D01*
X50474991Y-88037415D01*
X50449865Y-88034500D01*
X48090143Y-88034500D01*
X48090117Y-88034502D01*
X48065012Y-88037413D01*
X48065008Y-88037415D01*
X47962235Y-88082793D01*
X47882794Y-88162234D01*
X47837415Y-88265006D01*
X47837415Y-88265008D01*
X47834500Y-88290131D01*
X9500500Y-88290131D01*
X9500500Y-83542217D01*
X16089500Y-83542217D01*
X16089500Y-83542224D01*
X16089500Y-83542225D01*
X16089500Y-85537780D01*
X16089501Y-85537786D01*
X16095909Y-85597402D01*
X16095910Y-85597404D01*
X16146216Y-85732279D01*
X16232482Y-85847518D01*
X16347721Y-85933784D01*
X16347725Y-85933785D01*
X16347726Y-85933786D01*
X16482587Y-85984087D01*
X16482590Y-85984088D01*
X16482596Y-85984090D01*
X16542217Y-85990500D01*
X18537782Y-85990499D01*
X18597404Y-85984090D01*
X18732279Y-85933784D01*
X18847518Y-85847518D01*
X18933784Y-85732279D01*
X18984090Y-85597404D01*
X18990500Y-85537783D01*
X18990500Y-85134500D01*
X19010185Y-85067461D01*
X19062989Y-85021706D01*
X19114500Y-85010500D01*
X21504457Y-85010500D01*
X21519231Y-85011383D01*
X41450633Y-87403151D01*
X41478057Y-87410500D01*
X41511869Y-87410500D01*
X41545444Y-87414529D01*
X41564796Y-87411754D01*
X41582392Y-87410500D01*
X42236185Y-87410500D01*
X42286270Y-87421064D01*
X42335009Y-87442585D01*
X42360135Y-87445500D01*
X44719864Y-87445499D01*
X44719879Y-87445497D01*
X44719882Y-87445497D01*
X44744987Y-87442586D01*
X44744988Y-87442585D01*
X44744991Y-87442585D01*
X44847765Y-87397206D01*
X44927206Y-87317765D01*
X44972585Y-87214991D01*
X44975500Y-87189865D01*
X44975499Y-86690136D01*
X44975499Y-86690135D01*
X44975499Y-86690131D01*
X47834500Y-86690131D01*
X47834500Y-87189856D01*
X47834502Y-87189882D01*
X47837413Y-87214987D01*
X47837415Y-87214991D01*
X47882793Y-87317764D01*
X47882794Y-87317765D01*
X47962235Y-87397206D01*
X48065009Y-87442585D01*
X48090135Y-87445500D01*
X50449864Y-87445499D01*
X50449879Y-87445497D01*
X50449882Y-87445497D01*
X50474987Y-87442586D01*
X50474988Y-87442585D01*
X50474991Y-87442585D01*
X50512824Y-87425879D01*
X50523730Y-87421065D01*
X50573815Y-87410500D01*
X51231519Y-87410500D01*
X51247503Y-87411534D01*
X71178380Y-90002548D01*
X71208057Y-90010500D01*
X71239549Y-90010500D01*
X71247511Y-90011535D01*
X71270770Y-90014559D01*
X71270771Y-90014559D01*
X71270771Y-90014558D01*
X71270772Y-90014559D01*
X71293067Y-90011586D01*
X71309451Y-90010500D01*
X73695501Y-90010500D01*
X73762540Y-90030185D01*
X73808295Y-90082989D01*
X73819501Y-90134500D01*
X73819501Y-90537786D01*
X73825909Y-90597402D01*
X73834735Y-90621065D01*
X73876216Y-90732279D01*
X73962482Y-90847518D01*
X74077721Y-90933784D01*
X74077725Y-90933785D01*
X74077726Y-90933786D01*
X74212587Y-90984087D01*
X74212590Y-90984088D01*
X74212596Y-90984090D01*
X74272217Y-90990500D01*
X76267782Y-90990499D01*
X76327404Y-90984090D01*
X76462279Y-90933784D01*
X76577518Y-90847518D01*
X76663784Y-90732279D01*
X76714090Y-90597404D01*
X76720500Y-90537783D01*
X76720499Y-88542218D01*
X76714090Y-88482596D01*
X76663784Y-88347721D01*
X76577518Y-88232482D01*
X76462279Y-88146216D01*
X76462276Y-88146215D01*
X76462273Y-88146213D01*
X76327412Y-88095912D01*
X76327409Y-88095911D01*
X76327405Y-88095910D01*
X76327404Y-88095910D01*
X76267783Y-88089500D01*
X76267773Y-88089500D01*
X74272219Y-88089500D01*
X74272213Y-88089501D01*
X74212597Y-88095909D01*
X74077721Y-88146216D01*
X73962482Y-88232482D01*
X73876216Y-88347721D01*
X73876213Y-88347726D01*
X73825912Y-88482587D01*
X73825911Y-88482590D01*
X73825910Y-88482594D01*
X73825910Y-88482596D01*
X73819500Y-88542217D01*
X73819500Y-88542225D01*
X73819500Y-88945500D01*
X73799815Y-89012539D01*
X73747011Y-89058294D01*
X73695500Y-89069500D01*
X71308481Y-89069500D01*
X71292496Y-89068465D01*
X71115842Y-89045500D01*
X70085552Y-88911562D01*
X51369780Y-86478511D01*
X51361619Y-86477451D01*
X51331943Y-86469500D01*
X51300451Y-86469500D01*
X51292490Y-86468465D01*
X51269229Y-86465440D01*
X51269228Y-86465440D01*
X51249619Y-86468054D01*
X51246932Y-86468413D01*
X51230549Y-86469500D01*
X50573815Y-86469500D01*
X50523729Y-86458935D01*
X50474991Y-86437415D01*
X50449865Y-86434500D01*
X48090143Y-86434500D01*
X48090117Y-86434502D01*
X48065012Y-86437413D01*
X48065008Y-86437415D01*
X47962235Y-86482793D01*
X47882794Y-86562234D01*
X47837415Y-86665006D01*
X47837415Y-86665008D01*
X47834500Y-86690131D01*
X44975499Y-86690131D01*
X44975499Y-86690130D01*
X44972586Y-86665012D01*
X44972585Y-86665010D01*
X44972585Y-86665009D01*
X44927206Y-86562235D01*
X44847765Y-86482794D01*
X44808462Y-86465440D01*
X44744992Y-86437415D01*
X44719868Y-86434500D01*
X44719865Y-86434500D01*
X44134500Y-86434500D01*
X44067461Y-86414815D01*
X44021706Y-86362011D01*
X44010500Y-86310500D01*
X44010500Y-82769499D01*
X44030185Y-82702460D01*
X44082989Y-82656705D01*
X44134500Y-82645499D01*
X44719856Y-82645499D01*
X44719864Y-82645499D01*
X44719879Y-82645497D01*
X44719882Y-82645497D01*
X44744987Y-82642586D01*
X44744988Y-82642585D01*
X44744991Y-82642585D01*
X44847765Y-82597206D01*
X44927206Y-82517765D01*
X44972585Y-82414991D01*
X44975500Y-82389865D01*
X44975499Y-81890136D01*
X44975499Y-81890135D01*
X44975499Y-81890131D01*
X47834500Y-81890131D01*
X47834500Y-82389856D01*
X47834502Y-82389882D01*
X47837413Y-82414987D01*
X47837415Y-82414991D01*
X47882793Y-82517764D01*
X47882794Y-82517765D01*
X47962235Y-82597206D01*
X48065009Y-82642585D01*
X48090135Y-82645500D01*
X50449864Y-82645499D01*
X50449879Y-82645497D01*
X50449882Y-82645497D01*
X50474987Y-82642586D01*
X50474988Y-82642585D01*
X50474991Y-82642585D01*
X50512824Y-82625879D01*
X50523730Y-82621065D01*
X50573815Y-82610500D01*
X51238780Y-82610500D01*
X51269228Y-82614559D01*
X51300451Y-82610500D01*
X51331943Y-82610500D01*
X51353678Y-82604675D01*
X51369776Y-82601487D01*
X71292496Y-80011534D01*
X71308481Y-80010500D01*
X73695501Y-80010500D01*
X73762540Y-80030185D01*
X73808295Y-80082989D01*
X73819501Y-80134500D01*
X73819501Y-80537786D01*
X73825909Y-80597402D01*
X73825910Y-80597404D01*
X73876216Y-80732279D01*
X73962482Y-80847518D01*
X74077721Y-80933784D01*
X74077725Y-80933785D01*
X74077726Y-80933786D01*
X74212587Y-80984087D01*
X74212590Y-80984088D01*
X74212596Y-80984090D01*
X74272217Y-80990500D01*
X76267782Y-80990499D01*
X76327404Y-80984090D01*
X76462279Y-80933784D01*
X76577518Y-80847518D01*
X76663784Y-80732279D01*
X76714090Y-80597404D01*
X76720500Y-80537783D01*
X76720499Y-78542218D01*
X76714090Y-78482596D01*
X76663784Y-78347721D01*
X76577518Y-78232482D01*
X76462279Y-78146216D01*
X76462276Y-78146215D01*
X76462273Y-78146213D01*
X76327412Y-78095912D01*
X76327409Y-78095911D01*
X76327405Y-78095910D01*
X76327404Y-78095910D01*
X76267783Y-78089500D01*
X76267773Y-78089500D01*
X74272219Y-78089500D01*
X74272213Y-78089501D01*
X74212597Y-78095909D01*
X74077721Y-78146216D01*
X73962482Y-78232482D01*
X73876216Y-78347721D01*
X73876213Y-78347726D01*
X73825912Y-78482587D01*
X73825911Y-78482590D01*
X73825910Y-78482594D01*
X73825910Y-78482596D01*
X73819500Y-78542217D01*
X73819500Y-78542225D01*
X73819500Y-78945500D01*
X73799815Y-79012539D01*
X73747011Y-79058294D01*
X73695500Y-79069500D01*
X71301220Y-79069500D01*
X71270772Y-79065441D01*
X71239549Y-79069500D01*
X71208052Y-79069500D01*
X71186321Y-79075323D01*
X71170217Y-79078512D01*
X58005834Y-80789882D01*
X51320812Y-81658935D01*
X51247504Y-81668465D01*
X51231519Y-81669500D01*
X50573815Y-81669500D01*
X50523729Y-81658935D01*
X50474991Y-81637415D01*
X50449865Y-81634500D01*
X48090143Y-81634500D01*
X48090117Y-81634502D01*
X48065012Y-81637413D01*
X48065008Y-81637415D01*
X47962235Y-81682793D01*
X47882794Y-81762234D01*
X47837415Y-81865006D01*
X47837415Y-81865008D01*
X47834500Y-81890131D01*
X44975499Y-81890131D01*
X44975499Y-81890130D01*
X44972586Y-81865012D01*
X44972585Y-81865010D01*
X44972585Y-81865009D01*
X44927206Y-81762235D01*
X44847765Y-81682794D01*
X44815313Y-81668465D01*
X44744992Y-81637415D01*
X44719865Y-81634500D01*
X42360143Y-81634500D01*
X42360117Y-81634502D01*
X42335012Y-81637413D01*
X42335008Y-81637415D01*
X42232235Y-81682793D01*
X42152794Y-81762234D01*
X42107415Y-81865006D01*
X42107415Y-81865008D01*
X42104500Y-81890131D01*
X42104500Y-82389856D01*
X42104502Y-82389882D01*
X42107413Y-82414987D01*
X42107415Y-82414991D01*
X42152793Y-82517764D01*
X42152794Y-82517765D01*
X42232235Y-82597206D01*
X42335009Y-82642585D01*
X42360135Y-82645500D01*
X42945500Y-82645499D01*
X43012539Y-82665183D01*
X43058294Y-82717987D01*
X43069500Y-82769499D01*
X43069500Y-86310500D01*
X43049815Y-86377539D01*
X42997011Y-86423294D01*
X42945500Y-86434500D01*
X42360143Y-86434500D01*
X42360117Y-86434502D01*
X42335012Y-86437413D01*
X42335010Y-86437414D01*
X42286270Y-86458935D01*
X42236185Y-86469500D01*
X41575542Y-86469500D01*
X41560768Y-86468617D01*
X21638144Y-84077901D01*
X21638144Y-84077900D01*
X21629357Y-84076845D01*
X21601943Y-84069500D01*
X21568133Y-84069500D01*
X21560773Y-84068617D01*
X21557027Y-84068167D01*
X21534556Y-84065471D01*
X21534555Y-84065471D01*
X21534554Y-84065471D01*
X21522516Y-84067196D01*
X21515203Y-84068245D01*
X21497608Y-84069500D01*
X19114499Y-84069500D01*
X19047460Y-84049815D01*
X19001705Y-83997011D01*
X18990499Y-83945500D01*
X18990499Y-83542219D01*
X18990498Y-83542213D01*
X18984090Y-83482597D01*
X18984090Y-83482596D01*
X18933784Y-83347721D01*
X18847518Y-83232482D01*
X18732279Y-83146216D01*
X18732276Y-83146215D01*
X18732273Y-83146213D01*
X18597412Y-83095912D01*
X18597409Y-83095911D01*
X18597405Y-83095910D01*
X18597404Y-83095910D01*
X18537783Y-83089500D01*
X18537773Y-83089500D01*
X16542219Y-83089500D01*
X16542213Y-83089501D01*
X16482597Y-83095909D01*
X16347721Y-83146216D01*
X16232482Y-83232482D01*
X16146216Y-83347721D01*
X16146213Y-83347726D01*
X16095912Y-83482587D01*
X16095911Y-83482590D01*
X16095910Y-83482594D01*
X16095910Y-83482596D01*
X16089500Y-83542217D01*
X9500500Y-83542217D01*
X9500500Y-80290131D01*
X47834500Y-80290131D01*
X47834500Y-80789856D01*
X47834502Y-80789882D01*
X47837413Y-80814987D01*
X47837415Y-80814991D01*
X47882793Y-80917764D01*
X47882794Y-80917765D01*
X47962235Y-80997206D01*
X48065009Y-81042585D01*
X48090135Y-81045500D01*
X50449864Y-81045499D01*
X50449879Y-81045497D01*
X50449882Y-81045497D01*
X50474987Y-81042586D01*
X50474988Y-81042585D01*
X50474991Y-81042585D01*
X50512824Y-81025879D01*
X50523730Y-81021065D01*
X50573815Y-81010500D01*
X51265125Y-81010500D01*
X51322164Y-81011684D01*
X51326981Y-81010500D01*
X51331943Y-81010500D01*
X51385807Y-80996066D01*
X51388273Y-80995433D01*
X51434428Y-80984087D01*
X51442467Y-80982111D01*
X51442472Y-80982107D01*
X51446097Y-80980694D01*
X51446143Y-80980676D01*
X51447744Y-80980051D01*
X51448003Y-80979927D01*
X51451595Y-80978438D01*
X51451606Y-80978436D01*
X51499952Y-80950522D01*
X51502102Y-80949310D01*
X68700591Y-71490143D01*
X71362944Y-70025849D01*
X71422702Y-70010500D01*
X73695501Y-70010500D01*
X73762540Y-70030185D01*
X73808295Y-70082989D01*
X73819501Y-70134500D01*
X73819501Y-70537786D01*
X73825909Y-70597402D01*
X73831244Y-70611706D01*
X73876216Y-70732279D01*
X73962482Y-70847518D01*
X74077721Y-70933784D01*
X74077725Y-70933785D01*
X74077726Y-70933786D01*
X74212587Y-70984087D01*
X74212590Y-70984088D01*
X74212596Y-70984090D01*
X74272217Y-70990500D01*
X76267782Y-70990499D01*
X76327404Y-70984090D01*
X76462279Y-70933784D01*
X76577518Y-70847518D01*
X76663784Y-70732279D01*
X76714090Y-70597404D01*
X76720500Y-70537783D01*
X76720499Y-68542218D01*
X76714090Y-68482596D01*
X76663784Y-68347721D01*
X76577518Y-68232482D01*
X76462279Y-68146216D01*
X76462276Y-68146215D01*
X76462273Y-68146213D01*
X76327412Y-68095912D01*
X76327409Y-68095911D01*
X76327405Y-68095910D01*
X76327404Y-68095910D01*
X76267783Y-68089500D01*
X76267773Y-68089500D01*
X74272219Y-68089500D01*
X74272213Y-68089501D01*
X74212597Y-68095909D01*
X74077721Y-68146216D01*
X73962482Y-68232482D01*
X73876216Y-68347721D01*
X73876213Y-68347726D01*
X73825912Y-68482587D01*
X73825911Y-68482590D01*
X73825910Y-68482594D01*
X73825910Y-68482596D01*
X73819500Y-68542217D01*
X73819500Y-68542225D01*
X73819500Y-68945500D01*
X73799815Y-69012539D01*
X73747011Y-69058294D01*
X73695500Y-69069500D01*
X71274875Y-69069500D01*
X71217835Y-69068316D01*
X71213018Y-69069500D01*
X71208057Y-69069500D01*
X71154196Y-69083931D01*
X71151707Y-69084571D01*
X71097524Y-69097891D01*
X71093834Y-69099330D01*
X71093827Y-69099333D01*
X71092312Y-69099923D01*
X71092057Y-69100046D01*
X71088392Y-69101564D01*
X71040105Y-69129441D01*
X71037867Y-69130703D01*
X51177056Y-80054151D01*
X51117298Y-80069500D01*
X50573815Y-80069500D01*
X50523729Y-80058935D01*
X50474991Y-80037415D01*
X50449865Y-80034500D01*
X48090143Y-80034500D01*
X48090117Y-80034502D01*
X48065012Y-80037413D01*
X48065008Y-80037415D01*
X47962235Y-80082793D01*
X47882794Y-80162234D01*
X47837415Y-80265006D01*
X47837415Y-80265008D01*
X47834500Y-80290131D01*
X9500500Y-80290131D01*
X9500500Y-78060943D01*
X40939500Y-78060943D01*
X40939500Y-78219057D01*
X40973976Y-78347721D01*
X40980423Y-78371783D01*
X40980426Y-78371790D01*
X41059475Y-78508709D01*
X41059479Y-78508714D01*
X41059480Y-78508716D01*
X41171284Y-78620520D01*
X41171286Y-78620521D01*
X41171290Y-78620524D01*
X41291855Y-78690131D01*
X41308216Y-78699577D01*
X41460943Y-78740500D01*
X41460945Y-78740500D01*
X41619055Y-78740500D01*
X41619057Y-78740500D01*
X41771784Y-78699577D01*
X41831660Y-78665008D01*
X41897298Y-78627113D01*
X41959297Y-78610500D01*
X42236185Y-78610500D01*
X42286270Y-78621064D01*
X42335009Y-78642585D01*
X42360135Y-78645500D01*
X44719864Y-78645499D01*
X44719879Y-78645497D01*
X44719882Y-78645497D01*
X44744987Y-78642586D01*
X44744988Y-78642585D01*
X44744991Y-78642585D01*
X44847765Y-78597206D01*
X44927206Y-78517765D01*
X44972585Y-78414991D01*
X44975500Y-78389865D01*
X44975499Y-77890136D01*
X44975497Y-77890117D01*
X44972586Y-77865012D01*
X44972585Y-77865010D01*
X44972585Y-77865009D01*
X44927206Y-77762235D01*
X44847765Y-77682794D01*
X44829597Y-77674772D01*
X44744992Y-77637415D01*
X44719865Y-77634500D01*
X42360143Y-77634500D01*
X42360117Y-77634502D01*
X42335012Y-77637413D01*
X42335010Y-77637414D01*
X42286270Y-77658935D01*
X42236185Y-77669500D01*
X41959297Y-77669500D01*
X41897298Y-77652887D01*
X41771790Y-77580426D01*
X41771786Y-77580424D01*
X41771784Y-77580423D01*
X41619057Y-77539500D01*
X41460943Y-77539500D01*
X41308216Y-77580423D01*
X41308209Y-77580426D01*
X41171290Y-77659475D01*
X41171282Y-77659481D01*
X41059481Y-77771282D01*
X41059475Y-77771290D01*
X40980426Y-77908209D01*
X40980423Y-77908216D01*
X40939500Y-78060943D01*
X9500500Y-78060943D01*
X9500500Y-76460943D01*
X40939500Y-76460943D01*
X40939500Y-76619056D01*
X40980423Y-76771783D01*
X40980426Y-76771790D01*
X41059475Y-76908709D01*
X41059479Y-76908714D01*
X41059480Y-76908716D01*
X41171284Y-77020520D01*
X41171286Y-77020521D01*
X41171290Y-77020524D01*
X41291855Y-77090131D01*
X41308216Y-77099577D01*
X41460943Y-77140500D01*
X41460945Y-77140500D01*
X41619055Y-77140500D01*
X41619057Y-77140500D01*
X41771784Y-77099577D01*
X41788145Y-77090131D01*
X47834500Y-77090131D01*
X47834500Y-77589856D01*
X47834502Y-77589882D01*
X47837413Y-77614987D01*
X47837415Y-77614991D01*
X47882793Y-77717764D01*
X47882794Y-77717765D01*
X47962235Y-77797206D01*
X48065009Y-77842585D01*
X48090135Y-77845500D01*
X50449864Y-77845499D01*
X50449879Y-77845497D01*
X50449882Y-77845497D01*
X50474987Y-77842586D01*
X50474988Y-77842585D01*
X50474991Y-77842585D01*
X50512824Y-77825879D01*
X50523730Y-77821065D01*
X50573815Y-77810500D01*
X51216881Y-77810500D01*
X51225477Y-77812466D01*
X51278689Y-77810500D01*
X51331943Y-77810500D01*
X51331944Y-77810499D01*
X51340006Y-77809438D01*
X51340062Y-77809869D01*
X51341334Y-77809678D01*
X51341262Y-77809250D01*
X51349272Y-77807892D01*
X51349278Y-77807892D01*
X51398017Y-77792881D01*
X51402032Y-77791719D01*
X51402188Y-77791676D01*
X51451606Y-77778436D01*
X51452154Y-77778119D01*
X51460434Y-77775873D01*
X51487707Y-77776436D01*
X51514832Y-77773500D01*
X51522131Y-77777147D01*
X51530288Y-77777316D01*
X51552927Y-77792534D01*
X51577334Y-77804730D01*
X51581502Y-77811743D01*
X51588274Y-77816296D01*
X51599092Y-77841341D01*
X51613030Y-77864793D01*
X51612744Y-77872947D01*
X51615980Y-77880437D01*
X51611540Y-77907354D01*
X51610587Y-77934620D01*
X51605782Y-77942273D01*
X51604611Y-77949376D01*
X51593832Y-77961307D01*
X51579240Y-77984552D01*
X51115371Y-78434506D01*
X51053545Y-78467053D01*
X51029035Y-78469500D01*
X50573815Y-78469500D01*
X50523729Y-78458935D01*
X50474991Y-78437415D01*
X50449865Y-78434500D01*
X48090143Y-78434500D01*
X48090117Y-78434502D01*
X48065012Y-78437413D01*
X48065008Y-78437415D01*
X47962235Y-78482793D01*
X47882794Y-78562234D01*
X47837415Y-78665006D01*
X47837415Y-78665008D01*
X47834500Y-78690131D01*
X47834500Y-79189856D01*
X47834502Y-79189882D01*
X47837413Y-79214987D01*
X47837415Y-79214991D01*
X47882793Y-79317764D01*
X47882794Y-79317765D01*
X47962235Y-79397206D01*
X48065009Y-79442585D01*
X48090135Y-79445500D01*
X50449864Y-79445499D01*
X50449879Y-79445497D01*
X50449882Y-79445497D01*
X50474987Y-79442586D01*
X50474988Y-79442585D01*
X50474991Y-79442585D01*
X50512824Y-79425879D01*
X50523730Y-79421065D01*
X50573815Y-79410500D01*
X51266382Y-79410500D01*
X51324771Y-79411389D01*
X51328303Y-79410500D01*
X51331943Y-79410500D01*
X51387521Y-79395606D01*
X51389126Y-79395189D01*
X51444909Y-79381150D01*
X51444921Y-79381143D01*
X51445339Y-79380978D01*
X51445354Y-79380973D01*
X51449149Y-79379467D01*
X51449205Y-79379445D01*
X51450593Y-79378894D01*
X51451158Y-79378621D01*
X51451601Y-79378437D01*
X51451606Y-79378436D01*
X51451610Y-79378433D01*
X51451614Y-79378432D01*
X51501380Y-79349699D01*
X51501380Y-79349698D01*
X51502173Y-79349241D01*
X51553127Y-79320849D01*
X51555736Y-79318316D01*
X51557519Y-79317287D01*
X51558894Y-79316494D01*
X51599581Y-79275805D01*
X51600793Y-79274611D01*
X67296461Y-64049815D01*
X71424628Y-60045494D01*
X71486454Y-60012946D01*
X71510964Y-60010500D01*
X73695501Y-60010500D01*
X73762540Y-60030185D01*
X73808295Y-60082989D01*
X73819501Y-60134500D01*
X73819501Y-60537786D01*
X73825909Y-60597402D01*
X73825910Y-60597404D01*
X73876216Y-60732279D01*
X73962482Y-60847518D01*
X74077721Y-60933784D01*
X74077725Y-60933785D01*
X74077726Y-60933786D01*
X74212587Y-60984087D01*
X74212590Y-60984088D01*
X74212596Y-60984090D01*
X74272217Y-60990500D01*
X76267782Y-60990499D01*
X76327404Y-60984090D01*
X76462279Y-60933784D01*
X76577518Y-60847518D01*
X76663784Y-60732279D01*
X76714090Y-60597404D01*
X76720500Y-60537783D01*
X76720499Y-58542218D01*
X76714090Y-58482596D01*
X76663784Y-58347721D01*
X76577518Y-58232482D01*
X76462279Y-58146216D01*
X76462276Y-58146215D01*
X76462273Y-58146213D01*
X76327412Y-58095912D01*
X76327409Y-58095911D01*
X76327405Y-58095910D01*
X76327404Y-58095910D01*
X76267783Y-58089500D01*
X76267773Y-58089500D01*
X74272219Y-58089500D01*
X74272213Y-58089501D01*
X74212597Y-58095909D01*
X74077721Y-58146216D01*
X73962482Y-58232482D01*
X73876216Y-58347721D01*
X73876213Y-58347726D01*
X73825912Y-58482587D01*
X73825911Y-58482590D01*
X73825910Y-58482594D01*
X73825910Y-58482596D01*
X73819500Y-58542217D01*
X73819500Y-58542225D01*
X73819500Y-58945500D01*
X73799815Y-59012539D01*
X73747011Y-59058294D01*
X73695500Y-59069500D01*
X71273586Y-59069500D01*
X71215228Y-59068611D01*
X71211696Y-59069500D01*
X71208054Y-59069500D01*
X71152590Y-59084361D01*
X71150768Y-59084835D01*
X71095085Y-59098851D01*
X71094569Y-59099056D01*
X71094568Y-59099055D01*
X71090845Y-59100532D01*
X71089486Y-59101070D01*
X71088912Y-59101348D01*
X71088403Y-59101558D01*
X71038668Y-59130272D01*
X71038667Y-59130271D01*
X71037743Y-59130804D01*
X70986873Y-59159151D01*
X70984261Y-59161683D01*
X70981105Y-59163506D01*
X70940482Y-59204128D01*
X70939139Y-59205451D01*
X51903851Y-77669679D01*
X51894175Y-77674772D01*
X51887231Y-77683219D01*
X51863805Y-77690760D01*
X51842025Y-77702227D01*
X51831129Y-77701280D01*
X51820723Y-77704631D01*
X51796937Y-77698310D01*
X51772417Y-77696181D01*
X51763764Y-77689496D01*
X51753197Y-77686688D01*
X51736602Y-77668509D01*
X51717128Y-77653463D01*
X51713463Y-77643162D01*
X51706091Y-77635086D01*
X51701959Y-77610821D01*
X51693711Y-77587635D01*
X51695889Y-77575179D01*
X51694362Y-77566208D01*
X51700912Y-77546467D01*
X51703426Y-77532097D01*
X51706366Y-77525189D01*
X51708436Y-77521606D01*
X51709357Y-77518164D01*
X51712781Y-77510125D01*
X51714291Y-77508287D01*
X51717262Y-77500718D01*
X67039221Y-48542217D01*
X73819500Y-48542217D01*
X73819500Y-48542224D01*
X73819500Y-48542225D01*
X73819500Y-50537780D01*
X73819501Y-50537786D01*
X73825909Y-50597402D01*
X73825910Y-50597404D01*
X73876216Y-50732279D01*
X73962482Y-50847518D01*
X74077721Y-50933784D01*
X74077725Y-50933785D01*
X74077726Y-50933786D01*
X74212587Y-50984087D01*
X74212590Y-50984088D01*
X74212596Y-50984090D01*
X74272217Y-50990500D01*
X76267782Y-50990499D01*
X76327404Y-50984090D01*
X76462279Y-50933784D01*
X76577518Y-50847518D01*
X76663784Y-50732279D01*
X76714090Y-50597404D01*
X76720500Y-50537783D01*
X76720499Y-48542218D01*
X76714090Y-48482596D01*
X76663784Y-48347721D01*
X76577518Y-48232482D01*
X76462279Y-48146216D01*
X76462276Y-48146215D01*
X76462273Y-48146213D01*
X76327412Y-48095912D01*
X76327409Y-48095911D01*
X76327405Y-48095910D01*
X76327404Y-48095910D01*
X76267783Y-48089500D01*
X76267773Y-48089500D01*
X74272219Y-48089500D01*
X74272213Y-48089501D01*
X74212597Y-48095909D01*
X74077721Y-48146216D01*
X73962482Y-48232482D01*
X73876216Y-48347721D01*
X73876213Y-48347726D01*
X73825912Y-48482587D01*
X73825911Y-48482590D01*
X73825910Y-48482594D01*
X73825910Y-48482596D01*
X73819500Y-48542217D01*
X67039221Y-48542217D01*
X69401201Y-44078075D01*
X71518432Y-40076509D01*
X71567184Y-40026458D01*
X71628036Y-40010500D01*
X73695501Y-40010500D01*
X73762540Y-40030185D01*
X73808295Y-40082989D01*
X73819501Y-40134500D01*
X73819501Y-40537786D01*
X73825909Y-40597402D01*
X73825910Y-40597404D01*
X73876216Y-40732279D01*
X73962482Y-40847518D01*
X74077721Y-40933784D01*
X74077725Y-40933785D01*
X74077726Y-40933786D01*
X74212587Y-40984087D01*
X74212590Y-40984088D01*
X74212596Y-40984090D01*
X74272217Y-40990500D01*
X76267782Y-40990499D01*
X76327404Y-40984090D01*
X76462279Y-40933784D01*
X76577518Y-40847518D01*
X76663784Y-40732279D01*
X76714090Y-40597404D01*
X76720500Y-40537783D01*
X76720499Y-38542218D01*
X76714090Y-38482596D01*
X76663784Y-38347721D01*
X76577518Y-38232482D01*
X76462279Y-38146216D01*
X76462276Y-38146215D01*
X76462273Y-38146213D01*
X76327412Y-38095912D01*
X76327409Y-38095911D01*
X76327405Y-38095910D01*
X76327404Y-38095910D01*
X76267783Y-38089500D01*
X76267773Y-38089500D01*
X74272219Y-38089500D01*
X74272213Y-38089501D01*
X74212597Y-38095909D01*
X74077721Y-38146216D01*
X73962482Y-38232482D01*
X73876216Y-38347721D01*
X73876213Y-38347726D01*
X73825912Y-38482587D01*
X73825911Y-38482590D01*
X73825910Y-38482594D01*
X73825910Y-38482596D01*
X73819500Y-38542217D01*
X73819500Y-38542225D01*
X73819500Y-38945500D01*
X73799815Y-39012539D01*
X73747011Y-39058294D01*
X73695500Y-39069500D01*
X71323123Y-39069500D01*
X71314523Y-39067533D01*
X71261295Y-39069500D01*
X71208057Y-39069500D01*
X71199996Y-39070561D01*
X71199939Y-39070133D01*
X71198660Y-39070326D01*
X71198732Y-39070751D01*
X71190717Y-39072108D01*
X71142000Y-39087111D01*
X71139777Y-39087795D01*
X71088394Y-39101564D01*
X71080759Y-39105970D01*
X71072328Y-39108567D01*
X71072320Y-39108571D01*
X71029158Y-39135663D01*
X71027215Y-39136884D01*
X70981106Y-39163506D01*
X70974868Y-39169742D01*
X70967399Y-39174431D01*
X70932711Y-39211780D01*
X70932710Y-39211779D01*
X70931120Y-39213490D01*
X70893506Y-39251106D01*
X70889100Y-39258737D01*
X70883096Y-39265202D01*
X70859247Y-39310274D01*
X70859246Y-39310273D01*
X70858156Y-39312331D01*
X70831564Y-39358394D01*
X70829282Y-39366906D01*
X70822736Y-39379279D01*
X51021567Y-76803491D01*
X50972815Y-76853542D01*
X50911963Y-76869500D01*
X50573815Y-76869500D01*
X50523729Y-76858935D01*
X50511515Y-76853542D01*
X50474991Y-76837415D01*
X50449865Y-76834500D01*
X48090143Y-76834500D01*
X48090117Y-76834502D01*
X48065012Y-76837413D01*
X48065008Y-76837415D01*
X47962235Y-76882793D01*
X47882794Y-76962234D01*
X47837415Y-77065006D01*
X47837415Y-77065008D01*
X47834500Y-77090131D01*
X41788145Y-77090131D01*
X41831660Y-77065008D01*
X41897298Y-77027113D01*
X41959297Y-77010500D01*
X42236185Y-77010500D01*
X42286270Y-77021064D01*
X42335009Y-77042585D01*
X42360135Y-77045500D01*
X44719864Y-77045499D01*
X44719879Y-77045497D01*
X44719882Y-77045497D01*
X44744987Y-77042586D01*
X44744988Y-77042585D01*
X44744991Y-77042585D01*
X44847765Y-76997206D01*
X44927206Y-76917765D01*
X44972585Y-76814991D01*
X44975500Y-76789865D01*
X44975499Y-76290136D01*
X44975497Y-76290117D01*
X44972586Y-76265012D01*
X44972585Y-76265010D01*
X44972585Y-76265009D01*
X44927206Y-76162235D01*
X44847765Y-76082794D01*
X44794964Y-76059480D01*
X44744992Y-76037415D01*
X44719865Y-76034500D01*
X42360143Y-76034500D01*
X42360117Y-76034502D01*
X42335012Y-76037413D01*
X42335010Y-76037414D01*
X42286270Y-76058935D01*
X42236185Y-76069500D01*
X41959297Y-76069500D01*
X41897298Y-76052887D01*
X41771790Y-75980426D01*
X41771786Y-75980424D01*
X41771784Y-75980423D01*
X41619057Y-75939500D01*
X41460943Y-75939500D01*
X41308216Y-75980423D01*
X41308209Y-75980426D01*
X41171290Y-76059475D01*
X41171282Y-76059481D01*
X41059481Y-76171282D01*
X41059475Y-76171290D01*
X40980426Y-76308209D01*
X40980423Y-76308216D01*
X40939500Y-76460943D01*
X9500500Y-76460943D01*
X9500500Y-73542217D01*
X16089500Y-73542217D01*
X16089500Y-73542224D01*
X16089500Y-73542225D01*
X16089500Y-75537780D01*
X16089501Y-75537786D01*
X16095909Y-75597402D01*
X16095910Y-75597404D01*
X16146216Y-75732279D01*
X16232482Y-75847518D01*
X16347721Y-75933784D01*
X16347725Y-75933785D01*
X16347726Y-75933786D01*
X16482587Y-75984087D01*
X16482590Y-75984088D01*
X16482596Y-75984090D01*
X16542217Y-75990500D01*
X18537782Y-75990499D01*
X18597404Y-75984090D01*
X18732279Y-75933784D01*
X18847518Y-75847518D01*
X18933784Y-75732279D01*
X18984090Y-75597404D01*
X18990500Y-75537783D01*
X18990500Y-75134500D01*
X19010185Y-75067461D01*
X19062989Y-75021706D01*
X19114500Y-75010500D01*
X21534081Y-75010500D01*
X21536560Y-75010524D01*
X41473441Y-75409263D01*
X41478057Y-75410500D01*
X41535273Y-75410500D01*
X41555189Y-75410898D01*
X41592521Y-75411645D01*
X41592521Y-75411644D01*
X41592523Y-75411645D01*
X41592524Y-75411644D01*
X41595964Y-75411262D01*
X41609689Y-75410500D01*
X42236185Y-75410500D01*
X42286270Y-75421064D01*
X42335009Y-75442585D01*
X42360135Y-75445500D01*
X44719864Y-75445499D01*
X44719879Y-75445497D01*
X44719882Y-75445497D01*
X44744987Y-75442586D01*
X44744988Y-75442585D01*
X44744991Y-75442585D01*
X44847765Y-75397206D01*
X44927206Y-75317765D01*
X44972585Y-75214991D01*
X44975500Y-75189865D01*
X44975499Y-74690136D01*
X44975497Y-74690117D01*
X44972586Y-74665012D01*
X44972585Y-74665010D01*
X44972585Y-74665009D01*
X44927206Y-74562235D01*
X44847765Y-74482794D01*
X44817657Y-74469500D01*
X44744992Y-74437415D01*
X44719865Y-74434500D01*
X42360143Y-74434500D01*
X42360117Y-74434502D01*
X42335012Y-74437413D01*
X42335010Y-74437414D01*
X42286270Y-74458935D01*
X42236185Y-74469500D01*
X41545919Y-74469500D01*
X41543439Y-74469475D01*
X21619069Y-74070986D01*
X21619069Y-74070985D01*
X21606554Y-74070734D01*
X21601943Y-74069500D01*
X21544733Y-74069500D01*
X21543482Y-74069475D01*
X21543478Y-74069475D01*
X21487479Y-74068354D01*
X21484037Y-74068738D01*
X21470312Y-74069500D01*
X19114499Y-74069500D01*
X19047460Y-74049815D01*
X19001705Y-73997011D01*
X18990499Y-73945500D01*
X18990499Y-73542219D01*
X18990498Y-73542213D01*
X18984090Y-73482597D01*
X18984090Y-73482596D01*
X18933784Y-73347721D01*
X18847518Y-73232482D01*
X18732279Y-73146216D01*
X18732276Y-73146215D01*
X18732273Y-73146213D01*
X18597412Y-73095912D01*
X18597409Y-73095911D01*
X18597405Y-73095910D01*
X18597404Y-73095910D01*
X18537783Y-73089500D01*
X18537773Y-73089500D01*
X16542219Y-73089500D01*
X16542213Y-73089501D01*
X16482597Y-73095909D01*
X16347721Y-73146216D01*
X16232482Y-73232482D01*
X16146216Y-73347721D01*
X16146213Y-73347726D01*
X16095912Y-73482587D01*
X16095911Y-73482590D01*
X16095910Y-73482594D01*
X16095910Y-73482596D01*
X16089500Y-73542217D01*
X9500500Y-73542217D01*
X9500500Y-63542217D01*
X16089500Y-63542217D01*
X16089500Y-63542224D01*
X16089500Y-63542225D01*
X16089500Y-65537780D01*
X16089501Y-65537786D01*
X16095909Y-65597402D01*
X16095910Y-65597404D01*
X16146216Y-65732279D01*
X16232482Y-65847518D01*
X16347721Y-65933784D01*
X16347725Y-65933785D01*
X16347726Y-65933786D01*
X16482587Y-65984087D01*
X16482590Y-65984088D01*
X16482596Y-65984090D01*
X16542217Y-65990500D01*
X18537782Y-65990499D01*
X18597404Y-65984090D01*
X18732279Y-65933784D01*
X18847518Y-65847518D01*
X18933784Y-65732279D01*
X18984090Y-65597404D01*
X18990500Y-65537783D01*
X18990500Y-65134500D01*
X19010185Y-65067461D01*
X19062989Y-65021706D01*
X19114500Y-65010500D01*
X21414992Y-65010500D01*
X21464931Y-65021000D01*
X41230306Y-73717765D01*
X41320802Y-73757583D01*
X41320801Y-73757583D01*
X41326997Y-73760309D01*
X41358394Y-73778436D01*
X41383457Y-73785151D01*
X41407208Y-73795602D01*
X41407209Y-73795602D01*
X41407211Y-73795603D01*
X41436344Y-73800086D01*
X41449571Y-73802867D01*
X41478057Y-73810500D01*
X41478058Y-73810500D01*
X41504006Y-73810500D01*
X41529651Y-73814447D01*
X41565688Y-73810500D01*
X42236185Y-73810500D01*
X42286270Y-73821064D01*
X42335009Y-73842585D01*
X42360135Y-73845500D01*
X44719864Y-73845499D01*
X44719879Y-73845497D01*
X44719882Y-73845497D01*
X44744987Y-73842586D01*
X44744988Y-73842585D01*
X44744991Y-73842585D01*
X44847765Y-73797206D01*
X44927206Y-73717765D01*
X44972585Y-73614991D01*
X44975500Y-73589865D01*
X44975499Y-73090136D01*
X44975497Y-73090117D01*
X44972586Y-73065012D01*
X44972585Y-73065010D01*
X44972585Y-73065009D01*
X44927206Y-72962235D01*
X44847765Y-72882794D01*
X44817657Y-72869500D01*
X44744992Y-72837415D01*
X44719865Y-72834500D01*
X42360143Y-72834500D01*
X42360117Y-72834502D01*
X42335012Y-72837413D01*
X42335010Y-72837414D01*
X42286270Y-72858935D01*
X42236185Y-72869500D01*
X41665007Y-72869500D01*
X41615067Y-72858999D01*
X41566012Y-72837415D01*
X37923029Y-71234502D01*
X21759192Y-64122413D01*
X21759192Y-64122412D01*
X21752988Y-64119682D01*
X21721606Y-64101564D01*
X21696545Y-64094848D01*
X21672791Y-64084397D01*
X21672789Y-64084396D01*
X21672788Y-64084396D01*
X21643650Y-64079912D01*
X21643650Y-64079911D01*
X21636948Y-64078879D01*
X21601943Y-64069500D01*
X21575995Y-64069500D01*
X21566618Y-64068057D01*
X21550346Y-64065552D01*
X21521040Y-64068763D01*
X21507539Y-64069500D01*
X19114499Y-64069500D01*
X19047460Y-64049815D01*
X19001705Y-63997011D01*
X18990499Y-63945500D01*
X18990499Y-63542219D01*
X18990498Y-63542213D01*
X18984090Y-63482597D01*
X18984090Y-63482596D01*
X18933784Y-63347721D01*
X18847518Y-63232482D01*
X18732279Y-63146216D01*
X18732276Y-63146215D01*
X18732273Y-63146213D01*
X18597412Y-63095912D01*
X18597409Y-63095911D01*
X18597405Y-63095910D01*
X18597404Y-63095910D01*
X18537783Y-63089500D01*
X18537773Y-63089500D01*
X16542219Y-63089500D01*
X16542213Y-63089501D01*
X16482597Y-63095909D01*
X16347721Y-63146216D01*
X16232482Y-63232482D01*
X16146216Y-63347721D01*
X16146213Y-63347726D01*
X16095912Y-63482587D01*
X16095911Y-63482590D01*
X16095910Y-63482594D01*
X16095910Y-63482596D01*
X16089500Y-63542217D01*
X9500500Y-63542217D01*
X9500500Y-53542217D01*
X16089500Y-53542217D01*
X16089500Y-53542224D01*
X16089500Y-53542225D01*
X16089500Y-55537780D01*
X16089501Y-55537786D01*
X16095909Y-55597402D01*
X16095910Y-55597404D01*
X16146216Y-55732279D01*
X16232482Y-55847518D01*
X16347721Y-55933784D01*
X16347725Y-55933785D01*
X16347726Y-55933786D01*
X16482587Y-55984087D01*
X16482590Y-55984088D01*
X16482596Y-55984090D01*
X16542217Y-55990500D01*
X18537782Y-55990499D01*
X18597404Y-55984090D01*
X18732279Y-55933784D01*
X18847518Y-55847518D01*
X18933784Y-55732279D01*
X18984090Y-55597404D01*
X18990500Y-55537783D01*
X18990500Y-55134500D01*
X19010185Y-55067461D01*
X19062989Y-55021706D01*
X19114500Y-55010500D01*
X21319523Y-55010500D01*
X21386562Y-55030185D01*
X21400376Y-55040485D01*
X28318998Y-60990499D01*
X41219801Y-72085189D01*
X41251106Y-72116494D01*
X41266611Y-72125445D01*
X41280180Y-72137115D01*
X41315869Y-72154287D01*
X41324084Y-72158627D01*
X41358394Y-72178436D01*
X41364466Y-72180063D01*
X41364473Y-72180065D01*
X41375684Y-72183069D01*
X41391813Y-72190830D01*
X41435294Y-72199042D01*
X41439787Y-72200246D01*
X41439799Y-72200249D01*
X41455859Y-72204551D01*
X41478057Y-72210500D01*
X41478058Y-72210500D01*
X41495957Y-72210500D01*
X41513546Y-72213822D01*
X41557683Y-72210500D01*
X42236185Y-72210500D01*
X42286270Y-72221064D01*
X42335009Y-72242585D01*
X42360135Y-72245500D01*
X44719864Y-72245499D01*
X44719879Y-72245497D01*
X44719882Y-72245497D01*
X44744987Y-72242586D01*
X44744988Y-72242585D01*
X44744991Y-72242585D01*
X44847765Y-72197206D01*
X44927206Y-72117765D01*
X44972585Y-72014991D01*
X44975500Y-71989865D01*
X44975499Y-71490136D01*
X44975497Y-71490117D01*
X44972586Y-71465012D01*
X44972585Y-71465010D01*
X44972585Y-71465009D01*
X44927206Y-71362235D01*
X44847765Y-71282794D01*
X44817657Y-71269500D01*
X44744992Y-71237415D01*
X44719865Y-71234500D01*
X42360143Y-71234500D01*
X42360117Y-71234502D01*
X42335012Y-71237413D01*
X42335010Y-71237414D01*
X42286270Y-71258935D01*
X42236185Y-71269500D01*
X41760476Y-71269500D01*
X41693437Y-71249815D01*
X41679623Y-71239515D01*
X29305075Y-60597404D01*
X21860198Y-54194810D01*
X21828894Y-54163506D01*
X21813388Y-54154554D01*
X21799820Y-54142885D01*
X21799817Y-54142883D01*
X21764132Y-54125713D01*
X21764131Y-54125712D01*
X21759931Y-54123691D01*
X21721606Y-54101564D01*
X21704317Y-54096931D01*
X21693868Y-54091903D01*
X21693863Y-54091901D01*
X21693600Y-54091774D01*
X21688187Y-54089170D01*
X21688184Y-54089169D01*
X21688181Y-54089168D01*
X21649277Y-54081820D01*
X21640202Y-54079751D01*
X21632164Y-54077597D01*
X21601943Y-54069500D01*
X21601941Y-54069500D01*
X21584043Y-54069500D01*
X21566454Y-54066178D01*
X21522317Y-54069500D01*
X19114499Y-54069500D01*
X19047460Y-54049815D01*
X19001705Y-53997011D01*
X18990499Y-53945500D01*
X18990499Y-53542219D01*
X18990498Y-53542213D01*
X18984090Y-53482597D01*
X18984090Y-53482596D01*
X18933784Y-53347721D01*
X18847518Y-53232482D01*
X18732279Y-53146216D01*
X18732276Y-53146215D01*
X18732273Y-53146213D01*
X18597412Y-53095912D01*
X18597409Y-53095911D01*
X18597405Y-53095910D01*
X18597404Y-53095910D01*
X18537783Y-53089500D01*
X18537773Y-53089500D01*
X16542219Y-53089500D01*
X16542213Y-53089501D01*
X16482597Y-53095909D01*
X16347721Y-53146216D01*
X16232482Y-53232482D01*
X16146216Y-53347721D01*
X16146213Y-53347726D01*
X16095912Y-53482587D01*
X16095911Y-53482590D01*
X16095910Y-53482594D01*
X16095910Y-53482596D01*
X16089500Y-53542217D01*
X9500500Y-53542217D01*
X9500500Y-23542217D01*
X16089500Y-23542217D01*
X16089500Y-23542224D01*
X16089500Y-23542225D01*
X16089500Y-25537780D01*
X16089501Y-25537786D01*
X16095909Y-25597402D01*
X16095910Y-25597404D01*
X16146216Y-25732279D01*
X16232482Y-25847518D01*
X16347721Y-25933784D01*
X16347725Y-25933785D01*
X16347726Y-25933786D01*
X16482587Y-25984087D01*
X16482590Y-25984088D01*
X16482596Y-25984090D01*
X16542217Y-25990500D01*
X18537782Y-25990499D01*
X18597404Y-25984090D01*
X18732279Y-25933784D01*
X18847518Y-25847518D01*
X18933784Y-25732279D01*
X18984090Y-25597404D01*
X18990500Y-25537783D01*
X18990500Y-25134500D01*
X19010185Y-25067461D01*
X19062989Y-25021706D01*
X19114500Y-25010500D01*
X21163105Y-25010500D01*
X21230144Y-25030185D01*
X21275255Y-25081599D01*
X26207419Y-35537786D01*
X39325315Y-63347726D01*
X39352026Y-63404352D01*
X39362822Y-63473383D01*
X39334585Y-63537292D01*
X39276278Y-63575790D01*
X39206413Y-63576653D01*
X39147173Y-63539607D01*
X39132996Y-63520123D01*
X39110921Y-63482596D01*
X21946489Y-34303059D01*
X21916494Y-34251106D01*
X21915120Y-34249732D01*
X21914136Y-34248059D01*
X21914135Y-34248058D01*
X21914134Y-34248056D01*
X21871636Y-34206243D01*
X21871028Y-34205640D01*
X21828898Y-34163510D01*
X21828894Y-34163506D01*
X21828889Y-34163503D01*
X21827038Y-34162083D01*
X21827037Y-34162082D01*
X21827028Y-34162075D01*
X21825926Y-34161229D01*
X21774025Y-34131823D01*
X21773595Y-34131580D01*
X21721606Y-34101564D01*
X21719732Y-34101061D01*
X21718038Y-34100102D01*
X21718027Y-34100099D01*
X21660401Y-34085158D01*
X21659858Y-34085018D01*
X21601943Y-34069500D01*
X21600000Y-34069500D01*
X21598118Y-34069012D01*
X21538576Y-34069496D01*
X21537568Y-34069500D01*
X19114499Y-34069500D01*
X19047460Y-34049815D01*
X19001705Y-33997011D01*
X18990499Y-33945500D01*
X18990499Y-33542219D01*
X18990498Y-33542213D01*
X18984090Y-33482597D01*
X18984090Y-33482596D01*
X18933784Y-33347721D01*
X18847518Y-33232482D01*
X18732279Y-33146216D01*
X18732276Y-33146215D01*
X18732273Y-33146213D01*
X18597412Y-33095912D01*
X18597409Y-33095911D01*
X18597405Y-33095910D01*
X18597404Y-33095910D01*
X18537783Y-33089500D01*
X18537773Y-33089500D01*
X16542219Y-33089500D01*
X16542213Y-33089501D01*
X16482597Y-33095909D01*
X16347721Y-33146216D01*
X16232482Y-33232482D01*
X16146216Y-33347721D01*
X16146213Y-33347726D01*
X16095912Y-33482587D01*
X16095911Y-33482590D01*
X16095910Y-33482594D01*
X16095910Y-33482596D01*
X16089500Y-33542217D01*
X16089500Y-33542224D01*
X16089500Y-33542225D01*
X16089500Y-35537780D01*
X16089501Y-35537786D01*
X16095909Y-35597402D01*
X16095910Y-35597404D01*
X16146216Y-35732279D01*
X16232482Y-35847518D01*
X16347721Y-35933784D01*
X16347725Y-35933785D01*
X16347726Y-35933786D01*
X16482587Y-35984087D01*
X16482590Y-35984088D01*
X16482596Y-35984090D01*
X16542217Y-35990500D01*
X18537782Y-35990499D01*
X18597404Y-35984090D01*
X18732279Y-35933784D01*
X18847518Y-35847518D01*
X18933784Y-35732279D01*
X18984090Y-35597404D01*
X18990500Y-35537783D01*
X18990500Y-35134500D01*
X19010185Y-35067461D01*
X19062989Y-35021706D01*
X19114500Y-35010500D01*
X21199979Y-35010500D01*
X21267018Y-35030185D01*
X21306858Y-35071629D01*
X40350310Y-67445500D01*
X40365466Y-67471265D01*
X40382489Y-67539029D01*
X40360175Y-67605239D01*
X40305606Y-67648874D01*
X40236109Y-67656081D01*
X40173748Y-67624570D01*
X40160871Y-67610475D01*
X30775663Y-55597409D01*
X21931017Y-44276261D01*
X21916494Y-44251106D01*
X21893045Y-44227657D01*
X21888376Y-44221681D01*
X21888376Y-44221679D01*
X21872634Y-44201530D01*
X21872633Y-44201529D01*
X21872631Y-44201528D01*
X21872631Y-44201527D01*
X21856356Y-44189262D01*
X21849432Y-44184044D01*
X21828894Y-44163506D01*
X21800180Y-44146928D01*
X21794125Y-44142365D01*
X21794120Y-44142362D01*
X21773690Y-44126967D01*
X21754796Y-44119332D01*
X21739259Y-44111754D01*
X21721610Y-44101565D01*
X21696902Y-44094944D01*
X21682546Y-44090140D01*
X21658831Y-44080558D01*
X21638605Y-44078074D01*
X21629994Y-44077016D01*
X21601943Y-44069500D01*
X21568785Y-44069500D01*
X21561252Y-44068575D01*
X21561251Y-44068575D01*
X21535869Y-44065457D01*
X21515686Y-44068294D01*
X21498431Y-44069500D01*
X19114499Y-44069500D01*
X19047460Y-44049815D01*
X19001705Y-43997011D01*
X18990499Y-43945500D01*
X18990499Y-43542219D01*
X18990498Y-43542213D01*
X18984090Y-43482597D01*
X18984090Y-43482596D01*
X18933784Y-43347721D01*
X18847518Y-43232482D01*
X18732279Y-43146216D01*
X18732276Y-43146215D01*
X18732273Y-43146213D01*
X18597412Y-43095912D01*
X18597409Y-43095911D01*
X18597405Y-43095910D01*
X18597404Y-43095910D01*
X18537783Y-43089500D01*
X18537773Y-43089500D01*
X16542219Y-43089500D01*
X16542213Y-43089501D01*
X16482597Y-43095909D01*
X16347721Y-43146216D01*
X16232482Y-43232482D01*
X16146216Y-43347721D01*
X16146213Y-43347726D01*
X16095912Y-43482587D01*
X16095911Y-43482590D01*
X16095910Y-43482594D01*
X16095910Y-43482596D01*
X16089500Y-43542217D01*
X16089500Y-43542224D01*
X16089500Y-43542225D01*
X16089500Y-45537780D01*
X16089501Y-45537786D01*
X16095909Y-45597402D01*
X16095910Y-45597404D01*
X16146216Y-45732279D01*
X16232482Y-45847518D01*
X16347721Y-45933784D01*
X16347725Y-45933785D01*
X16347726Y-45933786D01*
X16482587Y-45984087D01*
X16482590Y-45984088D01*
X16482596Y-45984090D01*
X16542217Y-45990500D01*
X18537782Y-45990499D01*
X18597404Y-45984090D01*
X18732279Y-45933784D01*
X18847518Y-45847518D01*
X18933784Y-45732279D01*
X18984090Y-45597404D01*
X18990500Y-45537783D01*
X18990500Y-45134500D01*
X19010185Y-45067461D01*
X19062989Y-45021706D01*
X19114500Y-45010500D01*
X21250035Y-45010500D01*
X21317074Y-45030185D01*
X21347750Y-45058160D01*
X41143642Y-70396904D01*
X41148984Y-70403741D01*
X41163506Y-70428894D01*
X41186954Y-70452342D01*
X41191620Y-70458314D01*
X41191622Y-70458317D01*
X41207367Y-70478470D01*
X41207368Y-70478472D01*
X41223646Y-70490739D01*
X41223645Y-70490739D01*
X41230568Y-70495956D01*
X41251106Y-70516494D01*
X41279821Y-70533073D01*
X41285878Y-70537637D01*
X41285881Y-70537639D01*
X41306304Y-70553029D01*
X41306307Y-70553031D01*
X41333239Y-70563913D01*
X41358394Y-70578436D01*
X41390421Y-70587017D01*
X41397450Y-70589857D01*
X41397451Y-70589858D01*
X41405910Y-70593275D01*
X41421170Y-70599442D01*
X41441396Y-70601925D01*
X41441398Y-70601926D01*
X41450005Y-70602982D01*
X41478057Y-70610500D01*
X41511217Y-70610500D01*
X41534821Y-70613398D01*
X41544130Y-70614542D01*
X41544130Y-70614541D01*
X41544131Y-70614542D01*
X41564313Y-70611705D01*
X41581568Y-70610500D01*
X42236185Y-70610500D01*
X42286270Y-70621064D01*
X42335009Y-70642585D01*
X42360135Y-70645500D01*
X44719864Y-70645499D01*
X44719879Y-70645497D01*
X44719882Y-70645497D01*
X44744987Y-70642586D01*
X44744988Y-70642585D01*
X44744991Y-70642585D01*
X44847765Y-70597206D01*
X44927206Y-70517765D01*
X44972585Y-70414991D01*
X44975500Y-70389865D01*
X44975499Y-69890136D01*
X44975497Y-69890117D01*
X44972586Y-69865012D01*
X44972585Y-69865010D01*
X44972585Y-69865009D01*
X44927206Y-69762235D01*
X44847765Y-69682794D01*
X44817657Y-69669500D01*
X44744992Y-69637415D01*
X44719865Y-69634500D01*
X42360143Y-69634500D01*
X42360117Y-69634502D01*
X42335012Y-69637413D01*
X42335010Y-69637414D01*
X42286270Y-69658935D01*
X42236185Y-69669500D01*
X41829965Y-69669500D01*
X41762926Y-69649815D01*
X41732250Y-69621840D01*
X41610607Y-69466137D01*
X41411366Y-69211109D01*
X41406118Y-69197878D01*
X41396710Y-69187197D01*
X41393494Y-69166050D01*
X41385606Y-69146164D01*
X41388344Y-69132193D01*
X41386205Y-69118122D01*
X41394932Y-69098593D01*
X41399048Y-69077599D01*
X41408904Y-69067327D01*
X41414712Y-69054332D01*
X41432612Y-69042621D01*
X41447425Y-69027186D01*
X41462403Y-69023132D01*
X41473182Y-69016082D01*
X41508073Y-69010775D01*
X41541424Y-69010504D01*
X41542432Y-69010500D01*
X42236185Y-69010500D01*
X42286270Y-69021064D01*
X42335009Y-69042585D01*
X42360135Y-69045500D01*
X44719864Y-69045499D01*
X44719879Y-69045497D01*
X44719882Y-69045497D01*
X44744987Y-69042586D01*
X44744988Y-69042585D01*
X44744991Y-69042585D01*
X44847765Y-68997206D01*
X44927206Y-68917765D01*
X44972585Y-68814991D01*
X44975500Y-68789865D01*
X44975499Y-68290136D01*
X44975497Y-68290117D01*
X44972586Y-68265012D01*
X44972585Y-68265010D01*
X44972585Y-68265009D01*
X44927206Y-68162235D01*
X44847765Y-68082794D01*
X44817657Y-68069500D01*
X44744992Y-68037415D01*
X44719865Y-68034500D01*
X42360143Y-68034500D01*
X42360117Y-68034502D01*
X42335012Y-68037413D01*
X42335010Y-68037414D01*
X42286270Y-68058935D01*
X42236185Y-68069500D01*
X41880021Y-68069500D01*
X41812982Y-68049815D01*
X41773141Y-68008370D01*
X41762250Y-67989856D01*
X41531377Y-67597370D01*
X41514354Y-67529606D01*
X41536669Y-67463396D01*
X41591237Y-67419761D01*
X41638257Y-67410500D01*
X42236185Y-67410500D01*
X42286270Y-67421064D01*
X42335009Y-67442585D01*
X42360135Y-67445500D01*
X44719864Y-67445499D01*
X44719879Y-67445497D01*
X44719882Y-67445497D01*
X44744987Y-67442586D01*
X44744988Y-67442585D01*
X44744991Y-67442585D01*
X44847765Y-67397206D01*
X44927206Y-67317765D01*
X44972585Y-67214991D01*
X44975500Y-67189865D01*
X44975499Y-66690136D01*
X44975499Y-66690135D01*
X44975499Y-66690131D01*
X47834500Y-66690131D01*
X47834500Y-67189856D01*
X47834502Y-67189882D01*
X47837413Y-67214987D01*
X47837415Y-67214991D01*
X47870496Y-67289913D01*
X47879568Y-67359191D01*
X47870497Y-67390085D01*
X47837415Y-67465009D01*
X47834500Y-67490131D01*
X47834500Y-67989856D01*
X47834502Y-67989882D01*
X47837413Y-68014987D01*
X47837415Y-68014991D01*
X47882793Y-68117764D01*
X47882794Y-68117765D01*
X47962235Y-68197206D01*
X48065009Y-68242585D01*
X48090135Y-68245500D01*
X50449864Y-68245499D01*
X50449879Y-68245497D01*
X50449882Y-68245497D01*
X50474987Y-68242586D01*
X50474988Y-68242585D01*
X50474991Y-68242585D01*
X50577765Y-68197206D01*
X50657206Y-68117765D01*
X50702585Y-68014991D01*
X50705500Y-67989865D01*
X50705499Y-67490136D01*
X50703311Y-67471265D01*
X50702586Y-67465012D01*
X50702585Y-67465011D01*
X50702585Y-67465009D01*
X50669502Y-67390084D01*
X50660431Y-67320809D01*
X50669501Y-67289918D01*
X50702585Y-67214991D01*
X50705500Y-67189865D01*
X50705499Y-66690136D01*
X50705497Y-66690117D01*
X50702586Y-66665012D01*
X50702585Y-66665010D01*
X50702585Y-66665009D01*
X50657206Y-66562235D01*
X50577765Y-66482794D01*
X50547657Y-66469500D01*
X50474992Y-66437415D01*
X50449865Y-66434500D01*
X48090143Y-66434500D01*
X48090117Y-66434502D01*
X48065012Y-66437413D01*
X48065008Y-66437415D01*
X47962235Y-66482793D01*
X47882794Y-66562234D01*
X47837415Y-66665006D01*
X47837415Y-66665008D01*
X47834500Y-66690131D01*
X44975499Y-66690131D01*
X44975499Y-66690130D01*
X44972586Y-66665012D01*
X44972585Y-66665010D01*
X44972585Y-66665009D01*
X44927206Y-66562235D01*
X44847765Y-66482794D01*
X44817657Y-66469500D01*
X44744992Y-66437415D01*
X44719865Y-66434500D01*
X42360143Y-66434500D01*
X42360117Y-66434502D01*
X42335012Y-66437413D01*
X42335010Y-66437414D01*
X42286270Y-66458935D01*
X42236185Y-66469500D01*
X41916895Y-66469500D01*
X41849856Y-66449815D01*
X41804745Y-66398401D01*
X41150074Y-65010500D01*
X40862146Y-64400092D01*
X42974500Y-64400092D01*
X42974500Y-64549907D01*
X43003723Y-64696822D01*
X43003725Y-64696830D01*
X43061051Y-64835229D01*
X43061056Y-64835238D01*
X43144280Y-64959790D01*
X43144283Y-64959794D01*
X43250205Y-65065716D01*
X43250209Y-65065719D01*
X43374761Y-65148943D01*
X43374767Y-65148946D01*
X43374768Y-65148947D01*
X43513170Y-65206275D01*
X43660092Y-65235499D01*
X43660096Y-65235500D01*
X43660097Y-65235500D01*
X43809904Y-65235500D01*
X43809905Y-65235499D01*
X43956830Y-65206275D01*
X44095232Y-65148947D01*
X44219791Y-65065719D01*
X44325719Y-64959791D01*
X44408947Y-64835232D01*
X44466275Y-64696830D01*
X44495500Y-64549903D01*
X44495500Y-64400097D01*
X44466275Y-64253170D01*
X44408947Y-64114768D01*
X44408946Y-64114767D01*
X44408943Y-64114761D01*
X44325719Y-63990209D01*
X44325716Y-63990205D01*
X44219794Y-63884283D01*
X44219790Y-63884280D01*
X44095238Y-63801056D01*
X44095229Y-63801051D01*
X43956830Y-63743725D01*
X43956822Y-63743723D01*
X43809907Y-63714500D01*
X43809903Y-63714500D01*
X43660097Y-63714500D01*
X43660092Y-63714500D01*
X43513177Y-63743723D01*
X43513169Y-63743725D01*
X43374770Y-63801051D01*
X43374761Y-63801056D01*
X43250209Y-63884280D01*
X43250205Y-63884283D01*
X43144283Y-63990205D01*
X43144280Y-63990209D01*
X43061056Y-64114761D01*
X43061051Y-64114770D01*
X43003725Y-64253169D01*
X43003723Y-64253177D01*
X42974500Y-64400092D01*
X40862146Y-64400092D01*
X23948054Y-28542217D01*
X73819500Y-28542217D01*
X73819500Y-28542224D01*
X73819500Y-28542225D01*
X73819500Y-30537780D01*
X73819501Y-30537786D01*
X73825909Y-30597402D01*
X73825910Y-30597404D01*
X73876216Y-30732279D01*
X73962482Y-30847518D01*
X74077721Y-30933784D01*
X74077725Y-30933785D01*
X74077726Y-30933786D01*
X74212587Y-30984087D01*
X74212590Y-30984088D01*
X74212596Y-30984090D01*
X74272217Y-30990500D01*
X76267782Y-30990499D01*
X76327404Y-30984090D01*
X76462279Y-30933784D01*
X76577518Y-30847518D01*
X76663784Y-30732279D01*
X76714090Y-30597404D01*
X76720500Y-30537783D01*
X76720499Y-28542218D01*
X76714090Y-28482596D01*
X76663784Y-28347721D01*
X76577518Y-28232482D01*
X76462279Y-28146216D01*
X76462276Y-28146215D01*
X76462273Y-28146213D01*
X76327412Y-28095912D01*
X76327409Y-28095911D01*
X76327405Y-28095910D01*
X76327404Y-28095910D01*
X76267783Y-28089500D01*
X76267773Y-28089500D01*
X74272219Y-28089500D01*
X74272213Y-28089501D01*
X74212597Y-28095909D01*
X74077721Y-28146216D01*
X73962482Y-28232482D01*
X73876216Y-28347721D01*
X73876213Y-28347726D01*
X73825912Y-28482587D01*
X73825911Y-28482590D01*
X73825910Y-28482594D01*
X73825910Y-28482596D01*
X73819500Y-28542217D01*
X23948054Y-28542217D01*
X21983542Y-24377452D01*
X21978436Y-24358394D01*
X21957214Y-24321637D01*
X21939109Y-24283253D01*
X21939104Y-24283248D01*
X21939103Y-24283245D01*
X21933546Y-24276681D01*
X21920797Y-24258560D01*
X21916494Y-24251106D01*
X21916492Y-24251104D01*
X21916491Y-24251102D01*
X21890115Y-24224726D01*
X21886472Y-24221083D01*
X21859059Y-24188705D01*
X21842848Y-24177460D01*
X21828894Y-24163506D01*
X21792135Y-24142283D01*
X21757265Y-24118096D01*
X21738692Y-24111428D01*
X21729057Y-24105865D01*
X21729056Y-24105864D01*
X21721607Y-24101564D01*
X21685573Y-24091908D01*
X21675775Y-24088842D01*
X21640669Y-24076240D01*
X21640666Y-24076239D01*
X21640665Y-24076239D01*
X21640662Y-24076238D01*
X21640658Y-24076238D01*
X21632085Y-24075525D01*
X21632085Y-24075526D01*
X21620996Y-24074605D01*
X21601943Y-24069500D01*
X21559503Y-24069500D01*
X21554384Y-24069075D01*
X21554383Y-24069074D01*
X21517207Y-24065988D01*
X21517202Y-24065988D01*
X21510189Y-24067256D01*
X21508734Y-24067520D01*
X21486666Y-24069500D01*
X19114499Y-24069500D01*
X19047460Y-24049815D01*
X19001705Y-23997011D01*
X18990499Y-23945500D01*
X18990499Y-23542219D01*
X18990498Y-23542213D01*
X18984090Y-23482597D01*
X18984090Y-23482596D01*
X18933784Y-23347721D01*
X18847518Y-23232482D01*
X18732279Y-23146216D01*
X18732276Y-23146215D01*
X18732273Y-23146213D01*
X18597412Y-23095912D01*
X18597409Y-23095911D01*
X18597405Y-23095910D01*
X18597404Y-23095910D01*
X18537783Y-23089500D01*
X18537773Y-23089500D01*
X16542219Y-23089500D01*
X16542213Y-23089501D01*
X16482597Y-23095909D01*
X16347721Y-23146216D01*
X16232482Y-23232482D01*
X16146216Y-23347721D01*
X16146213Y-23347726D01*
X16095912Y-23482587D01*
X16095911Y-23482590D01*
X16095910Y-23482594D01*
X16095910Y-23482596D01*
X16089500Y-23542217D01*
X9500500Y-23542217D01*
X9500500Y-14878711D01*
X15689500Y-14878711D01*
X15689500Y-15121288D01*
X15721161Y-15361785D01*
X15783947Y-15596104D01*
X15876773Y-15820205D01*
X15876776Y-15820212D01*
X15998064Y-16030289D01*
X15998066Y-16030292D01*
X15998067Y-16030293D01*
X16145733Y-16222736D01*
X16145739Y-16222743D01*
X16317256Y-16394260D01*
X16317262Y-16394265D01*
X16509711Y-16541936D01*
X16719788Y-16663224D01*
X16943900Y-16756054D01*
X17178211Y-16818838D01*
X17358586Y-16842584D01*
X17418711Y-16850500D01*
X17418712Y-16850500D01*
X17661289Y-16850500D01*
X17709388Y-16844167D01*
X17901789Y-16818838D01*
X18136100Y-16756054D01*
X18360212Y-16663224D01*
X18570289Y-16541936D01*
X18762738Y-16394265D01*
X18934265Y-16222738D01*
X19081936Y-16030289D01*
X19203224Y-15820212D01*
X19296054Y-15596100D01*
X19358838Y-15361789D01*
X19390500Y-15121288D01*
X19390500Y-14878712D01*
X19390500Y-14878711D01*
X73419500Y-14878711D01*
X73419500Y-15121288D01*
X73451161Y-15361785D01*
X73513947Y-15596104D01*
X73606773Y-15820205D01*
X73606776Y-15820212D01*
X73728064Y-16030289D01*
X73728066Y-16030292D01*
X73728067Y-16030293D01*
X73875733Y-16222736D01*
X73875739Y-16222743D01*
X74047256Y-16394260D01*
X74047262Y-16394265D01*
X74239711Y-16541936D01*
X74449788Y-16663224D01*
X74673900Y-16756054D01*
X74908211Y-16818838D01*
X75088586Y-16842584D01*
X75148711Y-16850500D01*
X75148712Y-16850500D01*
X75391289Y-16850500D01*
X75439388Y-16844167D01*
X75631789Y-16818838D01*
X75866100Y-16756054D01*
X76090212Y-16663224D01*
X76300289Y-16541936D01*
X76492738Y-16394265D01*
X76664265Y-16222738D01*
X76811936Y-16030289D01*
X76933224Y-15820212D01*
X77026054Y-15596100D01*
X77088838Y-15361789D01*
X77120500Y-15121288D01*
X77120500Y-14878712D01*
X77088838Y-14638211D01*
X77026054Y-14403900D01*
X76933224Y-14179788D01*
X76811936Y-13969711D01*
X76664265Y-13777262D01*
X76664260Y-13777256D01*
X76492743Y-13605739D01*
X76492736Y-13605733D01*
X76300293Y-13458067D01*
X76300292Y-13458066D01*
X76300289Y-13458064D01*
X76090212Y-13336776D01*
X76090205Y-13336773D01*
X75866104Y-13243947D01*
X75631785Y-13181161D01*
X75391289Y-13149500D01*
X75391288Y-13149500D01*
X75148712Y-13149500D01*
X75148711Y-13149500D01*
X74908214Y-13181161D01*
X74673895Y-13243947D01*
X74449794Y-13336773D01*
X74449785Y-13336777D01*
X74239706Y-13458067D01*
X74047263Y-13605733D01*
X74047256Y-13605739D01*
X73875739Y-13777256D01*
X73875733Y-13777263D01*
X73728067Y-13969706D01*
X73606777Y-14179785D01*
X73606773Y-14179794D01*
X73513947Y-14403895D01*
X73451161Y-14638214D01*
X73419500Y-14878711D01*
X19390500Y-14878711D01*
X19358838Y-14638211D01*
X19296054Y-14403900D01*
X19203224Y-14179788D01*
X19081936Y-13969711D01*
X18934265Y-13777262D01*
X18934260Y-13777256D01*
X18762743Y-13605739D01*
X18762736Y-13605733D01*
X18570293Y-13458067D01*
X18570292Y-13458066D01*
X18570289Y-13458064D01*
X18360212Y-13336776D01*
X18360205Y-13336773D01*
X18136104Y-13243947D01*
X17901785Y-13181161D01*
X17661289Y-13149500D01*
X17661288Y-13149500D01*
X17418712Y-13149500D01*
X17418711Y-13149500D01*
X17178214Y-13181161D01*
X16943895Y-13243947D01*
X16719794Y-13336773D01*
X16719785Y-13336777D01*
X16509706Y-13458067D01*
X16317263Y-13605733D01*
X16317256Y-13605739D01*
X16145739Y-13777256D01*
X16145733Y-13777263D01*
X15998067Y-13969706D01*
X15876777Y-14179785D01*
X15876773Y-14179794D01*
X15783947Y-14403895D01*
X15721161Y-14638214D01*
X15689500Y-14878711D01*
X9500500Y-14878711D01*
X9500500Y-10624500D01*
X9520185Y-10557461D01*
X9572989Y-10511706D01*
X9624500Y-10500500D01*
X83185500Y-10500500D01*
X83252539Y-10520185D01*
G37*
%TD.AperFunction*%
%TD*%
M02*
