%TF.GenerationSoftware,KiCad,Pcbnew,10.0.3*%
%TF.CreationDate,2026-06-17T00:20:36-04:00*%
%TF.ProjectId,board-B-sma,626f6172-642d-4422-9d73-6d612e6b6963,rev?*%
%TF.SameCoordinates,Original*%
%TF.FileFunction,Paste,Top*%
%TF.FilePolarity,Positive*%
%FSLAX46Y46*%
G04 Gerber Fmt 4.6, Leading zero omitted, Abs format (unit mm)*
G04 Created by KiCad (PCBNEW 10.0.3) date 2026-06-17 00:20:36*
%MOMM*%
%LPD*%
G01*
G04 APERTURE LIST*
%ADD10R,2.270000X0.410000*%
%ADD11R,0.430000X2.540000*%
%ADD12R,0.430000X4.700000*%
G04 APERTURE END LIST*
D10*
%TO.C,J5*%
X49270000Y-102140000D03*
X43540000Y-102140000D03*
X49270000Y-101340000D03*
X43540000Y-101340000D03*
X49270000Y-100540000D03*
X43540000Y-100540000D03*
X49270000Y-99740000D03*
X43540000Y-99740000D03*
X49270000Y-98940000D03*
X43540000Y-98940000D03*
X49270000Y-98140000D03*
X43540000Y-98140000D03*
X49270000Y-97340000D03*
X43540000Y-97340000D03*
X49270000Y-96540000D03*
X43540000Y-96540000D03*
X49270000Y-95740000D03*
X43540000Y-95740000D03*
X49270000Y-94940000D03*
X43540000Y-94940000D03*
X49270000Y-94140000D03*
X43540000Y-94140000D03*
X49270000Y-93340000D03*
X43540000Y-93340000D03*
X49270000Y-92540000D03*
X43540000Y-92540000D03*
X49270000Y-91740000D03*
X43540000Y-91740000D03*
X49270000Y-90940000D03*
X43540000Y-90940000D03*
X49270000Y-90140000D03*
X43540000Y-90140000D03*
X49270000Y-89340000D03*
X43540000Y-89340000D03*
X49270000Y-88540000D03*
X43540000Y-88540000D03*
X49270000Y-87740000D03*
X43540000Y-87740000D03*
X49270000Y-86940000D03*
X43540000Y-86940000D03*
X49270000Y-82140000D03*
X43540000Y-82140000D03*
X49270000Y-81340000D03*
X43540000Y-81340000D03*
X49270000Y-80540000D03*
X43540000Y-80540000D03*
X49270000Y-79740000D03*
X43540000Y-79740000D03*
X49270000Y-78940000D03*
X43540000Y-78940000D03*
X49270000Y-78140000D03*
X43540000Y-78140000D03*
X49270000Y-77340000D03*
X43540000Y-77340000D03*
X49270000Y-76540000D03*
X43540000Y-76540000D03*
X49270000Y-75740000D03*
X43540000Y-75740000D03*
X49270000Y-74940000D03*
X43540000Y-74940000D03*
X49270000Y-74140000D03*
X43540000Y-74140000D03*
X49270000Y-73340000D03*
X43540000Y-73340000D03*
X49270000Y-72540000D03*
X43540000Y-72540000D03*
X49270000Y-71740000D03*
X43540000Y-71740000D03*
X49270000Y-70940000D03*
X43540000Y-70940000D03*
X49270000Y-70140000D03*
X43540000Y-70140000D03*
X49270000Y-69340000D03*
X43540000Y-69340000D03*
X49270000Y-68540000D03*
X43540000Y-68540000D03*
X49270000Y-67740000D03*
X43540000Y-67740000D03*
X49270000Y-66940000D03*
X43540000Y-66940000D03*
D11*
X46405000Y-102605000D03*
D12*
X46405000Y-97715000D03*
X46405000Y-91365000D03*
D11*
X46405000Y-86475000D03*
X46405000Y-82605000D03*
D12*
X46405000Y-77715000D03*
X46405000Y-71365000D03*
D11*
X46405000Y-66475000D03*
%TD*%
M02*
