M48
; DRILL file KiCad 10.0.3 date 2026-06-17T00:20:37
; FORMAT={-:-/ absolute / metric / decimal}
; #@! TF.CreationDate,2026-06-17T00:20:37-04:00
; #@! TF.GenerationSoftware,Kicad,Pcbnew,10.0.3
; #@! TF.FileFunction,MixedPlating,1,4
FMAT,2
METRIC
; #@! TA.AperFunction,Plated,PTH,ViaDrill
T1C0.300
; #@! TA.AperFunction,Plated,PTH,ComponentDrill
T2C1.500
; #@! TA.AperFunction,Plated,PTH,ComponentDrill
T3C1.700
; #@! TA.AperFunction,NonPlated,NPTH,ComponentDrill
T4C1.020
; #@! TA.AperFunction,NonPlated,NPTH,ComponentDrill
T5C3.200
%
G90
G05
T1
X11.925Y-12.925
X11.925Y-156.155
X23.925Y-12.925
X23.925Y-156.155
X29.925Y-12.925
X29.925Y-156.155
X35.925Y-12.925
X35.925Y-156.155
X41.54Y-76.54
X41.54Y-78.14
X41.54Y-90.94
X41.54Y-92.54
X41.925Y-12.925
X41.925Y-156.155
X47.925Y-12.925
X47.925Y-156.155
X53.925Y-12.925
X53.925Y-156.155
X59.925Y-12.925
X59.925Y-156.155
X65.925Y-12.925
X65.925Y-156.155
X71.925Y-12.925
X71.925Y-156.155
T2
X17.54Y-24.54
X17.54Y-34.54
X17.54Y-44.54
X17.54Y-54.54
X17.54Y-64.54
X17.54Y-74.54
X17.54Y-84.54
X17.54Y-94.54
X17.54Y-104.54
X17.54Y-114.54
X17.54Y-124.54
X17.54Y-134.54
X17.54Y-144.54
X75.27Y-29.54
X75.27Y-39.54
X75.27Y-49.54
X75.27Y-59.54
X75.27Y-69.54
X75.27Y-79.54
X75.27Y-89.54
X75.27Y-99.54
X75.27Y-109.54
X75.27Y-119.54
X75.27Y-129.54
X75.27Y-139.54
T3
X15.0Y-22.0
X15.0Y-27.08
X15.0Y-32.0
X15.0Y-37.08
X15.0Y-42.0
X15.0Y-47.08
X15.0Y-52.0
X15.0Y-57.08
X15.0Y-62.0
X15.0Y-67.08
X15.0Y-72.0
X15.0Y-77.08
X15.0Y-82.0
X15.0Y-87.08
X15.0Y-92.0
X15.0Y-97.08
X15.0Y-102.0
X15.0Y-107.08
X15.0Y-112.0
X15.0Y-117.08
X15.0Y-122.0
X15.0Y-127.08
X15.0Y-132.0
X15.0Y-137.08
X15.0Y-142.0
X15.0Y-147.08
X20.08Y-22.0
X20.08Y-27.08
X20.08Y-32.0
X20.08Y-37.08
X20.08Y-42.0
X20.08Y-47.08
X20.08Y-52.0
X20.08Y-57.08
X20.08Y-62.0
X20.08Y-67.08
X20.08Y-72.0
X20.08Y-77.08
X20.08Y-82.0
X20.08Y-87.08
X20.08Y-92.0
X20.08Y-97.08
X20.08Y-102.0
X20.08Y-107.08
X20.08Y-112.0
X20.08Y-117.08
X20.08Y-122.0
X20.08Y-127.08
X20.08Y-132.0
X20.08Y-137.08
X20.08Y-142.0
X20.08Y-147.08
X72.73Y-27.0
X72.73Y-32.08
X72.73Y-37.0
X72.73Y-42.08
X72.73Y-47.0
X72.73Y-52.08
X72.73Y-57.0
X72.73Y-62.08
X72.73Y-67.0
X72.73Y-72.08
X72.73Y-77.0
X72.73Y-82.08
X72.73Y-87.0
X72.73Y-92.08
X72.73Y-97.0
X72.73Y-102.08
X72.73Y-107.0
X72.73Y-112.08
X72.73Y-117.0
X72.73Y-122.08
X72.73Y-127.0
X72.73Y-132.08
X72.73Y-137.0
X72.73Y-142.08
X77.81Y-27.0
X77.81Y-32.08
X77.81Y-37.0
X77.81Y-42.08
X77.81Y-47.0
X77.81Y-52.08
X77.81Y-57.0
X77.81Y-62.08
X77.81Y-67.0
X77.81Y-72.08
X77.81Y-77.0
X77.81Y-82.08
X77.81Y-87.0
X77.81Y-92.08
X77.81Y-97.0
X77.81Y-102.08
X77.81Y-107.0
X77.81Y-112.08
X77.81Y-117.0
X77.81Y-122.08
X77.81Y-127.0
X77.81Y-132.08
X77.81Y-137.0
X77.81Y-142.08
T4
X43.735Y-64.475
X43.735Y-104.605
T5
X17.54Y-15.0
X17.54Y-154.08
X75.27Y-15.0
X75.27Y-154.08
M30
