%TF.GenerationSoftware,KiCad,Pcbnew,10.0.3*%
%TF.CreationDate,2026-06-22T23:05:30-04:00*%
%TF.ProjectId,board-C-ufl,626f6172-642d-4432-9d75-666c2e6b6963,rev?*%
%TF.SameCoordinates,Original*%
%TF.FileFunction,AssemblyDrawing,Bot*%
%FSLAX46Y46*%
G04 Gerber Fmt 4.6, Leading zero omitted, Abs format (unit mm)*
G04 Created by KiCad (PCBNEW 10.0.3) date 2026-06-22 23:05:30*
%MOMM*%
%LPD*%
G01*
G04 APERTURE LIST*
%ADD10C,0.150000*%
%ADD11C,0.100000*%
%ADD12C,0.200000*%
G04 APERTURE END LIST*
D10*
X38557200Y-54426667D02*
X38604819Y-54569524D01*
X38604819Y-54569524D02*
X38604819Y-54807619D01*
X38604819Y-54807619D02*
X38557200Y-54902857D01*
X38557200Y-54902857D02*
X38509580Y-54950476D01*
X38509580Y-54950476D02*
X38414342Y-54998095D01*
X38414342Y-54998095D02*
X38319104Y-54998095D01*
X38319104Y-54998095D02*
X38223866Y-54950476D01*
X38223866Y-54950476D02*
X38176247Y-54902857D01*
X38176247Y-54902857D02*
X38128628Y-54807619D01*
X38128628Y-54807619D02*
X38081009Y-54617143D01*
X38081009Y-54617143D02*
X38033390Y-54521905D01*
X38033390Y-54521905D02*
X37985771Y-54474286D01*
X37985771Y-54474286D02*
X37890533Y-54426667D01*
X37890533Y-54426667D02*
X37795295Y-54426667D01*
X37795295Y-54426667D02*
X37700057Y-54474286D01*
X37700057Y-54474286D02*
X37652438Y-54521905D01*
X37652438Y-54521905D02*
X37604819Y-54617143D01*
X37604819Y-54617143D02*
X37604819Y-54855238D01*
X37604819Y-54855238D02*
X37652438Y-54998095D01*
X38319104Y-55379048D02*
X38319104Y-55855238D01*
X38604819Y-55283810D02*
X37604819Y-55617143D01*
X37604819Y-55617143D02*
X38604819Y-55950476D01*
X38604819Y-56283810D02*
X37604819Y-56283810D01*
X37604819Y-56283810D02*
X38319104Y-56617143D01*
X38319104Y-56617143D02*
X37604819Y-56950476D01*
X37604819Y-56950476D02*
X38604819Y-56950476D01*
X37604819Y-57283810D02*
X37604819Y-57855238D01*
X38604819Y-57569524D02*
X37604819Y-57569524D01*
X38081009Y-58188572D02*
X38081009Y-58521905D01*
X38604819Y-58664762D02*
X38604819Y-58188572D01*
X38604819Y-58188572D02*
X37604819Y-58188572D01*
X37604819Y-58188572D02*
X37604819Y-58664762D01*
X38509580Y-59664762D02*
X38557200Y-59617143D01*
X38557200Y-59617143D02*
X38604819Y-59474286D01*
X38604819Y-59474286D02*
X38604819Y-59379048D01*
X38604819Y-59379048D02*
X38557200Y-59236191D01*
X38557200Y-59236191D02*
X38461961Y-59140953D01*
X38461961Y-59140953D02*
X38366723Y-59093334D01*
X38366723Y-59093334D02*
X38176247Y-59045715D01*
X38176247Y-59045715D02*
X38033390Y-59045715D01*
X38033390Y-59045715D02*
X37842914Y-59093334D01*
X37842914Y-59093334D02*
X37747676Y-59140953D01*
X37747676Y-59140953D02*
X37652438Y-59236191D01*
X37652438Y-59236191D02*
X37604819Y-59379048D01*
X37604819Y-59379048D02*
X37604819Y-59474286D01*
X37604819Y-59474286D02*
X37652438Y-59617143D01*
X37652438Y-59617143D02*
X37700057Y-59664762D01*
X38700057Y-59855239D02*
X38700057Y-60617143D01*
X38700057Y-61521905D02*
X38652438Y-61426667D01*
X38652438Y-61426667D02*
X38557200Y-61331429D01*
X38557200Y-61331429D02*
X38414342Y-61188572D01*
X38414342Y-61188572D02*
X38366723Y-61093334D01*
X38366723Y-61093334D02*
X38366723Y-60998096D01*
X38604819Y-61045715D02*
X38557200Y-60950477D01*
X38557200Y-60950477D02*
X38461961Y-60855239D01*
X38461961Y-60855239D02*
X38271485Y-60807620D01*
X38271485Y-60807620D02*
X37938152Y-60807620D01*
X37938152Y-60807620D02*
X37747676Y-60855239D01*
X37747676Y-60855239D02*
X37652438Y-60950477D01*
X37652438Y-60950477D02*
X37604819Y-61045715D01*
X37604819Y-61045715D02*
X37604819Y-61236191D01*
X37604819Y-61236191D02*
X37652438Y-61331429D01*
X37652438Y-61331429D02*
X37747676Y-61426667D01*
X37747676Y-61426667D02*
X37938152Y-61474286D01*
X37938152Y-61474286D02*
X38271485Y-61474286D01*
X38271485Y-61474286D02*
X38461961Y-61426667D01*
X38461961Y-61426667D02*
X38557200Y-61331429D01*
X38557200Y-61331429D02*
X38604819Y-61236191D01*
X38604819Y-61236191D02*
X38604819Y-61045715D01*
X38557200Y-61855239D02*
X38604819Y-61998096D01*
X38604819Y-61998096D02*
X38604819Y-62236191D01*
X38604819Y-62236191D02*
X38557200Y-62331429D01*
X38557200Y-62331429D02*
X38509580Y-62379048D01*
X38509580Y-62379048D02*
X38414342Y-62426667D01*
X38414342Y-62426667D02*
X38319104Y-62426667D01*
X38319104Y-62426667D02*
X38223866Y-62379048D01*
X38223866Y-62379048D02*
X38176247Y-62331429D01*
X38176247Y-62331429D02*
X38128628Y-62236191D01*
X38128628Y-62236191D02*
X38081009Y-62045715D01*
X38081009Y-62045715D02*
X38033390Y-61950477D01*
X38033390Y-61950477D02*
X37985771Y-61902858D01*
X37985771Y-61902858D02*
X37890533Y-61855239D01*
X37890533Y-61855239D02*
X37795295Y-61855239D01*
X37795295Y-61855239D02*
X37700057Y-61902858D01*
X37700057Y-61902858D02*
X37652438Y-61950477D01*
X37652438Y-61950477D02*
X37604819Y-62045715D01*
X37604819Y-62045715D02*
X37604819Y-62283810D01*
X37604819Y-62283810D02*
X37652438Y-62426667D01*
X38081009Y-62855239D02*
X38081009Y-63188572D01*
X38604819Y-63331429D02*
X38604819Y-62855239D01*
X38604819Y-62855239D02*
X37604819Y-62855239D01*
X37604819Y-62855239D02*
X37604819Y-63331429D01*
X38223866Y-63760001D02*
X38223866Y-64521906D01*
X37604819Y-65188572D02*
X37604819Y-65283810D01*
X37604819Y-65283810D02*
X37652438Y-65379048D01*
X37652438Y-65379048D02*
X37700057Y-65426667D01*
X37700057Y-65426667D02*
X37795295Y-65474286D01*
X37795295Y-65474286D02*
X37985771Y-65521905D01*
X37985771Y-65521905D02*
X38223866Y-65521905D01*
X38223866Y-65521905D02*
X38414342Y-65474286D01*
X38414342Y-65474286D02*
X38509580Y-65426667D01*
X38509580Y-65426667D02*
X38557200Y-65379048D01*
X38557200Y-65379048D02*
X38604819Y-65283810D01*
X38604819Y-65283810D02*
X38604819Y-65188572D01*
X38604819Y-65188572D02*
X38557200Y-65093334D01*
X38557200Y-65093334D02*
X38509580Y-65045715D01*
X38509580Y-65045715D02*
X38414342Y-64998096D01*
X38414342Y-64998096D02*
X38223866Y-64950477D01*
X38223866Y-64950477D02*
X37985771Y-64950477D01*
X37985771Y-64950477D02*
X37795295Y-64998096D01*
X37795295Y-64998096D02*
X37700057Y-65045715D01*
X37700057Y-65045715D02*
X37652438Y-65093334D01*
X37652438Y-65093334D02*
X37604819Y-65188572D01*
X37938152Y-66379048D02*
X38604819Y-66379048D01*
X37557200Y-66140953D02*
X38271485Y-65902858D01*
X38271485Y-65902858D02*
X38271485Y-66521905D01*
X37604819Y-67093334D02*
X37604819Y-67188572D01*
X37604819Y-67188572D02*
X37652438Y-67283810D01*
X37652438Y-67283810D02*
X37700057Y-67331429D01*
X37700057Y-67331429D02*
X37795295Y-67379048D01*
X37795295Y-67379048D02*
X37985771Y-67426667D01*
X37985771Y-67426667D02*
X38223866Y-67426667D01*
X38223866Y-67426667D02*
X38414342Y-67379048D01*
X38414342Y-67379048D02*
X38509580Y-67331429D01*
X38509580Y-67331429D02*
X38557200Y-67283810D01*
X38557200Y-67283810D02*
X38604819Y-67188572D01*
X38604819Y-67188572D02*
X38604819Y-67093334D01*
X38604819Y-67093334D02*
X38557200Y-66998096D01*
X38557200Y-66998096D02*
X38509580Y-66950477D01*
X38509580Y-66950477D02*
X38414342Y-66902858D01*
X38414342Y-66902858D02*
X38223866Y-66855239D01*
X38223866Y-66855239D02*
X37985771Y-66855239D01*
X37985771Y-66855239D02*
X37795295Y-66902858D01*
X37795295Y-66902858D02*
X37700057Y-66950477D01*
X37700057Y-66950477D02*
X37652438Y-66998096D01*
X37652438Y-66998096D02*
X37604819Y-67093334D01*
X38223866Y-67855239D02*
X38223866Y-68617144D01*
X37604819Y-69283810D02*
X37604819Y-69379048D01*
X37604819Y-69379048D02*
X37652438Y-69474286D01*
X37652438Y-69474286D02*
X37700057Y-69521905D01*
X37700057Y-69521905D02*
X37795295Y-69569524D01*
X37795295Y-69569524D02*
X37985771Y-69617143D01*
X37985771Y-69617143D02*
X38223866Y-69617143D01*
X38223866Y-69617143D02*
X38414342Y-69569524D01*
X38414342Y-69569524D02*
X38509580Y-69521905D01*
X38509580Y-69521905D02*
X38557200Y-69474286D01*
X38557200Y-69474286D02*
X38604819Y-69379048D01*
X38604819Y-69379048D02*
X38604819Y-69283810D01*
X38604819Y-69283810D02*
X38557200Y-69188572D01*
X38557200Y-69188572D02*
X38509580Y-69140953D01*
X38509580Y-69140953D02*
X38414342Y-69093334D01*
X38414342Y-69093334D02*
X38223866Y-69045715D01*
X38223866Y-69045715D02*
X37985771Y-69045715D01*
X37985771Y-69045715D02*
X37795295Y-69093334D01*
X37795295Y-69093334D02*
X37700057Y-69140953D01*
X37700057Y-69140953D02*
X37652438Y-69188572D01*
X37652438Y-69188572D02*
X37604819Y-69283810D01*
X38604819Y-70569524D02*
X38604819Y-69998096D01*
X38604819Y-70283810D02*
X37604819Y-70283810D01*
X37604819Y-70283810D02*
X37747676Y-70188572D01*
X37747676Y-70188572D02*
X37842914Y-70093334D01*
X37842914Y-70093334D02*
X37890533Y-69998096D01*
X38223866Y-70998096D02*
X38223866Y-71760001D01*
X37604819Y-72140953D02*
X38604819Y-72807619D01*
X37604819Y-72807619D02*
X38604819Y-72140953D01*
X38223866Y-73188572D02*
X38223866Y-73950477D01*
X38604819Y-74426667D02*
X37604819Y-74426667D01*
X37604819Y-74426667D02*
X37604819Y-74664762D01*
X37604819Y-74664762D02*
X37652438Y-74807619D01*
X37652438Y-74807619D02*
X37747676Y-74902857D01*
X37747676Y-74902857D02*
X37842914Y-74950476D01*
X37842914Y-74950476D02*
X38033390Y-74998095D01*
X38033390Y-74998095D02*
X38176247Y-74998095D01*
X38176247Y-74998095D02*
X38366723Y-74950476D01*
X38366723Y-74950476D02*
X38461961Y-74902857D01*
X38461961Y-74902857D02*
X38557200Y-74807619D01*
X38557200Y-74807619D02*
X38604819Y-74664762D01*
X38604819Y-74664762D02*
X38604819Y-74426667D01*
X38223866Y-75426667D02*
X38223866Y-76188572D01*
X38319104Y-76617143D02*
X38319104Y-77093333D01*
X38604819Y-76521905D02*
X37604819Y-76855238D01*
X37604819Y-76855238D02*
X38604819Y-77188571D01*
%TO.C,J5*%
D11*
X40245000Y-38835000D02*
X40245000Y-80115000D01*
X40245000Y-80115000D02*
X47485000Y-80115000D01*
X47485000Y-38835000D02*
X40245000Y-38835000D01*
X47485000Y-80115000D02*
X47485000Y-38835000D01*
D12*
X39265000Y-77075000D02*
G75*
G02*
X39065000Y-77075000I-100000J0D01*
G01*
X39065000Y-77075000D02*
G75*
G02*
X39265000Y-77075000I100000J0D01*
G01*
%TD*%
M02*
