%TF.GenerationSoftware,KiCad,Pcbnew,10.0.3*%
%TF.CreationDate,2026-06-22T23:05:30-04:00*%
%TF.ProjectId,board-C-ufl,626f6172-642d-4432-9d75-666c2e6b6963,rev?*%
%TF.SameCoordinates,Original*%
%TF.FileFunction,Paste,Bot*%
%TF.FilePolarity,Positive*%
%FSLAX46Y46*%
G04 Gerber Fmt 4.6, Leading zero omitted, Abs format (unit mm)*
G04 Created by KiCad (PCBNEW 10.0.3) date 2026-06-22 23:05:30*
%MOMM*%
%LPD*%
G01*
G04 APERTURE LIST*
%ADD10R,2.270000X0.410000*%
%ADD11R,0.430000X2.540000*%
%ADD12R,0.430000X4.700000*%
G04 APERTURE END LIST*
D10*
%TO.C,J5*%
X41000000Y-77075000D03*
X46730000Y-77075000D03*
X41000000Y-76275000D03*
X46730000Y-76275000D03*
X41000000Y-75475000D03*
X46730000Y-75475000D03*
X41000000Y-74675000D03*
X46730000Y-74675000D03*
X41000000Y-73875000D03*
X46730000Y-73875000D03*
X41000000Y-73075000D03*
X46730000Y-73075000D03*
X41000000Y-72275000D03*
X46730000Y-72275000D03*
X41000000Y-71475000D03*
X46730000Y-71475000D03*
X41000000Y-70675000D03*
X46730000Y-70675000D03*
X41000000Y-69875000D03*
X46730000Y-69875000D03*
X41000000Y-69075000D03*
X46730000Y-69075000D03*
X41000000Y-68275000D03*
X46730000Y-68275000D03*
X41000000Y-67475000D03*
X46730000Y-67475000D03*
X41000000Y-66675000D03*
X46730000Y-66675000D03*
X41000000Y-65875000D03*
X46730000Y-65875000D03*
X41000000Y-65075000D03*
X46730000Y-65075000D03*
X41000000Y-64275000D03*
X46730000Y-64275000D03*
X41000000Y-63475000D03*
X46730000Y-63475000D03*
X41000000Y-62675000D03*
X46730000Y-62675000D03*
X41000000Y-61875000D03*
X46730000Y-61875000D03*
X41000000Y-57075000D03*
X46730000Y-57075000D03*
X41000000Y-56275000D03*
X46730000Y-56275000D03*
X41000000Y-55475000D03*
X46730000Y-55475000D03*
X41000000Y-54675000D03*
X46730000Y-54675000D03*
X41000000Y-53875000D03*
X46730000Y-53875000D03*
X41000000Y-53075000D03*
X46730000Y-53075000D03*
X41000000Y-52275000D03*
X46730000Y-52275000D03*
X41000000Y-51475000D03*
X46730000Y-51475000D03*
X41000000Y-50675000D03*
X46730000Y-50675000D03*
X41000000Y-49875000D03*
X46730000Y-49875000D03*
X41000000Y-49075000D03*
X46730000Y-49075000D03*
X41000000Y-48275000D03*
X46730000Y-48275000D03*
X41000000Y-47475000D03*
X46730000Y-47475000D03*
X41000000Y-46675000D03*
X46730000Y-46675000D03*
X41000000Y-45875000D03*
X46730000Y-45875000D03*
X41000000Y-45075000D03*
X46730000Y-45075000D03*
X41000000Y-44275000D03*
X46730000Y-44275000D03*
X41000000Y-43475000D03*
X46730000Y-43475000D03*
X41000000Y-42675000D03*
X46730000Y-42675000D03*
X41000000Y-41875000D03*
X46730000Y-41875000D03*
D11*
X43865000Y-77540000D03*
D12*
X43865000Y-72650000D03*
X43865000Y-66300000D03*
D11*
X43865000Y-61410000D03*
X43865000Y-57540000D03*
D12*
X43865000Y-52650000D03*
X43865000Y-46300000D03*
D11*
X43865000Y-41410000D03*
%TD*%
M02*
