M48
; DRILL file KiCad 10.0.3 date 2026-06-17T00:20:39
; FORMAT={-:-/ absolute / metric / decimal}
; #@! TF.CreationDate,2026-06-17T00:20:39-04:00
; #@! TF.GenerationSoftware,Kicad,Pcbnew,10.0.3
; #@! TF.FileFunction,MixedPlating,1,4
FMAT,2
METRIC
; #@! TA.AperFunction,Plated,PTH,ViaDrill
T1C0.300
; #@! TA.AperFunction,NonPlated,NPTH,ComponentDrill
T2C1.020
; #@! TA.AperFunction,NonPlated,NPTH,ComponentDrill
T3C3.200
%
G90
G05
T1
X11.925Y-12.925
X11.925Y-106.025
X23.925Y-12.925
X23.925Y-106.025
X29.925Y-12.925
X29.925Y-106.025
X35.925Y-12.925
X35.925Y-106.025
X39.0Y-51.475
X39.0Y-53.075
X39.0Y-65.875
X39.0Y-67.475
X41.925Y-12.925
X41.925Y-106.025
X47.925Y-12.925
X47.925Y-106.025
X53.925Y-12.925
X53.925Y-106.025
X59.925Y-12.925
X59.925Y-106.025
X65.925Y-12.925
X65.925Y-106.025
X67.205Y-26.475
X67.205Y-38.475
X67.205Y-80.475
X67.205Y-92.475
T2
X41.195Y-39.41
X41.195Y-79.54
T3
X16.525Y-15.0
X16.525Y-103.95
X71.205Y-15.0
X71.205Y-103.95
M30
