%TF.GenerationSoftware,KiCad,Pcbnew,10.0.3*%
%TF.CreationDate,2026-06-17T00:20:38-04:00*%
%TF.ProjectId,board-C-ufl,626f6172-642d-4432-9d75-666c2e6b6963,rev?*%
%TF.SameCoordinates,Original*%
%TF.FileFunction,Copper,L2,Inr*%
%TF.FilePolarity,Positive*%
%FSLAX46Y46*%
G04 Gerber Fmt 4.6, Leading zero omitted, Abs format (unit mm)*
G04 Created by KiCad (PCBNEW 10.0.3) date 2026-06-17 00:20:38*
%MOMM*%
%LPD*%
G01*
G04 APERTURE LIST*
%TA.AperFunction,ViaPad*%
%ADD10C,0.600000*%
%TD*%
G04 APERTURE END LIST*
D10*
%TO.N,GNDA*%
X29925000Y-12925000D03*
X47925000Y-106025000D03*
X35925000Y-12925000D03*
X59925000Y-12925000D03*
X59925000Y-106025000D03*
X65925000Y-12925000D03*
X23925000Y-106025000D03*
X35925000Y-106025000D03*
X41925000Y-106025000D03*
X29925000Y-106025000D03*
X47925000Y-12925000D03*
X11925000Y-12925000D03*
X11925000Y-106025000D03*
X53925000Y-12925000D03*
X53925000Y-106025000D03*
X41925000Y-12925000D03*
X23925000Y-12925000D03*
X65925000Y-106025000D03*
%TO.N,SIPM_K1*%
X67205000Y-92475000D03*
X39000000Y-67475000D03*
%TO.N,SIPM_K0*%
X39000000Y-65875000D03*
X67205000Y-80475000D03*
%TO.N,SIPM_K23*%
X67205000Y-38475000D03*
X39000000Y-53075000D03*
%TO.N,SIPM_K22*%
X39000000Y-51475000D03*
X67205000Y-26475000D03*
%TD*%
%TA.AperFunction,Conductor*%
%TO.N,GNDA*%
G36*
X78172539Y-10520185D02*
G01*
X78218294Y-10572989D01*
X78229500Y-10624500D01*
X78229500Y-108325500D01*
X78209815Y-108392539D01*
X78157011Y-108438294D01*
X78105500Y-108449500D01*
X9624500Y-108449500D01*
X9557461Y-108429815D01*
X9511706Y-108377011D01*
X9500500Y-108325500D01*
X9500500Y-103828711D01*
X14674500Y-103828711D01*
X14674500Y-104071288D01*
X14706161Y-104311785D01*
X14768947Y-104546104D01*
X14861773Y-104770205D01*
X14861776Y-104770212D01*
X14983064Y-104980289D01*
X14983066Y-104980292D01*
X14983067Y-104980293D01*
X15130733Y-105172736D01*
X15130739Y-105172743D01*
X15302256Y-105344260D01*
X15302262Y-105344265D01*
X15494711Y-105491936D01*
X15704788Y-105613224D01*
X15928900Y-105706054D01*
X16163211Y-105768838D01*
X16343586Y-105792584D01*
X16403711Y-105800500D01*
X16403712Y-105800500D01*
X16646289Y-105800500D01*
X16694388Y-105794167D01*
X16886789Y-105768838D01*
X17121100Y-105706054D01*
X17345212Y-105613224D01*
X17555289Y-105491936D01*
X17747738Y-105344265D01*
X17919265Y-105172738D01*
X18066936Y-104980289D01*
X18188224Y-104770212D01*
X18281054Y-104546100D01*
X18343838Y-104311789D01*
X18375500Y-104071288D01*
X18375500Y-103828712D01*
X18375500Y-103828711D01*
X69354500Y-103828711D01*
X69354500Y-104071288D01*
X69386161Y-104311785D01*
X69448947Y-104546104D01*
X69541773Y-104770205D01*
X69541776Y-104770212D01*
X69663064Y-104980289D01*
X69663066Y-104980292D01*
X69663067Y-104980293D01*
X69810733Y-105172736D01*
X69810739Y-105172743D01*
X69982256Y-105344260D01*
X69982262Y-105344265D01*
X70174711Y-105491936D01*
X70384788Y-105613224D01*
X70608900Y-105706054D01*
X70843211Y-105768838D01*
X71023586Y-105792584D01*
X71083711Y-105800500D01*
X71083712Y-105800500D01*
X71326289Y-105800500D01*
X71374388Y-105794167D01*
X71566789Y-105768838D01*
X71801100Y-105706054D01*
X72025212Y-105613224D01*
X72235289Y-105491936D01*
X72427738Y-105344265D01*
X72599265Y-105172738D01*
X72746936Y-104980289D01*
X72868224Y-104770212D01*
X72961054Y-104546100D01*
X73023838Y-104311789D01*
X73055500Y-104071288D01*
X73055500Y-103828712D01*
X73023838Y-103588211D01*
X72961054Y-103353900D01*
X72868224Y-103129788D01*
X72746936Y-102919711D01*
X72599265Y-102727262D01*
X72599260Y-102727256D01*
X72427743Y-102555739D01*
X72427736Y-102555733D01*
X72235293Y-102408067D01*
X72235292Y-102408066D01*
X72235289Y-102408064D01*
X72025212Y-102286776D01*
X72025205Y-102286773D01*
X71801104Y-102193947D01*
X71566785Y-102131161D01*
X71326289Y-102099500D01*
X71326288Y-102099500D01*
X71083712Y-102099500D01*
X71083711Y-102099500D01*
X70843214Y-102131161D01*
X70608895Y-102193947D01*
X70384794Y-102286773D01*
X70384785Y-102286777D01*
X70174706Y-102408067D01*
X69982263Y-102555733D01*
X69982256Y-102555739D01*
X69810739Y-102727256D01*
X69810733Y-102727263D01*
X69663067Y-102919706D01*
X69541777Y-103129785D01*
X69541773Y-103129794D01*
X69448947Y-103353895D01*
X69386161Y-103588214D01*
X69354500Y-103828711D01*
X18375500Y-103828711D01*
X18343838Y-103588211D01*
X18281054Y-103353900D01*
X18188224Y-103129788D01*
X18066936Y-102919711D01*
X17919265Y-102727262D01*
X17919260Y-102727256D01*
X17747743Y-102555739D01*
X17747736Y-102555733D01*
X17555293Y-102408067D01*
X17555292Y-102408066D01*
X17555289Y-102408064D01*
X17345212Y-102286776D01*
X17345205Y-102286773D01*
X17121104Y-102193947D01*
X16886785Y-102131161D01*
X16646289Y-102099500D01*
X16646288Y-102099500D01*
X16403712Y-102099500D01*
X16403711Y-102099500D01*
X16163214Y-102131161D01*
X15928895Y-102193947D01*
X15704794Y-102286773D01*
X15704785Y-102286777D01*
X15494706Y-102408067D01*
X15302263Y-102555733D01*
X15302256Y-102555739D01*
X15130739Y-102727256D01*
X15130733Y-102727263D01*
X14983067Y-102919706D01*
X14861777Y-103129785D01*
X14861773Y-103129794D01*
X14768947Y-103353895D01*
X14706161Y-103588214D01*
X14674500Y-103828711D01*
X9500500Y-103828711D01*
X9500500Y-92395943D01*
X66604500Y-92395943D01*
X66604500Y-92554056D01*
X66645423Y-92706783D01*
X66645426Y-92706790D01*
X66724475Y-92843709D01*
X66724479Y-92843714D01*
X66724480Y-92843716D01*
X66836284Y-92955520D01*
X66836286Y-92955521D01*
X66836290Y-92955524D01*
X66973209Y-93034573D01*
X66973216Y-93034577D01*
X67125943Y-93075500D01*
X67125945Y-93075500D01*
X67284055Y-93075500D01*
X67284057Y-93075500D01*
X67436784Y-93034577D01*
X67573716Y-92955520D01*
X67685520Y-92843716D01*
X67764577Y-92706784D01*
X67805500Y-92554057D01*
X67805500Y-92395943D01*
X67764577Y-92243216D01*
X67764573Y-92243209D01*
X67685524Y-92106290D01*
X67685518Y-92106282D01*
X67573717Y-91994481D01*
X67573709Y-91994475D01*
X67436790Y-91915426D01*
X67436786Y-91915424D01*
X67436784Y-91915423D01*
X67284057Y-91874500D01*
X67125943Y-91874500D01*
X66973216Y-91915423D01*
X66973209Y-91915426D01*
X66836290Y-91994475D01*
X66836282Y-91994481D01*
X66724481Y-92106282D01*
X66724475Y-92106290D01*
X66645426Y-92243209D01*
X66645423Y-92243216D01*
X66604500Y-92395943D01*
X9500500Y-92395943D01*
X9500500Y-80395943D01*
X66604500Y-80395943D01*
X66604500Y-80554056D01*
X66645423Y-80706783D01*
X66645426Y-80706790D01*
X66724475Y-80843709D01*
X66724479Y-80843714D01*
X66724480Y-80843716D01*
X66836284Y-80955520D01*
X66836286Y-80955521D01*
X66836290Y-80955524D01*
X66973209Y-81034573D01*
X66973216Y-81034577D01*
X67125943Y-81075500D01*
X67125945Y-81075500D01*
X67284055Y-81075500D01*
X67284057Y-81075500D01*
X67436784Y-81034577D01*
X67573716Y-80955520D01*
X67685520Y-80843716D01*
X67764577Y-80706784D01*
X67805500Y-80554057D01*
X67805500Y-80395943D01*
X67764577Y-80243216D01*
X67764573Y-80243209D01*
X67685524Y-80106290D01*
X67685518Y-80106282D01*
X67573717Y-79994481D01*
X67573709Y-79994475D01*
X67436790Y-79915426D01*
X67436786Y-79915424D01*
X67436784Y-79915423D01*
X67284057Y-79874500D01*
X67125943Y-79874500D01*
X66973216Y-79915423D01*
X66973209Y-79915426D01*
X66836290Y-79994475D01*
X66836282Y-79994481D01*
X66724481Y-80106282D01*
X66724475Y-80106290D01*
X66645426Y-80243209D01*
X66645423Y-80243216D01*
X66604500Y-80395943D01*
X9500500Y-80395943D01*
X9500500Y-79465092D01*
X40434500Y-79465092D01*
X40434500Y-79614907D01*
X40463723Y-79761822D01*
X40463725Y-79761830D01*
X40521051Y-79900229D01*
X40521056Y-79900238D01*
X40604280Y-80024790D01*
X40604283Y-80024794D01*
X40710205Y-80130716D01*
X40710209Y-80130719D01*
X40834761Y-80213943D01*
X40834767Y-80213946D01*
X40834768Y-80213947D01*
X40973170Y-80271275D01*
X41120092Y-80300499D01*
X41120096Y-80300500D01*
X41120097Y-80300500D01*
X41269904Y-80300500D01*
X41269905Y-80300499D01*
X41416830Y-80271275D01*
X41555232Y-80213947D01*
X41679791Y-80130719D01*
X41785719Y-80024791D01*
X41868947Y-79900232D01*
X41926275Y-79761830D01*
X41955500Y-79614903D01*
X41955500Y-79465097D01*
X41926275Y-79318170D01*
X41868947Y-79179768D01*
X41868946Y-79179767D01*
X41868943Y-79179761D01*
X41785719Y-79055209D01*
X41785716Y-79055205D01*
X41679794Y-78949283D01*
X41679790Y-78949280D01*
X41555238Y-78866056D01*
X41555229Y-78866051D01*
X41416830Y-78808725D01*
X41416822Y-78808723D01*
X41269907Y-78779500D01*
X41269903Y-78779500D01*
X41120097Y-78779500D01*
X41120092Y-78779500D01*
X40973177Y-78808723D01*
X40973169Y-78808725D01*
X40834770Y-78866051D01*
X40834761Y-78866056D01*
X40710209Y-78949280D01*
X40710205Y-78949283D01*
X40604283Y-79055205D01*
X40604280Y-79055209D01*
X40521056Y-79179761D01*
X40521051Y-79179770D01*
X40463725Y-79318169D01*
X40463723Y-79318177D01*
X40434500Y-79465092D01*
X9500500Y-79465092D01*
X9500500Y-67395943D01*
X38399500Y-67395943D01*
X38399500Y-67554056D01*
X38440423Y-67706783D01*
X38440426Y-67706790D01*
X38519475Y-67843709D01*
X38519479Y-67843714D01*
X38519480Y-67843716D01*
X38631284Y-67955520D01*
X38631286Y-67955521D01*
X38631290Y-67955524D01*
X38768209Y-68034573D01*
X38768216Y-68034577D01*
X38920943Y-68075500D01*
X38920945Y-68075500D01*
X39079055Y-68075500D01*
X39079057Y-68075500D01*
X39231784Y-68034577D01*
X39368716Y-67955520D01*
X39480520Y-67843716D01*
X39559577Y-67706784D01*
X39600500Y-67554057D01*
X39600500Y-67395943D01*
X39559577Y-67243216D01*
X39559573Y-67243209D01*
X39480524Y-67106290D01*
X39480518Y-67106282D01*
X39368717Y-66994481D01*
X39368709Y-66994475D01*
X39231790Y-66915426D01*
X39231786Y-66915424D01*
X39231784Y-66915423D01*
X39079057Y-66874500D01*
X38920943Y-66874500D01*
X38768216Y-66915423D01*
X38768209Y-66915426D01*
X38631290Y-66994475D01*
X38631282Y-66994481D01*
X38519481Y-67106282D01*
X38519475Y-67106290D01*
X38440426Y-67243209D01*
X38440423Y-67243216D01*
X38399500Y-67395943D01*
X9500500Y-67395943D01*
X9500500Y-65795943D01*
X38399500Y-65795943D01*
X38399500Y-65954056D01*
X38440423Y-66106783D01*
X38440426Y-66106790D01*
X38519475Y-66243709D01*
X38519479Y-66243714D01*
X38519480Y-66243716D01*
X38631284Y-66355520D01*
X38631286Y-66355521D01*
X38631290Y-66355524D01*
X38768209Y-66434573D01*
X38768216Y-66434577D01*
X38920943Y-66475500D01*
X38920945Y-66475500D01*
X39079055Y-66475500D01*
X39079057Y-66475500D01*
X39231784Y-66434577D01*
X39368716Y-66355520D01*
X39480520Y-66243716D01*
X39559577Y-66106784D01*
X39600500Y-65954057D01*
X39600500Y-65795943D01*
X39559577Y-65643216D01*
X39559573Y-65643209D01*
X39480524Y-65506290D01*
X39480518Y-65506282D01*
X39368717Y-65394481D01*
X39368709Y-65394475D01*
X39231790Y-65315426D01*
X39231786Y-65315424D01*
X39231784Y-65315423D01*
X39079057Y-65274500D01*
X38920943Y-65274500D01*
X38768216Y-65315423D01*
X38768209Y-65315426D01*
X38631290Y-65394475D01*
X38631282Y-65394481D01*
X38519481Y-65506282D01*
X38519475Y-65506290D01*
X38440426Y-65643209D01*
X38440423Y-65643216D01*
X38399500Y-65795943D01*
X9500500Y-65795943D01*
X9500500Y-52995943D01*
X38399500Y-52995943D01*
X38399500Y-53154056D01*
X38440423Y-53306783D01*
X38440426Y-53306790D01*
X38519475Y-53443709D01*
X38519479Y-53443714D01*
X38519480Y-53443716D01*
X38631284Y-53555520D01*
X38631286Y-53555521D01*
X38631290Y-53555524D01*
X38768209Y-53634573D01*
X38768216Y-53634577D01*
X38920943Y-53675500D01*
X38920945Y-53675500D01*
X39079055Y-53675500D01*
X39079057Y-53675500D01*
X39231784Y-53634577D01*
X39368716Y-53555520D01*
X39480520Y-53443716D01*
X39559577Y-53306784D01*
X39600500Y-53154057D01*
X39600500Y-52995943D01*
X39559577Y-52843216D01*
X39559573Y-52843209D01*
X39480524Y-52706290D01*
X39480518Y-52706282D01*
X39368717Y-52594481D01*
X39368709Y-52594475D01*
X39231790Y-52515426D01*
X39231786Y-52515424D01*
X39231784Y-52515423D01*
X39079057Y-52474500D01*
X38920943Y-52474500D01*
X38768216Y-52515423D01*
X38768209Y-52515426D01*
X38631290Y-52594475D01*
X38631282Y-52594481D01*
X38519481Y-52706282D01*
X38519475Y-52706290D01*
X38440426Y-52843209D01*
X38440423Y-52843216D01*
X38399500Y-52995943D01*
X9500500Y-52995943D01*
X9500500Y-51395943D01*
X38399500Y-51395943D01*
X38399500Y-51554056D01*
X38440423Y-51706783D01*
X38440426Y-51706790D01*
X38519475Y-51843709D01*
X38519479Y-51843714D01*
X38519480Y-51843716D01*
X38631284Y-51955520D01*
X38631286Y-51955521D01*
X38631290Y-51955524D01*
X38768209Y-52034573D01*
X38768216Y-52034577D01*
X38920943Y-52075500D01*
X38920945Y-52075500D01*
X39079055Y-52075500D01*
X39079057Y-52075500D01*
X39231784Y-52034577D01*
X39368716Y-51955520D01*
X39480520Y-51843716D01*
X39559577Y-51706784D01*
X39600500Y-51554057D01*
X39600500Y-51395943D01*
X39559577Y-51243216D01*
X39559573Y-51243209D01*
X39480524Y-51106290D01*
X39480518Y-51106282D01*
X39368717Y-50994481D01*
X39368709Y-50994475D01*
X39231790Y-50915426D01*
X39231786Y-50915424D01*
X39231784Y-50915423D01*
X39079057Y-50874500D01*
X38920943Y-50874500D01*
X38768216Y-50915423D01*
X38768209Y-50915426D01*
X38631290Y-50994475D01*
X38631282Y-50994481D01*
X38519481Y-51106282D01*
X38519475Y-51106290D01*
X38440426Y-51243209D01*
X38440423Y-51243216D01*
X38399500Y-51395943D01*
X9500500Y-51395943D01*
X9500500Y-39335092D01*
X40434500Y-39335092D01*
X40434500Y-39484907D01*
X40463723Y-39631822D01*
X40463725Y-39631830D01*
X40521051Y-39770229D01*
X40521056Y-39770238D01*
X40604280Y-39894790D01*
X40604283Y-39894794D01*
X40710205Y-40000716D01*
X40710209Y-40000719D01*
X40834761Y-40083943D01*
X40834767Y-40083946D01*
X40834768Y-40083947D01*
X40973170Y-40141275D01*
X41120092Y-40170499D01*
X41120096Y-40170500D01*
X41120097Y-40170500D01*
X41269904Y-40170500D01*
X41269905Y-40170499D01*
X41416830Y-40141275D01*
X41555232Y-40083947D01*
X41679791Y-40000719D01*
X41785719Y-39894791D01*
X41868947Y-39770232D01*
X41926275Y-39631830D01*
X41955500Y-39484903D01*
X41955500Y-39335097D01*
X41926275Y-39188170D01*
X41868947Y-39049768D01*
X41868946Y-39049767D01*
X41868943Y-39049761D01*
X41785719Y-38925209D01*
X41785716Y-38925205D01*
X41679794Y-38819283D01*
X41679790Y-38819280D01*
X41555238Y-38736056D01*
X41555229Y-38736051D01*
X41416830Y-38678725D01*
X41416822Y-38678723D01*
X41269907Y-38649500D01*
X41269903Y-38649500D01*
X41120097Y-38649500D01*
X41120092Y-38649500D01*
X40973177Y-38678723D01*
X40973169Y-38678725D01*
X40834770Y-38736051D01*
X40834761Y-38736056D01*
X40710209Y-38819280D01*
X40710205Y-38819283D01*
X40604283Y-38925205D01*
X40604280Y-38925209D01*
X40521056Y-39049761D01*
X40521051Y-39049770D01*
X40463725Y-39188169D01*
X40463723Y-39188177D01*
X40434500Y-39335092D01*
X9500500Y-39335092D01*
X9500500Y-38395943D01*
X66604500Y-38395943D01*
X66604500Y-38554056D01*
X66645423Y-38706783D01*
X66645426Y-38706790D01*
X66724475Y-38843709D01*
X66724479Y-38843714D01*
X66724480Y-38843716D01*
X66836284Y-38955520D01*
X66836286Y-38955521D01*
X66836290Y-38955524D01*
X66973209Y-39034573D01*
X66973216Y-39034577D01*
X67125943Y-39075500D01*
X67125945Y-39075500D01*
X67284055Y-39075500D01*
X67284057Y-39075500D01*
X67436784Y-39034577D01*
X67573716Y-38955520D01*
X67685520Y-38843716D01*
X67764577Y-38706784D01*
X67805500Y-38554057D01*
X67805500Y-38395943D01*
X67764577Y-38243216D01*
X67764573Y-38243209D01*
X67685524Y-38106290D01*
X67685518Y-38106282D01*
X67573717Y-37994481D01*
X67573709Y-37994475D01*
X67436790Y-37915426D01*
X67436786Y-37915424D01*
X67436784Y-37915423D01*
X67284057Y-37874500D01*
X67125943Y-37874500D01*
X66973216Y-37915423D01*
X66973209Y-37915426D01*
X66836290Y-37994475D01*
X66836282Y-37994481D01*
X66724481Y-38106282D01*
X66724475Y-38106290D01*
X66645426Y-38243209D01*
X66645423Y-38243216D01*
X66604500Y-38395943D01*
X9500500Y-38395943D01*
X9500500Y-26395943D01*
X66604500Y-26395943D01*
X66604500Y-26554056D01*
X66645423Y-26706783D01*
X66645426Y-26706790D01*
X66724475Y-26843709D01*
X66724479Y-26843714D01*
X66724480Y-26843716D01*
X66836284Y-26955520D01*
X66836286Y-26955521D01*
X66836290Y-26955524D01*
X66973209Y-27034573D01*
X66973216Y-27034577D01*
X67125943Y-27075500D01*
X67125945Y-27075500D01*
X67284055Y-27075500D01*
X67284057Y-27075500D01*
X67436784Y-27034577D01*
X67573716Y-26955520D01*
X67685520Y-26843716D01*
X67764577Y-26706784D01*
X67805500Y-26554057D01*
X67805500Y-26395943D01*
X67764577Y-26243216D01*
X67764573Y-26243209D01*
X67685524Y-26106290D01*
X67685518Y-26106282D01*
X67573717Y-25994481D01*
X67573709Y-25994475D01*
X67436790Y-25915426D01*
X67436786Y-25915424D01*
X67436784Y-25915423D01*
X67284057Y-25874500D01*
X67125943Y-25874500D01*
X66973216Y-25915423D01*
X66973209Y-25915426D01*
X66836290Y-25994475D01*
X66836282Y-25994481D01*
X66724481Y-26106282D01*
X66724475Y-26106290D01*
X66645426Y-26243209D01*
X66645423Y-26243216D01*
X66604500Y-26395943D01*
X9500500Y-26395943D01*
X9500500Y-14878711D01*
X14674500Y-14878711D01*
X14674500Y-15121288D01*
X14706161Y-15361785D01*
X14768947Y-15596104D01*
X14861773Y-15820205D01*
X14861776Y-15820212D01*
X14983064Y-16030289D01*
X14983066Y-16030292D01*
X14983067Y-16030293D01*
X15130733Y-16222736D01*
X15130739Y-16222743D01*
X15302256Y-16394260D01*
X15302262Y-16394265D01*
X15494711Y-16541936D01*
X15704788Y-16663224D01*
X15928900Y-16756054D01*
X16163211Y-16818838D01*
X16343586Y-16842584D01*
X16403711Y-16850500D01*
X16403712Y-16850500D01*
X16646289Y-16850500D01*
X16694388Y-16844167D01*
X16886789Y-16818838D01*
X17121100Y-16756054D01*
X17345212Y-16663224D01*
X17555289Y-16541936D01*
X17747738Y-16394265D01*
X17919265Y-16222738D01*
X18066936Y-16030289D01*
X18188224Y-15820212D01*
X18281054Y-15596100D01*
X18343838Y-15361789D01*
X18375500Y-15121288D01*
X18375500Y-14878712D01*
X18375500Y-14878711D01*
X69354500Y-14878711D01*
X69354500Y-15121288D01*
X69386161Y-15361785D01*
X69448947Y-15596104D01*
X69541773Y-15820205D01*
X69541776Y-15820212D01*
X69663064Y-16030289D01*
X69663066Y-16030292D01*
X69663067Y-16030293D01*
X69810733Y-16222736D01*
X69810739Y-16222743D01*
X69982256Y-16394260D01*
X69982262Y-16394265D01*
X70174711Y-16541936D01*
X70384788Y-16663224D01*
X70608900Y-16756054D01*
X70843211Y-16818838D01*
X71023586Y-16842584D01*
X71083711Y-16850500D01*
X71083712Y-16850500D01*
X71326289Y-16850500D01*
X71374388Y-16844167D01*
X71566789Y-16818838D01*
X71801100Y-16756054D01*
X72025212Y-16663224D01*
X72235289Y-16541936D01*
X72427738Y-16394265D01*
X72599265Y-16222738D01*
X72746936Y-16030289D01*
X72868224Y-15820212D01*
X72961054Y-15596100D01*
X73023838Y-15361789D01*
X73055500Y-15121288D01*
X73055500Y-14878712D01*
X73023838Y-14638211D01*
X72961054Y-14403900D01*
X72868224Y-14179788D01*
X72746936Y-13969711D01*
X72599265Y-13777262D01*
X72599260Y-13777256D01*
X72427743Y-13605739D01*
X72427736Y-13605733D01*
X72235293Y-13458067D01*
X72235292Y-13458066D01*
X72235289Y-13458064D01*
X72025212Y-13336776D01*
X72025205Y-13336773D01*
X71801104Y-13243947D01*
X71566785Y-13181161D01*
X71326289Y-13149500D01*
X71326288Y-13149500D01*
X71083712Y-13149500D01*
X71083711Y-13149500D01*
X70843214Y-13181161D01*
X70608895Y-13243947D01*
X70384794Y-13336773D01*
X70384785Y-13336777D01*
X70174706Y-13458067D01*
X69982263Y-13605733D01*
X69982256Y-13605739D01*
X69810739Y-13777256D01*
X69810733Y-13777263D01*
X69663067Y-13969706D01*
X69541777Y-14179785D01*
X69541773Y-14179794D01*
X69448947Y-14403895D01*
X69386161Y-14638214D01*
X69354500Y-14878711D01*
X18375500Y-14878711D01*
X18343838Y-14638211D01*
X18281054Y-14403900D01*
X18188224Y-14179788D01*
X18066936Y-13969711D01*
X17919265Y-13777262D01*
X17919260Y-13777256D01*
X17747743Y-13605739D01*
X17747736Y-13605733D01*
X17555293Y-13458067D01*
X17555292Y-13458066D01*
X17555289Y-13458064D01*
X17345212Y-13336776D01*
X17345205Y-13336773D01*
X17121104Y-13243947D01*
X16886785Y-13181161D01*
X16646289Y-13149500D01*
X16646288Y-13149500D01*
X16403712Y-13149500D01*
X16403711Y-13149500D01*
X16163214Y-13181161D01*
X15928895Y-13243947D01*
X15704794Y-13336773D01*
X15704785Y-13336777D01*
X15494706Y-13458067D01*
X15302263Y-13605733D01*
X15302256Y-13605739D01*
X15130739Y-13777256D01*
X15130733Y-13777263D01*
X14983067Y-13969706D01*
X14861777Y-14179785D01*
X14861773Y-14179794D01*
X14768947Y-14403895D01*
X14706161Y-14638214D01*
X14674500Y-14878711D01*
X9500500Y-14878711D01*
X9500500Y-10624500D01*
X9520185Y-10557461D01*
X9572989Y-10511706D01*
X9624500Y-10500500D01*
X78105500Y-10500500D01*
X78172539Y-10520185D01*
G37*
%TD.AperFunction*%
%TD*%
M02*
