%TF.GenerationSoftware,KiCad,Pcbnew,10.0.3*%
%TF.CreationDate,2026-06-22T23:05:30-04:00*%
%TF.ProjectId,board-C-ufl,626f6172-642d-4432-9d75-666c2e6b6963,rev?*%
%TF.SameCoordinates,Original*%
%TF.FileFunction,Other,User*%
%FSLAX46Y46*%
G04 Gerber Fmt 4.6, Leading zero omitted, Abs format (unit mm)*
G04 Created by KiCad (PCBNEW 10.0.3) date 2026-06-22 23:05:30*
%MOMM*%
%LPD*%
G01*
G04 APERTURE LIST*
%ADD10C,0.050000*%
G04 APERTURE END LIST*
D10*
%TO.C,K10*%
X13400000Y-70275000D02*
X13200000Y-70275000D01*
X13200000Y-66675000D01*
X13400000Y-66675000D01*
X13400000Y-65975000D01*
X16600000Y-65975000D01*
X16600000Y-66675000D01*
X16800000Y-66675000D01*
X16800000Y-67475000D01*
X17550000Y-67475000D01*
X17550000Y-69475000D01*
X16800000Y-69475000D01*
X16800000Y-70275000D01*
X16600000Y-70275000D01*
X16600000Y-70975000D01*
X13400000Y-70975000D01*
X13400000Y-70275000D01*
%TO.C,K4*%
X74330000Y-75675000D02*
X74530000Y-75675000D01*
X74530000Y-79275000D01*
X74330000Y-79275000D01*
X74330000Y-79975000D01*
X71130000Y-79975000D01*
X71130000Y-79275000D01*
X70930000Y-79275000D01*
X70930000Y-78475000D01*
X70180000Y-78475000D01*
X70180000Y-76475000D01*
X70930000Y-76475000D01*
X70930000Y-75675000D01*
X71130000Y-75675000D01*
X71130000Y-74975000D01*
X74330000Y-74975000D01*
X74330000Y-75675000D01*
%TO.C,IV*%
X74330000Y-57675000D02*
X74530000Y-57675000D01*
X74530000Y-61275000D01*
X74330000Y-61275000D01*
X74330000Y-61975000D01*
X71130000Y-61975000D01*
X71130000Y-61275000D01*
X70930000Y-61275000D01*
X70930000Y-60475000D01*
X70180000Y-60475000D01*
X70180000Y-58475000D01*
X70930000Y-58475000D01*
X70930000Y-57675000D01*
X71130000Y-57675000D01*
X71130000Y-56975000D01*
X74330000Y-56975000D01*
X74330000Y-57675000D01*
%TO.C,K19*%
X74330000Y-39675000D02*
X74530000Y-39675000D01*
X74530000Y-43275000D01*
X74330000Y-43275000D01*
X74330000Y-43975000D01*
X71130000Y-43975000D01*
X71130000Y-43275000D01*
X70930000Y-43275000D01*
X70930000Y-42475000D01*
X70180000Y-42475000D01*
X70180000Y-40475000D01*
X70930000Y-40475000D01*
X70930000Y-39675000D01*
X71130000Y-39675000D01*
X71130000Y-38975000D01*
X74330000Y-38975000D01*
X74330000Y-39675000D01*
%TO.C,K0*%
X13400000Y-82275000D02*
X13200000Y-82275000D01*
X13200000Y-78675000D01*
X13400000Y-78675000D01*
X13400000Y-77975000D01*
X16600000Y-77975000D01*
X16600000Y-78675000D01*
X16800000Y-78675000D01*
X16800000Y-79475000D01*
X17550000Y-79475000D01*
X17550000Y-81475000D01*
X16800000Y-81475000D01*
X16800000Y-82275000D01*
X16600000Y-82275000D01*
X16600000Y-82975000D01*
X13400000Y-82975000D01*
X13400000Y-82275000D01*
%TO.C,K20*%
X74330000Y-45675000D02*
X74530000Y-45675000D01*
X74530000Y-49275000D01*
X74330000Y-49275000D01*
X74330000Y-49975000D01*
X71130000Y-49975000D01*
X71130000Y-49275000D01*
X70930000Y-49275000D01*
X70930000Y-48475000D01*
X70180000Y-48475000D01*
X70180000Y-46475000D01*
X70930000Y-46475000D01*
X70930000Y-45675000D01*
X71130000Y-45675000D01*
X71130000Y-44975000D01*
X74330000Y-44975000D01*
X74330000Y-45675000D01*
%TO.C,K22*%
X13400000Y-28275000D02*
X13200000Y-28275000D01*
X13200000Y-24675000D01*
X13400000Y-24675000D01*
X13400000Y-23975000D01*
X16600000Y-23975000D01*
X16600000Y-24675000D01*
X16800000Y-24675000D01*
X16800000Y-25475000D01*
X17550000Y-25475000D01*
X17550000Y-27475000D01*
X16800000Y-27475000D01*
X16800000Y-28275000D01*
X16600000Y-28275000D01*
X16600000Y-28975000D01*
X13400000Y-28975000D01*
X13400000Y-28275000D01*
%TO.C,K3*%
X74330000Y-69675000D02*
X74530000Y-69675000D01*
X74530000Y-73275000D01*
X74330000Y-73275000D01*
X74330000Y-73975000D01*
X71130000Y-73975000D01*
X71130000Y-73275000D01*
X70930000Y-73275000D01*
X70930000Y-72475000D01*
X70180000Y-72475000D01*
X70180000Y-70475000D01*
X70930000Y-70475000D01*
X70930000Y-69675000D01*
X71130000Y-69675000D01*
X71130000Y-68975000D01*
X74330000Y-68975000D01*
X74330000Y-69675000D01*
%TO.C,K17*%
X74330000Y-27675000D02*
X74530000Y-27675000D01*
X74530000Y-31275000D01*
X74330000Y-31275000D01*
X74330000Y-31975000D01*
X71130000Y-31975000D01*
X71130000Y-31275000D01*
X70930000Y-31275000D01*
X70930000Y-30475000D01*
X70180000Y-30475000D01*
X70180000Y-28475000D01*
X70930000Y-28475000D01*
X70930000Y-27675000D01*
X71130000Y-27675000D01*
X71130000Y-26975000D01*
X74330000Y-26975000D01*
X74330000Y-27675000D01*
%TO.C,MH2*%
X74655000Y-15000000D02*
G75*
G02*
X67755000Y-15000000I-3450000J0D01*
G01*
X67755000Y-15000000D02*
G75*
G02*
X74655000Y-15000000I3450000J0D01*
G01*
%TO.C,K2*%
X74330000Y-63675000D02*
X74530000Y-63675000D01*
X74530000Y-67275000D01*
X74330000Y-67275000D01*
X74330000Y-67975000D01*
X71130000Y-67975000D01*
X71130000Y-67275000D01*
X70930000Y-67275000D01*
X70930000Y-66475000D01*
X70180000Y-66475000D01*
X70180000Y-64475000D01*
X70930000Y-64475000D01*
X70930000Y-63675000D01*
X71130000Y-63675000D01*
X71130000Y-62975000D01*
X74330000Y-62975000D01*
X74330000Y-63675000D01*
%TO.C,K21*%
X74330000Y-51675000D02*
X74530000Y-51675000D01*
X74530000Y-55275000D01*
X74330000Y-55275000D01*
X74330000Y-55975000D01*
X71130000Y-55975000D01*
X71130000Y-55275000D01*
X70930000Y-55275000D01*
X70930000Y-54475000D01*
X70180000Y-54475000D01*
X70180000Y-52475000D01*
X70930000Y-52475000D01*
X70930000Y-51675000D01*
X71130000Y-51675000D01*
X71130000Y-50975000D01*
X74330000Y-50975000D01*
X74330000Y-51675000D01*
%TO.C,K23*%
X13400000Y-40275000D02*
X13200000Y-40275000D01*
X13200000Y-36675000D01*
X13400000Y-36675000D01*
X13400000Y-35975000D01*
X16600000Y-35975000D01*
X16600000Y-36675000D01*
X16800000Y-36675000D01*
X16800000Y-37475000D01*
X17550000Y-37475000D01*
X17550000Y-39475000D01*
X16800000Y-39475000D01*
X16800000Y-40275000D01*
X16600000Y-40275000D01*
X16600000Y-40975000D01*
X13400000Y-40975000D01*
X13400000Y-40275000D01*
%TO.C,K18*%
X74330000Y-33675000D02*
X74530000Y-33675000D01*
X74530000Y-37275000D01*
X74330000Y-37275000D01*
X74330000Y-37975000D01*
X71130000Y-37975000D01*
X71130000Y-37275000D01*
X70930000Y-37275000D01*
X70930000Y-36475000D01*
X70180000Y-36475000D01*
X70180000Y-34475000D01*
X70930000Y-34475000D01*
X70930000Y-33675000D01*
X71130000Y-33675000D01*
X71130000Y-32975000D01*
X74330000Y-32975000D01*
X74330000Y-33675000D01*
%TO.C,K13*%
X13400000Y-52275000D02*
X13200000Y-52275000D01*
X13200000Y-48675000D01*
X13400000Y-48675000D01*
X13400000Y-47975000D01*
X16600000Y-47975000D01*
X16600000Y-48675000D01*
X16800000Y-48675000D01*
X16800000Y-49475000D01*
X17550000Y-49475000D01*
X17550000Y-51475000D01*
X16800000Y-51475000D01*
X16800000Y-52275000D01*
X16600000Y-52275000D01*
X16600000Y-52975000D01*
X13400000Y-52975000D01*
X13400000Y-52275000D01*
%TO.C,K15*%
X13400000Y-34275000D02*
X13200000Y-34275000D01*
X13200000Y-30675000D01*
X13400000Y-30675000D01*
X13400000Y-29975000D01*
X16600000Y-29975000D01*
X16600000Y-30675000D01*
X16800000Y-30675000D01*
X16800000Y-31475000D01*
X17550000Y-31475000D01*
X17550000Y-33475000D01*
X16800000Y-33475000D01*
X16800000Y-34275000D01*
X16600000Y-34275000D01*
X16600000Y-34975000D01*
X13400000Y-34975000D01*
X13400000Y-34275000D01*
%TO.C,K7*%
X74330000Y-93675000D02*
X74530000Y-93675000D01*
X74530000Y-97275000D01*
X74330000Y-97275000D01*
X74330000Y-97975000D01*
X71130000Y-97975000D01*
X71130000Y-97275000D01*
X70930000Y-97275000D01*
X70930000Y-96475000D01*
X70180000Y-96475000D01*
X70180000Y-94475000D01*
X70930000Y-94475000D01*
X70930000Y-93675000D01*
X71130000Y-93675000D01*
X71130000Y-92975000D01*
X74330000Y-92975000D01*
X74330000Y-93675000D01*
%TO.C,K9*%
X13400000Y-76275000D02*
X13200000Y-76275000D01*
X13200000Y-72675000D01*
X13400000Y-72675000D01*
X13400000Y-71975000D01*
X16600000Y-71975000D01*
X16600000Y-72675000D01*
X16800000Y-72675000D01*
X16800000Y-73475000D01*
X17550000Y-73475000D01*
X17550000Y-75475000D01*
X16800000Y-75475000D01*
X16800000Y-76275000D01*
X16600000Y-76275000D01*
X16600000Y-76975000D01*
X13400000Y-76975000D01*
X13400000Y-76275000D01*
%TO.C,MH1*%
X19975000Y-15000000D02*
G75*
G02*
X13075000Y-15000000I-3450000J0D01*
G01*
X13075000Y-15000000D02*
G75*
G02*
X19975000Y-15000000I3450000J0D01*
G01*
%TO.C,K14*%
X13400000Y-46275000D02*
X13200000Y-46275000D01*
X13200000Y-42675000D01*
X13400000Y-42675000D01*
X13400000Y-41975000D01*
X16600000Y-41975000D01*
X16600000Y-42675000D01*
X16800000Y-42675000D01*
X16800000Y-43475000D01*
X17550000Y-43475000D01*
X17550000Y-45475000D01*
X16800000Y-45475000D01*
X16800000Y-46275000D01*
X16600000Y-46275000D01*
X16600000Y-46975000D01*
X13400000Y-46975000D01*
X13400000Y-46275000D01*
%TO.C,K16*%
X74330000Y-21675000D02*
X74530000Y-21675000D01*
X74530000Y-25275000D01*
X74330000Y-25275000D01*
X74330000Y-25975000D01*
X71130000Y-25975000D01*
X71130000Y-25275000D01*
X70930000Y-25275000D01*
X70930000Y-24475000D01*
X70180000Y-24475000D01*
X70180000Y-22475000D01*
X70930000Y-22475000D01*
X70930000Y-21675000D01*
X71130000Y-21675000D01*
X71130000Y-20975000D01*
X74330000Y-20975000D01*
X74330000Y-21675000D01*
%TO.C,K6*%
X74330000Y-87675000D02*
X74530000Y-87675000D01*
X74530000Y-91275000D01*
X74330000Y-91275000D01*
X74330000Y-91975000D01*
X71130000Y-91975000D01*
X71130000Y-91275000D01*
X70930000Y-91275000D01*
X70930000Y-90475000D01*
X70180000Y-90475000D01*
X70180000Y-88475000D01*
X70930000Y-88475000D01*
X70930000Y-87675000D01*
X71130000Y-87675000D01*
X71130000Y-86975000D01*
X74330000Y-86975000D01*
X74330000Y-87675000D01*
%TO.C,K1*%
X13400000Y-94275000D02*
X13200000Y-94275000D01*
X13200000Y-90675000D01*
X13400000Y-90675000D01*
X13400000Y-89975000D01*
X16600000Y-89975000D01*
X16600000Y-90675000D01*
X16800000Y-90675000D01*
X16800000Y-91475000D01*
X17550000Y-91475000D01*
X17550000Y-93475000D01*
X16800000Y-93475000D01*
X16800000Y-94275000D01*
X16600000Y-94275000D01*
X16600000Y-94975000D01*
X13400000Y-94975000D01*
X13400000Y-94275000D01*
%TO.C,K5*%
X74330000Y-81675000D02*
X74530000Y-81675000D01*
X74530000Y-85275000D01*
X74330000Y-85275000D01*
X74330000Y-85975000D01*
X71130000Y-85975000D01*
X71130000Y-85275000D01*
X70930000Y-85275000D01*
X70930000Y-84475000D01*
X70180000Y-84475000D01*
X70180000Y-82475000D01*
X70930000Y-82475000D01*
X70930000Y-81675000D01*
X71130000Y-81675000D01*
X71130000Y-80975000D01*
X74330000Y-80975000D01*
X74330000Y-81675000D01*
%TO.C,K11*%
X13400000Y-64275000D02*
X13200000Y-64275000D01*
X13200000Y-60675000D01*
X13400000Y-60675000D01*
X13400000Y-59975000D01*
X16600000Y-59975000D01*
X16600000Y-60675000D01*
X16800000Y-60675000D01*
X16800000Y-61475000D01*
X17550000Y-61475000D01*
X17550000Y-63475000D01*
X16800000Y-63475000D01*
X16800000Y-64275000D01*
X16600000Y-64275000D01*
X16600000Y-64975000D01*
X13400000Y-64975000D01*
X13400000Y-64275000D01*
%TO.C,K8*%
X13400000Y-88275000D02*
X13200000Y-88275000D01*
X13200000Y-84675000D01*
X13400000Y-84675000D01*
X13400000Y-83975000D01*
X16600000Y-83975000D01*
X16600000Y-84675000D01*
X16800000Y-84675000D01*
X16800000Y-85475000D01*
X17550000Y-85475000D01*
X17550000Y-87475000D01*
X16800000Y-87475000D01*
X16800000Y-88275000D01*
X16600000Y-88275000D01*
X16600000Y-88975000D01*
X13400000Y-88975000D01*
X13400000Y-88275000D01*
%TO.C,K12*%
X13400000Y-58275000D02*
X13200000Y-58275000D01*
X13200000Y-54675000D01*
X13400000Y-54675000D01*
X13400000Y-53975000D01*
X16600000Y-53975000D01*
X16600000Y-54675000D01*
X16800000Y-54675000D01*
X16800000Y-55475000D01*
X17550000Y-55475000D01*
X17550000Y-57475000D01*
X16800000Y-57475000D01*
X16800000Y-58275000D01*
X16600000Y-58275000D01*
X16600000Y-58975000D01*
X13400000Y-58975000D01*
X13400000Y-58275000D01*
%TO.C,MH3*%
X19975000Y-103950000D02*
G75*
G02*
X13075000Y-103950000I-3450000J0D01*
G01*
X13075000Y-103950000D02*
G75*
G02*
X19975000Y-103950000I3450000J0D01*
G01*
%TO.C,MH4*%
X74655000Y-103950000D02*
G75*
G02*
X67755000Y-103950000I-3450000J0D01*
G01*
X67755000Y-103950000D02*
G75*
G02*
X74655000Y-103950000I3450000J0D01*
G01*
%TD*%
M02*
