M48
; DRILL file KiCad 10.0.3 date 2026-06-22T23:05:30
; FORMAT={-:-/ absolute / metric / decimal}
; #@! TF.CreationDate,2026-06-22T23:05:30-04:00
; #@! TF.GenerationSoftware,Kicad,Pcbnew,10.0.3
; #@! TF.FileFunction,MixedPlating,1,4
FMAT,2
METRIC
; #@! TA.AperFunction,Plated,PTH,ViaDrill
T1C0.300
; #@! TA.AperFunction,NonPlated,NPTH,ComponentDrill
T2C1.020
; #@! TA.AperFunction,NonPlated,NPTH,ComponentDrill
T3C3.200
%
G90
G05
T1
X11.925Y-12.925
X11.925Y-106.025
X20.525Y-32.475
X20.525Y-44.475
X20.525Y-50.475
X20.525Y-56.475
X20.525Y-62.475
X20.525Y-68.475
X20.525Y-74.475
X20.525Y-86.475
X23.925Y-12.925
X23.925Y-106.025
X29.925Y-12.925
X29.925Y-106.025
X35.925Y-12.925
X35.925Y-106.025
X41.925Y-12.925
X41.925Y-106.025
X47.925Y-12.925
X47.925Y-106.025
X48.73Y-51.475
X48.73Y-53.075
X48.73Y-65.875
X48.73Y-67.475
X53.925Y-12.925
X53.925Y-106.025
X59.925Y-12.925
X59.925Y-106.025
X65.925Y-12.925
X65.925Y-106.025
X67.205Y-23.475
X67.205Y-29.475
X67.205Y-35.475
X67.205Y-41.475
X67.205Y-47.475
X67.205Y-53.475
X67.205Y-59.475
X67.205Y-65.475
X67.205Y-71.475
X67.205Y-77.475
X67.205Y-83.475
X67.205Y-89.475
X67.205Y-95.475
T2
X46.535Y-39.41
X46.535Y-79.54
T3
X16.525Y-15.0
X16.525Y-103.95
X71.205Y-15.0
X71.205Y-103.95
M30
