%TF.GenerationSoftware,KiCad,Pcbnew,10.0.3*%
%TF.CreationDate,2026-06-17T00:20:38-04:00*%
%TF.ProjectId,board-C-ufl,626f6172-642d-4432-9d75-666c2e6b6963,rev?*%
%TF.SameCoordinates,Original*%
%TF.FileFunction,Copper,L1,Top*%
%TF.FilePolarity,Positive*%
%FSLAX46Y46*%
G04 Gerber Fmt 4.6, Leading zero omitted, Abs format (unit mm)*
G04 Created by KiCad (PCBNEW 10.0.3) date 2026-06-17 00:20:38*
%MOMM*%
%LPD*%
G01*
G04 APERTURE LIST*
G04 Aperture macros list*
%AMRoundRect*
0 Rectangle with rounded corners*
0 $1 Rounding radius*
0 $2 $3 $4 $5 $6 $7 $8 $9 X,Y pos of 4 corners*
0 Add a 4 corners polygon primitive as box body*
4,1,4,$2,$3,$4,$5,$6,$7,$8,$9,$2,$3,0*
0 Add four circle primitives for the rounded corners*
1,1,$1+$1,$2,$3*
1,1,$1+$1,$4,$5*
1,1,$1+$1,$6,$7*
1,1,$1+$1,$8,$9*
0 Add four rect primitives between the rounded corners*
20,1,$1+$1,$2,$3,$4,$5,0*
20,1,$1+$1,$4,$5,$6,$7,0*
20,1,$1+$1,$6,$7,$8,$9,0*
20,1,$1+$1,$8,$9,$2,$3,0*%
G04 Aperture macros list end*
%TA.AperFunction,SMDPad,CuDef*%
%ADD10RoundRect,0.250000X0.275000X0.250000X-0.275000X0.250000X-0.275000X-0.250000X0.275000X-0.250000X0*%
%TD*%
%TA.AperFunction,SMDPad,CuDef*%
%ADD11RoundRect,0.250000X0.850000X0.275000X-0.850000X0.275000X-0.850000X-0.275000X0.850000X-0.275000X0*%
%TD*%
%TA.AperFunction,SMDPad,CuDef*%
%ADD12RoundRect,0.250000X-0.275000X-0.250000X0.275000X-0.250000X0.275000X0.250000X-0.275000X0.250000X0*%
%TD*%
%TA.AperFunction,SMDPad,CuDef*%
%ADD13RoundRect,0.250000X-0.850000X-0.275000X0.850000X-0.275000X0.850000X0.275000X-0.850000X0.275000X0*%
%TD*%
%TA.AperFunction,SMDPad,CuDef*%
%ADD14R,2.270000X0.410000*%
%TD*%
%TA.AperFunction,SMDPad,CuDef*%
%ADD15R,0.430000X2.540000*%
%TD*%
%TA.AperFunction,SMDPad,CuDef*%
%ADD16R,0.430000X4.700000*%
%TD*%
%TA.AperFunction,ViaPad*%
%ADD17C,0.600000*%
%TD*%
%TA.AperFunction,Conductor*%
%ADD18C,0.340000*%
%TD*%
G04 APERTURE END LIST*
D10*
%TO.P,K18,1*%
%TO.N,SIPM_K18*%
X16525000Y-35475000D03*
D11*
%TO.P,K18,2*%
%TO.N,GNDA*%
X15000000Y-36950000D03*
X15000000Y-34000000D03*
%TD*%
D10*
%TO.P,K20,1*%
%TO.N,SIPM_K20*%
X16525000Y-47475000D03*
D11*
%TO.P,K20,2*%
%TO.N,GNDA*%
X15000000Y-48950000D03*
X15000000Y-46000000D03*
%TD*%
D12*
%TO.P,K12,1*%
%TO.N,SIPM_K12*%
X71205000Y-56475000D03*
D13*
%TO.P,K12,2*%
%TO.N,GNDA*%
X72730000Y-55000000D03*
X72730000Y-57950000D03*
%TD*%
D12*
%TO.P,K1,1*%
%TO.N,SIPM_K1*%
X71205000Y-92475000D03*
D13*
%TO.P,K1,2*%
%TO.N,GNDA*%
X72730000Y-91000000D03*
X72730000Y-93950000D03*
%TD*%
D14*
%TO.P,J5,01*%
%TO.N,GNDA*%
X46730000Y-77075000D03*
%TO.P,J5,02*%
%TO.N,SIPM_K7*%
X41000000Y-77075000D03*
%TO.P,J5,03*%
%TO.N,GNDA*%
X46730000Y-76275000D03*
%TO.P,J5,04*%
X41000000Y-76275000D03*
%TO.P,J5,05*%
X46730000Y-75475000D03*
%TO.P,J5,06*%
%TO.N,SIPM_K6*%
X41000000Y-75475000D03*
%TO.P,J5,07*%
%TO.N,GNDA*%
X46730000Y-74675000D03*
%TO.P,J5,08*%
X41000000Y-74675000D03*
%TO.P,J5,09*%
X46730000Y-73875000D03*
%TO.P,J5,10*%
%TO.N,SIPM_K5*%
X41000000Y-73875000D03*
%TO.P,J5,11*%
%TO.N,GNDA*%
X46730000Y-73075000D03*
%TO.P,J5,12*%
X41000000Y-73075000D03*
%TO.P,J5,13*%
X46730000Y-72275000D03*
%TO.P,J5,14*%
%TO.N,SIPM_K4*%
X41000000Y-72275000D03*
%TO.P,J5,15*%
%TO.N,GNDA*%
X46730000Y-71475000D03*
%TO.P,J5,16*%
X41000000Y-71475000D03*
%TO.P,J5,17*%
X46730000Y-70675000D03*
%TO.P,J5,18*%
%TO.N,SIPM_K3*%
X41000000Y-70675000D03*
%TO.P,J5,19*%
%TO.N,GNDA*%
X46730000Y-69875000D03*
%TO.P,J5,20*%
X41000000Y-69875000D03*
%TO.P,J5,21*%
X46730000Y-69075000D03*
%TO.P,J5,22*%
%TO.N,SIPM_K2*%
X41000000Y-69075000D03*
%TO.P,J5,23*%
%TO.N,GNDA*%
X46730000Y-68275000D03*
%TO.P,J5,24*%
X41000000Y-68275000D03*
%TO.P,J5,25*%
X46730000Y-67475000D03*
%TO.P,J5,26*%
%TO.N,SIPM_K1*%
X41000000Y-67475000D03*
%TO.P,J5,27*%
%TO.N,SIPM_K8*%
X46730000Y-66675000D03*
%TO.P,J5,28*%
%TO.N,GNDA*%
X41000000Y-66675000D03*
%TO.P,J5,29*%
X46730000Y-65875000D03*
%TO.P,J5,30*%
%TO.N,SIPM_K0*%
X41000000Y-65875000D03*
%TO.P,J5,31*%
%TO.N,SIPM_K9*%
X46730000Y-65075000D03*
%TO.P,J5,32*%
%TO.N,GNDA*%
X41000000Y-65075000D03*
%TO.P,J5,33*%
X46730000Y-64275000D03*
%TO.P,J5,34*%
X41000000Y-64275000D03*
%TO.P,J5,35*%
%TO.N,SIPM_K10*%
X46730000Y-63475000D03*
%TO.P,J5,36*%
%TO.N,GNDA*%
X41000000Y-63475000D03*
%TO.P,J5,37*%
X46730000Y-62675000D03*
%TO.P,J5,38*%
X41000000Y-62675000D03*
%TO.P,J5,39*%
%TO.N,SIPM_K11*%
X46730000Y-61875000D03*
%TO.P,J5,40*%
%TO.N,IV*%
X41000000Y-61875000D03*
%TO.P,J5,41*%
%TO.N,SIPM_K12*%
X46730000Y-57075000D03*
%TO.P,J5,42*%
%TO.N,IV*%
X41000000Y-57075000D03*
%TO.P,J5,43*%
%TO.N,GNDA*%
X46730000Y-56275000D03*
%TO.P,J5,44*%
X41000000Y-56275000D03*
%TO.P,J5,45*%
%TO.N,SIPM_K13*%
X46730000Y-55475000D03*
%TO.P,J5,46*%
%TO.N,GNDA*%
X41000000Y-55475000D03*
%TO.P,J5,47*%
X46730000Y-54675000D03*
%TO.P,J5,48*%
X41000000Y-54675000D03*
%TO.P,J5,49*%
%TO.N,SIPM_K14*%
X46730000Y-53875000D03*
%TO.P,J5,50*%
%TO.N,GNDA*%
X41000000Y-53875000D03*
%TO.P,J5,51*%
X46730000Y-53075000D03*
%TO.P,J5,52*%
%TO.N,SIPM_K23*%
X41000000Y-53075000D03*
%TO.P,J5,53*%
%TO.N,SIPM_K15*%
X46730000Y-52275000D03*
%TO.P,J5,54*%
%TO.N,GNDA*%
X41000000Y-52275000D03*
%TO.P,J5,55*%
X46730000Y-51475000D03*
%TO.P,J5,56*%
%TO.N,SIPM_K22*%
X41000000Y-51475000D03*
%TO.P,J5,57*%
%TO.N,GNDA*%
X46730000Y-50675000D03*
%TO.P,J5,58*%
X41000000Y-50675000D03*
%TO.P,J5,59*%
X46730000Y-49875000D03*
%TO.P,J5,60*%
%TO.N,SIPM_K21*%
X41000000Y-49875000D03*
%TO.P,J5,61*%
%TO.N,GNDA*%
X46730000Y-49075000D03*
%TO.P,J5,62*%
X41000000Y-49075000D03*
%TO.P,J5,63*%
X46730000Y-48275000D03*
%TO.P,J5,64*%
%TO.N,SIPM_K20*%
X41000000Y-48275000D03*
%TO.P,J5,65*%
%TO.N,GNDA*%
X46730000Y-47475000D03*
%TO.P,J5,66*%
X41000000Y-47475000D03*
%TO.P,J5,67*%
X46730000Y-46675000D03*
%TO.P,J5,68*%
%TO.N,SIPM_K19*%
X41000000Y-46675000D03*
%TO.P,J5,69*%
%TO.N,GNDA*%
X46730000Y-45875000D03*
%TO.P,J5,70*%
X41000000Y-45875000D03*
%TO.P,J5,71*%
X46730000Y-45075000D03*
%TO.P,J5,72*%
%TO.N,SIPM_K18*%
X41000000Y-45075000D03*
%TO.P,J5,73*%
%TO.N,GNDA*%
X46730000Y-44275000D03*
%TO.P,J5,74*%
X41000000Y-44275000D03*
%TO.P,J5,75*%
X46730000Y-43475000D03*
%TO.P,J5,76*%
%TO.N,SIPM_K17*%
X41000000Y-43475000D03*
%TO.P,J5,77*%
%TO.N,THERM4*%
X46730000Y-42675000D03*
%TO.P,J5,78*%
%TO.N,GNDA*%
X41000000Y-42675000D03*
%TO.P,J5,79*%
%TO.N,THERM5*%
X46730000Y-41875000D03*
%TO.P,J5,80*%
%TO.N,SIPM_K16*%
X41000000Y-41875000D03*
D15*
%TO.P,J5,G1*%
%TO.N,GNDA*%
X43865000Y-77540000D03*
D16*
%TO.P,J5,G2*%
X43865000Y-72650000D03*
%TO.P,J5,G3*%
X43865000Y-66300000D03*
D15*
%TO.P,J5,G4*%
X43865000Y-61410000D03*
%TO.P,J5,G5*%
X43865000Y-57540000D03*
D16*
%TO.P,J5,G6*%
X43865000Y-52650000D03*
%TO.P,J5,G7*%
X43865000Y-46300000D03*
D15*
%TO.P,J5,G8*%
X43865000Y-41410000D03*
%TD*%
D10*
%TO.P,K7,1*%
%TO.N,SIPM_K7*%
X16525000Y-95475000D03*
D11*
%TO.P,K7,2*%
%TO.N,GNDA*%
X15000000Y-96950000D03*
X15000000Y-94000000D03*
%TD*%
D10*
%TO.P,K5,1*%
%TO.N,SIPM_K5*%
X16525000Y-83475000D03*
D11*
%TO.P,K5,2*%
%TO.N,GNDA*%
X15000000Y-84950000D03*
X15000000Y-82000000D03*
%TD*%
D12*
%TO.P,K14,1*%
%TO.N,SIPM_K14*%
X71205000Y-44475000D03*
D13*
%TO.P,K14,2*%
%TO.N,GNDA*%
X72730000Y-43000000D03*
X72730000Y-45950000D03*
%TD*%
D12*
%TO.P,K0,1*%
%TO.N,SIPM_K0*%
X71205000Y-80475000D03*
D13*
%TO.P,K0,2*%
%TO.N,GNDA*%
X72730000Y-79000000D03*
X72730000Y-81950000D03*
%TD*%
D12*
%TO.P,K9,1*%
%TO.N,SIPM_K9*%
X71205000Y-74475000D03*
D13*
%TO.P,K9,2*%
%TO.N,GNDA*%
X72730000Y-73000000D03*
X72730000Y-75950000D03*
%TD*%
D10*
%TO.P,K19,1*%
%TO.N,SIPM_K19*%
X16525000Y-41475000D03*
D11*
%TO.P,K19,2*%
%TO.N,GNDA*%
X15000000Y-42950000D03*
X15000000Y-40000000D03*
%TD*%
D12*
%TO.P,K13,1*%
%TO.N,SIPM_K13*%
X71205000Y-50475000D03*
D13*
%TO.P,K13,2*%
%TO.N,GNDA*%
X72730000Y-49000000D03*
X72730000Y-51950000D03*
%TD*%
D12*
%TO.P,K8,1*%
%TO.N,SIPM_K8*%
X71205000Y-86475000D03*
D13*
%TO.P,K8,2*%
%TO.N,GNDA*%
X72730000Y-85000000D03*
X72730000Y-87950000D03*
%TD*%
D12*
%TO.P,K15,1*%
%TO.N,SIPM_K15*%
X71205000Y-32475000D03*
D13*
%TO.P,K15,2*%
%TO.N,GNDA*%
X72730000Y-31000000D03*
X72730000Y-33950000D03*
%TD*%
D12*
%TO.P,K11,1*%
%TO.N,SIPM_K11*%
X71205000Y-62475000D03*
D13*
%TO.P,K11,2*%
%TO.N,GNDA*%
X72730000Y-61000000D03*
X72730000Y-63950000D03*
%TD*%
D10*
%TO.P,K17,1*%
%TO.N,SIPM_K17*%
X16525000Y-29475000D03*
D11*
%TO.P,K17,2*%
%TO.N,GNDA*%
X15000000Y-30950000D03*
X15000000Y-28000000D03*
%TD*%
D12*
%TO.P,K23,1*%
%TO.N,SIPM_K23*%
X71205000Y-38475000D03*
D13*
%TO.P,K23,2*%
%TO.N,GNDA*%
X72730000Y-37000000D03*
X72730000Y-39950000D03*
%TD*%
D10*
%TO.P,K6,1*%
%TO.N,SIPM_K6*%
X16525000Y-89475000D03*
D11*
%TO.P,K6,2*%
%TO.N,GNDA*%
X15000000Y-90950000D03*
X15000000Y-88000000D03*
%TD*%
D10*
%TO.P,K4,1*%
%TO.N,SIPM_K4*%
X16525000Y-77475000D03*
D11*
%TO.P,K4,2*%
%TO.N,GNDA*%
X15000000Y-78950000D03*
X15000000Y-76000000D03*
%TD*%
D10*
%TO.P,IV,1*%
%TO.N,IV*%
X16525000Y-59475000D03*
D11*
%TO.P,IV,2*%
%TO.N,GNDA*%
X15000000Y-60950000D03*
X15000000Y-58000000D03*
%TD*%
D10*
%TO.P,K21,1*%
%TO.N,SIPM_K21*%
X16525000Y-53475000D03*
D11*
%TO.P,K21,2*%
%TO.N,GNDA*%
X15000000Y-54950000D03*
X15000000Y-52000000D03*
%TD*%
D10*
%TO.P,K16,1*%
%TO.N,SIPM_K16*%
X16525000Y-23475000D03*
D11*
%TO.P,K16,2*%
%TO.N,GNDA*%
X15000000Y-24950000D03*
X15000000Y-22000000D03*
%TD*%
D12*
%TO.P,K22,1*%
%TO.N,SIPM_K22*%
X71205000Y-26475000D03*
D13*
%TO.P,K22,2*%
%TO.N,GNDA*%
X72730000Y-25000000D03*
X72730000Y-27950000D03*
%TD*%
D10*
%TO.P,K3,1*%
%TO.N,SIPM_K3*%
X16525000Y-71475000D03*
D11*
%TO.P,K3,2*%
%TO.N,GNDA*%
X15000000Y-72950000D03*
X15000000Y-70000000D03*
%TD*%
D12*
%TO.P,K10,1*%
%TO.N,SIPM_K10*%
X71205000Y-68475000D03*
D13*
%TO.P,K10,2*%
%TO.N,GNDA*%
X72730000Y-67000000D03*
X72730000Y-69950000D03*
%TD*%
D10*
%TO.P,K2,1*%
%TO.N,SIPM_K2*%
X16525000Y-65475000D03*
D11*
%TO.P,K2,2*%
%TO.N,GNDA*%
X15000000Y-66950000D03*
X15000000Y-64000000D03*
%TD*%
D17*
%TO.N,GNDA*%
X29925000Y-12925000D03*
X47925000Y-106025000D03*
X35925000Y-12925000D03*
X59925000Y-12925000D03*
X59925000Y-106025000D03*
X65925000Y-12925000D03*
X23925000Y-106025000D03*
X35925000Y-106025000D03*
X41925000Y-106025000D03*
X29925000Y-106025000D03*
X47925000Y-12925000D03*
X11925000Y-12925000D03*
X11925000Y-106025000D03*
X53925000Y-12925000D03*
X53925000Y-106025000D03*
X41925000Y-12925000D03*
X23925000Y-12925000D03*
X65925000Y-106025000D03*
%TO.N,SIPM_K1*%
X67205000Y-92475000D03*
X39000000Y-67475000D03*
%TO.N,SIPM_K0*%
X39000000Y-65875000D03*
X67205000Y-80475000D03*
%TO.N,SIPM_K23*%
X67205000Y-38475000D03*
X39000000Y-53075000D03*
%TO.N,SIPM_K22*%
X39000000Y-51475000D03*
X67205000Y-26475000D03*
%TD*%
%TO.N,SIPM_K18*%
D18*
X39000000Y-45075000D02*
X20525000Y-35475000D01*
X20525000Y-35475000D02*
X16525000Y-35475000D01*
X41000000Y-45075000D02*
X39000000Y-45075000D01*
%TO.N,SIPM_K20*%
X20525000Y-47475000D02*
X16525000Y-47475000D01*
X41000000Y-48275000D02*
X39000000Y-48275000D01*
X39000000Y-48275000D02*
X20525000Y-47475000D01*
%TO.N,SIPM_K12*%
X46730000Y-57075000D02*
X48730000Y-57075000D01*
X67205000Y-56475000D02*
X71205000Y-56475000D01*
X48730000Y-57075000D02*
X67205000Y-56475000D01*
%TO.N,SIPM_K1*%
X67205000Y-92475000D02*
X71205000Y-92475000D01*
X41000000Y-67475000D02*
X39000000Y-67475000D01*
%TO.N,SIPM_K7*%
X20525000Y-95475000D02*
X16525000Y-95475000D01*
X41000000Y-77075000D02*
X39000000Y-77075000D01*
X39000000Y-77075000D02*
X20525000Y-95475000D01*
%TO.N,SIPM_K6*%
X20525000Y-89475000D02*
X16525000Y-89475000D01*
X39000000Y-75475000D02*
X20525000Y-89475000D01*
X41000000Y-75475000D02*
X39000000Y-75475000D01*
%TO.N,SIPM_K5*%
X39000000Y-73875000D02*
X20525000Y-83475000D01*
X20525000Y-83475000D02*
X16525000Y-83475000D01*
X41000000Y-73875000D02*
X39000000Y-73875000D01*
%TO.N,SIPM_K4*%
X41000000Y-72275000D02*
X39000000Y-72275000D01*
X20525000Y-77475000D02*
X16525000Y-77475000D01*
X39000000Y-72275000D02*
X20525000Y-77475000D01*
%TO.N,SIPM_K3*%
X20525000Y-71475000D02*
X16525000Y-71475000D01*
X39000000Y-70675000D02*
X20525000Y-71475000D01*
X41000000Y-70675000D02*
X39000000Y-70675000D01*
%TO.N,SIPM_K2*%
X41000000Y-69075000D02*
X39000000Y-69075000D01*
X20525000Y-65475000D02*
X16525000Y-65475000D01*
X39000000Y-69075000D02*
X20525000Y-65475000D01*
%TO.N,SIPM_K8*%
X48730000Y-66675000D02*
X67205000Y-86475000D01*
X67205000Y-86475000D02*
X71205000Y-86475000D01*
X46730000Y-66675000D02*
X48730000Y-66675000D01*
%TO.N,SIPM_K0*%
X67205000Y-80475000D02*
X71205000Y-80475000D01*
X41000000Y-65875000D02*
X39000000Y-65875000D01*
%TO.N,SIPM_K9*%
X67205000Y-74475000D02*
X71205000Y-74475000D01*
X46730000Y-65075000D02*
X48730000Y-65075000D01*
X48730000Y-65075000D02*
X67205000Y-74475000D01*
%TO.N,SIPM_K10*%
X48730000Y-63475000D02*
X67205000Y-68475000D01*
X67205000Y-68475000D02*
X71205000Y-68475000D01*
X46730000Y-63475000D02*
X48730000Y-63475000D01*
%TO.N,SIPM_K11*%
X67205000Y-62475000D02*
X71205000Y-62475000D01*
X46730000Y-61875000D02*
X48730000Y-61875000D01*
X48730000Y-61875000D02*
X67205000Y-62475000D01*
%TO.N,IV*%
X39000000Y-61875000D02*
X20525000Y-59475000D01*
X41000000Y-61875000D02*
X41000000Y-57075000D01*
X20525000Y-59475000D02*
X16525000Y-59475000D01*
X41000000Y-61875000D02*
X39000000Y-61875000D01*
%TO.N,SIPM_K13*%
X48730000Y-55475000D02*
X67205000Y-50475000D01*
X46730000Y-55475000D02*
X48730000Y-55475000D01*
X67205000Y-50475000D02*
X71205000Y-50475000D01*
%TO.N,SIPM_K14*%
X67205000Y-44475000D02*
X71205000Y-44475000D01*
X48730000Y-53875000D02*
X67205000Y-44475000D01*
X46730000Y-53875000D02*
X48730000Y-53875000D01*
%TO.N,SIPM_K23*%
X41000000Y-53075000D02*
X39000000Y-53075000D01*
X67205000Y-38475000D02*
X71205000Y-38475000D01*
%TO.N,SIPM_K15*%
X46730000Y-52275000D02*
X48730000Y-52275000D01*
X67205000Y-32475000D02*
X71205000Y-32475000D01*
X48730000Y-52275000D02*
X67205000Y-32475000D01*
%TO.N,SIPM_K22*%
X67205000Y-26475000D02*
X71205000Y-26475000D01*
X41000000Y-51475000D02*
X39000000Y-51475000D01*
%TO.N,SIPM_K21*%
X20525000Y-53475000D02*
X16525000Y-53475000D01*
X39000000Y-49875000D02*
X20525000Y-53475000D01*
X41000000Y-49875000D02*
X39000000Y-49875000D01*
%TO.N,SIPM_K19*%
X39000000Y-46675000D02*
X20525000Y-41475000D01*
X20525000Y-41475000D02*
X16525000Y-41475000D01*
X41000000Y-46675000D02*
X39000000Y-46675000D01*
%TO.N,SIPM_K17*%
X20525000Y-29475000D02*
X16525000Y-29475000D01*
X41000000Y-43475000D02*
X39000000Y-43475000D01*
X39000000Y-43475000D02*
X20525000Y-29475000D01*
%TO.N,SIPM_K16*%
X20525000Y-23475000D02*
X16525000Y-23475000D01*
X39000000Y-41875000D02*
X20525000Y-23475000D01*
X41000000Y-41875000D02*
X39000000Y-41875000D01*
%TD*%
%TA.AperFunction,Conductor*%
%TO.N,GNDA*%
G36*
X78172539Y-10520185D02*
G01*
X78218294Y-10572989D01*
X78229500Y-10624500D01*
X78229500Y-108325500D01*
X78209815Y-108392539D01*
X78157011Y-108438294D01*
X78105500Y-108449500D01*
X9624500Y-108449500D01*
X9557461Y-108429815D01*
X9511706Y-108377011D01*
X9500500Y-108325500D01*
X9500500Y-103828711D01*
X14674500Y-103828711D01*
X14674500Y-104071288D01*
X14706161Y-104311785D01*
X14768947Y-104546104D01*
X14861773Y-104770205D01*
X14861776Y-104770212D01*
X14983064Y-104980289D01*
X14983066Y-104980292D01*
X14983067Y-104980293D01*
X15130733Y-105172736D01*
X15130739Y-105172743D01*
X15302256Y-105344260D01*
X15302262Y-105344265D01*
X15494711Y-105491936D01*
X15704788Y-105613224D01*
X15928900Y-105706054D01*
X16163211Y-105768838D01*
X16343586Y-105792584D01*
X16403711Y-105800500D01*
X16403712Y-105800500D01*
X16646289Y-105800500D01*
X16694388Y-105794167D01*
X16886789Y-105768838D01*
X17121100Y-105706054D01*
X17345212Y-105613224D01*
X17555289Y-105491936D01*
X17747738Y-105344265D01*
X17919265Y-105172738D01*
X18066936Y-104980289D01*
X18188224Y-104770212D01*
X18281054Y-104546100D01*
X18343838Y-104311789D01*
X18375500Y-104071288D01*
X18375500Y-103828712D01*
X18375500Y-103828711D01*
X69354500Y-103828711D01*
X69354500Y-104071288D01*
X69386161Y-104311785D01*
X69448947Y-104546104D01*
X69541773Y-104770205D01*
X69541776Y-104770212D01*
X69663064Y-104980289D01*
X69663066Y-104980292D01*
X69663067Y-104980293D01*
X69810733Y-105172736D01*
X69810739Y-105172743D01*
X69982256Y-105344260D01*
X69982262Y-105344265D01*
X70174711Y-105491936D01*
X70384788Y-105613224D01*
X70608900Y-105706054D01*
X70843211Y-105768838D01*
X71023586Y-105792584D01*
X71083711Y-105800500D01*
X71083712Y-105800500D01*
X71326289Y-105800500D01*
X71374388Y-105794167D01*
X71566789Y-105768838D01*
X71801100Y-105706054D01*
X72025212Y-105613224D01*
X72235289Y-105491936D01*
X72427738Y-105344265D01*
X72599265Y-105172738D01*
X72746936Y-104980289D01*
X72868224Y-104770212D01*
X72961054Y-104546100D01*
X73023838Y-104311789D01*
X73055500Y-104071288D01*
X73055500Y-103828712D01*
X73023838Y-103588211D01*
X72961054Y-103353900D01*
X72868224Y-103129788D01*
X72746936Y-102919711D01*
X72599265Y-102727262D01*
X72599260Y-102727256D01*
X72427743Y-102555739D01*
X72427736Y-102555733D01*
X72235293Y-102408067D01*
X72235292Y-102408066D01*
X72235289Y-102408064D01*
X72025212Y-102286776D01*
X72025205Y-102286773D01*
X71801104Y-102193947D01*
X71566785Y-102131161D01*
X71326289Y-102099500D01*
X71326288Y-102099500D01*
X71083712Y-102099500D01*
X71083711Y-102099500D01*
X70843214Y-102131161D01*
X70608895Y-102193947D01*
X70384794Y-102286773D01*
X70384785Y-102286777D01*
X70174706Y-102408067D01*
X69982263Y-102555733D01*
X69982256Y-102555739D01*
X69810739Y-102727256D01*
X69810733Y-102727263D01*
X69663067Y-102919706D01*
X69541777Y-103129785D01*
X69541773Y-103129794D01*
X69448947Y-103353895D01*
X69386161Y-103588214D01*
X69354500Y-103828711D01*
X18375500Y-103828711D01*
X18343838Y-103588211D01*
X18281054Y-103353900D01*
X18188224Y-103129788D01*
X18066936Y-102919711D01*
X17919265Y-102727262D01*
X17919260Y-102727256D01*
X17747743Y-102555739D01*
X17747736Y-102555733D01*
X17555293Y-102408067D01*
X17555292Y-102408066D01*
X17555289Y-102408064D01*
X17345212Y-102286776D01*
X17345205Y-102286773D01*
X17121104Y-102193947D01*
X16886785Y-102131161D01*
X16646289Y-102099500D01*
X16646288Y-102099500D01*
X16403712Y-102099500D01*
X16403711Y-102099500D01*
X16163214Y-102131161D01*
X15928895Y-102193947D01*
X15704794Y-102286773D01*
X15704785Y-102286777D01*
X15494706Y-102408067D01*
X15302263Y-102555733D01*
X15302256Y-102555739D01*
X15130739Y-102727256D01*
X15130733Y-102727263D01*
X14983067Y-102919706D01*
X14861777Y-103129785D01*
X14861773Y-103129794D01*
X14768947Y-103353895D01*
X14706161Y-103588214D01*
X14674500Y-103828711D01*
X9500500Y-103828711D01*
X9500500Y-94525000D01*
X13900000Y-94525000D01*
X13900000Y-96425000D01*
X15990000Y-96425000D01*
X15990000Y-96389235D01*
X16009685Y-96322196D01*
X16062489Y-96276441D01*
X16128781Y-96266119D01*
X16206898Y-96275500D01*
X16206905Y-96275500D01*
X16843097Y-96275500D01*
X16843102Y-96275500D01*
X16931564Y-96264877D01*
X17072342Y-96209361D01*
X17192922Y-96117922D01*
X17284361Y-95997342D01*
X17284361Y-95997341D01*
X17286460Y-95994574D01*
X17342653Y-95953051D01*
X17385264Y-95945500D01*
X20524535Y-95945500D01*
X20585985Y-95945625D01*
X20586455Y-95945500D01*
X20586943Y-95945500D01*
X20586944Y-95945500D01*
X20646472Y-95929548D01*
X20646487Y-95929544D01*
X20705714Y-95913804D01*
X20706115Y-95913572D01*
X20706562Y-95913453D01*
X20706597Y-95913438D01*
X20706606Y-95913436D01*
X20759939Y-95882644D01*
X20813127Y-95852081D01*
X20813133Y-95852074D01*
X20813883Y-95851499D01*
X20813894Y-95851494D01*
X20857467Y-95807920D01*
X23398030Y-93277671D01*
X24283352Y-92395943D01*
X66604500Y-92395943D01*
X66604500Y-92554056D01*
X66645423Y-92706783D01*
X66645426Y-92706790D01*
X66724475Y-92843709D01*
X66724479Y-92843714D01*
X66724480Y-92843716D01*
X66836284Y-92955520D01*
X66836286Y-92955521D01*
X66836290Y-92955524D01*
X66853024Y-92965185D01*
X66973216Y-93034577D01*
X67125943Y-93075500D01*
X67125945Y-93075500D01*
X67284055Y-93075500D01*
X67284057Y-93075500D01*
X67436784Y-93034577D01*
X67506072Y-92994574D01*
X67562298Y-92962113D01*
X67624297Y-92945500D01*
X70344736Y-92945500D01*
X70411775Y-92965185D01*
X70443540Y-92994574D01*
X70537079Y-93117923D01*
X70657656Y-93209360D01*
X70657657Y-93209360D01*
X70657658Y-93209361D01*
X70798436Y-93264877D01*
X70886898Y-93275500D01*
X70886903Y-93275500D01*
X71523095Y-93275500D01*
X71523102Y-93275500D01*
X71601218Y-93266119D01*
X71670124Y-93277671D01*
X71721848Y-93324643D01*
X71740000Y-93389235D01*
X71740000Y-93425000D01*
X73830000Y-93425000D01*
X73830000Y-91525000D01*
X71740000Y-91525000D01*
X71740000Y-91560764D01*
X71720315Y-91627803D01*
X71667511Y-91673558D01*
X71601217Y-91683880D01*
X71566682Y-91679733D01*
X71523102Y-91674500D01*
X70886898Y-91674500D01*
X70847853Y-91679188D01*
X70798438Y-91685122D01*
X70657656Y-91740639D01*
X70537079Y-91832076D01*
X70443540Y-91955426D01*
X70387347Y-91996949D01*
X70344736Y-92004500D01*
X67624297Y-92004500D01*
X67562298Y-91987887D01*
X67436790Y-91915426D01*
X67436786Y-91915424D01*
X67436784Y-91915423D01*
X67284057Y-91874500D01*
X67125943Y-91874500D01*
X66973216Y-91915423D01*
X66973209Y-91915426D01*
X66836290Y-91994475D01*
X66836282Y-91994481D01*
X66724481Y-92106282D01*
X66724475Y-92106290D01*
X66645426Y-92243209D01*
X66645423Y-92243216D01*
X66604500Y-92395943D01*
X24283352Y-92395943D01*
X24379729Y-92299957D01*
X37266911Y-79465092D01*
X40434500Y-79465092D01*
X40434500Y-79614907D01*
X40463723Y-79761822D01*
X40463725Y-79761830D01*
X40521051Y-79900229D01*
X40521056Y-79900238D01*
X40604280Y-80024790D01*
X40604283Y-80024794D01*
X40710205Y-80130716D01*
X40710209Y-80130719D01*
X40834761Y-80213943D01*
X40834767Y-80213946D01*
X40834768Y-80213947D01*
X40973170Y-80271275D01*
X41120092Y-80300499D01*
X41120096Y-80300500D01*
X41120097Y-80300500D01*
X41269904Y-80300500D01*
X41269905Y-80300499D01*
X41416830Y-80271275D01*
X41555232Y-80213947D01*
X41679791Y-80130719D01*
X41785719Y-80024791D01*
X41868947Y-79900232D01*
X41926275Y-79761830D01*
X41955500Y-79614903D01*
X41955500Y-79465097D01*
X41926275Y-79318170D01*
X41868947Y-79179768D01*
X41868946Y-79179767D01*
X41868943Y-79179761D01*
X41785719Y-79055209D01*
X41785716Y-79055205D01*
X41679794Y-78949283D01*
X41679790Y-78949280D01*
X41555238Y-78866056D01*
X41555229Y-78866051D01*
X41416830Y-78808725D01*
X41416822Y-78808723D01*
X41269907Y-78779500D01*
X41269903Y-78779500D01*
X41120097Y-78779500D01*
X41120092Y-78779500D01*
X40973177Y-78808723D01*
X40973169Y-78808725D01*
X40834770Y-78866051D01*
X40834761Y-78866056D01*
X40710209Y-78949280D01*
X40710205Y-78949283D01*
X40604283Y-79055205D01*
X40604280Y-79055209D01*
X40521056Y-79179761D01*
X40521051Y-79179770D01*
X40463725Y-79318169D01*
X40463723Y-79318177D01*
X40434500Y-79465092D01*
X37266911Y-79465092D01*
X37361240Y-79371146D01*
X39158039Y-77581641D01*
X39219430Y-77548280D01*
X39245542Y-77545500D01*
X39696185Y-77545500D01*
X39746270Y-77556064D01*
X39795009Y-77577585D01*
X39820135Y-77580500D01*
X42179864Y-77580499D01*
X42179879Y-77580497D01*
X42179882Y-77580497D01*
X42204987Y-77577586D01*
X42204988Y-77577585D01*
X42204991Y-77577585D01*
X42307765Y-77532206D01*
X42387206Y-77452765D01*
X42432585Y-77349991D01*
X42435500Y-77324865D01*
X42435499Y-76825136D01*
X42435497Y-76825117D01*
X42432586Y-76800012D01*
X42432585Y-76800010D01*
X42432585Y-76800009D01*
X42387206Y-76697235D01*
X42307765Y-76617794D01*
X42277374Y-76604375D01*
X42204992Y-76572415D01*
X42179865Y-76569500D01*
X39820143Y-76569500D01*
X39820117Y-76569502D01*
X39795012Y-76572413D01*
X39795010Y-76572414D01*
X39746270Y-76593935D01*
X39696185Y-76604500D01*
X39000465Y-76604500D01*
X38939014Y-76604375D01*
X38938544Y-76604500D01*
X38938057Y-76604500D01*
X38878685Y-76620408D01*
X38878684Y-76620407D01*
X38878448Y-76620470D01*
X38878447Y-76620471D01*
X38878360Y-76620494D01*
X38878106Y-76620562D01*
X38819286Y-76636196D01*
X38818865Y-76636437D01*
X38818394Y-76636564D01*
X38765275Y-76667230D01*
X38764754Y-76667530D01*
X38711873Y-76697919D01*
X38711528Y-76698262D01*
X38711106Y-76698506D01*
X38711098Y-76698513D01*
X38711096Y-76698515D01*
X38667533Y-76742078D01*
X20366960Y-94968359D01*
X20305569Y-95001720D01*
X20279457Y-95004500D01*
X17385264Y-95004500D01*
X17318225Y-94984815D01*
X17286460Y-94955426D01*
X17192920Y-94832076D01*
X17072343Y-94740639D01*
X16931561Y-94685122D01*
X16885926Y-94679642D01*
X16843102Y-94674500D01*
X16206898Y-94674500D01*
X16163317Y-94679733D01*
X16128783Y-94683880D01*
X16059875Y-94672328D01*
X16008151Y-94625355D01*
X15990000Y-94560764D01*
X15990000Y-94525000D01*
X13900000Y-94525000D01*
X9500500Y-94525000D01*
X9500500Y-88525000D01*
X13900000Y-88525000D01*
X13900000Y-90425000D01*
X15990000Y-90425000D01*
X15990000Y-90389235D01*
X16009685Y-90322196D01*
X16062489Y-90276441D01*
X16128781Y-90266119D01*
X16206898Y-90275500D01*
X16206905Y-90275500D01*
X16843097Y-90275500D01*
X16843102Y-90275500D01*
X16931564Y-90264877D01*
X17072342Y-90209361D01*
X17192922Y-90117922D01*
X17284361Y-89997342D01*
X17284361Y-89997341D01*
X17286460Y-89994574D01*
X17342653Y-89953051D01*
X17385264Y-89945500D01*
X20492731Y-89945500D01*
X20522135Y-89949552D01*
X20554415Y-89945500D01*
X20586943Y-89945500D01*
X20615612Y-89937818D01*
X20645056Y-89934122D01*
X20675181Y-89921856D01*
X20706606Y-89913436D01*
X20732308Y-89898596D01*
X20759794Y-89887406D01*
X20785718Y-89867761D01*
X20813894Y-89851494D01*
X20828878Y-89836508D01*
X20841646Y-89825378D01*
X36083363Y-78275500D01*
X39124916Y-75970670D01*
X39190236Y-75945870D01*
X39199807Y-75945500D01*
X39696185Y-75945500D01*
X39746270Y-75956064D01*
X39795009Y-75977585D01*
X39820135Y-75980500D01*
X42179864Y-75980499D01*
X42179879Y-75980497D01*
X42179882Y-75980497D01*
X42204987Y-75977586D01*
X42204988Y-75977585D01*
X42204991Y-75977585D01*
X42307765Y-75932206D01*
X42387206Y-75852765D01*
X42432585Y-75749991D01*
X42435500Y-75724865D01*
X42435499Y-75225136D01*
X42433670Y-75209361D01*
X42432586Y-75200012D01*
X42432585Y-75200010D01*
X42432585Y-75200009D01*
X42387206Y-75097235D01*
X42307765Y-75017794D01*
X42295055Y-75012182D01*
X42204992Y-74972415D01*
X42179865Y-74969500D01*
X39820143Y-74969500D01*
X39820117Y-74969502D01*
X39795012Y-74972413D01*
X39795010Y-74972414D01*
X39746270Y-74993935D01*
X39696185Y-75004500D01*
X39032263Y-75004500D01*
X39002864Y-75000449D01*
X38970590Y-75004500D01*
X38938053Y-75004500D01*
X38917596Y-75009982D01*
X38917595Y-75009982D01*
X38909381Y-75012182D01*
X38879944Y-75015878D01*
X38849828Y-75028138D01*
X38842350Y-75030142D01*
X38842341Y-75030146D01*
X38818393Y-75036564D01*
X38800052Y-75047153D01*
X38800051Y-75047152D01*
X38792681Y-75051406D01*
X38765205Y-75062594D01*
X38739285Y-75082234D01*
X38732566Y-75086114D01*
X38732565Y-75086116D01*
X38711105Y-75098506D01*
X38696134Y-75113477D01*
X38683346Y-75124624D01*
X20400084Y-88979330D01*
X20334764Y-89004130D01*
X20325193Y-89004500D01*
X17385264Y-89004500D01*
X17318225Y-88984815D01*
X17286460Y-88955426D01*
X17192920Y-88832076D01*
X17072343Y-88740639D01*
X16931561Y-88685122D01*
X16885926Y-88679642D01*
X16843102Y-88674500D01*
X16206898Y-88674500D01*
X16163317Y-88679733D01*
X16128783Y-88683880D01*
X16059875Y-88672328D01*
X16008151Y-88625355D01*
X15990000Y-88560764D01*
X15990000Y-88525000D01*
X13900000Y-88525000D01*
X9500500Y-88525000D01*
X9500500Y-82525000D01*
X13900000Y-82525000D01*
X13900000Y-84425000D01*
X15990000Y-84425000D01*
X15990000Y-84389235D01*
X16009685Y-84322196D01*
X16062489Y-84276441D01*
X16128781Y-84266119D01*
X16206898Y-84275500D01*
X16206905Y-84275500D01*
X16843097Y-84275500D01*
X16843102Y-84275500D01*
X16931564Y-84264877D01*
X17072342Y-84209361D01*
X17192922Y-84117922D01*
X17284361Y-83997342D01*
X17284361Y-83997341D01*
X17286460Y-83994574D01*
X17342653Y-83953051D01*
X17385264Y-83945500D01*
X20514567Y-83945500D01*
X20566009Y-83947784D01*
X20576348Y-83945500D01*
X20586943Y-83945500D01*
X20634066Y-83932872D01*
X20639376Y-83931576D01*
X20686973Y-83921062D01*
X20686973Y-83921061D01*
X20686977Y-83921061D01*
X20696375Y-83916177D01*
X20706606Y-83913436D01*
X20751210Y-83887684D01*
X39088065Y-74359468D01*
X39145240Y-74345500D01*
X39696185Y-74345500D01*
X39746270Y-74356064D01*
X39795009Y-74377585D01*
X39820135Y-74380500D01*
X42179864Y-74380499D01*
X42179879Y-74380497D01*
X42179882Y-74380497D01*
X42204987Y-74377586D01*
X42204988Y-74377585D01*
X42204991Y-74377585D01*
X42307765Y-74332206D01*
X42387206Y-74252765D01*
X42432585Y-74149991D01*
X42435500Y-74124865D01*
X42435499Y-73625136D01*
X42435497Y-73625117D01*
X42432586Y-73600012D01*
X42432585Y-73600010D01*
X42432585Y-73600009D01*
X42387206Y-73497235D01*
X42307765Y-73417794D01*
X42272482Y-73402215D01*
X42204992Y-73372415D01*
X42179865Y-73369500D01*
X39820143Y-73369500D01*
X39820117Y-73369502D01*
X39795012Y-73372413D01*
X39795010Y-73372414D01*
X39746270Y-73393935D01*
X39696185Y-73404500D01*
X39010447Y-73404500D01*
X38958992Y-73402215D01*
X38948648Y-73404500D01*
X38938057Y-73404500D01*
X38915733Y-73410481D01*
X38890975Y-73417115D01*
X38885634Y-73418419D01*
X38838028Y-73428936D01*
X38838018Y-73428939D01*
X38828616Y-73433824D01*
X38818394Y-73436564D01*
X38773807Y-73462305D01*
X38771353Y-73463581D01*
X20436936Y-82990532D01*
X20379761Y-83004500D01*
X17385264Y-83004500D01*
X17318225Y-82984815D01*
X17286460Y-82955426D01*
X17192920Y-82832076D01*
X17072343Y-82740639D01*
X16931561Y-82685122D01*
X16885926Y-82679642D01*
X16843102Y-82674500D01*
X16206898Y-82674500D01*
X16163317Y-82679733D01*
X16128783Y-82683880D01*
X16059875Y-82672328D01*
X16008151Y-82625355D01*
X15990000Y-82560764D01*
X15990000Y-82525000D01*
X13900000Y-82525000D01*
X9500500Y-82525000D01*
X9500500Y-76525000D01*
X13900000Y-76525000D01*
X13900000Y-78425000D01*
X15990000Y-78425000D01*
X15990000Y-78389235D01*
X16009685Y-78322196D01*
X16062489Y-78276441D01*
X16128781Y-78266119D01*
X16206898Y-78275500D01*
X16206905Y-78275500D01*
X16843097Y-78275500D01*
X16843102Y-78275500D01*
X16931564Y-78264877D01*
X17072342Y-78209361D01*
X17192922Y-78117922D01*
X17284361Y-77997342D01*
X17284361Y-77997341D01*
X17286460Y-77994574D01*
X17342653Y-77953051D01*
X17385264Y-77945500D01*
X20466063Y-77945500D01*
X20468974Y-77946241D01*
X20527965Y-77945500D01*
X20586943Y-77945500D01*
X20587201Y-77945500D01*
X20589169Y-77945216D01*
X20592842Y-77944685D01*
X20592848Y-77944685D01*
X20648941Y-77928896D01*
X20650302Y-77928521D01*
X20706606Y-77913436D01*
X20706607Y-77913435D01*
X20707470Y-77913204D01*
X20719465Y-77909046D01*
X39048474Y-72750138D01*
X39082070Y-72745500D01*
X39696185Y-72745500D01*
X39746270Y-72756064D01*
X39795009Y-72777585D01*
X39820135Y-72780500D01*
X42179864Y-72780499D01*
X42179879Y-72780497D01*
X42179882Y-72780497D01*
X42204987Y-72777586D01*
X42204988Y-72777585D01*
X42204991Y-72777585D01*
X42307765Y-72732206D01*
X42387206Y-72652765D01*
X42432585Y-72549991D01*
X42435500Y-72524865D01*
X42435499Y-72025136D01*
X42435497Y-72025117D01*
X42432586Y-72000012D01*
X42432585Y-72000010D01*
X42432585Y-72000009D01*
X42387206Y-71897235D01*
X42307765Y-71817794D01*
X42279503Y-71805315D01*
X42204992Y-71772415D01*
X42179865Y-71769500D01*
X39820143Y-71769500D01*
X39820117Y-71769502D01*
X39795012Y-71772413D01*
X39795010Y-71772414D01*
X39746270Y-71793935D01*
X39696185Y-71804500D01*
X39058937Y-71804500D01*
X39056026Y-71803759D01*
X38997034Y-71804500D01*
X38937788Y-71804500D01*
X38935860Y-71804778D01*
X38935861Y-71804779D01*
X38932151Y-71805314D01*
X38876025Y-71821111D01*
X38874527Y-71821522D01*
X38817547Y-71836791D01*
X38805539Y-71840950D01*
X20476525Y-76999862D01*
X20442929Y-77004500D01*
X17385264Y-77004500D01*
X17318225Y-76984815D01*
X17286460Y-76955426D01*
X17192920Y-76832076D01*
X17072343Y-76740639D01*
X16976192Y-76702722D01*
X16931564Y-76685123D01*
X16931563Y-76685122D01*
X16931561Y-76685122D01*
X16885926Y-76679642D01*
X16843102Y-76674500D01*
X16206898Y-76674500D01*
X16163317Y-76679733D01*
X16128783Y-76683880D01*
X16059875Y-76672328D01*
X16008151Y-76625355D01*
X15990000Y-76560764D01*
X15990000Y-76525000D01*
X13900000Y-76525000D01*
X9500500Y-76525000D01*
X9500500Y-70525000D01*
X13900000Y-70525000D01*
X13900000Y-72425000D01*
X15990000Y-72425000D01*
X15990000Y-72389235D01*
X16009685Y-72322196D01*
X16062489Y-72276441D01*
X16128781Y-72266119D01*
X16206898Y-72275500D01*
X16206905Y-72275500D01*
X16843097Y-72275500D01*
X16843102Y-72275500D01*
X16931564Y-72264877D01*
X17072342Y-72209361D01*
X17192922Y-72117922D01*
X17284361Y-71997342D01*
X17284361Y-71997341D01*
X17286460Y-71994574D01*
X17342653Y-71953051D01*
X17385264Y-71945500D01*
X20473387Y-71945500D01*
X20483469Y-71947739D01*
X20535176Y-71945500D01*
X20586943Y-71945500D01*
X20586946Y-71945500D01*
X20595005Y-71944439D01*
X20595028Y-71944618D01*
X20610511Y-71942237D01*
X39007508Y-71145615D01*
X39012872Y-71145500D01*
X39696185Y-71145500D01*
X39746270Y-71156064D01*
X39795009Y-71177585D01*
X39820135Y-71180500D01*
X42179864Y-71180499D01*
X42179879Y-71180497D01*
X42179882Y-71180497D01*
X42204987Y-71177586D01*
X42204988Y-71177585D01*
X42204991Y-71177585D01*
X42307765Y-71132206D01*
X42387206Y-71052765D01*
X42432585Y-70949991D01*
X42435500Y-70924865D01*
X42435499Y-70425136D01*
X42435497Y-70425117D01*
X42432586Y-70400012D01*
X42432585Y-70400010D01*
X42432585Y-70400009D01*
X42387206Y-70297235D01*
X42307765Y-70217794D01*
X42204992Y-70172415D01*
X42179865Y-70169500D01*
X39820143Y-70169500D01*
X39820117Y-70169502D01*
X39795012Y-70172413D01*
X39795010Y-70172414D01*
X39746270Y-70193935D01*
X39696185Y-70204500D01*
X39051613Y-70204500D01*
X39041531Y-70202261D01*
X38989824Y-70204500D01*
X38938054Y-70204500D01*
X38929998Y-70205560D01*
X38929974Y-70205382D01*
X38914491Y-70207761D01*
X20517493Y-71004384D01*
X20512129Y-71004500D01*
X17385264Y-71004500D01*
X17318225Y-70984815D01*
X17286460Y-70955426D01*
X17282340Y-70949993D01*
X17192922Y-70832078D01*
X17192920Y-70832077D01*
X17192920Y-70832076D01*
X17072343Y-70740639D01*
X16931561Y-70685122D01*
X16885926Y-70679642D01*
X16843102Y-70674500D01*
X16206898Y-70674500D01*
X16163317Y-70679733D01*
X16128783Y-70683880D01*
X16059875Y-70672328D01*
X16008151Y-70625355D01*
X15990000Y-70560764D01*
X15990000Y-70525000D01*
X13900000Y-70525000D01*
X9500500Y-70525000D01*
X9500500Y-66425000D01*
X13900000Y-66425000D01*
X15990000Y-66425000D01*
X15990000Y-66389235D01*
X16009685Y-66322196D01*
X16062489Y-66276441D01*
X16128781Y-66266119D01*
X16206898Y-66275500D01*
X16206905Y-66275500D01*
X16843097Y-66275500D01*
X16843102Y-66275500D01*
X16931564Y-66264877D01*
X17072342Y-66209361D01*
X17192922Y-66117922D01*
X17284361Y-65997342D01*
X17284361Y-65997341D01*
X17286460Y-65994574D01*
X17342653Y-65953051D01*
X17385264Y-65945500D01*
X20467617Y-65945500D01*
X20491333Y-65947789D01*
X38889776Y-69532870D01*
X38889777Y-69532871D01*
X38893997Y-69533693D01*
X38938057Y-69545500D01*
X38954585Y-69545500D01*
X38970812Y-69548662D01*
X39012037Y-69545798D01*
X39020630Y-69545500D01*
X39696185Y-69545500D01*
X39746270Y-69556064D01*
X39795009Y-69577585D01*
X39820135Y-69580500D01*
X42179864Y-69580499D01*
X42179879Y-69580497D01*
X42179882Y-69580497D01*
X42204987Y-69577586D01*
X42204988Y-69577585D01*
X42204991Y-69577585D01*
X42307765Y-69532206D01*
X42387206Y-69452765D01*
X42432585Y-69349991D01*
X42435500Y-69324865D01*
X42435499Y-68825136D01*
X42435497Y-68825117D01*
X42432586Y-68800012D01*
X42432585Y-68800010D01*
X42432585Y-68800009D01*
X42387206Y-68697235D01*
X42307765Y-68617794D01*
X42272473Y-68602211D01*
X42204992Y-68572415D01*
X42179865Y-68569500D01*
X39820143Y-68569500D01*
X39820117Y-68569502D01*
X39795012Y-68572413D01*
X39795010Y-68572414D01*
X39746270Y-68593935D01*
X39696185Y-68604500D01*
X39057383Y-68604500D01*
X39033667Y-68602211D01*
X33426073Y-67509527D01*
X32843166Y-67395943D01*
X38399500Y-67395943D01*
X38399500Y-67554056D01*
X38440423Y-67706783D01*
X38440426Y-67706790D01*
X38519475Y-67843709D01*
X38519479Y-67843714D01*
X38519480Y-67843716D01*
X38631284Y-67955520D01*
X38631286Y-67955521D01*
X38631290Y-67955524D01*
X38768209Y-68034573D01*
X38768216Y-68034577D01*
X38920943Y-68075500D01*
X38920945Y-68075500D01*
X39079055Y-68075500D01*
X39079057Y-68075500D01*
X39231784Y-68034577D01*
X39291338Y-68000194D01*
X39357298Y-67962113D01*
X39419297Y-67945500D01*
X39696185Y-67945500D01*
X39746270Y-67956064D01*
X39795009Y-67977585D01*
X39820135Y-67980500D01*
X42179864Y-67980499D01*
X42179879Y-67980497D01*
X42179882Y-67980497D01*
X42204987Y-67977586D01*
X42204988Y-67977585D01*
X42204991Y-67977585D01*
X42307765Y-67932206D01*
X42387206Y-67852765D01*
X42432585Y-67749991D01*
X42435500Y-67724865D01*
X42435499Y-67225136D01*
X42435497Y-67225117D01*
X42432586Y-67200012D01*
X42432585Y-67200010D01*
X42432585Y-67200009D01*
X42387206Y-67097235D01*
X42307765Y-67017794D01*
X42254964Y-66994480D01*
X42204992Y-66972415D01*
X42179865Y-66969500D01*
X39820143Y-66969500D01*
X39820117Y-66969502D01*
X39795012Y-66972413D01*
X39795010Y-66972414D01*
X39746270Y-66993935D01*
X39696185Y-67004500D01*
X39419297Y-67004500D01*
X39357298Y-66987887D01*
X39231790Y-66915426D01*
X39231786Y-66915424D01*
X39231784Y-66915423D01*
X39079057Y-66874500D01*
X38920943Y-66874500D01*
X38768216Y-66915423D01*
X38768209Y-66915426D01*
X38631290Y-66994475D01*
X38631282Y-66994481D01*
X38519481Y-67106282D01*
X38519475Y-67106290D01*
X38440426Y-67243209D01*
X38440423Y-67243216D01*
X38399500Y-67395943D01*
X32843166Y-67395943D01*
X25214961Y-65909527D01*
X24632054Y-65795943D01*
X38399500Y-65795943D01*
X38399500Y-65954057D01*
X38410357Y-65994574D01*
X38440423Y-66106783D01*
X38440426Y-66106790D01*
X38519475Y-66243709D01*
X38519479Y-66243714D01*
X38519480Y-66243716D01*
X38631284Y-66355520D01*
X38631286Y-66355521D01*
X38631290Y-66355524D01*
X38714577Y-66403609D01*
X38768216Y-66434577D01*
X38920943Y-66475500D01*
X38920945Y-66475500D01*
X39079055Y-66475500D01*
X39079057Y-66475500D01*
X39231784Y-66434577D01*
X39248145Y-66425131D01*
X45294500Y-66425131D01*
X45294500Y-66924856D01*
X45294502Y-66924882D01*
X45297413Y-66949987D01*
X45297415Y-66949991D01*
X45342793Y-67052764D01*
X45342794Y-67052765D01*
X45422235Y-67132206D01*
X45525009Y-67177585D01*
X45550135Y-67180500D01*
X47909864Y-67180499D01*
X47909879Y-67180497D01*
X47909882Y-67180497D01*
X47934987Y-67177586D01*
X47934988Y-67177585D01*
X47934991Y-67177585D01*
X47972824Y-67160879D01*
X47983730Y-67156065D01*
X48033815Y-67145500D01*
X48471611Y-67145500D01*
X48538650Y-67165185D01*
X48562273Y-67184905D01*
X65824470Y-85685122D01*
X66824373Y-86756736D01*
X66828506Y-86763894D01*
X66866554Y-86801942D01*
X66903254Y-86841274D01*
X66910262Y-86845650D01*
X66916106Y-86851494D01*
X66962707Y-86878399D01*
X66964515Y-86879528D01*
X66964516Y-86879529D01*
X67008330Y-86906888D01*
X67008331Y-86906888D01*
X67008334Y-86906890D01*
X67016235Y-86909303D01*
X67023394Y-86913436D01*
X67075367Y-86927361D01*
X67077412Y-86927986D01*
X67077413Y-86927986D01*
X67077414Y-86927987D01*
X67102872Y-86935762D01*
X67126816Y-86943075D01*
X67134200Y-86943329D01*
X67135074Y-86943360D01*
X67143057Y-86945500D01*
X67196851Y-86945500D01*
X67250627Y-86947362D01*
X67250631Y-86947361D01*
X67258716Y-86946581D01*
X67258766Y-86947104D01*
X67272828Y-86945500D01*
X70344736Y-86945500D01*
X70411775Y-86965185D01*
X70443540Y-86994574D01*
X70537079Y-87117923D01*
X70657656Y-87209360D01*
X70657657Y-87209360D01*
X70657658Y-87209361D01*
X70798436Y-87264877D01*
X70886898Y-87275500D01*
X70886903Y-87275500D01*
X71523095Y-87275500D01*
X71523102Y-87275500D01*
X71601218Y-87266119D01*
X71670124Y-87277671D01*
X71721848Y-87324643D01*
X71740000Y-87389235D01*
X71740000Y-87425000D01*
X73830000Y-87425000D01*
X73830000Y-85525000D01*
X71740000Y-85525000D01*
X71740000Y-85560764D01*
X71720315Y-85627803D01*
X71667511Y-85673558D01*
X71601217Y-85683880D01*
X71566682Y-85679733D01*
X71523102Y-85674500D01*
X70886898Y-85674500D01*
X70847853Y-85679188D01*
X70798438Y-85685122D01*
X70657656Y-85740639D01*
X70537079Y-85832076D01*
X70443540Y-85955426D01*
X70387347Y-85996949D01*
X70344736Y-86004500D01*
X67463388Y-86004500D01*
X67396349Y-85984815D01*
X67372726Y-85965095D01*
X62772154Y-81034577D01*
X62176257Y-80395943D01*
X66604500Y-80395943D01*
X66604500Y-80554056D01*
X66645423Y-80706783D01*
X66645426Y-80706790D01*
X66724475Y-80843709D01*
X66724479Y-80843714D01*
X66724480Y-80843716D01*
X66836284Y-80955520D01*
X66836286Y-80955521D01*
X66836290Y-80955524D01*
X66853024Y-80965185D01*
X66973216Y-81034577D01*
X67125943Y-81075500D01*
X67125945Y-81075500D01*
X67284055Y-81075500D01*
X67284057Y-81075500D01*
X67436784Y-81034577D01*
X67506072Y-80994574D01*
X67562298Y-80962113D01*
X67624297Y-80945500D01*
X70344736Y-80945500D01*
X70411775Y-80965185D01*
X70443540Y-80994574D01*
X70537079Y-81117923D01*
X70657656Y-81209360D01*
X70657657Y-81209360D01*
X70657658Y-81209361D01*
X70798436Y-81264877D01*
X70886898Y-81275500D01*
X70886903Y-81275500D01*
X71523095Y-81275500D01*
X71523102Y-81275500D01*
X71601218Y-81266119D01*
X71670124Y-81277671D01*
X71721848Y-81324643D01*
X71740000Y-81389235D01*
X71740000Y-81425000D01*
X73830000Y-81425000D01*
X73830000Y-79525000D01*
X71740000Y-79525000D01*
X71740000Y-79560764D01*
X71720315Y-79627803D01*
X71667511Y-79673558D01*
X71601217Y-79683880D01*
X71566682Y-79679733D01*
X71523102Y-79674500D01*
X70886898Y-79674500D01*
X70847853Y-79679188D01*
X70798438Y-79685122D01*
X70657656Y-79740639D01*
X70537079Y-79832076D01*
X70443540Y-79955426D01*
X70387347Y-79996949D01*
X70344736Y-80004500D01*
X67624297Y-80004500D01*
X67562298Y-79987887D01*
X67436790Y-79915426D01*
X67436786Y-79915424D01*
X67436784Y-79915423D01*
X67284057Y-79874500D01*
X67125943Y-79874500D01*
X66973216Y-79915423D01*
X66973209Y-79915426D01*
X66836290Y-79994475D01*
X66836282Y-79994481D01*
X66724481Y-80106282D01*
X66724475Y-80106290D01*
X66645426Y-80243209D01*
X66645423Y-80243216D01*
X66604500Y-80395943D01*
X62176257Y-80395943D01*
X55914519Y-73685122D01*
X49120279Y-66403608D01*
X49110626Y-66393263D01*
X49106494Y-66386106D01*
X49068445Y-66348057D01*
X49031746Y-66308726D01*
X49031743Y-66308724D01*
X49031742Y-66308723D01*
X49025471Y-66303556D01*
X49025805Y-66303150D01*
X49025660Y-66303034D01*
X49025340Y-66303453D01*
X49018898Y-66298510D01*
X49018894Y-66298506D01*
X48979047Y-66275500D01*
X48974139Y-66272666D01*
X48972285Y-66271596D01*
X48926666Y-66243110D01*
X48918764Y-66240696D01*
X48911606Y-66236564D01*
X48911601Y-66236562D01*
X48911600Y-66236562D01*
X48861720Y-66223196D01*
X48857598Y-66222015D01*
X48808182Y-66206923D01*
X48799918Y-66206637D01*
X48791943Y-66204500D01*
X48738162Y-66204500D01*
X48736024Y-66204426D01*
X48736023Y-66204426D01*
X48684373Y-66202638D01*
X48684372Y-66202638D01*
X48684368Y-66202638D01*
X48676285Y-66203419D01*
X48676234Y-66202895D01*
X48662172Y-66204500D01*
X48033815Y-66204500D01*
X47983729Y-66193935D01*
X47934991Y-66172415D01*
X47909865Y-66169500D01*
X45550143Y-66169500D01*
X45550117Y-66169502D01*
X45525012Y-66172413D01*
X45525008Y-66172415D01*
X45422235Y-66217793D01*
X45342794Y-66297234D01*
X45297415Y-66400006D01*
X45297415Y-66400008D01*
X45294500Y-66425131D01*
X39248145Y-66425131D01*
X39291660Y-66400008D01*
X39357298Y-66362113D01*
X39419297Y-66345500D01*
X39696185Y-66345500D01*
X39746270Y-66356064D01*
X39795009Y-66377585D01*
X39820135Y-66380500D01*
X42179864Y-66380499D01*
X42179879Y-66380497D01*
X42179882Y-66380497D01*
X42204987Y-66377586D01*
X42204988Y-66377585D01*
X42204991Y-66377585D01*
X42307765Y-66332206D01*
X42387206Y-66252765D01*
X42432585Y-66149991D01*
X42435500Y-66124865D01*
X42435499Y-65625136D01*
X42435497Y-65625117D01*
X42432586Y-65600012D01*
X42432585Y-65600010D01*
X42432585Y-65600009D01*
X42387206Y-65497235D01*
X42307765Y-65417794D01*
X42254964Y-65394480D01*
X42204992Y-65372415D01*
X42179865Y-65369500D01*
X39820143Y-65369500D01*
X39820117Y-65369502D01*
X39795012Y-65372413D01*
X39795010Y-65372414D01*
X39746270Y-65393935D01*
X39696185Y-65404500D01*
X39419297Y-65404500D01*
X39357298Y-65387887D01*
X39231790Y-65315426D01*
X39231786Y-65315424D01*
X39231784Y-65315423D01*
X39079057Y-65274500D01*
X38920943Y-65274500D01*
X38768216Y-65315423D01*
X38768209Y-65315426D01*
X38631290Y-65394475D01*
X38631282Y-65394481D01*
X38519481Y-65506282D01*
X38519475Y-65506290D01*
X38440426Y-65643209D01*
X38440423Y-65643216D01*
X38399500Y-65795943D01*
X24632054Y-65795943D01*
X20635239Y-65017132D01*
X20631010Y-65016308D01*
X20586943Y-65004500D01*
X20570411Y-65004500D01*
X20558662Y-65002210D01*
X20554189Y-65001339D01*
X20512973Y-65004202D01*
X20504381Y-65004500D01*
X17385264Y-65004500D01*
X17381259Y-65003324D01*
X17377186Y-65004237D01*
X17348017Y-64993563D01*
X17318225Y-64984815D01*
X17314373Y-64981251D01*
X17311571Y-64980226D01*
X17286460Y-64955425D01*
X17241760Y-64896479D01*
X17241759Y-64896478D01*
X17192923Y-64832078D01*
X17183762Y-64825131D01*
X45294500Y-64825131D01*
X45294500Y-65324856D01*
X45294502Y-65324882D01*
X45297413Y-65349987D01*
X45297415Y-65349991D01*
X45342793Y-65452764D01*
X45342794Y-65452765D01*
X45422235Y-65532206D01*
X45525009Y-65577585D01*
X45550135Y-65580500D01*
X47909864Y-65580499D01*
X47909879Y-65580497D01*
X47909882Y-65580497D01*
X47934987Y-65577586D01*
X47934988Y-65577585D01*
X47934991Y-65577585D01*
X47977121Y-65558983D01*
X47983730Y-65556065D01*
X48033815Y-65545500D01*
X48587456Y-65545500D01*
X48643686Y-65558982D01*
X50345779Y-66425000D01*
X66977605Y-74887201D01*
X66977606Y-74887201D01*
X66980536Y-74888692D01*
X67023394Y-74913436D01*
X67035591Y-74916704D01*
X67046849Y-74922432D01*
X67046854Y-74922433D01*
X67092056Y-74932013D01*
X67092058Y-74932014D01*
X67095269Y-74932694D01*
X67143057Y-74945500D01*
X67155689Y-74945500D01*
X67168041Y-74948118D01*
X67214173Y-74945674D01*
X67220733Y-74945500D01*
X70344736Y-74945500D01*
X70411775Y-74965185D01*
X70443540Y-74994574D01*
X70445638Y-74997341D01*
X70445639Y-74997342D01*
X70522354Y-75098506D01*
X70537079Y-75117923D01*
X70657656Y-75209360D01*
X70657657Y-75209360D01*
X70657658Y-75209361D01*
X70798436Y-75264877D01*
X70886898Y-75275500D01*
X70886903Y-75275500D01*
X71523095Y-75275500D01*
X71523102Y-75275500D01*
X71601218Y-75266119D01*
X71670124Y-75277671D01*
X71721848Y-75324643D01*
X71740000Y-75389235D01*
X71740000Y-75425000D01*
X73830000Y-75425000D01*
X73830000Y-73525000D01*
X71740000Y-73525000D01*
X71740000Y-73560764D01*
X71720315Y-73627803D01*
X71667511Y-73673558D01*
X71601217Y-73683880D01*
X71566682Y-73679733D01*
X71523102Y-73674500D01*
X70886898Y-73674500D01*
X70847853Y-73679188D01*
X70798438Y-73685122D01*
X70657656Y-73740639D01*
X70537079Y-73832076D01*
X70443540Y-73955426D01*
X70387347Y-73996949D01*
X70344736Y-74004500D01*
X67347545Y-74004500D01*
X67291314Y-73991017D01*
X66669223Y-73674500D01*
X63026909Y-71821306D01*
X48957389Y-64662795D01*
X48954451Y-64661300D01*
X48911606Y-64636564D01*
X48899413Y-64633297D01*
X48888154Y-64627568D01*
X48888152Y-64627567D01*
X48842955Y-64617988D01*
X48836585Y-64616461D01*
X48791943Y-64604500D01*
X48791939Y-64604500D01*
X48779311Y-64604500D01*
X48766959Y-64601882D01*
X48717543Y-64604500D01*
X48033815Y-64604500D01*
X47983729Y-64593935D01*
X47934991Y-64572415D01*
X47909865Y-64569500D01*
X45550143Y-64569500D01*
X45550117Y-64569502D01*
X45525012Y-64572413D01*
X45525008Y-64572415D01*
X45422235Y-64617793D01*
X45342794Y-64697234D01*
X45297415Y-64800006D01*
X45297415Y-64800008D01*
X45294500Y-64825131D01*
X17183762Y-64825131D01*
X17072343Y-64740639D01*
X16931561Y-64685122D01*
X16885926Y-64679642D01*
X16843102Y-64674500D01*
X16206898Y-64674500D01*
X16163317Y-64679733D01*
X16128783Y-64683880D01*
X16059875Y-64672328D01*
X16008151Y-64625355D01*
X15990000Y-64560764D01*
X15990000Y-64525000D01*
X13900000Y-64525000D01*
X13900000Y-66425000D01*
X9500500Y-66425000D01*
X9500500Y-63225131D01*
X45294500Y-63225131D01*
X45294500Y-63724856D01*
X45294502Y-63724882D01*
X45297413Y-63749987D01*
X45297415Y-63749991D01*
X45342793Y-63852764D01*
X45342794Y-63852765D01*
X45422235Y-63932206D01*
X45525009Y-63977585D01*
X45550135Y-63980500D01*
X47909864Y-63980499D01*
X47909879Y-63980497D01*
X47909882Y-63980497D01*
X47934987Y-63977586D01*
X47934988Y-63977585D01*
X47934991Y-63977585D01*
X47972824Y-63960879D01*
X47983730Y-63956065D01*
X48033815Y-63945500D01*
X48650974Y-63945500D01*
X48683367Y-63949805D01*
X67022876Y-68913137D01*
X67023394Y-68913436D01*
X67082487Y-68929270D01*
X67141880Y-68945344D01*
X67141885Y-68945344D01*
X67142189Y-68945385D01*
X67142421Y-68945416D01*
X67143049Y-68945500D01*
X67204423Y-68945500D01*
X67265764Y-68945653D01*
X67265764Y-68945652D01*
X67272290Y-68945669D01*
X67274919Y-68945500D01*
X70344736Y-68945500D01*
X70411775Y-68965185D01*
X70443540Y-68994574D01*
X70537079Y-69117923D01*
X70657656Y-69209360D01*
X70657657Y-69209360D01*
X70657658Y-69209361D01*
X70798436Y-69264877D01*
X70886898Y-69275500D01*
X70886903Y-69275500D01*
X71523095Y-69275500D01*
X71523102Y-69275500D01*
X71601218Y-69266119D01*
X71670124Y-69277671D01*
X71721848Y-69324643D01*
X71740000Y-69389235D01*
X71740000Y-69425000D01*
X73830000Y-69425000D01*
X73830000Y-67525000D01*
X71740000Y-67525000D01*
X71740000Y-67560764D01*
X71720315Y-67627803D01*
X71667511Y-67673558D01*
X71601217Y-67683880D01*
X71566682Y-67679733D01*
X71523102Y-67674500D01*
X70886898Y-67674500D01*
X70847853Y-67679188D01*
X70798438Y-67685122D01*
X70657656Y-67740639D01*
X70537079Y-67832076D01*
X70443540Y-67955426D01*
X70387347Y-67996949D01*
X70344736Y-68004500D01*
X67284027Y-68004500D01*
X67251633Y-68000194D01*
X67178853Y-67980497D01*
X48920402Y-63039103D01*
X48912123Y-63036862D01*
X48911606Y-63036564D01*
X48852141Y-63020630D01*
X48851842Y-63020549D01*
X48851841Y-63020548D01*
X48793105Y-63004653D01*
X48792495Y-63004573D01*
X48792486Y-63004571D01*
X48791946Y-63004500D01*
X48791943Y-63004500D01*
X48730379Y-63004500D01*
X48662711Y-63004330D01*
X48660083Y-63004500D01*
X48033815Y-63004500D01*
X47983729Y-62993935D01*
X47934991Y-62972415D01*
X47909865Y-62969500D01*
X45550143Y-62969500D01*
X45550117Y-62969502D01*
X45525012Y-62972413D01*
X45525008Y-62972415D01*
X45422235Y-63017793D01*
X45342794Y-63097234D01*
X45297415Y-63200006D01*
X45297415Y-63200008D01*
X45294500Y-63225131D01*
X9500500Y-63225131D01*
X9500500Y-58525000D01*
X13900000Y-58525000D01*
X13900000Y-60425000D01*
X15990000Y-60425000D01*
X15990000Y-60389235D01*
X16009685Y-60322196D01*
X16062489Y-60276441D01*
X16128781Y-60266119D01*
X16206898Y-60275500D01*
X16206905Y-60275500D01*
X16843097Y-60275500D01*
X16843102Y-60275500D01*
X16931564Y-60264877D01*
X17072342Y-60209361D01*
X17192922Y-60117922D01*
X17284361Y-59997342D01*
X17284361Y-59997341D01*
X17286460Y-59994574D01*
X17342653Y-59953051D01*
X17385264Y-59945500D01*
X20486545Y-59945500D01*
X20502519Y-59946533D01*
X38900234Y-62336492D01*
X38900235Y-62336492D01*
X38908402Y-62337553D01*
X38938057Y-62345500D01*
X38969570Y-62345500D01*
X39000816Y-62349559D01*
X39023080Y-62346589D01*
X39039477Y-62345500D01*
X39696185Y-62345500D01*
X39746270Y-62356064D01*
X39795009Y-62377585D01*
X39820135Y-62380500D01*
X42179864Y-62380499D01*
X42179879Y-62380497D01*
X42179882Y-62380497D01*
X42204987Y-62377586D01*
X42204988Y-62377585D01*
X42204991Y-62377585D01*
X42307765Y-62332206D01*
X42387206Y-62252765D01*
X42432585Y-62149991D01*
X42435500Y-62124865D01*
X42435499Y-61625136D01*
X42435499Y-61625135D01*
X42435499Y-61625131D01*
X45294500Y-61625131D01*
X45294500Y-62124856D01*
X45294502Y-62124882D01*
X45297413Y-62149987D01*
X45297415Y-62149991D01*
X45342793Y-62252764D01*
X45342794Y-62252765D01*
X45422235Y-62332206D01*
X45525009Y-62377585D01*
X45550135Y-62380500D01*
X47909864Y-62380499D01*
X47909879Y-62380497D01*
X47909882Y-62380497D01*
X47934987Y-62377586D01*
X47934988Y-62377585D01*
X47934991Y-62377585D01*
X47972824Y-62360879D01*
X47983730Y-62356065D01*
X48033815Y-62345500D01*
X48720352Y-62345500D01*
X48724377Y-62345565D01*
X48847359Y-62349559D01*
X67135568Y-62943493D01*
X67143057Y-62945500D01*
X67197352Y-62945500D01*
X67251638Y-62947263D01*
X67251642Y-62947262D01*
X67259731Y-62946464D01*
X67259791Y-62947076D01*
X67273472Y-62945500D01*
X70344736Y-62945500D01*
X70411775Y-62965185D01*
X70443540Y-62994574D01*
X70445638Y-62997341D01*
X70445639Y-62997342D01*
X70477307Y-63039103D01*
X70537079Y-63117923D01*
X70657656Y-63209360D01*
X70657657Y-63209360D01*
X70657658Y-63209361D01*
X70798436Y-63264877D01*
X70886898Y-63275500D01*
X70886903Y-63275500D01*
X71523095Y-63275500D01*
X71523102Y-63275500D01*
X71601218Y-63266119D01*
X71670124Y-63277671D01*
X71721848Y-63324643D01*
X71740000Y-63389235D01*
X71740000Y-63425000D01*
X73830000Y-63425000D01*
X73830000Y-61525000D01*
X71740000Y-61525000D01*
X71740000Y-61560764D01*
X71720315Y-61627803D01*
X71667511Y-61673558D01*
X71601217Y-61683880D01*
X71566682Y-61679733D01*
X71523102Y-61674500D01*
X70886898Y-61674500D01*
X70847853Y-61679188D01*
X70798438Y-61685122D01*
X70657656Y-61740639D01*
X70537079Y-61832076D01*
X70443540Y-61955426D01*
X70387347Y-61996949D01*
X70344736Y-62004500D01*
X67214648Y-62004500D01*
X67210623Y-62004435D01*
X48813699Y-61406969D01*
X48813699Y-61406968D01*
X48799426Y-61406504D01*
X48791943Y-61404500D01*
X48737650Y-61404500D01*
X48735647Y-61404435D01*
X48735646Y-61404434D01*
X48690771Y-61402977D01*
X48683362Y-61402737D01*
X48683361Y-61402737D01*
X48683357Y-61402737D01*
X48675269Y-61403536D01*
X48675208Y-61402923D01*
X48661528Y-61404500D01*
X48033815Y-61404500D01*
X47983729Y-61393935D01*
X47934991Y-61372415D01*
X47909865Y-61369500D01*
X45550143Y-61369500D01*
X45550117Y-61369502D01*
X45525012Y-61372413D01*
X45525008Y-61372415D01*
X45422235Y-61417793D01*
X45342794Y-61497234D01*
X45297415Y-61600006D01*
X45297415Y-61600008D01*
X45294500Y-61625131D01*
X42435499Y-61625131D01*
X42435499Y-61625130D01*
X42432586Y-61600012D01*
X42432585Y-61600010D01*
X42432585Y-61600009D01*
X42387206Y-61497235D01*
X42307765Y-61417794D01*
X42283249Y-61406969D01*
X42204992Y-61372415D01*
X42179868Y-61369500D01*
X42179865Y-61369500D01*
X41594500Y-61369500D01*
X41527461Y-61349815D01*
X41481706Y-61297011D01*
X41470500Y-61245500D01*
X41470500Y-57704499D01*
X41490185Y-57637460D01*
X41542989Y-57591705D01*
X41594500Y-57580499D01*
X42179856Y-57580499D01*
X42179864Y-57580499D01*
X42179879Y-57580497D01*
X42179882Y-57580497D01*
X42204987Y-57577586D01*
X42204988Y-57577585D01*
X42204991Y-57577585D01*
X42307765Y-57532206D01*
X42387206Y-57452765D01*
X42432585Y-57349991D01*
X42435500Y-57324865D01*
X42435499Y-56825136D01*
X42435499Y-56825135D01*
X42435499Y-56825131D01*
X45294500Y-56825131D01*
X45294500Y-57324856D01*
X45294502Y-57324882D01*
X45297413Y-57349987D01*
X45297415Y-57349991D01*
X45342793Y-57452764D01*
X45342794Y-57452765D01*
X45422235Y-57532206D01*
X45525009Y-57577585D01*
X45550135Y-57580500D01*
X47909864Y-57580499D01*
X47909879Y-57580497D01*
X47909882Y-57580497D01*
X47934987Y-57577586D01*
X47934988Y-57577585D01*
X47934991Y-57577585D01*
X47972824Y-57560879D01*
X47983730Y-57556065D01*
X48033815Y-57545500D01*
X48675810Y-57545500D01*
X48683362Y-57547263D01*
X48737648Y-57545500D01*
X48791943Y-57545500D01*
X48791946Y-57545500D01*
X48800002Y-57544439D01*
X48800082Y-57545050D01*
X48813703Y-57543029D01*
X67210623Y-56945565D01*
X67214648Y-56945500D01*
X70344736Y-56945500D01*
X70411775Y-56965185D01*
X70443540Y-56994574D01*
X70537079Y-57117923D01*
X70657656Y-57209360D01*
X70657657Y-57209360D01*
X70657658Y-57209361D01*
X70798436Y-57264877D01*
X70886898Y-57275500D01*
X70886903Y-57275500D01*
X71523095Y-57275500D01*
X71523102Y-57275500D01*
X71601218Y-57266119D01*
X71670124Y-57277671D01*
X71721848Y-57324643D01*
X71740000Y-57389235D01*
X71740000Y-57425000D01*
X73830000Y-57425000D01*
X73830000Y-55525000D01*
X71740000Y-55525000D01*
X71740000Y-55560764D01*
X71720315Y-55627803D01*
X71667511Y-55673558D01*
X71601217Y-55683880D01*
X71566682Y-55679733D01*
X71523102Y-55674500D01*
X70886898Y-55674500D01*
X70847853Y-55679188D01*
X70798438Y-55685122D01*
X70657656Y-55740639D01*
X70537079Y-55832076D01*
X70443540Y-55955426D01*
X70387347Y-55996949D01*
X70344736Y-56004500D01*
X67259190Y-56004500D01*
X67251638Y-56002737D01*
X67197352Y-56004500D01*
X67143055Y-56004500D01*
X67135000Y-56005560D01*
X67134920Y-56004952D01*
X67121300Y-56006969D01*
X48724377Y-56604435D01*
X48720352Y-56604500D01*
X48033815Y-56604500D01*
X47983729Y-56593935D01*
X47934991Y-56572415D01*
X47909865Y-56569500D01*
X45550143Y-56569500D01*
X45550117Y-56569502D01*
X45525012Y-56572413D01*
X45525008Y-56572415D01*
X45422235Y-56617793D01*
X45342794Y-56697234D01*
X45297415Y-56800006D01*
X45297415Y-56800008D01*
X45294500Y-56825131D01*
X42435499Y-56825131D01*
X42435499Y-56825130D01*
X42432586Y-56800012D01*
X42432585Y-56800010D01*
X42432585Y-56800009D01*
X42387206Y-56697235D01*
X42307765Y-56617794D01*
X42277510Y-56604435D01*
X42204992Y-56572415D01*
X42179865Y-56569500D01*
X39820143Y-56569500D01*
X39820117Y-56569502D01*
X39795012Y-56572413D01*
X39795008Y-56572415D01*
X39692235Y-56617793D01*
X39612794Y-56697234D01*
X39567415Y-56800006D01*
X39567415Y-56800008D01*
X39564500Y-56825131D01*
X39564500Y-57324856D01*
X39564502Y-57324882D01*
X39567413Y-57349987D01*
X39567415Y-57349991D01*
X39612793Y-57452764D01*
X39612794Y-57452765D01*
X39692235Y-57532206D01*
X39795009Y-57577585D01*
X39820135Y-57580500D01*
X40405500Y-57580499D01*
X40472539Y-57600183D01*
X40518294Y-57652987D01*
X40529500Y-57704499D01*
X40529500Y-61245500D01*
X40509815Y-61312539D01*
X40457011Y-61358294D01*
X40405500Y-61369500D01*
X39820143Y-61369500D01*
X39820117Y-61369502D01*
X39795012Y-61372413D01*
X39795010Y-61372414D01*
X39746270Y-61393935D01*
X39696185Y-61404500D01*
X39038455Y-61404500D01*
X39022481Y-61403467D01*
X20624763Y-59013506D01*
X20624763Y-59013505D01*
X20616585Y-59012442D01*
X20586943Y-59004500D01*
X20555432Y-59004500D01*
X20547479Y-59003467D01*
X20547478Y-59003467D01*
X20524184Y-59000441D01*
X20524183Y-59000441D01*
X20524182Y-59000441D01*
X20501920Y-59003411D01*
X20485523Y-59004500D01*
X17385264Y-59004500D01*
X17318225Y-58984815D01*
X17286460Y-58955426D01*
X17192920Y-58832076D01*
X17072343Y-58740639D01*
X16931561Y-58685122D01*
X16885926Y-58679642D01*
X16843102Y-58674500D01*
X16206898Y-58674500D01*
X16163317Y-58679733D01*
X16128783Y-58683880D01*
X16059875Y-58672328D01*
X16008151Y-58625355D01*
X15990000Y-58560764D01*
X15990000Y-58525000D01*
X13900000Y-58525000D01*
X9500500Y-58525000D01*
X9500500Y-55225131D01*
X45294500Y-55225131D01*
X45294500Y-55724856D01*
X45294502Y-55724882D01*
X45297413Y-55749987D01*
X45297415Y-55749991D01*
X45342793Y-55852764D01*
X45342794Y-55852765D01*
X45422235Y-55932206D01*
X45525009Y-55977585D01*
X45550135Y-55980500D01*
X47909864Y-55980499D01*
X47909879Y-55980497D01*
X47909882Y-55980497D01*
X47934987Y-55977586D01*
X47934988Y-55977585D01*
X47934991Y-55977585D01*
X47972824Y-55960879D01*
X47983730Y-55956065D01*
X48033815Y-55945500D01*
X48668660Y-55945500D01*
X48669237Y-55945653D01*
X48730379Y-55945500D01*
X48791943Y-55945500D01*
X48791943Y-55945499D01*
X48792114Y-55945477D01*
X48792330Y-55945448D01*
X48793115Y-55945344D01*
X48793118Y-55945343D01*
X48793120Y-55945343D01*
X48852141Y-55929369D01*
X48852156Y-55929426D01*
X48852440Y-55929288D01*
X48911606Y-55913436D01*
X48911608Y-55913434D01*
X48917930Y-55911741D01*
X48920437Y-55910885D01*
X63948661Y-51843709D01*
X67251634Y-50949806D01*
X67284027Y-50945500D01*
X70344736Y-50945500D01*
X70411775Y-50965185D01*
X70443540Y-50994574D01*
X70537079Y-51117923D01*
X70657656Y-51209360D01*
X70657657Y-51209360D01*
X70657658Y-51209361D01*
X70798436Y-51264877D01*
X70886898Y-51275500D01*
X70886903Y-51275500D01*
X71523095Y-51275500D01*
X71523102Y-51275500D01*
X71601218Y-51266119D01*
X71670124Y-51277671D01*
X71721848Y-51324643D01*
X71740000Y-51389235D01*
X71740000Y-51425000D01*
X73830000Y-51425000D01*
X73830000Y-49525000D01*
X71740000Y-49525000D01*
X71740000Y-49560764D01*
X71720315Y-49627803D01*
X71667511Y-49673558D01*
X71601217Y-49683880D01*
X71566682Y-49679733D01*
X71523102Y-49674500D01*
X70886898Y-49674500D01*
X70847853Y-49679188D01*
X70798438Y-49685122D01*
X70657656Y-49740639D01*
X70537079Y-49832076D01*
X70443540Y-49955426D01*
X70387347Y-49996949D01*
X70344736Y-50004500D01*
X67266341Y-50004500D01*
X67265764Y-50004347D01*
X67204423Y-50004500D01*
X67143041Y-50004500D01*
X67142543Y-50004567D01*
X67142533Y-50004568D01*
X67141878Y-50004655D01*
X67094335Y-50017522D01*
X67082487Y-50020729D01*
X67017141Y-50038239D01*
X67014642Y-50039090D01*
X53578115Y-53675499D01*
X48786019Y-54972413D01*
X48683368Y-55000194D01*
X48650974Y-55004500D01*
X48033815Y-55004500D01*
X47983729Y-54993935D01*
X47934991Y-54972415D01*
X47909865Y-54969500D01*
X45550143Y-54969500D01*
X45550117Y-54969502D01*
X45525012Y-54972413D01*
X45525008Y-54972415D01*
X45422235Y-55017793D01*
X45342794Y-55097234D01*
X45297415Y-55200006D01*
X45297415Y-55200008D01*
X45294500Y-55225131D01*
X9500500Y-55225131D01*
X9500500Y-52525000D01*
X13900000Y-52525000D01*
X13900000Y-54425000D01*
X15990000Y-54425000D01*
X15990000Y-54389235D01*
X16009685Y-54322196D01*
X16062489Y-54276441D01*
X16128781Y-54266119D01*
X16206898Y-54275500D01*
X16206905Y-54275500D01*
X16843097Y-54275500D01*
X16843102Y-54275500D01*
X16931564Y-54264877D01*
X17072342Y-54209361D01*
X17192922Y-54117922D01*
X17284361Y-53997342D01*
X17284361Y-53997341D01*
X17286460Y-53994574D01*
X17342653Y-53953051D01*
X17385264Y-53945500D01*
X20508684Y-53945500D01*
X20554189Y-53948661D01*
X20570411Y-53945500D01*
X20586943Y-53945500D01*
X20626868Y-53934800D01*
X20635212Y-53932871D01*
X25443478Y-52995943D01*
X38399500Y-52995943D01*
X38399500Y-53154056D01*
X38440423Y-53306783D01*
X38440426Y-53306790D01*
X38519475Y-53443709D01*
X38519479Y-53443714D01*
X38519480Y-53443716D01*
X38631284Y-53555520D01*
X38631286Y-53555521D01*
X38631290Y-53555524D01*
X38751855Y-53625131D01*
X38768216Y-53634577D01*
X38920943Y-53675500D01*
X38920945Y-53675500D01*
X39079055Y-53675500D01*
X39079057Y-53675500D01*
X39231784Y-53634577D01*
X39248145Y-53625131D01*
X45294500Y-53625131D01*
X45294500Y-54124856D01*
X45294502Y-54124882D01*
X45297413Y-54149987D01*
X45297415Y-54149991D01*
X45342793Y-54252764D01*
X45342794Y-54252765D01*
X45422235Y-54332206D01*
X45525009Y-54377585D01*
X45550135Y-54380500D01*
X47909864Y-54380499D01*
X47909879Y-54380497D01*
X47909882Y-54380497D01*
X47934987Y-54377586D01*
X47934988Y-54377585D01*
X47934991Y-54377585D01*
X47972824Y-54360879D01*
X47983730Y-54356065D01*
X48033815Y-54345500D01*
X48717543Y-54345500D01*
X48766959Y-54348118D01*
X48779311Y-54345500D01*
X48791943Y-54345500D01*
X48836614Y-54333529D01*
X48842911Y-54332019D01*
X48888152Y-54322432D01*
X48899410Y-54316703D01*
X48911606Y-54313436D01*
X48954456Y-54288696D01*
X67291314Y-44958982D01*
X67347545Y-44945500D01*
X70344736Y-44945500D01*
X70411775Y-44965185D01*
X70443540Y-44994574D01*
X70537079Y-45117923D01*
X70657656Y-45209360D01*
X70657657Y-45209360D01*
X70657658Y-45209361D01*
X70798436Y-45264877D01*
X70886898Y-45275500D01*
X70886903Y-45275500D01*
X71523095Y-45275500D01*
X71523102Y-45275500D01*
X71601218Y-45266119D01*
X71670124Y-45277671D01*
X71721848Y-45324643D01*
X71740000Y-45389235D01*
X71740000Y-45425000D01*
X73830000Y-45425000D01*
X73830000Y-43525000D01*
X71740000Y-43525000D01*
X71740000Y-43560764D01*
X71720315Y-43627803D01*
X71667511Y-43673558D01*
X71601217Y-43683880D01*
X71566682Y-43679733D01*
X71523102Y-43674500D01*
X70886898Y-43674500D01*
X70847853Y-43679188D01*
X70798438Y-43685122D01*
X70657656Y-43740639D01*
X70537079Y-43832076D01*
X70443540Y-43955426D01*
X70387347Y-43996949D01*
X70344736Y-44004500D01*
X67217457Y-44004500D01*
X67168041Y-44001882D01*
X67155689Y-44004500D01*
X67143057Y-44004500D01*
X67111603Y-44012927D01*
X67098420Y-44016460D01*
X67098419Y-44016459D01*
X67095230Y-44017313D01*
X67046849Y-44027568D01*
X67035592Y-44033294D01*
X67023401Y-44036561D01*
X67023386Y-44036567D01*
X66983377Y-44059666D01*
X66977610Y-44062795D01*
X51667006Y-51852765D01*
X48724317Y-53349993D01*
X48643687Y-53391017D01*
X48587456Y-53404500D01*
X48033815Y-53404500D01*
X47983729Y-53393935D01*
X47934991Y-53372415D01*
X47909865Y-53369500D01*
X45550143Y-53369500D01*
X45550117Y-53369502D01*
X45525012Y-53372413D01*
X45525008Y-53372415D01*
X45422235Y-53417793D01*
X45342794Y-53497234D01*
X45297415Y-53600006D01*
X45297415Y-53600008D01*
X45294500Y-53625131D01*
X39248145Y-53625131D01*
X39291660Y-53600008D01*
X39357298Y-53562113D01*
X39419297Y-53545500D01*
X39696185Y-53545500D01*
X39746270Y-53556064D01*
X39795009Y-53577585D01*
X39820135Y-53580500D01*
X42179864Y-53580499D01*
X42179879Y-53580497D01*
X42179882Y-53580497D01*
X42204987Y-53577586D01*
X42204988Y-53577585D01*
X42204991Y-53577585D01*
X42307765Y-53532206D01*
X42387206Y-53452765D01*
X42432585Y-53349991D01*
X42435500Y-53324865D01*
X42435499Y-52825136D01*
X42435497Y-52825117D01*
X42432586Y-52800012D01*
X42432585Y-52800010D01*
X42432585Y-52800009D01*
X42387206Y-52697235D01*
X42307765Y-52617794D01*
X42254964Y-52594480D01*
X42204992Y-52572415D01*
X42179865Y-52569500D01*
X39820143Y-52569500D01*
X39820117Y-52569502D01*
X39795012Y-52572413D01*
X39795010Y-52572414D01*
X39746270Y-52593935D01*
X39696185Y-52604500D01*
X39419297Y-52604500D01*
X39357298Y-52587887D01*
X39231790Y-52515426D01*
X39231786Y-52515424D01*
X39231784Y-52515423D01*
X39079057Y-52474500D01*
X38920943Y-52474500D01*
X38768216Y-52515423D01*
X38768209Y-52515426D01*
X38631290Y-52594475D01*
X38631282Y-52594481D01*
X38519481Y-52706282D01*
X38519475Y-52706290D01*
X38440426Y-52843209D01*
X38440423Y-52843216D01*
X38399500Y-52995943D01*
X25443478Y-52995943D01*
X33654595Y-51395943D01*
X38399500Y-51395943D01*
X38399500Y-51554056D01*
X38440423Y-51706783D01*
X38440426Y-51706790D01*
X38519475Y-51843709D01*
X38519479Y-51843714D01*
X38519480Y-51843716D01*
X38631284Y-51955520D01*
X38631286Y-51955521D01*
X38631290Y-51955524D01*
X38751855Y-52025131D01*
X38768216Y-52034577D01*
X38920943Y-52075500D01*
X38920945Y-52075500D01*
X39079055Y-52075500D01*
X39079057Y-52075500D01*
X39231784Y-52034577D01*
X39248145Y-52025131D01*
X45294500Y-52025131D01*
X45294500Y-52524856D01*
X45294502Y-52524882D01*
X45297413Y-52549987D01*
X45297415Y-52549991D01*
X45342793Y-52652764D01*
X45342794Y-52652765D01*
X45422235Y-52732206D01*
X45525009Y-52777585D01*
X45550135Y-52780500D01*
X47909864Y-52780499D01*
X47909879Y-52780497D01*
X47909882Y-52780497D01*
X47934987Y-52777586D01*
X47934988Y-52777585D01*
X47934991Y-52777585D01*
X47972824Y-52760879D01*
X47983730Y-52756065D01*
X48033815Y-52745500D01*
X48676319Y-52745500D01*
X48684373Y-52747362D01*
X48738161Y-52745500D01*
X48791943Y-52745500D01*
X48791944Y-52745499D01*
X48800002Y-52744438D01*
X48800071Y-52744963D01*
X48800246Y-52744937D01*
X48800159Y-52744416D01*
X48808181Y-52743076D01*
X48808183Y-52743076D01*
X48857589Y-52727986D01*
X48861684Y-52726812D01*
X48911606Y-52713436D01*
X48918764Y-52709303D01*
X48926666Y-52706890D01*
X48972292Y-52678399D01*
X49018894Y-52651494D01*
X49024737Y-52645650D01*
X49031746Y-52641274D01*
X49068445Y-52601942D01*
X49106494Y-52563894D01*
X49106496Y-52563889D01*
X49111440Y-52557447D01*
X49111860Y-52557769D01*
X49120274Y-52546395D01*
X62323790Y-38395943D01*
X66604500Y-38395943D01*
X66604500Y-38554056D01*
X66645423Y-38706783D01*
X66645426Y-38706790D01*
X66724475Y-38843709D01*
X66724479Y-38843714D01*
X66724480Y-38843716D01*
X66836284Y-38955520D01*
X66836286Y-38955521D01*
X66836290Y-38955524D01*
X66853024Y-38965185D01*
X66973216Y-39034577D01*
X67125943Y-39075500D01*
X67125945Y-39075500D01*
X67284055Y-39075500D01*
X67284057Y-39075500D01*
X67436784Y-39034577D01*
X67506072Y-38994574D01*
X67562298Y-38962113D01*
X67624297Y-38945500D01*
X70344736Y-38945500D01*
X70411775Y-38965185D01*
X70443540Y-38994574D01*
X70537079Y-39117923D01*
X70657656Y-39209360D01*
X70657657Y-39209360D01*
X70657658Y-39209361D01*
X70798436Y-39264877D01*
X70886898Y-39275500D01*
X70886903Y-39275500D01*
X71523095Y-39275500D01*
X71523102Y-39275500D01*
X71601218Y-39266119D01*
X71670124Y-39277671D01*
X71721848Y-39324643D01*
X71740000Y-39389235D01*
X71740000Y-39425000D01*
X73830000Y-39425000D01*
X73830000Y-37525000D01*
X71740000Y-37525000D01*
X71740000Y-37560764D01*
X71720315Y-37627803D01*
X71667511Y-37673558D01*
X71601217Y-37683880D01*
X71566682Y-37679733D01*
X71523102Y-37674500D01*
X70886898Y-37674500D01*
X70847853Y-37679188D01*
X70798438Y-37685122D01*
X70657656Y-37740639D01*
X70537079Y-37832076D01*
X70443540Y-37955426D01*
X70387347Y-37996949D01*
X70344736Y-38004500D01*
X67624297Y-38004500D01*
X67562298Y-37987887D01*
X67436790Y-37915426D01*
X67436786Y-37915424D01*
X67436784Y-37915423D01*
X67284057Y-37874500D01*
X67125943Y-37874500D01*
X66973216Y-37915423D01*
X66973209Y-37915426D01*
X66836290Y-37994475D01*
X66836282Y-37994481D01*
X66724481Y-38106282D01*
X66724475Y-38106290D01*
X66645426Y-38243209D01*
X66645423Y-38243216D01*
X66604500Y-38395943D01*
X62323790Y-38395943D01*
X67372726Y-32984905D01*
X67432854Y-32949318D01*
X67463388Y-32945500D01*
X70344736Y-32945500D01*
X70411775Y-32965185D01*
X70443540Y-32994574D01*
X70537079Y-33117923D01*
X70657656Y-33209360D01*
X70657657Y-33209360D01*
X70657658Y-33209361D01*
X70798436Y-33264877D01*
X70886898Y-33275500D01*
X70886903Y-33275500D01*
X71523095Y-33275500D01*
X71523102Y-33275500D01*
X71601218Y-33266119D01*
X71670124Y-33277671D01*
X71721848Y-33324643D01*
X71740000Y-33389235D01*
X71740000Y-33425000D01*
X73830000Y-33425000D01*
X73830000Y-31525000D01*
X71740000Y-31525000D01*
X71740000Y-31560764D01*
X71720315Y-31627803D01*
X71667511Y-31673558D01*
X71601217Y-31683880D01*
X71566682Y-31679733D01*
X71523102Y-31674500D01*
X70886898Y-31674500D01*
X70847853Y-31679188D01*
X70798438Y-31685122D01*
X70657656Y-31740639D01*
X70537079Y-31832076D01*
X70443540Y-31955426D01*
X70387347Y-31996949D01*
X70344736Y-32004500D01*
X67258681Y-32004500D01*
X67250627Y-32002638D01*
X67196851Y-32004500D01*
X67143054Y-32004500D01*
X67135070Y-32006639D01*
X67126816Y-32006925D01*
X67075386Y-32022631D01*
X67073299Y-32023191D01*
X67073298Y-32023190D01*
X67023396Y-32036563D01*
X67023390Y-32036565D01*
X67016235Y-32040696D01*
X67008334Y-32043110D01*
X66962722Y-32071590D01*
X66960842Y-32072676D01*
X66960840Y-32072676D01*
X66916108Y-32098503D01*
X66916100Y-32098510D01*
X66910259Y-32104350D01*
X66903254Y-32108726D01*
X66866581Y-32148027D01*
X66865038Y-32149571D01*
X66865039Y-32149571D01*
X66828509Y-32186102D01*
X66823559Y-32192553D01*
X66823142Y-32192233D01*
X66814724Y-32203603D01*
X48562273Y-51765095D01*
X48502145Y-51800682D01*
X48471611Y-51804500D01*
X48033815Y-51804500D01*
X47983729Y-51793935D01*
X47934991Y-51772415D01*
X47909865Y-51769500D01*
X45550143Y-51769500D01*
X45550117Y-51769502D01*
X45525012Y-51772413D01*
X45525008Y-51772415D01*
X45422235Y-51817793D01*
X45342794Y-51897234D01*
X45297415Y-52000006D01*
X45297415Y-52000008D01*
X45294500Y-52025131D01*
X39248145Y-52025131D01*
X39291660Y-52000008D01*
X39357298Y-51962113D01*
X39419297Y-51945500D01*
X39696185Y-51945500D01*
X39746270Y-51956064D01*
X39795009Y-51977585D01*
X39820135Y-51980500D01*
X42179864Y-51980499D01*
X42179879Y-51980497D01*
X42179882Y-51980497D01*
X42204987Y-51977586D01*
X42204988Y-51977585D01*
X42204991Y-51977585D01*
X42307765Y-51932206D01*
X42387206Y-51852765D01*
X42432585Y-51749991D01*
X42435500Y-51724865D01*
X42435499Y-51225136D01*
X42433670Y-51209361D01*
X42432586Y-51200012D01*
X42432585Y-51200010D01*
X42432585Y-51200009D01*
X42387206Y-51097235D01*
X42307765Y-51017794D01*
X42277657Y-51004500D01*
X42204992Y-50972415D01*
X42179865Y-50969500D01*
X39820143Y-50969500D01*
X39820117Y-50969502D01*
X39795012Y-50972413D01*
X39795010Y-50972414D01*
X39746270Y-50993935D01*
X39696185Y-51004500D01*
X39419297Y-51004500D01*
X39357298Y-50987887D01*
X39231790Y-50915426D01*
X39231786Y-50915424D01*
X39231784Y-50915423D01*
X39079057Y-50874500D01*
X38920943Y-50874500D01*
X38768216Y-50915423D01*
X38768209Y-50915426D01*
X38631290Y-50994475D01*
X38631282Y-50994481D01*
X38519481Y-51106282D01*
X38519475Y-51106290D01*
X38440426Y-51243209D01*
X38440423Y-51243216D01*
X38399500Y-51395943D01*
X33654595Y-51395943D01*
X39033667Y-50347789D01*
X39057383Y-50345500D01*
X39696185Y-50345500D01*
X39746270Y-50356064D01*
X39795009Y-50377585D01*
X39820135Y-50380500D01*
X42179864Y-50380499D01*
X42179879Y-50380497D01*
X42179882Y-50380497D01*
X42204987Y-50377586D01*
X42204988Y-50377585D01*
X42204991Y-50377585D01*
X42307765Y-50332206D01*
X42387206Y-50252765D01*
X42432585Y-50149991D01*
X42435500Y-50124865D01*
X42435499Y-49625136D01*
X42435497Y-49625117D01*
X42432586Y-49600012D01*
X42432585Y-49600010D01*
X42432585Y-49600009D01*
X42387206Y-49497235D01*
X42307765Y-49417794D01*
X42270496Y-49401338D01*
X42204992Y-49372415D01*
X42179865Y-49369500D01*
X39820143Y-49369500D01*
X39820117Y-49369502D01*
X39795012Y-49372413D01*
X39795010Y-49372414D01*
X39746270Y-49393935D01*
X39696185Y-49404500D01*
X39016326Y-49404500D01*
X38970812Y-49401338D01*
X38954585Y-49404500D01*
X38938057Y-49404500D01*
X38906642Y-49412917D01*
X38898149Y-49415193D01*
X38889774Y-49417128D01*
X20491333Y-53002211D01*
X20467617Y-53004500D01*
X17385264Y-53004500D01*
X17318225Y-52984815D01*
X17286460Y-52955426D01*
X17284361Y-52952658D01*
X17192922Y-52832078D01*
X17192920Y-52832077D01*
X17192920Y-52832076D01*
X17072343Y-52740639D01*
X16931561Y-52685122D01*
X16885926Y-52679642D01*
X16843102Y-52674500D01*
X16206898Y-52674500D01*
X16163317Y-52679733D01*
X16128783Y-52683880D01*
X16059875Y-52672328D01*
X16008151Y-52625355D01*
X15990000Y-52560764D01*
X15990000Y-52525000D01*
X13900000Y-52525000D01*
X9500500Y-52525000D01*
X9500500Y-48425000D01*
X13900000Y-48425000D01*
X15990000Y-48425000D01*
X15990000Y-48389235D01*
X16009685Y-48322196D01*
X16062489Y-48276441D01*
X16128781Y-48266119D01*
X16206898Y-48275500D01*
X16206905Y-48275500D01*
X16843097Y-48275500D01*
X16843102Y-48275500D01*
X16931564Y-48264877D01*
X17072342Y-48209361D01*
X17192922Y-48117922D01*
X17284361Y-47997342D01*
X17284361Y-47997341D01*
X17286460Y-47994574D01*
X17342653Y-47953051D01*
X17385264Y-47945500D01*
X20512129Y-47945500D01*
X20517492Y-47945615D01*
X38928078Y-48742826D01*
X38938057Y-48745500D01*
X38989824Y-48745500D01*
X39018406Y-48746737D01*
X39041530Y-48747739D01*
X39041530Y-48747738D01*
X39041531Y-48747739D01*
X39041531Y-48747738D01*
X39049625Y-48747028D01*
X39049640Y-48747208D01*
X39065217Y-48745500D01*
X39696185Y-48745500D01*
X39746270Y-48756064D01*
X39795009Y-48777585D01*
X39820135Y-48780500D01*
X42179864Y-48780499D01*
X42179879Y-48780497D01*
X42179882Y-48780497D01*
X42204987Y-48777586D01*
X42204988Y-48777585D01*
X42204991Y-48777585D01*
X42307765Y-48732206D01*
X42387206Y-48652765D01*
X42432585Y-48549991D01*
X42435500Y-48524865D01*
X42435499Y-48025136D01*
X42435497Y-48025117D01*
X42432586Y-48000012D01*
X42432585Y-48000010D01*
X42432585Y-48000009D01*
X42387206Y-47897235D01*
X42307765Y-47817794D01*
X42277394Y-47804384D01*
X42204992Y-47772415D01*
X42179865Y-47769500D01*
X39820143Y-47769500D01*
X39820117Y-47769502D01*
X39795012Y-47772413D01*
X39795010Y-47772414D01*
X39746270Y-47793935D01*
X39696185Y-47804500D01*
X39012872Y-47804500D01*
X39007508Y-47804384D01*
X20610507Y-47007761D01*
X20610507Y-47007760D01*
X20596916Y-47007171D01*
X20586943Y-47004500D01*
X20535180Y-47004500D01*
X20532500Y-47004384D01*
X20532497Y-47004384D01*
X20483469Y-47002260D01*
X20475375Y-47002972D01*
X20475359Y-47002791D01*
X20459783Y-47004500D01*
X17385264Y-47004500D01*
X17318225Y-46984815D01*
X17286460Y-46955426D01*
X17282340Y-46949993D01*
X17192922Y-46832078D01*
X17192920Y-46832077D01*
X17192920Y-46832076D01*
X17072343Y-46740639D01*
X16931561Y-46685122D01*
X16885926Y-46679642D01*
X16843102Y-46674500D01*
X16206898Y-46674500D01*
X16163317Y-46679733D01*
X16128783Y-46683880D01*
X16059875Y-46672328D01*
X16008151Y-46625355D01*
X15990000Y-46560764D01*
X15990000Y-46525000D01*
X13900000Y-46525000D01*
X13900000Y-48425000D01*
X9500500Y-48425000D01*
X9500500Y-42425000D01*
X13900000Y-42425000D01*
X15990000Y-42425000D01*
X15990000Y-42389235D01*
X16009685Y-42322196D01*
X16062489Y-42276441D01*
X16128781Y-42266119D01*
X16206898Y-42275500D01*
X16206905Y-42275500D01*
X16843097Y-42275500D01*
X16843102Y-42275500D01*
X16931564Y-42264877D01*
X17072342Y-42209361D01*
X17192922Y-42117922D01*
X17284361Y-41997342D01*
X17284361Y-41997341D01*
X17286460Y-41994574D01*
X17342653Y-41953051D01*
X17385264Y-41945500D01*
X20442929Y-41945500D01*
X20476525Y-41950138D01*
X38805526Y-47109045D01*
X38805525Y-47109045D01*
X38815794Y-47111935D01*
X38818394Y-47113436D01*
X38875334Y-47128693D01*
X38932151Y-47144685D01*
X38932152Y-47144685D01*
X38932401Y-47144755D01*
X38934354Y-47145012D01*
X38934355Y-47145012D01*
X38938053Y-47145498D01*
X38938057Y-47145500D01*
X38996273Y-47145500D01*
X38997830Y-47145510D01*
X39056026Y-47146241D01*
X39056029Y-47146240D01*
X39056906Y-47146251D01*
X39069603Y-47145500D01*
X39696185Y-47145500D01*
X39746270Y-47156064D01*
X39795009Y-47177585D01*
X39820135Y-47180500D01*
X42179864Y-47180499D01*
X42179879Y-47180497D01*
X42179882Y-47180497D01*
X42204987Y-47177586D01*
X42204988Y-47177585D01*
X42204991Y-47177585D01*
X42307765Y-47132206D01*
X42387206Y-47052765D01*
X42432585Y-46949991D01*
X42435500Y-46924865D01*
X42435499Y-46425136D01*
X42435497Y-46425117D01*
X42432586Y-46400012D01*
X42432585Y-46400010D01*
X42432585Y-46400009D01*
X42387206Y-46297235D01*
X42307765Y-46217794D01*
X42267153Y-46199862D01*
X42204992Y-46172415D01*
X42179865Y-46169500D01*
X39820143Y-46169500D01*
X39820117Y-46169502D01*
X39795012Y-46172413D01*
X39795010Y-46172414D01*
X39746270Y-46193935D01*
X39696185Y-46204500D01*
X39082070Y-46204500D01*
X39048474Y-46199862D01*
X20719468Y-41040953D01*
X20719468Y-41040952D01*
X20709201Y-41038062D01*
X20706606Y-41036564D01*
X20649699Y-41021315D01*
X20648865Y-41021081D01*
X20592591Y-41005242D01*
X20590658Y-41004988D01*
X20586946Y-41004500D01*
X20586943Y-41004500D01*
X20528726Y-41004500D01*
X20527169Y-41004490D01*
X20526074Y-41004476D01*
X20468974Y-41003759D01*
X20468973Y-41003759D01*
X20468093Y-41003748D01*
X20455397Y-41004500D01*
X17385264Y-41004500D01*
X17318225Y-40984815D01*
X17286460Y-40955426D01*
X17192920Y-40832076D01*
X17072343Y-40740639D01*
X16931561Y-40685122D01*
X16885926Y-40679642D01*
X16843102Y-40674500D01*
X16206898Y-40674500D01*
X16163317Y-40679733D01*
X16128783Y-40683880D01*
X16059875Y-40672328D01*
X16008151Y-40625355D01*
X15990000Y-40560764D01*
X15990000Y-40525000D01*
X13900000Y-40525000D01*
X13900000Y-42425000D01*
X9500500Y-42425000D01*
X9500500Y-36425000D01*
X13900000Y-36425000D01*
X15990000Y-36425000D01*
X15990000Y-36389235D01*
X16009685Y-36322196D01*
X16062489Y-36276441D01*
X16128781Y-36266119D01*
X16206898Y-36275500D01*
X16206905Y-36275500D01*
X16843097Y-36275500D01*
X16843102Y-36275500D01*
X16931564Y-36264877D01*
X17072342Y-36209361D01*
X17192922Y-36117922D01*
X17284361Y-35997342D01*
X17284361Y-35997341D01*
X17286460Y-35994574D01*
X17342653Y-35953051D01*
X17385264Y-35945500D01*
X20379761Y-35945500D01*
X20436936Y-35959468D01*
X38460454Y-45324868D01*
X38773798Y-45487688D01*
X38818394Y-45513436D01*
X38828622Y-45516176D01*
X38838024Y-45521062D01*
X38888320Y-45532172D01*
X38938057Y-45545500D01*
X38948648Y-45545500D01*
X38958992Y-45547785D01*
X39007700Y-45545622D01*
X39013200Y-45545500D01*
X39696185Y-45545500D01*
X39746270Y-45556064D01*
X39795009Y-45577585D01*
X39820135Y-45580500D01*
X42179864Y-45580499D01*
X42179879Y-45580497D01*
X42179882Y-45580497D01*
X42204987Y-45577586D01*
X42204988Y-45577585D01*
X42204991Y-45577585D01*
X42307765Y-45532206D01*
X42387206Y-45452765D01*
X42432585Y-45349991D01*
X42435500Y-45324865D01*
X42435499Y-44825136D01*
X42435497Y-44825117D01*
X42432586Y-44800012D01*
X42432585Y-44800010D01*
X42432585Y-44800009D01*
X42387206Y-44697235D01*
X42307765Y-44617794D01*
X42277657Y-44604500D01*
X42204992Y-44572415D01*
X42179865Y-44569500D01*
X39820143Y-44569500D01*
X39820117Y-44569502D01*
X39795012Y-44572413D01*
X39795010Y-44572414D01*
X39746270Y-44593935D01*
X39696185Y-44604500D01*
X39145240Y-44604500D01*
X39088065Y-44590532D01*
X20753644Y-35063579D01*
X20753644Y-35063578D01*
X20751180Y-35062297D01*
X20706606Y-35036564D01*
X20696380Y-35033823D01*
X20686984Y-35028941D01*
X20686970Y-35028936D01*
X20639375Y-35018421D01*
X20639375Y-35018422D01*
X20636679Y-35017826D01*
X20586943Y-35004500D01*
X20576351Y-35004500D01*
X20566016Y-35002217D01*
X20566011Y-35002216D01*
X20566009Y-35002216D01*
X20566007Y-35002216D01*
X20517314Y-35004378D01*
X20511815Y-35004500D01*
X17385264Y-35004500D01*
X17318225Y-34984815D01*
X17286460Y-34955426D01*
X17192920Y-34832076D01*
X17072343Y-34740639D01*
X16931561Y-34685122D01*
X16885926Y-34679642D01*
X16843102Y-34674500D01*
X16206898Y-34674500D01*
X16163317Y-34679733D01*
X16128783Y-34683880D01*
X16059875Y-34672328D01*
X16008151Y-34625355D01*
X15990000Y-34560764D01*
X15990000Y-34525000D01*
X13900000Y-34525000D01*
X13900000Y-36425000D01*
X9500500Y-36425000D01*
X9500500Y-30425000D01*
X13900000Y-30425000D01*
X15990000Y-30425000D01*
X15990000Y-30389235D01*
X16009685Y-30322196D01*
X16062489Y-30276441D01*
X16128781Y-30266119D01*
X16206898Y-30275500D01*
X16206905Y-30275500D01*
X16843097Y-30275500D01*
X16843102Y-30275500D01*
X16931564Y-30264877D01*
X17072342Y-30209361D01*
X17192922Y-30117922D01*
X17284361Y-29997342D01*
X17284361Y-29997341D01*
X17286460Y-29994574D01*
X17342653Y-29953051D01*
X17385264Y-29945500D01*
X20325193Y-29945500D01*
X20392232Y-29965185D01*
X20400084Y-29970670D01*
X33860215Y-40170499D01*
X38690120Y-43830508D01*
X38711106Y-43851494D01*
X38739277Y-43867758D01*
X38745453Y-43872438D01*
X38745454Y-43872439D01*
X38765204Y-43887405D01*
X38765205Y-43887406D01*
X38792693Y-43898597D01*
X38818394Y-43913436D01*
X38849817Y-43921856D01*
X38879944Y-43934122D01*
X38900948Y-43936758D01*
X38917604Y-43940019D01*
X38938057Y-43945500D01*
X38970590Y-43945500D01*
X39002864Y-43949551D01*
X39032263Y-43945500D01*
X39696185Y-43945500D01*
X39746270Y-43956064D01*
X39795009Y-43977585D01*
X39820135Y-43980500D01*
X42179864Y-43980499D01*
X42179879Y-43980497D01*
X42179882Y-43980497D01*
X42204987Y-43977586D01*
X42204988Y-43977585D01*
X42204991Y-43977585D01*
X42307765Y-43932206D01*
X42387206Y-43852765D01*
X42432585Y-43749991D01*
X42435500Y-43724865D01*
X42435499Y-43225136D01*
X42435497Y-43225117D01*
X42432586Y-43200012D01*
X42432585Y-43200010D01*
X42432585Y-43200009D01*
X42387206Y-43097235D01*
X42307765Y-43017794D01*
X42277657Y-43004500D01*
X42204992Y-42972415D01*
X42179865Y-42969500D01*
X39820143Y-42969500D01*
X39820117Y-42969502D01*
X39795012Y-42972413D01*
X39795010Y-42972414D01*
X39746270Y-42993935D01*
X39696185Y-43004500D01*
X39199807Y-43004500D01*
X39132768Y-42984815D01*
X39124916Y-42979330D01*
X20841657Y-29124628D01*
X20834882Y-29119494D01*
X20813894Y-29098506D01*
X20785718Y-29082238D01*
X20779539Y-29077556D01*
X20779539Y-29077555D01*
X20759796Y-29062595D01*
X20759787Y-29062590D01*
X20740178Y-29054606D01*
X20724941Y-29047149D01*
X20706609Y-29036565D01*
X20706600Y-29036561D01*
X20682665Y-29030148D01*
X20682664Y-29030148D01*
X20675179Y-29028142D01*
X20645056Y-29015878D01*
X20615621Y-29012182D01*
X20607415Y-29009983D01*
X20607407Y-29009982D01*
X20586945Y-29004500D01*
X20586943Y-29004500D01*
X20562165Y-29004500D01*
X20546719Y-29003534D01*
X20522137Y-29000447D01*
X20522133Y-29000448D01*
X20501156Y-29003339D01*
X20484227Y-29004500D01*
X17385264Y-29004500D01*
X17318225Y-28984815D01*
X17286460Y-28955426D01*
X17192920Y-28832076D01*
X17072343Y-28740639D01*
X16931561Y-28685122D01*
X16885926Y-28679642D01*
X16843102Y-28674500D01*
X16206898Y-28674500D01*
X16163317Y-28679733D01*
X16128783Y-28683880D01*
X16059875Y-28672328D01*
X16008151Y-28625355D01*
X15990000Y-28560764D01*
X15990000Y-28525000D01*
X13900000Y-28525000D01*
X13900000Y-30425000D01*
X9500500Y-30425000D01*
X9500500Y-24425000D01*
X13900000Y-24425000D01*
X15990000Y-24425000D01*
X15990000Y-24389235D01*
X16009685Y-24322196D01*
X16062489Y-24276441D01*
X16128781Y-24266119D01*
X16206898Y-24275500D01*
X16206905Y-24275500D01*
X16843097Y-24275500D01*
X16843102Y-24275500D01*
X16931564Y-24264877D01*
X17072342Y-24209361D01*
X17192922Y-24117922D01*
X17284361Y-23997342D01*
X17284361Y-23997341D01*
X17286460Y-23994574D01*
X17342653Y-23953051D01*
X17385264Y-23945500D01*
X20279457Y-23945500D01*
X20346496Y-23965185D01*
X20366960Y-23981641D01*
X37495807Y-41040952D01*
X38667533Y-42207921D01*
X38711106Y-42251494D01*
X38711513Y-42251728D01*
X38711847Y-42252061D01*
X38711871Y-42252080D01*
X38751758Y-42275000D01*
X38765060Y-42282644D01*
X38818394Y-42313436D01*
X38818404Y-42313438D01*
X38818921Y-42313653D01*
X38819281Y-42313802D01*
X38819283Y-42313802D01*
X38819286Y-42313804D01*
X38878588Y-42329565D01*
X38938057Y-42345500D01*
X38938063Y-42345500D01*
X38938372Y-42345540D01*
X38938451Y-42345551D01*
X38938724Y-42345587D01*
X38939008Y-42345624D01*
X38939010Y-42345623D01*
X38939014Y-42345625D01*
X39000342Y-42345500D01*
X39000466Y-42345500D01*
X39696185Y-42345500D01*
X39746270Y-42356064D01*
X39795009Y-42377585D01*
X39820135Y-42380500D01*
X42179864Y-42380499D01*
X42179879Y-42380497D01*
X42179882Y-42380497D01*
X42204987Y-42377586D01*
X42204988Y-42377585D01*
X42204991Y-42377585D01*
X42307765Y-42332206D01*
X42387206Y-42252765D01*
X42432585Y-42149991D01*
X42435500Y-42124865D01*
X42435499Y-41625136D01*
X42435499Y-41625135D01*
X42435499Y-41625131D01*
X45294500Y-41625131D01*
X45294500Y-42124856D01*
X45294502Y-42124882D01*
X45297413Y-42149987D01*
X45297415Y-42149991D01*
X45330496Y-42224913D01*
X45339568Y-42294191D01*
X45330497Y-42325085D01*
X45297415Y-42400009D01*
X45294500Y-42425131D01*
X45294500Y-42924856D01*
X45294502Y-42924882D01*
X45297413Y-42949987D01*
X45297415Y-42949991D01*
X45342793Y-43052764D01*
X45342794Y-43052765D01*
X45422235Y-43132206D01*
X45525009Y-43177585D01*
X45550135Y-43180500D01*
X47909864Y-43180499D01*
X47909879Y-43180497D01*
X47909882Y-43180497D01*
X47934987Y-43177586D01*
X47934988Y-43177585D01*
X47934991Y-43177585D01*
X48037765Y-43132206D01*
X48117206Y-43052765D01*
X48162585Y-42949991D01*
X48165500Y-42924865D01*
X48165499Y-42425136D01*
X48165483Y-42425000D01*
X48162586Y-42400012D01*
X48162585Y-42400011D01*
X48162585Y-42400009D01*
X48129502Y-42325084D01*
X48120431Y-42255809D01*
X48129501Y-42224918D01*
X48162585Y-42149991D01*
X48165500Y-42124865D01*
X48165499Y-41625136D01*
X48165497Y-41625117D01*
X48162586Y-41600012D01*
X48162585Y-41600010D01*
X48162585Y-41600009D01*
X48117206Y-41497235D01*
X48037765Y-41417794D01*
X48007657Y-41404500D01*
X47934992Y-41372415D01*
X47909865Y-41369500D01*
X45550143Y-41369500D01*
X45550117Y-41369502D01*
X45525012Y-41372413D01*
X45525008Y-41372415D01*
X45422235Y-41417793D01*
X45342794Y-41497234D01*
X45297415Y-41600006D01*
X45297415Y-41600008D01*
X45294500Y-41625131D01*
X42435499Y-41625131D01*
X42435499Y-41625130D01*
X42432586Y-41600012D01*
X42432585Y-41600010D01*
X42432585Y-41600009D01*
X42387206Y-41497235D01*
X42307765Y-41417794D01*
X42277657Y-41404500D01*
X42204992Y-41372415D01*
X42179865Y-41369500D01*
X39820143Y-41369500D01*
X39820117Y-41369502D01*
X39795012Y-41372413D01*
X39795010Y-41372414D01*
X39746270Y-41393935D01*
X39696185Y-41404500D01*
X39245542Y-41404500D01*
X39178503Y-41384815D01*
X39158039Y-41368359D01*
X37198590Y-39416864D01*
X37116485Y-39335092D01*
X40434500Y-39335092D01*
X40434500Y-39484907D01*
X40463723Y-39631822D01*
X40463725Y-39631830D01*
X40521051Y-39770229D01*
X40521056Y-39770238D01*
X40604280Y-39894790D01*
X40604283Y-39894794D01*
X40710205Y-40000716D01*
X40710209Y-40000719D01*
X40834761Y-40083943D01*
X40834767Y-40083946D01*
X40834768Y-40083947D01*
X40973170Y-40141275D01*
X41120092Y-40170499D01*
X41120096Y-40170500D01*
X41120097Y-40170500D01*
X41269904Y-40170500D01*
X41269905Y-40170499D01*
X41416830Y-40141275D01*
X41555232Y-40083947D01*
X41679791Y-40000719D01*
X41785719Y-39894791D01*
X41868947Y-39770232D01*
X41926275Y-39631830D01*
X41955500Y-39484903D01*
X41955500Y-39335097D01*
X41926275Y-39188170D01*
X41868947Y-39049768D01*
X41868946Y-39049767D01*
X41868943Y-39049761D01*
X41785719Y-38925209D01*
X41785716Y-38925205D01*
X41679794Y-38819283D01*
X41679790Y-38819280D01*
X41555238Y-38736056D01*
X41555229Y-38736051D01*
X41416830Y-38678725D01*
X41416822Y-38678723D01*
X41269907Y-38649500D01*
X41269903Y-38649500D01*
X41120097Y-38649500D01*
X41120092Y-38649500D01*
X40973177Y-38678723D01*
X40973169Y-38678725D01*
X40834770Y-38736051D01*
X40834761Y-38736056D01*
X40710209Y-38819280D01*
X40710205Y-38819283D01*
X40604283Y-38925205D01*
X40604280Y-38925209D01*
X40521056Y-39049761D01*
X40521051Y-39049770D01*
X40463725Y-39188169D01*
X40463723Y-39188177D01*
X40434500Y-39335092D01*
X37116485Y-39335092D01*
X24204651Y-26475675D01*
X24124594Y-26395943D01*
X66604500Y-26395943D01*
X66604500Y-26554056D01*
X66645423Y-26706783D01*
X66645426Y-26706790D01*
X66724475Y-26843709D01*
X66724479Y-26843714D01*
X66724480Y-26843716D01*
X66836284Y-26955520D01*
X66836286Y-26955521D01*
X66836290Y-26955524D01*
X66853024Y-26965185D01*
X66973216Y-27034577D01*
X67125943Y-27075500D01*
X67125945Y-27075500D01*
X67284055Y-27075500D01*
X67284057Y-27075500D01*
X67436784Y-27034577D01*
X67506072Y-26994574D01*
X67562298Y-26962113D01*
X67624297Y-26945500D01*
X70344736Y-26945500D01*
X70411775Y-26965185D01*
X70443540Y-26994574D01*
X70537079Y-27117923D01*
X70657656Y-27209360D01*
X70657657Y-27209360D01*
X70657658Y-27209361D01*
X70798436Y-27264877D01*
X70886898Y-27275500D01*
X70886903Y-27275500D01*
X71523095Y-27275500D01*
X71523102Y-27275500D01*
X71601218Y-27266119D01*
X71670124Y-27277671D01*
X71721848Y-27324643D01*
X71740000Y-27389235D01*
X71740000Y-27425000D01*
X73830000Y-27425000D01*
X73830000Y-25525000D01*
X71740000Y-25525000D01*
X71740000Y-25560764D01*
X71720315Y-25627803D01*
X71667511Y-25673558D01*
X71601217Y-25683880D01*
X71566682Y-25679733D01*
X71523102Y-25674500D01*
X70886898Y-25674500D01*
X70847853Y-25679188D01*
X70798438Y-25685122D01*
X70657656Y-25740639D01*
X70537079Y-25832076D01*
X70443540Y-25955426D01*
X70387347Y-25996949D01*
X70344736Y-26004500D01*
X67624297Y-26004500D01*
X67562298Y-25987887D01*
X67436790Y-25915426D01*
X67436786Y-25915424D01*
X67436784Y-25915423D01*
X67284057Y-25874500D01*
X67125943Y-25874500D01*
X66973216Y-25915423D01*
X66973209Y-25915426D01*
X66836290Y-25994475D01*
X66836282Y-25994481D01*
X66724481Y-26106282D01*
X66724475Y-26106290D01*
X66645426Y-26243209D01*
X66645423Y-26243216D01*
X66604500Y-26395943D01*
X24124594Y-26395943D01*
X20857467Y-23142079D01*
X20857461Y-23142073D01*
X20813894Y-23098506D01*
X20813488Y-23098271D01*
X20813148Y-23097933D01*
X20813130Y-23097920D01*
X20760157Y-23067480D01*
X20759939Y-23067355D01*
X20706600Y-23036560D01*
X20706150Y-23036374D01*
X20705729Y-23036199D01*
X20646645Y-23020496D01*
X20646404Y-23020432D01*
X20586939Y-23004499D01*
X20586316Y-23004417D01*
X20586000Y-23004375D01*
X20585985Y-23004375D01*
X20528375Y-23004492D01*
X20524534Y-23004500D01*
X17385264Y-23004500D01*
X17318225Y-22984815D01*
X17286460Y-22955426D01*
X17192920Y-22832076D01*
X17072343Y-22740639D01*
X16931561Y-22685122D01*
X16885926Y-22679642D01*
X16843102Y-22674500D01*
X16206898Y-22674500D01*
X16163317Y-22679733D01*
X16128783Y-22683880D01*
X16059875Y-22672328D01*
X16008151Y-22625355D01*
X15990000Y-22560764D01*
X15990000Y-22525000D01*
X13900000Y-22525000D01*
X13900000Y-24425000D01*
X9500500Y-24425000D01*
X9500500Y-14878711D01*
X14674500Y-14878711D01*
X14674500Y-15121288D01*
X14706161Y-15361785D01*
X14768947Y-15596104D01*
X14861773Y-15820205D01*
X14861776Y-15820212D01*
X14983064Y-16030289D01*
X14983066Y-16030292D01*
X14983067Y-16030293D01*
X15130733Y-16222736D01*
X15130739Y-16222743D01*
X15302256Y-16394260D01*
X15302262Y-16394265D01*
X15494711Y-16541936D01*
X15704788Y-16663224D01*
X15928900Y-16756054D01*
X16163211Y-16818838D01*
X16343586Y-16842584D01*
X16403711Y-16850500D01*
X16403712Y-16850500D01*
X16646289Y-16850500D01*
X16694388Y-16844167D01*
X16886789Y-16818838D01*
X17121100Y-16756054D01*
X17345212Y-16663224D01*
X17555289Y-16541936D01*
X17747738Y-16394265D01*
X17919265Y-16222738D01*
X18066936Y-16030289D01*
X18188224Y-15820212D01*
X18281054Y-15596100D01*
X18343838Y-15361789D01*
X18375500Y-15121288D01*
X18375500Y-14878712D01*
X18375500Y-14878711D01*
X69354500Y-14878711D01*
X69354500Y-15121288D01*
X69386161Y-15361785D01*
X69448947Y-15596104D01*
X69541773Y-15820205D01*
X69541776Y-15820212D01*
X69663064Y-16030289D01*
X69663066Y-16030292D01*
X69663067Y-16030293D01*
X69810733Y-16222736D01*
X69810739Y-16222743D01*
X69982256Y-16394260D01*
X69982262Y-16394265D01*
X70174711Y-16541936D01*
X70384788Y-16663224D01*
X70608900Y-16756054D01*
X70843211Y-16818838D01*
X71023586Y-16842584D01*
X71083711Y-16850500D01*
X71083712Y-16850500D01*
X71326289Y-16850500D01*
X71374388Y-16844167D01*
X71566789Y-16818838D01*
X71801100Y-16756054D01*
X72025212Y-16663224D01*
X72235289Y-16541936D01*
X72427738Y-16394265D01*
X72599265Y-16222738D01*
X72746936Y-16030289D01*
X72868224Y-15820212D01*
X72961054Y-15596100D01*
X73023838Y-15361789D01*
X73055500Y-15121288D01*
X73055500Y-14878712D01*
X73023838Y-14638211D01*
X72961054Y-14403900D01*
X72868224Y-14179788D01*
X72746936Y-13969711D01*
X72599265Y-13777262D01*
X72599260Y-13777256D01*
X72427743Y-13605739D01*
X72427736Y-13605733D01*
X72235293Y-13458067D01*
X72235292Y-13458066D01*
X72235289Y-13458064D01*
X72025212Y-13336776D01*
X72025205Y-13336773D01*
X71801104Y-13243947D01*
X71566785Y-13181161D01*
X71326289Y-13149500D01*
X71326288Y-13149500D01*
X71083712Y-13149500D01*
X71083711Y-13149500D01*
X70843214Y-13181161D01*
X70608895Y-13243947D01*
X70384794Y-13336773D01*
X70384785Y-13336777D01*
X70174706Y-13458067D01*
X69982263Y-13605733D01*
X69982256Y-13605739D01*
X69810739Y-13777256D01*
X69810733Y-13777263D01*
X69663067Y-13969706D01*
X69541777Y-14179785D01*
X69541773Y-14179794D01*
X69448947Y-14403895D01*
X69386161Y-14638214D01*
X69354500Y-14878711D01*
X18375500Y-14878711D01*
X18343838Y-14638211D01*
X18281054Y-14403900D01*
X18188224Y-14179788D01*
X18066936Y-13969711D01*
X17919265Y-13777262D01*
X17919260Y-13777256D01*
X17747743Y-13605739D01*
X17747736Y-13605733D01*
X17555293Y-13458067D01*
X17555292Y-13458066D01*
X17555289Y-13458064D01*
X17345212Y-13336776D01*
X17345205Y-13336773D01*
X17121104Y-13243947D01*
X16886785Y-13181161D01*
X16646289Y-13149500D01*
X16646288Y-13149500D01*
X16403712Y-13149500D01*
X16403711Y-13149500D01*
X16163214Y-13181161D01*
X15928895Y-13243947D01*
X15704794Y-13336773D01*
X15704785Y-13336777D01*
X15494706Y-13458067D01*
X15302263Y-13605733D01*
X15302256Y-13605739D01*
X15130739Y-13777256D01*
X15130733Y-13777263D01*
X14983067Y-13969706D01*
X14861777Y-14179785D01*
X14861773Y-14179794D01*
X14768947Y-14403895D01*
X14706161Y-14638214D01*
X14674500Y-14878711D01*
X9500500Y-14878711D01*
X9500500Y-10624500D01*
X9520185Y-10557461D01*
X9572989Y-10511706D01*
X9624500Y-10500500D01*
X78105500Y-10500500D01*
X78172539Y-10520185D01*
G37*
%TD.AperFunction*%
%TD*%
M02*
