%TF.GenerationSoftware,KiCad,Pcbnew,10.0.3*%
%TF.CreationDate,2026-06-22T23:05:30-04:00*%
%TF.ProjectId,board-C-ufl,626f6172-642d-4432-9d75-666c2e6b6963,rev?*%
%TF.SameCoordinates,Original*%
%TF.FileFunction,Legend,Bot*%
%TF.FilePolarity,Positive*%
%FSLAX46Y46*%
G04 Gerber Fmt 4.6, Leading zero omitted, Abs format (unit mm)*
G04 Created by KiCad (PCBNEW 10.0.3) date 2026-06-22 23:05:30*
%MOMM*%
%LPD*%
G01*
G04 APERTURE LIST*
%ADD10C,0.150000*%
%ADD11C,0.200000*%
G04 APERTURE END LIST*
D10*
X48907819Y-76856666D02*
X49622104Y-76856666D01*
X49622104Y-76856666D02*
X49764961Y-76809047D01*
X49764961Y-76809047D02*
X49860200Y-76713809D01*
X49860200Y-76713809D02*
X49907819Y-76570952D01*
X49907819Y-76570952D02*
X49907819Y-76475714D01*
X48907819Y-77809047D02*
X48907819Y-77332857D01*
X48907819Y-77332857D02*
X49384009Y-77285238D01*
X49384009Y-77285238D02*
X49336390Y-77332857D01*
X49336390Y-77332857D02*
X49288771Y-77428095D01*
X49288771Y-77428095D02*
X49288771Y-77666190D01*
X49288771Y-77666190D02*
X49336390Y-77761428D01*
X49336390Y-77761428D02*
X49384009Y-77809047D01*
X49384009Y-77809047D02*
X49479247Y-77856666D01*
X49479247Y-77856666D02*
X49717342Y-77856666D01*
X49717342Y-77856666D02*
X49812580Y-77809047D01*
X49812580Y-77809047D02*
X49860200Y-77761428D01*
X49860200Y-77761428D02*
X49907819Y-77666190D01*
X49907819Y-77666190D02*
X49907819Y-77428095D01*
X49907819Y-77428095D02*
X49860200Y-77332857D01*
X49860200Y-77332857D02*
X49812580Y-77285238D01*
%TO.C,J5*%
D11*
X40245000Y-38835000D02*
X45665000Y-38835000D01*
X40245000Y-40975000D02*
X40245000Y-38835000D01*
X40245000Y-60975000D02*
X40245000Y-57975000D01*
X40245000Y-77875000D02*
X40245000Y-80115000D01*
X40245000Y-80115000D02*
X45665000Y-80115000D01*
X47485000Y-38835000D02*
X47485000Y-40975000D01*
X47485000Y-57975000D02*
X47485000Y-60975000D01*
X47485000Y-77875000D02*
X47485000Y-80115000D01*
X39265000Y-77075000D02*
G75*
G02*
X39065000Y-77075000I-100000J0D01*
G01*
X39065000Y-77075000D02*
G75*
G02*
X39265000Y-77075000I100000J0D01*
G01*
%TD*%
M02*
