%TF.GenerationSoftware,KiCad,Pcbnew,10.0.3*%
%TF.CreationDate,2026-06-22T23:05:30-04:00*%
%TF.ProjectId,board-C-ufl,626f6172-642d-4432-9d75-666c2e6b6963,rev?*%
%TF.SameCoordinates,Original*%
%TF.FileFunction,Copper,L4,Bot*%
%TF.FilePolarity,Positive*%
%FSLAX46Y46*%
G04 Gerber Fmt 4.6, Leading zero omitted, Abs format (unit mm)*
G04 Created by KiCad (PCBNEW 10.0.3) date 2026-06-22 23:05:30*
%MOMM*%
%LPD*%
G01*
G04 APERTURE LIST*
%TA.AperFunction,SMDPad,CuDef*%
%ADD10R,2.270000X0.410000*%
%TD*%
%TA.AperFunction,SMDPad,CuDef*%
%ADD11R,0.430000X2.540000*%
%TD*%
%TA.AperFunction,SMDPad,CuDef*%
%ADD12R,0.430000X4.700000*%
%TD*%
%TA.AperFunction,ViaPad*%
%ADD13C,0.600000*%
%TD*%
%TA.AperFunction,Conductor*%
%ADD14C,0.340000*%
%TD*%
G04 APERTURE END LIST*
D10*
%TO.P,J5,01*%
%TO.N,GNDA*%
X41000000Y-77075000D03*
%TO.P,J5,02*%
%TO.N,SIPM_K7*%
X46730000Y-77075000D03*
%TO.P,J5,03*%
%TO.N,GNDA*%
X41000000Y-76275000D03*
%TO.P,J5,04*%
X46730000Y-76275000D03*
%TO.P,J5,05*%
X41000000Y-75475000D03*
%TO.P,J5,06*%
%TO.N,SIPM_K6*%
X46730000Y-75475000D03*
%TO.P,J5,07*%
%TO.N,GNDA*%
X41000000Y-74675000D03*
%TO.P,J5,08*%
X46730000Y-74675000D03*
%TO.P,J5,09*%
X41000000Y-73875000D03*
%TO.P,J5,10*%
%TO.N,SIPM_K5*%
X46730000Y-73875000D03*
%TO.P,J5,11*%
%TO.N,GNDA*%
X41000000Y-73075000D03*
%TO.P,J5,12*%
X46730000Y-73075000D03*
%TO.P,J5,13*%
X41000000Y-72275000D03*
%TO.P,J5,14*%
%TO.N,SIPM_K4*%
X46730000Y-72275000D03*
%TO.P,J5,15*%
%TO.N,GNDA*%
X41000000Y-71475000D03*
%TO.P,J5,16*%
X46730000Y-71475000D03*
%TO.P,J5,17*%
X41000000Y-70675000D03*
%TO.P,J5,18*%
%TO.N,SIPM_K3*%
X46730000Y-70675000D03*
%TO.P,J5,19*%
%TO.N,GNDA*%
X41000000Y-69875000D03*
%TO.P,J5,20*%
X46730000Y-69875000D03*
%TO.P,J5,21*%
X41000000Y-69075000D03*
%TO.P,J5,22*%
%TO.N,SIPM_K2*%
X46730000Y-69075000D03*
%TO.P,J5,23*%
%TO.N,GNDA*%
X41000000Y-68275000D03*
%TO.P,J5,24*%
X46730000Y-68275000D03*
%TO.P,J5,25*%
X41000000Y-67475000D03*
%TO.P,J5,26*%
%TO.N,SIPM_K1*%
X46730000Y-67475000D03*
%TO.P,J5,27*%
%TO.N,SIPM_K8*%
X41000000Y-66675000D03*
%TO.P,J5,28*%
%TO.N,GNDA*%
X46730000Y-66675000D03*
%TO.P,J5,29*%
X41000000Y-65875000D03*
%TO.P,J5,30*%
%TO.N,SIPM_K0*%
X46730000Y-65875000D03*
%TO.P,J5,31*%
%TO.N,SIPM_K9*%
X41000000Y-65075000D03*
%TO.P,J5,32*%
%TO.N,GNDA*%
X46730000Y-65075000D03*
%TO.P,J5,33*%
X41000000Y-64275000D03*
%TO.P,J5,34*%
X46730000Y-64275000D03*
%TO.P,J5,35*%
%TO.N,SIPM_K10*%
X41000000Y-63475000D03*
%TO.P,J5,36*%
%TO.N,GNDA*%
X46730000Y-63475000D03*
%TO.P,J5,37*%
X41000000Y-62675000D03*
%TO.P,J5,38*%
X46730000Y-62675000D03*
%TO.P,J5,39*%
%TO.N,SIPM_K11*%
X41000000Y-61875000D03*
%TO.P,J5,40*%
%TO.N,IV*%
X46730000Y-61875000D03*
%TO.P,J5,41*%
%TO.N,SIPM_K12*%
X41000000Y-57075000D03*
%TO.P,J5,42*%
%TO.N,IV*%
X46730000Y-57075000D03*
%TO.P,J5,43*%
%TO.N,GNDA*%
X41000000Y-56275000D03*
%TO.P,J5,44*%
X46730000Y-56275000D03*
%TO.P,J5,45*%
%TO.N,SIPM_K13*%
X41000000Y-55475000D03*
%TO.P,J5,46*%
%TO.N,GNDA*%
X46730000Y-55475000D03*
%TO.P,J5,47*%
X41000000Y-54675000D03*
%TO.P,J5,48*%
X46730000Y-54675000D03*
%TO.P,J5,49*%
%TO.N,SIPM_K14*%
X41000000Y-53875000D03*
%TO.P,J5,50*%
%TO.N,GNDA*%
X46730000Y-53875000D03*
%TO.P,J5,51*%
X41000000Y-53075000D03*
%TO.P,J5,52*%
%TO.N,SIPM_K23*%
X46730000Y-53075000D03*
%TO.P,J5,53*%
%TO.N,SIPM_K15*%
X41000000Y-52275000D03*
%TO.P,J5,54*%
%TO.N,GNDA*%
X46730000Y-52275000D03*
%TO.P,J5,55*%
X41000000Y-51475000D03*
%TO.P,J5,56*%
%TO.N,SIPM_K22*%
X46730000Y-51475000D03*
%TO.P,J5,57*%
%TO.N,GNDA*%
X41000000Y-50675000D03*
%TO.P,J5,58*%
X46730000Y-50675000D03*
%TO.P,J5,59*%
X41000000Y-49875000D03*
%TO.P,J5,60*%
%TO.N,SIPM_K21*%
X46730000Y-49875000D03*
%TO.P,J5,61*%
%TO.N,GNDA*%
X41000000Y-49075000D03*
%TO.P,J5,62*%
X46730000Y-49075000D03*
%TO.P,J5,63*%
X41000000Y-48275000D03*
%TO.P,J5,64*%
%TO.N,SIPM_K20*%
X46730000Y-48275000D03*
%TO.P,J5,65*%
%TO.N,GNDA*%
X41000000Y-47475000D03*
%TO.P,J5,66*%
X46730000Y-47475000D03*
%TO.P,J5,67*%
X41000000Y-46675000D03*
%TO.P,J5,68*%
%TO.N,SIPM_K19*%
X46730000Y-46675000D03*
%TO.P,J5,69*%
%TO.N,GNDA*%
X41000000Y-45875000D03*
%TO.P,J5,70*%
X46730000Y-45875000D03*
%TO.P,J5,71*%
X41000000Y-45075000D03*
%TO.P,J5,72*%
%TO.N,SIPM_K18*%
X46730000Y-45075000D03*
%TO.P,J5,73*%
%TO.N,GNDA*%
X41000000Y-44275000D03*
%TO.P,J5,74*%
X46730000Y-44275000D03*
%TO.P,J5,75*%
X41000000Y-43475000D03*
%TO.P,J5,76*%
%TO.N,SIPM_K17*%
X46730000Y-43475000D03*
%TO.P,J5,77*%
%TO.N,THERM4*%
X41000000Y-42675000D03*
%TO.P,J5,78*%
%TO.N,GNDA*%
X46730000Y-42675000D03*
%TO.P,J5,79*%
%TO.N,THERM5*%
X41000000Y-41875000D03*
%TO.P,J5,80*%
%TO.N,SIPM_K16*%
X46730000Y-41875000D03*
D11*
%TO.P,J5,G1*%
%TO.N,GNDA*%
X43865000Y-77540000D03*
D12*
%TO.P,J5,G2*%
X43865000Y-72650000D03*
%TO.P,J5,G3*%
X43865000Y-66300000D03*
D11*
%TO.P,J5,G4*%
X43865000Y-61410000D03*
%TO.P,J5,G5*%
X43865000Y-57540000D03*
D12*
%TO.P,J5,G6*%
X43865000Y-52650000D03*
%TO.P,J5,G7*%
X43865000Y-46300000D03*
D11*
%TO.P,J5,G8*%
X43865000Y-41410000D03*
%TD*%
D13*
%TO.N,SIPM_K10*%
X20525000Y-68475000D03*
%TO.N,GNDA*%
X35925000Y-106025000D03*
X29925000Y-12925000D03*
X35925000Y-12925000D03*
X65925000Y-106025000D03*
X41925000Y-106025000D03*
X47925000Y-106025000D03*
X29925000Y-106025000D03*
X59925000Y-106025000D03*
X11925000Y-12925000D03*
X53925000Y-12925000D03*
X53925000Y-106025000D03*
X11925000Y-106025000D03*
X65925000Y-12925000D03*
X23925000Y-12925000D03*
X23925000Y-106025000D03*
X47925000Y-12925000D03*
X59925000Y-12925000D03*
X41925000Y-12925000D03*
%TO.N,SIPM_K4*%
X67205000Y-77475000D03*
%TO.N,IV*%
X67205000Y-59475000D03*
%TO.N,SIPM_K19*%
X67205000Y-41475000D03*
%TO.N,SIPM_K0*%
X48730000Y-65875000D03*
%TO.N,SIPM_K20*%
X67205000Y-47475000D03*
%TO.N,SIPM_K22*%
X48730000Y-51475000D03*
%TO.N,SIPM_K3*%
X67205000Y-71475000D03*
%TO.N,SIPM_K17*%
X67205000Y-29475000D03*
%TO.N,SIPM_K2*%
X67205000Y-65475000D03*
%TO.N,SIPM_K21*%
X67205000Y-53475000D03*
%TO.N,SIPM_K23*%
X48730000Y-53075000D03*
%TO.N,SIPM_K18*%
X67205000Y-35475000D03*
%TO.N,SIPM_K13*%
X20525000Y-50475000D03*
%TO.N,SIPM_K15*%
X20525000Y-32475000D03*
%TO.N,SIPM_K7*%
X67205000Y-95475000D03*
%TO.N,SIPM_K9*%
X20525000Y-74475000D03*
%TO.N,SIPM_K14*%
X20525000Y-44475000D03*
%TO.N,SIPM_K16*%
X67205000Y-23475000D03*
%TO.N,SIPM_K6*%
X67205000Y-89475000D03*
%TO.N,SIPM_K1*%
X48730000Y-67475000D03*
%TO.N,SIPM_K5*%
X67205000Y-83475000D03*
%TO.N,SIPM_K11*%
X20525000Y-62475000D03*
%TO.N,SIPM_K8*%
X20525000Y-86475000D03*
%TO.N,SIPM_K12*%
X20525000Y-56475000D03*
%TD*%
%TO.N,SIPM_K10*%
D14*
X41000000Y-63475000D02*
X39000000Y-63475000D01*
X39000000Y-63475000D02*
X20525000Y-68475000D01*
%TO.N,SIPM_K4*%
X46730000Y-72275000D02*
X48730000Y-72275000D01*
X48730000Y-72275000D02*
X67205000Y-77475000D01*
%TO.N,IV*%
X46730000Y-61875000D02*
X46730000Y-57075000D01*
X46730000Y-61875000D02*
X48730000Y-61875000D01*
X48730000Y-61875000D02*
X67205000Y-59475000D01*
%TO.N,SIPM_K19*%
X46730000Y-46675000D02*
X48730000Y-46675000D01*
X48730000Y-46675000D02*
X67205000Y-41475000D01*
%TO.N,SIPM_K0*%
X46730000Y-65875000D02*
X48730000Y-65875000D01*
%TO.N,SIPM_K20*%
X48730000Y-48275000D02*
X67205000Y-47475000D01*
X46730000Y-48275000D02*
X48730000Y-48275000D01*
%TO.N,SIPM_K22*%
X46730000Y-51475000D02*
X48730000Y-51475000D01*
%TO.N,SIPM_K3*%
X48730000Y-70675000D02*
X67205000Y-71475000D01*
X46730000Y-70675000D02*
X48730000Y-70675000D01*
%TO.N,SIPM_K17*%
X46730000Y-43475000D02*
X48730000Y-43475000D01*
X48730000Y-43475000D02*
X67205000Y-29475000D01*
%TO.N,SIPM_K2*%
X48730000Y-69075000D02*
X67205000Y-65475000D01*
X46730000Y-69075000D02*
X48730000Y-69075000D01*
%TO.N,SIPM_K21*%
X46730000Y-49875000D02*
X48730000Y-49875000D01*
X48730000Y-49875000D02*
X67205000Y-53475000D01*
%TO.N,SIPM_K23*%
X46730000Y-53075000D02*
X48730000Y-53075000D01*
%TO.N,SIPM_K18*%
X48730000Y-45075000D02*
X67205000Y-35475000D01*
X46730000Y-45075000D02*
X48730000Y-45075000D01*
%TO.N,SIPM_K13*%
X39000000Y-55475000D02*
X20525000Y-50475000D01*
X41000000Y-55475000D02*
X39000000Y-55475000D01*
%TO.N,SIPM_K15*%
X39000000Y-52275000D02*
X20525000Y-32475000D01*
X41000000Y-52275000D02*
X39000000Y-52275000D01*
%TO.N,SIPM_K7*%
X46730000Y-77075000D02*
X48730000Y-77075000D01*
X48730000Y-77075000D02*
X67205000Y-95475000D01*
%TO.N,SIPM_K9*%
X39000000Y-65075000D02*
X20525000Y-74475000D01*
X41000000Y-65075000D02*
X39000000Y-65075000D01*
%TO.N,SIPM_K14*%
X39000000Y-53875000D02*
X20525000Y-44475000D01*
X41000000Y-53875000D02*
X39000000Y-53875000D01*
%TO.N,SIPM_K16*%
X46730000Y-41875000D02*
X48730000Y-41875000D01*
X48730000Y-41875000D02*
X67205000Y-23475000D01*
%TO.N,SIPM_K6*%
X48730000Y-75475000D02*
X67205000Y-89475000D01*
X46730000Y-75475000D02*
X48730000Y-75475000D01*
%TO.N,SIPM_K1*%
X46730000Y-67475000D02*
X48730000Y-67475000D01*
%TO.N,SIPM_K5*%
X46730000Y-73875000D02*
X48730000Y-73875000D01*
X48730000Y-73875000D02*
X67205000Y-83475000D01*
%TO.N,SIPM_K11*%
X41000000Y-61875000D02*
X39000000Y-61875000D01*
X39000000Y-61875000D02*
X20525000Y-62475000D01*
%TO.N,SIPM_K8*%
X41000000Y-66675000D02*
X39000000Y-66675000D01*
X39000000Y-66675000D02*
X20525000Y-86475000D01*
%TO.N,SIPM_K12*%
X41000000Y-57075000D02*
X39000000Y-57075000D01*
X39000000Y-57075000D02*
X20525000Y-56475000D01*
%TD*%
%TA.AperFunction,Conductor*%
%TO.N,GNDA*%
G36*
X78172539Y-10520185D02*
G01*
X78218294Y-10572989D01*
X78229500Y-10624500D01*
X78229500Y-108325500D01*
X78209815Y-108392539D01*
X78157011Y-108438294D01*
X78105500Y-108449500D01*
X9624500Y-108449500D01*
X9557461Y-108429815D01*
X9511706Y-108377011D01*
X9500500Y-108325500D01*
X9500500Y-103828711D01*
X14674500Y-103828711D01*
X14674500Y-104071288D01*
X14706161Y-104311785D01*
X14768947Y-104546104D01*
X14861773Y-104770205D01*
X14861776Y-104770212D01*
X14983064Y-104980289D01*
X14983066Y-104980292D01*
X14983067Y-104980293D01*
X15130733Y-105172736D01*
X15130739Y-105172743D01*
X15302256Y-105344260D01*
X15302262Y-105344265D01*
X15494711Y-105491936D01*
X15704788Y-105613224D01*
X15928900Y-105706054D01*
X16163211Y-105768838D01*
X16343586Y-105792584D01*
X16403711Y-105800500D01*
X16403712Y-105800500D01*
X16646289Y-105800500D01*
X16694388Y-105794167D01*
X16886789Y-105768838D01*
X17121100Y-105706054D01*
X17345212Y-105613224D01*
X17555289Y-105491936D01*
X17747738Y-105344265D01*
X17919265Y-105172738D01*
X18066936Y-104980289D01*
X18188224Y-104770212D01*
X18281054Y-104546100D01*
X18343838Y-104311789D01*
X18375500Y-104071288D01*
X18375500Y-103828712D01*
X18375500Y-103828711D01*
X69354500Y-103828711D01*
X69354500Y-104071288D01*
X69386161Y-104311785D01*
X69448947Y-104546104D01*
X69541773Y-104770205D01*
X69541776Y-104770212D01*
X69663064Y-104980289D01*
X69663066Y-104980292D01*
X69663067Y-104980293D01*
X69810733Y-105172736D01*
X69810739Y-105172743D01*
X69982256Y-105344260D01*
X69982262Y-105344265D01*
X70174711Y-105491936D01*
X70384788Y-105613224D01*
X70608900Y-105706054D01*
X70843211Y-105768838D01*
X71023586Y-105792584D01*
X71083711Y-105800500D01*
X71083712Y-105800500D01*
X71326289Y-105800500D01*
X71374388Y-105794167D01*
X71566789Y-105768838D01*
X71801100Y-105706054D01*
X72025212Y-105613224D01*
X72235289Y-105491936D01*
X72427738Y-105344265D01*
X72599265Y-105172738D01*
X72746936Y-104980289D01*
X72868224Y-104770212D01*
X72961054Y-104546100D01*
X73023838Y-104311789D01*
X73055500Y-104071288D01*
X73055500Y-103828712D01*
X73023838Y-103588211D01*
X72961054Y-103353900D01*
X72868224Y-103129788D01*
X72746936Y-102919711D01*
X72599265Y-102727262D01*
X72599260Y-102727256D01*
X72427743Y-102555739D01*
X72427736Y-102555733D01*
X72235293Y-102408067D01*
X72235292Y-102408066D01*
X72235289Y-102408064D01*
X72025212Y-102286776D01*
X72025205Y-102286773D01*
X71801104Y-102193947D01*
X71566785Y-102131161D01*
X71326289Y-102099500D01*
X71326288Y-102099500D01*
X71083712Y-102099500D01*
X71083711Y-102099500D01*
X70843214Y-102131161D01*
X70608895Y-102193947D01*
X70384794Y-102286773D01*
X70384785Y-102286777D01*
X70174706Y-102408067D01*
X69982263Y-102555733D01*
X69982256Y-102555739D01*
X69810739Y-102727256D01*
X69810733Y-102727263D01*
X69663067Y-102919706D01*
X69541777Y-103129785D01*
X69541773Y-103129794D01*
X69448947Y-103353895D01*
X69386161Y-103588214D01*
X69354500Y-103828711D01*
X18375500Y-103828711D01*
X18343838Y-103588211D01*
X18281054Y-103353900D01*
X18188224Y-103129788D01*
X18066936Y-102919711D01*
X17919265Y-102727262D01*
X17919260Y-102727256D01*
X17747743Y-102555739D01*
X17747736Y-102555733D01*
X17555293Y-102408067D01*
X17555292Y-102408066D01*
X17555289Y-102408064D01*
X17345212Y-102286776D01*
X17345205Y-102286773D01*
X17121104Y-102193947D01*
X16886785Y-102131161D01*
X16646289Y-102099500D01*
X16646288Y-102099500D01*
X16403712Y-102099500D01*
X16403711Y-102099500D01*
X16163214Y-102131161D01*
X15928895Y-102193947D01*
X15704794Y-102286773D01*
X15704785Y-102286777D01*
X15494706Y-102408067D01*
X15302263Y-102555733D01*
X15302256Y-102555739D01*
X15130739Y-102727256D01*
X15130733Y-102727263D01*
X14983067Y-102919706D01*
X14861777Y-103129785D01*
X14861773Y-103129794D01*
X14768947Y-103353895D01*
X14706161Y-103588214D01*
X14674500Y-103828711D01*
X9500500Y-103828711D01*
X9500500Y-86395943D01*
X19924500Y-86395943D01*
X19924500Y-86554056D01*
X19965423Y-86706783D01*
X19965426Y-86706790D01*
X20044475Y-86843709D01*
X20044479Y-86843714D01*
X20044480Y-86843716D01*
X20156284Y-86955520D01*
X20156286Y-86955521D01*
X20156290Y-86955524D01*
X20293209Y-87034573D01*
X20293216Y-87034577D01*
X20445943Y-87075500D01*
X20445945Y-87075500D01*
X20604055Y-87075500D01*
X20604057Y-87075500D01*
X20756784Y-87034577D01*
X20893716Y-86955520D01*
X21005520Y-86843716D01*
X21084577Y-86706784D01*
X21125500Y-86554057D01*
X21125500Y-86554055D01*
X21127603Y-86546207D01*
X21129103Y-86546609D01*
X21153635Y-86491154D01*
X21157635Y-86486652D01*
X27010581Y-80213943D01*
X27709319Y-79465092D01*
X45774500Y-79465092D01*
X45774500Y-79614907D01*
X45803723Y-79761822D01*
X45803725Y-79761830D01*
X45861051Y-79900229D01*
X45861056Y-79900238D01*
X45944280Y-80024790D01*
X45944283Y-80024794D01*
X46050205Y-80130716D01*
X46050209Y-80130719D01*
X46174761Y-80213943D01*
X46174767Y-80213946D01*
X46174768Y-80213947D01*
X46313170Y-80271275D01*
X46460092Y-80300499D01*
X46460096Y-80300500D01*
X46460097Y-80300500D01*
X46609904Y-80300500D01*
X46609905Y-80300499D01*
X46756830Y-80271275D01*
X46895232Y-80213947D01*
X47019791Y-80130719D01*
X47125719Y-80024791D01*
X47208947Y-79900232D01*
X47266275Y-79761830D01*
X47295500Y-79614903D01*
X47295500Y-79465097D01*
X47266275Y-79318170D01*
X47208947Y-79179768D01*
X47208946Y-79179767D01*
X47208943Y-79179761D01*
X47125719Y-79055209D01*
X47125716Y-79055205D01*
X47019794Y-78949283D01*
X47019790Y-78949280D01*
X46895238Y-78866056D01*
X46895229Y-78866051D01*
X46756830Y-78808725D01*
X46756822Y-78808723D01*
X46609907Y-78779500D01*
X46609903Y-78779500D01*
X46460097Y-78779500D01*
X46460092Y-78779500D01*
X46313177Y-78808723D01*
X46313169Y-78808725D01*
X46174770Y-78866051D01*
X46174761Y-78866056D01*
X46050209Y-78949280D01*
X46050205Y-78949283D01*
X45944283Y-79055205D01*
X45944280Y-79055209D01*
X45861056Y-79179761D01*
X45861051Y-79179770D01*
X45803725Y-79318169D01*
X45803723Y-79318177D01*
X45774500Y-79465092D01*
X27709319Y-79465092D01*
X27793933Y-79374410D01*
X30172616Y-76825131D01*
X45294500Y-76825131D01*
X45294500Y-77324856D01*
X45294502Y-77324882D01*
X45297413Y-77349987D01*
X45297415Y-77349991D01*
X45342793Y-77452764D01*
X45342794Y-77452765D01*
X45422235Y-77532206D01*
X45525009Y-77577585D01*
X45550135Y-77580500D01*
X47909864Y-77580499D01*
X47909879Y-77580497D01*
X47909882Y-77580497D01*
X47934987Y-77577586D01*
X47934988Y-77577585D01*
X47934991Y-77577585D01*
X47972824Y-77560879D01*
X47983730Y-77556065D01*
X48033815Y-77545500D01*
X48484457Y-77545500D01*
X48551496Y-77565185D01*
X48571960Y-77581641D01*
X54256606Y-83243209D01*
X66305526Y-95243216D01*
X66576082Y-95512673D01*
X66608354Y-95568439D01*
X66645423Y-95706783D01*
X66645426Y-95706790D01*
X66724475Y-95843709D01*
X66724479Y-95843714D01*
X66724480Y-95843716D01*
X66836284Y-95955520D01*
X66836286Y-95955521D01*
X66836290Y-95955524D01*
X66973209Y-96034573D01*
X66973216Y-96034577D01*
X67125943Y-96075500D01*
X67125945Y-96075500D01*
X67284055Y-96075500D01*
X67284057Y-96075500D01*
X67436784Y-96034577D01*
X67573716Y-95955520D01*
X67685520Y-95843716D01*
X67764577Y-95706784D01*
X67805500Y-95554057D01*
X67805500Y-95395943D01*
X67764577Y-95243216D01*
X67764573Y-95243209D01*
X67685524Y-95106290D01*
X67685518Y-95106282D01*
X67573717Y-94994481D01*
X67573709Y-94994475D01*
X67436790Y-94915426D01*
X67436787Y-94915424D01*
X67436784Y-94915423D01*
X67295141Y-94877470D01*
X67239734Y-94845555D01*
X61926667Y-89554057D01*
X49062467Y-76742079D01*
X49018894Y-76698506D01*
X49018488Y-76698271D01*
X49018148Y-76697933D01*
X49018130Y-76697920D01*
X48965157Y-76667480D01*
X48964939Y-76667355D01*
X48911600Y-76636560D01*
X48911150Y-76636374D01*
X48910729Y-76636199D01*
X48851645Y-76620496D01*
X48851404Y-76620432D01*
X48791939Y-76604499D01*
X48791316Y-76604417D01*
X48791000Y-76604375D01*
X48790985Y-76604375D01*
X48733375Y-76604492D01*
X48729534Y-76604500D01*
X48033815Y-76604500D01*
X47983729Y-76593935D01*
X47934991Y-76572415D01*
X47909865Y-76569500D01*
X45550143Y-76569500D01*
X45550117Y-76569502D01*
X45525012Y-76572413D01*
X45525008Y-76572415D01*
X45422235Y-76617793D01*
X45342794Y-76697234D01*
X45297415Y-76800006D01*
X45297415Y-76800008D01*
X45294500Y-76825131D01*
X30172616Y-76825131D01*
X30254888Y-76736959D01*
X31665546Y-75225131D01*
X45294500Y-75225131D01*
X45294500Y-75724856D01*
X45294502Y-75724882D01*
X45297413Y-75749987D01*
X45297415Y-75749991D01*
X45342793Y-75852764D01*
X45342794Y-75852765D01*
X45422235Y-75932206D01*
X45525009Y-75977585D01*
X45550135Y-75980500D01*
X47909864Y-75980499D01*
X47909879Y-75980497D01*
X47909882Y-75980497D01*
X47934987Y-75977586D01*
X47934988Y-75977585D01*
X47934991Y-75977585D01*
X47972824Y-75960879D01*
X47983730Y-75956065D01*
X48033815Y-75945500D01*
X48530193Y-75945500D01*
X48597232Y-75965185D01*
X48605084Y-75970670D01*
X66589521Y-89598931D01*
X66631064Y-89655109D01*
X66634404Y-89665664D01*
X66645422Y-89706782D01*
X66645426Y-89706790D01*
X66724475Y-89843709D01*
X66724479Y-89843714D01*
X66724480Y-89843716D01*
X66836284Y-89955520D01*
X66836286Y-89955521D01*
X66836290Y-89955524D01*
X66973209Y-90034573D01*
X66973216Y-90034577D01*
X67125943Y-90075500D01*
X67125945Y-90075500D01*
X67284055Y-90075500D01*
X67284057Y-90075500D01*
X67436784Y-90034577D01*
X67573716Y-89955520D01*
X67685520Y-89843716D01*
X67764577Y-89706784D01*
X67805500Y-89554057D01*
X67805500Y-89395943D01*
X67764577Y-89243216D01*
X67764573Y-89243209D01*
X67685524Y-89106290D01*
X67685518Y-89106282D01*
X67573717Y-88994481D01*
X67573709Y-88994475D01*
X67436790Y-88915426D01*
X67436786Y-88915424D01*
X67436784Y-88915423D01*
X67284057Y-88874500D01*
X67284056Y-88874500D01*
X67233254Y-88874500D01*
X67166215Y-88854815D01*
X67158363Y-88849330D01*
X49046657Y-75124628D01*
X49039882Y-75119494D01*
X49018894Y-75098506D01*
X48990718Y-75082238D01*
X48984539Y-75077556D01*
X48984539Y-75077555D01*
X48964796Y-75062595D01*
X48964787Y-75062590D01*
X48945178Y-75054606D01*
X48929941Y-75047149D01*
X48911609Y-75036565D01*
X48911600Y-75036561D01*
X48887665Y-75030148D01*
X48887664Y-75030148D01*
X48880179Y-75028142D01*
X48850056Y-75015878D01*
X48820621Y-75012182D01*
X48812415Y-75009983D01*
X48812407Y-75009982D01*
X48791945Y-75004500D01*
X48791943Y-75004500D01*
X48767165Y-75004500D01*
X48751719Y-75003534D01*
X48727137Y-75000447D01*
X48727133Y-75000448D01*
X48706156Y-75003339D01*
X48689227Y-75004500D01*
X48033815Y-75004500D01*
X47983729Y-74993935D01*
X47934991Y-74972415D01*
X47909865Y-74969500D01*
X45550143Y-74969500D01*
X45550117Y-74969502D01*
X45525012Y-74972413D01*
X45525008Y-74972415D01*
X45422235Y-75017793D01*
X45342794Y-75097234D01*
X45297415Y-75200006D01*
X45297415Y-75200008D01*
X45294500Y-75225131D01*
X31665546Y-75225131D01*
X31747818Y-75136959D01*
X33158476Y-73625131D01*
X45294500Y-73625131D01*
X45294500Y-74124856D01*
X45294502Y-74124882D01*
X45297413Y-74149987D01*
X45297415Y-74149991D01*
X45342793Y-74252764D01*
X45342794Y-74252765D01*
X45422235Y-74332206D01*
X45525009Y-74377585D01*
X45550135Y-74380500D01*
X47909864Y-74380499D01*
X47909879Y-74380497D01*
X47909882Y-74380497D01*
X47934987Y-74377586D01*
X47934988Y-74377585D01*
X47934991Y-74377585D01*
X47976022Y-74359468D01*
X47983730Y-74356065D01*
X48033815Y-74345500D01*
X48584761Y-74345500D01*
X48641936Y-74359468D01*
X50061753Y-75097235D01*
X66619637Y-83701060D01*
X66669849Y-83749092D01*
X66724477Y-83843712D01*
X66724479Y-83843715D01*
X66724480Y-83843716D01*
X66836284Y-83955520D01*
X66836286Y-83955521D01*
X66836290Y-83955524D01*
X66973209Y-84034573D01*
X66973216Y-84034577D01*
X67125943Y-84075500D01*
X67125945Y-84075500D01*
X67284055Y-84075500D01*
X67284057Y-84075500D01*
X67436784Y-84034577D01*
X67573716Y-83955520D01*
X67685520Y-83843716D01*
X67764577Y-83706784D01*
X67805500Y-83554057D01*
X67805500Y-83395943D01*
X67764577Y-83243216D01*
X67764573Y-83243209D01*
X67685524Y-83106290D01*
X67685518Y-83106282D01*
X67573717Y-82994481D01*
X67573709Y-82994475D01*
X67436790Y-82915426D01*
X67436786Y-82915424D01*
X67436784Y-82915423D01*
X67284057Y-82874500D01*
X67125943Y-82874500D01*
X67125939Y-82874500D01*
X67119820Y-82875305D01*
X67050786Y-82864532D01*
X67046472Y-82862396D01*
X48958644Y-73463579D01*
X48958644Y-73463578D01*
X48956180Y-73462297D01*
X48911606Y-73436564D01*
X48901380Y-73433823D01*
X48891984Y-73428941D01*
X48891970Y-73428936D01*
X48844375Y-73418421D01*
X48844375Y-73418422D01*
X48841679Y-73417826D01*
X48791943Y-73404500D01*
X48781351Y-73404500D01*
X48771016Y-73402217D01*
X48771011Y-73402216D01*
X48771009Y-73402216D01*
X48771007Y-73402216D01*
X48722314Y-73404378D01*
X48716815Y-73404500D01*
X48033815Y-73404500D01*
X47983729Y-73393935D01*
X47934991Y-73372415D01*
X47909865Y-73369500D01*
X45550143Y-73369500D01*
X45550117Y-73369502D01*
X45525012Y-73372413D01*
X45525008Y-73372415D01*
X45422235Y-73417793D01*
X45342794Y-73497234D01*
X45297415Y-73600006D01*
X45297415Y-73600008D01*
X45294500Y-73625131D01*
X33158476Y-73625131D01*
X34651405Y-72025131D01*
X45294500Y-72025131D01*
X45294500Y-72524856D01*
X45294502Y-72524882D01*
X45297413Y-72549987D01*
X45297415Y-72549991D01*
X45342793Y-72652764D01*
X45342794Y-72652765D01*
X45422235Y-72732206D01*
X45525009Y-72777585D01*
X45550135Y-72780500D01*
X47909864Y-72780499D01*
X47909879Y-72780497D01*
X47909882Y-72780497D01*
X47934987Y-72777586D01*
X47934988Y-72777585D01*
X47934991Y-72777585D01*
X47972824Y-72760879D01*
X47983730Y-72756065D01*
X48033815Y-72745500D01*
X48647929Y-72745500D01*
X48681525Y-72750138D01*
X48779041Y-72777585D01*
X66672171Y-77813811D01*
X66726255Y-77845491D01*
X66836284Y-77955520D01*
X66836286Y-77955521D01*
X66836290Y-77955524D01*
X66973209Y-78034573D01*
X66973216Y-78034577D01*
X67125943Y-78075500D01*
X67125945Y-78075500D01*
X67284055Y-78075500D01*
X67284057Y-78075500D01*
X67436784Y-78034577D01*
X67573716Y-77955520D01*
X67685520Y-77843716D01*
X67764577Y-77706784D01*
X67805500Y-77554057D01*
X67805500Y-77395943D01*
X67764577Y-77243216D01*
X67764573Y-77243209D01*
X67685524Y-77106290D01*
X67685518Y-77106282D01*
X67573717Y-76994481D01*
X67573709Y-76994475D01*
X67436790Y-76915426D01*
X67436786Y-76915424D01*
X67436784Y-76915423D01*
X67284057Y-76874500D01*
X67125943Y-76874500D01*
X66996004Y-76909317D01*
X66930315Y-76908904D01*
X48924468Y-71840953D01*
X48924468Y-71840952D01*
X48914201Y-71838062D01*
X48911606Y-71836564D01*
X48854699Y-71821315D01*
X48853865Y-71821081D01*
X48797591Y-71805242D01*
X48795658Y-71804988D01*
X48791946Y-71804500D01*
X48791943Y-71804500D01*
X48733726Y-71804500D01*
X48732169Y-71804490D01*
X48731074Y-71804476D01*
X48673974Y-71803759D01*
X48673973Y-71803759D01*
X48673093Y-71803748D01*
X48660397Y-71804500D01*
X48033815Y-71804500D01*
X47983729Y-71793935D01*
X47934991Y-71772415D01*
X47909865Y-71769500D01*
X45550143Y-71769500D01*
X45550117Y-71769502D01*
X45525012Y-71772413D01*
X45525008Y-71772415D01*
X45422235Y-71817793D01*
X45342794Y-71897234D01*
X45297415Y-72000006D01*
X45297415Y-72000008D01*
X45294500Y-72025131D01*
X34651405Y-72025131D01*
X36144334Y-70425131D01*
X45294500Y-70425131D01*
X45294500Y-70924856D01*
X45294502Y-70924882D01*
X45297413Y-70949987D01*
X45297415Y-70949991D01*
X45342793Y-71052764D01*
X45342794Y-71052765D01*
X45422235Y-71132206D01*
X45525009Y-71177585D01*
X45550135Y-71180500D01*
X47909864Y-71180499D01*
X47909879Y-71180497D01*
X47909882Y-71180497D01*
X47934987Y-71177586D01*
X47934988Y-71177585D01*
X47934991Y-71177585D01*
X47972824Y-71160879D01*
X47983730Y-71156065D01*
X48033815Y-71145500D01*
X48717129Y-71145500D01*
X48722492Y-71145615D01*
X66761919Y-71926754D01*
X66828042Y-71949319D01*
X66832045Y-71952267D01*
X66836287Y-71955523D01*
X66956855Y-72025131D01*
X66973216Y-72034577D01*
X67125943Y-72075500D01*
X67125945Y-72075500D01*
X67284055Y-72075500D01*
X67284057Y-72075500D01*
X67436784Y-72034577D01*
X67573716Y-71955520D01*
X67685520Y-71843716D01*
X67764577Y-71706784D01*
X67805500Y-71554057D01*
X67805500Y-71395943D01*
X67764577Y-71243216D01*
X67764573Y-71243209D01*
X67685524Y-71106290D01*
X67685518Y-71106282D01*
X67573717Y-70994481D01*
X67573709Y-70994475D01*
X67436790Y-70915426D01*
X67436786Y-70915424D01*
X67436784Y-70915423D01*
X67284057Y-70874500D01*
X67125943Y-70874500D01*
X66973216Y-70915423D01*
X66973211Y-70915425D01*
X66877852Y-70970479D01*
X66810490Y-70986975D01*
X48815507Y-70207761D01*
X48815507Y-70207760D01*
X48801916Y-70207171D01*
X48791943Y-70204500D01*
X48740180Y-70204500D01*
X48737500Y-70204384D01*
X48737497Y-70204384D01*
X48688469Y-70202260D01*
X48680375Y-70202972D01*
X48680359Y-70202791D01*
X48664783Y-70204500D01*
X48033815Y-70204500D01*
X47983729Y-70193935D01*
X47934991Y-70172415D01*
X47909865Y-70169500D01*
X45550143Y-70169500D01*
X45550117Y-70169502D01*
X45525012Y-70172413D01*
X45525008Y-70172415D01*
X45422235Y-70217793D01*
X45342794Y-70297234D01*
X45297415Y-70400006D01*
X45297415Y-70400008D01*
X45294500Y-70425131D01*
X36144334Y-70425131D01*
X37403649Y-69075499D01*
X37637263Y-68825131D01*
X45294500Y-68825131D01*
X45294500Y-69324856D01*
X45294502Y-69324882D01*
X45297413Y-69349987D01*
X45297415Y-69349991D01*
X45342793Y-69452764D01*
X45342794Y-69452765D01*
X45422235Y-69532206D01*
X45525009Y-69577585D01*
X45550135Y-69580500D01*
X47909864Y-69580499D01*
X47909879Y-69580497D01*
X47909882Y-69580497D01*
X47934987Y-69577586D01*
X47934988Y-69577585D01*
X47934991Y-69577585D01*
X47972824Y-69560879D01*
X47983730Y-69556065D01*
X48033815Y-69545500D01*
X48713684Y-69545500D01*
X48759189Y-69548661D01*
X48775411Y-69545500D01*
X48791943Y-69545500D01*
X48831868Y-69534800D01*
X48840212Y-69532871D01*
X66882272Y-66017234D01*
X66951836Y-66023733D01*
X66967986Y-66031558D01*
X66971544Y-66033611D01*
X66973216Y-66034577D01*
X67125943Y-66075500D01*
X67125945Y-66075500D01*
X67284055Y-66075500D01*
X67284057Y-66075500D01*
X67436784Y-66034577D01*
X67573716Y-65955520D01*
X67685520Y-65843716D01*
X67764577Y-65706784D01*
X67805500Y-65554057D01*
X67805500Y-65395943D01*
X67764577Y-65243216D01*
X67764573Y-65243209D01*
X67685524Y-65106290D01*
X67685518Y-65106282D01*
X67573717Y-64994481D01*
X67573709Y-64994475D01*
X67436790Y-64915426D01*
X67436786Y-64915424D01*
X67436784Y-64915423D01*
X67284057Y-64874500D01*
X67125943Y-64874500D01*
X66973216Y-64915423D01*
X66973209Y-64915426D01*
X66836283Y-64994479D01*
X66772377Y-65058384D01*
X66711053Y-65091869D01*
X66708413Y-65092413D01*
X48696333Y-68602211D01*
X48672617Y-68604500D01*
X48033815Y-68604500D01*
X47983729Y-68593935D01*
X47934991Y-68572415D01*
X47909865Y-68569500D01*
X45550143Y-68569500D01*
X45550117Y-68569502D01*
X45525012Y-68572413D01*
X45525008Y-68572415D01*
X45422235Y-68617793D01*
X45342794Y-68697234D01*
X45297415Y-68800006D01*
X45297415Y-68800008D01*
X45294500Y-68825131D01*
X37637263Y-68825131D01*
X39130192Y-67225131D01*
X45294500Y-67225131D01*
X45294500Y-67724856D01*
X45294502Y-67724882D01*
X45297413Y-67749987D01*
X45297415Y-67749991D01*
X45342793Y-67852764D01*
X45342794Y-67852765D01*
X45422235Y-67932206D01*
X45525009Y-67977585D01*
X45550135Y-67980500D01*
X47909864Y-67980499D01*
X47909879Y-67980497D01*
X47909882Y-67980497D01*
X47934987Y-67977586D01*
X47934988Y-67977585D01*
X47934991Y-67977585D01*
X47972824Y-67960879D01*
X47983730Y-67956065D01*
X48033815Y-67945500D01*
X48310703Y-67945500D01*
X48372702Y-67962113D01*
X48498209Y-68034573D01*
X48498216Y-68034577D01*
X48650943Y-68075500D01*
X48650945Y-68075500D01*
X48809055Y-68075500D01*
X48809057Y-68075500D01*
X48961784Y-68034577D01*
X49098716Y-67955520D01*
X49210520Y-67843716D01*
X49289577Y-67706784D01*
X49330500Y-67554057D01*
X49330500Y-67395943D01*
X49289577Y-67243216D01*
X49264630Y-67200006D01*
X49210524Y-67106290D01*
X49210518Y-67106282D01*
X49098717Y-66994481D01*
X49098709Y-66994475D01*
X48961790Y-66915426D01*
X48961786Y-66915424D01*
X48961784Y-66915423D01*
X48809057Y-66874500D01*
X48650943Y-66874500D01*
X48498216Y-66915423D01*
X48498209Y-66915426D01*
X48372702Y-66987887D01*
X48310703Y-67004500D01*
X48033815Y-67004500D01*
X47983729Y-66993935D01*
X47934991Y-66972415D01*
X47909865Y-66969500D01*
X45550143Y-66969500D01*
X45550117Y-66969502D01*
X45525012Y-66972413D01*
X45525008Y-66972415D01*
X45422235Y-67017793D01*
X45342794Y-67097234D01*
X45297415Y-67200006D01*
X45297415Y-67200008D01*
X45294500Y-67225131D01*
X39130192Y-67225131D01*
X39153634Y-67200008D01*
X39167726Y-67184905D01*
X39227854Y-67149318D01*
X39258388Y-67145500D01*
X39696185Y-67145500D01*
X39746270Y-67156064D01*
X39795009Y-67177585D01*
X39820135Y-67180500D01*
X42179864Y-67180499D01*
X42179879Y-67180497D01*
X42179882Y-67180497D01*
X42204987Y-67177586D01*
X42204988Y-67177585D01*
X42204991Y-67177585D01*
X42307765Y-67132206D01*
X42387206Y-67052765D01*
X42432585Y-66949991D01*
X42435500Y-66924865D01*
X42435499Y-66425136D01*
X42433002Y-66403603D01*
X42432586Y-66400012D01*
X42432585Y-66400010D01*
X42432585Y-66400009D01*
X42387206Y-66297235D01*
X42307765Y-66217794D01*
X42273440Y-66202638D01*
X42204992Y-66172415D01*
X42179865Y-66169500D01*
X39820143Y-66169500D01*
X39820117Y-66169502D01*
X39795012Y-66172413D01*
X39795010Y-66172414D01*
X39746270Y-66193935D01*
X39696185Y-66204500D01*
X39053681Y-66204500D01*
X39045627Y-66202638D01*
X38991851Y-66204500D01*
X38938054Y-66204500D01*
X38930070Y-66206639D01*
X38921816Y-66206925D01*
X38870386Y-66222631D01*
X38868299Y-66223191D01*
X38868298Y-66223190D01*
X38818396Y-66236563D01*
X38818390Y-66236565D01*
X38811235Y-66240696D01*
X38803334Y-66243110D01*
X38757722Y-66271590D01*
X38755842Y-66272676D01*
X38755840Y-66272676D01*
X38711108Y-66298503D01*
X38711100Y-66298510D01*
X38705259Y-66304350D01*
X38698254Y-66308726D01*
X38661581Y-66348027D01*
X38660038Y-66349571D01*
X38660039Y-66349571D01*
X38623509Y-66386102D01*
X38618559Y-66392553D01*
X38618142Y-66392233D01*
X38609724Y-66403603D01*
X20464668Y-85849995D01*
X20406101Y-85885174D01*
X20293220Y-85915421D01*
X20293209Y-85915426D01*
X20156290Y-85994475D01*
X20156282Y-85994481D01*
X20044481Y-86106282D01*
X20044475Y-86106290D01*
X19965426Y-86243209D01*
X19965423Y-86243216D01*
X19924500Y-86395943D01*
X9500500Y-86395943D01*
X9500500Y-74395943D01*
X19924500Y-74395943D01*
X19924500Y-74554056D01*
X19965423Y-74706783D01*
X19965426Y-74706790D01*
X20044475Y-74843709D01*
X20044479Y-74843714D01*
X20044480Y-74843716D01*
X20156284Y-74955520D01*
X20156286Y-74955521D01*
X20156290Y-74955524D01*
X20282072Y-75028143D01*
X20293216Y-75034577D01*
X20445943Y-75075500D01*
X20445945Y-75075500D01*
X20604055Y-75075500D01*
X20604057Y-75075500D01*
X20756784Y-75034577D01*
X20893716Y-74955520D01*
X21005520Y-74843716D01*
X21056868Y-74754775D01*
X21107434Y-74706559D01*
X21107684Y-74706430D01*
X38956303Y-65625131D01*
X45294500Y-65625131D01*
X45294500Y-66124856D01*
X45294502Y-66124882D01*
X45297413Y-66149987D01*
X45297415Y-66149991D01*
X45342793Y-66252764D01*
X45342794Y-66252765D01*
X45422235Y-66332206D01*
X45525009Y-66377585D01*
X45550135Y-66380500D01*
X47909864Y-66380499D01*
X47909879Y-66380497D01*
X47909882Y-66380497D01*
X47934987Y-66377586D01*
X47934988Y-66377585D01*
X47934991Y-66377585D01*
X47972824Y-66360879D01*
X47983730Y-66356065D01*
X48033815Y-66345500D01*
X48310703Y-66345500D01*
X48372702Y-66362113D01*
X48498209Y-66434573D01*
X48498216Y-66434577D01*
X48650943Y-66475500D01*
X48650945Y-66475500D01*
X48809055Y-66475500D01*
X48809057Y-66475500D01*
X48961784Y-66434577D01*
X49098716Y-66355520D01*
X49210520Y-66243716D01*
X49289577Y-66106784D01*
X49330500Y-65954057D01*
X49330500Y-65795943D01*
X49289577Y-65643216D01*
X49264630Y-65600006D01*
X49210524Y-65506290D01*
X49210518Y-65506282D01*
X49098717Y-65394481D01*
X49098709Y-65394475D01*
X48961790Y-65315426D01*
X48961786Y-65315424D01*
X48961784Y-65315423D01*
X48809057Y-65274500D01*
X48650943Y-65274500D01*
X48498216Y-65315423D01*
X48498209Y-65315426D01*
X48372702Y-65387887D01*
X48310703Y-65404500D01*
X48033815Y-65404500D01*
X47983729Y-65393935D01*
X47934991Y-65372415D01*
X47909865Y-65369500D01*
X45550143Y-65369500D01*
X45550117Y-65369502D01*
X45525012Y-65372413D01*
X45525008Y-65372415D01*
X45422235Y-65417793D01*
X45342794Y-65497234D01*
X45297415Y-65600006D01*
X45297415Y-65600008D01*
X45294500Y-65625131D01*
X38956303Y-65625131D01*
X39086314Y-65558982D01*
X39142545Y-65545500D01*
X39696185Y-65545500D01*
X39746270Y-65556064D01*
X39795009Y-65577585D01*
X39820135Y-65580500D01*
X42179864Y-65580499D01*
X42179879Y-65580497D01*
X42179882Y-65580497D01*
X42204987Y-65577586D01*
X42204988Y-65577585D01*
X42204991Y-65577585D01*
X42307765Y-65532206D01*
X42387206Y-65452765D01*
X42432585Y-65349991D01*
X42435500Y-65324865D01*
X42435499Y-64825136D01*
X42435497Y-64825117D01*
X42432586Y-64800012D01*
X42432585Y-64800010D01*
X42432585Y-64800009D01*
X42387206Y-64697235D01*
X42307765Y-64617794D01*
X42271728Y-64601882D01*
X42204992Y-64572415D01*
X42179865Y-64569500D01*
X39820143Y-64569500D01*
X39820117Y-64569502D01*
X39795012Y-64572413D01*
X39795010Y-64572414D01*
X39746270Y-64593935D01*
X39696185Y-64604500D01*
X39012457Y-64604500D01*
X38963041Y-64601882D01*
X38950689Y-64604500D01*
X38938057Y-64604500D01*
X38906603Y-64612927D01*
X38893420Y-64616460D01*
X38893419Y-64616459D01*
X38890230Y-64617313D01*
X38841849Y-64627568D01*
X38830592Y-64633294D01*
X38818401Y-64636561D01*
X38818386Y-64636567D01*
X38778377Y-64659666D01*
X38772610Y-64662795D01*
X20688127Y-73864102D01*
X20619450Y-73876959D01*
X20611056Y-73875421D01*
X20604058Y-73874500D01*
X20604057Y-73874500D01*
X20445943Y-73874500D01*
X20293216Y-73915423D01*
X20293209Y-73915426D01*
X20156290Y-73994475D01*
X20156282Y-73994481D01*
X20044481Y-74106282D01*
X20044475Y-74106290D01*
X19965426Y-74243209D01*
X19965423Y-74243216D01*
X19924500Y-74395943D01*
X9500500Y-74395943D01*
X9500500Y-68395943D01*
X19924500Y-68395943D01*
X19924500Y-68554057D01*
X19962865Y-68697235D01*
X19965423Y-68706783D01*
X19965426Y-68706790D01*
X20044475Y-68843709D01*
X20044479Y-68843714D01*
X20044480Y-68843716D01*
X20156284Y-68955520D01*
X20156286Y-68955521D01*
X20156290Y-68955524D01*
X20293209Y-69034573D01*
X20293216Y-69034577D01*
X20445943Y-69075500D01*
X20445945Y-69075500D01*
X20604055Y-69075500D01*
X20604057Y-69075500D01*
X20756784Y-69034577D01*
X20893716Y-68955520D01*
X20997687Y-68851549D01*
X21052972Y-68819537D01*
X39046633Y-63949805D01*
X39079027Y-63945500D01*
X39696185Y-63945500D01*
X39746270Y-63956064D01*
X39795009Y-63977585D01*
X39820135Y-63980500D01*
X42179864Y-63980499D01*
X42179879Y-63980497D01*
X42179882Y-63980497D01*
X42204987Y-63977586D01*
X42204988Y-63977585D01*
X42204991Y-63977585D01*
X42307765Y-63932206D01*
X42387206Y-63852765D01*
X42432585Y-63749991D01*
X42435500Y-63724865D01*
X42435499Y-63225136D01*
X42435497Y-63225117D01*
X42432586Y-63200012D01*
X42432585Y-63200010D01*
X42432585Y-63200009D01*
X42387206Y-63097235D01*
X42307765Y-63017794D01*
X42277657Y-63004500D01*
X42204992Y-62972415D01*
X42179865Y-62969500D01*
X39820143Y-62969500D01*
X39820117Y-62969502D01*
X39795012Y-62972413D01*
X39795010Y-62972414D01*
X39746270Y-62993935D01*
X39696185Y-63004500D01*
X39061341Y-63004500D01*
X39060764Y-63004347D01*
X38999423Y-63004500D01*
X38938041Y-63004500D01*
X38937543Y-63004567D01*
X38937533Y-63004568D01*
X38936878Y-63004655D01*
X38889335Y-63017522D01*
X38877487Y-63020729D01*
X38812141Y-63038239D01*
X38809642Y-63039090D01*
X20806507Y-67911386D01*
X20742020Y-67911467D01*
X20604057Y-67874500D01*
X20445943Y-67874500D01*
X20293216Y-67915423D01*
X20293209Y-67915426D01*
X20156290Y-67994475D01*
X20156282Y-67994481D01*
X20044481Y-68106282D01*
X20044475Y-68106290D01*
X19965426Y-68243209D01*
X19965423Y-68243216D01*
X19924500Y-68395943D01*
X9500500Y-68395943D01*
X9500500Y-62395943D01*
X19924500Y-62395943D01*
X19924500Y-62554056D01*
X19965423Y-62706783D01*
X19965426Y-62706790D01*
X20044475Y-62843709D01*
X20044479Y-62843714D01*
X20044480Y-62843716D01*
X20156284Y-62955520D01*
X20156286Y-62955521D01*
X20156290Y-62955524D01*
X20269092Y-63020649D01*
X20293216Y-63034577D01*
X20445943Y-63075500D01*
X20445945Y-63075500D01*
X20604055Y-63075500D01*
X20604057Y-63075500D01*
X20756784Y-63034577D01*
X20893716Y-62955520D01*
X20893716Y-62955519D01*
X20900755Y-62951456D01*
X20901754Y-62953187D01*
X20956842Y-62931884D01*
X20963144Y-62931518D01*
X37454400Y-62395943D01*
X39005623Y-62345565D01*
X39009648Y-62345500D01*
X39696185Y-62345500D01*
X39746270Y-62356064D01*
X39795009Y-62377585D01*
X39820135Y-62380500D01*
X42179864Y-62380499D01*
X42179879Y-62380497D01*
X42179882Y-62380497D01*
X42204987Y-62377586D01*
X42204988Y-62377585D01*
X42204991Y-62377585D01*
X42307765Y-62332206D01*
X42387206Y-62252765D01*
X42432585Y-62149991D01*
X42435500Y-62124865D01*
X42435499Y-61625136D01*
X42435497Y-61625117D01*
X42432586Y-61600012D01*
X42432585Y-61600010D01*
X42432585Y-61600009D01*
X42387206Y-61497235D01*
X42307765Y-61417794D01*
X42277657Y-61404500D01*
X42204992Y-61372415D01*
X42179865Y-61369500D01*
X39820143Y-61369500D01*
X39820117Y-61369502D01*
X39795012Y-61372413D01*
X39795010Y-61372414D01*
X39746270Y-61393935D01*
X39696185Y-61404500D01*
X39054190Y-61404500D01*
X39046638Y-61402737D01*
X38992352Y-61404500D01*
X38938055Y-61404500D01*
X38930000Y-61405560D01*
X38929920Y-61404952D01*
X38916300Y-61406969D01*
X20925477Y-61991246D01*
X20859452Y-61974698D01*
X20756786Y-61915424D01*
X20756785Y-61915423D01*
X20756784Y-61915423D01*
X20604057Y-61874500D01*
X20445943Y-61874500D01*
X20293216Y-61915423D01*
X20293209Y-61915426D01*
X20156290Y-61994475D01*
X20156282Y-61994481D01*
X20044481Y-62106282D01*
X20044475Y-62106290D01*
X19965426Y-62243209D01*
X19965423Y-62243216D01*
X19924500Y-62395943D01*
X9500500Y-62395943D01*
X9500500Y-56395943D01*
X19924500Y-56395943D01*
X19924500Y-56554057D01*
X19962865Y-56697235D01*
X19965423Y-56706783D01*
X19965426Y-56706790D01*
X20044475Y-56843709D01*
X20044479Y-56843714D01*
X20044480Y-56843716D01*
X20156284Y-56955520D01*
X20156286Y-56955521D01*
X20156290Y-56955524D01*
X20293209Y-57034573D01*
X20293216Y-57034577D01*
X20445943Y-57075500D01*
X20445945Y-57075500D01*
X20604055Y-57075500D01*
X20604057Y-57075500D01*
X20756784Y-57034577D01*
X20859453Y-56975300D01*
X20925474Y-56958752D01*
X38930568Y-57543493D01*
X38938057Y-57545500D01*
X38992352Y-57545500D01*
X39046638Y-57547263D01*
X39046642Y-57547262D01*
X39054731Y-57546464D01*
X39054791Y-57547076D01*
X39068472Y-57545500D01*
X39696185Y-57545500D01*
X39746270Y-57556064D01*
X39795009Y-57577585D01*
X39820135Y-57580500D01*
X42179864Y-57580499D01*
X42179879Y-57580497D01*
X42179882Y-57580497D01*
X42204987Y-57577586D01*
X42204988Y-57577585D01*
X42204991Y-57577585D01*
X42307765Y-57532206D01*
X42387206Y-57452765D01*
X42432585Y-57349991D01*
X42435500Y-57324865D01*
X42435499Y-56825136D01*
X42435499Y-56825135D01*
X42435499Y-56825131D01*
X45294500Y-56825131D01*
X45294500Y-57324856D01*
X45294502Y-57324882D01*
X45297413Y-57349987D01*
X45297415Y-57349991D01*
X45342793Y-57452764D01*
X45342794Y-57452765D01*
X45422235Y-57532206D01*
X45525009Y-57577585D01*
X45550135Y-57580500D01*
X46135500Y-57580499D01*
X46202539Y-57600183D01*
X46248294Y-57652987D01*
X46259500Y-57704499D01*
X46259500Y-61245500D01*
X46239815Y-61312539D01*
X46187011Y-61358294D01*
X46135500Y-61369500D01*
X45550143Y-61369500D01*
X45550117Y-61369502D01*
X45525012Y-61372413D01*
X45525008Y-61372415D01*
X45422235Y-61417793D01*
X45342794Y-61497234D01*
X45297415Y-61600006D01*
X45297415Y-61600008D01*
X45294500Y-61625131D01*
X45294500Y-62124856D01*
X45294502Y-62124882D01*
X45297413Y-62149987D01*
X45297415Y-62149991D01*
X45342793Y-62252764D01*
X45342794Y-62252765D01*
X45422235Y-62332206D01*
X45525009Y-62377585D01*
X45550135Y-62380500D01*
X47909864Y-62380499D01*
X47909879Y-62380497D01*
X47909882Y-62380497D01*
X47934987Y-62377586D01*
X47934988Y-62377585D01*
X47934991Y-62377585D01*
X47972824Y-62360879D01*
X47983730Y-62356065D01*
X48033815Y-62345500D01*
X48698757Y-62345500D01*
X48729184Y-62349559D01*
X48760430Y-62345500D01*
X48791943Y-62345500D01*
X48813651Y-62339682D01*
X48829754Y-62336493D01*
X66853806Y-59995075D01*
X66922823Y-60005960D01*
X66931778Y-60010654D01*
X66968241Y-60031704D01*
X66973216Y-60034577D01*
X67125943Y-60075500D01*
X67125945Y-60075500D01*
X67284055Y-60075500D01*
X67284057Y-60075500D01*
X67436784Y-60034577D01*
X67573716Y-59955520D01*
X67685520Y-59843716D01*
X67764577Y-59706784D01*
X67805500Y-59554057D01*
X67805500Y-59395943D01*
X67764577Y-59243216D01*
X67764573Y-59243209D01*
X67685524Y-59106290D01*
X67685518Y-59106282D01*
X67573717Y-58994481D01*
X67573709Y-58994475D01*
X67436790Y-58915426D01*
X67436786Y-58915424D01*
X67436784Y-58915423D01*
X67284057Y-58874500D01*
X67125943Y-58874500D01*
X66973216Y-58915423D01*
X66973209Y-58915426D01*
X66836285Y-58994478D01*
X66804106Y-59026656D01*
X66742782Y-59060139D01*
X66732401Y-59061939D01*
X49527008Y-61297011D01*
X48780896Y-61393935D01*
X48707519Y-61403467D01*
X48691545Y-61404500D01*
X48033815Y-61404500D01*
X47983729Y-61393935D01*
X47934991Y-61372415D01*
X47928709Y-61371686D01*
X47909868Y-61369500D01*
X47909865Y-61369500D01*
X47324500Y-61369500D01*
X47257461Y-61349815D01*
X47211706Y-61297011D01*
X47200500Y-61245500D01*
X47200500Y-57704499D01*
X47220185Y-57637460D01*
X47272989Y-57591705D01*
X47324500Y-57580499D01*
X47909856Y-57580499D01*
X47909864Y-57580499D01*
X47909879Y-57580497D01*
X47909882Y-57580497D01*
X47934987Y-57577586D01*
X47934988Y-57577585D01*
X47934991Y-57577585D01*
X48037765Y-57532206D01*
X48117206Y-57452765D01*
X48162585Y-57349991D01*
X48165500Y-57324865D01*
X48165499Y-56825136D01*
X48165497Y-56825117D01*
X48162586Y-56800012D01*
X48162585Y-56800010D01*
X48162585Y-56800009D01*
X48117206Y-56697235D01*
X48037765Y-56617794D01*
X48007510Y-56604435D01*
X47934992Y-56572415D01*
X47909865Y-56569500D01*
X45550143Y-56569500D01*
X45550117Y-56569502D01*
X45525012Y-56572413D01*
X45525008Y-56572415D01*
X45422235Y-56617793D01*
X45342794Y-56697234D01*
X45297415Y-56800006D01*
X45297415Y-56800008D01*
X45294500Y-56825131D01*
X42435499Y-56825131D01*
X42435499Y-56825130D01*
X42432586Y-56800012D01*
X42432585Y-56800010D01*
X42432585Y-56800009D01*
X42387206Y-56697235D01*
X42307765Y-56617794D01*
X42277510Y-56604435D01*
X42204992Y-56572415D01*
X42179865Y-56569500D01*
X39820143Y-56569500D01*
X39820117Y-56569502D01*
X39795012Y-56572413D01*
X39795010Y-56572414D01*
X39746270Y-56593935D01*
X39696185Y-56604500D01*
X39009648Y-56604500D01*
X39005623Y-56604435D01*
X20963146Y-56018480D01*
X20901048Y-55998034D01*
X20900755Y-55998543D01*
X20898314Y-55997133D01*
X20896781Y-55996629D01*
X20894249Y-55994787D01*
X20756790Y-55915426D01*
X20756786Y-55915424D01*
X20756784Y-55915423D01*
X20604057Y-55874500D01*
X20445943Y-55874500D01*
X20293216Y-55915423D01*
X20293209Y-55915426D01*
X20156290Y-55994475D01*
X20156282Y-55994481D01*
X20044481Y-56106282D01*
X20044475Y-56106290D01*
X19965426Y-56243209D01*
X19965423Y-56243216D01*
X19924500Y-56395943D01*
X9500500Y-56395943D01*
X9500500Y-50395943D01*
X19924500Y-50395943D01*
X19924500Y-50554056D01*
X19965423Y-50706783D01*
X19965426Y-50706790D01*
X20044475Y-50843709D01*
X20044479Y-50843714D01*
X20044480Y-50843716D01*
X20156284Y-50955520D01*
X20156286Y-50955521D01*
X20156290Y-50955524D01*
X20282105Y-51028162D01*
X20293216Y-51034577D01*
X20445943Y-51075500D01*
X20445945Y-51075500D01*
X20604054Y-51075500D01*
X20604057Y-51075500D01*
X20742027Y-51038531D01*
X20806506Y-51038611D01*
X38817876Y-55913137D01*
X38818394Y-55913436D01*
X38877487Y-55929270D01*
X38936880Y-55945344D01*
X38936885Y-55945344D01*
X38937189Y-55945385D01*
X38937421Y-55945416D01*
X38938049Y-55945500D01*
X38999423Y-55945500D01*
X39060764Y-55945653D01*
X39060764Y-55945652D01*
X39067290Y-55945669D01*
X39069919Y-55945500D01*
X39696185Y-55945500D01*
X39746270Y-55956064D01*
X39795009Y-55977585D01*
X39820135Y-55980500D01*
X42179864Y-55980499D01*
X42179879Y-55980497D01*
X42179882Y-55980497D01*
X42204987Y-55977586D01*
X42204988Y-55977585D01*
X42204991Y-55977585D01*
X42307765Y-55932206D01*
X42387206Y-55852765D01*
X42432585Y-55749991D01*
X42435500Y-55724865D01*
X42435499Y-55225136D01*
X42435497Y-55225117D01*
X42432586Y-55200012D01*
X42432585Y-55200010D01*
X42432585Y-55200009D01*
X42387206Y-55097235D01*
X42307765Y-55017794D01*
X42267905Y-55000194D01*
X42204992Y-54972415D01*
X42179865Y-54969500D01*
X39820143Y-54969500D01*
X39820117Y-54969502D01*
X39795012Y-54972413D01*
X39795010Y-54972414D01*
X39746270Y-54993935D01*
X39696185Y-55004500D01*
X39079027Y-55004500D01*
X39046633Y-55000194D01*
X38943982Y-54972413D01*
X31343400Y-52915422D01*
X21052973Y-50130462D01*
X20997686Y-50098450D01*
X20893716Y-49994480D01*
X20893713Y-49994478D01*
X20893709Y-49994475D01*
X20756790Y-49915426D01*
X20756786Y-49915424D01*
X20756784Y-49915423D01*
X20604057Y-49874500D01*
X20445943Y-49874500D01*
X20293216Y-49915423D01*
X20293209Y-49915426D01*
X20156290Y-49994475D01*
X20156282Y-49994481D01*
X20044481Y-50106282D01*
X20044475Y-50106290D01*
X19965426Y-50243209D01*
X19965423Y-50243216D01*
X19924500Y-50395943D01*
X9500500Y-50395943D01*
X9500500Y-44395943D01*
X19924500Y-44395943D01*
X19924500Y-44554057D01*
X19962865Y-44697235D01*
X19965423Y-44706783D01*
X19965426Y-44706790D01*
X20044475Y-44843709D01*
X20044479Y-44843714D01*
X20044480Y-44843716D01*
X20156284Y-44955520D01*
X20156286Y-44955521D01*
X20156290Y-44955524D01*
X20293209Y-45034573D01*
X20293216Y-45034577D01*
X20445943Y-45075500D01*
X20445945Y-45075500D01*
X20604057Y-45075500D01*
X20612116Y-45074439D01*
X20612445Y-45076942D01*
X20669640Y-45078297D01*
X20688125Y-45085895D01*
X29609662Y-49625135D01*
X38772605Y-54287201D01*
X38772606Y-54287201D01*
X38775536Y-54288692D01*
X38818394Y-54313436D01*
X38830591Y-54316704D01*
X38841849Y-54322432D01*
X38841854Y-54322433D01*
X38887056Y-54332013D01*
X38887058Y-54332014D01*
X38890269Y-54332694D01*
X38938057Y-54345500D01*
X38950689Y-54345500D01*
X38963041Y-54348118D01*
X39009173Y-54345674D01*
X39015733Y-54345500D01*
X39696185Y-54345500D01*
X39746270Y-54356064D01*
X39795009Y-54377585D01*
X39820135Y-54380500D01*
X42179864Y-54380499D01*
X42179879Y-54380497D01*
X42179882Y-54380497D01*
X42204987Y-54377586D01*
X42204988Y-54377585D01*
X42204991Y-54377585D01*
X42307765Y-54332206D01*
X42387206Y-54252765D01*
X42432585Y-54149991D01*
X42435500Y-54124865D01*
X42435499Y-53625136D01*
X42435497Y-53625117D01*
X42432586Y-53600012D01*
X42432585Y-53600010D01*
X42432585Y-53600009D01*
X42387206Y-53497235D01*
X42307765Y-53417794D01*
X42258282Y-53395945D01*
X42204992Y-53372415D01*
X42179865Y-53369500D01*
X39820143Y-53369500D01*
X39820117Y-53369502D01*
X39795012Y-53372413D01*
X39795010Y-53372414D01*
X39746270Y-53393935D01*
X39696185Y-53404500D01*
X39142545Y-53404500D01*
X39086314Y-53391017D01*
X39005680Y-53349991D01*
X37974107Y-52825131D01*
X45294500Y-52825131D01*
X45294500Y-53324856D01*
X45294502Y-53324882D01*
X45297413Y-53349987D01*
X45297415Y-53349991D01*
X45342793Y-53452764D01*
X45342794Y-53452765D01*
X45422235Y-53532206D01*
X45525009Y-53577585D01*
X45550135Y-53580500D01*
X47909864Y-53580499D01*
X47909879Y-53580497D01*
X47909882Y-53580497D01*
X47934987Y-53577586D01*
X47934988Y-53577585D01*
X47934991Y-53577585D01*
X47972824Y-53560879D01*
X47983730Y-53556065D01*
X48033815Y-53545500D01*
X48310703Y-53545500D01*
X48372702Y-53562113D01*
X48498209Y-53634573D01*
X48498216Y-53634577D01*
X48650943Y-53675500D01*
X48650945Y-53675500D01*
X48809055Y-53675500D01*
X48809057Y-53675500D01*
X48961784Y-53634577D01*
X49098716Y-53555520D01*
X49210520Y-53443716D01*
X49289577Y-53306784D01*
X49330500Y-53154057D01*
X49330500Y-52995943D01*
X49289577Y-52843216D01*
X49264630Y-52800006D01*
X49210524Y-52706290D01*
X49210518Y-52706282D01*
X49098717Y-52594481D01*
X49098709Y-52594475D01*
X48961790Y-52515426D01*
X48961786Y-52515424D01*
X48961784Y-52515423D01*
X48809057Y-52474500D01*
X48650943Y-52474500D01*
X48498216Y-52515423D01*
X48498209Y-52515426D01*
X48372702Y-52587887D01*
X48310703Y-52604500D01*
X48033815Y-52604500D01*
X47983729Y-52593935D01*
X47934991Y-52572415D01*
X47909865Y-52569500D01*
X45550143Y-52569500D01*
X45550117Y-52569502D01*
X45525012Y-52572413D01*
X45525008Y-52572415D01*
X45422235Y-52617793D01*
X45342794Y-52697234D01*
X45297415Y-52800006D01*
X45297415Y-52800008D01*
X45294500Y-52825131D01*
X37974107Y-52825131D01*
X31635368Y-49600008D01*
X21108025Y-44243741D01*
X21057201Y-44195797D01*
X21056868Y-44195223D01*
X21005523Y-44106290D01*
X21005520Y-44106284D01*
X20893716Y-43994480D01*
X20893714Y-43994479D01*
X20893709Y-43994475D01*
X20756790Y-43915426D01*
X20756786Y-43915424D01*
X20756784Y-43915423D01*
X20604057Y-43874500D01*
X20445943Y-43874500D01*
X20293216Y-43915423D01*
X20293209Y-43915426D01*
X20156290Y-43994475D01*
X20156282Y-43994481D01*
X20044481Y-44106282D01*
X20044475Y-44106290D01*
X19965426Y-44243209D01*
X19965423Y-44243216D01*
X19924500Y-44395943D01*
X9500500Y-44395943D01*
X9500500Y-32395943D01*
X19924500Y-32395943D01*
X19924500Y-32554056D01*
X19965423Y-32706783D01*
X19965426Y-32706790D01*
X20044475Y-32843709D01*
X20044479Y-32843714D01*
X20044480Y-32843716D01*
X20156284Y-32955520D01*
X20156286Y-32955521D01*
X20156290Y-32955524D01*
X20293209Y-33034573D01*
X20293216Y-33034577D01*
X20406100Y-33064823D01*
X20464668Y-33100003D01*
X38609721Y-52546392D01*
X38619373Y-52556736D01*
X38623506Y-52563894D01*
X38661554Y-52601942D01*
X38698254Y-52641274D01*
X38705262Y-52645650D01*
X38711106Y-52651494D01*
X38757707Y-52678399D01*
X38759515Y-52679528D01*
X38759516Y-52679529D01*
X38803330Y-52706888D01*
X38803331Y-52706888D01*
X38803334Y-52706890D01*
X38811235Y-52709303D01*
X38818394Y-52713436D01*
X38870367Y-52727361D01*
X38872412Y-52727986D01*
X38872413Y-52727986D01*
X38872414Y-52727987D01*
X38897872Y-52735762D01*
X38921816Y-52743075D01*
X38929200Y-52743329D01*
X38930074Y-52743360D01*
X38938057Y-52745500D01*
X38991851Y-52745500D01*
X39045627Y-52747362D01*
X39045631Y-52747361D01*
X39053716Y-52746581D01*
X39053766Y-52747104D01*
X39067828Y-52745500D01*
X39696185Y-52745500D01*
X39746270Y-52756064D01*
X39795009Y-52777585D01*
X39820135Y-52780500D01*
X42179864Y-52780499D01*
X42179879Y-52780497D01*
X42179882Y-52780497D01*
X42204987Y-52777586D01*
X42204988Y-52777585D01*
X42204991Y-52777585D01*
X42307765Y-52732206D01*
X42387206Y-52652765D01*
X42432585Y-52549991D01*
X42435500Y-52524865D01*
X42435499Y-52025136D01*
X42435497Y-52025117D01*
X42432586Y-52000012D01*
X42432585Y-52000010D01*
X42432585Y-52000009D01*
X42387206Y-51897235D01*
X42307765Y-51817794D01*
X42277657Y-51804500D01*
X42204992Y-51772415D01*
X42179865Y-51769500D01*
X39820143Y-51769500D01*
X39820117Y-51769502D01*
X39795012Y-51772413D01*
X39795010Y-51772414D01*
X39746270Y-51793935D01*
X39696185Y-51804500D01*
X39258388Y-51804500D01*
X39191349Y-51784815D01*
X39167726Y-51765095D01*
X38970810Y-51554057D01*
X38663895Y-51225131D01*
X45294500Y-51225131D01*
X45294500Y-51724856D01*
X45294502Y-51724882D01*
X45297413Y-51749987D01*
X45297415Y-51749991D01*
X45342793Y-51852764D01*
X45342794Y-51852765D01*
X45422235Y-51932206D01*
X45525009Y-51977585D01*
X45550135Y-51980500D01*
X47909864Y-51980499D01*
X47909879Y-51980497D01*
X47909882Y-51980497D01*
X47934987Y-51977586D01*
X47934988Y-51977585D01*
X47934991Y-51977585D01*
X47972824Y-51960879D01*
X47983730Y-51956065D01*
X48033815Y-51945500D01*
X48310703Y-51945500D01*
X48372702Y-51962113D01*
X48498209Y-52034573D01*
X48498216Y-52034577D01*
X48650943Y-52075500D01*
X48650945Y-52075500D01*
X48809055Y-52075500D01*
X48809057Y-52075500D01*
X48961784Y-52034577D01*
X49098716Y-51955520D01*
X49210520Y-51843716D01*
X49289577Y-51706784D01*
X49330500Y-51554057D01*
X49330500Y-51395943D01*
X49289577Y-51243216D01*
X49264630Y-51200006D01*
X49210524Y-51106290D01*
X49210518Y-51106282D01*
X49098717Y-50994481D01*
X49098709Y-50994475D01*
X48961790Y-50915426D01*
X48961786Y-50915424D01*
X48961784Y-50915423D01*
X48809057Y-50874500D01*
X48650943Y-50874500D01*
X48498216Y-50915423D01*
X48498209Y-50915426D01*
X48372702Y-50987887D01*
X48310703Y-51004500D01*
X48033815Y-51004500D01*
X47983729Y-50993935D01*
X47934991Y-50972415D01*
X47909865Y-50969500D01*
X45550143Y-50969500D01*
X45550117Y-50969502D01*
X45525012Y-50972413D01*
X45525008Y-50972415D01*
X45422235Y-51017793D01*
X45342794Y-51097234D01*
X45297415Y-51200006D01*
X45297415Y-51200008D01*
X45294500Y-51225131D01*
X38663895Y-51225131D01*
X37170966Y-49625131D01*
X45294500Y-49625131D01*
X45294500Y-50124856D01*
X45294502Y-50124882D01*
X45297413Y-50149987D01*
X45297415Y-50149991D01*
X45342793Y-50252764D01*
X45342794Y-50252765D01*
X45422235Y-50332206D01*
X45525009Y-50377585D01*
X45550135Y-50380500D01*
X47909864Y-50380499D01*
X47909879Y-50380497D01*
X47909882Y-50380497D01*
X47934987Y-50377586D01*
X47934988Y-50377585D01*
X47934991Y-50377585D01*
X47972824Y-50360879D01*
X47983730Y-50356065D01*
X48033815Y-50345500D01*
X48672617Y-50345500D01*
X48696333Y-50347789D01*
X66708414Y-53857585D01*
X66770451Y-53889728D01*
X66772379Y-53891615D01*
X66836284Y-53955520D01*
X66836286Y-53955521D01*
X66836290Y-53955524D01*
X66973209Y-54034573D01*
X66973216Y-54034577D01*
X67125943Y-54075500D01*
X67125945Y-54075500D01*
X67284055Y-54075500D01*
X67284057Y-54075500D01*
X67436784Y-54034577D01*
X67573716Y-53955520D01*
X67685520Y-53843716D01*
X67764577Y-53706784D01*
X67805500Y-53554057D01*
X67805500Y-53395943D01*
X67764577Y-53243216D01*
X67713101Y-53154056D01*
X67685524Y-53106290D01*
X67685518Y-53106282D01*
X67573717Y-52994481D01*
X67573709Y-52994475D01*
X67436790Y-52915426D01*
X67436786Y-52915424D01*
X67436784Y-52915423D01*
X67284057Y-52874500D01*
X67125943Y-52874500D01*
X66973219Y-52915422D01*
X66973217Y-52915422D01*
X66973216Y-52915423D01*
X66973213Y-52915424D01*
X66973208Y-52915427D01*
X66967980Y-52918445D01*
X66900079Y-52934912D01*
X66882273Y-52932764D01*
X48840239Y-49417132D01*
X48836010Y-49416308D01*
X48791943Y-49404500D01*
X48775411Y-49404500D01*
X48763662Y-49402210D01*
X48759189Y-49401339D01*
X48759188Y-49401339D01*
X48717973Y-49404202D01*
X48709381Y-49404500D01*
X48033815Y-49404500D01*
X47983729Y-49393935D01*
X47934991Y-49372415D01*
X47909865Y-49369500D01*
X45550143Y-49369500D01*
X45550117Y-49369502D01*
X45525012Y-49372413D01*
X45525008Y-49372415D01*
X45422235Y-49417793D01*
X45342794Y-49497234D01*
X45297415Y-49600006D01*
X45297415Y-49600008D01*
X45294500Y-49625131D01*
X37170966Y-49625131D01*
X35678037Y-48025131D01*
X45294500Y-48025131D01*
X45294500Y-48524856D01*
X45294502Y-48524882D01*
X45297413Y-48549987D01*
X45297415Y-48549991D01*
X45342793Y-48652764D01*
X45342794Y-48652765D01*
X45422235Y-48732206D01*
X45525009Y-48777585D01*
X45550135Y-48780500D01*
X47909864Y-48780499D01*
X47909879Y-48780497D01*
X47909882Y-48780497D01*
X47934987Y-48777586D01*
X47934988Y-48777585D01*
X47934991Y-48777585D01*
X47972824Y-48760879D01*
X47983730Y-48756065D01*
X48033815Y-48745500D01*
X48678387Y-48745500D01*
X48688469Y-48747739D01*
X48740176Y-48745500D01*
X48791943Y-48745500D01*
X48791946Y-48745500D01*
X48800005Y-48744439D01*
X48800028Y-48744618D01*
X48815511Y-48742237D01*
X66810492Y-47963023D01*
X66877853Y-47979519D01*
X66973216Y-48034577D01*
X67125943Y-48075500D01*
X67125945Y-48075500D01*
X67284055Y-48075500D01*
X67284057Y-48075500D01*
X67436784Y-48034577D01*
X67573716Y-47955520D01*
X67685520Y-47843716D01*
X67764577Y-47706784D01*
X67805500Y-47554057D01*
X67805500Y-47395943D01*
X67764577Y-47243216D01*
X67764573Y-47243209D01*
X67685524Y-47106290D01*
X67685518Y-47106282D01*
X67573717Y-46994481D01*
X67573709Y-46994475D01*
X67436790Y-46915426D01*
X67436786Y-46915424D01*
X67436784Y-46915423D01*
X67284057Y-46874500D01*
X67125943Y-46874500D01*
X66973216Y-46915423D01*
X66973209Y-46915426D01*
X66836280Y-46994480D01*
X66832033Y-46997740D01*
X66766863Y-47022931D01*
X66761917Y-47023244D01*
X48722493Y-47804384D01*
X48717129Y-47804500D01*
X48033815Y-47804500D01*
X47983729Y-47793935D01*
X47934991Y-47772415D01*
X47909865Y-47769500D01*
X45550143Y-47769500D01*
X45550117Y-47769502D01*
X45525012Y-47772413D01*
X45525008Y-47772415D01*
X45422235Y-47817793D01*
X45342794Y-47897234D01*
X45297415Y-48000006D01*
X45297415Y-48000008D01*
X45294500Y-48025131D01*
X35678037Y-48025131D01*
X34185108Y-46425131D01*
X45294500Y-46425131D01*
X45294500Y-46924856D01*
X45294502Y-46924882D01*
X45297413Y-46949987D01*
X45297415Y-46949991D01*
X45342793Y-47052764D01*
X45342794Y-47052765D01*
X45422235Y-47132206D01*
X45525009Y-47177585D01*
X45550135Y-47180500D01*
X47909864Y-47180499D01*
X47909879Y-47180497D01*
X47909882Y-47180497D01*
X47934987Y-47177586D01*
X47934988Y-47177585D01*
X47934991Y-47177585D01*
X47972824Y-47160879D01*
X47983730Y-47156065D01*
X48033815Y-47145500D01*
X48671063Y-47145500D01*
X48673974Y-47146241D01*
X48732965Y-47145500D01*
X48791943Y-47145500D01*
X48792201Y-47145500D01*
X48794169Y-47145216D01*
X48797842Y-47144685D01*
X48797848Y-47144685D01*
X48853941Y-47128896D01*
X48855302Y-47128521D01*
X48911606Y-47113436D01*
X48911607Y-47113435D01*
X48912470Y-47113204D01*
X48924465Y-47109046D01*
X66930313Y-42041094D01*
X66996000Y-42040682D01*
X67125943Y-42075500D01*
X67125945Y-42075500D01*
X67284055Y-42075500D01*
X67284057Y-42075500D01*
X67436784Y-42034577D01*
X67573716Y-41955520D01*
X67685520Y-41843716D01*
X67764577Y-41706784D01*
X67805500Y-41554057D01*
X67805500Y-41395943D01*
X67764577Y-41243216D01*
X67695986Y-41124411D01*
X67685524Y-41106290D01*
X67685518Y-41106282D01*
X67573717Y-40994481D01*
X67573709Y-40994475D01*
X67436790Y-40915426D01*
X67436786Y-40915424D01*
X67436784Y-40915423D01*
X67284057Y-40874500D01*
X67125943Y-40874500D01*
X66973216Y-40915423D01*
X66973209Y-40915426D01*
X66836290Y-40994475D01*
X66836282Y-40994481D01*
X66726254Y-41104508D01*
X66672170Y-41136188D01*
X48681525Y-46199862D01*
X48647929Y-46204500D01*
X48033815Y-46204500D01*
X47983729Y-46193935D01*
X47934991Y-46172415D01*
X47909865Y-46169500D01*
X45550143Y-46169500D01*
X45550117Y-46169502D01*
X45525012Y-46172413D01*
X45525008Y-46172415D01*
X45422235Y-46217793D01*
X45342794Y-46297234D01*
X45297415Y-46400006D01*
X45297415Y-46400008D01*
X45294500Y-46425131D01*
X34185108Y-46425131D01*
X32692179Y-44825131D01*
X45294500Y-44825131D01*
X45294500Y-45324856D01*
X45294502Y-45324882D01*
X45297413Y-45349987D01*
X45297415Y-45349991D01*
X45342793Y-45452764D01*
X45342794Y-45452765D01*
X45422235Y-45532206D01*
X45525009Y-45577585D01*
X45550135Y-45580500D01*
X47909864Y-45580499D01*
X47909879Y-45580497D01*
X47909882Y-45580497D01*
X47934987Y-45577586D01*
X47934988Y-45577585D01*
X47934991Y-45577585D01*
X47972824Y-45560879D01*
X47983730Y-45556065D01*
X48033815Y-45545500D01*
X48719567Y-45545500D01*
X48771009Y-45547784D01*
X48781348Y-45545500D01*
X48791943Y-45545500D01*
X48839066Y-45532872D01*
X48844376Y-45531576D01*
X48891973Y-45521062D01*
X48891973Y-45521061D01*
X48891977Y-45521061D01*
X48901375Y-45516177D01*
X48911606Y-45513436D01*
X48956210Y-45487684D01*
X67046472Y-36087601D01*
X67115035Y-36074158D01*
X67119835Y-36074695D01*
X67125938Y-36075498D01*
X67125943Y-36075500D01*
X67125948Y-36075500D01*
X67284055Y-36075500D01*
X67284057Y-36075500D01*
X67436784Y-36034577D01*
X67573716Y-35955520D01*
X67685520Y-35843716D01*
X67764577Y-35706784D01*
X67805500Y-35554057D01*
X67805500Y-35395943D01*
X67764577Y-35243216D01*
X67740150Y-35200906D01*
X67685524Y-35106290D01*
X67685518Y-35106282D01*
X67573717Y-34994481D01*
X67573709Y-34994475D01*
X67436790Y-34915426D01*
X67436786Y-34915424D01*
X67436784Y-34915423D01*
X67284057Y-34874500D01*
X67125943Y-34874500D01*
X66973216Y-34915423D01*
X66973209Y-34915426D01*
X66836290Y-34994475D01*
X66836282Y-34994481D01*
X66724481Y-35106282D01*
X66724477Y-35106287D01*
X66669850Y-35200906D01*
X66619638Y-35248938D01*
X48641936Y-44590532D01*
X48584761Y-44604500D01*
X48033815Y-44604500D01*
X47983729Y-44593935D01*
X47976022Y-44590532D01*
X47934991Y-44572415D01*
X47909865Y-44569500D01*
X45550143Y-44569500D01*
X45550117Y-44569502D01*
X45525012Y-44572413D01*
X45525008Y-44572415D01*
X45422235Y-44617793D01*
X45342794Y-44697234D01*
X45297415Y-44800006D01*
X45297415Y-44800008D01*
X45294500Y-44825131D01*
X32692179Y-44825131D01*
X31199250Y-43225131D01*
X45294500Y-43225131D01*
X45294500Y-43724856D01*
X45294502Y-43724882D01*
X45297413Y-43749987D01*
X45297415Y-43749991D01*
X45342793Y-43852764D01*
X45342794Y-43852765D01*
X45422235Y-43932206D01*
X45525009Y-43977585D01*
X45550135Y-43980500D01*
X47909864Y-43980499D01*
X47909879Y-43980497D01*
X47909882Y-43980497D01*
X47934987Y-43977586D01*
X47934988Y-43977585D01*
X47934991Y-43977585D01*
X47972824Y-43960879D01*
X47983730Y-43956065D01*
X48033815Y-43945500D01*
X48697731Y-43945500D01*
X48727135Y-43949552D01*
X48759415Y-43945500D01*
X48791943Y-43945500D01*
X48820612Y-43937818D01*
X48850056Y-43934122D01*
X48880181Y-43921856D01*
X48911606Y-43913436D01*
X48937308Y-43898596D01*
X48964794Y-43887406D01*
X48990718Y-43867761D01*
X49018894Y-43851494D01*
X49033878Y-43836508D01*
X49046646Y-43825378D01*
X64085922Y-32428906D01*
X67158363Y-30100670D01*
X67223683Y-30075870D01*
X67233254Y-30075500D01*
X67284055Y-30075500D01*
X67284057Y-30075500D01*
X67436784Y-30034577D01*
X67573716Y-29955520D01*
X67685520Y-29843716D01*
X67764577Y-29706784D01*
X67805500Y-29554057D01*
X67805500Y-29395943D01*
X67764577Y-29243216D01*
X67764573Y-29243209D01*
X67685524Y-29106290D01*
X67685518Y-29106282D01*
X67573717Y-28994481D01*
X67573709Y-28994475D01*
X67436790Y-28915426D01*
X67436786Y-28915424D01*
X67436784Y-28915423D01*
X67284057Y-28874500D01*
X67125943Y-28874500D01*
X66973216Y-28915423D01*
X66973209Y-28915426D01*
X66836290Y-28994475D01*
X66836282Y-28994481D01*
X66724481Y-29106282D01*
X66724475Y-29106290D01*
X66645426Y-29243209D01*
X66645421Y-29243219D01*
X66634404Y-29284334D01*
X66598037Y-29343994D01*
X66589521Y-29351067D01*
X48605084Y-42979330D01*
X48539764Y-43004130D01*
X48530193Y-43004500D01*
X48033815Y-43004500D01*
X47983729Y-42993935D01*
X47934991Y-42972415D01*
X47909865Y-42969500D01*
X45550143Y-42969500D01*
X45550117Y-42969502D01*
X45525012Y-42972413D01*
X45525008Y-42972415D01*
X45422235Y-43017793D01*
X45342794Y-43097234D01*
X45297415Y-43200006D01*
X45297415Y-43200008D01*
X45294500Y-43225131D01*
X31199250Y-43225131D01*
X29782515Y-41706790D01*
X29781917Y-41706149D01*
X29706321Y-41625131D01*
X39564500Y-41625131D01*
X39564500Y-42124856D01*
X39564502Y-42124882D01*
X39567413Y-42149987D01*
X39567415Y-42149991D01*
X39600496Y-42224913D01*
X39609568Y-42294191D01*
X39600497Y-42325085D01*
X39567415Y-42400009D01*
X39564500Y-42425131D01*
X39564500Y-42924856D01*
X39564502Y-42924882D01*
X39567413Y-42949987D01*
X39567415Y-42949991D01*
X39612793Y-43052764D01*
X39612794Y-43052765D01*
X39692235Y-43132206D01*
X39795009Y-43177585D01*
X39820135Y-43180500D01*
X42179864Y-43180499D01*
X42179879Y-43180497D01*
X42179882Y-43180497D01*
X42204987Y-43177586D01*
X42204988Y-43177585D01*
X42204991Y-43177585D01*
X42307765Y-43132206D01*
X42387206Y-43052765D01*
X42432585Y-42949991D01*
X42435500Y-42924865D01*
X42435499Y-42425136D01*
X42435497Y-42425117D01*
X42432586Y-42400012D01*
X42432585Y-42400011D01*
X42432585Y-42400009D01*
X42399502Y-42325084D01*
X42390431Y-42255809D01*
X42399501Y-42224918D01*
X42432585Y-42149991D01*
X42435500Y-42124865D01*
X42435499Y-41625136D01*
X42435499Y-41625135D01*
X42435499Y-41625131D01*
X45294500Y-41625131D01*
X45294500Y-42124856D01*
X45294502Y-42124882D01*
X45297413Y-42149987D01*
X45297415Y-42149991D01*
X45342793Y-42252764D01*
X45342794Y-42252765D01*
X45422235Y-42332206D01*
X45525009Y-42377585D01*
X45550135Y-42380500D01*
X47909864Y-42380499D01*
X47909879Y-42380497D01*
X47909882Y-42380497D01*
X47934987Y-42377586D01*
X47934988Y-42377585D01*
X47934991Y-42377585D01*
X47972824Y-42360879D01*
X47983730Y-42356065D01*
X48033815Y-42345500D01*
X48729535Y-42345500D01*
X48790985Y-42345625D01*
X48791455Y-42345500D01*
X48791943Y-42345500D01*
X48791944Y-42345500D01*
X48851472Y-42329548D01*
X48851487Y-42329544D01*
X48910714Y-42313804D01*
X48911115Y-42313572D01*
X48911562Y-42313453D01*
X48911597Y-42313438D01*
X48911606Y-42313436D01*
X48964939Y-42282644D01*
X49018127Y-42252081D01*
X49018133Y-42252074D01*
X49018883Y-42251499D01*
X49018894Y-42251494D01*
X49062467Y-42207920D01*
X67239736Y-24104442D01*
X67295139Y-24072530D01*
X67436784Y-24034577D01*
X67573716Y-23955520D01*
X67685520Y-23843716D01*
X67764577Y-23706784D01*
X67805500Y-23554057D01*
X67805500Y-23395943D01*
X67764577Y-23243216D01*
X67764573Y-23243209D01*
X67685524Y-23106290D01*
X67685518Y-23106282D01*
X67573717Y-22994481D01*
X67573709Y-22994475D01*
X67436790Y-22915426D01*
X67436786Y-22915424D01*
X67436784Y-22915423D01*
X67284057Y-22874500D01*
X67125943Y-22874500D01*
X66973216Y-22915423D01*
X66973209Y-22915426D01*
X66836290Y-22994475D01*
X66836282Y-22994481D01*
X66724481Y-23106282D01*
X66724475Y-23106290D01*
X66645426Y-23243209D01*
X66645423Y-23243214D01*
X66608354Y-23381560D01*
X66576082Y-23437325D01*
X48571960Y-41368359D01*
X48510569Y-41401720D01*
X48484457Y-41404500D01*
X48033815Y-41404500D01*
X47983729Y-41393935D01*
X47934991Y-41372415D01*
X47909865Y-41369500D01*
X45550143Y-41369500D01*
X45550117Y-41369502D01*
X45525012Y-41372413D01*
X45525008Y-41372415D01*
X45422235Y-41417793D01*
X45342794Y-41497234D01*
X45297415Y-41600006D01*
X45297415Y-41600008D01*
X45294500Y-41625131D01*
X42435499Y-41625131D01*
X42435499Y-41625130D01*
X42432586Y-41600012D01*
X42432585Y-41600010D01*
X42432585Y-41600009D01*
X42387206Y-41497235D01*
X42307765Y-41417794D01*
X42258282Y-41395945D01*
X42204992Y-41372415D01*
X42179865Y-41369500D01*
X39820143Y-41369500D01*
X39820117Y-41369502D01*
X39795012Y-41372413D01*
X39795008Y-41372415D01*
X39692235Y-41417793D01*
X39612794Y-41497234D01*
X39567415Y-41600006D01*
X39567415Y-41600008D01*
X39564500Y-41625131D01*
X29706321Y-41625131D01*
X29512858Y-41417794D01*
X27569529Y-39335092D01*
X45774500Y-39335092D01*
X45774500Y-39484907D01*
X45803723Y-39631822D01*
X45803725Y-39631830D01*
X45861051Y-39770229D01*
X45861056Y-39770238D01*
X45944280Y-39894790D01*
X45944283Y-39894794D01*
X46050205Y-40000716D01*
X46050209Y-40000719D01*
X46174761Y-40083943D01*
X46174767Y-40083946D01*
X46174768Y-40083947D01*
X46313170Y-40141275D01*
X46460092Y-40170499D01*
X46460096Y-40170500D01*
X46460097Y-40170500D01*
X46609904Y-40170500D01*
X46609905Y-40170499D01*
X46756830Y-40141275D01*
X46895232Y-40083947D01*
X47019791Y-40000719D01*
X47125719Y-39894791D01*
X47208947Y-39770232D01*
X47266275Y-39631830D01*
X47295500Y-39484903D01*
X47295500Y-39335097D01*
X47266275Y-39188170D01*
X47208947Y-39049768D01*
X47208946Y-39049767D01*
X47208943Y-39049761D01*
X47125719Y-38925209D01*
X47125716Y-38925205D01*
X47019794Y-38819283D01*
X47019790Y-38819280D01*
X46895238Y-38736056D01*
X46895229Y-38736051D01*
X46756830Y-38678725D01*
X46756822Y-38678723D01*
X46609907Y-38649500D01*
X46609903Y-38649500D01*
X46460097Y-38649500D01*
X46460092Y-38649500D01*
X46313177Y-38678723D01*
X46313169Y-38678725D01*
X46174770Y-38736051D01*
X46174761Y-38736056D01*
X46050209Y-38819280D01*
X46050205Y-38819283D01*
X45944283Y-38925205D01*
X45944280Y-38925209D01*
X45861056Y-39049761D01*
X45861051Y-39049770D01*
X45803725Y-39188169D01*
X45803723Y-39188177D01*
X45774500Y-39335092D01*
X27569529Y-39335092D01*
X21157644Y-32463355D01*
X21127730Y-32403758D01*
X21127603Y-32403793D01*
X21127437Y-32403177D01*
X21126301Y-32400912D01*
X21125557Y-32396158D01*
X21125500Y-32395945D01*
X21125500Y-32395943D01*
X21084577Y-32243216D01*
X21084573Y-32243209D01*
X21005524Y-32106290D01*
X21005518Y-32106282D01*
X20893717Y-31994481D01*
X20893709Y-31994475D01*
X20756790Y-31915426D01*
X20756786Y-31915424D01*
X20756784Y-31915423D01*
X20604057Y-31874500D01*
X20445943Y-31874500D01*
X20293216Y-31915423D01*
X20293209Y-31915426D01*
X20156290Y-31994475D01*
X20156282Y-31994481D01*
X20044481Y-32106282D01*
X20044475Y-32106290D01*
X19965426Y-32243209D01*
X19965423Y-32243216D01*
X19924500Y-32395943D01*
X9500500Y-32395943D01*
X9500500Y-14878711D01*
X14674500Y-14878711D01*
X14674500Y-15121288D01*
X14706161Y-15361785D01*
X14768947Y-15596104D01*
X14861773Y-15820205D01*
X14861776Y-15820212D01*
X14983064Y-16030289D01*
X14983066Y-16030292D01*
X14983067Y-16030293D01*
X15130733Y-16222736D01*
X15130739Y-16222743D01*
X15302256Y-16394260D01*
X15302262Y-16394265D01*
X15494711Y-16541936D01*
X15704788Y-16663224D01*
X15928900Y-16756054D01*
X16163211Y-16818838D01*
X16343586Y-16842584D01*
X16403711Y-16850500D01*
X16403712Y-16850500D01*
X16646289Y-16850500D01*
X16694388Y-16844167D01*
X16886789Y-16818838D01*
X17121100Y-16756054D01*
X17345212Y-16663224D01*
X17555289Y-16541936D01*
X17747738Y-16394265D01*
X17919265Y-16222738D01*
X18066936Y-16030289D01*
X18188224Y-15820212D01*
X18281054Y-15596100D01*
X18343838Y-15361789D01*
X18375500Y-15121288D01*
X18375500Y-14878712D01*
X18375500Y-14878711D01*
X69354500Y-14878711D01*
X69354500Y-15121288D01*
X69386161Y-15361785D01*
X69448947Y-15596104D01*
X69541773Y-15820205D01*
X69541776Y-15820212D01*
X69663064Y-16030289D01*
X69663066Y-16030292D01*
X69663067Y-16030293D01*
X69810733Y-16222736D01*
X69810739Y-16222743D01*
X69982256Y-16394260D01*
X69982262Y-16394265D01*
X70174711Y-16541936D01*
X70384788Y-16663224D01*
X70608900Y-16756054D01*
X70843211Y-16818838D01*
X71023586Y-16842584D01*
X71083711Y-16850500D01*
X71083712Y-16850500D01*
X71326289Y-16850500D01*
X71374388Y-16844167D01*
X71566789Y-16818838D01*
X71801100Y-16756054D01*
X72025212Y-16663224D01*
X72235289Y-16541936D01*
X72427738Y-16394265D01*
X72599265Y-16222738D01*
X72746936Y-16030289D01*
X72868224Y-15820212D01*
X72961054Y-15596100D01*
X73023838Y-15361789D01*
X73055500Y-15121288D01*
X73055500Y-14878712D01*
X73023838Y-14638211D01*
X72961054Y-14403900D01*
X72868224Y-14179788D01*
X72746936Y-13969711D01*
X72599265Y-13777262D01*
X72599260Y-13777256D01*
X72427743Y-13605739D01*
X72427736Y-13605733D01*
X72235293Y-13458067D01*
X72235292Y-13458066D01*
X72235289Y-13458064D01*
X72025212Y-13336776D01*
X72025205Y-13336773D01*
X71801104Y-13243947D01*
X71566785Y-13181161D01*
X71326289Y-13149500D01*
X71326288Y-13149500D01*
X71083712Y-13149500D01*
X71083711Y-13149500D01*
X70843214Y-13181161D01*
X70608895Y-13243947D01*
X70384794Y-13336773D01*
X70384785Y-13336777D01*
X70174706Y-13458067D01*
X69982263Y-13605733D01*
X69982256Y-13605739D01*
X69810739Y-13777256D01*
X69810733Y-13777263D01*
X69663067Y-13969706D01*
X69541777Y-14179785D01*
X69541773Y-14179794D01*
X69448947Y-14403895D01*
X69386161Y-14638214D01*
X69354500Y-14878711D01*
X18375500Y-14878711D01*
X18343838Y-14638211D01*
X18281054Y-14403900D01*
X18188224Y-14179788D01*
X18066936Y-13969711D01*
X17919265Y-13777262D01*
X17919260Y-13777256D01*
X17747743Y-13605739D01*
X17747736Y-13605733D01*
X17555293Y-13458067D01*
X17555292Y-13458066D01*
X17555289Y-13458064D01*
X17345212Y-13336776D01*
X17345205Y-13336773D01*
X17121104Y-13243947D01*
X16886785Y-13181161D01*
X16646289Y-13149500D01*
X16646288Y-13149500D01*
X16403712Y-13149500D01*
X16403711Y-13149500D01*
X16163214Y-13181161D01*
X15928895Y-13243947D01*
X15704794Y-13336773D01*
X15704785Y-13336777D01*
X15494706Y-13458067D01*
X15302263Y-13605733D01*
X15302256Y-13605739D01*
X15130739Y-13777256D01*
X15130733Y-13777263D01*
X14983067Y-13969706D01*
X14861777Y-14179785D01*
X14861773Y-14179794D01*
X14768947Y-14403895D01*
X14706161Y-14638214D01*
X14674500Y-14878711D01*
X9500500Y-14878711D01*
X9500500Y-10624500D01*
X9520185Y-10557461D01*
X9572989Y-10511706D01*
X9624500Y-10500500D01*
X78105500Y-10500500D01*
X78172539Y-10520185D01*
G37*
%TD.AperFunction*%
%TD*%
M02*
