%TF.GenerationSoftware,KiCad,Pcbnew,10.0.3*%
%TF.CreationDate,2026-06-17T00:20:38-04:00*%
%TF.ProjectId,board-C-ufl,626f6172-642d-4432-9d75-666c2e6b6963,rev?*%
%TF.SameCoordinates,Original*%
%TF.FileFunction,Paste,Top*%
%TF.FilePolarity,Positive*%
%FSLAX46Y46*%
G04 Gerber Fmt 4.6, Leading zero omitted, Abs format (unit mm)*
G04 Created by KiCad (PCBNEW 10.0.3) date 2026-06-17 00:20:38*
%MOMM*%
%LPD*%
G01*
G04 APERTURE LIST*
G04 Aperture macros list*
%AMRoundRect*
0 Rectangle with rounded corners*
0 $1 Rounding radius*
0 $2 $3 $4 $5 $6 $7 $8 $9 X,Y pos of 4 corners*
0 Add a 4 corners polygon primitive as box body*
4,1,4,$2,$3,$4,$5,$6,$7,$8,$9,$2,$3,0*
0 Add four circle primitives for the rounded corners*
1,1,$1+$1,$2,$3*
1,1,$1+$1,$4,$5*
1,1,$1+$1,$6,$7*
1,1,$1+$1,$8,$9*
0 Add four rect primitives between the rounded corners*
20,1,$1+$1,$2,$3,$4,$5,0*
20,1,$1+$1,$4,$5,$6,$7,0*
20,1,$1+$1,$6,$7,$8,$9,0*
20,1,$1+$1,$8,$9,$2,$3,0*%
G04 Aperture macros list end*
%ADD10RoundRect,0.250000X0.275000X0.250000X-0.275000X0.250000X-0.275000X-0.250000X0.275000X-0.250000X0*%
%ADD11RoundRect,0.250000X0.850000X0.275000X-0.850000X0.275000X-0.850000X-0.275000X0.850000X-0.275000X0*%
%ADD12RoundRect,0.250000X-0.275000X-0.250000X0.275000X-0.250000X0.275000X0.250000X-0.275000X0.250000X0*%
%ADD13RoundRect,0.250000X-0.850000X-0.275000X0.850000X-0.275000X0.850000X0.275000X-0.850000X0.275000X0*%
%ADD14R,2.270000X0.410000*%
%ADD15R,0.430000X2.540000*%
%ADD16R,0.430000X4.700000*%
G04 APERTURE END LIST*
D10*
%TO.C,K18*%
X16525000Y-35475000D03*
D11*
X15000000Y-36950000D03*
X15000000Y-34000000D03*
%TD*%
D10*
%TO.C,K20*%
X16525000Y-47475000D03*
D11*
X15000000Y-48950000D03*
X15000000Y-46000000D03*
%TD*%
D12*
%TO.C,K12*%
X71205000Y-56475000D03*
D13*
X72730000Y-55000000D03*
X72730000Y-57950000D03*
%TD*%
D12*
%TO.C,K1*%
X71205000Y-92475000D03*
D13*
X72730000Y-91000000D03*
X72730000Y-93950000D03*
%TD*%
D14*
%TO.C,J5*%
X46730000Y-77075000D03*
X41000000Y-77075000D03*
X46730000Y-76275000D03*
X41000000Y-76275000D03*
X46730000Y-75475000D03*
X41000000Y-75475000D03*
X46730000Y-74675000D03*
X41000000Y-74675000D03*
X46730000Y-73875000D03*
X41000000Y-73875000D03*
X46730000Y-73075000D03*
X41000000Y-73075000D03*
X46730000Y-72275000D03*
X41000000Y-72275000D03*
X46730000Y-71475000D03*
X41000000Y-71475000D03*
X46730000Y-70675000D03*
X41000000Y-70675000D03*
X46730000Y-69875000D03*
X41000000Y-69875000D03*
X46730000Y-69075000D03*
X41000000Y-69075000D03*
X46730000Y-68275000D03*
X41000000Y-68275000D03*
X46730000Y-67475000D03*
X41000000Y-67475000D03*
X46730000Y-66675000D03*
X41000000Y-66675000D03*
X46730000Y-65875000D03*
X41000000Y-65875000D03*
X46730000Y-65075000D03*
X41000000Y-65075000D03*
X46730000Y-64275000D03*
X41000000Y-64275000D03*
X46730000Y-63475000D03*
X41000000Y-63475000D03*
X46730000Y-62675000D03*
X41000000Y-62675000D03*
X46730000Y-61875000D03*
X41000000Y-61875000D03*
X46730000Y-57075000D03*
X41000000Y-57075000D03*
X46730000Y-56275000D03*
X41000000Y-56275000D03*
X46730000Y-55475000D03*
X41000000Y-55475000D03*
X46730000Y-54675000D03*
X41000000Y-54675000D03*
X46730000Y-53875000D03*
X41000000Y-53875000D03*
X46730000Y-53075000D03*
X41000000Y-53075000D03*
X46730000Y-52275000D03*
X41000000Y-52275000D03*
X46730000Y-51475000D03*
X41000000Y-51475000D03*
X46730000Y-50675000D03*
X41000000Y-50675000D03*
X46730000Y-49875000D03*
X41000000Y-49875000D03*
X46730000Y-49075000D03*
X41000000Y-49075000D03*
X46730000Y-48275000D03*
X41000000Y-48275000D03*
X46730000Y-47475000D03*
X41000000Y-47475000D03*
X46730000Y-46675000D03*
X41000000Y-46675000D03*
X46730000Y-45875000D03*
X41000000Y-45875000D03*
X46730000Y-45075000D03*
X41000000Y-45075000D03*
X46730000Y-44275000D03*
X41000000Y-44275000D03*
X46730000Y-43475000D03*
X41000000Y-43475000D03*
X46730000Y-42675000D03*
X41000000Y-42675000D03*
X46730000Y-41875000D03*
X41000000Y-41875000D03*
D15*
X43865000Y-77540000D03*
D16*
X43865000Y-72650000D03*
X43865000Y-66300000D03*
D15*
X43865000Y-61410000D03*
X43865000Y-57540000D03*
D16*
X43865000Y-52650000D03*
X43865000Y-46300000D03*
D15*
X43865000Y-41410000D03*
%TD*%
D10*
%TO.C,K7*%
X16525000Y-95475000D03*
D11*
X15000000Y-96950000D03*
X15000000Y-94000000D03*
%TD*%
D10*
%TO.C,K5*%
X16525000Y-83475000D03*
D11*
X15000000Y-84950000D03*
X15000000Y-82000000D03*
%TD*%
D12*
%TO.C,K14*%
X71205000Y-44475000D03*
D13*
X72730000Y-43000000D03*
X72730000Y-45950000D03*
%TD*%
D12*
%TO.C,K0*%
X71205000Y-80475000D03*
D13*
X72730000Y-79000000D03*
X72730000Y-81950000D03*
%TD*%
D12*
%TO.C,K9*%
X71205000Y-74475000D03*
D13*
X72730000Y-73000000D03*
X72730000Y-75950000D03*
%TD*%
D10*
%TO.C,K19*%
X16525000Y-41475000D03*
D11*
X15000000Y-42950000D03*
X15000000Y-40000000D03*
%TD*%
D12*
%TO.C,K13*%
X71205000Y-50475000D03*
D13*
X72730000Y-49000000D03*
X72730000Y-51950000D03*
%TD*%
D12*
%TO.C,K8*%
X71205000Y-86475000D03*
D13*
X72730000Y-85000000D03*
X72730000Y-87950000D03*
%TD*%
D12*
%TO.C,K15*%
X71205000Y-32475000D03*
D13*
X72730000Y-31000000D03*
X72730000Y-33950000D03*
%TD*%
D12*
%TO.C,K11*%
X71205000Y-62475000D03*
D13*
X72730000Y-61000000D03*
X72730000Y-63950000D03*
%TD*%
D10*
%TO.C,K17*%
X16525000Y-29475000D03*
D11*
X15000000Y-30950000D03*
X15000000Y-28000000D03*
%TD*%
D12*
%TO.C,K23*%
X71205000Y-38475000D03*
D13*
X72730000Y-37000000D03*
X72730000Y-39950000D03*
%TD*%
D10*
%TO.C,K6*%
X16525000Y-89475000D03*
D11*
X15000000Y-90950000D03*
X15000000Y-88000000D03*
%TD*%
D10*
%TO.C,K4*%
X16525000Y-77475000D03*
D11*
X15000000Y-78950000D03*
X15000000Y-76000000D03*
%TD*%
D10*
%TO.C,IV*%
X16525000Y-59475000D03*
D11*
X15000000Y-60950000D03*
X15000000Y-58000000D03*
%TD*%
D10*
%TO.C,K21*%
X16525000Y-53475000D03*
D11*
X15000000Y-54950000D03*
X15000000Y-52000000D03*
%TD*%
D10*
%TO.C,K16*%
X16525000Y-23475000D03*
D11*
X15000000Y-24950000D03*
X15000000Y-22000000D03*
%TD*%
D12*
%TO.C,K22*%
X71205000Y-26475000D03*
D13*
X72730000Y-25000000D03*
X72730000Y-27950000D03*
%TD*%
D10*
%TO.C,K3*%
X16525000Y-71475000D03*
D11*
X15000000Y-72950000D03*
X15000000Y-70000000D03*
%TD*%
D12*
%TO.C,K10*%
X71205000Y-68475000D03*
D13*
X72730000Y-67000000D03*
X72730000Y-69950000D03*
%TD*%
D10*
%TO.C,K2*%
X16525000Y-65475000D03*
D11*
X15000000Y-66950000D03*
X15000000Y-64000000D03*
%TD*%
M02*
