%TF.GenerationSoftware,KiCad,Pcbnew,10.0.3*%
%TF.CreationDate,2026-06-24T00:17:43-04:00*%
%TF.ProjectId,board-C-ufl,626f6172-642d-4432-9d75-666c2e6b6963,rev?*%
%TF.SameCoordinates,Original*%
%TF.FileFunction,Paste,Top*%
%TF.FilePolarity,Positive*%
%FSLAX46Y46*%
G04 Gerber Fmt 4.6, Leading zero omitted, Abs format (unit mm)*
G04 Created by KiCad (PCBNEW 10.0.3) date 2026-06-24 00:17:43*
%MOMM*%
%LPD*%
G01*
G04 APERTURE LIST*
G04 Aperture macros list*
%AMRoundRect*
0 Rectangle with rounded corners*
0 $1 Rounding radius*
0 $2 $3 $4 $5 $6 $7 $8 $9 X,Y pos of 4 corners*
0 Add a 4 corners polygon primitive as box body*
4,1,4,$2,$3,$4,$5,$6,$7,$8,$9,$2,$3,0*
0 Add four circle primitives for the rounded corners*
1,1,$1+$1,$2,$3*
1,1,$1+$1,$4,$5*
1,1,$1+$1,$6,$7*
1,1,$1+$1,$8,$9*
0 Add four rect primitives between the rounded corners*
20,1,$1+$1,$2,$3,$4,$5,0*
20,1,$1+$1,$4,$5,$6,$7,0*
20,1,$1+$1,$6,$7,$8,$9,0*
20,1,$1+$1,$8,$9,$2,$3,0*%
G04 Aperture macros list end*
%ADD10RoundRect,0.250000X-0.275000X-0.250000X0.275000X-0.250000X0.275000X0.250000X-0.275000X0.250000X0*%
%ADD11RoundRect,0.250000X-0.850000X-0.275000X0.850000X-0.275000X0.850000X0.275000X-0.850000X0.275000X0*%
%ADD12RoundRect,0.250000X0.275000X0.250000X-0.275000X0.250000X-0.275000X-0.250000X0.275000X-0.250000X0*%
%ADD13RoundRect,0.250000X0.850000X0.275000X-0.850000X0.275000X-0.850000X-0.275000X0.850000X-0.275000X0*%
G04 APERTURE END LIST*
D10*
%TO.C,K6*%
X71205000Y-89475000D03*
D11*
X72730000Y-88000000D03*
X72730000Y-90950000D03*
%TD*%
D10*
%TO.C,K17*%
X71205000Y-29475000D03*
D11*
X72730000Y-28000000D03*
X72730000Y-30950000D03*
%TD*%
D12*
%TO.C,K11*%
X16525000Y-62475000D03*
D13*
X15000000Y-63950000D03*
X15000000Y-61000000D03*
%TD*%
D10*
%TO.C,K16*%
X71205000Y-23475000D03*
D11*
X72730000Y-22000000D03*
X72730000Y-24950000D03*
%TD*%
D12*
%TO.C,K23*%
X16525000Y-38475000D03*
D13*
X15000000Y-39950000D03*
X15000000Y-37000000D03*
%TD*%
D10*
%TO.C,K3*%
X71205000Y-71475000D03*
D11*
X72730000Y-70000000D03*
X72730000Y-72950000D03*
%TD*%
D12*
%TO.C,K14*%
X16525000Y-44475000D03*
D13*
X15000000Y-45950000D03*
X15000000Y-43000000D03*
%TD*%
D12*
%TO.C,K12*%
X16525000Y-56475000D03*
D13*
X15000000Y-57950000D03*
X15000000Y-55000000D03*
%TD*%
D10*
%TO.C,K21*%
X71205000Y-53475000D03*
D11*
X72730000Y-52000000D03*
X72730000Y-54950000D03*
%TD*%
D10*
%TO.C,K20*%
X71205000Y-47475000D03*
D11*
X72730000Y-46000000D03*
X72730000Y-48950000D03*
%TD*%
D12*
%TO.C,K8*%
X16525000Y-86475000D03*
D13*
X15000000Y-87950000D03*
X15000000Y-85000000D03*
%TD*%
D12*
%TO.C,K0*%
X16525000Y-80475000D03*
D13*
X15000000Y-81950000D03*
X15000000Y-79000000D03*
%TD*%
D12*
%TO.C,K1*%
X16525000Y-92475000D03*
D13*
X15000000Y-93950000D03*
X15000000Y-91000000D03*
%TD*%
D10*
%TO.C,K2*%
X71205000Y-65475000D03*
D11*
X72730000Y-64000000D03*
X72730000Y-66950000D03*
%TD*%
D12*
%TO.C,K13*%
X16525000Y-50475000D03*
D13*
X15000000Y-51950000D03*
X15000000Y-49000000D03*
%TD*%
D12*
%TO.C,K10*%
X16525000Y-68475000D03*
D13*
X15000000Y-69950000D03*
X15000000Y-67000000D03*
%TD*%
D10*
%TO.C,K5*%
X71205000Y-83475000D03*
D11*
X72730000Y-82000000D03*
X72730000Y-84950000D03*
%TD*%
D10*
%TO.C,K18*%
X71205000Y-35475000D03*
D11*
X72730000Y-34000000D03*
X72730000Y-36950000D03*
%TD*%
D10*
%TO.C,K4*%
X71205000Y-77475000D03*
D11*
X72730000Y-76000000D03*
X72730000Y-78950000D03*
%TD*%
D12*
%TO.C,K15*%
X16525000Y-32475000D03*
D13*
X15000000Y-33950000D03*
X15000000Y-31000000D03*
%TD*%
D10*
%TO.C,K7*%
X71205000Y-95475000D03*
D11*
X72730000Y-94000000D03*
X72730000Y-96950000D03*
%TD*%
D12*
%TO.C,K22*%
X16525000Y-26475000D03*
D13*
X15000000Y-27950000D03*
X15000000Y-25000000D03*
%TD*%
D12*
%TO.C,K9*%
X16525000Y-74475000D03*
D13*
X15000000Y-75950000D03*
X15000000Y-73000000D03*
%TD*%
D10*
%TO.C,IV*%
X71205000Y-59475000D03*
D11*
X72730000Y-58000000D03*
X72730000Y-60950000D03*
%TD*%
D10*
%TO.C,K19*%
X71205000Y-41475000D03*
D11*
X72730000Y-40000000D03*
X72730000Y-42950000D03*
%TD*%
M02*
