%TF.GenerationSoftware,KiCad,Pcbnew,10.0.3*%
%TF.CreationDate,2026-06-24T00:17:43-04:00*%
%TF.ProjectId,board-C-ufl,626f6172-642d-4432-9d75-666c2e6b6963,rev?*%
%TF.SameCoordinates,Original*%
%TF.FileFunction,Copper,L1,Top*%
%TF.FilePolarity,Positive*%
%FSLAX46Y46*%
G04 Gerber Fmt 4.6, Leading zero omitted, Abs format (unit mm)*
G04 Created by KiCad (PCBNEW 10.0.3) date 2026-06-24 00:17:43*
%MOMM*%
%LPD*%
G01*
G04 APERTURE LIST*
G04 Aperture macros list*
%AMRoundRect*
0 Rectangle with rounded corners*
0 $1 Rounding radius*
0 $2 $3 $4 $5 $6 $7 $8 $9 X,Y pos of 4 corners*
0 Add a 4 corners polygon primitive as box body*
4,1,4,$2,$3,$4,$5,$6,$7,$8,$9,$2,$3,0*
0 Add four circle primitives for the rounded corners*
1,1,$1+$1,$2,$3*
1,1,$1+$1,$4,$5*
1,1,$1+$1,$6,$7*
1,1,$1+$1,$8,$9*
0 Add four rect primitives between the rounded corners*
20,1,$1+$1,$2,$3,$4,$5,0*
20,1,$1+$1,$4,$5,$6,$7,0*
20,1,$1+$1,$6,$7,$8,$9,0*
20,1,$1+$1,$8,$9,$2,$3,0*%
G04 Aperture macros list end*
%TA.AperFunction,SMDPad,CuDef*%
%ADD10RoundRect,0.250000X-0.275000X-0.250000X0.275000X-0.250000X0.275000X0.250000X-0.275000X0.250000X0*%
%TD*%
%TA.AperFunction,SMDPad,CuDef*%
%ADD11RoundRect,0.250000X-0.850000X-0.275000X0.850000X-0.275000X0.850000X0.275000X-0.850000X0.275000X0*%
%TD*%
%TA.AperFunction,SMDPad,CuDef*%
%ADD12RoundRect,0.250000X0.275000X0.250000X-0.275000X0.250000X-0.275000X-0.250000X0.275000X-0.250000X0*%
%TD*%
%TA.AperFunction,SMDPad,CuDef*%
%ADD13RoundRect,0.250000X0.850000X0.275000X-0.850000X0.275000X-0.850000X-0.275000X0.850000X-0.275000X0*%
%TD*%
%TA.AperFunction,ViaPad*%
%ADD14C,0.600000*%
%TD*%
%TA.AperFunction,Conductor*%
%ADD15C,0.340000*%
%TD*%
G04 APERTURE END LIST*
D10*
%TO.P,K6,1*%
%TO.N,SIPM_K6*%
X71205000Y-89475000D03*
D11*
%TO.P,K6,2*%
%TO.N,GNDA*%
X72730000Y-88000000D03*
X72730000Y-90950000D03*
%TD*%
D10*
%TO.P,K17,1*%
%TO.N,SIPM_K17*%
X71205000Y-29475000D03*
D11*
%TO.P,K17,2*%
%TO.N,GNDA*%
X72730000Y-28000000D03*
X72730000Y-30950000D03*
%TD*%
D12*
%TO.P,K11,1*%
%TO.N,SIPM_K11*%
X16525000Y-62475000D03*
D13*
%TO.P,K11,2*%
%TO.N,GNDA*%
X15000000Y-63950000D03*
X15000000Y-61000000D03*
%TD*%
D10*
%TO.P,K16,1*%
%TO.N,SIPM_K16*%
X71205000Y-23475000D03*
D11*
%TO.P,K16,2*%
%TO.N,GNDA*%
X72730000Y-22000000D03*
X72730000Y-24950000D03*
%TD*%
D12*
%TO.P,K23,1*%
%TO.N,SIPM_K23*%
X16525000Y-38475000D03*
D13*
%TO.P,K23,2*%
%TO.N,GNDA*%
X15000000Y-39950000D03*
X15000000Y-37000000D03*
%TD*%
D10*
%TO.P,K3,1*%
%TO.N,SIPM_K3*%
X71205000Y-71475000D03*
D11*
%TO.P,K3,2*%
%TO.N,GNDA*%
X72730000Y-70000000D03*
X72730000Y-72950000D03*
%TD*%
D12*
%TO.P,K14,1*%
%TO.N,SIPM_K14*%
X16525000Y-44475000D03*
D13*
%TO.P,K14,2*%
%TO.N,GNDA*%
X15000000Y-45950000D03*
X15000000Y-43000000D03*
%TD*%
D12*
%TO.P,K12,1*%
%TO.N,SIPM_K12*%
X16525000Y-56475000D03*
D13*
%TO.P,K12,2*%
%TO.N,GNDA*%
X15000000Y-57950000D03*
X15000000Y-55000000D03*
%TD*%
D10*
%TO.P,K21,1*%
%TO.N,SIPM_K21*%
X71205000Y-53475000D03*
D11*
%TO.P,K21,2*%
%TO.N,GNDA*%
X72730000Y-52000000D03*
X72730000Y-54950000D03*
%TD*%
D10*
%TO.P,K20,1*%
%TO.N,SIPM_K20*%
X71205000Y-47475000D03*
D11*
%TO.P,K20,2*%
%TO.N,GNDA*%
X72730000Y-46000000D03*
X72730000Y-48950000D03*
%TD*%
D12*
%TO.P,K8,1*%
%TO.N,SIPM_K8*%
X16525000Y-86475000D03*
D13*
%TO.P,K8,2*%
%TO.N,GNDA*%
X15000000Y-87950000D03*
X15000000Y-85000000D03*
%TD*%
D12*
%TO.P,K0,1*%
%TO.N,SIPM_K0*%
X16525000Y-80475000D03*
D13*
%TO.P,K0,2*%
%TO.N,GNDA*%
X15000000Y-81950000D03*
X15000000Y-79000000D03*
%TD*%
D12*
%TO.P,K1,1*%
%TO.N,SIPM_K1*%
X16525000Y-92475000D03*
D13*
%TO.P,K1,2*%
%TO.N,GNDA*%
X15000000Y-93950000D03*
X15000000Y-91000000D03*
%TD*%
D10*
%TO.P,K2,1*%
%TO.N,SIPM_K2*%
X71205000Y-65475000D03*
D11*
%TO.P,K2,2*%
%TO.N,GNDA*%
X72730000Y-64000000D03*
X72730000Y-66950000D03*
%TD*%
D12*
%TO.P,K13,1*%
%TO.N,SIPM_K13*%
X16525000Y-50475000D03*
D13*
%TO.P,K13,2*%
%TO.N,GNDA*%
X15000000Y-51950000D03*
X15000000Y-49000000D03*
%TD*%
D12*
%TO.P,K10,1*%
%TO.N,SIPM_K10*%
X16525000Y-68475000D03*
D13*
%TO.P,K10,2*%
%TO.N,GNDA*%
X15000000Y-69950000D03*
X15000000Y-67000000D03*
%TD*%
D10*
%TO.P,K5,1*%
%TO.N,SIPM_K5*%
X71205000Y-83475000D03*
D11*
%TO.P,K5,2*%
%TO.N,GNDA*%
X72730000Y-82000000D03*
X72730000Y-84950000D03*
%TD*%
D10*
%TO.P,K18,1*%
%TO.N,SIPM_K18*%
X71205000Y-35475000D03*
D11*
%TO.P,K18,2*%
%TO.N,GNDA*%
X72730000Y-34000000D03*
X72730000Y-36950000D03*
%TD*%
D10*
%TO.P,K4,1*%
%TO.N,SIPM_K4*%
X71205000Y-77475000D03*
D11*
%TO.P,K4,2*%
%TO.N,GNDA*%
X72730000Y-76000000D03*
X72730000Y-78950000D03*
%TD*%
D12*
%TO.P,K15,1*%
%TO.N,SIPM_K15*%
X16525000Y-32475000D03*
D13*
%TO.P,K15,2*%
%TO.N,GNDA*%
X15000000Y-33950000D03*
X15000000Y-31000000D03*
%TD*%
D10*
%TO.P,K7,1*%
%TO.N,SIPM_K7*%
X71205000Y-95475000D03*
D11*
%TO.P,K7,2*%
%TO.N,GNDA*%
X72730000Y-94000000D03*
X72730000Y-96950000D03*
%TD*%
D12*
%TO.P,K22,1*%
%TO.N,SIPM_K22*%
X16525000Y-26475000D03*
D13*
%TO.P,K22,2*%
%TO.N,GNDA*%
X15000000Y-27950000D03*
X15000000Y-25000000D03*
%TD*%
D12*
%TO.P,K9,1*%
%TO.N,SIPM_K9*%
X16525000Y-74475000D03*
D13*
%TO.P,K9,2*%
%TO.N,GNDA*%
X15000000Y-75950000D03*
X15000000Y-73000000D03*
%TD*%
D10*
%TO.P,IV,1*%
%TO.N,IV*%
X71205000Y-59475000D03*
D11*
%TO.P,IV,2*%
%TO.N,GNDA*%
X72730000Y-58000000D03*
X72730000Y-60950000D03*
%TD*%
D10*
%TO.P,K19,1*%
%TO.N,SIPM_K19*%
X71205000Y-41475000D03*
D11*
%TO.P,K19,2*%
%TO.N,GNDA*%
X72730000Y-40000000D03*
X72730000Y-42950000D03*
%TD*%
D14*
%TO.N,SIPM_K6*%
X67205000Y-89475000D03*
%TO.N,GNDA*%
X53925000Y-12925000D03*
X29925000Y-106025000D03*
X65925000Y-106025000D03*
X47925000Y-106025000D03*
X41925000Y-106025000D03*
X23925000Y-12925000D03*
X23925000Y-106025000D03*
X29925000Y-12925000D03*
X11925000Y-106025000D03*
X53925000Y-106025000D03*
X59925000Y-106025000D03*
X35925000Y-12925000D03*
X35925000Y-106025000D03*
X59925000Y-12925000D03*
X47925000Y-12925000D03*
X41925000Y-12925000D03*
X11925000Y-12925000D03*
X65925000Y-12925000D03*
%TO.N,SIPM_K17*%
X67205000Y-29475000D03*
%TO.N,SIPM_K11*%
X20525000Y-62475000D03*
%TO.N,SIPM_K16*%
X67205000Y-23475000D03*
%TO.N,SIPM_K23*%
X48730000Y-53075000D03*
%TO.N,SIPM_K3*%
X67205000Y-71475000D03*
%TO.N,SIPM_K14*%
X20525000Y-44475000D03*
%TO.N,SIPM_K12*%
X20525000Y-56475000D03*
%TO.N,SIPM_K21*%
X67205000Y-53475000D03*
%TO.N,SIPM_K20*%
X67205000Y-47475000D03*
%TO.N,SIPM_K8*%
X20525000Y-86475000D03*
%TO.N,SIPM_K0*%
X48730000Y-65875000D03*
%TO.N,SIPM_K1*%
X48730000Y-67475000D03*
%TO.N,SIPM_K2*%
X67205000Y-65475000D03*
%TO.N,SIPM_K13*%
X20525000Y-50475000D03*
%TO.N,SIPM_K10*%
X20525000Y-68475000D03*
%TO.N,SIPM_K5*%
X67205000Y-83475000D03*
%TO.N,SIPM_K18*%
X67205000Y-35475000D03*
%TO.N,SIPM_K4*%
X67205000Y-77475000D03*
%TO.N,SIPM_K15*%
X20525000Y-32475000D03*
%TO.N,SIPM_K7*%
X67205000Y-95475000D03*
%TO.N,SIPM_K22*%
X48730000Y-51475000D03*
%TO.N,SIPM_K9*%
X20525000Y-74475000D03*
%TO.N,IV*%
X67205000Y-59475000D03*
%TO.N,SIPM_K19*%
X67205000Y-41475000D03*
%TD*%
%TO.N,SIPM_K6*%
D15*
X67205000Y-89475000D02*
X71205000Y-89475000D01*
%TO.N,SIPM_K17*%
X67205000Y-29475000D02*
X71205000Y-29475000D01*
%TO.N,SIPM_K11*%
X20525000Y-62475000D02*
X16525000Y-62475000D01*
%TO.N,SIPM_K16*%
X67205000Y-23475000D02*
X71205000Y-23475000D01*
%TO.N,SIPM_K23*%
X20525000Y-38475000D02*
X16525000Y-38475000D01*
X48730000Y-53075000D02*
X20525000Y-38475000D01*
%TO.N,SIPM_K3*%
X67205000Y-71475000D02*
X71205000Y-71475000D01*
%TO.N,SIPM_K14*%
X20525000Y-44475000D02*
X16525000Y-44475000D01*
%TO.N,SIPM_K12*%
X20525000Y-56475000D02*
X16525000Y-56475000D01*
%TO.N,SIPM_K21*%
X67205000Y-53475000D02*
X71205000Y-53475000D01*
%TO.N,SIPM_K20*%
X67205000Y-47475000D02*
X71205000Y-47475000D01*
%TO.N,SIPM_K8*%
X20525000Y-86475000D02*
X16525000Y-86475000D01*
%TO.N,SIPM_K0*%
X20525000Y-80475000D02*
X16525000Y-80475000D01*
X48730000Y-65875000D02*
X20525000Y-80475000D01*
%TO.N,SIPM_K1*%
X48730000Y-67475000D02*
X20525000Y-92475000D01*
X20525000Y-92475000D02*
X16525000Y-92475000D01*
%TO.N,SIPM_K2*%
X67205000Y-65475000D02*
X71205000Y-65475000D01*
%TO.N,SIPM_K13*%
X20525000Y-50475000D02*
X16525000Y-50475000D01*
%TO.N,SIPM_K10*%
X20525000Y-68475000D02*
X16525000Y-68475000D01*
%TO.N,SIPM_K5*%
X67205000Y-83475000D02*
X71205000Y-83475000D01*
%TO.N,SIPM_K18*%
X67205000Y-35475000D02*
X71205000Y-35475000D01*
%TO.N,SIPM_K4*%
X67205000Y-77475000D02*
X71205000Y-77475000D01*
%TO.N,SIPM_K15*%
X20525000Y-32475000D02*
X16525000Y-32475000D01*
%TO.N,SIPM_K7*%
X67205000Y-95475000D02*
X71205000Y-95475000D01*
%TO.N,SIPM_K22*%
X48730000Y-51475000D02*
X20525000Y-26475000D01*
X20525000Y-26475000D02*
X16525000Y-26475000D01*
%TO.N,SIPM_K9*%
X20525000Y-74475000D02*
X16525000Y-74475000D01*
%TO.N,IV*%
X67205000Y-59475000D02*
X71205000Y-59475000D01*
%TO.N,SIPM_K19*%
X67205000Y-41475000D02*
X71205000Y-41475000D01*
%TD*%
%TA.AperFunction,Conductor*%
%TO.N,GNDA*%
G36*
X78172539Y-10520185D02*
G01*
X78218294Y-10572989D01*
X78229500Y-10624500D01*
X78229500Y-108325500D01*
X78209815Y-108392539D01*
X78157011Y-108438294D01*
X78105500Y-108449500D01*
X9624500Y-108449500D01*
X9557461Y-108429815D01*
X9511706Y-108377011D01*
X9500500Y-108325500D01*
X9500500Y-103828711D01*
X14674500Y-103828711D01*
X14674500Y-104071288D01*
X14706161Y-104311785D01*
X14768947Y-104546104D01*
X14861773Y-104770205D01*
X14861776Y-104770212D01*
X14983064Y-104980289D01*
X14983066Y-104980292D01*
X14983067Y-104980293D01*
X15130733Y-105172736D01*
X15130739Y-105172743D01*
X15302256Y-105344260D01*
X15302262Y-105344265D01*
X15494711Y-105491936D01*
X15704788Y-105613224D01*
X15928900Y-105706054D01*
X16163211Y-105768838D01*
X16343586Y-105792584D01*
X16403711Y-105800500D01*
X16403712Y-105800500D01*
X16646289Y-105800500D01*
X16694388Y-105794167D01*
X16886789Y-105768838D01*
X17121100Y-105706054D01*
X17345212Y-105613224D01*
X17555289Y-105491936D01*
X17747738Y-105344265D01*
X17919265Y-105172738D01*
X18066936Y-104980289D01*
X18188224Y-104770212D01*
X18281054Y-104546100D01*
X18343838Y-104311789D01*
X18375500Y-104071288D01*
X18375500Y-103828712D01*
X18375500Y-103828711D01*
X69354500Y-103828711D01*
X69354500Y-104071288D01*
X69386161Y-104311785D01*
X69448947Y-104546104D01*
X69541773Y-104770205D01*
X69541776Y-104770212D01*
X69663064Y-104980289D01*
X69663066Y-104980292D01*
X69663067Y-104980293D01*
X69810733Y-105172736D01*
X69810739Y-105172743D01*
X69982256Y-105344260D01*
X69982262Y-105344265D01*
X70174711Y-105491936D01*
X70384788Y-105613224D01*
X70608900Y-105706054D01*
X70843211Y-105768838D01*
X71023586Y-105792584D01*
X71083711Y-105800500D01*
X71083712Y-105800500D01*
X71326289Y-105800500D01*
X71374388Y-105794167D01*
X71566789Y-105768838D01*
X71801100Y-105706054D01*
X72025212Y-105613224D01*
X72235289Y-105491936D01*
X72427738Y-105344265D01*
X72599265Y-105172738D01*
X72746936Y-104980289D01*
X72868224Y-104770212D01*
X72961054Y-104546100D01*
X73023838Y-104311789D01*
X73055500Y-104071288D01*
X73055500Y-103828712D01*
X73023838Y-103588211D01*
X72961054Y-103353900D01*
X72868224Y-103129788D01*
X72746936Y-102919711D01*
X72599265Y-102727262D01*
X72599260Y-102727256D01*
X72427743Y-102555739D01*
X72427736Y-102555733D01*
X72235293Y-102408067D01*
X72235292Y-102408066D01*
X72235289Y-102408064D01*
X72025212Y-102286776D01*
X72025205Y-102286773D01*
X71801104Y-102193947D01*
X71566785Y-102131161D01*
X71326289Y-102099500D01*
X71326288Y-102099500D01*
X71083712Y-102099500D01*
X71083711Y-102099500D01*
X70843214Y-102131161D01*
X70608895Y-102193947D01*
X70384794Y-102286773D01*
X70384785Y-102286777D01*
X70174706Y-102408067D01*
X69982263Y-102555733D01*
X69982256Y-102555739D01*
X69810739Y-102727256D01*
X69810733Y-102727263D01*
X69663067Y-102919706D01*
X69541777Y-103129785D01*
X69541773Y-103129794D01*
X69448947Y-103353895D01*
X69386161Y-103588214D01*
X69354500Y-103828711D01*
X18375500Y-103828711D01*
X18343838Y-103588211D01*
X18281054Y-103353900D01*
X18188224Y-103129788D01*
X18066936Y-102919711D01*
X17919265Y-102727262D01*
X17919260Y-102727256D01*
X17747743Y-102555739D01*
X17747736Y-102555733D01*
X17555293Y-102408067D01*
X17555292Y-102408066D01*
X17555289Y-102408064D01*
X17345212Y-102286776D01*
X17345205Y-102286773D01*
X17121104Y-102193947D01*
X16886785Y-102131161D01*
X16646289Y-102099500D01*
X16646288Y-102099500D01*
X16403712Y-102099500D01*
X16403711Y-102099500D01*
X16163214Y-102131161D01*
X15928895Y-102193947D01*
X15704794Y-102286773D01*
X15704785Y-102286777D01*
X15494706Y-102408067D01*
X15302263Y-102555733D01*
X15302256Y-102555739D01*
X15130739Y-102727256D01*
X15130733Y-102727263D01*
X14983067Y-102919706D01*
X14861777Y-103129785D01*
X14861773Y-103129794D01*
X14768947Y-103353895D01*
X14706161Y-103588214D01*
X14674500Y-103828711D01*
X9500500Y-103828711D01*
X9500500Y-95395943D01*
X66604500Y-95395943D01*
X66604500Y-95554056D01*
X66645423Y-95706783D01*
X66645426Y-95706790D01*
X66724475Y-95843709D01*
X66724479Y-95843714D01*
X66724480Y-95843716D01*
X66836284Y-95955520D01*
X66836286Y-95955521D01*
X66836290Y-95955524D01*
X66853024Y-95965185D01*
X66973216Y-96034577D01*
X67125943Y-96075500D01*
X67125945Y-96075500D01*
X67284055Y-96075500D01*
X67284057Y-96075500D01*
X67436784Y-96034577D01*
X67506072Y-95994574D01*
X67562298Y-95962113D01*
X67624297Y-95945500D01*
X70344736Y-95945500D01*
X70411775Y-95965185D01*
X70443540Y-95994574D01*
X70537079Y-96117923D01*
X70657656Y-96209360D01*
X70657657Y-96209360D01*
X70657658Y-96209361D01*
X70798436Y-96264877D01*
X70886898Y-96275500D01*
X70886903Y-96275500D01*
X71523095Y-96275500D01*
X71523102Y-96275500D01*
X71601218Y-96266119D01*
X71670124Y-96277671D01*
X71721848Y-96324643D01*
X71740000Y-96389235D01*
X71740000Y-96425000D01*
X73830000Y-96425000D01*
X73830000Y-94525000D01*
X71740000Y-94525000D01*
X71740000Y-94560764D01*
X71720315Y-94627803D01*
X71667511Y-94673558D01*
X71601217Y-94683880D01*
X71566682Y-94679733D01*
X71523102Y-94674500D01*
X70886898Y-94674500D01*
X70847853Y-94679188D01*
X70798438Y-94685122D01*
X70657656Y-94740639D01*
X70537079Y-94832076D01*
X70443540Y-94955426D01*
X70387347Y-94996949D01*
X70344736Y-95004500D01*
X67624297Y-95004500D01*
X67562298Y-94987887D01*
X67436790Y-94915426D01*
X67436786Y-94915424D01*
X67436784Y-94915423D01*
X67284057Y-94874500D01*
X67125943Y-94874500D01*
X66973216Y-94915423D01*
X66973209Y-94915426D01*
X66836290Y-94994475D01*
X66836282Y-94994481D01*
X66724481Y-95106282D01*
X66724475Y-95106290D01*
X66645426Y-95243209D01*
X66645423Y-95243216D01*
X66604500Y-95395943D01*
X9500500Y-95395943D01*
X9500500Y-91525000D01*
X13900000Y-91525000D01*
X13900000Y-93425000D01*
X15990000Y-93425000D01*
X15990000Y-93389235D01*
X16009685Y-93322196D01*
X16062489Y-93276441D01*
X16128781Y-93266119D01*
X16206898Y-93275500D01*
X16206905Y-93275500D01*
X16843097Y-93275500D01*
X16843102Y-93275500D01*
X16931564Y-93264877D01*
X17072342Y-93209361D01*
X17192922Y-93117922D01*
X17284361Y-92997342D01*
X17284361Y-92997341D01*
X17286460Y-92994574D01*
X17342653Y-92953051D01*
X17385264Y-92945500D01*
X20510834Y-92945500D01*
X20558539Y-92948374D01*
X20572599Y-92945500D01*
X20586943Y-92945500D01*
X20629535Y-92934086D01*
X20636726Y-92932390D01*
X20679915Y-92923563D01*
X20692750Y-92917148D01*
X20706606Y-92913436D01*
X20747984Y-92889546D01*
X20790732Y-92868184D01*
X20792068Y-92866998D01*
X20812337Y-92852392D01*
X20813894Y-92851494D01*
X20845054Y-92820332D01*
X20850467Y-92815235D01*
X24708113Y-89395943D01*
X66604500Y-89395943D01*
X66604500Y-89554056D01*
X66645423Y-89706783D01*
X66645426Y-89706790D01*
X66724475Y-89843709D01*
X66724479Y-89843714D01*
X66724480Y-89843716D01*
X66836284Y-89955520D01*
X66836286Y-89955521D01*
X66836290Y-89955524D01*
X66853024Y-89965185D01*
X66973216Y-90034577D01*
X67125943Y-90075500D01*
X67125945Y-90075500D01*
X67284055Y-90075500D01*
X67284057Y-90075500D01*
X67436784Y-90034577D01*
X67506072Y-89994574D01*
X67562298Y-89962113D01*
X67624297Y-89945500D01*
X70344736Y-89945500D01*
X70411775Y-89965185D01*
X70443540Y-89994574D01*
X70537079Y-90117923D01*
X70657656Y-90209360D01*
X70657657Y-90209360D01*
X70657658Y-90209361D01*
X70798436Y-90264877D01*
X70886898Y-90275500D01*
X70886903Y-90275500D01*
X71523095Y-90275500D01*
X71523102Y-90275500D01*
X71601218Y-90266119D01*
X71670124Y-90277671D01*
X71721848Y-90324643D01*
X71740000Y-90389235D01*
X71740000Y-90425000D01*
X73830000Y-90425000D01*
X73830000Y-88525000D01*
X71740000Y-88525000D01*
X71740000Y-88560764D01*
X71720315Y-88627803D01*
X71667511Y-88673558D01*
X71601217Y-88683880D01*
X71566682Y-88679733D01*
X71523102Y-88674500D01*
X70886898Y-88674500D01*
X70847853Y-88679188D01*
X70798438Y-88685122D01*
X70657656Y-88740639D01*
X70537079Y-88832076D01*
X70443540Y-88955426D01*
X70387347Y-88996949D01*
X70344736Y-89004500D01*
X67624297Y-89004500D01*
X67562298Y-88987887D01*
X67436790Y-88915426D01*
X67436786Y-88915424D01*
X67436784Y-88915423D01*
X67284057Y-88874500D01*
X67125943Y-88874500D01*
X66973216Y-88915423D01*
X66973209Y-88915426D01*
X66836290Y-88994475D01*
X66836282Y-88994481D01*
X66724481Y-89106282D01*
X66724475Y-89106290D01*
X66645426Y-89243209D01*
X66645423Y-89243216D01*
X66604500Y-89395943D01*
X24708113Y-89395943D01*
X31477313Y-83395943D01*
X66604500Y-83395943D01*
X66604500Y-83554056D01*
X66645423Y-83706783D01*
X66645426Y-83706790D01*
X66724475Y-83843709D01*
X66724479Y-83843714D01*
X66724480Y-83843716D01*
X66836284Y-83955520D01*
X66836286Y-83955521D01*
X66836290Y-83955524D01*
X66853024Y-83965185D01*
X66973216Y-84034577D01*
X67125943Y-84075500D01*
X67125945Y-84075500D01*
X67284055Y-84075500D01*
X67284057Y-84075500D01*
X67436784Y-84034577D01*
X67506072Y-83994574D01*
X67562298Y-83962113D01*
X67624297Y-83945500D01*
X70344736Y-83945500D01*
X70411775Y-83965185D01*
X70443540Y-83994574D01*
X70537079Y-84117923D01*
X70657656Y-84209360D01*
X70657657Y-84209360D01*
X70657658Y-84209361D01*
X70798436Y-84264877D01*
X70886898Y-84275500D01*
X70886903Y-84275500D01*
X71523095Y-84275500D01*
X71523102Y-84275500D01*
X71601218Y-84266119D01*
X71670124Y-84277671D01*
X71721848Y-84324643D01*
X71740000Y-84389235D01*
X71740000Y-84425000D01*
X73830000Y-84425000D01*
X73830000Y-82525000D01*
X71740000Y-82525000D01*
X71740000Y-82560764D01*
X71720315Y-82627803D01*
X71667511Y-82673558D01*
X71601217Y-82683880D01*
X71566682Y-82679733D01*
X71523102Y-82674500D01*
X70886898Y-82674500D01*
X70847853Y-82679188D01*
X70798438Y-82685122D01*
X70657656Y-82740639D01*
X70537079Y-82832076D01*
X70443540Y-82955426D01*
X70387347Y-82996949D01*
X70344736Y-83004500D01*
X67624297Y-83004500D01*
X67562298Y-82987887D01*
X67436790Y-82915426D01*
X67436786Y-82915424D01*
X67436784Y-82915423D01*
X67284057Y-82874500D01*
X67125943Y-82874500D01*
X66973216Y-82915423D01*
X66973209Y-82915426D01*
X66836290Y-82994475D01*
X66836282Y-82994481D01*
X66724481Y-83106282D01*
X66724475Y-83106290D01*
X66645426Y-83243209D01*
X66645423Y-83243216D01*
X66604500Y-83395943D01*
X31477313Y-83395943D01*
X35912100Y-79465092D01*
X45774500Y-79465092D01*
X45774500Y-79614907D01*
X45803723Y-79761822D01*
X45803725Y-79761830D01*
X45861051Y-79900229D01*
X45861056Y-79900238D01*
X45944280Y-80024790D01*
X45944283Y-80024794D01*
X46050205Y-80130716D01*
X46050209Y-80130719D01*
X46174761Y-80213943D01*
X46174767Y-80213946D01*
X46174768Y-80213947D01*
X46313170Y-80271275D01*
X46460092Y-80300499D01*
X46460096Y-80300500D01*
X46460097Y-80300500D01*
X46609904Y-80300500D01*
X46609905Y-80300499D01*
X46756830Y-80271275D01*
X46895232Y-80213947D01*
X47019791Y-80130719D01*
X47125719Y-80024791D01*
X47208947Y-79900232D01*
X47266275Y-79761830D01*
X47295500Y-79614903D01*
X47295500Y-79465097D01*
X47266275Y-79318170D01*
X47208947Y-79179768D01*
X47208946Y-79179767D01*
X47208943Y-79179761D01*
X47125719Y-79055209D01*
X47125716Y-79055205D01*
X47019794Y-78949283D01*
X47019790Y-78949280D01*
X46895238Y-78866056D01*
X46895229Y-78866051D01*
X46756830Y-78808725D01*
X46756822Y-78808723D01*
X46609907Y-78779500D01*
X46609903Y-78779500D01*
X46460097Y-78779500D01*
X46460092Y-78779500D01*
X46313177Y-78808723D01*
X46313169Y-78808725D01*
X46174770Y-78866051D01*
X46174761Y-78866056D01*
X46050209Y-78949280D01*
X46050205Y-78949283D01*
X45944283Y-79055205D01*
X45944280Y-79055209D01*
X45861056Y-79179761D01*
X45861051Y-79179770D01*
X45803725Y-79318169D01*
X45803723Y-79318177D01*
X45774500Y-79465092D01*
X35912100Y-79465092D01*
X38246514Y-77395943D01*
X66604500Y-77395943D01*
X66604500Y-77554056D01*
X66645423Y-77706783D01*
X66645426Y-77706790D01*
X66724475Y-77843709D01*
X66724479Y-77843714D01*
X66724480Y-77843716D01*
X66836284Y-77955520D01*
X66836286Y-77955521D01*
X66836290Y-77955524D01*
X66853024Y-77965185D01*
X66973216Y-78034577D01*
X67125943Y-78075500D01*
X67125945Y-78075500D01*
X67284055Y-78075500D01*
X67284057Y-78075500D01*
X67436784Y-78034577D01*
X67506072Y-77994574D01*
X67562298Y-77962113D01*
X67624297Y-77945500D01*
X70344736Y-77945500D01*
X70411775Y-77965185D01*
X70443540Y-77994574D01*
X70537079Y-78117923D01*
X70657656Y-78209360D01*
X70657657Y-78209360D01*
X70657658Y-78209361D01*
X70798436Y-78264877D01*
X70886898Y-78275500D01*
X70886903Y-78275500D01*
X71523095Y-78275500D01*
X71523102Y-78275500D01*
X71601218Y-78266119D01*
X71670124Y-78277671D01*
X71721848Y-78324643D01*
X71740000Y-78389235D01*
X71740000Y-78425000D01*
X73830000Y-78425000D01*
X73830000Y-76525000D01*
X71740000Y-76525000D01*
X71740000Y-76560764D01*
X71720315Y-76627803D01*
X71667511Y-76673558D01*
X71601217Y-76683880D01*
X71566682Y-76679733D01*
X71523102Y-76674500D01*
X70886898Y-76674500D01*
X70847853Y-76679188D01*
X70798438Y-76685122D01*
X70657656Y-76740639D01*
X70537079Y-76832076D01*
X70443540Y-76955426D01*
X70387347Y-76996949D01*
X70344736Y-77004500D01*
X67624297Y-77004500D01*
X67562298Y-76987887D01*
X67436790Y-76915426D01*
X67436786Y-76915424D01*
X67436784Y-76915423D01*
X67284057Y-76874500D01*
X67125943Y-76874500D01*
X66973216Y-76915423D01*
X66973209Y-76915426D01*
X66836290Y-76994475D01*
X66836282Y-76994481D01*
X66724481Y-77106282D01*
X66724475Y-77106290D01*
X66645426Y-77243209D01*
X66645423Y-77243216D01*
X66604500Y-77395943D01*
X38246514Y-77395943D01*
X45015714Y-71395943D01*
X66604500Y-71395943D01*
X66604500Y-71554056D01*
X66645423Y-71706783D01*
X66645426Y-71706790D01*
X66724475Y-71843709D01*
X66724479Y-71843714D01*
X66724480Y-71843716D01*
X66836284Y-71955520D01*
X66836286Y-71955521D01*
X66836290Y-71955524D01*
X66853024Y-71965185D01*
X66973216Y-72034577D01*
X67125943Y-72075500D01*
X67125945Y-72075500D01*
X67284055Y-72075500D01*
X67284057Y-72075500D01*
X67436784Y-72034577D01*
X67506072Y-71994574D01*
X67562298Y-71962113D01*
X67624297Y-71945500D01*
X70344736Y-71945500D01*
X70411775Y-71965185D01*
X70443540Y-71994574D01*
X70537079Y-72117923D01*
X70657656Y-72209360D01*
X70657657Y-72209360D01*
X70657658Y-72209361D01*
X70798436Y-72264877D01*
X70886898Y-72275500D01*
X70886903Y-72275500D01*
X71523095Y-72275500D01*
X71523102Y-72275500D01*
X71601218Y-72266119D01*
X71670124Y-72277671D01*
X71721848Y-72324643D01*
X71740000Y-72389235D01*
X71740000Y-72425000D01*
X73830000Y-72425000D01*
X73830000Y-70525000D01*
X71740000Y-70525000D01*
X71740000Y-70560764D01*
X71720315Y-70627803D01*
X71667511Y-70673558D01*
X71601217Y-70683880D01*
X71566682Y-70679733D01*
X71523102Y-70674500D01*
X70886898Y-70674500D01*
X70847853Y-70679188D01*
X70798438Y-70685122D01*
X70657656Y-70740639D01*
X70537079Y-70832076D01*
X70443540Y-70955426D01*
X70387347Y-70996949D01*
X70344736Y-71004500D01*
X67624297Y-71004500D01*
X67562298Y-70987887D01*
X67436790Y-70915426D01*
X67436786Y-70915424D01*
X67436784Y-70915423D01*
X67284057Y-70874500D01*
X67125943Y-70874500D01*
X66973216Y-70915423D01*
X66973209Y-70915426D01*
X66836290Y-70994475D01*
X66836282Y-70994481D01*
X66724481Y-71106282D01*
X66724475Y-71106290D01*
X66645426Y-71243209D01*
X66645423Y-71243216D01*
X66604500Y-71395943D01*
X45015714Y-71395943D01*
X47355316Y-69322196D01*
X48726633Y-68106705D01*
X48789858Y-68076968D01*
X48808883Y-68075500D01*
X48809055Y-68075500D01*
X48809057Y-68075500D01*
X48961784Y-68034577D01*
X49098716Y-67955520D01*
X49210520Y-67843716D01*
X49289577Y-67706784D01*
X49330500Y-67554057D01*
X49330500Y-67395943D01*
X49289577Y-67243216D01*
X49289573Y-67243209D01*
X49210524Y-67106290D01*
X49210518Y-67106282D01*
X49098717Y-66994481D01*
X49098709Y-66994475D01*
X48961790Y-66915426D01*
X48961786Y-66915424D01*
X48961784Y-66915423D01*
X48809057Y-66874500D01*
X48650943Y-66874500D01*
X48498216Y-66915423D01*
X48498209Y-66915426D01*
X48361290Y-66994475D01*
X48361282Y-66994481D01*
X48249481Y-67106282D01*
X48249475Y-67106290D01*
X48170426Y-67243209D01*
X48170421Y-67243220D01*
X48145256Y-67337136D01*
X48108891Y-67396796D01*
X48107732Y-67397836D01*
X20381701Y-91973295D01*
X20318476Y-92003032D01*
X20299451Y-92004500D01*
X17385264Y-92004500D01*
X17318225Y-91984815D01*
X17286460Y-91955426D01*
X17192920Y-91832076D01*
X17072343Y-91740639D01*
X16931561Y-91685122D01*
X16885926Y-91679642D01*
X16843102Y-91674500D01*
X16206898Y-91674500D01*
X16163317Y-91679733D01*
X16128783Y-91683880D01*
X16059875Y-91672328D01*
X16008151Y-91625355D01*
X15990000Y-91560764D01*
X15990000Y-91525000D01*
X13900000Y-91525000D01*
X9500500Y-91525000D01*
X9500500Y-87425000D01*
X13900000Y-87425000D01*
X15990000Y-87425000D01*
X15990000Y-87389235D01*
X16009685Y-87322196D01*
X16062489Y-87276441D01*
X16128781Y-87266119D01*
X16206898Y-87275500D01*
X16206905Y-87275500D01*
X16843097Y-87275500D01*
X16843102Y-87275500D01*
X16931564Y-87264877D01*
X17072342Y-87209361D01*
X17192922Y-87117922D01*
X17284361Y-86997342D01*
X17284361Y-86997341D01*
X17286460Y-86994574D01*
X17342653Y-86953051D01*
X17385264Y-86945500D01*
X20105703Y-86945500D01*
X20167702Y-86962113D01*
X20228722Y-86997342D01*
X20293216Y-87034577D01*
X20445943Y-87075500D01*
X20445945Y-87075500D01*
X20604055Y-87075500D01*
X20604057Y-87075500D01*
X20756784Y-87034577D01*
X20893716Y-86955520D01*
X21005520Y-86843716D01*
X21084577Y-86706784D01*
X21125500Y-86554057D01*
X21125500Y-86395943D01*
X21084577Y-86243216D01*
X21084573Y-86243209D01*
X21005524Y-86106290D01*
X21005518Y-86106282D01*
X20893717Y-85994481D01*
X20893709Y-85994475D01*
X20756790Y-85915426D01*
X20756786Y-85915424D01*
X20756784Y-85915423D01*
X20604057Y-85874500D01*
X20445943Y-85874500D01*
X20293216Y-85915423D01*
X20293209Y-85915426D01*
X20167702Y-85987887D01*
X20105703Y-86004500D01*
X17385264Y-86004500D01*
X17318225Y-85984815D01*
X17286460Y-85955426D01*
X17256125Y-85915423D01*
X17192922Y-85832078D01*
X17192920Y-85832077D01*
X17192920Y-85832076D01*
X17072343Y-85740639D01*
X16931561Y-85685122D01*
X16885926Y-85679642D01*
X16843102Y-85674500D01*
X16206898Y-85674500D01*
X16163317Y-85679733D01*
X16128783Y-85683880D01*
X16059875Y-85672328D01*
X16008151Y-85625355D01*
X15990000Y-85560764D01*
X15990000Y-85525000D01*
X13900000Y-85525000D01*
X13900000Y-87425000D01*
X9500500Y-87425000D01*
X9500500Y-79525000D01*
X13900000Y-79525000D01*
X13900000Y-81425000D01*
X15990000Y-81425000D01*
X15990000Y-81389235D01*
X16009685Y-81322196D01*
X16062489Y-81276441D01*
X16128781Y-81266119D01*
X16206898Y-81275500D01*
X16206905Y-81275500D01*
X16843097Y-81275500D01*
X16843102Y-81275500D01*
X16931564Y-81264877D01*
X17072342Y-81209361D01*
X17192922Y-81117922D01*
X17284361Y-80997342D01*
X17284361Y-80997341D01*
X17286460Y-80994574D01*
X17342653Y-80953051D01*
X17385264Y-80945500D01*
X20514193Y-80945500D01*
X20565270Y-80947848D01*
X20575978Y-80945500D01*
X20586943Y-80945500D01*
X20633581Y-80933002D01*
X20639083Y-80931662D01*
X20686280Y-80921314D01*
X20696018Y-80916272D01*
X20706606Y-80913436D01*
X20750882Y-80887873D01*
X48570499Y-66487361D01*
X48639082Y-66474025D01*
X48643690Y-66474544D01*
X48650937Y-66475498D01*
X48650943Y-66475500D01*
X48650949Y-66475500D01*
X48809055Y-66475500D01*
X48809057Y-66475500D01*
X48961784Y-66434577D01*
X49098716Y-66355520D01*
X49210520Y-66243716D01*
X49289577Y-66106784D01*
X49330500Y-65954057D01*
X49330500Y-65795943D01*
X49289577Y-65643216D01*
X49238101Y-65554056D01*
X49210524Y-65506290D01*
X49210518Y-65506282D01*
X49100179Y-65395943D01*
X66604500Y-65395943D01*
X66604500Y-65554056D01*
X66645423Y-65706783D01*
X66645426Y-65706790D01*
X66724475Y-65843709D01*
X66724479Y-65843714D01*
X66724480Y-65843716D01*
X66836284Y-65955520D01*
X66836286Y-65955521D01*
X66836290Y-65955524D01*
X66853024Y-65965185D01*
X66973216Y-66034577D01*
X67125943Y-66075500D01*
X67125945Y-66075500D01*
X67284055Y-66075500D01*
X67284057Y-66075500D01*
X67436784Y-66034577D01*
X67506072Y-65994574D01*
X67562298Y-65962113D01*
X67624297Y-65945500D01*
X70344736Y-65945500D01*
X70411775Y-65965185D01*
X70443540Y-65994574D01*
X70445638Y-65997341D01*
X70445639Y-65997342D01*
X70528636Y-66106790D01*
X70537079Y-66117923D01*
X70657656Y-66209360D01*
X70657657Y-66209360D01*
X70657658Y-66209361D01*
X70798436Y-66264877D01*
X70886898Y-66275500D01*
X70886903Y-66275500D01*
X71523095Y-66275500D01*
X71523102Y-66275500D01*
X71601218Y-66266119D01*
X71670124Y-66277671D01*
X71721848Y-66324643D01*
X71740000Y-66389235D01*
X71740000Y-66425000D01*
X73830000Y-66425000D01*
X73830000Y-64525000D01*
X71740000Y-64525000D01*
X71740000Y-64560764D01*
X71720315Y-64627803D01*
X71667511Y-64673558D01*
X71601217Y-64683880D01*
X71566682Y-64679733D01*
X71523102Y-64674500D01*
X70886898Y-64674500D01*
X70847853Y-64679188D01*
X70798438Y-64685122D01*
X70657656Y-64740639D01*
X70537079Y-64832076D01*
X70443540Y-64955426D01*
X70387347Y-64996949D01*
X70344736Y-65004500D01*
X67624297Y-65004500D01*
X67562298Y-64987887D01*
X67436790Y-64915426D01*
X67436786Y-64915424D01*
X67436784Y-64915423D01*
X67284057Y-64874500D01*
X67125943Y-64874500D01*
X66973216Y-64915423D01*
X66973209Y-64915426D01*
X66836290Y-64994475D01*
X66836282Y-64994481D01*
X66724481Y-65106282D01*
X66724475Y-65106290D01*
X66645426Y-65243209D01*
X66645423Y-65243216D01*
X66604500Y-65395943D01*
X49100179Y-65395943D01*
X49098717Y-65394481D01*
X49098709Y-65394475D01*
X48961790Y-65315426D01*
X48961786Y-65315424D01*
X48961784Y-65315423D01*
X48809057Y-65274500D01*
X48650943Y-65274500D01*
X48498216Y-65315423D01*
X48498209Y-65315426D01*
X48361290Y-65394475D01*
X48361282Y-65394481D01*
X48249481Y-65506282D01*
X48249477Y-65506287D01*
X48195451Y-65599864D01*
X48145067Y-65647985D01*
X20437257Y-79990621D01*
X20380254Y-80004500D01*
X17385264Y-80004500D01*
X17318225Y-79984815D01*
X17286460Y-79955426D01*
X17284361Y-79952658D01*
X17192922Y-79832078D01*
X17192920Y-79832077D01*
X17192920Y-79832076D01*
X17072343Y-79740639D01*
X16931561Y-79685122D01*
X16885926Y-79679642D01*
X16843102Y-79674500D01*
X16206898Y-79674500D01*
X16163317Y-79679733D01*
X16128783Y-79683880D01*
X16059875Y-79672328D01*
X16008151Y-79625355D01*
X15990000Y-79560764D01*
X15990000Y-79525000D01*
X13900000Y-79525000D01*
X9500500Y-79525000D01*
X9500500Y-75425000D01*
X13900000Y-75425000D01*
X15990000Y-75425000D01*
X15990000Y-75389235D01*
X16009685Y-75322196D01*
X16062489Y-75276441D01*
X16128781Y-75266119D01*
X16206898Y-75275500D01*
X16206905Y-75275500D01*
X16843097Y-75275500D01*
X16843102Y-75275500D01*
X16931564Y-75264877D01*
X17072342Y-75209361D01*
X17192922Y-75117922D01*
X17284361Y-74997342D01*
X17284361Y-74997341D01*
X17286460Y-74994574D01*
X17342653Y-74953051D01*
X17385264Y-74945500D01*
X20105703Y-74945500D01*
X20167702Y-74962113D01*
X20228722Y-74997342D01*
X20293216Y-75034577D01*
X20445943Y-75075500D01*
X20445945Y-75075500D01*
X20604055Y-75075500D01*
X20604057Y-75075500D01*
X20756784Y-75034577D01*
X20893716Y-74955520D01*
X21005520Y-74843716D01*
X21084577Y-74706784D01*
X21125500Y-74554057D01*
X21125500Y-74395943D01*
X21084577Y-74243216D01*
X21084573Y-74243209D01*
X21005524Y-74106290D01*
X21005518Y-74106282D01*
X20893717Y-73994481D01*
X20893709Y-73994475D01*
X20756790Y-73915426D01*
X20756786Y-73915424D01*
X20756784Y-73915423D01*
X20604057Y-73874500D01*
X20445943Y-73874500D01*
X20293216Y-73915423D01*
X20293209Y-73915426D01*
X20167702Y-73987887D01*
X20105703Y-74004500D01*
X17385264Y-74004500D01*
X17318225Y-73984815D01*
X17286460Y-73955426D01*
X17256125Y-73915423D01*
X17192922Y-73832078D01*
X17192920Y-73832077D01*
X17192920Y-73832076D01*
X17072343Y-73740639D01*
X16931561Y-73685122D01*
X16885926Y-73679642D01*
X16843102Y-73674500D01*
X16206898Y-73674500D01*
X16163317Y-73679733D01*
X16128783Y-73683880D01*
X16059875Y-73672328D01*
X16008151Y-73625355D01*
X15990000Y-73560764D01*
X15990000Y-73525000D01*
X13900000Y-73525000D01*
X13900000Y-75425000D01*
X9500500Y-75425000D01*
X9500500Y-69425000D01*
X13900000Y-69425000D01*
X15990000Y-69425000D01*
X15990000Y-69389235D01*
X16009685Y-69322196D01*
X16062489Y-69276441D01*
X16128781Y-69266119D01*
X16206898Y-69275500D01*
X16206905Y-69275500D01*
X16843097Y-69275500D01*
X16843102Y-69275500D01*
X16931564Y-69264877D01*
X17072342Y-69209361D01*
X17192922Y-69117922D01*
X17284361Y-68997342D01*
X17284361Y-68997341D01*
X17286460Y-68994574D01*
X17342653Y-68953051D01*
X17385264Y-68945500D01*
X20105703Y-68945500D01*
X20167702Y-68962113D01*
X20228722Y-68997342D01*
X20293216Y-69034577D01*
X20445943Y-69075500D01*
X20445945Y-69075500D01*
X20604055Y-69075500D01*
X20604057Y-69075500D01*
X20756784Y-69034577D01*
X20893716Y-68955520D01*
X21005520Y-68843716D01*
X21084577Y-68706784D01*
X21125500Y-68554057D01*
X21125500Y-68395943D01*
X21084577Y-68243216D01*
X21084573Y-68243209D01*
X21005524Y-68106290D01*
X21005518Y-68106282D01*
X20893717Y-67994481D01*
X20893709Y-67994475D01*
X20756790Y-67915426D01*
X20756786Y-67915424D01*
X20756784Y-67915423D01*
X20604057Y-67874500D01*
X20445943Y-67874500D01*
X20293216Y-67915423D01*
X20293209Y-67915426D01*
X20167702Y-67987887D01*
X20105703Y-68004500D01*
X17385264Y-68004500D01*
X17318225Y-67984815D01*
X17286460Y-67955426D01*
X17256125Y-67915423D01*
X17192922Y-67832078D01*
X17192920Y-67832077D01*
X17192920Y-67832076D01*
X17072343Y-67740639D01*
X16931561Y-67685122D01*
X16885926Y-67679642D01*
X16843102Y-67674500D01*
X16206898Y-67674500D01*
X16163317Y-67679733D01*
X16128783Y-67683880D01*
X16059875Y-67672328D01*
X16008151Y-67625355D01*
X15990000Y-67560764D01*
X15990000Y-67525000D01*
X13900000Y-67525000D01*
X13900000Y-69425000D01*
X9500500Y-69425000D01*
X9500500Y-63425000D01*
X13900000Y-63425000D01*
X15990000Y-63425000D01*
X15990000Y-63389235D01*
X16009685Y-63322196D01*
X16062489Y-63276441D01*
X16128781Y-63266119D01*
X16206898Y-63275500D01*
X16206905Y-63275500D01*
X16843097Y-63275500D01*
X16843102Y-63275500D01*
X16931564Y-63264877D01*
X17072342Y-63209361D01*
X17192922Y-63117922D01*
X17284361Y-62997342D01*
X17284361Y-62997341D01*
X17286460Y-62994574D01*
X17342653Y-62953051D01*
X17385264Y-62945500D01*
X20105703Y-62945500D01*
X20167702Y-62962113D01*
X20228722Y-62997342D01*
X20293216Y-63034577D01*
X20445943Y-63075500D01*
X20445945Y-63075500D01*
X20604055Y-63075500D01*
X20604057Y-63075500D01*
X20756784Y-63034577D01*
X20893716Y-62955520D01*
X21005520Y-62843716D01*
X21084577Y-62706784D01*
X21125500Y-62554057D01*
X21125500Y-62395943D01*
X21084577Y-62243216D01*
X21084573Y-62243209D01*
X21005524Y-62106290D01*
X21005518Y-62106282D01*
X20893717Y-61994481D01*
X20893709Y-61994475D01*
X20756790Y-61915426D01*
X20756786Y-61915424D01*
X20756784Y-61915423D01*
X20604057Y-61874500D01*
X20445943Y-61874500D01*
X20293216Y-61915423D01*
X20293209Y-61915426D01*
X20167702Y-61987887D01*
X20105703Y-62004500D01*
X17385264Y-62004500D01*
X17318225Y-61984815D01*
X17286460Y-61955426D01*
X17256125Y-61915423D01*
X17192922Y-61832078D01*
X17192920Y-61832077D01*
X17192920Y-61832076D01*
X17072343Y-61740639D01*
X16931561Y-61685122D01*
X16885926Y-61679642D01*
X16843102Y-61674500D01*
X16206898Y-61674500D01*
X16163317Y-61679733D01*
X16128783Y-61683880D01*
X16059875Y-61672328D01*
X16008151Y-61625355D01*
X15990000Y-61560764D01*
X15990000Y-61525000D01*
X13900000Y-61525000D01*
X13900000Y-63425000D01*
X9500500Y-63425000D01*
X9500500Y-59395943D01*
X66604500Y-59395943D01*
X66604500Y-59554056D01*
X66645423Y-59706783D01*
X66645426Y-59706790D01*
X66724475Y-59843709D01*
X66724479Y-59843714D01*
X66724480Y-59843716D01*
X66836284Y-59955520D01*
X66836286Y-59955521D01*
X66836290Y-59955524D01*
X66853024Y-59965185D01*
X66973216Y-60034577D01*
X67125943Y-60075500D01*
X67125945Y-60075500D01*
X67284055Y-60075500D01*
X67284057Y-60075500D01*
X67436784Y-60034577D01*
X67506072Y-59994574D01*
X67562298Y-59962113D01*
X67624297Y-59945500D01*
X70344736Y-59945500D01*
X70411775Y-59965185D01*
X70443540Y-59994574D01*
X70537079Y-60117923D01*
X70657656Y-60209360D01*
X70657657Y-60209360D01*
X70657658Y-60209361D01*
X70798436Y-60264877D01*
X70886898Y-60275500D01*
X70886903Y-60275500D01*
X71523095Y-60275500D01*
X71523102Y-60275500D01*
X71601218Y-60266119D01*
X71670124Y-60277671D01*
X71721848Y-60324643D01*
X71740000Y-60389235D01*
X71740000Y-60425000D01*
X73830000Y-60425000D01*
X73830000Y-58525000D01*
X71740000Y-58525000D01*
X71740000Y-58560764D01*
X71720315Y-58627803D01*
X71667511Y-58673558D01*
X71601217Y-58683880D01*
X71566682Y-58679733D01*
X71523102Y-58674500D01*
X70886898Y-58674500D01*
X70847853Y-58679188D01*
X70798438Y-58685122D01*
X70657656Y-58740639D01*
X70537079Y-58832076D01*
X70443540Y-58955426D01*
X70387347Y-58996949D01*
X70344736Y-59004500D01*
X67624297Y-59004500D01*
X67562298Y-58987887D01*
X67436790Y-58915426D01*
X67436786Y-58915424D01*
X67436784Y-58915423D01*
X67284057Y-58874500D01*
X67125943Y-58874500D01*
X66973216Y-58915423D01*
X66973209Y-58915426D01*
X66836290Y-58994475D01*
X66836282Y-58994481D01*
X66724481Y-59106282D01*
X66724475Y-59106290D01*
X66645426Y-59243209D01*
X66645423Y-59243216D01*
X66604500Y-59395943D01*
X9500500Y-59395943D01*
X9500500Y-57425000D01*
X13900000Y-57425000D01*
X15990000Y-57425000D01*
X15990000Y-57389235D01*
X16009685Y-57322196D01*
X16062489Y-57276441D01*
X16128781Y-57266119D01*
X16206898Y-57275500D01*
X16206905Y-57275500D01*
X16843097Y-57275500D01*
X16843102Y-57275500D01*
X16931564Y-57264877D01*
X17072342Y-57209361D01*
X17192922Y-57117922D01*
X17284361Y-56997342D01*
X17284361Y-56997341D01*
X17286460Y-56994574D01*
X17342653Y-56953051D01*
X17385264Y-56945500D01*
X20105703Y-56945500D01*
X20167702Y-56962113D01*
X20228722Y-56997342D01*
X20293216Y-57034577D01*
X20445943Y-57075500D01*
X20445945Y-57075500D01*
X20604055Y-57075500D01*
X20604057Y-57075500D01*
X20756784Y-57034577D01*
X20893716Y-56955520D01*
X21005520Y-56843716D01*
X21084577Y-56706784D01*
X21125500Y-56554057D01*
X21125500Y-56395943D01*
X21084577Y-56243216D01*
X21084573Y-56243209D01*
X21005524Y-56106290D01*
X21005518Y-56106282D01*
X20893717Y-55994481D01*
X20893709Y-55994475D01*
X20756790Y-55915426D01*
X20756786Y-55915424D01*
X20756784Y-55915423D01*
X20604057Y-55874500D01*
X20445943Y-55874500D01*
X20293216Y-55915423D01*
X20293209Y-55915426D01*
X20167702Y-55987887D01*
X20105703Y-56004500D01*
X17385264Y-56004500D01*
X17318225Y-55984815D01*
X17286460Y-55955426D01*
X17256125Y-55915423D01*
X17192922Y-55832078D01*
X17192920Y-55832077D01*
X17192920Y-55832076D01*
X17072343Y-55740639D01*
X16931561Y-55685122D01*
X16885926Y-55679642D01*
X16843102Y-55674500D01*
X16206898Y-55674500D01*
X16163317Y-55679733D01*
X16128783Y-55683880D01*
X16059875Y-55672328D01*
X16008151Y-55625355D01*
X15990000Y-55560764D01*
X15990000Y-55525000D01*
X13900000Y-55525000D01*
X13900000Y-57425000D01*
X9500500Y-57425000D01*
X9500500Y-51425000D01*
X13900000Y-51425000D01*
X15990000Y-51425000D01*
X15990000Y-51389235D01*
X16009685Y-51322196D01*
X16062489Y-51276441D01*
X16128781Y-51266119D01*
X16206898Y-51275500D01*
X16206905Y-51275500D01*
X16843097Y-51275500D01*
X16843102Y-51275500D01*
X16931564Y-51264877D01*
X17072342Y-51209361D01*
X17192922Y-51117922D01*
X17284361Y-50997342D01*
X17284361Y-50997341D01*
X17286460Y-50994574D01*
X17342653Y-50953051D01*
X17385264Y-50945500D01*
X20105703Y-50945500D01*
X20167702Y-50962113D01*
X20228722Y-50997342D01*
X20293216Y-51034577D01*
X20445943Y-51075500D01*
X20445945Y-51075500D01*
X20604055Y-51075500D01*
X20604057Y-51075500D01*
X20756784Y-51034577D01*
X20893716Y-50955520D01*
X21005520Y-50843716D01*
X21084577Y-50706784D01*
X21125500Y-50554057D01*
X21125500Y-50395943D01*
X21084577Y-50243216D01*
X21084573Y-50243209D01*
X21005524Y-50106290D01*
X21005518Y-50106282D01*
X20893717Y-49994481D01*
X20893709Y-49994475D01*
X20756790Y-49915426D01*
X20756786Y-49915424D01*
X20756784Y-49915423D01*
X20604057Y-49874500D01*
X20445943Y-49874500D01*
X20293216Y-49915423D01*
X20293209Y-49915426D01*
X20167702Y-49987887D01*
X20105703Y-50004500D01*
X17385264Y-50004500D01*
X17318225Y-49984815D01*
X17286460Y-49955426D01*
X17256125Y-49915423D01*
X17192922Y-49832078D01*
X17192920Y-49832077D01*
X17192920Y-49832076D01*
X17072343Y-49740639D01*
X16931561Y-49685122D01*
X16885926Y-49679642D01*
X16843102Y-49674500D01*
X16206898Y-49674500D01*
X16163317Y-49679733D01*
X16128783Y-49683880D01*
X16059875Y-49672328D01*
X16008151Y-49625355D01*
X15990000Y-49560764D01*
X15990000Y-49525000D01*
X13900000Y-49525000D01*
X13900000Y-51425000D01*
X9500500Y-51425000D01*
X9500500Y-45425000D01*
X13900000Y-45425000D01*
X15990000Y-45425000D01*
X15990000Y-45389235D01*
X16009685Y-45322196D01*
X16062489Y-45276441D01*
X16128781Y-45266119D01*
X16206898Y-45275500D01*
X16206905Y-45275500D01*
X16843097Y-45275500D01*
X16843102Y-45275500D01*
X16931564Y-45264877D01*
X17072342Y-45209361D01*
X17192922Y-45117922D01*
X17284361Y-44997342D01*
X17284361Y-44997341D01*
X17286460Y-44994574D01*
X17342653Y-44953051D01*
X17385264Y-44945500D01*
X20105703Y-44945500D01*
X20167702Y-44962113D01*
X20228722Y-44997342D01*
X20293216Y-45034577D01*
X20445943Y-45075500D01*
X20445945Y-45075500D01*
X20604055Y-45075500D01*
X20604057Y-45075500D01*
X20756784Y-45034577D01*
X20893716Y-44955520D01*
X21005520Y-44843716D01*
X21084577Y-44706784D01*
X21125500Y-44554057D01*
X21125500Y-44395943D01*
X21084577Y-44243216D01*
X21084573Y-44243209D01*
X21005524Y-44106290D01*
X21005518Y-44106282D01*
X20893717Y-43994481D01*
X20893709Y-43994475D01*
X20756790Y-43915426D01*
X20756786Y-43915424D01*
X20756784Y-43915423D01*
X20604057Y-43874500D01*
X20445943Y-43874500D01*
X20293216Y-43915423D01*
X20293209Y-43915426D01*
X20167702Y-43987887D01*
X20105703Y-44004500D01*
X17385264Y-44004500D01*
X17318225Y-43984815D01*
X17286460Y-43955426D01*
X17256125Y-43915423D01*
X17192922Y-43832078D01*
X17192920Y-43832077D01*
X17192920Y-43832076D01*
X17072343Y-43740639D01*
X16931561Y-43685122D01*
X16885926Y-43679642D01*
X16843102Y-43674500D01*
X16206898Y-43674500D01*
X16163317Y-43679733D01*
X16128783Y-43683880D01*
X16059875Y-43672328D01*
X16008151Y-43625355D01*
X15990000Y-43560764D01*
X15990000Y-43525000D01*
X13900000Y-43525000D01*
X13900000Y-45425000D01*
X9500500Y-45425000D01*
X9500500Y-39425000D01*
X13900000Y-39425000D01*
X15990000Y-39425000D01*
X15990000Y-39389235D01*
X16009685Y-39322196D01*
X16062489Y-39276441D01*
X16128781Y-39266119D01*
X16206898Y-39275500D01*
X16206905Y-39275500D01*
X16843097Y-39275500D01*
X16843102Y-39275500D01*
X16931564Y-39264877D01*
X17072342Y-39209361D01*
X17192922Y-39117922D01*
X17284361Y-38997342D01*
X17284361Y-38997341D01*
X17286460Y-38994574D01*
X17342653Y-38953051D01*
X17385264Y-38945500D01*
X20380254Y-38945500D01*
X20437257Y-38959379D01*
X23461801Y-40525000D01*
X48145067Y-53302013D01*
X48195451Y-53350134D01*
X48249480Y-53443716D01*
X48361284Y-53555520D01*
X48361286Y-53555521D01*
X48361290Y-53555524D01*
X48498209Y-53634573D01*
X48498216Y-53634577D01*
X48650943Y-53675500D01*
X48650945Y-53675500D01*
X48809055Y-53675500D01*
X48809057Y-53675500D01*
X48961784Y-53634577D01*
X49098716Y-53555520D01*
X49210520Y-53443716D01*
X49238102Y-53395943D01*
X66604500Y-53395943D01*
X66604500Y-53554057D01*
X66637041Y-53675500D01*
X66645423Y-53706783D01*
X66645426Y-53706790D01*
X66724475Y-53843709D01*
X66724479Y-53843714D01*
X66724480Y-53843716D01*
X66836284Y-53955520D01*
X66836286Y-53955521D01*
X66836290Y-53955524D01*
X66853024Y-53965185D01*
X66973216Y-54034577D01*
X67125943Y-54075500D01*
X67125945Y-54075500D01*
X67284055Y-54075500D01*
X67284057Y-54075500D01*
X67436784Y-54034577D01*
X67506072Y-53994574D01*
X67562298Y-53962113D01*
X67624297Y-53945500D01*
X70344736Y-53945500D01*
X70411775Y-53965185D01*
X70443540Y-53994574D01*
X70537079Y-54117923D01*
X70657656Y-54209360D01*
X70657657Y-54209360D01*
X70657658Y-54209361D01*
X70798436Y-54264877D01*
X70886898Y-54275500D01*
X70886903Y-54275500D01*
X71523095Y-54275500D01*
X71523102Y-54275500D01*
X71601218Y-54266119D01*
X71670124Y-54277671D01*
X71721848Y-54324643D01*
X71740000Y-54389235D01*
X71740000Y-54425000D01*
X73830000Y-54425000D01*
X73830000Y-52525000D01*
X71740000Y-52525000D01*
X71740000Y-52560764D01*
X71720315Y-52627803D01*
X71667511Y-52673558D01*
X71601217Y-52683880D01*
X71566682Y-52679733D01*
X71523102Y-52674500D01*
X70886898Y-52674500D01*
X70847853Y-52679188D01*
X70798438Y-52685122D01*
X70657656Y-52740639D01*
X70537079Y-52832076D01*
X70443540Y-52955426D01*
X70387347Y-52996949D01*
X70344736Y-53004500D01*
X67624297Y-53004500D01*
X67562298Y-52987887D01*
X67436790Y-52915426D01*
X67436786Y-52915424D01*
X67436784Y-52915423D01*
X67284057Y-52874500D01*
X67125943Y-52874500D01*
X66973216Y-52915423D01*
X66973209Y-52915426D01*
X66836290Y-52994475D01*
X66836282Y-52994481D01*
X66724481Y-53106282D01*
X66724475Y-53106290D01*
X66645426Y-53243209D01*
X66645423Y-53243216D01*
X66604500Y-53395943D01*
X49238102Y-53395943D01*
X49289577Y-53306784D01*
X49330500Y-53154057D01*
X49330500Y-52995943D01*
X49289577Y-52843216D01*
X49230355Y-52740639D01*
X49210524Y-52706290D01*
X49210518Y-52706282D01*
X49098717Y-52594481D01*
X49098709Y-52594475D01*
X48961790Y-52515426D01*
X48961786Y-52515424D01*
X48961784Y-52515423D01*
X48809057Y-52474500D01*
X48650943Y-52474500D01*
X48650934Y-52474500D01*
X48643676Y-52475455D01*
X48574642Y-52464684D01*
X48570498Y-52462636D01*
X28985422Y-42324643D01*
X20750882Y-38062126D01*
X20706606Y-38036564D01*
X20696020Y-38033727D01*
X20686283Y-38028687D01*
X20686280Y-38028686D01*
X20639117Y-38018343D01*
X20639117Y-38018344D01*
X20636328Y-38017732D01*
X20586943Y-38004500D01*
X20575978Y-38004500D01*
X20565270Y-38002152D01*
X20565269Y-38002152D01*
X20517043Y-38004369D01*
X20511349Y-38004500D01*
X17385264Y-38004500D01*
X17318225Y-37984815D01*
X17286460Y-37955426D01*
X17192920Y-37832076D01*
X17072343Y-37740639D01*
X16931561Y-37685122D01*
X16885926Y-37679642D01*
X16843102Y-37674500D01*
X16206898Y-37674500D01*
X16163317Y-37679733D01*
X16128783Y-37683880D01*
X16059875Y-37672328D01*
X16008151Y-37625355D01*
X15990000Y-37560764D01*
X15990000Y-37525000D01*
X13900000Y-37525000D01*
X13900000Y-39425000D01*
X9500500Y-39425000D01*
X9500500Y-33425000D01*
X13900000Y-33425000D01*
X15990000Y-33425000D01*
X15990000Y-33389235D01*
X16009685Y-33322196D01*
X16062489Y-33276441D01*
X16128781Y-33266119D01*
X16206898Y-33275500D01*
X16206905Y-33275500D01*
X16843097Y-33275500D01*
X16843102Y-33275500D01*
X16931564Y-33264877D01*
X17072342Y-33209361D01*
X17192922Y-33117922D01*
X17284361Y-32997342D01*
X17284361Y-32997341D01*
X17286460Y-32994574D01*
X17342653Y-32953051D01*
X17385264Y-32945500D01*
X20105703Y-32945500D01*
X20167702Y-32962113D01*
X20228722Y-32997342D01*
X20293216Y-33034577D01*
X20445943Y-33075500D01*
X20445945Y-33075500D01*
X20604055Y-33075500D01*
X20604057Y-33075500D01*
X20756784Y-33034577D01*
X20893716Y-32955520D01*
X21005520Y-32843716D01*
X21084577Y-32706784D01*
X21125500Y-32554057D01*
X21125500Y-32395943D01*
X21084577Y-32243216D01*
X21084573Y-32243209D01*
X21005524Y-32106290D01*
X21005518Y-32106282D01*
X20893717Y-31994481D01*
X20893709Y-31994475D01*
X20756790Y-31915426D01*
X20756786Y-31915424D01*
X20756784Y-31915423D01*
X20604057Y-31874500D01*
X20445943Y-31874500D01*
X20293216Y-31915423D01*
X20293209Y-31915426D01*
X20167702Y-31987887D01*
X20105703Y-32004500D01*
X17385264Y-32004500D01*
X17318225Y-31984815D01*
X17286460Y-31955426D01*
X17256125Y-31915423D01*
X17192922Y-31832078D01*
X17192920Y-31832077D01*
X17192920Y-31832076D01*
X17072343Y-31740639D01*
X16931561Y-31685122D01*
X16885926Y-31679642D01*
X16843102Y-31674500D01*
X16206898Y-31674500D01*
X16163317Y-31679733D01*
X16128783Y-31683880D01*
X16059875Y-31672328D01*
X16008151Y-31625355D01*
X15990000Y-31560764D01*
X15990000Y-31525000D01*
X13900000Y-31525000D01*
X13900000Y-33425000D01*
X9500500Y-33425000D01*
X9500500Y-27425000D01*
X13900000Y-27425000D01*
X15990000Y-27425000D01*
X15990000Y-27389235D01*
X16009685Y-27322196D01*
X16062489Y-27276441D01*
X16128781Y-27266119D01*
X16206898Y-27275500D01*
X16206905Y-27275500D01*
X16843097Y-27275500D01*
X16843102Y-27275500D01*
X16931564Y-27264877D01*
X17072342Y-27209361D01*
X17192922Y-27117922D01*
X17284361Y-26997342D01*
X17284361Y-26997341D01*
X17286460Y-26994574D01*
X17342653Y-26953051D01*
X17385264Y-26945500D01*
X20299451Y-26945500D01*
X20366490Y-26965185D01*
X20381701Y-26976705D01*
X48107731Y-51552162D01*
X48144843Y-51611361D01*
X48145255Y-51612862D01*
X48170421Y-51706779D01*
X48170426Y-51706790D01*
X48249475Y-51843709D01*
X48249479Y-51843714D01*
X48249480Y-51843716D01*
X48361284Y-51955520D01*
X48361286Y-51955521D01*
X48361290Y-51955524D01*
X48498209Y-52034573D01*
X48498216Y-52034577D01*
X48650943Y-52075500D01*
X48650945Y-52075500D01*
X48809055Y-52075500D01*
X48809057Y-52075500D01*
X48961784Y-52034577D01*
X49098716Y-51955520D01*
X49210520Y-51843716D01*
X49289577Y-51706784D01*
X49330500Y-51554057D01*
X49330500Y-51395943D01*
X49289577Y-51243216D01*
X49270031Y-51209361D01*
X49210524Y-51106290D01*
X49210518Y-51106282D01*
X49098717Y-50994481D01*
X49098709Y-50994475D01*
X48961790Y-50915426D01*
X48961786Y-50915424D01*
X48961784Y-50915423D01*
X48809057Y-50874500D01*
X48809056Y-50874500D01*
X48808883Y-50874500D01*
X48808743Y-50874458D01*
X48800997Y-50873439D01*
X48801156Y-50872231D01*
X48741844Y-50854815D01*
X48726633Y-50843295D01*
X44932853Y-47480611D01*
X44837331Y-47395943D01*
X66604500Y-47395943D01*
X66604500Y-47554056D01*
X66645423Y-47706783D01*
X66645426Y-47706790D01*
X66724475Y-47843709D01*
X66724479Y-47843714D01*
X66724480Y-47843716D01*
X66836284Y-47955520D01*
X66836286Y-47955521D01*
X66836290Y-47955524D01*
X66853024Y-47965185D01*
X66973216Y-48034577D01*
X67125943Y-48075500D01*
X67125945Y-48075500D01*
X67284055Y-48075500D01*
X67284057Y-48075500D01*
X67436784Y-48034577D01*
X67506072Y-47994574D01*
X67562298Y-47962113D01*
X67624297Y-47945500D01*
X70344736Y-47945500D01*
X70411775Y-47965185D01*
X70443540Y-47994574D01*
X70537079Y-48117923D01*
X70657656Y-48209360D01*
X70657657Y-48209360D01*
X70657658Y-48209361D01*
X70798436Y-48264877D01*
X70886898Y-48275500D01*
X70886903Y-48275500D01*
X71523095Y-48275500D01*
X71523102Y-48275500D01*
X71601218Y-48266119D01*
X71670124Y-48277671D01*
X71721848Y-48324643D01*
X71740000Y-48389235D01*
X71740000Y-48425000D01*
X73830000Y-48425000D01*
X73830000Y-46525000D01*
X71740000Y-46525000D01*
X71740000Y-46560764D01*
X71720315Y-46627803D01*
X71667511Y-46673558D01*
X71601217Y-46683880D01*
X71566682Y-46679733D01*
X71523102Y-46674500D01*
X70886898Y-46674500D01*
X70847853Y-46679188D01*
X70798438Y-46685122D01*
X70657656Y-46740639D01*
X70537079Y-46832076D01*
X70443540Y-46955426D01*
X70387347Y-46996949D01*
X70344736Y-47004500D01*
X67624297Y-47004500D01*
X67562298Y-46987887D01*
X67436790Y-46915426D01*
X67436786Y-46915424D01*
X67436784Y-46915423D01*
X67284057Y-46874500D01*
X67125943Y-46874500D01*
X66973216Y-46915423D01*
X66973209Y-46915426D01*
X66836290Y-46994475D01*
X66836282Y-46994481D01*
X66724481Y-47106282D01*
X66724475Y-47106290D01*
X66645426Y-47243209D01*
X66645423Y-47243216D01*
X66604500Y-47395943D01*
X44837331Y-47395943D01*
X38163653Y-41480611D01*
X38068131Y-41395943D01*
X66604500Y-41395943D01*
X66604500Y-41554056D01*
X66645423Y-41706783D01*
X66645426Y-41706790D01*
X66724475Y-41843709D01*
X66724479Y-41843714D01*
X66724480Y-41843716D01*
X66836284Y-41955520D01*
X66836286Y-41955521D01*
X66836290Y-41955524D01*
X66853024Y-41965185D01*
X66973216Y-42034577D01*
X67125943Y-42075500D01*
X67125945Y-42075500D01*
X67284055Y-42075500D01*
X67284057Y-42075500D01*
X67436784Y-42034577D01*
X67506072Y-41994574D01*
X67562298Y-41962113D01*
X67624297Y-41945500D01*
X70344736Y-41945500D01*
X70411775Y-41965185D01*
X70443540Y-41994574D01*
X70537079Y-42117923D01*
X70657656Y-42209360D01*
X70657657Y-42209360D01*
X70657658Y-42209361D01*
X70798436Y-42264877D01*
X70886898Y-42275500D01*
X70886903Y-42275500D01*
X71523095Y-42275500D01*
X71523102Y-42275500D01*
X71601218Y-42266119D01*
X71670124Y-42277671D01*
X71721848Y-42324643D01*
X71740000Y-42389235D01*
X71740000Y-42425000D01*
X73830000Y-42425000D01*
X73830000Y-40525000D01*
X71740000Y-40525000D01*
X71740000Y-40560764D01*
X71720315Y-40627803D01*
X71667511Y-40673558D01*
X71601217Y-40683880D01*
X71566682Y-40679733D01*
X71523102Y-40674500D01*
X70886898Y-40674500D01*
X70847853Y-40679188D01*
X70798438Y-40685122D01*
X70657656Y-40740639D01*
X70537079Y-40832076D01*
X70443540Y-40955426D01*
X70387347Y-40996949D01*
X70344736Y-41004500D01*
X67624297Y-41004500D01*
X67562298Y-40987887D01*
X67436790Y-40915426D01*
X67436786Y-40915424D01*
X67436784Y-40915423D01*
X67284057Y-40874500D01*
X67125943Y-40874500D01*
X66973216Y-40915423D01*
X66973209Y-40915426D01*
X66836290Y-40994475D01*
X66836282Y-40994481D01*
X66724481Y-41106282D01*
X66724475Y-41106290D01*
X66645426Y-41243209D01*
X66645423Y-41243216D01*
X66604500Y-41395943D01*
X38068131Y-41395943D01*
X35840902Y-39421800D01*
X35743078Y-39335092D01*
X45774500Y-39335092D01*
X45774500Y-39484907D01*
X45803723Y-39631822D01*
X45803725Y-39631830D01*
X45861051Y-39770229D01*
X45861056Y-39770238D01*
X45944280Y-39894790D01*
X45944283Y-39894794D01*
X46050205Y-40000716D01*
X46050209Y-40000719D01*
X46174761Y-40083943D01*
X46174767Y-40083946D01*
X46174768Y-40083947D01*
X46313170Y-40141275D01*
X46460092Y-40170499D01*
X46460096Y-40170500D01*
X46460097Y-40170500D01*
X46609904Y-40170500D01*
X46609905Y-40170499D01*
X46756830Y-40141275D01*
X46895232Y-40083947D01*
X47019791Y-40000719D01*
X47125719Y-39894791D01*
X47208947Y-39770232D01*
X47266275Y-39631830D01*
X47295500Y-39484903D01*
X47295500Y-39335097D01*
X47266275Y-39188170D01*
X47208947Y-39049768D01*
X47208946Y-39049767D01*
X47208943Y-39049761D01*
X47125719Y-38925209D01*
X47125716Y-38925205D01*
X47019794Y-38819283D01*
X47019790Y-38819280D01*
X46895238Y-38736056D01*
X46895229Y-38736051D01*
X46756830Y-38678725D01*
X46756822Y-38678723D01*
X46609907Y-38649500D01*
X46609903Y-38649500D01*
X46460097Y-38649500D01*
X46460092Y-38649500D01*
X46313177Y-38678723D01*
X46313169Y-38678725D01*
X46174770Y-38736051D01*
X46174761Y-38736056D01*
X46050209Y-38819280D01*
X46050205Y-38819283D01*
X45944283Y-38925205D01*
X45944280Y-38925209D01*
X45861056Y-39049761D01*
X45861051Y-39049770D01*
X45803725Y-39188169D01*
X45803723Y-39188177D01*
X45774500Y-39335092D01*
X35743078Y-39335092D01*
X31394453Y-35480611D01*
X31298931Y-35395943D01*
X66604500Y-35395943D01*
X66604500Y-35554056D01*
X66645423Y-35706783D01*
X66645426Y-35706790D01*
X66724475Y-35843709D01*
X66724479Y-35843714D01*
X66724480Y-35843716D01*
X66836284Y-35955520D01*
X66836286Y-35955521D01*
X66836290Y-35955524D01*
X66853024Y-35965185D01*
X66973216Y-36034577D01*
X67125943Y-36075500D01*
X67125945Y-36075500D01*
X67284055Y-36075500D01*
X67284057Y-36075500D01*
X67436784Y-36034577D01*
X67506072Y-35994574D01*
X67562298Y-35962113D01*
X67624297Y-35945500D01*
X70344736Y-35945500D01*
X70411775Y-35965185D01*
X70443540Y-35994574D01*
X70537079Y-36117923D01*
X70657656Y-36209360D01*
X70657657Y-36209360D01*
X70657658Y-36209361D01*
X70798436Y-36264877D01*
X70886898Y-36275500D01*
X70886903Y-36275500D01*
X71523095Y-36275500D01*
X71523102Y-36275500D01*
X71601218Y-36266119D01*
X71670124Y-36277671D01*
X71721848Y-36324643D01*
X71740000Y-36389235D01*
X71740000Y-36425000D01*
X73830000Y-36425000D01*
X73830000Y-34525000D01*
X71740000Y-34525000D01*
X71740000Y-34560764D01*
X71720315Y-34627803D01*
X71667511Y-34673558D01*
X71601217Y-34683880D01*
X71566682Y-34679733D01*
X71523102Y-34674500D01*
X70886898Y-34674500D01*
X70847853Y-34679188D01*
X70798438Y-34685122D01*
X70657656Y-34740639D01*
X70537079Y-34832076D01*
X70443540Y-34955426D01*
X70387347Y-34996949D01*
X70344736Y-35004500D01*
X67624297Y-35004500D01*
X67562298Y-34987887D01*
X67436790Y-34915426D01*
X67436786Y-34915424D01*
X67436784Y-34915423D01*
X67284057Y-34874500D01*
X67125943Y-34874500D01*
X66973216Y-34915423D01*
X66973209Y-34915426D01*
X66836290Y-34994475D01*
X66836282Y-34994481D01*
X66724481Y-35106282D01*
X66724475Y-35106290D01*
X66645426Y-35243209D01*
X66645423Y-35243216D01*
X66604500Y-35395943D01*
X31298931Y-35395943D01*
X24625253Y-29480611D01*
X24529731Y-29395943D01*
X66604500Y-29395943D01*
X66604500Y-29554056D01*
X66645423Y-29706783D01*
X66645426Y-29706790D01*
X66724475Y-29843709D01*
X66724479Y-29843714D01*
X66724480Y-29843716D01*
X66836284Y-29955520D01*
X66836286Y-29955521D01*
X66836290Y-29955524D01*
X66853024Y-29965185D01*
X66973216Y-30034577D01*
X67125943Y-30075500D01*
X67125945Y-30075500D01*
X67284055Y-30075500D01*
X67284057Y-30075500D01*
X67436784Y-30034577D01*
X67506072Y-29994574D01*
X67562298Y-29962113D01*
X67624297Y-29945500D01*
X70344736Y-29945500D01*
X70411775Y-29965185D01*
X70443540Y-29994574D01*
X70537079Y-30117923D01*
X70657656Y-30209360D01*
X70657657Y-30209360D01*
X70657658Y-30209361D01*
X70798436Y-30264877D01*
X70886898Y-30275500D01*
X70886903Y-30275500D01*
X71523095Y-30275500D01*
X71523102Y-30275500D01*
X71601218Y-30266119D01*
X71670124Y-30277671D01*
X71721848Y-30324643D01*
X71740000Y-30389235D01*
X71740000Y-30425000D01*
X73830000Y-30425000D01*
X73830000Y-28525000D01*
X71740000Y-28525000D01*
X71740000Y-28560764D01*
X71720315Y-28627803D01*
X71667511Y-28673558D01*
X71601217Y-28683880D01*
X71566682Y-28679733D01*
X71523102Y-28674500D01*
X70886898Y-28674500D01*
X70847853Y-28679188D01*
X70798438Y-28685122D01*
X70657656Y-28740639D01*
X70537079Y-28832076D01*
X70443540Y-28955426D01*
X70387347Y-28996949D01*
X70344736Y-29004500D01*
X67624297Y-29004500D01*
X67562298Y-28987887D01*
X67436790Y-28915426D01*
X67436786Y-28915424D01*
X67436784Y-28915423D01*
X67284057Y-28874500D01*
X67125943Y-28874500D01*
X66973216Y-28915423D01*
X66973209Y-28915426D01*
X66836290Y-28994475D01*
X66836282Y-28994481D01*
X66724481Y-29106282D01*
X66724475Y-29106290D01*
X66645426Y-29243209D01*
X66645423Y-29243216D01*
X66604500Y-29395943D01*
X24529731Y-29395943D01*
X20850477Y-26134772D01*
X20847687Y-26132299D01*
X20813894Y-26098506D01*
X20801467Y-26091331D01*
X20792079Y-26083010D01*
X20792079Y-26083009D01*
X20792078Y-26083009D01*
X20790734Y-26081817D01*
X20790732Y-26081816D01*
X20751315Y-26062117D01*
X20744760Y-26058591D01*
X20706610Y-26036566D01*
X20706607Y-26036565D01*
X20706606Y-26036564D01*
X20706604Y-26036563D01*
X20706603Y-26036563D01*
X20704863Y-26036097D01*
X20681531Y-26027244D01*
X20679916Y-26026437D01*
X20636736Y-26017609D01*
X20636736Y-26017608D01*
X20633059Y-26016856D01*
X20586943Y-26004500D01*
X20572603Y-26004500D01*
X20560313Y-26001988D01*
X20560310Y-26001988D01*
X20558541Y-26001626D01*
X20558539Y-26001626D01*
X20530477Y-26003316D01*
X20514551Y-26004276D01*
X20507096Y-26004500D01*
X17385264Y-26004500D01*
X17318225Y-25984815D01*
X17286460Y-25955426D01*
X17192920Y-25832076D01*
X17072343Y-25740639D01*
X16931561Y-25685122D01*
X16885926Y-25679642D01*
X16843102Y-25674500D01*
X16206898Y-25674500D01*
X16163317Y-25679733D01*
X16128783Y-25683880D01*
X16059875Y-25672328D01*
X16008151Y-25625355D01*
X15990000Y-25560764D01*
X15990000Y-25525000D01*
X13900000Y-25525000D01*
X13900000Y-27425000D01*
X9500500Y-27425000D01*
X9500500Y-23395943D01*
X66604500Y-23395943D01*
X66604500Y-23554056D01*
X66645423Y-23706783D01*
X66645426Y-23706790D01*
X66724475Y-23843709D01*
X66724479Y-23843714D01*
X66724480Y-23843716D01*
X66836284Y-23955520D01*
X66836286Y-23955521D01*
X66836290Y-23955524D01*
X66853024Y-23965185D01*
X66973216Y-24034577D01*
X67125943Y-24075500D01*
X67125945Y-24075500D01*
X67284055Y-24075500D01*
X67284057Y-24075500D01*
X67436784Y-24034577D01*
X67506072Y-23994574D01*
X67562298Y-23962113D01*
X67624297Y-23945500D01*
X70344736Y-23945500D01*
X70411775Y-23965185D01*
X70443540Y-23994574D01*
X70537079Y-24117923D01*
X70657656Y-24209360D01*
X70657657Y-24209360D01*
X70657658Y-24209361D01*
X70798436Y-24264877D01*
X70886898Y-24275500D01*
X70886903Y-24275500D01*
X71523095Y-24275500D01*
X71523102Y-24275500D01*
X71601218Y-24266119D01*
X71670124Y-24277671D01*
X71721848Y-24324643D01*
X71740000Y-24389235D01*
X71740000Y-24425000D01*
X73830000Y-24425000D01*
X73830000Y-22525000D01*
X71740000Y-22525000D01*
X71740000Y-22560764D01*
X71720315Y-22627803D01*
X71667511Y-22673558D01*
X71601217Y-22683880D01*
X71566682Y-22679733D01*
X71523102Y-22674500D01*
X70886898Y-22674500D01*
X70847853Y-22679188D01*
X70798438Y-22685122D01*
X70657656Y-22740639D01*
X70537079Y-22832076D01*
X70443540Y-22955426D01*
X70387347Y-22996949D01*
X70344736Y-23004500D01*
X67624297Y-23004500D01*
X67562298Y-22987887D01*
X67436790Y-22915426D01*
X67436786Y-22915424D01*
X67436784Y-22915423D01*
X67284057Y-22874500D01*
X67125943Y-22874500D01*
X66973216Y-22915423D01*
X66973209Y-22915426D01*
X66836290Y-22994475D01*
X66836282Y-22994481D01*
X66724481Y-23106282D01*
X66724475Y-23106290D01*
X66645426Y-23243209D01*
X66645423Y-23243216D01*
X66604500Y-23395943D01*
X9500500Y-23395943D01*
X9500500Y-14878711D01*
X14674500Y-14878711D01*
X14674500Y-15121288D01*
X14706161Y-15361785D01*
X14768947Y-15596104D01*
X14861773Y-15820205D01*
X14861776Y-15820212D01*
X14983064Y-16030289D01*
X14983066Y-16030292D01*
X14983067Y-16030293D01*
X15130733Y-16222736D01*
X15130739Y-16222743D01*
X15302256Y-16394260D01*
X15302262Y-16394265D01*
X15494711Y-16541936D01*
X15704788Y-16663224D01*
X15928900Y-16756054D01*
X16163211Y-16818838D01*
X16343586Y-16842584D01*
X16403711Y-16850500D01*
X16403712Y-16850500D01*
X16646289Y-16850500D01*
X16694388Y-16844167D01*
X16886789Y-16818838D01*
X17121100Y-16756054D01*
X17345212Y-16663224D01*
X17555289Y-16541936D01*
X17747738Y-16394265D01*
X17919265Y-16222738D01*
X18066936Y-16030289D01*
X18188224Y-15820212D01*
X18281054Y-15596100D01*
X18343838Y-15361789D01*
X18375500Y-15121288D01*
X18375500Y-14878712D01*
X18375500Y-14878711D01*
X69354500Y-14878711D01*
X69354500Y-15121288D01*
X69386161Y-15361785D01*
X69448947Y-15596104D01*
X69541773Y-15820205D01*
X69541776Y-15820212D01*
X69663064Y-16030289D01*
X69663066Y-16030292D01*
X69663067Y-16030293D01*
X69810733Y-16222736D01*
X69810739Y-16222743D01*
X69982256Y-16394260D01*
X69982262Y-16394265D01*
X70174711Y-16541936D01*
X70384788Y-16663224D01*
X70608900Y-16756054D01*
X70843211Y-16818838D01*
X71023586Y-16842584D01*
X71083711Y-16850500D01*
X71083712Y-16850500D01*
X71326289Y-16850500D01*
X71374388Y-16844167D01*
X71566789Y-16818838D01*
X71801100Y-16756054D01*
X72025212Y-16663224D01*
X72235289Y-16541936D01*
X72427738Y-16394265D01*
X72599265Y-16222738D01*
X72746936Y-16030289D01*
X72868224Y-15820212D01*
X72961054Y-15596100D01*
X73023838Y-15361789D01*
X73055500Y-15121288D01*
X73055500Y-14878712D01*
X73023838Y-14638211D01*
X72961054Y-14403900D01*
X72868224Y-14179788D01*
X72746936Y-13969711D01*
X72599265Y-13777262D01*
X72599260Y-13777256D01*
X72427743Y-13605739D01*
X72427736Y-13605733D01*
X72235293Y-13458067D01*
X72235292Y-13458066D01*
X72235289Y-13458064D01*
X72025212Y-13336776D01*
X72025205Y-13336773D01*
X71801104Y-13243947D01*
X71566785Y-13181161D01*
X71326289Y-13149500D01*
X71326288Y-13149500D01*
X71083712Y-13149500D01*
X71083711Y-13149500D01*
X70843214Y-13181161D01*
X70608895Y-13243947D01*
X70384794Y-13336773D01*
X70384785Y-13336777D01*
X70174706Y-13458067D01*
X69982263Y-13605733D01*
X69982256Y-13605739D01*
X69810739Y-13777256D01*
X69810733Y-13777263D01*
X69663067Y-13969706D01*
X69541777Y-14179785D01*
X69541773Y-14179794D01*
X69448947Y-14403895D01*
X69386161Y-14638214D01*
X69354500Y-14878711D01*
X18375500Y-14878711D01*
X18343838Y-14638211D01*
X18281054Y-14403900D01*
X18188224Y-14179788D01*
X18066936Y-13969711D01*
X17919265Y-13777262D01*
X17919260Y-13777256D01*
X17747743Y-13605739D01*
X17747736Y-13605733D01*
X17555293Y-13458067D01*
X17555292Y-13458066D01*
X17555289Y-13458064D01*
X17345212Y-13336776D01*
X17345205Y-13336773D01*
X17121104Y-13243947D01*
X16886785Y-13181161D01*
X16646289Y-13149500D01*
X16646288Y-13149500D01*
X16403712Y-13149500D01*
X16403711Y-13149500D01*
X16163214Y-13181161D01*
X15928895Y-13243947D01*
X15704794Y-13336773D01*
X15704785Y-13336777D01*
X15494706Y-13458067D01*
X15302263Y-13605733D01*
X15302256Y-13605739D01*
X15130739Y-13777256D01*
X15130733Y-13777263D01*
X14983067Y-13969706D01*
X14861777Y-14179785D01*
X14861773Y-14179794D01*
X14768947Y-14403895D01*
X14706161Y-14638214D01*
X14674500Y-14878711D01*
X9500500Y-14878711D01*
X9500500Y-10624500D01*
X9520185Y-10557461D01*
X9572989Y-10511706D01*
X9624500Y-10500500D01*
X78105500Y-10500500D01*
X78172539Y-10520185D01*
G37*
%TD.AperFunction*%
%TD*%
M02*
