%TF.GenerationSoftware,KiCad,Pcbnew,10.0.3*%
%TF.CreationDate,2026-06-17T00:20:38-04:00*%
%TF.ProjectId,board-C-ufl,626f6172-642d-4432-9d75-666c2e6b6963,rev?*%
%TF.SameCoordinates,Original*%
%TF.FileFunction,Legend,Top*%
%TF.FilePolarity,Positive*%
%FSLAX46Y46*%
G04 Gerber Fmt 4.6, Leading zero omitted, Abs format (unit mm)*
G04 Created by KiCad (PCBNEW 10.0.3) date 2026-06-17 00:20:38*
%MOMM*%
%LPD*%
G01*
G04 APERTURE LIST*
%ADD10C,0.150000*%
%ADD11C,0.120000*%
%ADD12C,0.200000*%
G04 APERTURE END LIST*
D10*
X13785714Y-39129819D02*
X13785714Y-38129819D01*
X14357142Y-39129819D02*
X13928571Y-38558390D01*
X14357142Y-38129819D02*
X13785714Y-38701247D01*
X15309523Y-39129819D02*
X14738095Y-39129819D01*
X15023809Y-39129819D02*
X15023809Y-38129819D01*
X15023809Y-38129819D02*
X14928571Y-38272676D01*
X14928571Y-38272676D02*
X14833333Y-38367914D01*
X14833333Y-38367914D02*
X14738095Y-38415533D01*
X15880952Y-38558390D02*
X15785714Y-38510771D01*
X15785714Y-38510771D02*
X15738095Y-38463152D01*
X15738095Y-38463152D02*
X15690476Y-38367914D01*
X15690476Y-38367914D02*
X15690476Y-38320295D01*
X15690476Y-38320295D02*
X15738095Y-38225057D01*
X15738095Y-38225057D02*
X15785714Y-38177438D01*
X15785714Y-38177438D02*
X15880952Y-38129819D01*
X15880952Y-38129819D02*
X16071428Y-38129819D01*
X16071428Y-38129819D02*
X16166666Y-38177438D01*
X16166666Y-38177438D02*
X16214285Y-38225057D01*
X16214285Y-38225057D02*
X16261904Y-38320295D01*
X16261904Y-38320295D02*
X16261904Y-38367914D01*
X16261904Y-38367914D02*
X16214285Y-38463152D01*
X16214285Y-38463152D02*
X16166666Y-38510771D01*
X16166666Y-38510771D02*
X16071428Y-38558390D01*
X16071428Y-38558390D02*
X15880952Y-38558390D01*
X15880952Y-38558390D02*
X15785714Y-38606009D01*
X15785714Y-38606009D02*
X15738095Y-38653628D01*
X15738095Y-38653628D02*
X15690476Y-38748866D01*
X15690476Y-38748866D02*
X15690476Y-38939342D01*
X15690476Y-38939342D02*
X15738095Y-39034580D01*
X15738095Y-39034580D02*
X15785714Y-39082200D01*
X15785714Y-39082200D02*
X15880952Y-39129819D01*
X15880952Y-39129819D02*
X16071428Y-39129819D01*
X16071428Y-39129819D02*
X16166666Y-39082200D01*
X16166666Y-39082200D02*
X16214285Y-39034580D01*
X16214285Y-39034580D02*
X16261904Y-38939342D01*
X16261904Y-38939342D02*
X16261904Y-38748866D01*
X16261904Y-38748866D02*
X16214285Y-38653628D01*
X16214285Y-38653628D02*
X16166666Y-38606009D01*
X16166666Y-38606009D02*
X16071428Y-38558390D01*
X13785714Y-51129819D02*
X13785714Y-50129819D01*
X14357142Y-51129819D02*
X13928571Y-50558390D01*
X14357142Y-50129819D02*
X13785714Y-50701247D01*
X14738095Y-50225057D02*
X14785714Y-50177438D01*
X14785714Y-50177438D02*
X14880952Y-50129819D01*
X14880952Y-50129819D02*
X15119047Y-50129819D01*
X15119047Y-50129819D02*
X15214285Y-50177438D01*
X15214285Y-50177438D02*
X15261904Y-50225057D01*
X15261904Y-50225057D02*
X15309523Y-50320295D01*
X15309523Y-50320295D02*
X15309523Y-50415533D01*
X15309523Y-50415533D02*
X15261904Y-50558390D01*
X15261904Y-50558390D02*
X14690476Y-51129819D01*
X14690476Y-51129819D02*
X15309523Y-51129819D01*
X15928571Y-50129819D02*
X16023809Y-50129819D01*
X16023809Y-50129819D02*
X16119047Y-50177438D01*
X16119047Y-50177438D02*
X16166666Y-50225057D01*
X16166666Y-50225057D02*
X16214285Y-50320295D01*
X16214285Y-50320295D02*
X16261904Y-50510771D01*
X16261904Y-50510771D02*
X16261904Y-50748866D01*
X16261904Y-50748866D02*
X16214285Y-50939342D01*
X16214285Y-50939342D02*
X16166666Y-51034580D01*
X16166666Y-51034580D02*
X16119047Y-51082200D01*
X16119047Y-51082200D02*
X16023809Y-51129819D01*
X16023809Y-51129819D02*
X15928571Y-51129819D01*
X15928571Y-51129819D02*
X15833333Y-51082200D01*
X15833333Y-51082200D02*
X15785714Y-51034580D01*
X15785714Y-51034580D02*
X15738095Y-50939342D01*
X15738095Y-50939342D02*
X15690476Y-50748866D01*
X15690476Y-50748866D02*
X15690476Y-50510771D01*
X15690476Y-50510771D02*
X15738095Y-50320295D01*
X15738095Y-50320295D02*
X15785714Y-50225057D01*
X15785714Y-50225057D02*
X15833333Y-50177438D01*
X15833333Y-50177438D02*
X15928571Y-50129819D01*
X71515714Y-53729819D02*
X71515714Y-52729819D01*
X72087142Y-53729819D02*
X71658571Y-53158390D01*
X72087142Y-52729819D02*
X71515714Y-53301247D01*
X73039523Y-53729819D02*
X72468095Y-53729819D01*
X72753809Y-53729819D02*
X72753809Y-52729819D01*
X72753809Y-52729819D02*
X72658571Y-52872676D01*
X72658571Y-52872676D02*
X72563333Y-52967914D01*
X72563333Y-52967914D02*
X72468095Y-53015533D01*
X73420476Y-52825057D02*
X73468095Y-52777438D01*
X73468095Y-52777438D02*
X73563333Y-52729819D01*
X73563333Y-52729819D02*
X73801428Y-52729819D01*
X73801428Y-52729819D02*
X73896666Y-52777438D01*
X73896666Y-52777438D02*
X73944285Y-52825057D01*
X73944285Y-52825057D02*
X73991904Y-52920295D01*
X73991904Y-52920295D02*
X73991904Y-53015533D01*
X73991904Y-53015533D02*
X73944285Y-53158390D01*
X73944285Y-53158390D02*
X73372857Y-53729819D01*
X73372857Y-53729819D02*
X73991904Y-53729819D01*
X15191667Y-100254819D02*
X15191667Y-99254819D01*
X15191667Y-99254819D02*
X15525000Y-99969104D01*
X15525000Y-99969104D02*
X15858333Y-99254819D01*
X15858333Y-99254819D02*
X15858333Y-100254819D01*
X16334524Y-100254819D02*
X16334524Y-99254819D01*
X16334524Y-99731009D02*
X16905952Y-99731009D01*
X16905952Y-100254819D02*
X16905952Y-99254819D01*
X17286905Y-99254819D02*
X17905952Y-99254819D01*
X17905952Y-99254819D02*
X17572619Y-99635771D01*
X17572619Y-99635771D02*
X17715476Y-99635771D01*
X17715476Y-99635771D02*
X17810714Y-99683390D01*
X17810714Y-99683390D02*
X17858333Y-99731009D01*
X17858333Y-99731009D02*
X17905952Y-99826247D01*
X17905952Y-99826247D02*
X17905952Y-100064342D01*
X17905952Y-100064342D02*
X17858333Y-100159580D01*
X17858333Y-100159580D02*
X17810714Y-100207200D01*
X17810714Y-100207200D02*
X17715476Y-100254819D01*
X17715476Y-100254819D02*
X17429762Y-100254819D01*
X17429762Y-100254819D02*
X17334524Y-100207200D01*
X17334524Y-100207200D02*
X17286905Y-100159580D01*
X15191667Y-11304819D02*
X15191667Y-10304819D01*
X15191667Y-10304819D02*
X15525000Y-11019104D01*
X15525000Y-11019104D02*
X15858333Y-10304819D01*
X15858333Y-10304819D02*
X15858333Y-11304819D01*
X16334524Y-11304819D02*
X16334524Y-10304819D01*
X16334524Y-10781009D02*
X16905952Y-10781009D01*
X16905952Y-11304819D02*
X16905952Y-10304819D01*
X17905952Y-11304819D02*
X17334524Y-11304819D01*
X17620238Y-11304819D02*
X17620238Y-10304819D01*
X17620238Y-10304819D02*
X17525000Y-10447676D01*
X17525000Y-10447676D02*
X17429762Y-10542914D01*
X17429762Y-10542914D02*
X17334524Y-10590533D01*
X71991905Y-89729819D02*
X71991905Y-88729819D01*
X72563333Y-89729819D02*
X72134762Y-89158390D01*
X72563333Y-88729819D02*
X71991905Y-89301247D01*
X73515714Y-89729819D02*
X72944286Y-89729819D01*
X73230000Y-89729819D02*
X73230000Y-88729819D01*
X73230000Y-88729819D02*
X73134762Y-88872676D01*
X73134762Y-88872676D02*
X73039524Y-88967914D01*
X73039524Y-88967914D02*
X72944286Y-89015533D01*
X37731819Y-77523333D02*
X38446104Y-77523333D01*
X38446104Y-77523333D02*
X38588961Y-77570952D01*
X38588961Y-77570952D02*
X38684200Y-77666190D01*
X38684200Y-77666190D02*
X38731819Y-77809047D01*
X38731819Y-77809047D02*
X38731819Y-77904285D01*
X37731819Y-76570952D02*
X37731819Y-77047142D01*
X37731819Y-77047142D02*
X38208009Y-77094761D01*
X38208009Y-77094761D02*
X38160390Y-77047142D01*
X38160390Y-77047142D02*
X38112771Y-76951904D01*
X38112771Y-76951904D02*
X38112771Y-76713809D01*
X38112771Y-76713809D02*
X38160390Y-76618571D01*
X38160390Y-76618571D02*
X38208009Y-76570952D01*
X38208009Y-76570952D02*
X38303247Y-76523333D01*
X38303247Y-76523333D02*
X38541342Y-76523333D01*
X38541342Y-76523333D02*
X38636580Y-76570952D01*
X38636580Y-76570952D02*
X38684200Y-76618571D01*
X38684200Y-76618571D02*
X38731819Y-76713809D01*
X38731819Y-76713809D02*
X38731819Y-76951904D01*
X38731819Y-76951904D02*
X38684200Y-77047142D01*
X38684200Y-77047142D02*
X38636580Y-77094761D01*
X14261905Y-99129819D02*
X14261905Y-98129819D01*
X14833333Y-99129819D02*
X14404762Y-98558390D01*
X14833333Y-98129819D02*
X14261905Y-98701247D01*
X15166667Y-98129819D02*
X15833333Y-98129819D01*
X15833333Y-98129819D02*
X15404762Y-99129819D01*
X69871667Y-100254819D02*
X69871667Y-99254819D01*
X69871667Y-99254819D02*
X70205000Y-99969104D01*
X70205000Y-99969104D02*
X70538333Y-99254819D01*
X70538333Y-99254819D02*
X70538333Y-100254819D01*
X71014524Y-100254819D02*
X71014524Y-99254819D01*
X71014524Y-99731009D02*
X71585952Y-99731009D01*
X71585952Y-100254819D02*
X71585952Y-99254819D01*
X72490714Y-99588152D02*
X72490714Y-100254819D01*
X72252619Y-99207200D02*
X72014524Y-99921485D01*
X72014524Y-99921485D02*
X72633571Y-99921485D01*
X14261905Y-87129819D02*
X14261905Y-86129819D01*
X14833333Y-87129819D02*
X14404762Y-86558390D01*
X14833333Y-86129819D02*
X14261905Y-86701247D01*
X15738095Y-86129819D02*
X15261905Y-86129819D01*
X15261905Y-86129819D02*
X15214286Y-86606009D01*
X15214286Y-86606009D02*
X15261905Y-86558390D01*
X15261905Y-86558390D02*
X15357143Y-86510771D01*
X15357143Y-86510771D02*
X15595238Y-86510771D01*
X15595238Y-86510771D02*
X15690476Y-86558390D01*
X15690476Y-86558390D02*
X15738095Y-86606009D01*
X15738095Y-86606009D02*
X15785714Y-86701247D01*
X15785714Y-86701247D02*
X15785714Y-86939342D01*
X15785714Y-86939342D02*
X15738095Y-87034580D01*
X15738095Y-87034580D02*
X15690476Y-87082200D01*
X15690476Y-87082200D02*
X15595238Y-87129819D01*
X15595238Y-87129819D02*
X15357143Y-87129819D01*
X15357143Y-87129819D02*
X15261905Y-87082200D01*
X15261905Y-87082200D02*
X15214286Y-87034580D01*
X71515714Y-41729819D02*
X71515714Y-40729819D01*
X72087142Y-41729819D02*
X71658571Y-41158390D01*
X72087142Y-40729819D02*
X71515714Y-41301247D01*
X73039523Y-41729819D02*
X72468095Y-41729819D01*
X72753809Y-41729819D02*
X72753809Y-40729819D01*
X72753809Y-40729819D02*
X72658571Y-40872676D01*
X72658571Y-40872676D02*
X72563333Y-40967914D01*
X72563333Y-40967914D02*
X72468095Y-41015533D01*
X73896666Y-41063152D02*
X73896666Y-41729819D01*
X73658571Y-40682200D02*
X73420476Y-41396485D01*
X73420476Y-41396485D02*
X74039523Y-41396485D01*
X71991905Y-77729819D02*
X71991905Y-76729819D01*
X72563333Y-77729819D02*
X72134762Y-77158390D01*
X72563333Y-76729819D02*
X71991905Y-77301247D01*
X73182381Y-76729819D02*
X73277619Y-76729819D01*
X73277619Y-76729819D02*
X73372857Y-76777438D01*
X73372857Y-76777438D02*
X73420476Y-76825057D01*
X73420476Y-76825057D02*
X73468095Y-76920295D01*
X73468095Y-76920295D02*
X73515714Y-77110771D01*
X73515714Y-77110771D02*
X73515714Y-77348866D01*
X73515714Y-77348866D02*
X73468095Y-77539342D01*
X73468095Y-77539342D02*
X73420476Y-77634580D01*
X73420476Y-77634580D02*
X73372857Y-77682200D01*
X73372857Y-77682200D02*
X73277619Y-77729819D01*
X73277619Y-77729819D02*
X73182381Y-77729819D01*
X73182381Y-77729819D02*
X73087143Y-77682200D01*
X73087143Y-77682200D02*
X73039524Y-77634580D01*
X73039524Y-77634580D02*
X72991905Y-77539342D01*
X72991905Y-77539342D02*
X72944286Y-77348866D01*
X72944286Y-77348866D02*
X72944286Y-77110771D01*
X72944286Y-77110771D02*
X72991905Y-76920295D01*
X72991905Y-76920295D02*
X73039524Y-76825057D01*
X73039524Y-76825057D02*
X73087143Y-76777438D01*
X73087143Y-76777438D02*
X73182381Y-76729819D01*
X71991905Y-71729819D02*
X71991905Y-70729819D01*
X72563333Y-71729819D02*
X72134762Y-71158390D01*
X72563333Y-70729819D02*
X71991905Y-71301247D01*
X73039524Y-71729819D02*
X73230000Y-71729819D01*
X73230000Y-71729819D02*
X73325238Y-71682200D01*
X73325238Y-71682200D02*
X73372857Y-71634580D01*
X73372857Y-71634580D02*
X73468095Y-71491723D01*
X73468095Y-71491723D02*
X73515714Y-71301247D01*
X73515714Y-71301247D02*
X73515714Y-70920295D01*
X73515714Y-70920295D02*
X73468095Y-70825057D01*
X73468095Y-70825057D02*
X73420476Y-70777438D01*
X73420476Y-70777438D02*
X73325238Y-70729819D01*
X73325238Y-70729819D02*
X73134762Y-70729819D01*
X73134762Y-70729819D02*
X73039524Y-70777438D01*
X73039524Y-70777438D02*
X72991905Y-70825057D01*
X72991905Y-70825057D02*
X72944286Y-70920295D01*
X72944286Y-70920295D02*
X72944286Y-71158390D01*
X72944286Y-71158390D02*
X72991905Y-71253628D01*
X72991905Y-71253628D02*
X73039524Y-71301247D01*
X73039524Y-71301247D02*
X73134762Y-71348866D01*
X73134762Y-71348866D02*
X73325238Y-71348866D01*
X73325238Y-71348866D02*
X73420476Y-71301247D01*
X73420476Y-71301247D02*
X73468095Y-71253628D01*
X73468095Y-71253628D02*
X73515714Y-71158390D01*
X13785714Y-45129819D02*
X13785714Y-44129819D01*
X14357142Y-45129819D02*
X13928571Y-44558390D01*
X14357142Y-44129819D02*
X13785714Y-44701247D01*
X15309523Y-45129819D02*
X14738095Y-45129819D01*
X15023809Y-45129819D02*
X15023809Y-44129819D01*
X15023809Y-44129819D02*
X14928571Y-44272676D01*
X14928571Y-44272676D02*
X14833333Y-44367914D01*
X14833333Y-44367914D02*
X14738095Y-44415533D01*
X15785714Y-45129819D02*
X15976190Y-45129819D01*
X15976190Y-45129819D02*
X16071428Y-45082200D01*
X16071428Y-45082200D02*
X16119047Y-45034580D01*
X16119047Y-45034580D02*
X16214285Y-44891723D01*
X16214285Y-44891723D02*
X16261904Y-44701247D01*
X16261904Y-44701247D02*
X16261904Y-44320295D01*
X16261904Y-44320295D02*
X16214285Y-44225057D01*
X16214285Y-44225057D02*
X16166666Y-44177438D01*
X16166666Y-44177438D02*
X16071428Y-44129819D01*
X16071428Y-44129819D02*
X15880952Y-44129819D01*
X15880952Y-44129819D02*
X15785714Y-44177438D01*
X15785714Y-44177438D02*
X15738095Y-44225057D01*
X15738095Y-44225057D02*
X15690476Y-44320295D01*
X15690476Y-44320295D02*
X15690476Y-44558390D01*
X15690476Y-44558390D02*
X15738095Y-44653628D01*
X15738095Y-44653628D02*
X15785714Y-44701247D01*
X15785714Y-44701247D02*
X15880952Y-44748866D01*
X15880952Y-44748866D02*
X16071428Y-44748866D01*
X16071428Y-44748866D02*
X16166666Y-44701247D01*
X16166666Y-44701247D02*
X16214285Y-44653628D01*
X16214285Y-44653628D02*
X16261904Y-44558390D01*
X71515714Y-47729819D02*
X71515714Y-46729819D01*
X72087142Y-47729819D02*
X71658571Y-47158390D01*
X72087142Y-46729819D02*
X71515714Y-47301247D01*
X73039523Y-47729819D02*
X72468095Y-47729819D01*
X72753809Y-47729819D02*
X72753809Y-46729819D01*
X72753809Y-46729819D02*
X72658571Y-46872676D01*
X72658571Y-46872676D02*
X72563333Y-46967914D01*
X72563333Y-46967914D02*
X72468095Y-47015533D01*
X73372857Y-46729819D02*
X73991904Y-46729819D01*
X73991904Y-46729819D02*
X73658571Y-47110771D01*
X73658571Y-47110771D02*
X73801428Y-47110771D01*
X73801428Y-47110771D02*
X73896666Y-47158390D01*
X73896666Y-47158390D02*
X73944285Y-47206009D01*
X73944285Y-47206009D02*
X73991904Y-47301247D01*
X73991904Y-47301247D02*
X73991904Y-47539342D01*
X73991904Y-47539342D02*
X73944285Y-47634580D01*
X73944285Y-47634580D02*
X73896666Y-47682200D01*
X73896666Y-47682200D02*
X73801428Y-47729819D01*
X73801428Y-47729819D02*
X73515714Y-47729819D01*
X73515714Y-47729819D02*
X73420476Y-47682200D01*
X73420476Y-47682200D02*
X73372857Y-47634580D01*
X71991905Y-83729819D02*
X71991905Y-82729819D01*
X72563333Y-83729819D02*
X72134762Y-83158390D01*
X72563333Y-82729819D02*
X71991905Y-83301247D01*
X73134762Y-83158390D02*
X73039524Y-83110771D01*
X73039524Y-83110771D02*
X72991905Y-83063152D01*
X72991905Y-83063152D02*
X72944286Y-82967914D01*
X72944286Y-82967914D02*
X72944286Y-82920295D01*
X72944286Y-82920295D02*
X72991905Y-82825057D01*
X72991905Y-82825057D02*
X73039524Y-82777438D01*
X73039524Y-82777438D02*
X73134762Y-82729819D01*
X73134762Y-82729819D02*
X73325238Y-82729819D01*
X73325238Y-82729819D02*
X73420476Y-82777438D01*
X73420476Y-82777438D02*
X73468095Y-82825057D01*
X73468095Y-82825057D02*
X73515714Y-82920295D01*
X73515714Y-82920295D02*
X73515714Y-82967914D01*
X73515714Y-82967914D02*
X73468095Y-83063152D01*
X73468095Y-83063152D02*
X73420476Y-83110771D01*
X73420476Y-83110771D02*
X73325238Y-83158390D01*
X73325238Y-83158390D02*
X73134762Y-83158390D01*
X73134762Y-83158390D02*
X73039524Y-83206009D01*
X73039524Y-83206009D02*
X72991905Y-83253628D01*
X72991905Y-83253628D02*
X72944286Y-83348866D01*
X72944286Y-83348866D02*
X72944286Y-83539342D01*
X72944286Y-83539342D02*
X72991905Y-83634580D01*
X72991905Y-83634580D02*
X73039524Y-83682200D01*
X73039524Y-83682200D02*
X73134762Y-83729819D01*
X73134762Y-83729819D02*
X73325238Y-83729819D01*
X73325238Y-83729819D02*
X73420476Y-83682200D01*
X73420476Y-83682200D02*
X73468095Y-83634580D01*
X73468095Y-83634580D02*
X73515714Y-83539342D01*
X73515714Y-83539342D02*
X73515714Y-83348866D01*
X73515714Y-83348866D02*
X73468095Y-83253628D01*
X73468095Y-83253628D02*
X73420476Y-83206009D01*
X73420476Y-83206009D02*
X73325238Y-83158390D01*
X71515714Y-29729819D02*
X71515714Y-28729819D01*
X72087142Y-29729819D02*
X71658571Y-29158390D01*
X72087142Y-28729819D02*
X71515714Y-29301247D01*
X73039523Y-29729819D02*
X72468095Y-29729819D01*
X72753809Y-29729819D02*
X72753809Y-28729819D01*
X72753809Y-28729819D02*
X72658571Y-28872676D01*
X72658571Y-28872676D02*
X72563333Y-28967914D01*
X72563333Y-28967914D02*
X72468095Y-29015533D01*
X73944285Y-28729819D02*
X73468095Y-28729819D01*
X73468095Y-28729819D02*
X73420476Y-29206009D01*
X73420476Y-29206009D02*
X73468095Y-29158390D01*
X73468095Y-29158390D02*
X73563333Y-29110771D01*
X73563333Y-29110771D02*
X73801428Y-29110771D01*
X73801428Y-29110771D02*
X73896666Y-29158390D01*
X73896666Y-29158390D02*
X73944285Y-29206009D01*
X73944285Y-29206009D02*
X73991904Y-29301247D01*
X73991904Y-29301247D02*
X73991904Y-29539342D01*
X73991904Y-29539342D02*
X73944285Y-29634580D01*
X73944285Y-29634580D02*
X73896666Y-29682200D01*
X73896666Y-29682200D02*
X73801428Y-29729819D01*
X73801428Y-29729819D02*
X73563333Y-29729819D01*
X73563333Y-29729819D02*
X73468095Y-29682200D01*
X73468095Y-29682200D02*
X73420476Y-29634580D01*
X71515714Y-59729819D02*
X71515714Y-58729819D01*
X72087142Y-59729819D02*
X71658571Y-59158390D01*
X72087142Y-58729819D02*
X71515714Y-59301247D01*
X73039523Y-59729819D02*
X72468095Y-59729819D01*
X72753809Y-59729819D02*
X72753809Y-58729819D01*
X72753809Y-58729819D02*
X72658571Y-58872676D01*
X72658571Y-58872676D02*
X72563333Y-58967914D01*
X72563333Y-58967914D02*
X72468095Y-59015533D01*
X73991904Y-59729819D02*
X73420476Y-59729819D01*
X73706190Y-59729819D02*
X73706190Y-58729819D01*
X73706190Y-58729819D02*
X73610952Y-58872676D01*
X73610952Y-58872676D02*
X73515714Y-58967914D01*
X73515714Y-58967914D02*
X73420476Y-59015533D01*
X69871667Y-11304819D02*
X69871667Y-10304819D01*
X69871667Y-10304819D02*
X70205000Y-11019104D01*
X70205000Y-11019104D02*
X70538333Y-10304819D01*
X70538333Y-10304819D02*
X70538333Y-11304819D01*
X71014524Y-11304819D02*
X71014524Y-10304819D01*
X71014524Y-10781009D02*
X71585952Y-10781009D01*
X71585952Y-11304819D02*
X71585952Y-10304819D01*
X72014524Y-10400057D02*
X72062143Y-10352438D01*
X72062143Y-10352438D02*
X72157381Y-10304819D01*
X72157381Y-10304819D02*
X72395476Y-10304819D01*
X72395476Y-10304819D02*
X72490714Y-10352438D01*
X72490714Y-10352438D02*
X72538333Y-10400057D01*
X72538333Y-10400057D02*
X72585952Y-10495295D01*
X72585952Y-10495295D02*
X72585952Y-10590533D01*
X72585952Y-10590533D02*
X72538333Y-10733390D01*
X72538333Y-10733390D02*
X71966905Y-11304819D01*
X71966905Y-11304819D02*
X72585952Y-11304819D01*
X13785714Y-33129819D02*
X13785714Y-32129819D01*
X14357142Y-33129819D02*
X13928571Y-32558390D01*
X14357142Y-32129819D02*
X13785714Y-32701247D01*
X15309523Y-33129819D02*
X14738095Y-33129819D01*
X15023809Y-33129819D02*
X15023809Y-32129819D01*
X15023809Y-32129819D02*
X14928571Y-32272676D01*
X14928571Y-32272676D02*
X14833333Y-32367914D01*
X14833333Y-32367914D02*
X14738095Y-32415533D01*
X15642857Y-32129819D02*
X16309523Y-32129819D01*
X16309523Y-32129819D02*
X15880952Y-33129819D01*
X71515714Y-35729819D02*
X71515714Y-34729819D01*
X72087142Y-35729819D02*
X71658571Y-35158390D01*
X72087142Y-34729819D02*
X71515714Y-35301247D01*
X72468095Y-34825057D02*
X72515714Y-34777438D01*
X72515714Y-34777438D02*
X72610952Y-34729819D01*
X72610952Y-34729819D02*
X72849047Y-34729819D01*
X72849047Y-34729819D02*
X72944285Y-34777438D01*
X72944285Y-34777438D02*
X72991904Y-34825057D01*
X72991904Y-34825057D02*
X73039523Y-34920295D01*
X73039523Y-34920295D02*
X73039523Y-35015533D01*
X73039523Y-35015533D02*
X72991904Y-35158390D01*
X72991904Y-35158390D02*
X72420476Y-35729819D01*
X72420476Y-35729819D02*
X73039523Y-35729819D01*
X73372857Y-34729819D02*
X73991904Y-34729819D01*
X73991904Y-34729819D02*
X73658571Y-35110771D01*
X73658571Y-35110771D02*
X73801428Y-35110771D01*
X73801428Y-35110771D02*
X73896666Y-35158390D01*
X73896666Y-35158390D02*
X73944285Y-35206009D01*
X73944285Y-35206009D02*
X73991904Y-35301247D01*
X73991904Y-35301247D02*
X73991904Y-35539342D01*
X73991904Y-35539342D02*
X73944285Y-35634580D01*
X73944285Y-35634580D02*
X73896666Y-35682200D01*
X73896666Y-35682200D02*
X73801428Y-35729819D01*
X73801428Y-35729819D02*
X73515714Y-35729819D01*
X73515714Y-35729819D02*
X73420476Y-35682200D01*
X73420476Y-35682200D02*
X73372857Y-35634580D01*
X14261905Y-93129819D02*
X14261905Y-92129819D01*
X14833333Y-93129819D02*
X14404762Y-92558390D01*
X14833333Y-92129819D02*
X14261905Y-92701247D01*
X15690476Y-92129819D02*
X15500000Y-92129819D01*
X15500000Y-92129819D02*
X15404762Y-92177438D01*
X15404762Y-92177438D02*
X15357143Y-92225057D01*
X15357143Y-92225057D02*
X15261905Y-92367914D01*
X15261905Y-92367914D02*
X15214286Y-92558390D01*
X15214286Y-92558390D02*
X15214286Y-92939342D01*
X15214286Y-92939342D02*
X15261905Y-93034580D01*
X15261905Y-93034580D02*
X15309524Y-93082200D01*
X15309524Y-93082200D02*
X15404762Y-93129819D01*
X15404762Y-93129819D02*
X15595238Y-93129819D01*
X15595238Y-93129819D02*
X15690476Y-93082200D01*
X15690476Y-93082200D02*
X15738095Y-93034580D01*
X15738095Y-93034580D02*
X15785714Y-92939342D01*
X15785714Y-92939342D02*
X15785714Y-92701247D01*
X15785714Y-92701247D02*
X15738095Y-92606009D01*
X15738095Y-92606009D02*
X15690476Y-92558390D01*
X15690476Y-92558390D02*
X15595238Y-92510771D01*
X15595238Y-92510771D02*
X15404762Y-92510771D01*
X15404762Y-92510771D02*
X15309524Y-92558390D01*
X15309524Y-92558390D02*
X15261905Y-92606009D01*
X15261905Y-92606009D02*
X15214286Y-92701247D01*
X14261905Y-81129819D02*
X14261905Y-80129819D01*
X14833333Y-81129819D02*
X14404762Y-80558390D01*
X14833333Y-80129819D02*
X14261905Y-80701247D01*
X15690476Y-80463152D02*
X15690476Y-81129819D01*
X15452381Y-80082200D02*
X15214286Y-80796485D01*
X15214286Y-80796485D02*
X15833333Y-80796485D01*
X14571429Y-63129819D02*
X14571429Y-62129819D01*
X14904762Y-62129819D02*
X15238095Y-63129819D01*
X15238095Y-63129819D02*
X15571428Y-62129819D01*
X13785714Y-57129819D02*
X13785714Y-56129819D01*
X14357142Y-57129819D02*
X13928571Y-56558390D01*
X14357142Y-56129819D02*
X13785714Y-56701247D01*
X14738095Y-56225057D02*
X14785714Y-56177438D01*
X14785714Y-56177438D02*
X14880952Y-56129819D01*
X14880952Y-56129819D02*
X15119047Y-56129819D01*
X15119047Y-56129819D02*
X15214285Y-56177438D01*
X15214285Y-56177438D02*
X15261904Y-56225057D01*
X15261904Y-56225057D02*
X15309523Y-56320295D01*
X15309523Y-56320295D02*
X15309523Y-56415533D01*
X15309523Y-56415533D02*
X15261904Y-56558390D01*
X15261904Y-56558390D02*
X14690476Y-57129819D01*
X14690476Y-57129819D02*
X15309523Y-57129819D01*
X16261904Y-57129819D02*
X15690476Y-57129819D01*
X15976190Y-57129819D02*
X15976190Y-56129819D01*
X15976190Y-56129819D02*
X15880952Y-56272676D01*
X15880952Y-56272676D02*
X15785714Y-56367914D01*
X15785714Y-56367914D02*
X15690476Y-56415533D01*
X13785714Y-27129819D02*
X13785714Y-26129819D01*
X14357142Y-27129819D02*
X13928571Y-26558390D01*
X14357142Y-26129819D02*
X13785714Y-26701247D01*
X15309523Y-27129819D02*
X14738095Y-27129819D01*
X15023809Y-27129819D02*
X15023809Y-26129819D01*
X15023809Y-26129819D02*
X14928571Y-26272676D01*
X14928571Y-26272676D02*
X14833333Y-26367914D01*
X14833333Y-26367914D02*
X14738095Y-26415533D01*
X16166666Y-26129819D02*
X15976190Y-26129819D01*
X15976190Y-26129819D02*
X15880952Y-26177438D01*
X15880952Y-26177438D02*
X15833333Y-26225057D01*
X15833333Y-26225057D02*
X15738095Y-26367914D01*
X15738095Y-26367914D02*
X15690476Y-26558390D01*
X15690476Y-26558390D02*
X15690476Y-26939342D01*
X15690476Y-26939342D02*
X15738095Y-27034580D01*
X15738095Y-27034580D02*
X15785714Y-27082200D01*
X15785714Y-27082200D02*
X15880952Y-27129819D01*
X15880952Y-27129819D02*
X16071428Y-27129819D01*
X16071428Y-27129819D02*
X16166666Y-27082200D01*
X16166666Y-27082200D02*
X16214285Y-27034580D01*
X16214285Y-27034580D02*
X16261904Y-26939342D01*
X16261904Y-26939342D02*
X16261904Y-26701247D01*
X16261904Y-26701247D02*
X16214285Y-26606009D01*
X16214285Y-26606009D02*
X16166666Y-26558390D01*
X16166666Y-26558390D02*
X16071428Y-26510771D01*
X16071428Y-26510771D02*
X15880952Y-26510771D01*
X15880952Y-26510771D02*
X15785714Y-26558390D01*
X15785714Y-26558390D02*
X15738095Y-26606009D01*
X15738095Y-26606009D02*
X15690476Y-26701247D01*
X71515714Y-23729819D02*
X71515714Y-22729819D01*
X72087142Y-23729819D02*
X71658571Y-23158390D01*
X72087142Y-22729819D02*
X71515714Y-23301247D01*
X72468095Y-22825057D02*
X72515714Y-22777438D01*
X72515714Y-22777438D02*
X72610952Y-22729819D01*
X72610952Y-22729819D02*
X72849047Y-22729819D01*
X72849047Y-22729819D02*
X72944285Y-22777438D01*
X72944285Y-22777438D02*
X72991904Y-22825057D01*
X72991904Y-22825057D02*
X73039523Y-22920295D01*
X73039523Y-22920295D02*
X73039523Y-23015533D01*
X73039523Y-23015533D02*
X72991904Y-23158390D01*
X72991904Y-23158390D02*
X72420476Y-23729819D01*
X72420476Y-23729819D02*
X73039523Y-23729819D01*
X73420476Y-22825057D02*
X73468095Y-22777438D01*
X73468095Y-22777438D02*
X73563333Y-22729819D01*
X73563333Y-22729819D02*
X73801428Y-22729819D01*
X73801428Y-22729819D02*
X73896666Y-22777438D01*
X73896666Y-22777438D02*
X73944285Y-22825057D01*
X73944285Y-22825057D02*
X73991904Y-22920295D01*
X73991904Y-22920295D02*
X73991904Y-23015533D01*
X73991904Y-23015533D02*
X73944285Y-23158390D01*
X73944285Y-23158390D02*
X73372857Y-23729819D01*
X73372857Y-23729819D02*
X73991904Y-23729819D01*
X14261905Y-75129819D02*
X14261905Y-74129819D01*
X14833333Y-75129819D02*
X14404762Y-74558390D01*
X14833333Y-74129819D02*
X14261905Y-74701247D01*
X15166667Y-74129819D02*
X15785714Y-74129819D01*
X15785714Y-74129819D02*
X15452381Y-74510771D01*
X15452381Y-74510771D02*
X15595238Y-74510771D01*
X15595238Y-74510771D02*
X15690476Y-74558390D01*
X15690476Y-74558390D02*
X15738095Y-74606009D01*
X15738095Y-74606009D02*
X15785714Y-74701247D01*
X15785714Y-74701247D02*
X15785714Y-74939342D01*
X15785714Y-74939342D02*
X15738095Y-75034580D01*
X15738095Y-75034580D02*
X15690476Y-75082200D01*
X15690476Y-75082200D02*
X15595238Y-75129819D01*
X15595238Y-75129819D02*
X15309524Y-75129819D01*
X15309524Y-75129819D02*
X15214286Y-75082200D01*
X15214286Y-75082200D02*
X15166667Y-75034580D01*
X71515714Y-65729819D02*
X71515714Y-64729819D01*
X72087142Y-65729819D02*
X71658571Y-65158390D01*
X72087142Y-64729819D02*
X71515714Y-65301247D01*
X73039523Y-65729819D02*
X72468095Y-65729819D01*
X72753809Y-65729819D02*
X72753809Y-64729819D01*
X72753809Y-64729819D02*
X72658571Y-64872676D01*
X72658571Y-64872676D02*
X72563333Y-64967914D01*
X72563333Y-64967914D02*
X72468095Y-65015533D01*
X73658571Y-64729819D02*
X73753809Y-64729819D01*
X73753809Y-64729819D02*
X73849047Y-64777438D01*
X73849047Y-64777438D02*
X73896666Y-64825057D01*
X73896666Y-64825057D02*
X73944285Y-64920295D01*
X73944285Y-64920295D02*
X73991904Y-65110771D01*
X73991904Y-65110771D02*
X73991904Y-65348866D01*
X73991904Y-65348866D02*
X73944285Y-65539342D01*
X73944285Y-65539342D02*
X73896666Y-65634580D01*
X73896666Y-65634580D02*
X73849047Y-65682200D01*
X73849047Y-65682200D02*
X73753809Y-65729819D01*
X73753809Y-65729819D02*
X73658571Y-65729819D01*
X73658571Y-65729819D02*
X73563333Y-65682200D01*
X73563333Y-65682200D02*
X73515714Y-65634580D01*
X73515714Y-65634580D02*
X73468095Y-65539342D01*
X73468095Y-65539342D02*
X73420476Y-65348866D01*
X73420476Y-65348866D02*
X73420476Y-65110771D01*
X73420476Y-65110771D02*
X73468095Y-64920295D01*
X73468095Y-64920295D02*
X73515714Y-64825057D01*
X73515714Y-64825057D02*
X73563333Y-64777438D01*
X73563333Y-64777438D02*
X73658571Y-64729819D01*
X14261905Y-69129819D02*
X14261905Y-68129819D01*
X14833333Y-69129819D02*
X14404762Y-68558390D01*
X14833333Y-68129819D02*
X14261905Y-68701247D01*
X15214286Y-68225057D02*
X15261905Y-68177438D01*
X15261905Y-68177438D02*
X15357143Y-68129819D01*
X15357143Y-68129819D02*
X15595238Y-68129819D01*
X15595238Y-68129819D02*
X15690476Y-68177438D01*
X15690476Y-68177438D02*
X15738095Y-68225057D01*
X15738095Y-68225057D02*
X15785714Y-68320295D01*
X15785714Y-68320295D02*
X15785714Y-68415533D01*
X15785714Y-68415533D02*
X15738095Y-68558390D01*
X15738095Y-68558390D02*
X15166667Y-69129819D01*
X15166667Y-69129819D02*
X15785714Y-69129819D01*
%TO.C,K18*%
D11*
X13640000Y-36825000D02*
X13640000Y-34125000D01*
X16360000Y-34075000D02*
X16360000Y-34715000D01*
X16360000Y-36235000D02*
X16990000Y-36235000D01*
X16360000Y-36875000D02*
X16360000Y-36235000D01*
%TO.C,K20*%
X13640000Y-48825000D02*
X13640000Y-46125000D01*
X16360000Y-46075000D02*
X16360000Y-46715000D01*
X16360000Y-48235000D02*
X16990000Y-48235000D01*
X16360000Y-48875000D02*
X16360000Y-48235000D01*
%TO.C,K12*%
X71370000Y-55075000D02*
X71370000Y-55715000D01*
X71370000Y-55715000D02*
X70740000Y-55715000D01*
X71370000Y-57875000D02*
X71370000Y-57235000D01*
X74090000Y-55125000D02*
X74090000Y-57825000D01*
%TO.C,K1*%
X71370000Y-91075000D02*
X71370000Y-91715000D01*
X71370000Y-91715000D02*
X70740000Y-91715000D01*
X71370000Y-93875000D02*
X71370000Y-93235000D01*
X74090000Y-91125000D02*
X74090000Y-93825000D01*
%TO.C,J5*%
D12*
X40245000Y-38835000D02*
X40245000Y-40975000D01*
X40245000Y-57975000D02*
X40245000Y-60975000D01*
X40245000Y-77875000D02*
X40245000Y-80115000D01*
X47485000Y-38835000D02*
X42065000Y-38835000D01*
X47485000Y-40975000D02*
X47485000Y-38835000D01*
X47485000Y-60975000D02*
X47485000Y-57975000D01*
X47485000Y-77875000D02*
X47485000Y-80115000D01*
X47485000Y-80115000D02*
X42065000Y-80115000D01*
X48665000Y-77075000D02*
G75*
G02*
X48465000Y-77075000I-100000J0D01*
G01*
X48465000Y-77075000D02*
G75*
G02*
X48665000Y-77075000I100000J0D01*
G01*
%TO.C,K7*%
D11*
X13640000Y-96825000D02*
X13640000Y-94125000D01*
X16360000Y-94075000D02*
X16360000Y-94715000D01*
X16360000Y-96235000D02*
X16990000Y-96235000D01*
X16360000Y-96875000D02*
X16360000Y-96235000D01*
%TO.C,K5*%
X13640000Y-84825000D02*
X13640000Y-82125000D01*
X16360000Y-82075000D02*
X16360000Y-82715000D01*
X16360000Y-84235000D02*
X16990000Y-84235000D01*
X16360000Y-84875000D02*
X16360000Y-84235000D01*
%TO.C,K14*%
X71370000Y-43075000D02*
X71370000Y-43715000D01*
X71370000Y-43715000D02*
X70740000Y-43715000D01*
X71370000Y-45875000D02*
X71370000Y-45235000D01*
X74090000Y-43125000D02*
X74090000Y-45825000D01*
%TO.C,K0*%
X71370000Y-79075000D02*
X71370000Y-79715000D01*
X71370000Y-79715000D02*
X70740000Y-79715000D01*
X71370000Y-81875000D02*
X71370000Y-81235000D01*
X74090000Y-79125000D02*
X74090000Y-81825000D01*
%TO.C,K9*%
X71370000Y-73075000D02*
X71370000Y-73715000D01*
X71370000Y-73715000D02*
X70740000Y-73715000D01*
X71370000Y-75875000D02*
X71370000Y-75235000D01*
X74090000Y-73125000D02*
X74090000Y-75825000D01*
%TO.C,K19*%
X13640000Y-42825000D02*
X13640000Y-40125000D01*
X16360000Y-40075000D02*
X16360000Y-40715000D01*
X16360000Y-42235000D02*
X16990000Y-42235000D01*
X16360000Y-42875000D02*
X16360000Y-42235000D01*
%TO.C,K13*%
X71370000Y-49075000D02*
X71370000Y-49715000D01*
X71370000Y-49715000D02*
X70740000Y-49715000D01*
X71370000Y-51875000D02*
X71370000Y-51235000D01*
X74090000Y-49125000D02*
X74090000Y-51825000D01*
%TO.C,K8*%
X71370000Y-85075000D02*
X71370000Y-85715000D01*
X71370000Y-85715000D02*
X70740000Y-85715000D01*
X71370000Y-87875000D02*
X71370000Y-87235000D01*
X74090000Y-85125000D02*
X74090000Y-87825000D01*
%TO.C,K15*%
X71370000Y-31075000D02*
X71370000Y-31715000D01*
X71370000Y-31715000D02*
X70740000Y-31715000D01*
X71370000Y-33875000D02*
X71370000Y-33235000D01*
X74090000Y-31125000D02*
X74090000Y-33825000D01*
%TO.C,K11*%
X71370000Y-61075000D02*
X71370000Y-61715000D01*
X71370000Y-61715000D02*
X70740000Y-61715000D01*
X71370000Y-63875000D02*
X71370000Y-63235000D01*
X74090000Y-61125000D02*
X74090000Y-63825000D01*
%TO.C,K17*%
X13640000Y-30825000D02*
X13640000Y-28125000D01*
X16360000Y-28075000D02*
X16360000Y-28715000D01*
X16360000Y-30235000D02*
X16990000Y-30235000D01*
X16360000Y-30875000D02*
X16360000Y-30235000D01*
%TO.C,K23*%
X71370000Y-37075000D02*
X71370000Y-37715000D01*
X71370000Y-37715000D02*
X70740000Y-37715000D01*
X71370000Y-39875000D02*
X71370000Y-39235000D01*
X74090000Y-37125000D02*
X74090000Y-39825000D01*
%TO.C,K6*%
X13640000Y-90825000D02*
X13640000Y-88125000D01*
X16360000Y-88075000D02*
X16360000Y-88715000D01*
X16360000Y-90235000D02*
X16990000Y-90235000D01*
X16360000Y-90875000D02*
X16360000Y-90235000D01*
%TO.C,K4*%
X13640000Y-78825000D02*
X13640000Y-76125000D01*
X16360000Y-76075000D02*
X16360000Y-76715000D01*
X16360000Y-78235000D02*
X16990000Y-78235000D01*
X16360000Y-78875000D02*
X16360000Y-78235000D01*
%TO.C,IV*%
X13640000Y-60825000D02*
X13640000Y-58125000D01*
X16360000Y-58075000D02*
X16360000Y-58715000D01*
X16360000Y-60235000D02*
X16990000Y-60235000D01*
X16360000Y-60875000D02*
X16360000Y-60235000D01*
%TO.C,K21*%
X13640000Y-54825000D02*
X13640000Y-52125000D01*
X16360000Y-52075000D02*
X16360000Y-52715000D01*
X16360000Y-54235000D02*
X16990000Y-54235000D01*
X16360000Y-54875000D02*
X16360000Y-54235000D01*
%TO.C,K16*%
X13640000Y-24825000D02*
X13640000Y-22125000D01*
X16360000Y-22075000D02*
X16360000Y-22715000D01*
X16360000Y-24235000D02*
X16990000Y-24235000D01*
X16360000Y-24875000D02*
X16360000Y-24235000D01*
%TO.C,K22*%
X71370000Y-25075000D02*
X71370000Y-25715000D01*
X71370000Y-25715000D02*
X70740000Y-25715000D01*
X71370000Y-27875000D02*
X71370000Y-27235000D01*
X74090000Y-25125000D02*
X74090000Y-27825000D01*
%TO.C,K3*%
X13640000Y-72825000D02*
X13640000Y-70125000D01*
X16360000Y-70075000D02*
X16360000Y-70715000D01*
X16360000Y-72235000D02*
X16990000Y-72235000D01*
X16360000Y-72875000D02*
X16360000Y-72235000D01*
%TO.C,K10*%
X71370000Y-67075000D02*
X71370000Y-67715000D01*
X71370000Y-67715000D02*
X70740000Y-67715000D01*
X71370000Y-69875000D02*
X71370000Y-69235000D01*
X74090000Y-67125000D02*
X74090000Y-69825000D01*
%TO.C,K2*%
X13640000Y-66825000D02*
X13640000Y-64125000D01*
X16360000Y-64075000D02*
X16360000Y-64715000D01*
X16360000Y-66235000D02*
X16990000Y-66235000D01*
X16360000Y-66875000D02*
X16360000Y-66235000D01*
%TD*%
M02*
