%TF.GenerationSoftware,KiCad,Pcbnew,10.0.3*%
%TF.CreationDate,2026-06-24T00:17:43-04:00*%
%TF.ProjectId,board-C-ufl,626f6172-642d-4432-9d75-666c2e6b6963,rev?*%
%TF.SameCoordinates,Original*%
%TF.FileFunction,Copper,L2,Inr*%
%TF.FilePolarity,Positive*%
%FSLAX46Y46*%
G04 Gerber Fmt 4.6, Leading zero omitted, Abs format (unit mm)*
G04 Created by KiCad (PCBNEW 10.0.3) date 2026-06-24 00:17:43*
%MOMM*%
%LPD*%
G01*
G04 APERTURE LIST*
%TA.AperFunction,ViaPad*%
%ADD10C,0.600000*%
%TD*%
G04 APERTURE END LIST*
D10*
%TO.N,SIPM_K6*%
X67205000Y-89475000D03*
%TO.N,GNDA*%
X53925000Y-12925000D03*
X29925000Y-106025000D03*
X65925000Y-106025000D03*
X47925000Y-106025000D03*
X41925000Y-106025000D03*
X23925000Y-12925000D03*
X23925000Y-106025000D03*
X29925000Y-12925000D03*
X11925000Y-106025000D03*
X53925000Y-106025000D03*
X59925000Y-106025000D03*
X35925000Y-12925000D03*
X35925000Y-106025000D03*
X59925000Y-12925000D03*
X47925000Y-12925000D03*
X41925000Y-12925000D03*
X11925000Y-12925000D03*
X65925000Y-12925000D03*
%TO.N,SIPM_K17*%
X67205000Y-29475000D03*
%TO.N,SIPM_K11*%
X20525000Y-62475000D03*
%TO.N,SIPM_K16*%
X67205000Y-23475000D03*
%TO.N,SIPM_K23*%
X48730000Y-53075000D03*
%TO.N,SIPM_K3*%
X67205000Y-71475000D03*
%TO.N,SIPM_K14*%
X20525000Y-44475000D03*
%TO.N,SIPM_K12*%
X20525000Y-56475000D03*
%TO.N,SIPM_K21*%
X67205000Y-53475000D03*
%TO.N,SIPM_K20*%
X67205000Y-47475000D03*
%TO.N,SIPM_K8*%
X20525000Y-86475000D03*
%TO.N,SIPM_K0*%
X48730000Y-65875000D03*
%TO.N,SIPM_K1*%
X48730000Y-67475000D03*
%TO.N,SIPM_K2*%
X67205000Y-65475000D03*
%TO.N,SIPM_K13*%
X20525000Y-50475000D03*
%TO.N,SIPM_K10*%
X20525000Y-68475000D03*
%TO.N,SIPM_K5*%
X67205000Y-83475000D03*
%TO.N,SIPM_K18*%
X67205000Y-35475000D03*
%TO.N,SIPM_K4*%
X67205000Y-77475000D03*
%TO.N,SIPM_K15*%
X20525000Y-32475000D03*
%TO.N,SIPM_K7*%
X67205000Y-95475000D03*
%TO.N,SIPM_K22*%
X48730000Y-51475000D03*
%TO.N,SIPM_K9*%
X20525000Y-74475000D03*
%TO.N,IV*%
X67205000Y-59475000D03*
%TO.N,SIPM_K19*%
X67205000Y-41475000D03*
%TD*%
%TA.AperFunction,Conductor*%
%TO.N,GNDA*%
G36*
X78172539Y-10520185D02*
G01*
X78218294Y-10572989D01*
X78229500Y-10624500D01*
X78229500Y-108325500D01*
X78209815Y-108392539D01*
X78157011Y-108438294D01*
X78105500Y-108449500D01*
X9624500Y-108449500D01*
X9557461Y-108429815D01*
X9511706Y-108377011D01*
X9500500Y-108325500D01*
X9500500Y-103828711D01*
X14674500Y-103828711D01*
X14674500Y-104071288D01*
X14706161Y-104311785D01*
X14768947Y-104546104D01*
X14861773Y-104770205D01*
X14861776Y-104770212D01*
X14983064Y-104980289D01*
X14983066Y-104980292D01*
X14983067Y-104980293D01*
X15130733Y-105172736D01*
X15130739Y-105172743D01*
X15302256Y-105344260D01*
X15302262Y-105344265D01*
X15494711Y-105491936D01*
X15704788Y-105613224D01*
X15928900Y-105706054D01*
X16163211Y-105768838D01*
X16343586Y-105792584D01*
X16403711Y-105800500D01*
X16403712Y-105800500D01*
X16646289Y-105800500D01*
X16694388Y-105794167D01*
X16886789Y-105768838D01*
X17121100Y-105706054D01*
X17345212Y-105613224D01*
X17555289Y-105491936D01*
X17747738Y-105344265D01*
X17919265Y-105172738D01*
X18066936Y-104980289D01*
X18188224Y-104770212D01*
X18281054Y-104546100D01*
X18343838Y-104311789D01*
X18375500Y-104071288D01*
X18375500Y-103828712D01*
X18375500Y-103828711D01*
X69354500Y-103828711D01*
X69354500Y-104071288D01*
X69386161Y-104311785D01*
X69448947Y-104546104D01*
X69541773Y-104770205D01*
X69541776Y-104770212D01*
X69663064Y-104980289D01*
X69663066Y-104980292D01*
X69663067Y-104980293D01*
X69810733Y-105172736D01*
X69810739Y-105172743D01*
X69982256Y-105344260D01*
X69982262Y-105344265D01*
X70174711Y-105491936D01*
X70384788Y-105613224D01*
X70608900Y-105706054D01*
X70843211Y-105768838D01*
X71023586Y-105792584D01*
X71083711Y-105800500D01*
X71083712Y-105800500D01*
X71326289Y-105800500D01*
X71374388Y-105794167D01*
X71566789Y-105768838D01*
X71801100Y-105706054D01*
X72025212Y-105613224D01*
X72235289Y-105491936D01*
X72427738Y-105344265D01*
X72599265Y-105172738D01*
X72746936Y-104980289D01*
X72868224Y-104770212D01*
X72961054Y-104546100D01*
X73023838Y-104311789D01*
X73055500Y-104071288D01*
X73055500Y-103828712D01*
X73023838Y-103588211D01*
X72961054Y-103353900D01*
X72868224Y-103129788D01*
X72746936Y-102919711D01*
X72599265Y-102727262D01*
X72599260Y-102727256D01*
X72427743Y-102555739D01*
X72427736Y-102555733D01*
X72235293Y-102408067D01*
X72235292Y-102408066D01*
X72235289Y-102408064D01*
X72025212Y-102286776D01*
X72025205Y-102286773D01*
X71801104Y-102193947D01*
X71566785Y-102131161D01*
X71326289Y-102099500D01*
X71326288Y-102099500D01*
X71083712Y-102099500D01*
X71083711Y-102099500D01*
X70843214Y-102131161D01*
X70608895Y-102193947D01*
X70384794Y-102286773D01*
X70384785Y-102286777D01*
X70174706Y-102408067D01*
X69982263Y-102555733D01*
X69982256Y-102555739D01*
X69810739Y-102727256D01*
X69810733Y-102727263D01*
X69663067Y-102919706D01*
X69541777Y-103129785D01*
X69541773Y-103129794D01*
X69448947Y-103353895D01*
X69386161Y-103588214D01*
X69354500Y-103828711D01*
X18375500Y-103828711D01*
X18343838Y-103588211D01*
X18281054Y-103353900D01*
X18188224Y-103129788D01*
X18066936Y-102919711D01*
X17919265Y-102727262D01*
X17919260Y-102727256D01*
X17747743Y-102555739D01*
X17747736Y-102555733D01*
X17555293Y-102408067D01*
X17555292Y-102408066D01*
X17555289Y-102408064D01*
X17345212Y-102286776D01*
X17345205Y-102286773D01*
X17121104Y-102193947D01*
X16886785Y-102131161D01*
X16646289Y-102099500D01*
X16646288Y-102099500D01*
X16403712Y-102099500D01*
X16403711Y-102099500D01*
X16163214Y-102131161D01*
X15928895Y-102193947D01*
X15704794Y-102286773D01*
X15704785Y-102286777D01*
X15494706Y-102408067D01*
X15302263Y-102555733D01*
X15302256Y-102555739D01*
X15130739Y-102727256D01*
X15130733Y-102727263D01*
X14983067Y-102919706D01*
X14861777Y-103129785D01*
X14861773Y-103129794D01*
X14768947Y-103353895D01*
X14706161Y-103588214D01*
X14674500Y-103828711D01*
X9500500Y-103828711D01*
X9500500Y-95395943D01*
X66604500Y-95395943D01*
X66604500Y-95554056D01*
X66645423Y-95706783D01*
X66645426Y-95706790D01*
X66724475Y-95843709D01*
X66724479Y-95843714D01*
X66724480Y-95843716D01*
X66836284Y-95955520D01*
X66836286Y-95955521D01*
X66836290Y-95955524D01*
X66973209Y-96034573D01*
X66973216Y-96034577D01*
X67125943Y-96075500D01*
X67125945Y-96075500D01*
X67284055Y-96075500D01*
X67284057Y-96075500D01*
X67436784Y-96034577D01*
X67573716Y-95955520D01*
X67685520Y-95843716D01*
X67764577Y-95706784D01*
X67805500Y-95554057D01*
X67805500Y-95395943D01*
X67764577Y-95243216D01*
X67764573Y-95243209D01*
X67685524Y-95106290D01*
X67685518Y-95106282D01*
X67573717Y-94994481D01*
X67573709Y-94994475D01*
X67436790Y-94915426D01*
X67436786Y-94915424D01*
X67436784Y-94915423D01*
X67284057Y-94874500D01*
X67125943Y-94874500D01*
X66973216Y-94915423D01*
X66973209Y-94915426D01*
X66836290Y-94994475D01*
X66836282Y-94994481D01*
X66724481Y-95106282D01*
X66724475Y-95106290D01*
X66645426Y-95243209D01*
X66645423Y-95243216D01*
X66604500Y-95395943D01*
X9500500Y-95395943D01*
X9500500Y-89395943D01*
X66604500Y-89395943D01*
X66604500Y-89554056D01*
X66645423Y-89706783D01*
X66645426Y-89706790D01*
X66724475Y-89843709D01*
X66724479Y-89843714D01*
X66724480Y-89843716D01*
X66836284Y-89955520D01*
X66836286Y-89955521D01*
X66836290Y-89955524D01*
X66973209Y-90034573D01*
X66973216Y-90034577D01*
X67125943Y-90075500D01*
X67125945Y-90075500D01*
X67284055Y-90075500D01*
X67284057Y-90075500D01*
X67436784Y-90034577D01*
X67573716Y-89955520D01*
X67685520Y-89843716D01*
X67764577Y-89706784D01*
X67805500Y-89554057D01*
X67805500Y-89395943D01*
X67764577Y-89243216D01*
X67764573Y-89243209D01*
X67685524Y-89106290D01*
X67685518Y-89106282D01*
X67573717Y-88994481D01*
X67573709Y-88994475D01*
X67436790Y-88915426D01*
X67436786Y-88915424D01*
X67436784Y-88915423D01*
X67284057Y-88874500D01*
X67125943Y-88874500D01*
X66973216Y-88915423D01*
X66973209Y-88915426D01*
X66836290Y-88994475D01*
X66836282Y-88994481D01*
X66724481Y-89106282D01*
X66724475Y-89106290D01*
X66645426Y-89243209D01*
X66645423Y-89243216D01*
X66604500Y-89395943D01*
X9500500Y-89395943D01*
X9500500Y-86395943D01*
X19924500Y-86395943D01*
X19924500Y-86554056D01*
X19965423Y-86706783D01*
X19965426Y-86706790D01*
X20044475Y-86843709D01*
X20044479Y-86843714D01*
X20044480Y-86843716D01*
X20156284Y-86955520D01*
X20156286Y-86955521D01*
X20156290Y-86955524D01*
X20293209Y-87034573D01*
X20293216Y-87034577D01*
X20445943Y-87075500D01*
X20445945Y-87075500D01*
X20604055Y-87075500D01*
X20604057Y-87075500D01*
X20756784Y-87034577D01*
X20893716Y-86955520D01*
X21005520Y-86843716D01*
X21084577Y-86706784D01*
X21125500Y-86554057D01*
X21125500Y-86395943D01*
X21084577Y-86243216D01*
X21084573Y-86243209D01*
X21005524Y-86106290D01*
X21005518Y-86106282D01*
X20893717Y-85994481D01*
X20893709Y-85994475D01*
X20756790Y-85915426D01*
X20756786Y-85915424D01*
X20756784Y-85915423D01*
X20604057Y-85874500D01*
X20445943Y-85874500D01*
X20293216Y-85915423D01*
X20293209Y-85915426D01*
X20156290Y-85994475D01*
X20156282Y-85994481D01*
X20044481Y-86106282D01*
X20044475Y-86106290D01*
X19965426Y-86243209D01*
X19965423Y-86243216D01*
X19924500Y-86395943D01*
X9500500Y-86395943D01*
X9500500Y-83395943D01*
X66604500Y-83395943D01*
X66604500Y-83554056D01*
X66645423Y-83706783D01*
X66645426Y-83706790D01*
X66724475Y-83843709D01*
X66724479Y-83843714D01*
X66724480Y-83843716D01*
X66836284Y-83955520D01*
X66836286Y-83955521D01*
X66836290Y-83955524D01*
X66973209Y-84034573D01*
X66973216Y-84034577D01*
X67125943Y-84075500D01*
X67125945Y-84075500D01*
X67284055Y-84075500D01*
X67284057Y-84075500D01*
X67436784Y-84034577D01*
X67573716Y-83955520D01*
X67685520Y-83843716D01*
X67764577Y-83706784D01*
X67805500Y-83554057D01*
X67805500Y-83395943D01*
X67764577Y-83243216D01*
X67764573Y-83243209D01*
X67685524Y-83106290D01*
X67685518Y-83106282D01*
X67573717Y-82994481D01*
X67573709Y-82994475D01*
X67436790Y-82915426D01*
X67436786Y-82915424D01*
X67436784Y-82915423D01*
X67284057Y-82874500D01*
X67125943Y-82874500D01*
X66973216Y-82915423D01*
X66973209Y-82915426D01*
X66836290Y-82994475D01*
X66836282Y-82994481D01*
X66724481Y-83106282D01*
X66724475Y-83106290D01*
X66645426Y-83243209D01*
X66645423Y-83243216D01*
X66604500Y-83395943D01*
X9500500Y-83395943D01*
X9500500Y-79465092D01*
X45774500Y-79465092D01*
X45774500Y-79614907D01*
X45803723Y-79761822D01*
X45803725Y-79761830D01*
X45861051Y-79900229D01*
X45861056Y-79900238D01*
X45944280Y-80024790D01*
X45944283Y-80024794D01*
X46050205Y-80130716D01*
X46050209Y-80130719D01*
X46174761Y-80213943D01*
X46174767Y-80213946D01*
X46174768Y-80213947D01*
X46313170Y-80271275D01*
X46460092Y-80300499D01*
X46460096Y-80300500D01*
X46460097Y-80300500D01*
X46609904Y-80300500D01*
X46609905Y-80300499D01*
X46756830Y-80271275D01*
X46895232Y-80213947D01*
X47019791Y-80130719D01*
X47125719Y-80024791D01*
X47208947Y-79900232D01*
X47266275Y-79761830D01*
X47295500Y-79614903D01*
X47295500Y-79465097D01*
X47266275Y-79318170D01*
X47208947Y-79179768D01*
X47208946Y-79179767D01*
X47208943Y-79179761D01*
X47125719Y-79055209D01*
X47125716Y-79055205D01*
X47019794Y-78949283D01*
X47019790Y-78949280D01*
X46895238Y-78866056D01*
X46895229Y-78866051D01*
X46756830Y-78808725D01*
X46756822Y-78808723D01*
X46609907Y-78779500D01*
X46609903Y-78779500D01*
X46460097Y-78779500D01*
X46460092Y-78779500D01*
X46313177Y-78808723D01*
X46313169Y-78808725D01*
X46174770Y-78866051D01*
X46174761Y-78866056D01*
X46050209Y-78949280D01*
X46050205Y-78949283D01*
X45944283Y-79055205D01*
X45944280Y-79055209D01*
X45861056Y-79179761D01*
X45861051Y-79179770D01*
X45803725Y-79318169D01*
X45803723Y-79318177D01*
X45774500Y-79465092D01*
X9500500Y-79465092D01*
X9500500Y-77395943D01*
X66604500Y-77395943D01*
X66604500Y-77554056D01*
X66645423Y-77706783D01*
X66645426Y-77706790D01*
X66724475Y-77843709D01*
X66724479Y-77843714D01*
X66724480Y-77843716D01*
X66836284Y-77955520D01*
X66836286Y-77955521D01*
X66836290Y-77955524D01*
X66973209Y-78034573D01*
X66973216Y-78034577D01*
X67125943Y-78075500D01*
X67125945Y-78075500D01*
X67284055Y-78075500D01*
X67284057Y-78075500D01*
X67436784Y-78034577D01*
X67573716Y-77955520D01*
X67685520Y-77843716D01*
X67764577Y-77706784D01*
X67805500Y-77554057D01*
X67805500Y-77395943D01*
X67764577Y-77243216D01*
X67764573Y-77243209D01*
X67685524Y-77106290D01*
X67685518Y-77106282D01*
X67573717Y-76994481D01*
X67573709Y-76994475D01*
X67436790Y-76915426D01*
X67436786Y-76915424D01*
X67436784Y-76915423D01*
X67284057Y-76874500D01*
X67125943Y-76874500D01*
X66973216Y-76915423D01*
X66973209Y-76915426D01*
X66836290Y-76994475D01*
X66836282Y-76994481D01*
X66724481Y-77106282D01*
X66724475Y-77106290D01*
X66645426Y-77243209D01*
X66645423Y-77243216D01*
X66604500Y-77395943D01*
X9500500Y-77395943D01*
X9500500Y-74395943D01*
X19924500Y-74395943D01*
X19924500Y-74554056D01*
X19965423Y-74706783D01*
X19965426Y-74706790D01*
X20044475Y-74843709D01*
X20044479Y-74843714D01*
X20044480Y-74843716D01*
X20156284Y-74955520D01*
X20156286Y-74955521D01*
X20156290Y-74955524D01*
X20293209Y-75034573D01*
X20293216Y-75034577D01*
X20445943Y-75075500D01*
X20445945Y-75075500D01*
X20604055Y-75075500D01*
X20604057Y-75075500D01*
X20756784Y-75034577D01*
X20893716Y-74955520D01*
X21005520Y-74843716D01*
X21084577Y-74706784D01*
X21125500Y-74554057D01*
X21125500Y-74395943D01*
X21084577Y-74243216D01*
X21084573Y-74243209D01*
X21005524Y-74106290D01*
X21005518Y-74106282D01*
X20893717Y-73994481D01*
X20893709Y-73994475D01*
X20756790Y-73915426D01*
X20756786Y-73915424D01*
X20756784Y-73915423D01*
X20604057Y-73874500D01*
X20445943Y-73874500D01*
X20293216Y-73915423D01*
X20293209Y-73915426D01*
X20156290Y-73994475D01*
X20156282Y-73994481D01*
X20044481Y-74106282D01*
X20044475Y-74106290D01*
X19965426Y-74243209D01*
X19965423Y-74243216D01*
X19924500Y-74395943D01*
X9500500Y-74395943D01*
X9500500Y-71395943D01*
X66604500Y-71395943D01*
X66604500Y-71554056D01*
X66645423Y-71706783D01*
X66645426Y-71706790D01*
X66724475Y-71843709D01*
X66724479Y-71843714D01*
X66724480Y-71843716D01*
X66836284Y-71955520D01*
X66836286Y-71955521D01*
X66836290Y-71955524D01*
X66973209Y-72034573D01*
X66973216Y-72034577D01*
X67125943Y-72075500D01*
X67125945Y-72075500D01*
X67284055Y-72075500D01*
X67284057Y-72075500D01*
X67436784Y-72034577D01*
X67573716Y-71955520D01*
X67685520Y-71843716D01*
X67764577Y-71706784D01*
X67805500Y-71554057D01*
X67805500Y-71395943D01*
X67764577Y-71243216D01*
X67764573Y-71243209D01*
X67685524Y-71106290D01*
X67685518Y-71106282D01*
X67573717Y-70994481D01*
X67573709Y-70994475D01*
X67436790Y-70915426D01*
X67436786Y-70915424D01*
X67436784Y-70915423D01*
X67284057Y-70874500D01*
X67125943Y-70874500D01*
X66973216Y-70915423D01*
X66973209Y-70915426D01*
X66836290Y-70994475D01*
X66836282Y-70994481D01*
X66724481Y-71106282D01*
X66724475Y-71106290D01*
X66645426Y-71243209D01*
X66645423Y-71243216D01*
X66604500Y-71395943D01*
X9500500Y-71395943D01*
X9500500Y-68395943D01*
X19924500Y-68395943D01*
X19924500Y-68554056D01*
X19965423Y-68706783D01*
X19965426Y-68706790D01*
X20044475Y-68843709D01*
X20044479Y-68843714D01*
X20044480Y-68843716D01*
X20156284Y-68955520D01*
X20156286Y-68955521D01*
X20156290Y-68955524D01*
X20293209Y-69034573D01*
X20293216Y-69034577D01*
X20445943Y-69075500D01*
X20445945Y-69075500D01*
X20604055Y-69075500D01*
X20604057Y-69075500D01*
X20756784Y-69034577D01*
X20893716Y-68955520D01*
X21005520Y-68843716D01*
X21084577Y-68706784D01*
X21125500Y-68554057D01*
X21125500Y-68395943D01*
X21084577Y-68243216D01*
X21084573Y-68243209D01*
X21005524Y-68106290D01*
X21005518Y-68106282D01*
X20893717Y-67994481D01*
X20893709Y-67994475D01*
X20756790Y-67915426D01*
X20756786Y-67915424D01*
X20756784Y-67915423D01*
X20604057Y-67874500D01*
X20445943Y-67874500D01*
X20293216Y-67915423D01*
X20293209Y-67915426D01*
X20156290Y-67994475D01*
X20156282Y-67994481D01*
X20044481Y-68106282D01*
X20044475Y-68106290D01*
X19965426Y-68243209D01*
X19965423Y-68243216D01*
X19924500Y-68395943D01*
X9500500Y-68395943D01*
X9500500Y-67395943D01*
X48129500Y-67395943D01*
X48129500Y-67554056D01*
X48170423Y-67706783D01*
X48170426Y-67706790D01*
X48249475Y-67843709D01*
X48249479Y-67843714D01*
X48249480Y-67843716D01*
X48361284Y-67955520D01*
X48361286Y-67955521D01*
X48361290Y-67955524D01*
X48428765Y-67994480D01*
X48498216Y-68034577D01*
X48650943Y-68075500D01*
X48650945Y-68075500D01*
X48809055Y-68075500D01*
X48809057Y-68075500D01*
X48961784Y-68034577D01*
X49098716Y-67955520D01*
X49210520Y-67843716D01*
X49289577Y-67706784D01*
X49330500Y-67554057D01*
X49330500Y-67395943D01*
X49289577Y-67243216D01*
X49289573Y-67243209D01*
X49210524Y-67106290D01*
X49210518Y-67106282D01*
X49098717Y-66994481D01*
X49098709Y-66994475D01*
X48961790Y-66915426D01*
X48961786Y-66915424D01*
X48961784Y-66915423D01*
X48809057Y-66874500D01*
X48650943Y-66874500D01*
X48498216Y-66915423D01*
X48498209Y-66915426D01*
X48361290Y-66994475D01*
X48361282Y-66994481D01*
X48249481Y-67106282D01*
X48249475Y-67106290D01*
X48170426Y-67243209D01*
X48170423Y-67243216D01*
X48129500Y-67395943D01*
X9500500Y-67395943D01*
X9500500Y-65795943D01*
X48129500Y-65795943D01*
X48129500Y-65954057D01*
X48162041Y-66075500D01*
X48170423Y-66106783D01*
X48170426Y-66106790D01*
X48249475Y-66243709D01*
X48249479Y-66243714D01*
X48249480Y-66243716D01*
X48361284Y-66355520D01*
X48361286Y-66355521D01*
X48361290Y-66355524D01*
X48498209Y-66434573D01*
X48498216Y-66434577D01*
X48650943Y-66475500D01*
X48650945Y-66475500D01*
X48809055Y-66475500D01*
X48809057Y-66475500D01*
X48961784Y-66434577D01*
X49098716Y-66355520D01*
X49210520Y-66243716D01*
X49289577Y-66106784D01*
X49330500Y-65954057D01*
X49330500Y-65795943D01*
X49289577Y-65643216D01*
X49238101Y-65554056D01*
X49210524Y-65506290D01*
X49210518Y-65506282D01*
X49100179Y-65395943D01*
X66604500Y-65395943D01*
X66604500Y-65554056D01*
X66645423Y-65706783D01*
X66645426Y-65706790D01*
X66724475Y-65843709D01*
X66724479Y-65843714D01*
X66724480Y-65843716D01*
X66836284Y-65955520D01*
X66836286Y-65955521D01*
X66836290Y-65955524D01*
X66973209Y-66034573D01*
X66973216Y-66034577D01*
X67125943Y-66075500D01*
X67125945Y-66075500D01*
X67284055Y-66075500D01*
X67284057Y-66075500D01*
X67436784Y-66034577D01*
X67573716Y-65955520D01*
X67685520Y-65843716D01*
X67764577Y-65706784D01*
X67805500Y-65554057D01*
X67805500Y-65395943D01*
X67764577Y-65243216D01*
X67764573Y-65243209D01*
X67685524Y-65106290D01*
X67685518Y-65106282D01*
X67573717Y-64994481D01*
X67573709Y-64994475D01*
X67436790Y-64915426D01*
X67436786Y-64915424D01*
X67436784Y-64915423D01*
X67284057Y-64874500D01*
X67125943Y-64874500D01*
X66973216Y-64915423D01*
X66973209Y-64915426D01*
X66836290Y-64994475D01*
X66836282Y-64994481D01*
X66724481Y-65106282D01*
X66724475Y-65106290D01*
X66645426Y-65243209D01*
X66645423Y-65243216D01*
X66604500Y-65395943D01*
X49100179Y-65395943D01*
X49098717Y-65394481D01*
X49098709Y-65394475D01*
X48961790Y-65315426D01*
X48961786Y-65315424D01*
X48961784Y-65315423D01*
X48809057Y-65274500D01*
X48650943Y-65274500D01*
X48498216Y-65315423D01*
X48498209Y-65315426D01*
X48361290Y-65394475D01*
X48361282Y-65394481D01*
X48249481Y-65506282D01*
X48249475Y-65506290D01*
X48170426Y-65643209D01*
X48170423Y-65643216D01*
X48129500Y-65795943D01*
X9500500Y-65795943D01*
X9500500Y-62395943D01*
X19924500Y-62395943D01*
X19924500Y-62554056D01*
X19965423Y-62706783D01*
X19965426Y-62706790D01*
X20044475Y-62843709D01*
X20044479Y-62843714D01*
X20044480Y-62843716D01*
X20156284Y-62955520D01*
X20156286Y-62955521D01*
X20156290Y-62955524D01*
X20293209Y-63034573D01*
X20293216Y-63034577D01*
X20445943Y-63075500D01*
X20445945Y-63075500D01*
X20604055Y-63075500D01*
X20604057Y-63075500D01*
X20756784Y-63034577D01*
X20893716Y-62955520D01*
X21005520Y-62843716D01*
X21084577Y-62706784D01*
X21125500Y-62554057D01*
X21125500Y-62395943D01*
X21084577Y-62243216D01*
X21084573Y-62243209D01*
X21005524Y-62106290D01*
X21005518Y-62106282D01*
X20893717Y-61994481D01*
X20893709Y-61994475D01*
X20756790Y-61915426D01*
X20756786Y-61915424D01*
X20756784Y-61915423D01*
X20604057Y-61874500D01*
X20445943Y-61874500D01*
X20293216Y-61915423D01*
X20293209Y-61915426D01*
X20156290Y-61994475D01*
X20156282Y-61994481D01*
X20044481Y-62106282D01*
X20044475Y-62106290D01*
X19965426Y-62243209D01*
X19965423Y-62243216D01*
X19924500Y-62395943D01*
X9500500Y-62395943D01*
X9500500Y-59395943D01*
X66604500Y-59395943D01*
X66604500Y-59554056D01*
X66645423Y-59706783D01*
X66645426Y-59706790D01*
X66724475Y-59843709D01*
X66724479Y-59843714D01*
X66724480Y-59843716D01*
X66836284Y-59955520D01*
X66836286Y-59955521D01*
X66836290Y-59955524D01*
X66973209Y-60034573D01*
X66973216Y-60034577D01*
X67125943Y-60075500D01*
X67125945Y-60075500D01*
X67284055Y-60075500D01*
X67284057Y-60075500D01*
X67436784Y-60034577D01*
X67573716Y-59955520D01*
X67685520Y-59843716D01*
X67764577Y-59706784D01*
X67805500Y-59554057D01*
X67805500Y-59395943D01*
X67764577Y-59243216D01*
X67764573Y-59243209D01*
X67685524Y-59106290D01*
X67685518Y-59106282D01*
X67573717Y-58994481D01*
X67573709Y-58994475D01*
X67436790Y-58915426D01*
X67436786Y-58915424D01*
X67436784Y-58915423D01*
X67284057Y-58874500D01*
X67125943Y-58874500D01*
X66973216Y-58915423D01*
X66973209Y-58915426D01*
X66836290Y-58994475D01*
X66836282Y-58994481D01*
X66724481Y-59106282D01*
X66724475Y-59106290D01*
X66645426Y-59243209D01*
X66645423Y-59243216D01*
X66604500Y-59395943D01*
X9500500Y-59395943D01*
X9500500Y-56395943D01*
X19924500Y-56395943D01*
X19924500Y-56554056D01*
X19965423Y-56706783D01*
X19965426Y-56706790D01*
X20044475Y-56843709D01*
X20044479Y-56843714D01*
X20044480Y-56843716D01*
X20156284Y-56955520D01*
X20156286Y-56955521D01*
X20156290Y-56955524D01*
X20293209Y-57034573D01*
X20293216Y-57034577D01*
X20445943Y-57075500D01*
X20445945Y-57075500D01*
X20604055Y-57075500D01*
X20604057Y-57075500D01*
X20756784Y-57034577D01*
X20893716Y-56955520D01*
X21005520Y-56843716D01*
X21084577Y-56706784D01*
X21125500Y-56554057D01*
X21125500Y-56395943D01*
X21084577Y-56243216D01*
X21084573Y-56243209D01*
X21005524Y-56106290D01*
X21005518Y-56106282D01*
X20893717Y-55994481D01*
X20893709Y-55994475D01*
X20756790Y-55915426D01*
X20756786Y-55915424D01*
X20756784Y-55915423D01*
X20604057Y-55874500D01*
X20445943Y-55874500D01*
X20293216Y-55915423D01*
X20293209Y-55915426D01*
X20156290Y-55994475D01*
X20156282Y-55994481D01*
X20044481Y-56106282D01*
X20044475Y-56106290D01*
X19965426Y-56243209D01*
X19965423Y-56243216D01*
X19924500Y-56395943D01*
X9500500Y-56395943D01*
X9500500Y-52995943D01*
X48129500Y-52995943D01*
X48129500Y-53154056D01*
X48170423Y-53306783D01*
X48170426Y-53306790D01*
X48249475Y-53443709D01*
X48249479Y-53443714D01*
X48249480Y-53443716D01*
X48361284Y-53555520D01*
X48361286Y-53555521D01*
X48361290Y-53555524D01*
X48498209Y-53634573D01*
X48498216Y-53634577D01*
X48650943Y-53675500D01*
X48650945Y-53675500D01*
X48809055Y-53675500D01*
X48809057Y-53675500D01*
X48961784Y-53634577D01*
X49098716Y-53555520D01*
X49210520Y-53443716D01*
X49238102Y-53395943D01*
X66604500Y-53395943D01*
X66604500Y-53554057D01*
X66637041Y-53675500D01*
X66645423Y-53706783D01*
X66645426Y-53706790D01*
X66724475Y-53843709D01*
X66724479Y-53843714D01*
X66724480Y-53843716D01*
X66836284Y-53955520D01*
X66836286Y-53955521D01*
X66836290Y-53955524D01*
X66973209Y-54034573D01*
X66973216Y-54034577D01*
X67125943Y-54075500D01*
X67125945Y-54075500D01*
X67284055Y-54075500D01*
X67284057Y-54075500D01*
X67436784Y-54034577D01*
X67573716Y-53955520D01*
X67685520Y-53843716D01*
X67764577Y-53706784D01*
X67805500Y-53554057D01*
X67805500Y-53395943D01*
X67764577Y-53243216D01*
X67713101Y-53154056D01*
X67685524Y-53106290D01*
X67685518Y-53106282D01*
X67573717Y-52994481D01*
X67573709Y-52994475D01*
X67436790Y-52915426D01*
X67436786Y-52915424D01*
X67436784Y-52915423D01*
X67284057Y-52874500D01*
X67125943Y-52874500D01*
X66973216Y-52915423D01*
X66973209Y-52915426D01*
X66836290Y-52994475D01*
X66836282Y-52994481D01*
X66724481Y-53106282D01*
X66724475Y-53106290D01*
X66645426Y-53243209D01*
X66645423Y-53243216D01*
X66604500Y-53395943D01*
X49238102Y-53395943D01*
X49289577Y-53306784D01*
X49330500Y-53154057D01*
X49330500Y-52995943D01*
X49289577Y-52843216D01*
X49289573Y-52843209D01*
X49210524Y-52706290D01*
X49210518Y-52706282D01*
X49098717Y-52594481D01*
X49098709Y-52594475D01*
X48961790Y-52515426D01*
X48961786Y-52515424D01*
X48961784Y-52515423D01*
X48809057Y-52474500D01*
X48650943Y-52474500D01*
X48498216Y-52515423D01*
X48498209Y-52515426D01*
X48361290Y-52594475D01*
X48361282Y-52594481D01*
X48249481Y-52706282D01*
X48249475Y-52706290D01*
X48170426Y-52843209D01*
X48170423Y-52843216D01*
X48129500Y-52995943D01*
X9500500Y-52995943D01*
X9500500Y-51395943D01*
X48129500Y-51395943D01*
X48129500Y-51554056D01*
X48170423Y-51706783D01*
X48170426Y-51706790D01*
X48249475Y-51843709D01*
X48249479Y-51843714D01*
X48249480Y-51843716D01*
X48361284Y-51955520D01*
X48361286Y-51955521D01*
X48361290Y-51955524D01*
X48498209Y-52034573D01*
X48498216Y-52034577D01*
X48650943Y-52075500D01*
X48650945Y-52075500D01*
X48809055Y-52075500D01*
X48809057Y-52075500D01*
X48961784Y-52034577D01*
X49098716Y-51955520D01*
X49210520Y-51843716D01*
X49289577Y-51706784D01*
X49330500Y-51554057D01*
X49330500Y-51395943D01*
X49289577Y-51243216D01*
X49289573Y-51243209D01*
X49210524Y-51106290D01*
X49210518Y-51106282D01*
X49098717Y-50994481D01*
X49098709Y-50994475D01*
X48961790Y-50915426D01*
X48961786Y-50915424D01*
X48961784Y-50915423D01*
X48809057Y-50874500D01*
X48650943Y-50874500D01*
X48498216Y-50915423D01*
X48498209Y-50915426D01*
X48361290Y-50994475D01*
X48361282Y-50994481D01*
X48249481Y-51106282D01*
X48249475Y-51106290D01*
X48170426Y-51243209D01*
X48170423Y-51243216D01*
X48129500Y-51395943D01*
X9500500Y-51395943D01*
X9500500Y-50395943D01*
X19924500Y-50395943D01*
X19924500Y-50554056D01*
X19965423Y-50706783D01*
X19965426Y-50706790D01*
X20044475Y-50843709D01*
X20044479Y-50843714D01*
X20044480Y-50843716D01*
X20156284Y-50955520D01*
X20156286Y-50955521D01*
X20156290Y-50955524D01*
X20223765Y-50994480D01*
X20293216Y-51034577D01*
X20445943Y-51075500D01*
X20445945Y-51075500D01*
X20604055Y-51075500D01*
X20604057Y-51075500D01*
X20756784Y-51034577D01*
X20893716Y-50955520D01*
X21005520Y-50843716D01*
X21084577Y-50706784D01*
X21125500Y-50554057D01*
X21125500Y-50395943D01*
X21084577Y-50243216D01*
X21084573Y-50243209D01*
X21005524Y-50106290D01*
X21005518Y-50106282D01*
X20893717Y-49994481D01*
X20893709Y-49994475D01*
X20756790Y-49915426D01*
X20756786Y-49915424D01*
X20756784Y-49915423D01*
X20604057Y-49874500D01*
X20445943Y-49874500D01*
X20293216Y-49915423D01*
X20293209Y-49915426D01*
X20156290Y-49994475D01*
X20156282Y-49994481D01*
X20044481Y-50106282D01*
X20044475Y-50106290D01*
X19965426Y-50243209D01*
X19965423Y-50243216D01*
X19924500Y-50395943D01*
X9500500Y-50395943D01*
X9500500Y-47395943D01*
X66604500Y-47395943D01*
X66604500Y-47554056D01*
X66645423Y-47706783D01*
X66645426Y-47706790D01*
X66724475Y-47843709D01*
X66724479Y-47843714D01*
X66724480Y-47843716D01*
X66836284Y-47955520D01*
X66836286Y-47955521D01*
X66836290Y-47955524D01*
X66973209Y-48034573D01*
X66973216Y-48034577D01*
X67125943Y-48075500D01*
X67125945Y-48075500D01*
X67284055Y-48075500D01*
X67284057Y-48075500D01*
X67436784Y-48034577D01*
X67573716Y-47955520D01*
X67685520Y-47843716D01*
X67764577Y-47706784D01*
X67805500Y-47554057D01*
X67805500Y-47395943D01*
X67764577Y-47243216D01*
X67764573Y-47243209D01*
X67685524Y-47106290D01*
X67685518Y-47106282D01*
X67573717Y-46994481D01*
X67573709Y-46994475D01*
X67436790Y-46915426D01*
X67436786Y-46915424D01*
X67436784Y-46915423D01*
X67284057Y-46874500D01*
X67125943Y-46874500D01*
X66973216Y-46915423D01*
X66973209Y-46915426D01*
X66836290Y-46994475D01*
X66836282Y-46994481D01*
X66724481Y-47106282D01*
X66724475Y-47106290D01*
X66645426Y-47243209D01*
X66645423Y-47243216D01*
X66604500Y-47395943D01*
X9500500Y-47395943D01*
X9500500Y-44395943D01*
X19924500Y-44395943D01*
X19924500Y-44554056D01*
X19965423Y-44706783D01*
X19965426Y-44706790D01*
X20044475Y-44843709D01*
X20044479Y-44843714D01*
X20044480Y-44843716D01*
X20156284Y-44955520D01*
X20156286Y-44955521D01*
X20156290Y-44955524D01*
X20293209Y-45034573D01*
X20293216Y-45034577D01*
X20445943Y-45075500D01*
X20445945Y-45075500D01*
X20604055Y-45075500D01*
X20604057Y-45075500D01*
X20756784Y-45034577D01*
X20893716Y-44955520D01*
X21005520Y-44843716D01*
X21084577Y-44706784D01*
X21125500Y-44554057D01*
X21125500Y-44395943D01*
X21084577Y-44243216D01*
X21084573Y-44243209D01*
X21005524Y-44106290D01*
X21005518Y-44106282D01*
X20893717Y-43994481D01*
X20893709Y-43994475D01*
X20756790Y-43915426D01*
X20756786Y-43915424D01*
X20756784Y-43915423D01*
X20604057Y-43874500D01*
X20445943Y-43874500D01*
X20293216Y-43915423D01*
X20293209Y-43915426D01*
X20156290Y-43994475D01*
X20156282Y-43994481D01*
X20044481Y-44106282D01*
X20044475Y-44106290D01*
X19965426Y-44243209D01*
X19965423Y-44243216D01*
X19924500Y-44395943D01*
X9500500Y-44395943D01*
X9500500Y-41395943D01*
X66604500Y-41395943D01*
X66604500Y-41554056D01*
X66645423Y-41706783D01*
X66645426Y-41706790D01*
X66724475Y-41843709D01*
X66724479Y-41843714D01*
X66724480Y-41843716D01*
X66836284Y-41955520D01*
X66836286Y-41955521D01*
X66836290Y-41955524D01*
X66973209Y-42034573D01*
X66973216Y-42034577D01*
X67125943Y-42075500D01*
X67125945Y-42075500D01*
X67284055Y-42075500D01*
X67284057Y-42075500D01*
X67436784Y-42034577D01*
X67573716Y-41955520D01*
X67685520Y-41843716D01*
X67764577Y-41706784D01*
X67805500Y-41554057D01*
X67805500Y-41395943D01*
X67764577Y-41243216D01*
X67764573Y-41243209D01*
X67685524Y-41106290D01*
X67685518Y-41106282D01*
X67573717Y-40994481D01*
X67573709Y-40994475D01*
X67436790Y-40915426D01*
X67436786Y-40915424D01*
X67436784Y-40915423D01*
X67284057Y-40874500D01*
X67125943Y-40874500D01*
X66973216Y-40915423D01*
X66973209Y-40915426D01*
X66836290Y-40994475D01*
X66836282Y-40994481D01*
X66724481Y-41106282D01*
X66724475Y-41106290D01*
X66645426Y-41243209D01*
X66645423Y-41243216D01*
X66604500Y-41395943D01*
X9500500Y-41395943D01*
X9500500Y-39335092D01*
X45774500Y-39335092D01*
X45774500Y-39484907D01*
X45803723Y-39631822D01*
X45803725Y-39631830D01*
X45861051Y-39770229D01*
X45861056Y-39770238D01*
X45944280Y-39894790D01*
X45944283Y-39894794D01*
X46050205Y-40000716D01*
X46050209Y-40000719D01*
X46174761Y-40083943D01*
X46174767Y-40083946D01*
X46174768Y-40083947D01*
X46313170Y-40141275D01*
X46460092Y-40170499D01*
X46460096Y-40170500D01*
X46460097Y-40170500D01*
X46609904Y-40170500D01*
X46609905Y-40170499D01*
X46756830Y-40141275D01*
X46895232Y-40083947D01*
X47019791Y-40000719D01*
X47125719Y-39894791D01*
X47208947Y-39770232D01*
X47266275Y-39631830D01*
X47295500Y-39484903D01*
X47295500Y-39335097D01*
X47266275Y-39188170D01*
X47208947Y-39049768D01*
X47208946Y-39049767D01*
X47208943Y-39049761D01*
X47125719Y-38925209D01*
X47125716Y-38925205D01*
X47019794Y-38819283D01*
X47019790Y-38819280D01*
X46895238Y-38736056D01*
X46895229Y-38736051D01*
X46756830Y-38678725D01*
X46756822Y-38678723D01*
X46609907Y-38649500D01*
X46609903Y-38649500D01*
X46460097Y-38649500D01*
X46460092Y-38649500D01*
X46313177Y-38678723D01*
X46313169Y-38678725D01*
X46174770Y-38736051D01*
X46174761Y-38736056D01*
X46050209Y-38819280D01*
X46050205Y-38819283D01*
X45944283Y-38925205D01*
X45944280Y-38925209D01*
X45861056Y-39049761D01*
X45861051Y-39049770D01*
X45803725Y-39188169D01*
X45803723Y-39188177D01*
X45774500Y-39335092D01*
X9500500Y-39335092D01*
X9500500Y-35395943D01*
X66604500Y-35395943D01*
X66604500Y-35554056D01*
X66645423Y-35706783D01*
X66645426Y-35706790D01*
X66724475Y-35843709D01*
X66724479Y-35843714D01*
X66724480Y-35843716D01*
X66836284Y-35955520D01*
X66836286Y-35955521D01*
X66836290Y-35955524D01*
X66973209Y-36034573D01*
X66973216Y-36034577D01*
X67125943Y-36075500D01*
X67125945Y-36075500D01*
X67284055Y-36075500D01*
X67284057Y-36075500D01*
X67436784Y-36034577D01*
X67573716Y-35955520D01*
X67685520Y-35843716D01*
X67764577Y-35706784D01*
X67805500Y-35554057D01*
X67805500Y-35395943D01*
X67764577Y-35243216D01*
X67764573Y-35243209D01*
X67685524Y-35106290D01*
X67685518Y-35106282D01*
X67573717Y-34994481D01*
X67573709Y-34994475D01*
X67436790Y-34915426D01*
X67436786Y-34915424D01*
X67436784Y-34915423D01*
X67284057Y-34874500D01*
X67125943Y-34874500D01*
X66973216Y-34915423D01*
X66973209Y-34915426D01*
X66836290Y-34994475D01*
X66836282Y-34994481D01*
X66724481Y-35106282D01*
X66724475Y-35106290D01*
X66645426Y-35243209D01*
X66645423Y-35243216D01*
X66604500Y-35395943D01*
X9500500Y-35395943D01*
X9500500Y-32395943D01*
X19924500Y-32395943D01*
X19924500Y-32554056D01*
X19965423Y-32706783D01*
X19965426Y-32706790D01*
X20044475Y-32843709D01*
X20044479Y-32843714D01*
X20044480Y-32843716D01*
X20156284Y-32955520D01*
X20156286Y-32955521D01*
X20156290Y-32955524D01*
X20293209Y-33034573D01*
X20293216Y-33034577D01*
X20445943Y-33075500D01*
X20445945Y-33075500D01*
X20604055Y-33075500D01*
X20604057Y-33075500D01*
X20756784Y-33034577D01*
X20893716Y-32955520D01*
X21005520Y-32843716D01*
X21084577Y-32706784D01*
X21125500Y-32554057D01*
X21125500Y-32395943D01*
X21084577Y-32243216D01*
X21084573Y-32243209D01*
X21005524Y-32106290D01*
X21005518Y-32106282D01*
X20893717Y-31994481D01*
X20893709Y-31994475D01*
X20756790Y-31915426D01*
X20756786Y-31915424D01*
X20756784Y-31915423D01*
X20604057Y-31874500D01*
X20445943Y-31874500D01*
X20293216Y-31915423D01*
X20293209Y-31915426D01*
X20156290Y-31994475D01*
X20156282Y-31994481D01*
X20044481Y-32106282D01*
X20044475Y-32106290D01*
X19965426Y-32243209D01*
X19965423Y-32243216D01*
X19924500Y-32395943D01*
X9500500Y-32395943D01*
X9500500Y-29395943D01*
X66604500Y-29395943D01*
X66604500Y-29554056D01*
X66645423Y-29706783D01*
X66645426Y-29706790D01*
X66724475Y-29843709D01*
X66724479Y-29843714D01*
X66724480Y-29843716D01*
X66836284Y-29955520D01*
X66836286Y-29955521D01*
X66836290Y-29955524D01*
X66973209Y-30034573D01*
X66973216Y-30034577D01*
X67125943Y-30075500D01*
X67125945Y-30075500D01*
X67284055Y-30075500D01*
X67284057Y-30075500D01*
X67436784Y-30034577D01*
X67573716Y-29955520D01*
X67685520Y-29843716D01*
X67764577Y-29706784D01*
X67805500Y-29554057D01*
X67805500Y-29395943D01*
X67764577Y-29243216D01*
X67764573Y-29243209D01*
X67685524Y-29106290D01*
X67685518Y-29106282D01*
X67573717Y-28994481D01*
X67573709Y-28994475D01*
X67436790Y-28915426D01*
X67436786Y-28915424D01*
X67436784Y-28915423D01*
X67284057Y-28874500D01*
X67125943Y-28874500D01*
X66973216Y-28915423D01*
X66973209Y-28915426D01*
X66836290Y-28994475D01*
X66836282Y-28994481D01*
X66724481Y-29106282D01*
X66724475Y-29106290D01*
X66645426Y-29243209D01*
X66645423Y-29243216D01*
X66604500Y-29395943D01*
X9500500Y-29395943D01*
X9500500Y-23395943D01*
X66604500Y-23395943D01*
X66604500Y-23554056D01*
X66645423Y-23706783D01*
X66645426Y-23706790D01*
X66724475Y-23843709D01*
X66724479Y-23843714D01*
X66724480Y-23843716D01*
X66836284Y-23955520D01*
X66836286Y-23955521D01*
X66836290Y-23955524D01*
X66973209Y-24034573D01*
X66973216Y-24034577D01*
X67125943Y-24075500D01*
X67125945Y-24075500D01*
X67284055Y-24075500D01*
X67284057Y-24075500D01*
X67436784Y-24034577D01*
X67573716Y-23955520D01*
X67685520Y-23843716D01*
X67764577Y-23706784D01*
X67805500Y-23554057D01*
X67805500Y-23395943D01*
X67764577Y-23243216D01*
X67764573Y-23243209D01*
X67685524Y-23106290D01*
X67685518Y-23106282D01*
X67573717Y-22994481D01*
X67573709Y-22994475D01*
X67436790Y-22915426D01*
X67436786Y-22915424D01*
X67436784Y-22915423D01*
X67284057Y-22874500D01*
X67125943Y-22874500D01*
X66973216Y-22915423D01*
X66973209Y-22915426D01*
X66836290Y-22994475D01*
X66836282Y-22994481D01*
X66724481Y-23106282D01*
X66724475Y-23106290D01*
X66645426Y-23243209D01*
X66645423Y-23243216D01*
X66604500Y-23395943D01*
X9500500Y-23395943D01*
X9500500Y-14878711D01*
X14674500Y-14878711D01*
X14674500Y-15121288D01*
X14706161Y-15361785D01*
X14768947Y-15596104D01*
X14861773Y-15820205D01*
X14861776Y-15820212D01*
X14983064Y-16030289D01*
X14983066Y-16030292D01*
X14983067Y-16030293D01*
X15130733Y-16222736D01*
X15130739Y-16222743D01*
X15302256Y-16394260D01*
X15302262Y-16394265D01*
X15494711Y-16541936D01*
X15704788Y-16663224D01*
X15928900Y-16756054D01*
X16163211Y-16818838D01*
X16343586Y-16842584D01*
X16403711Y-16850500D01*
X16403712Y-16850500D01*
X16646289Y-16850500D01*
X16694388Y-16844167D01*
X16886789Y-16818838D01*
X17121100Y-16756054D01*
X17345212Y-16663224D01*
X17555289Y-16541936D01*
X17747738Y-16394265D01*
X17919265Y-16222738D01*
X18066936Y-16030289D01*
X18188224Y-15820212D01*
X18281054Y-15596100D01*
X18343838Y-15361789D01*
X18375500Y-15121288D01*
X18375500Y-14878712D01*
X18375500Y-14878711D01*
X69354500Y-14878711D01*
X69354500Y-15121288D01*
X69386161Y-15361785D01*
X69448947Y-15596104D01*
X69541773Y-15820205D01*
X69541776Y-15820212D01*
X69663064Y-16030289D01*
X69663066Y-16030292D01*
X69663067Y-16030293D01*
X69810733Y-16222736D01*
X69810739Y-16222743D01*
X69982256Y-16394260D01*
X69982262Y-16394265D01*
X70174711Y-16541936D01*
X70384788Y-16663224D01*
X70608900Y-16756054D01*
X70843211Y-16818838D01*
X71023586Y-16842584D01*
X71083711Y-16850500D01*
X71083712Y-16850500D01*
X71326289Y-16850500D01*
X71374388Y-16844167D01*
X71566789Y-16818838D01*
X71801100Y-16756054D01*
X72025212Y-16663224D01*
X72235289Y-16541936D01*
X72427738Y-16394265D01*
X72599265Y-16222738D01*
X72746936Y-16030289D01*
X72868224Y-15820212D01*
X72961054Y-15596100D01*
X73023838Y-15361789D01*
X73055500Y-15121288D01*
X73055500Y-14878712D01*
X73023838Y-14638211D01*
X72961054Y-14403900D01*
X72868224Y-14179788D01*
X72746936Y-13969711D01*
X72599265Y-13777262D01*
X72599260Y-13777256D01*
X72427743Y-13605739D01*
X72427736Y-13605733D01*
X72235293Y-13458067D01*
X72235292Y-13458066D01*
X72235289Y-13458064D01*
X72025212Y-13336776D01*
X72025205Y-13336773D01*
X71801104Y-13243947D01*
X71566785Y-13181161D01*
X71326289Y-13149500D01*
X71326288Y-13149500D01*
X71083712Y-13149500D01*
X71083711Y-13149500D01*
X70843214Y-13181161D01*
X70608895Y-13243947D01*
X70384794Y-13336773D01*
X70384785Y-13336777D01*
X70174706Y-13458067D01*
X69982263Y-13605733D01*
X69982256Y-13605739D01*
X69810739Y-13777256D01*
X69810733Y-13777263D01*
X69663067Y-13969706D01*
X69541777Y-14179785D01*
X69541773Y-14179794D01*
X69448947Y-14403895D01*
X69386161Y-14638214D01*
X69354500Y-14878711D01*
X18375500Y-14878711D01*
X18343838Y-14638211D01*
X18281054Y-14403900D01*
X18188224Y-14179788D01*
X18066936Y-13969711D01*
X17919265Y-13777262D01*
X17919260Y-13777256D01*
X17747743Y-13605739D01*
X17747736Y-13605733D01*
X17555293Y-13458067D01*
X17555292Y-13458066D01*
X17555289Y-13458064D01*
X17345212Y-13336776D01*
X17345205Y-13336773D01*
X17121104Y-13243947D01*
X16886785Y-13181161D01*
X16646289Y-13149500D01*
X16646288Y-13149500D01*
X16403712Y-13149500D01*
X16403711Y-13149500D01*
X16163214Y-13181161D01*
X15928895Y-13243947D01*
X15704794Y-13336773D01*
X15704785Y-13336777D01*
X15494706Y-13458067D01*
X15302263Y-13605733D01*
X15302256Y-13605739D01*
X15130739Y-13777256D01*
X15130733Y-13777263D01*
X14983067Y-13969706D01*
X14861777Y-14179785D01*
X14861773Y-14179794D01*
X14768947Y-14403895D01*
X14706161Y-14638214D01*
X14674500Y-14878711D01*
X9500500Y-14878711D01*
X9500500Y-10624500D01*
X9520185Y-10557461D01*
X9572989Y-10511706D01*
X9624500Y-10500500D01*
X78105500Y-10500500D01*
X78172539Y-10520185D01*
G37*
%TD.AperFunction*%
%TD*%
M02*
