  0
SECTION
  2
HEADER
  9
$ACADVER
  1
AC1014
  9
$HANDSEED
  5
FFFF
  9
$INSUNITS
 70
     0
  9
$MEASUREMENT
 70
     1
  0
ENDSEC
  0
SECTION
  2
TABLES
  0
TABLE
  2
VPORT
  5
8
330
0
100
AcDbSymbolTable
 70
     4
  0
VPORT
  5
2E
330
8
100
AcDbSymbolTableRecord
100
AcDbViewportTableRecord
  2
*ACTIVE
 70
     0
 10
0.0
 20
0.0
 11
1.0
 21
1.0
 12
210.0
 22
148.5
 13
0.0
 23
0.0
 14
10.0
 24
10.0
 15
10.0
 25
10.0
 16
0.0
 26
0.0
 36
1.0
 17
0.0
 27
0.0
 37
0.0
 40
341.0
 41
1.24
 42
50.0
 43
0.0
 44
0.0
 50
0.0
 51
0.0
 71
     0
 72
   100
 73
     1
 74
     3
 75
     0
 76
     0
 77
     0
 78
     0
  0
ENDTAB
  0
TABLE
  2
LTYPE
  5
5
330
0
100
AcDbSymbolTable
 70
     1
  0
LTYPE
  5
14
330
5
100
AcDbSymbolTableRecord
100
AcDbLinetypeTableRecord
  2
BYBLOCK
 70
     0
  3

 72
    65
 73
     0
 40
0.0
  0
LTYPE
  5
15
330
5
100
AcDbSymbolTableRecord
100
AcDbLinetypeTableRecord
  2
BYLAYER
 70
     0
  3

 72
    65
 73
     0
 40
0.0
  0
LTYPE
  5
16
330
5
100
AcDbSymbolTableRecord
100
AcDbLinetypeTableRecord
  2
CONTINUOUS
 70
     0
  3
Solid line
 72
    65
 73
     0
 40
0.0
  0
ENDTAB
  0
TABLE
  2
LAYER
  5
2
100
AcDbSymbolTable
 70
1
  0
LAYER
  5
50
100
AcDbSymbolTableRecord
100
AcDbLayerTableRecord
  2
0
 70
0
  6
CONTINUOUS
  0
ENDTAB
  0
TABLE
  2
STYLE
  5
3
330
0
100
AcDbSymbolTable
 70
     1
  0
STYLE
  5
11
330
3
100
AcDbSymbolTableRecord
100
AcDbTextStyleTableRecord
  2
STANDARD
 70
     0
 40
0.0
 41
1.0
 50
0.0
 71
     0
 42
2.5
  3
txt
  4

  0
ENDTAB
  0
TABLE
  2
VIEW
  5
6
330
0
100
AcDbSymbolTable
 70
     0
  0
ENDTAB
  0
TABLE
  2
UCS
  5
7
330
0
100
AcDbSymbolTable
 70
     0
  0
ENDTAB
  0
TABLE
  2
APPID
  5
9
330
0
100
AcDbSymbolTable
 70
     2
  0
APPID
  5
12
330
9
100
AcDbSymbolTableRecord
100
AcDbRegAppTableRecord
  2
ACAD
 70
     0
  0
ENDTAB
  0
TABLE
  2
DIMSTYLE
  5
A
330
0
100
AcDbSymbolTable
 70
     1
  0
DIMSTYLE
105
27
330
A
100
AcDbSymbolTableRecord
100
AcDbDimStyleTableRecord
  2
ISO-25
 70
     0
  3

  4

  5

  6

  7

 40
1.0
 41
2.5
 42
0.625
 43
3.75
 44
1.25
 45
0.0
 46
0.0
 47
0.0
 48
0.0
140
2.5
141
2.5
142
0.0
143
0.03937007874016
144
1.0
145
0.0
146
1.0
147
0.625
 71
     0
 72
     0
 73
     0
 74
     0
 75
     0
 76
     0
 77
     1
 78
     8
170
     0
171
     3
172
     1
173
     0
174
     0
175
     0
176
     0
177
     0
178
     0
270
     2
271
     2
272
     2
273
     2
274
     3
340
11
275
     0
280
     0
281
     0
282
     0
283
     0
284
     8
285
     0
286
     0
287
     3
288
     0
  0
ENDTAB
  0
TABLE
  2
BLOCK_RECORD
  5
1
330
0
100
AcDbSymbolTable
 70
     1
  0
BLOCK_RECORD
  5
1F
330
1
100
AcDbSymbolTableRecord
100
AcDbBlockTableRecord
  2
*MODEL_SPACE
  0
BLOCK_RECORD
  5
1B
330
1
100
AcDbSymbolTableRecord
100
AcDbBlockTableRecord
  2
*PAPER_SPACE
  0
ENDTAB
  0
ENDSEC
  0
SECTION
  2
BLOCKS
  0
BLOCK
  5
20
330
1F
100
AcDbEntity
  8
0
100
AcDbBlockBegin
  2
*MODEL_SPACE
 70
     0
 10
0.0
 20
0.0
 30
0.0
  3
*MODEL_SPACE
  1

  0
ENDBLK
  5
21
330
1F
100
AcDbEntity
  8
0
100
AcDbBlockEnd
  0
BLOCK
  5
1C
330
1B
100
AcDbEntity
 67
     1
  8
0
100
AcDbBlockBegin
  2
*PAPER_SPACE
  1

  0
ENDBLK
  5
1D
330
1B
100
AcDbEntity
 67
     1
  8
0
100
AcDbBlockEnd
  0
ENDSEC
  0
SECTION
  2
ENTITIES
  0
SPLINE
  5
100
100
AcDbEntity
  8
0
 62
7
100
AcDbSpline
 70
8
 71
3
 72
8
 73
4
 74
0
 40
0
 40
0
 40
0
 40
0
 40
1
 40
1
 40
1
 40
1
 10
121.565606
 20
1271.931872
 30
0.0
 10
102.292536
 20
1340.373322
 30
0.0
 10
113.576231
 20
1403.510137
 30
0.0
 10
113.576231
 20
1479.927992
 30
0.0
  0
SPLINE
  5
101
100
AcDbEntity
  8
0
 62
7
100
AcDbSpline
 70
8
 71
3
 72
8
 73
4
 74
0
 40
0
 40
0
 40
0
 40
0
 40
1
 40
1
 40
1
 40
1
 10
113.576231
 20
1479.927992
 30
0.0
 10
182.017680
 20
1514.479446
 30
0.0
 10
249.810641
 20
1517.138247
 30
0.0
 10
323.556725
 20
1517.138247
 30
0.0
  0
SPLINE
  5
102
100
AcDbEntity
  8
0
 62
7
100
AcDbSpline
 70
8
 71
3
 72
8
 73
4
 74
0
 40
0
 40
0
 40
0
 40
0
 40
1
 40
1
 40
1
 40
1
 10
323.556725
 20
1517.138247
 30
0.0
 10
386.693540
 20
1517.138247
 30
0.0
 10
477.053892
 20
1509.161842
 30
0.0
 10
531.552844
 20
1479.927992
 30
0.0
  0
SPLINE
  5
103
100
AcDbEntity
  8
0
 62
7
100
AcDbSpline
 70
8
 71
3
 72
8
 73
4
 74
0
 40
0
 40
0
 40
0
 40
0
 40
1
 40
1
 40
1
 40
1
 10
531.552844
 20
1479.927992
 30
0.0
 10
536.870448
 20
1408.153313
 30
0.0
 10
540.190707
 20
1344.368009
 30
0.0
 10
521.579095
 20
1261.971093
 30
0.0
  0
SPLINE
  5
104
100
AcDbEntity
  8
0
 62
7
100
AcDbSpline
 70
8
 71
3
 72
8
 73
4
 74
0
 40
0
 40
0
 40
0
 40
0
 40
1
 40
1
 40
1
 40
1
 10
521.579095
 20
1261.971093
 30
0.0
 10
502.967482
 20
1180.235635
 30
0.0
 10
449.142958
 20
1066.594555
 30
0.0
 10
326.215526
 20
982.874722
 30
0.0
  0
SPLINE
  5
105
100
AcDbEntity
  8
0
 62
7
100
AcDbSpline
 70
8
 71
3
 72
8
 73
4
 74
0
 40
0
 40
0
 40
0
 40
0
 40
1
 40
1
 40
1
 40
1
 10
326.215526
 20
982.874722
 30
0.0
 10
191.991430
 20
1071.250700
 30
0.0
 10
148.127685
 20
1177.563863
 30
0.0
 10
121.565606
 20
1271.931872
 30
0.0
  0
LWPOLYLINE
  5
106
100
AcDbEntity
  8
0
 62
7
100
AcDbPolyline
 90
5
 70
1
 10
0.000000
 20
2500.000000
 30
0.0
 10
2500.000000
 20
2500.000000
 30
0.0
 10
2500.000000
 20
0.000000
 30
0.0
 10
0.000000
 20
0.000000
 30
0.0
 10
0.000000
 20
2500.000000
 30
0.0
  0
LWPOLYLINE
  5
107
100
AcDbEntity
  8
0
 62
7
100
AcDbPolyline
 90
1
 70
1
 10
121.565606
 20
1271.931872
 30
0.0
  0
SPLINE
  5
108
100
AcDbEntity
  8
0
 62
7
100
AcDbSpline
 70
8
 71
3
 72
8
 73
4
 74
0
 40
0
 40
0
 40
0
 40
0
 40
1
 40
1
 40
1
 40
1
 10
119.568262
 20
1299.842806
 30
0.0
 10
134.185187
 20
1230.739899
 30
0.0
 10
175.390131
 20
1086.529083
 30
0.0
 10
325.567038
 20
988.840814
 30
0.0
  0
SPLINE
  5
109
100
AcDbEntity
  8
0
 62
7
100
AcDbSpline
 70
8
 71
3
 72
8
 73
4
 74
0
 40
0
 40
0
 40
0
 40
0
 40
1
 40
1
 40
1
 40
1
 10
325.567038
 20
988.840814
 30
0.0
 10
474.421030
 20
1091.185229
 30
0.0
 10
514.290087
 20
1231.388387
 30
0.0
 10
522.927950
 20
1301.827180
 30
0.0
  0
LWPOLYLINE
  5
10a
100
AcDbEntity
  8
0
 62
7
100
AcDbPolyline
 90
2
 70
0
 10
185.350910
 20
1372.265974
 30
0.0
 10
119.568262
 20
1299.842806
 30
0.0
  0
SPLINE
  5
10b
100
AcDbEntity
  8
0
 62
7
100
AcDbSpline
 70
8
 71
3
 72
8
 73
4
 74
0
 40
0
 40
0
 40
0
 40
0
 40
1
 40
1
 40
1
 40
1
 10
497.014360
 20
1444.702110
 30
0.0
 10
496.339932
 20
1444.702110
 30
0.0
 10
495.017016
 20
1445.363568
 30
0.0
 10
497.014360
 20
1446.037996
 30
0.0
  0
SPLINE
  5
10c
100
AcDbEntity
  8
0
 62
7
100
AcDbSpline
 70
8
 71
3
 72
8
 73
4
 74
0
 40
0
 40
0
 40
0
 40
0
 40
1
 40
1
 40
1
 40
1
 10
497.014360
 20
1446.037996
 30
0.0
 10
498.337276
 20
1446.037996
 30
0.0
 10
501.657536
 20
1446.037996
 30
0.0
 10
505.652224
 20
1441.381851
 30
0.0
  0
SPLINE
  5
10d
100
AcDbEntity
  8
0
 62
7
100
AcDbSpline
 70
8
 71
3
 72
8
 73
4
 74
0
 40
0
 40
0
 40
0
 40
0
 40
1
 40
1
 40
1
 40
1
 10
505.652224
 20
1441.381851
 30
0.0
 10
506.988109
 20
1442.043309
 30
0.0
 10
510.969827
 20
1448.022370
 30
0.0
 10
514.951545
 20
1446.037996
 30
0.0
  0
SPLINE
  5
10e
100
AcDbEntity
  8
0
 62
7
100
AcDbSpline
 70
8
 71
3
 72
8
 73
4
 74
0
 40
0
 40
0
 40
0
 40
0
 40
1
 40
1
 40
1
 40
1
 10
514.951545
 20
1446.037996
 30
0.0
 10
514.951545
 20
1446.037996
 30
0.0
 10
501.670506
 20
1416.791176
 30
0.0
 10
500.334620
 20
1414.806802
 30
0.0
  0
SPLINE
  5
10f
100
AcDbEntity
  8
0
 62
7
100
AcDbSpline
 70
8
 71
3
 72
8
 73
4
 74
0
 40
0
 40
0
 40
0
 40
0
 40
1
 40
1
 40
1
 40
1
 10
500.334620
 20
1414.806802
 30
0.0
 10
495.017016
 20
1417.465604
 30
0.0
 10
461.127021
 20
1419.449978
 30
0.0
 10
464.447280
 20
1419.449978
 30
0.0
  0
SPLINE
  5
110
100
AcDbEntity
  8
0
 62
7
100
AcDbSpline
 70
8
 71
3
 72
8
 73
4
 74
0
 40
0
 40
0
 40
0
 40
0
 40
1
 40
1
 40
1
 40
1
 10
464.447280
 20
1419.449978
 30
0.0
 10
467.106082
 20
1419.449978
 30
0.0
 10
433.877545
 20
1418.788520
 30
0.0
 10
428.559941
 20
1414.806802
 30
0.0
  0
SPLINE
  5
111
100
AcDbEntity
  8
0
 62
7
100
AcDbSpline
 70
8
 71
3
 72
8
 73
4
 74
0
 40
0
 40
0
 40
0
 40
0
 40
1
 40
1
 40
1
 40
1
 10
428.559941
 20
1414.806802
 30
0.0
 10
427.224055
 20
1417.465604
 30
0.0
 10
413.943016
 20
1446.699454
 30
0.0
 10
413.943016
 20
1446.699454
 30
0.0
  0
SPLINE
  5
112
100
AcDbEntity
  8
0
 62
7
100
AcDbSpline
 70
8
 71
3
 72
8
 73
4
 74
0
 40
0
 40
0
 40
0
 40
0
 40
1
 40
1
 40
1
 40
1
 10
413.943016
 20
1446.699454
 30
0.0
 10
417.937704
 20
1448.696798
 30
0.0
 10
422.580879
 20
1442.704767
 30
0.0
 10
423.916765
 20
1442.056278
 30
0.0
  0
SPLINE
  5
113
100
AcDbEntity
  8
0
 62
7
100
AcDbSpline
 70
8
 71
3
 72
8
 73
4
 74
0
 40
0
 40
0
 40
0
 40
0
 40
1
 40
1
 40
1
 40
1
 10
423.916765
 20
1442.056278
 30
0.0
 10
427.237025
 20
1446.699454
 30
0.0
 10
430.557285
 20
1446.699454
 30
0.0
 10
431.218743
 20
1446.699454
 30
0.0
  0
SPLINE
  5
114
100
AcDbEntity
  8
0
 62
7
100
AcDbSpline
 70
8
 71
3
 72
8
 73
4
 74
0
 40
0
 40
0
 40
0
 40
0
 40
1
 40
1
 40
1
 40
1
 10
431.218743
 20
1446.699454
 30
0.0
 10
434.539003
 20
1446.037996
 30
0.0
 10
432.554629
 20
1445.363568
 30
0.0
 10
431.880201
 20
1444.715080
 30
0.0
  0
SPLINE
  5
115
100
AcDbEntity
  8
0
 62
7
100
AcDbSpline
 70
8
 71
3
 72
8
 73
4
 74
0
 40
0
 40
0
 40
0
 40
0
 40
1
 40
1
 40
1
 40
1
 10
431.880201
 20
1444.715080
 30
0.0
 10
415.940360
 20
1432.082529
 30
0.0
 10
439.182179
 20
1416.804146
 30
0.0
 10
444.512752
 20
1432.082529
 30
0.0
  0
SPLINE
  5
116
100
AcDbEntity
  8
0
 62
7
100
AcDbSpline
 70
8
 71
3
 72
8
 73
4
 74
0
 40
0
 40
0
 40
0
 40
0
 40
1
 40
1
 40
1
 40
1
 10
444.512752
 20
1432.082529
 30
0.0
 10
465.783166
 20
1429.423727
 30
0.0
 10
459.791135
 20
1446.037996
 30
0.0
 10
454.486501
 20
1448.696798
 30
0.0
  0
SPLINE
  5
117
100
AcDbEntity
  8
0
 62
7
100
AcDbSpline
 70
8
 71
3
 72
8
 73
4
 74
0
 40
0
 40
0
 40
0
 40
0
 40
1
 40
1
 40
1
 40
1
 10
454.486501
 20
1448.696798
 30
0.0
 10
450.491813
 20
1449.358256
 30
0.0
 10
453.150615
 20
1450.032684
 30
0.0
 10
454.486501
 20
1450.032684
 30
0.0
  0
SPLINE
  5
118
100
AcDbEntity
  8
0
 62
7
100
AcDbSpline
 70
8
 71
3
 72
8
 73
4
 74
0
 40
0
 40
0
 40
0
 40
0
 40
1
 40
1
 40
1
 40
1
 10
454.486501
 20
1450.032684
 30
0.0
 10
456.470875
 20
1451.368570
 30
0.0
 10
459.129677
 20
1451.368570
 30
0.0
 10
459.129677
 20
1449.371226
 30
0.0
  0
SPLINE
  5
119
100
AcDbEntity
  8
0
 62
7
100
AcDbSpline
 70
8
 71
3
 72
8
 73
4
 74
0
 40
0
 40
0
 40
0
 40
0
 40
1
 40
1
 40
1
 40
1
 10
459.129677
 20
1449.371226
 30
0.0
 10
459.129677
 20
1458.670547
 30
0.0
 10
459.791135
 20
1464.662579
 30
0.0
 10
464.447280
 20
1467.308411
 30
0.0
  0
SPLINE
  5
11a
100
AcDbEntity
  8
0
 62
7
100
AcDbSpline
 70
8
 71
3
 72
8
 73
4
 74
0
 40
0
 40
0
 40
0
 40
0
 40
1
 40
1
 40
1
 40
1
 10
464.447280
 20
1467.308411
 30
0.0
 10
469.764884
 20
1463.988151
 30
0.0
 10
470.426342
 20
1458.670547
 30
0.0
 10
469.764884
 20
1449.371226
 30
0.0
  0
SPLINE
  5
11b
100
AcDbEntity
  8
0
 62
7
100
AcDbSpline
 70
8
 71
3
 72
8
 73
4
 74
0
 40
0
 40
0
 40
0
 40
0
 40
1
 40
1
 40
1
 40
1
 10
469.764884
 20
1449.371226
 30
0.0
 10
470.426342
 20
1451.368570
 30
0.0
 10
472.423686
 20
1450.032684
 30
0.0
 10
474.421030
 20
1450.032684
 30
0.0
  0
SPLINE
  5
11c
100
AcDbEntity
  8
0
 62
7
100
AcDbSpline
 70
8
 71
3
 72
8
 73
4
 74
0
 40
0
 40
0
 40
0
 40
0
 40
1
 40
1
 40
1
 40
1
 10
474.421030
 20
1450.032684
 30
0.0
 10
475.082488
 20
1449.371226
 30
0.0
 10
478.402748
 20
1449.371226
 30
0.0
 10
475.082488
 20
1448.035340
 30
0.0
  0
SPLINE
  5
11d
100
AcDbEntity
  8
0
 62
7
100
AcDbSpline
 70
8
 71
3
 72
8
 73
4
 74
0
 40
0
 40
0
 40
0
 40
0
 40
1
 40
1
 40
1
 40
1
 10
475.082488
 20
1448.035340
 30
0.0
 10
469.764884
 20
1446.050966
 30
0.0
 10
464.460250
 20
1428.100811
 30
0.0
 10
485.056237
 20
1432.095499
 30
0.0
  0
SPLINE
  5
11e
100
AcDbEntity
  8
0
 62
7
100
AcDbSpline
 70
8
 71
3
 72
8
 73
4
 74
0
 40
0
 40
0
 40
0
 40
0
 40
1
 40
1
 40
1
 40
1
 10
485.056237
 20
1432.095499
 30
0.0
 10
489.699413
 20
1416.791176
 30
0.0
 10
514.951545
 20
1433.405445
 30
0.0
 10
497.014360
 20
1444.702110
 30
0.0
  0
LWPOLYLINE
  5
11f
100
AcDbEntity
  8
0
 62
7
100
AcDbPolyline
 90
7
 70
0
 10
522.927950
 20
1301.827180
 30
0.0
 10
459.129677
 20
1372.265974
 30
0.0
 10
387.367968
 20
1299.842806
 30
0.0
 10
322.246778
 20
1371.604516
 30
0.0
 10
256.464131
 20
1300.504264
 30
0.0
 10
185.350910
 20
1372.265974
 30
0.0
 10
185.350910
 20
1372.265974
 30
0.0
  0
LWPOLYLINE
  5
120
100
AcDbEntity
  8
0
 62
7
100
AcDbPolyline
 90
1
 70
1
 10
497.014360
 20
1444.702110
 30
0.0
  0
LWPOLYLINE
  5
121
100
AcDbEntity
  8
0
 62
7
100
AcDbPolyline
 90
4
 70
1
 10
483.058893
 20
1427.426384
 30
0.0
 10
489.699413
 20
1420.124406
 30
0.0
 10
477.741290
 20
1422.121750
 30
0.0
 10
483.058893
 20
1427.426384
 30
0.0
  0
LWPOLYLINE
  5
122
100
AcDbEntity
  8
0
 62
7
100
AcDbPolyline
 90
4
 70
1
 10
464.447280
 20
1435.402789
 30
0.0
 10
471.749258
 20
1422.121750
 30
0.0
 10
457.132333
 20
1422.121750
 30
0.0
 10
464.447280
 20
1435.402789
 30
0.0
  0
SPLINE
  5
123
100
AcDbEntity
  8
0
 62
7
100
AcDbSpline
 70
8
 71
3
 72
8
 73
4
 74
0
 40
0
 40
0
 40
0
 40
0
 40
1
 40
1
 40
1
 40
1
 10
437.197804
 20
1398.179564
 30
0.0
 10
435.200461
 20
1402.174251
 30
0.0
 10
432.554629
 20
1409.476229
 30
0.0
 10
431.218743
 20
1410.812115
 30
0.0
  0
SPLINE
  5
124
100
AcDbEntity
  8
0
 62
7
100
AcDbSpline
 70
8
 71
3
 72
8
 73
4
 74
0
 40
0
 40
0
 40
0
 40
0
 40
1
 40
1
 40
1
 40
1
 10
431.218743
 20
1410.812115
 30
0.0
 10
436.536346
 20
1415.468260
 30
0.0
 10
457.793791
 20
1416.129718
 30
0.0
 10
465.783166
 20
1416.129718
 30
0.0
  0
SPLINE
  5
125
100
AcDbEntity
  8
0
 62
7
100
AcDbSpline
 70
8
 71
3
 72
8
 73
4
 74
0
 40
0
 40
0
 40
0
 40
0
 40
1
 40
1
 40
1
 40
1
 10
465.783166
 20
1416.129718
 30
0.0
 10
477.079831
 20
1416.129718
 30
0.0
 10
493.032642
 20
1414.132375
 30
0.0
 10
498.337276
 20
1410.812115
 30
0.0
  0
SPLINE
  5
126
100
AcDbEntity
  8
0
 62
7
100
AcDbSpline
 70
8
 71
3
 72
8
 73
4
 74
0
 40
0
 40
0
 40
0
 40
0
 40
1
 40
1
 40
1
 40
1
 10
498.337276
 20
1410.812115
 30
0.0
 10
498.337276
 20
1410.812115
 30
0.0
 10
495.678474
 20
1402.835709
 30
0.0
 10
493.681131
 20
1397.518106
 30
0.0
  0
SPLINE
  5
127
100
AcDbEntity
  8
0
 62
7
100
AcDbSpline
 70
8
 71
3
 72
8
 73
4
 74
0
 40
0
 40
0
 40
0
 40
0
 40
1
 40
1
 40
1
 40
1
 10
493.681131
 20
1397.518106
 30
0.0
 10
484.381809
 20
1400.838366
 30
0.0
 10
472.423686
 20
1402.174251
 30
0.0
 10
464.447280
 20
1402.174251
 30
0.0
  0
SPLINE
  5
128
100
AcDbEntity
  8
0
 62
7
100
AcDbSpline
 70
8
 71
3
 72
8
 73
4
 74
0
 40
0
 40
0
 40
0
 40
0
 40
1
 40
1
 40
1
 40
1
 10
464.447280
 20
1402.174251
 30
0.0
 10
455.147959
 20
1402.174251
 30
0.0
 10
444.512752
 20
1400.838366
 30
0.0
 10
437.197804
 20
1398.179564
 30
0.0
  0
LWPOLYLINE
  5
129
100
AcDbEntity
  8
0
 62
7
100
AcDbPolyline
 90
4
 70
1
 10
445.835668
 20
1427.426384
 30
0.0
 10
439.856606
 20
1420.124406
 30
0.0
 10
451.814730
 20
1422.121750
 30
0.0
 10
445.835668
 20
1427.426384
 30
0.0
  0
SPLINE
  5
12a
100
AcDbEntity
  8
0
 62
7
100
AcDbSpline
 70
8
 71
3
 72
8
 73
4
 74
0
 40
0
 40
0
 40
0
 40
0
 40
1
 40
1
 40
1
 40
1
 10
490.360871
 20
1409.476229
 30
0.0
 10
492.358215
 20
1409.476229
 30
0.0
 10
494.355558
 20
1407.491855
 30
0.0
 10
494.355558
 20
1406.155969
 30
0.0
  0
SPLINE
  5
12b
100
AcDbEntity
  8
0
 62
7
100
AcDbSpline
 70
8
 71
3
 72
8
 73
4
 74
0
 40
0
 40
0
 40
0
 40
0
 40
1
 40
1
 40
1
 40
1
 10
494.355558
 20
1406.155969
 30
0.0
 10
494.211134
 20
1404.012434
 30
0.0
 10
492.504406
 20
1402.305706
 30
0.0
 10
490.360871
 20
1402.161282
 30
0.0
  0
SPLINE
  5
12c
100
AcDbEntity
  8
0
 62
7
100
AcDbSpline
 70
8
 71
3
 72
8
 73
4
 74
0
 40
0
 40
0
 40
0
 40
0
 40
1
 40
1
 40
1
 40
1
 10
490.360871
 20
1402.161282
 30
0.0
 10
489.024985
 20
1402.161282
 30
0.0
 10
487.040611
 20
1404.158625
 30
0.0
 10
487.040611
 20
1406.155969
 30
0.0
  0
SPLINE
  5
12d
100
AcDbEntity
  8
0
 62
7
100
AcDbSpline
 70
8
 71
3
 72
8
 73
4
 74
0
 40
0
 40
0
 40
0
 40
0
 40
1
 40
1
 40
1
 40
1
 10
487.040611
 20
1406.155969
 30
0.0
 10
487.040611
 20
1407.491855
 30
0.0
 10
489.037955
 20
1409.476229
 30
0.0
 10
490.360871
 20
1409.476229
 30
0.0
  0
LWPOLYLINE
  5
12e
100
AcDbEntity
  8
0
 62
7
100
AcDbPolyline
 90
1
 70
1
 10
437.197804
 20
1398.179564
 30
0.0
  0
SPLINE
  5
12f
100
AcDbEntity
  8
0
 62
7
100
AcDbSpline
 70
8
 71
3
 72
8
 73
4
 74
0
 40
0
 40
0
 40
0
 40
0
 40
1
 40
1
 40
1
 40
1
 10
477.728320
 20
1412.148001
 30
0.0
 10
479.725664
 20
1412.148001
 30
0.0
 10
481.723007
 20
1410.163627
 30
0.0
 10
481.723007
 20
1408.827741
 30
0.0
  0
SPLINE
  5
130
100
AcDbEntity
  8
0
 62
7
100
AcDbSpline
 70
8
 71
3
 72
8
 73
4
 74
0
 40
0
 40
0
 40
0
 40
0
 40
1
 40
1
 40
1
 40
1
 10
481.723007
 20
1408.827741
 30
0.0
 10
481.723007
 20
1406.830397
 30
0.0
 10
479.725664
 20
1404.846023
 30
0.0
 10
477.728320
 20
1404.846023
 30
0.0
  0
SPLINE
  5
131
100
AcDbEntity
  8
0
 62
7
100
AcDbSpline
 70
8
 71
3
 72
8
 73
4
 74
0
 40
0
 40
0
 40
0
 40
0
 40
1
 40
1
 40
1
 40
1
 10
477.728320
 20
1404.846023
 30
0.0
 10
476.405404
 20
1404.846023
 30
0.0
 10
474.408060
 20
1406.830397
 30
0.0
 10
474.408060
 20
1408.827741
 30
0.0
  0
SPLINE
  5
132
100
AcDbEntity
  8
0
 62
7
100
AcDbSpline
 70
8
 71
3
 72
8
 73
4
 74
0
 40
0
 40
0
 40
0
 40
0
 40
1
 40
1
 40
1
 40
1
 10
474.408060
 20
1408.827741
 30
0.0
 10
474.421030
 20
1410.150657
 30
0.0
 10
476.405404
 20
1412.148001
 30
0.0
 10
477.728320
 20
1412.148001
 30
0.0
  0
LWPOLYLINE
  5
133
100
AcDbEntity
  8
0
 62
7
100
AcDbPolyline
 90
1
 70
1
 10
490.360871
 20
1409.476229
 30
0.0
  0
SPLINE
  5
134
100
AcDbEntity
  8
0
 62
7
100
AcDbSpline
 70
8
 71
3
 72
8
 73
4
 74
0
 40
0
 40
0
 40
0
 40
0
 40
1
 40
1
 40
1
 40
1
 10
465.108739
 20
1413.470917
 30
0.0
 10
467.093113
 20
1413.470917
 30
0.0
 10
469.090456
 20
1411.473573
 30
0.0
 10
469.090456
 20
1409.476229
 30
0.0
  0
SPLINE
  5
135
100
AcDbEntity
  8
0
 62
7
100
AcDbSpline
 70
8
 71
3
 72
8
 73
4
 74
0
 40
0
 40
0
 40
0
 40
0
 40
1
 40
1
 40
1
 40
1
 10
469.090456
 20
1409.476229
 30
0.0
 10
469.090456
 20
1407.491855
 30
0.0
 10
467.093113
 20
1405.481541
 30
0.0
 10
465.108739
 20
1405.481541
 30
0.0
  0
SPLINE
  5
136
100
AcDbEntity
  8
0
 62
7
100
AcDbSpline
 70
8
 71
3
 72
8
 73
4
 74
0
 40
0
 40
0
 40
0
 40
0
 40
1
 40
1
 40
1
 40
1
 10
465.108739
 20
1405.481541
 30
0.0
 10
462.965203
 20
1405.625966
 30
0.0
 10
461.258475
 20
1407.332693
 30
0.0
 10
461.114051
 20
1409.476229
 30
0.0
  0
SPLINE
  5
137
100
AcDbEntity
  8
0
 62
7
100
AcDbSpline
 70
8
 71
3
 72
8
 73
4
 74
0
 40
0
 40
0
 40
0
 40
0
 40
1
 40
1
 40
1
 40
1
 10
461.114051
 20
1409.476229
 30
0.0
 10
461.127021
 20
1411.473573
 30
0.0
 10
463.124364
 20
1413.470917
 30
0.0
 10
465.108739
 20
1413.470917
 30
0.0
  0
LWPOLYLINE
  5
138
100
AcDbEntity
  8
0
 62
7
100
AcDbPolyline
 90
1
 70
1
 10
477.728320
 20
1412.148001
 30
0.0
  0
SPLINE
  5
139
100
AcDbEntity
  8
0
 62
7
100
AcDbSpline
 70
8
 71
3
 72
8
 73
4
 74
0
 40
0
 40
0
 40
0
 40
0
 40
1
 40
1
 40
1
 40
1
 10
451.814730
 20
1412.148001
 30
0.0
 10
453.812073
 20
1412.148001
 30
0.0
 10
455.809417
 20
1410.163627
 30
0.0
 10
455.809417
 20
1408.827741
 30
0.0
  0
SPLINE
  5
13a
100
AcDbEntity
  8
0
 62
7
100
AcDbSpline
 70
8
 71
3
 72
8
 73
4
 74
0
 40
0
 40
0
 40
0
 40
0
 40
1
 40
1
 40
1
 40
1
 10
455.809417
 20
1408.827741
 30
0.0
 10
455.809417
 20
1406.830397
 30
0.0
 10
453.812073
 20
1404.846023
 30
0.0
 10
451.814730
 20
1404.846023
 30
0.0
  0
SPLINE
  5
13b
100
AcDbEntity
  8
0
 62
7
100
AcDbSpline
 70
8
 71
3
 72
8
 73
4
 74
0
 40
0
 40
0
 40
0
 40
0
 40
1
 40
1
 40
1
 40
1
 10
451.814730
 20
1404.846023
 30
0.0
 10
449.830355
 20
1404.846023
 30
0.0
 10
447.820042
 20
1406.830397
 30
0.0
 10
447.820042
 20
1408.827741
 30
0.0
  0
SPLINE
  5
13c
100
AcDbEntity
  8
0
 62
7
100
AcDbSpline
 70
8
 71
3
 72
8
 73
4
 74
0
 40
0
 40
0
 40
0
 40
0
 40
1
 40
1
 40
1
 40
1
 10
447.820042
 20
1408.827741
 30
0.0
 10
447.833012
 20
1410.150657
 30
0.0
 10
449.830355
 20
1412.148001
 30
0.0
 10
451.814730
 20
1412.148001
 30
0.0
  0
LWPOLYLINE
  5
13d
100
AcDbEntity
  8
0
 62
7
100
AcDbPolyline
 90
1
 70
1
 10
465.108739
 20
1413.470917
 30
0.0
  0
SPLINE
  5
13e
100
AcDbEntity
  8
0
 62
7
100
AcDbSpline
 70
8
 71
3
 72
8
 73
4
 74
0
 40
0
 40
0
 40
0
 40
0
 40
1
 40
1
 40
1
 40
1
 10
439.856606
 20
1409.476229
 30
0.0
 10
441.853950
 20
1409.476229
 30
0.0
 10
443.851294
 20
1407.491855
 30
0.0
 10
443.851294
 20
1406.155969
 30
0.0
  0
SPLINE
  5
13f
100
AcDbEntity
  8
0
 62
7
100
AcDbSpline
 70
8
 71
3
 72
8
 73
4
 74
0
 40
0
 40
0
 40
0
 40
0
 40
1
 40
1
 40
1
 40
1
 10
443.851294
 20
1406.155969
 30
0.0
 10
443.851294
 20
1404.158625
 30
0.0
 10
441.853950
 20
1402.161282
 30
0.0
 10
439.856606
 20
1402.161282
 30
0.0
  0
SPLINE
  5
140
100
AcDbEntity
  8
0
 62
7
100
AcDbSpline
 70
8
 71
3
 72
8
 73
4
 74
0
 40
0
 40
0
 40
0
 40
0
 40
1
 40
1
 40
1
 40
1
 10
439.856606
 20
1402.161282
 30
0.0
 10
437.859262
 20
1402.161282
 30
0.0
 10
435.874888
 20
1404.158625
 30
0.0
 10
435.874888
 20
1406.155969
 30
0.0
  0
SPLINE
  5
141
100
AcDbEntity
  8
0
 62
7
100
AcDbSpline
 70
8
 71
3
 72
8
 73
4
 74
0
 40
0
 40
0
 40
0
 40
0
 40
1
 40
1
 40
1
 40
1
 10
435.874888
 20
1406.155969
 30
0.0
 10
435.874888
 20
1407.491855
 30
0.0
 10
437.859262
 20
1409.476229
 30
0.0
 10
439.856606
 20
1409.476229
 30
0.0
  0
LWPOLYLINE
  5
142
100
AcDbEntity
  8
0
 62
7
100
AcDbPolyline
 90
1
 70
1
 10
451.814730
 20
1412.148001
 30
0.0
  0
SPLINE
  5
143
100
AcDbEntity
  8
0
 62
7
100
AcDbSpline
 70
8
 71
3
 72
8
 73
4
 74
0
 40
0
 40
0
 40
0
 40
0
 40
1
 40
1
 40
1
 40
1
 10
464.447280
 20
1399.515450
 30
0.0
 10
479.064206
 20
1399.515450
 30
0.0
 10
493.019673
 20
1396.856648
 30
0.0
 10
493.019673
 20
1394.872274
 30
0.0
  0
SPLINE
  5
144
100
AcDbEntity
  8
0
 62
7
100
AcDbSpline
 70
8
 71
3
 72
8
 73
4
 74
0
 40
0
 40
0
 40
0
 40
0
 40
1
 40
1
 40
1
 40
1
 10
493.019673
 20
1394.872274
 30
0.0
 10
493.019673
 20
1393.536388
 30
0.0
 10
481.061549
 20
1392.213472
 30
0.0
 10
465.770197
 20
1392.213472
 30
0.0
  0
SPLINE
  5
145
100
AcDbEntity
  8
0
 62
7
100
AcDbSpline
 70
8
 71
3
 72
8
 73
4
 74
0
 40
0
 40
0
 40
0
 40
0
 40
1
 40
1
 40
1
 40
1
 10
465.770197
 20
1392.213472
 30
0.0
 10
450.478844
 20
1392.213472
 30
0.0
 10
437.859262
 20
1393.549358
 30
0.0
 10
437.859262
 20
1394.872274
 30
0.0
  0
SPLINE
  5
146
100
AcDbEntity
  8
0
 62
7
100
AcDbSpline
 70
8
 71
3
 72
8
 73
4
 74
0
 40
0
 40
0
 40
0
 40
0
 40
1
 40
1
 40
1
 40
1
 10
437.859262
 20
1394.872274
 30
0.0
 10
437.859262
 20
1396.856648
 30
0.0
 10
449.830355
 20
1399.515450
 30
0.0
 10
464.447280
 20
1399.515450
 30
0.0
  0
LWPOLYLINE
  5
147
100
AcDbEntity
  8
0
 62
7
100
AcDbPolyline
 90
1
 70
1
 10
439.856606
 20
1409.476229
 30
0.0
  0
SPLINE
  5
148
100
AcDbEntity
  8
0
 62
7
100
AcDbSpline
 70
8
 71
3
 72
8
 73
4
 74
0
 40
0
 40
0
 40
0
 40
0
 40
1
 40
1
 40
1
 40
1
 10
276.385690
 20
1487.891428
 30
0.0
 10
276.385690
 20
1487.891428
 30
0.0
 10
286.359439
 20
1483.909710
 30
0.0
 10
294.335844
 20
1487.229969
 30
0.0
  0
SPLINE
  5
149
100
AcDbEntity
  8
0
 62
7
100
AcDbSpline
 70
8
 71
3
 72
8
 73
4
 74
0
 40
0
 40
0
 40
0
 40
0
 40
1
 40
1
 40
1
 40
1
 10
294.335844
 20
1487.229969
 30
0.0
 10
304.958082
 20
1491.224657
 30
0.0
 10
314.270373
 20
1493.870489
 30
0.0
 10
321.585320
 20
1490.550229
 30
0.0
  0
LWPOLYLINE
  5
14a
100
AcDbEntity
  8
0
 62
7
100
AcDbPolyline
 90
1
 70
1
 10
464.447280
 20
1399.515450
 30
0.0
  0
SPLINE
  5
14b
100
AcDbEntity
  8
0
 62
7
100
AcDbSpline
 70
8
 71
3
 72
8
 73
4
 74
0
 40
0
 40
0
 40
0
 40
0
 40
1
 40
1
 40
1
 40
1
 10
321.585320
 20
1404.158625
 30
0.0
 10
315.606259
 20
1406.817427
 30
0.0
 10
307.629853
 20
1405.481541
 30
0.0
 10
298.330532
 20
1403.497167
 30
0.0
  0
SPLINE
  5
14c
100
AcDbEntity
  8
0
 62
7
100
AcDbSpline
 70
8
 71
3
 72
8
 73
4
 74
0
 40
0
 40
0
 40
0
 40
0
 40
1
 40
1
 40
1
 40
1
 10
298.330532
 20
1403.497167
 30
0.0
 10
289.031210
 20
1401.499824
 30
0.0
 10
283.713607
 20
1400.838366
 30
0.0
 10
276.398659
 20
1402.161282
 30
0.0
  0
LWPOLYLINE
  5
14d
100
AcDbEntity
  8
0
 62
7
100
AcDbPolyline
 90
2
 70
0
 10
321.585320
 20
1490.550229
 30
0.0
 10
321.585320
 20
1404.158625
 30
0.0
  0
SPLINE
  5
14e
100
AcDbEntity
  8
0
 62
7
100
AcDbSpline
 70
8
 71
3
 72
8
 73
4
 74
0
 40
0
 40
0
 40
0
 40
0
 40
1
 40
1
 40
1
 40
1
 10
304.296624
 20
1424.093154
 30
0.0
 10
304.296624
 20
1427.413414
 30
0.0
 10
306.280998
 20
1428.087842
 30
0.0
 10
307.616884
 20
1428.087842
 30
0.0
  0
SPLINE
  5
14f
100
AcDbEntity
  8
0
 62
7
100
AcDbSpline
 70
8
 71
3
 72
8
 73
4
 74
0
 40
0
 40
0
 40
0
 40
0
 40
1
 40
1
 40
1
 40
1
 10
307.616884
 20
1428.087842
 30
0.0
 10
308.952769
 20
1428.087842
 30
0.0
 10
310.937143
 20
1427.426384
 30
0.0
 10
310.937143
 20
1424.093154
 30
0.0
  0
SPLINE
  5
150
100
AcDbEntity
  8
0
 62
7
100
AcDbSpline
 70
8
 71
3
 72
8
 73
4
 74
0
 40
0
 40
0
 40
0
 40
0
 40
1
 40
1
 40
1
 40
1
 10
310.937143
 20
1424.093154
 30
0.0
 10
310.937143
 20
1420.772894
 30
0.0
 10
308.952769
 20
1420.111436
 30
0.0
 10
307.616884
 20
1420.111436
 30
0.0
  0
SPLINE
  5
151
100
AcDbEntity
  8
0
 62
7
100
AcDbSpline
 70
8
 71
3
 72
8
 73
4
 74
0
 40
0
 40
0
 40
0
 40
0
 40
1
 40
1
 40
1
 40
1
 10
307.616884
 20
1420.111436
 30
0.0
 10
306.280998
 20
1420.111436
 30
0.0
 10
304.296624
 20
1420.785864
 30
0.0
 10
304.296624
 20
1424.093154
 30
0.0
  0
LWPOLYLINE
  5
152
100
AcDbEntity
  8
0
 62
7
100
AcDbPolyline
 90
4
 70
0
 10
276.398659
 20
1402.161282
 30
0.0
 10
276.398659
 20
1487.891428
 30
0.0
 10
276.385690
 20
1487.891428
 30
0.0
 10
276.385690
 20
1487.891428
 30
0.0
  0
SPLINE
  5
153
100
AcDbEntity
  8
0
 62
7
100
AcDbSpline
 70
8
 71
3
 72
8
 73
4
 74
0
 40
0
 40
0
 40
0
 40
0
 40
1
 40
1
 40
1
 40
1
 10
302.312250
 20
1424.093154
 30
0.0
 10
302.312250
 20
1418.775550
 30
0.0
 10
306.293968
 20
1418.114092
 30
0.0
 10
307.629853
 20
1418.114092
 30
0.0
  0
SPLINE
  5
154
100
AcDbEntity
  8
0
 62
7
100
AcDbSpline
 70
8
 71
3
 72
8
 73
4
 74
0
 40
0
 40
0
 40
0
 40
0
 40
1
 40
1
 40
1
 40
1
 10
307.629853
 20
1418.114092
 30
0.0
 10
308.965739
 20
1418.114092
 30
0.0
 10
312.947457
 20
1418.775550
 30
0.0
 10
312.947457
 20
1424.093154
 30
0.0
  0
SPLINE
  5
155
100
AcDbEntity
  8
0
 62
7
100
AcDbSpline
 70
8
 71
3
 72
8
 73
4
 74
0
 40
0
 40
0
 40
0
 40
0
 40
1
 40
1
 40
1
 40
1
 10
312.947457
 20
1424.093154
 30
0.0
 10
312.947457
 20
1429.410758
 30
0.0
 10
308.952769
 20
1430.072216
 30
0.0
 10
307.629853
 20
1430.072216
 30
0.0
  0
SPLINE
  5
156
100
AcDbEntity
  8
0
 62
7
100
AcDbSpline
 70
8
 71
3
 72
8
 73
4
 74
0
 40
0
 40
0
 40
0
 40
0
 40
1
 40
1
 40
1
 40
1
 10
307.629853
 20
1430.072216
 30
0.0
 10
306.306937
 20
1430.072216
 30
0.0
 10
302.312250
 20
1429.423727
 30
0.0
 10
302.312250
 20
1424.093154
 30
0.0
  0
LWPOLYLINE
  5
157
100
AcDbEntity
  8
0
 62
7
100
AcDbPolyline
 90
1
 70
1
 10
304.296624
 20
1424.093154
 30
0.0
  0
LWPOLYLINE
  5
158
100
AcDbEntity
  8
0
 62
7
100
AcDbPolyline
 90
1
 70
1
 10
302.312250
 20
1424.093154
 30
0.0
  0
LWPOLYLINE
  5
159
100
AcDbEntity
  8
0
 62
7
100
AcDbPolyline
 90
11
 70
1
 10
297.656104
 20
1421.447322
 30
0.0
 10
293.012928
 20
1429.423727
 30
0.0
 10
290.354126
 20
1429.423727
 30
0.0
 10
290.354126
 20
1418.127062
 30
0.0
 10
293.012928
 20
1418.127062
 30
0.0
 10
293.012928
 20
1426.103468
 30
0.0
 10
296.994646
 20
1418.127062
 30
0.0
 10
299.653448
 20
1418.127062
 30
0.0
 10
299.653448
 20
1429.423727
 30
0.0
 10
297.656104
 20
1429.423727
 30
0.0
 10
297.656104
 20
1421.447322
 30
0.0
  0
LWPOLYLINE
  5
15a
100
AcDbEntity
  8
0
 62
7
100
AcDbPolyline
 90
5
 70
1
 10
285.697981
 20
1416.791176
 30
0.0
 10
287.682355
 20
1416.791176
 30
0.0
 10
287.682355
 20
1428.762269
 30
0.0
 10
285.697981
 20
1428.762269
 30
0.0
 10
285.697981
 20
1416.791176
 30
0.0
  0
SPLINE
  5
15b
100
AcDbEntity
  8
0
 62
7
100
AcDbSpline
 70
8
 71
3
 72
8
 73
4
 74
0
 40
0
 40
0
 40
0
 40
0
 40
1
 40
1
 40
1
 40
1
 10
293.661417
 20
1448.683828
 30
0.0
 10
293.661417
 20
1451.342630
 30
0.0
 10
294.997302
 20
1452.665546
 30
0.0
 10
296.320218
 20
1452.665546
 30
0.0
  0
SPLINE
  5
15c
100
AcDbEntity
  8
0
 62
7
100
AcDbSpline
 70
8
 71
3
 72
8
 73
4
 74
0
 40
0
 40
0
 40
0
 40
0
 40
1
 40
1
 40
1
 40
1
 10
296.320218
 20
1452.665546
 30
0.0
 10
297.656104
 20
1452.665546
 30
0.0
 10
299.640478
 20
1451.342630
 30
0.0
 10
299.640478
 20
1448.683828
 30
0.0
  0
SPLINE
  5
15d
100
AcDbEntity
  8
0
 62
7
100
AcDbSpline
 70
8
 71
3
 72
8
 73
4
 74
0
 40
0
 40
0
 40
0
 40
0
 40
1
 40
1
 40
1
 40
1
 10
299.640478
 20
1448.683828
 30
0.0
 10
299.640478
 20
1445.363568
 30
0.0
 10
297.643134
 20
1444.040652
 30
0.0
 10
296.320218
 20
1444.040652
 30
0.0
  0
SPLINE
  5
15e
100
AcDbEntity
  8
0
 62
7
100
AcDbSpline
 70
8
 71
3
 72
8
 73
4
 74
0
 40
0
 40
0
 40
0
 40
0
 40
1
 40
1
 40
1
 40
1
 10
296.320218
 20
1444.040652
 30
0.0
 10
294.997302
 20
1444.040652
 30
0.0
 10
293.661417
 20
1445.363568
 30
0.0
 10
293.661417
 20
1448.683828
 30
0.0
  0
LWPOLYLINE
  5
15f
100
AcDbEntity
  8
0
 62
7
100
AcDbPolyline
 90
15
 70
1
 10
314.931831
 20
1455.337318
 30
0.0
 10
311.611571
 20
1455.337318
 30
0.0
 10
309.614227
 20
1446.037996
 30
0.0
 10
307.616884
 20
1455.337318
 30
0.0
 10
303.622196
 20
1455.337318
 30
0.0
 10
303.622196
 20
1443.379194
 30
0.0
 10
306.280998
 20
1443.379194
 30
0.0
 10
306.280998
 20
1453.339974
 30
0.0
 10
308.278342
 20
1443.366225
 30
0.0
 10
310.937143
 20
1443.366225
 30
0.0
 10
312.934487
 20
1453.339974
 30
0.0
 10
312.934487
 20
1443.366225
 30
0.0
 10
314.918861
 20
1443.366225
 30
0.0
 10
314.918861
 20
1455.337318
 30
0.0
 10
314.931831
 20
1455.337318
 30
0.0
  0
SPLINE
  5
160
100
AcDbEntity
  8
0
 62
7
100
AcDbSpline
 70
8
 71
3
 72
8
 73
4
 74
0
 40
0
 40
0
 40
0
 40
0
 40
1
 40
1
 40
1
 40
1
 10
291.015584
 20
1448.683828
 30
0.0
 10
291.015584
 20
1442.704767
 30
0.0
 10
295.010272
 20
1442.043309
 30
0.0
 10
296.333188
 20
1442.043309
 30
0.0
  0
SPLINE
  5
161
100
AcDbEntity
  8
0
 62
7
100
AcDbSpline
 70
8
 71
3
 72
8
 73
4
 74
0
 40
0
 40
0
 40
0
 40
0
 40
1
 40
1
 40
1
 40
1
 10
296.333188
 20
1442.043309
 30
0.0
 10
298.330532
 20
1442.043309
 30
0.0
 10
302.312250
 20
1442.704767
 30
0.0
 10
302.312250
 20
1448.683828
 30
0.0
  0
SPLINE
  5
162
100
AcDbEntity
  8
0
 62
7
100
AcDbSpline
 70
8
 71
3
 72
8
 73
4
 74
0
 40
0
 40
0
 40
0
 40
0
 40
1
 40
1
 40
1
 40
1
 10
302.312250
 20
1448.683828
 30
0.0
 10
302.312250
 20
1454.001432
 30
0.0
 10
298.317562
 20
1454.662890
 30
0.0
 10
296.333188
 20
1454.662890
 30
0.0
  0
SPLINE
  5
163
100
AcDbEntity
  8
0
 62
7
100
AcDbSpline
 70
8
 71
3
 72
8
 73
4
 74
0
 40
0
 40
0
 40
0
 40
0
 40
1
 40
1
 40
1
 40
1
 10
296.333188
 20
1454.662890
 30
0.0
 10
294.997302
 20
1454.675860
 30
0.0
 10
291.015584
 20
1454.001432
 30
0.0
 10
291.015584
 20
1448.683828
 30
0.0
  0
LWPOLYLINE
  5
164
100
AcDbEntity
  8
0
 62
7
100
AcDbPolyline
 90
1
 70
1
 10
293.661417
 20
1448.683828
 30
0.0
  0
LWPOLYLINE
  5
165
100
AcDbEntity
  8
0
 62
7
100
AcDbPolyline
 90
1
 70
1
 10
291.015584
 20
1448.683828
 30
0.0
  0
SPLINE
  5
166
100
AcDbEntity
  8
0
 62
7
100
AcDbSpline
 70
8
 71
3
 72
8
 73
4
 74
0
 40
0
 40
0
 40
0
 40
0
 40
1
 40
1
 40
1
 40
1
 10
284.362095
 20
1450.681172
 30
0.0
 10
285.697981
 20
1450.681172
 30
0.0
 10
287.020897
 20
1450.681172
 30
0.0
 10
287.020897
 20
1447.360912
 30
0.0
  0
SPLINE
  5
167
100
AcDbEntity
  8
0
 62
7
100
AcDbSpline
 70
8
 71
3
 72
8
 73
4
 74
0
 40
0
 40
0
 40
0
 40
0
 40
1
 40
1
 40
1
 40
1
 10
287.020897
 20
1447.360912
 30
0.0
 10
287.020897
 20
1445.363568
 30
0.0
 10
286.346469
 20
1443.366225
 30
0.0
 10
284.362095
 20
1443.366225
 30
0.0
  0
LWPOLYLINE
  5
168
100
AcDbEntity
  8
0
 62
7
100
AcDbPolyline
 90
2
 70
0
 10
282.364751
 20
1450.681172
 30
0.0
 10
284.362095
 20
1450.681172
 30
0.0
  0
LWPOLYLINE
  5
169
100
AcDbEntity
  8
0
 62
7
100
AcDbPolyline
 90
4
 70
0
 10
284.362095
 20
1443.366225
 30
0.0
 10
282.364751
 20
1443.366225
 30
0.0
 10
282.364751
 20
1450.681172
 30
0.0
 10
282.364751
 20
1450.681172
 30
0.0
  0
SPLINE
  5
16a
100
AcDbEntity
  8
0
 62
7
100
AcDbSpline
 70
8
 71
3
 72
8
 73
4
 74
0
 40
0
 40
0
 40
0
 40
0
 40
1
 40
1
 40
1
 40
1
 10
285.023553
 20
1441.381851
 30
0.0
 10
289.018241
 20
1441.381851
 30
0.0
 10
289.679699
 20
1445.363568
 30
0.0
 10
289.679699
 20
1447.360912
 30
0.0
  0
SPLINE
  5
16b
100
AcDbEntity
  8
0
 62
7
100
AcDbSpline
 70
8
 71
3
 72
8
 73
4
 74
0
 40
0
 40
0
 40
0
 40
0
 40
1
 40
1
 40
1
 40
1
 10
289.679699
 20
1447.360912
 30
0.0
 10
289.679699
 20
1449.345286
 30
0.0
 10
289.018241
 20
1452.665546
 30
0.0
 10
285.023553
 20
1452.665546
 30
0.0
  0
LWPOLYLINE
  5
16c
100
AcDbEntity
  8
0
 62
7
100
AcDbPolyline
 90
2
 70
0
 10
279.705949
 20
1441.381851
 30
0.0
 10
285.023553
 20
1441.381851
 30
0.0
  0
LWPOLYLINE
  5
16d
100
AcDbEntity
  8
0
 62
7
100
AcDbPolyline
 90
4
 70
0
 10
285.023553
 20
1452.665546
 30
0.0
 10
279.705949
 20
1452.665546
 30
0.0
 10
279.705949
 20
1441.381851
 30
0.0
 10
279.705949
 20
1441.381851
 30
0.0
  0
LWPOLYLINE
  5
16e
100
AcDbEntity
  8
0
 62
7
100
AcDbPolyline
 90
11
 70
1
 10
301.637822
 20
1469.292785
 30
0.0
 10
296.981676
 20
1477.269190
 30
0.0
 10
294.322875
 20
1477.269190
 30
0.0
 10
294.322875
 20
1465.972525
 30
0.0
 10
296.981676
 20
1465.972525
 30
0.0
 10
296.981676
 20
1473.948930
 30
0.0
 10
301.637822
 20
1465.972525
 30
0.0
 10
303.622196
 20
1465.972525
 30
0.0
 10
303.622196
 20
1477.269190
 30
0.0
 10
301.637822
 20
1477.269190
 30
0.0
 10
301.637822
 20
1469.292785
 30
0.0
  0
LWPOLYLINE
  5
16f
100
AcDbEntity
  8
0
 62
7
100
AcDbPolyline
 90
5
 70
1
 10
289.018241
 20
1465.298097
 30
0.0
 10
291.015584
 20
1465.298097
 30
0.0
 10
291.015584
 20
1476.594762
 30
0.0
 10
289.018241
 20
1476.594762
 30
0.0
 10
289.018241
 20
1465.298097
 30
0.0
  0
LWPOLYLINE
  5
170
100
AcDbEntity
  8
0
 62
7
100
AcDbPolyline
 90
5
 70
1
 10
273.065430
 20
1487.891428
 30
0.0
 10
265.089024
 20
1481.250908
 30
0.0
 10
265.089024
 20
1394.872274
 30
0.0
 10
273.065430
 20
1402.835709
 30
0.0
 10
273.065430
 20
1487.891428
 30
0.0
  0
SPLINE
  5
171
100
AcDbEntity
  8
0
 62
7
100
AcDbSpline
 70
8
 71
3
 72
8
 73
4
 74
0
 40
0
 40
0
 40
0
 40
0
 40
1
 40
1
 40
1
 40
1
 10
275.724232
 20
1400.176908
 30
0.0
 10
281.703293
 20
1398.179564
 30
0.0
 10
294.335844
 20
1400.838366
 30
0.0
 10
300.314906
 20
1401.512793
 30
0.0
  0
SPLINE
  5
172
100
AcDbEntity
  8
0
 62
7
100
AcDbSpline
 70
8
 71
3
 72
8
 73
4
 74
0
 40
0
 40
0
 40
0
 40
0
 40
1
 40
1
 40
1
 40
1
 10
300.314906
 20
1401.512793
 30
0.0
 10
309.614227
 20
1403.510137
 30
0.0
 10
314.270373
 20
1404.833053
 30
0.0
 10
320.910893
 20
1401.512793
 30
0.0
  0
SPLINE
  5
173
100
AcDbEntity
  8
0
 62
7
100
AcDbSpline
 70
8
 71
3
 72
8
 73
4
 74
0
 40
0
 40
0
 40
0
 40
0
 40
1
 40
1
 40
1
 40
1
 10
320.910893
 20
1401.512793
 30
0.0
 10
317.373241
 20
1400.468787
 30
0.0
 10
314.941615
 20
1397.224861
 30
0.0
 10
314.931831
 20
1393.536388
 30
0.0
  0
LWPOLYLINE
  5
174
100
AcDbEntity
  8
0
 62
7
100
AcDbPolyline
 90
2
 70
0
 10
267.747826
 20
1393.536388
 30
0.0
 10
275.724232
 20
1400.176908
 30
0.0
  0
LWPOLYLINE
  5
175
100
AcDbEntity
  8
0
 62
7
100
AcDbPolyline
 90
3
 70
0
 10
314.931831
 20
1393.536388
 30
0.0
 10
267.747826
 20
1393.536388
 30
0.0
 10
267.747826
 20
1393.536388
 30
0.0
  0
SPLINE
  5
176
100
AcDbEntity
  8
0
 62
7
100
AcDbSpline
 70
8
 71
3
 72
8
 73
4
 74
0
 40
0
 40
0
 40
0
 40
0
 40
1
 40
1
 40
1
 40
1
 10
369.417813
 20
1400.176908
 30
0.0
 10
362.777294
 20
1398.179564
 30
0.0
 10
351.480628
 20
1400.838366
 30
0.0
 10
344.827139
 20
1401.512793
 30
0.0
  0
SPLINE
  5
177
100
AcDbEntity
  8
0
 62
7
100
AcDbSpline
 70
8
 71
3
 72
8
 73
4
 74
0
 40
0
 40
0
 40
0
 40
0
 40
1
 40
1
 40
1
 40
1
 10
344.827139
 20
1401.512793
 30
0.0
 10
334.204902
 20
1403.510137
 30
0.0
 10
330.871672
 20
1404.833053
 30
0.0
 10
324.892610
 20
1401.512793
 30
0.0
  0
SPLINE
  5
178
100
AcDbEntity
  8
0
 62
7
100
AcDbSpline
 70
8
 71
3
 72
8
 73
4
 74
0
 40
0
 40
0
 40
0
 40
0
 40
1
 40
1
 40
1
 40
1
 10
324.892610
 20
1401.512793
 30
0.0
 10
328.212870
 20
1400.176908
 30
0.0
 10
330.210214
 20
1396.869618
 30
0.0
 10
329.535786
 20
1393.536388
 30
0.0
  0
LWPOLYLINE
  5
179
100
AcDbEntity
  8
0
 62
7
100
AcDbPolyline
 90
2
 70
0
 10
377.394219
 20
1393.536388
 30
0.0
 10
369.417813
 20
1400.176908
 30
0.0
  0
LWPOLYLINE
  5
17a
100
AcDbEntity
  8
0
 62
7
100
AcDbPolyline
 90
3
 70
0
 10
329.535786
 20
1393.536388
 30
0.0
 10
377.394219
 20
1393.536388
 30
0.0
 10
377.394219
 20
1393.536388
 30
0.0
  0
SPLINE
  5
17b
100
AcDbEntity
  8
0
 62
7
100
AcDbSpline
 70
8
 71
3
 72
8
 73
4
 74
0
 40
0
 40
0
 40
0
 40
0
 40
1
 40
1
 40
1
 40
1
 10
368.756355
 20
1487.891428
 30
0.0
 10
368.756355
 20
1487.891428
 30
0.0
 10
358.782606
 20
1483.909710
 30
0.0
 10
350.144743
 20
1487.229969
 30
0.0
  0
SPLINE
  5
17c
100
AcDbEntity
  8
0
 62
7
100
AcDbSpline
 70
8
 71
3
 72
8
 73
4
 74
0
 40
0
 40
0
 40
0
 40
0
 40
1
 40
1
 40
1
 40
1
 10
350.144743
 20
1487.229969
 30
0.0
 10
339.509535
 20
1491.224657
 30
0.0
 10
330.871672
 20
1493.870489
 30
0.0
 10
324.892610
 20
1490.550229
 30
0.0
  0
LWPOLYLINE
  5
17d
100
AcDbEntity
  8
0
 62
7
100
AcDbPolyline
 90
5
 70
1
 10
371.415157
 20
1488.565855
 30
0.0
 10
379.378593
 20
1481.250908
 30
0.0
 10
379.378593
 20
1396.195190
 30
0.0
 10
371.415157
 20
1403.510137
 30
0.0
 10
371.415157
 20
1488.565855
 30
0.0
  0
SPLINE
  5
17e
100
AcDbEntity
  8
0
 62
7
100
AcDbSpline
 70
8
 71
3
 72
8
 73
4
 74
0
 40
0
 40
0
 40
0
 40
0
 40
1
 40
1
 40
1
 40
1
 10
324.892610
 20
1404.158625
 30
0.0
 10
330.210214
 20
1406.817427
 30
0.0
 10
336.850734
 20
1405.481541
 30
0.0
 10
346.824483
 20
1403.497167
 30
0.0
  0
SPLINE
  5
17f
100
AcDbEntity
  8
0
 62
7
100
AcDbSpline
 70
8
 71
3
 72
8
 73
4
 74
0
 40
0
 40
0
 40
0
 40
0
 40
1
 40
1
 40
1
 40
1
 10
346.824483
 20
1403.497167
 30
0.0
 10
356.123804
 20
1401.499824
 30
0.0
 10
361.441408
 20
1400.838366
 30
0.0
 10
368.756355
 20
1402.161282
 30
0.0
  0
LWPOLYLINE
  5
180
100
AcDbEntity
  8
0
 62
7
100
AcDbPolyline
 90
2
 70
0
 10
324.892610
 20
1490.550229
 30
0.0
 10
324.892610
 20
1404.158625
 30
0.0
  0
LWPOLYLINE
  5
181
100
AcDbEntity
  8
0
 62
7
100
AcDbPolyline
 90
3
 70
0
 10
368.756355
 20
1402.161282
 30
0.0
 10
368.756355
 20
1487.891428
 30
0.0
 10
368.756355
 20
1487.891428
 30
0.0
  0
SPLINE
  5
182
100
AcDbEntity
  8
0
 62
7
100
AcDbSpline
 70
8
 71
3
 72
8
 73
4
 74
0
 40
0
 40
0
 40
0
 40
0
 40
1
 40
1
 40
1
 40
1
 10
338.848077
 20
1418.114092
 30
0.0
 10
342.829795
 20
1418.114092
 30
0.0
 10
343.491253
 20
1422.108780
 30
0.0
 10
343.491253
 20
1424.767582
 30
0.0
  0
SPLINE
  5
183
100
AcDbEntity
  8
0
 62
7
100
AcDbSpline
 70
8
 71
3
 72
8
 73
4
 74
0
 40
0
 40
0
 40
0
 40
0
 40
1
 40
1
 40
1
 40
1
 10
343.491253
 20
1424.767582
 30
0.0
 10
343.491253
 20
1426.751956
 30
0.0
 10
342.829795
 20
1430.085185
 30
0.0
 10
338.848077
 20
1430.085185
 30
0.0
  0
LWPOLYLINE
  5
184
100
AcDbEntity
  8
0
 62
7
100
AcDbPolyline
 90
2
 70
0
 10
334.204902
 20
1418.114092
 30
0.0
 10
338.848077
 20
1418.114092
 30
0.0
  0
LWPOLYLINE
  5
185
100
AcDbEntity
  8
0
 62
7
100
AcDbPolyline
 90
4
 70
0
 10
338.848077
 20
1430.085185
 30
0.0
 10
334.204902
 20
1430.085185
 30
0.0
 10
334.204902
 20
1418.114092
 30
0.0
 10
334.204902
 20
1418.114092
 30
0.0
  0
SPLINE
  5
186
100
AcDbEntity
  8
0
 62
7
100
AcDbSpline
 70
8
 71
3
 72
8
 73
4
 74
0
 40
0
 40
0
 40
0
 40
0
 40
1
 40
1
 40
1
 40
1
 10
338.848077
 20
1428.087842
 30
0.0
 10
339.509535
 20
1428.087842
 30
0.0
 10
341.506879
 20
1427.426384
 30
0.0
 10
341.506879
 20
1424.093154
 30
0.0
  0
SPLINE
  5
187
100
AcDbEntity
  8
0
 62
7
100
AcDbSpline
 70
8
 71
3
 72
8
 73
4
 74
0
 40
0
 40
0
 40
0
 40
0
 40
1
 40
1
 40
1
 40
1
 10
341.506879
 20
1424.093154
 30
0.0
 10
341.506879
 20
1422.108780
 30
0.0
 10
340.832451
 20
1420.111436
 30
0.0
 10
338.848077
 20
1420.111436
 30
0.0
  0
LWPOLYLINE
  5
188
100
AcDbEntity
  8
0
 62
7
100
AcDbPolyline
 90
2
 70
0
 10
336.189276
 20
1428.087842
 30
0.0
 10
338.848077
 20
1428.087842
 30
0.0
  0
SPLINE
  5
189
100
AcDbEntity
  8
0
 62
7
100
AcDbSpline
 70
8
 71
3
 72
8
 73
4
 74
0
 40
0
 40
0
 40
0
 40
0
 40
1
 40
1
 40
1
 40
1
 10
346.824483
 20
1422.770238
 30
0.0
 10
346.824483
 20
1416.791176
 30
0.0
 10
350.806201
 20
1416.129718
 30
0.0
 10
352.142086
 20
1416.129718
 30
0.0
  0
SPLINE
  5
18a
100
AcDbEntity
  8
0
 62
7
100
AcDbSpline
 70
8
 71
3
 72
8
 73
4
 74
0
 40
0
 40
0
 40
0
 40
0
 40
1
 40
1
 40
1
 40
1
 10
352.142086
 20
1416.129718
 30
0.0
 10
354.139430
 20
1416.129718
 30
0.0
 10
358.121148
 20
1416.791176
 30
0.0
 10
358.121148
 20
1422.770238
 30
0.0
  0
SPLINE
  5
18b
100
AcDbEntity
  8
0
 62
7
100
AcDbSpline
 70
8
 71
3
 72
8
 73
4
 74
0
 40
0
 40
0
 40
0
 40
0
 40
1
 40
1
 40
1
 40
1
 10
358.121148
 20
1422.770238
 30
0.0
 10
358.121148
 20
1428.087842
 30
0.0
 10
354.126460
 20
1428.749300
 30
0.0
 10
352.142086
 20
1428.749300
 30
0.0
  0
SPLINE
  5
18c
100
AcDbEntity
  8
0
 62
7
100
AcDbSpline
 70
8
 71
3
 72
8
 73
4
 74
0
 40
0
 40
0
 40
0
 40
0
 40
1
 40
1
 40
1
 40
1
 10
352.142086
 20
1428.749300
 30
0.0
 10
350.806201
 20
1428.762269
 30
0.0
 10
346.824483
 20
1428.087842
 30
0.0
 10
346.824483
 20
1422.770238
 30
0.0
  0
LWPOLYLINE
  5
18d
100
AcDbEntity
  8
0
 62
7
100
AcDbPolyline
 90
4
 70
0
 10
338.848077
 20
1420.111436
 30
0.0
 10
336.189276
 20
1420.111436
 30
0.0
 10
336.189276
 20
1428.087842
 30
0.0
 10
336.189276
 20
1428.087842
 30
0.0
  0
SPLINE
  5
18e
100
AcDbEntity
  8
0
 62
7
100
AcDbSpline
 70
8
 71
3
 72
8
 73
4
 74
0
 40
0
 40
0
 40
0
 40
0
 40
1
 40
1
 40
1
 40
1
 10
349.483285
 20
1422.770238
 30
0.0
 10
349.483285
 20
1425.429040
 30
0.0
 10
350.806201
 20
1426.751956
 30
0.0
 10
352.142086
 20
1426.751956
 30
0.0
  0
SPLINE
  5
18f
100
AcDbEntity
  8
0
 62
7
100
AcDbSpline
 70
8
 71
3
 72
8
 73
4
 74
0
 40
0
 40
0
 40
0
 40
0
 40
1
 40
1
 40
1
 40
1
 10
352.142086
 20
1426.751956
 30
0.0
 10
353.477972
 20
1426.751956
 30
0.0
 10
355.462346
 20
1425.429040
 30
0.0
 10
355.462346
 20
1422.770238
 30
0.0
  0
SPLINE
  5
190
100
AcDbEntity
  8
0
 62
7
100
AcDbSpline
 70
8
 71
3
 72
8
 73
4
 74
0
 40
0
 40
0
 40
0
 40
0
 40
1
 40
1
 40
1
 40
1
 10
355.462346
 20
1422.770238
 30
0.0
 10
355.462346
 20
1419.449978
 30
0.0
 10
353.465002
 20
1418.114092
 30
0.0
 10
352.142086
 20
1418.114092
 30
0.0
  0
SPLINE
  5
191
100
AcDbEntity
  8
0
 62
7
100
AcDbSpline
 70
8
 71
3
 72
8
 73
4
 74
0
 40
0
 40
0
 40
0
 40
0
 40
1
 40
1
 40
1
 40
1
 10
352.142086
 20
1418.114092
 30
0.0
 10
350.819170
 20
1418.114092
 30
0.0
 10
349.483285
 20
1419.449978
 30
0.0
 10
349.483285
 20
1422.770238
 30
0.0
  0
LWPOLYLINE
  5
192
100
AcDbEntity
  8
0
 62
7
100
AcDbPolyline
 90
1
 70
1
 10
346.824483
 20
1422.770238
 30
0.0
  0
LWPOLYLINE
  5
193
100
AcDbEntity
  8
0
 62
7
100
AcDbPolyline
 90
1
 70
1
 10
349.483285
 20
1422.770238
 30
0.0
  0
LWPOLYLINE
  5
194
100
AcDbEntity
  8
0
 62
7
100
AcDbPolyline
 90
11
 70
1
 10
340.183963
 20
1446.037996
 30
0.0
 10
345.501567
 20
1446.037996
 30
0.0
 10
345.501567
 20
1448.022370
 30
0.0
 10
340.183963
 20
1448.022370
 30
0.0
 10
340.183963
 20
1450.681172
 30
0.0
 10
346.163025
 20
1450.681172
 30
0.0
 10
346.163025
 20
1452.665546
 30
0.0
 10
338.186619
 20
1452.665546
 30
0.0
 10
338.186619
 20
1441.368881
 30
0.0
 10
340.183963
 20
1441.368881
 30
0.0
 10
340.183963
 20
1446.037996
 30
0.0
  0
SPLINE
  5
195
100
AcDbEntity
  8
0
 62
7
100
AcDbSpline
 70
8
 71
3
 72
8
 73
4
 74
0
 40
0
 40
0
 40
0
 40
0
 40
1
 40
1
 40
1
 40
1
 10
338.186619
 20
1473.274502
 30
0.0
 10
338.186619
 20
1474.597418
 30
0.0
 10
336.850734
 20
1477.256220
 30
0.0
 10
333.530474
 20
1477.256220
 30
0.0
  0
SPLINE
  5
196
100
AcDbEntity
  8
0
 62
7
100
AcDbSpline
 70
8
 71
3
 72
8
 73
4
 74
0
 40
0
 40
0
 40
0
 40
0
 40
1
 40
1
 40
1
 40
1
 10
333.530474
 20
1477.256220
 30
0.0
 10
330.210214
 20
1477.256220
 30
0.0
 10
328.212870
 20
1475.258877
 30
0.0
 10
328.212870
 20
1471.277159
 30
0.0
  0
SPLINE
  5
197
100
AcDbEntity
  8
0
 62
7
100
AcDbSpline
 70
8
 71
3
 72
8
 73
4
 74
0
 40
0
 40
0
 40
0
 40
0
 40
1
 40
1
 40
1
 40
1
 10
328.212870
 20
1471.277159
 30
0.0
 10
328.212870
 20
1467.295441
 30
0.0
 10
330.210214
 20
1465.298097
 30
0.0
 10
333.530474
 20
1465.298097
 30
0.0
  0
SPLINE
  5
198
100
AcDbEntity
  8
0
 62
7
100
AcDbSpline
 70
8
 71
3
 72
8
 73
4
 74
0
 40
0
 40
0
 40
0
 40
0
 40
1
 40
1
 40
1
 40
1
 10
333.530474
 20
1465.298097
 30
0.0
 10
336.189276
 20
1465.298097
 30
0.0
 10
338.186619
 20
1466.633983
 30
0.0
 10
338.186619
 20
1469.292785
 30
0.0
  0
LWPOLYLINE
  5
199
100
AcDbEntity
  8
0
 62
7
100
AcDbPolyline
 90
5
 70
1
 10
348.821827
 20
1440.720393
 30
0.0
 10
351.480628
 20
1440.720393
 30
0.0
 10
351.480628
 20
1452.678516
 30
0.0
 10
348.821827
 20
1452.678516
 30
0.0
 10
348.821827
 20
1440.720393
 30
0.0
  0
SPLINE
  5
19a
100
AcDbEntity
  8
0
 62
7
100
AcDbSpline
 70
8
 71
3
 72
8
 73
4
 74
0
 40
0
 40
0
 40
0
 40
0
 40
1
 40
1
 40
1
 40
1
 10
336.189276
 20
1469.292785
 30
0.0
 10
335.527818
 20
1467.956899
 30
0.0
 10
334.853390
 20
1467.295441
 30
0.0
 10
333.530474
 20
1467.295441
 30
0.0
  0
SPLINE
  5
19b
100
AcDbEntity
  8
0
 62
7
100
AcDbSpline
 70
8
 71
3
 72
8
 73
4
 74
0
 40
0
 40
0
 40
0
 40
0
 40
1
 40
1
 40
1
 40
1
 10
333.530474
 20
1467.295441
 30
0.0
 10
330.871672
 20
1467.295441
 30
0.0
 10
330.871672
 20
1468.631327
 30
0.0
 10
330.871672
 20
1471.277159
 30
0.0
  0
SPLINE
  5
19c
100
AcDbEntity
  8
0
 62
7
100
AcDbSpline
 70
8
 71
3
 72
8
 73
4
 74
0
 40
0
 40
0
 40
0
 40
0
 40
1
 40
1
 40
1
 40
1
 10
330.871672
 20
1471.277159
 30
0.0
 10
330.871672
 20
1474.597418
 30
0.0
 10
332.194588
 20
1475.271846
 30
0.0
 10
333.530474
 20
1475.271846
 30
0.0
  0
SPLINE
  5
19d
100
AcDbEntity
  8
0
 62
7
100
AcDbSpline
 70
8
 71
3
 72
8
 73
4
 74
0
 40
0
 40
0
 40
0
 40
0
 40
1
 40
1
 40
1
 40
1
 10
333.530474
 20
1475.271846
 30
0.0
 10
335.527818
 20
1475.271846
 30
0.0
 10
335.527818
 20
1473.935960
 30
0.0
 10
336.189276
 20
1473.287472
 30
0.0
  0
LWPOLYLINE
  5
19e
100
AcDbEntity
  8
0
 62
7
100
AcDbPolyline
 90
2
 70
0
 10
338.186619
 20
1469.292785
 30
0.0
 10
336.189276
 20
1469.292785
 30
0.0
  0
SPLINE
  5
19f
100
AcDbEntity
  8
0
 62
7
100
AcDbSpline
 70
8
 71
3
 72
8
 73
4
 74
0
 40
0
 40
0
 40
0
 40
0
 40
1
 40
1
 40
1
 40
1
 10
340.183963
 20
1469.954243
 30
0.0
 10
340.183963
 20
1463.975181
 30
0.0
 10
344.178651
 20
1463.313723
 30
0.0
 10
346.163025
 20
1463.313723
 30
0.0
  0
SPLINE
  5
1a0
100
AcDbEntity
  8
0
 62
7
100
AcDbSpline
 70
8
 71
3
 72
8
 73
4
 74
0
 40
0
 40
0
 40
0
 40
0
 40
1
 40
1
 40
1
 40
1
 10
346.163025
 20
1463.313723
 30
0.0
 10
347.498911
 20
1463.313723
 30
0.0
 10
351.480628
 20
1463.975181
 30
0.0
 10
351.480628
 20
1469.954243
 30
0.0
  0
SPLINE
  5
1a1
100
AcDbEntity
  8
0
 62
7
100
AcDbSpline
 70
8
 71
3
 72
8
 73
4
 74
0
 40
0
 40
0
 40
0
 40
0
 40
1
 40
1
 40
1
 40
1
 10
351.480628
 20
1469.954243
 30
0.0
 10
351.480628
 20
1475.271846
 30
0.0
 10
347.485941
 20
1475.933304
 30
0.0
 10
346.163025
 20
1475.933304
 30
0.0
  0
SPLINE
  5
1a2
100
AcDbEntity
  8
0
 62
7
100
AcDbSpline
 70
8
 71
3
 72
8
 73
4
 74
0
 40
0
 40
0
 40
0
 40
0
 40
1
 40
1
 40
1
 40
1
 10
346.163025
 20
1475.933304
 30
0.0
 10
344.178651
 20
1475.933304
 30
0.0
 10
340.183963
 20
1475.271846
 30
0.0
 10
340.183963
 20
1469.954243
 30
0.0
  0
LWPOLYLINE
  5
1a3
100
AcDbEntity
  8
0
 62
7
100
AcDbPolyline
 90
4
 70
0
 10
336.189276
 20
1473.287472
 30
0.0
 10
338.186619
 20
1473.287472
 30
0.0
 10
338.186619
 20
1473.274502
 30
0.0
 10
338.186619
 20
1473.274502
 30
0.0
  0
SPLINE
  5
1a4
100
AcDbEntity
  8
0
 62
7
100
AcDbSpline
 70
8
 71
3
 72
8
 73
4
 74
0
 40
0
 40
0
 40
0
 40
0
 40
1
 40
1
 40
1
 40
1
 10
342.842765
 20
1469.954243
 30
0.0
 10
342.842765
 20
1472.613044
 30
0.0
 10
344.840109
 20
1473.935960
 30
0.0
 10
346.163025
 20
1473.935960
 30
0.0
  0
SPLINE
  5
1a5
100
AcDbEntity
  8
0
 62
7
100
AcDbSpline
 70
8
 71
3
 72
8
 73
4
 74
0
 40
0
 40
0
 40
0
 40
0
 40
1
 40
1
 40
1
 40
1
 10
346.163025
 20
1473.935960
 30
0.0
 10
346.824483
 20
1473.935960
 30
0.0
 10
348.821827
 20
1472.600075
 30
0.0
 10
348.821827
 20
1469.954243
 30
0.0
  0
SPLINE
  5
1a6
100
AcDbEntity
  8
0
 62
7
100
AcDbSpline
 70
8
 71
3
 72
8
 73
4
 74
0
 40
0
 40
0
 40
0
 40
0
 40
1
 40
1
 40
1
 40
1
 10
348.821827
 20
1469.954243
 30
0.0
 10
348.821827
 20
1466.633983
 30
0.0
 10
346.824483
 20
1465.298097
 30
0.0
 10
346.163025
 20
1465.298097
 30
0.0
  0
SPLINE
  5
1a7
100
AcDbEntity
  8
0
 62
7
100
AcDbSpline
 70
8
 71
3
 72
8
 73
4
 74
0
 40
0
 40
0
 40
0
 40
0
 40
1
 40
1
 40
1
 40
1
 10
346.163025
 20
1465.298097
 30
0.0
 10
344.827139
 20
1465.298097
 30
0.0
 10
342.842765
 20
1466.633983
 30
0.0
 10
342.842765
 20
1469.954243
 30
0.0
  0
LWPOLYLINE
  5
1a8
100
AcDbEntity
  8
0
 62
7
100
AcDbPolyline
 90
1
 70
1
 10
340.183963
 20
1469.954243
 30
0.0
  0
LWPOLYLINE
  5
1a9
100
AcDbEntity
  8
0
 62
7
100
AcDbPolyline
 90
1
 70
1
 10
342.842765
 20
1469.954243
 30
0.0
  0
SPLINE
  5
1aa
100
AcDbEntity
  8
0
 62
7
100
AcDbSpline
 70
8
 71
3
 72
8
 73
4
 74
0
 40
0
 40
0
 40
0
 40
0
 40
1
 40
1
 40
1
 40
1
 10
322.908236
 20
1400.176908
 30
0.0
 10
319.587977
 20
1396.856648
 30
0.0
 10
318.252091
 20
1396.856648
 30
0.0
 10
318.913549
 20
1393.536388
 30
0.0
  0
LWPOLYLINE
  5
1ab
100
AcDbEntity
  8
0
 62
7
100
AcDbPolyline
 90
11
 70
1
 10
360.118492
 20
1467.295441
 30
0.0
 10
356.123804
 20
1475.271846
 30
0.0
 10
353.465002
 20
1475.271846
 30
0.0
 10
353.465002
 20
1463.975181
 30
0.0
 10
355.462346
 20
1463.975181
 30
0.0
 10
355.462346
 20
1471.951586
 30
0.0
 10
360.118492
 20
1463.975181
 30
0.0
 10
362.777294
 20
1463.975181
 30
0.0
 10
362.777294
 20
1475.271846
 30
0.0
 10
360.118492
 20
1475.271846
 30
0.0
 10
360.118492
 20
1467.295441
 30
0.0
  0
SPLINE
  5
1ac
100
AcDbEntity
  8
0
 62
7
100
AcDbSpline
 70
8
 71
3
 72
8
 73
4
 74
0
 40
0
 40
0
 40
0
 40
0
 40
1
 40
1
 40
1
 40
1
 10
326.215526
 20
1393.536388
 30
0.0
 10
326.889954
 20
1396.856648
 30
0.0
 10
326.228496
 20
1398.179564
 30
0.0
 10
322.908236
 20
1400.176908
 30
0.0
  0
LWPOLYLINE
  5
1ad
100
AcDbEntity
  8
0
 62
7
100
AcDbPolyline
 90
2
 70
0
 10
318.913549
 20
1393.536388
 30
0.0
 10
326.215526
 20
1393.536388
 30
0.0
  0
SPLINE
  5
1ae
100
AcDbEntity
  8
0
 62
7
100
AcDbSpline
 70
8
 71
3
 72
8
 73
4
 74
0
 40
0
 40
0
 40
0
 40
0
 40
1
 40
1
 40
1
 40
1
 10
176.713047
 20
1240.039221
 30
0.0
 10
177.387474
 20
1242.036564
 30
0.0
 10
180.046276
 20
1249.338542
 30
0.0
 10
181.369192
 20
1251.335886
 30
0.0
  0
SPLINE
  5
1af
100
AcDbEntity
  8
0
 62
7
100
AcDbSpline
 70
8
 71
3
 72
8
 73
4
 74
0
 40
0
 40
0
 40
0
 40
0
 40
1
 40
1
 40
1
 40
1
 10
181.369192
 20
1251.335886
 30
0.0
 10
180.033306
 20
1253.333230
 30
0.0
 10
177.374505
 20
1255.979062
 30
0.0
 10
176.051589
 20
1255.979062
 30
0.0
  0
SPLINE
  5
1b0
100
AcDbEntity
  8
0
 62
7
100
AcDbSpline
 70
8
 71
3
 72
8
 73
4
 74
0
 40
0
 40
0
 40
0
 40
0
 40
1
 40
1
 40
1
 40
1
 10
176.051589
 20
1255.979062
 30
0.0
 10
176.713047
 20
1257.976405
 30
0.0
 10
180.694764
 20
1260.635207
 30
0.0
 10
180.046276
 20
1262.632551
 30
0.0
  0
SPLINE
  5
1b1
100
AcDbEntity
  8
0
 62
7
100
AcDbSpline
 70
8
 71
3
 72
8
 73
4
 74
0
 40
0
 40
0
 40
0
 40
0
 40
1
 40
1
 40
1
 40
1
 10
180.046276
 20
1262.632551
 30
0.0
 10
178.710390
 20
1264.629895
 30
0.0
 10
177.387474
 20
1264.629895
 30
0.0
 10
173.392787
 20
1266.614269
 30
0.0
  0
SPLINE
  5
1b2
100
AcDbEntity
  8
0
 62
7
100
AcDbSpline
 70
8
 71
3
 72
8
 73
4
 74
0
 40
0
 40
0
 40
0
 40
0
 40
1
 40
1
 40
1
 40
1
 10
173.392787
 20
1266.614269
 30
0.0
 10
174.728673
 20
1269.273071
 30
0.0
 10
177.387474
 20
1270.608956
 30
0.0
 10
179.371848
 20
1271.257445
 30
0.0
  0
SPLINE
  5
1b3
100
AcDbEntity
  8
0
 62
7
100
AcDbSpline
 70
8
 71
3
 72
8
 73
4
 74
0
 40
0
 40
0
 40
0
 40
0
 40
1
 40
1
 40
1
 40
1
 10
179.371848
 20
1271.257445
 30
0.0
 10
182.030650
 20
1271.931872
 30
0.0
 10
182.030650
 20
1274.577704
 30
0.0
 10
185.350910
 20
1276.575048
 30
0.0
  0
SPLINE
  5
1b4
100
AcDbEntity
  8
0
 62
7
100
AcDbSpline
 70
8
 71
3
 72
8
 73
4
 74
0
 40
0
 40
0
 40
0
 40
0
 40
1
 40
1
 40
1
 40
1
 10
185.350910
 20
1276.575048
 30
0.0
 10
189.345598
 20
1278.572392
 30
0.0
 10
193.327315
 20
1278.572392
 30
0.0
 10
197.970491
 20
1279.233850
 30
0.0
  0
SPLINE
  5
1b5
100
AcDbEntity
  8
0
 62
7
100
AcDbSpline
 70
8
 71
3
 72
8
 73
4
 74
0
 40
0
 40
0
 40
0
 40
0
 40
1
 40
1
 40
1
 40
1
 10
197.970491
 20
1279.233850
 30
0.0
 10
203.949553
 20
1278.572392
 30
0.0
 10
220.563822
 20
1273.916246
 30
0.0
 10
215.920646
 20
1253.320260
 30
0.0
  0
SPLINE
  5
1b6
100
AcDbEntity
  8
0
 62
7
100
AcDbSpline
 70
8
 71
3
 72
8
 73
4
 74
0
 40
0
 40
0
 40
0
 40
0
 40
1
 40
1
 40
1
 40
1
 10
215.920646
 20
1253.320260
 30
0.0
 10
225.894395
 20
1233.385731
 30
0.0
 10
261.107307
 20
1259.960779
 30
0.0
 10
273.739858
 20
1259.960779
 30
0.0
  0
SPLINE
  5
1b7
100
AcDbEntity
  8
0
 62
7
100
AcDbSpline
 70
8
 71
3
 72
8
 73
4
 74
0
 40
0
 40
0
 40
0
 40
0
 40
1
 40
1
 40
1
 40
1
 10
273.739858
 20
1259.960779
 30
0.0
 10
271.081056
 20
1255.966092
 30
0.0
 10
268.422254
 20
1251.322916
 30
0.0
 10
265.763452
 20
1246.666770
 30
0.0
  0
SPLINE
  5
1b8
100
AcDbEntity
  8
0
 62
7
100
AcDbSpline
 70
8
 71
3
 72
8
 73
4
 74
0
 40
0
 40
0
 40
0
 40
0
 40
1
 40
1
 40
1
 40
1
 10
265.763452
 20
1246.666770
 30
0.0
 10
269.083712
 20
1244.695366
 30
0.0
 10
273.739858
 20
1246.666770
 30
0.0
 10
277.060117
 20
1246.666770
 30
0.0
  0
SPLINE
  5
1b9
100
AcDbEntity
  8
0
 62
7
100
AcDbSpline
 70
8
 71
3
 72
8
 73
4
 74
0
 40
0
 40
0
 40
0
 40
0
 40
1
 40
1
 40
1
 40
1
 10
277.060117
 20
1246.666770
 30
0.0
 10
273.739858
 20
1235.370105
 30
0.0
 10
267.086368
 20
1231.388387
 30
0.0
 10
261.120276
 20
1226.732242
 30
0.0
  0
SPLINE
  5
1ba
100
AcDbEntity
  8
0
 62
7
100
AcDbSpline
 70
8
 71
3
 72
8
 73
4
 74
0
 40
0
 40
0
 40
0
 40
0
 40
1
 40
1
 40
1
 40
1
 10
261.120276
 20
1226.732242
 30
0.0
 10
267.099338
 20
1208.795057
 30
0.0
 10
287.695325
 20
1215.435577
 30
0.0
 10
306.306937
 20
1217.432920
 30
0.0
  0
SPLINE
  5
1bb
100
AcDbEntity
  8
0
 62
7
100
AcDbSpline
 70
8
 71
3
 72
8
 73
4
 74
0
 40
0
 40
0
 40
0
 40
0
 40
1
 40
1
 40
1
 40
1
 10
306.306937
 20
1217.432920
 30
0.0
 10
304.322563
 20
1211.453859
 30
0.0
 10
296.333188
 20
1210.792401
 30
0.0
 10
293.025898
 20
1206.136255
 30
0.0
  0
SPLINE
  5
1bc
100
AcDbEntity
  8
0
 62
7
100
AcDbSpline
 70
8
 71
3
 72
8
 73
4
 74
0
 40
0
 40
0
 40
0
 40
0
 40
1
 40
1
 40
1
 40
1
 10
293.025898
 20
1206.136255
 30
0.0
 10
300.249530
 20
1198.928754
 30
0.0
 10
306.301696
 20
1190.636017
 30
0.0
 10
310.963083
 20
1181.558551
 30
0.0
  0
SPLINE
  5
1bd
100
AcDbEntity
  8
0
 62
7
100
AcDbSpline
 70
8
 71
3
 72
8
 73
4
 74
0
 40
0
 40
0
 40
0
 40
0
 40
1
 40
1
 40
1
 40
1
 10
310.963083
 20
1181.558551
 30
0.0
 10
302.325219
 20
1186.850215
 30
0.0
 10
285.049493
 20
1192.829276
 30
0.0
 10
279.070431
 20
1194.826620
 30
0.0
  0
SPLINE
  5
1be
100
AcDbEntity
  8
0
 62
7
100
AcDbSpline
 70
8
 71
3
 72
8
 73
4
 74
0
 40
0
 40
0
 40
0
 40
0
 40
1
 40
1
 40
1
 40
1
 10
279.070431
 20
1194.826620
 30
0.0
 10
268.448194
 20
1199.482766
 30
0.0
 10
245.180435
 20
1199.482766
 30
0.0
 10
234.545228
 20
1194.826620
 30
0.0
  0
SPLINE
  5
1bf
100
AcDbEntity
  8
0
 62
7
100
AcDbSpline
 70
8
 71
3
 72
8
 73
4
 74
0
 40
0
 40
0
 40
0
 40
0
 40
1
 40
1
 40
1
 40
1
 10
234.545228
 20
1194.826620
 30
0.0
 10
236.542572
 20
1190.844902
 30
0.0
 10
240.524290
 20
1188.186101
 30
0.0
 10
244.518977
 20
1186.188757
 30
0.0
  0
SPLINE
  5
1c0
100
AcDbEntity
  8
0
 62
7
100
AcDbSpline
 70
8
 71
3
 72
8
 73
4
 74
0
 40
0
 40
0
 40
0
 40
0
 40
1
 40
1
 40
1
 40
1
 10
244.518977
 20
1186.188757
 30
0.0
 10
238.539916
 20
1174.892092
 30
0.0
 10
227.243251
 20
1181.558551
 30
0.0
 10
220.589761
 20
1183.529955
 30
0.0
  0
SPLINE
  5
1c1
100
AcDbEntity
  8
0
 62
7
100
AcDbSpline
 70
8
 71
3
 72
8
 73
4
 74
0
 40
0
 40
0
 40
0
 40
0
 40
1
 40
1
 40
1
 40
1
 10
220.589761
 20
1183.529955
 30
0.0
 10
214.610700
 20
1179.548237
 30
0.0
 10
203.975492
 20
1178.899749
 30
0.0
 10
201.316691
 20
1181.558551
 30
0.0
  0
SPLINE
  5
1c2
100
AcDbEntity
  8
0
 62
7
100
AcDbSpline
 70
8
 71
3
 72
8
 73
4
 74
0
 40
0
 40
0
 40
0
 40
0
 40
1
 40
1
 40
1
 40
1
 10
201.316691
 20
1181.558551
 30
0.0
 10
201.316691
 20
1181.558551
 30
0.0
 10
201.316691
 20
1184.878811
 30
0.0
 10
204.636950
 20
1186.850215
 30
0.0
  0
SPLINE
  5
1c3
100
AcDbEntity
  8
0
 62
7
100
AcDbSpline
 70
8
 71
3
 72
8
 73
4
 74
0
 40
0
 40
0
 40
0
 40
0
 40
1
 40
1
 40
1
 40
1
 10
204.636950
 20
1186.850215
 30
0.0
 10
207.295752
 20
1190.170475
 30
0.0
 10
197.983461
 20
1190.857872
 30
0.0
 10
195.999087
 20
1194.826620
 30
0.0
  0
SPLINE
  5
1c4
100
AcDbEntity
  8
0
 62
7
100
AcDbSpline
 70
8
 71
3
 72
8
 73
4
 74
0
 40
0
 40
0
 40
0
 40
0
 40
1
 40
1
 40
1
 40
1
 10
195.999087
 20
1194.826620
 30
0.0
 10
195.999087
 20
1199.482766
 30
0.0
 10
199.993775
 20
1194.826620
 30
0.0
 10
202.652576
 20
1199.482766
 30
0.0
  0
SPLINE
  5
1c5
100
AcDbEntity
  8
0
 62
7
100
AcDbSpline
 70
8
 71
3
 72
8
 73
4
 74
0
 40
0
 40
0
 40
0
 40
0
 40
1
 40
1
 40
1
 40
1
 10
202.652576
 20
1199.482766
 30
0.0
 10
196.647575
 20
1210.805371
 30
0.0
 10
173.392787
 20
1213.464172
 30
0.0
 10
176.713047
 20
1240.039221
 30
0.0
  0
LWPOLYLINE
  5
1c6
100
AcDbEntity
  8
0
 62
7
100
AcDbPolyline
 90
1
 70
1
 10
322.908236
 20
1400.176908
 30
0.0
  0
SPLINE
  5
1c7
100
AcDbEntity
  8
0
 62
7
100
AcDbSpline
 70
8
 71
3
 72
8
 73
4
 74
0
 40
0
 40
0
 40
0
 40
0
 40
1
 40
1
 40
1
 40
1
 10
192.652888
 20
1271.931872
 30
0.0
 10
193.988773
 20
1271.931872
 30
0.0
 10
194.650231
 20
1271.257445
 30
0.0
 10
194.650231
 20
1269.934529
 30
0.0
  0
SPLINE
  5
1c8
100
AcDbEntity
  8
0
 62
7
100
AcDbSpline
 70
8
 71
3
 72
8
 73
4
 74
0
 40
0
 40
0
 40
0
 40
0
 40
1
 40
1
 40
1
 40
1
 10
194.650231
 20
1269.934529
 30
0.0
 10
194.650231
 20
1268.598643
 30
0.0
 10
193.988773
 20
1267.937185
 30
0.0
 10
192.652888
 20
1267.937185
 30
0.0
  0
SPLINE
  5
1c9
100
AcDbEntity
  8
0
 62
7
100
AcDbSpline
 70
8
 71
3
 72
8
 73
4
 74
0
 40
0
 40
0
 40
0
 40
0
 40
1
 40
1
 40
1
 40
1
 10
192.652888
 20
1267.937185
 30
0.0
 10
191.329972
 20
1267.937185
 30
0.0
 10
190.655544
 20
1268.598643
 30
0.0
 10
190.655544
 20
1269.934529
 30
0.0
  0
SPLINE
  5
1ca
100
AcDbEntity
  8
0
 62
7
100
AcDbSpline
 70
8
 71
3
 72
8
 73
4
 74
0
 40
0
 40
0
 40
0
 40
0
 40
1
 40
1
 40
1
 40
1
 10
190.655544
 20
1269.934529
 30
0.0
 10
190.668514
 20
1271.257445
 30
0.0
 10
191.329972
 20
1271.931872
 30
0.0
 10
192.652888
 20
1271.931872
 30
0.0
  0
LWPOLYLINE
  5
1cb
100
AcDbEntity
  8
0
 62
7
100
AcDbPolyline
 90
1
 70
1
 10
176.713047
 20
1240.039221
 30
0.0
  0
SPLINE
  5
1cc
100
AcDbEntity
  8
0
 62
7
100
AcDbSpline
 70
8
 71
3
 72
8
 73
4
 74
0
 40
0
 40
0
 40
0
 40
0
 40
1
 40
1
 40
1
 40
1
 10
336.863703
 20
1236.718961
 30
0.0
 10
337.525161
 20
1238.716305
 30
0.0
 10
339.522505
 20
1246.018282
 30
0.0
 10
340.845421
 20
1248.015626
 30
0.0
  0
SPLINE
  5
1cd
100
AcDbEntity
  8
0
 62
7
100
AcDbSpline
 70
8
 71
3
 72
8
 73
4
 74
0
 40
0
 40
0
 40
0
 40
0
 40
1
 40
1
 40
1
 40
1
 10
340.845421
 20
1248.015626
 30
0.0
 10
339.522505
 20
1250.000000
 30
0.0
 10
337.525161
 20
1252.645832
 30
0.0
 10
335.527818
 20
1252.645832
 30
0.0
  0
SPLINE
  5
1ce
100
AcDbEntity
  8
0
 62
7
100
AcDbSpline
 70
8
 71
3
 72
8
 73
4
 74
0
 40
0
 40
0
 40
0
 40
0
 40
1
 40
1
 40
1
 40
1
 10
335.527818
 20
1252.645832
 30
0.0
 10
336.863703
 20
1254.643176
 30
0.0
 10
340.183963
 20
1257.301978
 30
0.0
 10
339.522505
 20
1259.299321
 30
0.0
  0
SPLINE
  5
1cf
100
AcDbEntity
  8
0
 62
7
100
AcDbSpline
 70
8
 71
3
 72
8
 73
4
 74
0
 40
0
 40
0
 40
0
 40
0
 40
1
 40
1
 40
1
 40
1
 10
339.522505
 20
1259.299321
 30
0.0
 10
338.861047
 20
1261.296665
 30
0.0
 10
337.525161
 20
1261.296665
 30
0.0
 10
333.543444
 20
1263.281039
 30
0.0
  0
SPLINE
  5
1d0
100
AcDbEntity
  8
0
 62
7
100
AcDbSpline
 70
8
 71
3
 72
8
 73
4
 74
0
 40
0
 40
0
 40
0
 40
0
 40
1
 40
1
 40
1
 40
1
 10
333.543444
 20
1263.281039
 30
0.0
 10
334.879329
 20
1265.939841
 30
0.0
 10
337.538131
 20
1267.275727
 30
0.0
 10
339.522505
 20
1267.937185
 30
0.0
  0
SPLINE
  5
1d1
100
AcDbEntity
  8
0
 62
7
100
AcDbSpline
 70
8
 71
3
 72
8
 73
4
 74
0
 40
0
 40
0
 40
0
 40
0
 40
1
 40
1
 40
1
 40
1
 10
339.522505
 20
1267.937185
 30
0.0
 10
342.181307
 20
1267.937185
 30
0.0
 10
342.181307
 20
1271.257445
 30
0.0
 10
345.501567
 20
1273.254788
 30
0.0
  0
SPLINE
  5
1d2
100
AcDbEntity
  8
0
 62
7
100
AcDbSpline
 70
8
 71
3
 72
8
 73
4
 74
0
 40
0
 40
0
 40
0
 40
0
 40
1
 40
1
 40
1
 40
1
 10
345.501567
 20
1273.254788
 30
0.0
 10
349.496254
 20
1275.239162
 30
0.0
 10
353.477972
 20
1275.239162
 30
0.0
 10
358.134118
 20
1275.239162
 30
0.0
  0
SPLINE
  5
1d3
100
AcDbEntity
  8
0
 62
7
100
AcDbSpline
 70
8
 71
3
 72
8
 73
4
 74
0
 40
0
 40
0
 40
0
 40
0
 40
1
 40
1
 40
1
 40
1
 10
358.134118
 20
1275.239162
 30
0.0
 10
364.113179
 20
1275.239162
 30
0.0
 10
380.727448
 20
1270.595987
 30
0.0
 10
376.071303
 20
1249.987030
 30
0.0
  0
SPLINE
  5
1d4
100
AcDbEntity
  8
0
 62
7
100
AcDbSpline
 70
8
 71
3
 72
8
 73
4
 74
0
 40
0
 40
0
 40
0
 40
0
 40
1
 40
1
 40
1
 40
1
 10
376.071303
 20
1249.987030
 30
0.0
 10
386.045052
 20
1230.039532
 30
0.0
 10
421.257963
 20
1257.289008
 30
0.0
 10
433.890514
 20
1257.289008
 30
0.0
  0
LWPOLYLINE
  5
1d5
100
AcDbEntity
  8
0
 62
7
100
AcDbPolyline
 90
1
 70
1
 10
192.652888
 20
1271.931872
 30
0.0
  0
SPLINE
  5
1d6
100
AcDbEntity
  8
0
 62
7
100
AcDbSpline
 70
8
 71
3
 72
8
 73
4
 74
0
 40
0
 40
0
 40
0
 40
0
 40
1
 40
1
 40
1
 40
1
 10
425.914109
 20
1243.333541
 30
0.0
 10
429.234369
 20
1241.336197
 30
0.0
 10
433.890514
 20
1243.333541
 30
0.0
 10
437.210774
 20
1243.333541
 30
0.0
  0
SPLINE
  5
1d7
100
AcDbEntity
  8
0
 62
7
100
AcDbSpline
 70
8
 71
3
 72
8
 73
4
 74
0
 40
0
 40
0
 40
0
 40
0
 40
1
 40
1
 40
1
 40
1
 10
437.210774
 20
1243.333541
 30
0.0
 10
433.890514
 20
1232.036876
 30
0.0
 10
426.588537
 20
1227.393700
 30
0.0
 10
421.270933
 20
1223.399012
 30
0.0
  0
SPLINE
  5
1d8
100
AcDbEntity
  8
0
 62
7
100
AcDbSpline
 70
8
 71
3
 72
8
 73
4
 74
0
 40
0
 40
0
 40
0
 40
0
 40
1
 40
1
 40
1
 40
1
 10
421.270933
 20
1223.399012
 30
0.0
 10
426.588537
 20
1205.461827
 30
0.0
 10
447.845981
 20
1212.102347
 30
0.0
 10
466.444624
 20
1214.099691
 30
0.0
  0
SPLINE
  5
1d9
100
AcDbEntity
  8
0
 62
7
100
AcDbSpline
 70
8
 71
3
 72
8
 73
4
 74
0
 40
0
 40
0
 40
0
 40
0
 40
1
 40
1
 40
1
 40
1
 10
466.444624
 20
1214.099691
 30
0.0
 10
464.460250
 20
1208.120629
 30
0.0
 10
456.470875
 20
1207.459171
 30
0.0
 10
453.163585
 20
1202.803026
 30
0.0
  0
SPLINE
  5
1da
100
AcDbEntity
  8
0
 62
7
100
AcDbSpline
 70
8
 71
3
 72
8
 73
4
 74
0
 40
0
 40
0
 40
0
 40
0
 40
1
 40
1
 40
1
 40
1
 10
453.163585
 20
1202.803026
 30
0.0
 10
459.142647
 20
1196.162506
 30
0.0
 10
466.444624
 20
1187.524643
 30
0.0
 10
471.100770
 20
1178.212351
 30
0.0
  0
SPLINE
  5
1db
100
AcDbEntity
  8
0
 62
7
100
AcDbSpline
 70
8
 71
3
 72
8
 73
4
 74
0
 40
0
 40
0
 40
0
 40
0
 40
1
 40
1
 40
1
 40
1
 10
471.100770
 20
1178.212351
 30
0.0
 10
462.462906
 20
1183.529955
 30
0.0
 10
445.174210
 20
1189.509017
 30
0.0
 10
439.208118
 20
1191.506360
 30
0.0
  0
SPLINE
  5
1dc
100
AcDbEntity
  8
0
 62
7
100
AcDbSpline
 70
8
 71
3
 72
8
 73
4
 74
0
 40
0
 40
0
 40
0
 40
0
 40
1
 40
1
 40
1
 40
1
 10
439.208118
 20
1191.506360
 30
0.0
 10
428.585881
 20
1196.162506
 30
0.0
 10
405.318122
 20
1196.162506
 30
0.0
 10
394.021457
 20
1191.506360
 30
0.0
  0
SPLINE
  5
1dd
100
AcDbEntity
  8
0
 62
7
100
AcDbSpline
 70
8
 71
3
 72
8
 73
4
 74
0
 40
0
 40
0
 40
0
 40
0
 40
1
 40
1
 40
1
 40
1
 10
394.021457
 20
1191.506360
 30
0.0
 10
396.680259
 20
1187.524643
 30
0.0
 10
400.661977
 20
1184.865841
 30
0.0
 10
404.656664
 20
1182.868497
 30
0.0
  0
SPLINE
  5
1de
100
AcDbEntity
  8
0
 62
7
100
AcDbSpline
 70
8
 71
3
 72
8
 73
4
 74
0
 40
0
 40
0
 40
0
 40
0
 40
1
 40
1
 40
1
 40
1
 10
404.656664
 20
1182.868497
 30
0.0
 10
398.677603
 20
1171.571832
 30
0.0
 10
387.380938
 20
1178.212351
 30
0.0
 10
380.727448
 20
1180.209695
 30
0.0
  0
SPLINE
  5
1df
100
AcDbEntity
  8
0
 62
7
100
AcDbSpline
 70
8
 71
3
 72
8
 73
4
 74
0
 40
0
 40
0
 40
0
 40
0
 40
1
 40
1
 40
1
 40
1
 10
380.727448
 20
1180.209695
 30
0.0
 10
374.748387
 20
1176.227977
 30
0.0
 10
364.113179
 20
1175.553550
 30
0.0
 10
361.454378
 20
1178.212351
 30
0.0
  0
SPLINE
  5
1e0
100
AcDbEntity
  8
0
 62
7
100
AcDbSpline
 70
8
 71
3
 72
8
 73
4
 74
0
 40
0
 40
0
 40
0
 40
0
 40
1
 40
1
 40
1
 40
1
 10
361.454378
 20
1178.212351
 30
0.0
 10
361.454378
 20
1178.212351
 30
0.0
 10
361.454378
 20
1180.871153
 30
0.0
 10
364.774637
 20
1183.529955
 30
0.0
  0
SPLINE
  5
1e1
100
AcDbEntity
  8
0
 62
7
100
AcDbSpline
 70
8
 71
3
 72
8
 73
4
 74
0
 40
0
 40
0
 40
0
 40
0
 40
1
 40
1
 40
1
 40
1
 10
364.774637
 20
1183.529955
 30
0.0
 10
367.433439
 20
1186.850215
 30
0.0
 10
358.134118
 20
1187.537612
 30
0.0
 10
355.475316
 20
1191.506360
 30
0.0
  0
SPLINE
  5
1e2
100
AcDbEntity
  8
0
 62
7
100
AcDbSpline
 70
8
 71
3
 72
8
 73
4
 74
0
 40
0
 40
0
 40
0
 40
0
 40
1
 40
1
 40
1
 40
1
 10
355.475316
 20
1191.506360
 30
0.0
 10
355.475316
 20
1196.162506
 30
0.0
 10
360.131462
 20
1191.506360
 30
0.0
 10
362.790263
 20
1196.162506
 30
0.0
  0
SPLINE
  5
1e3
100
AcDbEntity
  8
0
 62
7
100
AcDbSpline
 70
8
 71
3
 72
8
 73
4
 74
0
 40
0
 40
0
 40
0
 40
0
 40
1
 40
1
 40
1
 40
1
 10
362.790263
 20
1196.162506
 30
0.0
 10
356.798232
 20
1207.485111
 30
0.0
 10
333.530474
 20
1210.143913
 30
0.0
 10
336.863703
 20
1236.718961
 30
0.0
  0
LWPOLYLINE
  5
1e4
100
AcDbEntity
  8
0
 62
7
100
AcDbPolyline
 90
2
 70
0
 10
433.890514
 20
1257.289008
 30
0.0
 10
425.914109
 20
1243.333541
 30
0.0
  0
SPLINE
  5
1e5
100
AcDbEntity
  8
0
 62
7
100
AcDbSpline
 70
8
 71
3
 72
8
 73
4
 74
0
 40
0
 40
0
 40
0
 40
0
 40
1
 40
1
 40
1
 40
1
 10
352.142086
 20
1268.611613
 30
0.0
 10
353.477972
 20
1268.611613
 30
0.0
 10
354.800888
 20
1267.950155
 30
0.0
 10
354.800888
 20
1266.614269
 30
0.0
  0
SPLINE
  5
1e6
100
AcDbEntity
  8
0
 62
7
100
AcDbSpline
 70
8
 71
3
 72
8
 73
4
 74
0
 40
0
 40
0
 40
0
 40
0
 40
1
 40
1
 40
1
 40
1
 10
354.800888
 20
1266.614269
 30
0.0
 10
354.800888
 20
1265.278383
 30
0.0
 10
353.465002
 20
1264.629895
 30
0.0
 10
352.142086
 20
1264.629895
 30
0.0
  0
SPLINE
  5
1e7
100
AcDbEntity
  8
0
 62
7
100
AcDbSpline
 70
8
 71
3
 72
8
 73
4
 74
0
 40
0
 40
0
 40
0
 40
0
 40
1
 40
1
 40
1
 40
1
 10
352.142086
 20
1264.629895
 30
0.0
 10
351.480628
 20
1264.629895
 30
0.0
 10
350.157712
 20
1265.291353
 30
0.0
 10
350.157712
 20
1266.614269
 30
0.0
  0
SPLINE
  5
1e8
100
AcDbEntity
  8
0
 62
7
100
AcDbSpline
 70
8
 71
3
 72
8
 73
4
 74
0
 40
0
 40
0
 40
0
 40
0
 40
1
 40
1
 40
1
 40
1
 10
350.157712
 20
1266.614269
 30
0.0
 10
350.157712
 20
1267.937185
 30
0.0
 10
351.480628
 20
1268.611613
 30
0.0
 10
352.142086
 20
1268.611613
 30
0.0
  0
LWPOLYLINE
  5
1e9
100
AcDbEntity
  8
0
 62
7
100
AcDbPolyline
 90
1
 70
1
 10
336.863703
 20
1236.718961
 30
0.0
  0
SPLINE
  5
1ea
100
AcDbEntity
  8
0
 62
7
100
AcDbSpline
 70
8
 71
3
 72
8
 73
4
 74
0
 40
0
 40
0
 40
0
 40
0
 40
1
 40
1
 40
1
 40
1
 10
259.771421
 20
1123.739339
 30
0.0
 10
261.107307
 20
1126.398141
 30
0.0
 10
263.091681
 20
1133.064600
 30
0.0
 10
264.427566
 20
1135.036004
 30
0.0
  0
SPLINE
  5
1eb
100
AcDbEntity
  8
0
 62
7
100
AcDbSpline
 70
8
 71
3
 72
8
 73
4
 74
0
 40
0
 40
0
 40
0
 40
0
 40
1
 40
1
 40
1
 40
1
 10
264.427566
 20
1135.036004
 30
0.0
 10
263.091681
 20
1137.033348
 30
0.0
 10
261.107307
 20
1139.692150
 30
0.0
 10
259.109963
 20
1139.692150
 30
0.0
  0
SPLINE
  5
1ec
100
AcDbEntity
  8
0
 62
7
100
AcDbSpline
 70
8
 71
3
 72
8
 73
4
 74
0
 40
0
 40
0
 40
0
 40
0
 40
1
 40
1
 40
1
 40
1
 10
259.109963
 20
1139.692150
 30
0.0
 10
259.771421
 20
1141.689493
 30
0.0
 10
263.753139
 20
1145.009753
 30
0.0
 10
263.104650
 20
1146.981158
 30
0.0
  0
SPLINE
  5
1ed
100
AcDbEntity
  8
0
 62
7
100
AcDbSpline
 70
8
 71
3
 72
8
 73
4
 74
0
 40
0
 40
0
 40
0
 40
0
 40
1
 40
1
 40
1
 40
1
 10
263.104650
 20
1146.981158
 30
0.0
 10
262.443192
 20
1148.330013
 30
0.0
 10
260.445849
 20
1148.330013
 30
0.0
 10
257.125589
 20
1150.327357
 30
0.0
  0
SPLINE
  5
1ee
100
AcDbEntity
  8
0
 62
7
100
AcDbSpline
 70
8
 71
3
 72
8
 73
4
 74
0
 40
0
 40
0
 40
0
 40
0
 40
1
 40
1
 40
1
 40
1
 10
257.125589
 20
1150.327357
 30
0.0
 10
258.448505
 20
1152.960219
 30
0.0
 10
261.107307
 20
1154.957563
 30
0.0
 10
263.104650
 20
1154.957563
 30
0.0
  0
SPLINE
  5
1ef
100
AcDbEntity
  8
0
 62
7
100
AcDbSpline
 70
8
 71
3
 72
8
 73
4
 74
0
 40
0
 40
0
 40
0
 40
0
 40
1
 40
1
 40
1
 40
1
 10
263.104650
 20
1154.957563
 30
0.0
 10
265.101994
 20
1155.619021
 30
0.0
 10
265.101994
 20
1158.277823
 30
0.0
 10
268.422254
 20
1160.275167
 30
0.0
  0
SPLINE
  5
1f0
100
AcDbEntity
  8
0
 62
7
100
AcDbSpline
 70
8
 71
3
 72
8
 73
4
 74
0
 40
0
 40
0
 40
0
 40
0
 40
1
 40
1
 40
1
 40
1
 10
268.422254
 20
1160.275167
 30
0.0
 10
272.403972
 20
1162.272510
 30
0.0
 10
277.060117
 20
1162.272510
 30
0.0
 10
281.041835
 20
1162.933968
 30
0.0
  0
SPLINE
  5
1f1
100
AcDbEntity
  8
0
 62
7
100
AcDbSpline
 70
8
 71
3
 72
8
 73
4
 74
0
 40
0
 40
0
 40
0
 40
0
 40
1
 40
1
 40
1
 40
1
 10
281.041835
 20
1162.933968
 30
0.0
 10
287.020897
 20
1162.272510
 30
0.0
 10
304.296624
 20
1157.616365
 30
0.0
 10
299.653448
 20
1137.020378
 30
0.0
  0
SPLINE
  5
1f2
100
AcDbEntity
  8
0
 62
7
100
AcDbSpline
 70
8
 71
3
 72
8
 73
4
 74
0
 40
0
 40
0
 40
0
 40
0
 40
1
 40
1
 40
1
 40
1
 10
299.653448
 20
1137.020378
 30
0.0
 10
309.627197
 20
1117.085849
 30
0.0
 10
344.840109
 20
1144.335325
 30
0.0
 10
356.798232
 20
1144.335325
 30
0.0
  0
SPLINE
  5
1f3
100
AcDbEntity
  8
0
 62
7
100
AcDbSpline
 70
8
 71
3
 72
8
 73
4
 74
0
 40
0
 40
0
 40
0
 40
0
 40
1
 40
1
 40
1
 40
1
 10
356.798232
 20
1144.335325
 30
0.0
 10
354.800888
 20
1139.679180
 30
0.0
 10
351.480628
 20
1135.010065
 30
0.0
 10
349.496254
 20
1130.379858
 30
0.0
  0
SPLINE
  5
1f4
100
AcDbEntity
  8
0
 62
7
100
AcDbSpline
 70
8
 71
3
 72
8
 73
4
 74
0
 40
0
 40
0
 40
0
 40
0
 40
1
 40
1
 40
1
 40
1
 10
349.496254
 20
1130.379858
 30
0.0
 10
352.155056
 20
1128.382515
 30
0.0
 10
356.798232
 20
1130.379858
 30
0.0
 10
360.792920
 20
1130.379858
 30
0.0
  0
SPLINE
  5
1f5
100
AcDbEntity
  8
0
 62
7
100
AcDbSpline
 70
8
 71
3
 72
8
 73
4
 74
0
 40
0
 40
0
 40
0
 40
0
 40
1
 40
1
 40
1
 40
1
 10
360.792920
 20
1130.379858
 30
0.0
 10
356.798232
 20
1119.744651
 30
0.0
 10
350.157712
 20
1115.075536
 30
0.0
 10
344.840109
 20
1110.445330
 30
0.0
  0
SPLINE
  5
1f6
100
AcDbEntity
  8
0
 62
7
100
AcDbSpline
 70
8
 71
3
 72
8
 73
4
 74
0
 40
0
 40
0
 40
0
 40
0
 40
1
 40
1
 40
1
 40
1
 10
344.840109
 20
1110.445330
 30
0.0
 10
350.157712
 20
1092.482205
 30
0.0
 10
371.415157
 20
1099.148665
 30
0.0
 10
390.026770
 20
1101.120069
 30
0.0
  0
SPLINE
  5
1f7
100
AcDbEntity
  8
0
 62
7
100
AcDbSpline
 70
8
 71
3
 72
8
 73
4
 74
0
 40
0
 40
0
 40
0
 40
0
 40
1
 40
1
 40
1
 40
1
 10
390.026770
 20
1101.120069
 30
0.0
 10
387.367968
 20
1095.141007
 30
0.0
 10
380.065990
 20
1094.479549
 30
0.0
 10
376.071303
 20
1089.823404
 30
0.0
  0
SPLINE
  5
1f8
100
AcDbEntity
  8
0
 62
7
100
AcDbSpline
 70
8
 71
3
 72
8
 73
4
 74
0
 40
0
 40
0
 40
0
 40
0
 40
1
 40
1
 40
1
 40
1
 10
376.071303
 20
1089.823404
 30
0.0
 10
382.711822
 20
1083.182884
 30
0.0
 10
390.026770
 20
1074.545021
 30
0.0
 10
394.008487
 20
1065.245699
 30
0.0
  0
SPLINE
  5
1f9
100
AcDbEntity
  8
0
 62
7
100
AcDbSpline
 70
8
 71
3
 72
8
 73
4
 74
0
 40
0
 40
0
 40
0
 40
0
 40
1
 40
1
 40
1
 40
1
 10
394.008487
 20
1065.245699
 30
0.0
 10
386.032082
 20
1071.224761
 30
0.0
 10
368.756355
 20
1076.542364
 30
0.0
 10
362.777294
 20
1079.201166
 30
0.0
  0
SPLINE
  5
1fa
100
AcDbEntity
  8
0
 62
7
100
AcDbSpline
 70
8
 71
3
 72
8
 73
4
 74
0
 40
0
 40
0
 40
0
 40
0
 40
1
 40
1
 40
1
 40
1
 10
362.777294
 20
1079.201166
 30
0.0
 10
351.480628
 20
1083.182884
 30
0.0
 10
328.887298
 20
1083.182884
 30
0.0
 10
317.590633
 20
1079.201166
 30
0.0
  0
SPLINE
  5
1fb
100
AcDbEntity
  8
0
 62
7
100
AcDbSpline
 70
8
 71
3
 72
8
 73
4
 74
0
 40
0
 40
0
 40
0
 40
0
 40
1
 40
1
 40
1
 40
1
 10
317.590633
 20
1079.201166
 30
0.0
 10
319.587977
 20
1074.545021
 30
0.0
 10
324.231152
 20
1071.886219
 30
0.0
 10
327.564382
 20
1069.875905
 30
0.0
  0
SPLINE
  5
1fc
100
AcDbEntity
  8
0
 62
7
100
AcDbSpline
 70
8
 71
3
 72
8
 73
4
 74
0
 40
0
 40
0
 40
0
 40
0
 40
1
 40
1
 40
1
 40
1
 10
327.564382
 20
1069.875905
 30
0.0
 10
322.246778
 20
1058.579240
 30
0.0
 10
310.950113
 20
1065.245699
 30
0.0
 10
304.309593
 20
1067.904501
 30
0.0
  0
SPLINE
  5
1fd
100
AcDbEntity
  8
0
 62
7
100
AcDbSpline
 70
8
 71
3
 72
8
 73
4
 74
0
 40
0
 40
0
 40
0
 40
0
 40
1
 40
1
 40
1
 40
1
 10
304.309593
 20
1067.904501
 30
0.0
 10
298.330532
 20
1063.248355
 30
0.0
 10
287.695325
 20
1062.586897
 30
0.0
 10
285.036523
 20
1065.245699
 30
0.0
  0
SPLINE
  5
1fe
100
AcDbEntity
  8
0
 62
7
100
AcDbSpline
 70
8
 71
3
 72
8
 73
4
 74
0
 40
0
 40
0
 40
0
 40
0
 40
1
 40
1
 40
1
 40
1
 10
285.036523
 20
1065.245699
 30
0.0
 10
285.036523
 20
1065.245699
 30
0.0
 10
285.036523
 20
1068.565959
 30
0.0
 10
288.356783
 20
1070.563303
 30
0.0
  0
SPLINE
  5
1ff
100
AcDbEntity
  8
0
 62
7
100
AcDbSpline
 70
8
 71
3
 72
8
 73
4
 74
0
 40
0
 40
0
 40
0
 40
0
 40
1
 40
1
 40
1
 40
1
 10
288.356783
 20
1070.563303
 30
0.0
 10
290.354126
 20
1073.883563
 30
0.0
 10
281.716263
 20
1074.545021
 30
0.0
 10
279.057461
 20
1079.201166
 30
0.0
  0
SPLINE
  5
200
100
AcDbEntity
  8
0
 62
7
100
AcDbSpline
 70
8
 71
3
 72
8
 73
4
 74
0
 40
0
 40
0
 40
0
 40
0
 40
1
 40
1
 40
1
 40
1
 10
279.057461
 20
1079.201166
 30
0.0
 10
279.057461
 20
1083.182884
 30
0.0
 10
283.713607
 20
1079.201166
 30
0.0
 10
285.710951
 20
1083.182884
 30
0.0
  0
SPLINE
  5
201
100
AcDbEntity
  8
0
 62
7
100
AcDbSpline
 70
8
 71
3
 72
8
 73
4
 74
0
 40
0
 40
0
 40
0
 40
0
 40
1
 40
1
 40
1
 40
1
 10
285.710951
 20
1083.182884
 30
0.0
 10
280.380377
 20
1094.505489
 30
0.0
 10
257.125589
 20
1097.164291
 30
0.0
 10
259.771421
 20
1123.739339
 30
0.0
  0
LWPOLYLINE
  5
202
100
AcDbEntity
  8
0
 62
7
100
AcDbPolyline
 90
1
 70
1
 10
352.142086
 20
1268.611613
 30
0.0
  0
SPLINE
  5
203
100
AcDbEntity
  8
0
 62
7
100
AcDbSpline
 70
8
 71
3
 72
8
 73
4
 74
0
 40
0
 40
0
 40
0
 40
0
 40
1
 40
1
 40
1
 40
1
 10
275.724232
 20
1156.306418
 30
0.0
 10
277.047148
 20
1156.306418
 30
0.0
 10
277.708606
 20
1154.957563
 30
0.0
 10
277.708606
 20
1153.647617
 30
0.0
  0
SPLINE
  5
204
100
AcDbEntity
  8
0
 62
7
100
AcDbSpline
 70
8
 71
3
 72
8
 73
4
 74
0
 40
0
 40
0
 40
0
 40
0
 40
1
 40
1
 40
1
 40
1
 10
277.708606
 20
1153.647617
 30
0.0
 10
277.708606
 20
1152.960219
 30
0.0
 10
277.047148
 20
1151.650273
 30
0.0
 10
275.724232
 20
1151.650273
 30
0.0
  0
SPLINE
  5
205
100
AcDbEntity
  8
0
 62
7
100
AcDbSpline
 70
8
 71
3
 72
8
 73
4
 74
0
 40
0
 40
0
 40
0
 40
0
 40
1
 40
1
 40
1
 40
1
 10
275.724232
 20
1151.650273
 30
0.0
 10
275.049804
 20
1151.650273
 30
0.0
 10
273.726888
 20
1152.973189
 30
0.0
 10
273.726888
 20
1153.647617
 30
0.0
  0
SPLINE
  5
206
100
AcDbEntity
  8
0
 62
7
100
AcDbSpline
 70
8
 71
3
 72
8
 73
4
 74
0
 40
0
 40
0
 40
0
 40
0
 40
1
 40
1
 40
1
 40
1
 10
273.726888
 20
1153.647617
 30
0.0
 10
273.726888
 20
1154.970533
 30
0.0
 10
275.062774
 20
1156.306418
 30
0.0
 10
275.724232
 20
1156.306418
 30
0.0
  0
LWPOLYLINE
  5
207
100
AcDbEntity
  8
0
 62
7
100
AcDbPolyline
 90
1
 70
1
 10
259.771421
 20
1123.739339
 30
0.0
  0
SPLINE
  5
208
100
AcDbEntity
  8
0
 62
7
100
AcDbSpline
 70
8
 71
3
 72
8
 73
4
 74
0
 40
0
 40
0
 40
0
 40
0
 40
1
 40
1
 40
1
 40
1
 10
215.920646
 20
1444.702110
 30
0.0
 10
215.259188
 20
1444.702110
 30
0.0
 10
213.923302
 20
1445.363568
 30
0.0
 10
215.920646
 20
1446.037996
 30
0.0
  0
SPLINE
  5
209
100
AcDbEntity
  8
0
 62
7
100
AcDbSpline
 70
8
 71
3
 72
8
 73
4
 74
0
 40
0
 40
0
 40
0
 40
0
 40
1
 40
1
 40
1
 40
1
 10
215.920646
 20
1446.037996
 30
0.0
 10
217.256532
 20
1446.037996
 30
0.0
 10
220.563822
 20
1446.037996
 30
0.0
 10
224.558509
 20
1441.381851
 30
0.0
  0
SPLINE
  5
20a
100
AcDbEntity
  8
0
 62
7
100
AcDbSpline
 70
8
 71
3
 72
8
 73
4
 74
0
 40
0
 40
0
 40
0
 40
0
 40
1
 40
1
 40
1
 40
1
 10
224.558509
 20
1441.381851
 30
0.0
 10
225.894395
 20
1442.043309
 30
0.0
 10
229.876113
 20
1448.022370
 30
0.0
 10
233.857831
 20
1446.037996
 30
0.0
  0
SPLINE
  5
20b
100
AcDbEntity
  8
0
 62
7
100
AcDbSpline
 70
8
 71
3
 72
8
 73
4
 74
0
 40
0
 40
0
 40
0
 40
0
 40
1
 40
1
 40
1
 40
1
 10
233.857831
 20
1446.037996
 30
0.0
 10
233.857831
 20
1446.037996
 30
0.0
 10
220.563822
 20
1416.791176
 30
0.0
 10
219.240906
 20
1414.806802
 30
0.0
  0
SPLINE
  5
20c
100
AcDbEntity
  8
0
 62
7
100
AcDbSpline
 70
8
 71
3
 72
8
 73
4
 74
0
 40
0
 40
0
 40
0
 40
0
 40
1
 40
1
 40
1
 40
1
 10
219.240906
 20
1414.806802
 30
0.0
 10
213.923302
 20
1417.465604
 30
0.0
 10
180.046276
 20
1419.449978
 30
0.0
 10
183.353566
 20
1419.449978
 30
0.0
  0
SPLINE
  5
20d
100
AcDbEntity
  8
0
 62
7
100
AcDbSpline
 70
8
 71
3
 72
8
 73
4
 74
0
 40
0
 40
0
 40
0
 40
0
 40
1
 40
1
 40
1
 40
1
 10
183.353566
 20
1419.449978
 30
0.0
 10
186.012368
 20
1419.449978
 30
0.0
 10
152.796800
 20
1418.788520
 30
0.0
 10
147.466227
 20
1414.806802
 30
0.0
  0
SPLINE
  5
20e
100
AcDbEntity
  8
0
 62
7
100
AcDbSpline
 70
8
 71
3
 72
8
 73
4
 74
0
 40
0
 40
0
 40
0
 40
0
 40
1
 40
1
 40
1
 40
1
 10
147.466227
 20
1414.806802
 30
0.0
 10
146.130341
 20
1417.465604
 30
0.0
 10
132.849302
 20
1446.699454
 30
0.0
 10
132.849302
 20
1446.699454
 30
0.0
  0
SPLINE
  5
20f
100
AcDbEntity
  8
0
 62
7
100
AcDbSpline
 70
8
 71
3
 72
8
 73
4
 74
0
 40
0
 40
0
 40
0
 40
0
 40
1
 40
1
 40
1
 40
1
 10
132.849302
 20
1446.699454
 30
0.0
 10
136.831020
 20
1448.696798
 30
0.0
 10
141.487165
 20
1442.704767
 30
0.0
 10
142.810081
 20
1442.056278
 30
0.0
  0
SPLINE
  5
210
100
AcDbEntity
  8
0
 62
7
100
AcDbSpline
 70
8
 71
3
 72
8
 73
4
 74
0
 40
0
 40
0
 40
0
 40
0
 40
1
 40
1
 40
1
 40
1
 10
142.810081
 20
1442.056278
 30
0.0
 10
146.130341
 20
1446.699454
 30
0.0
 10
149.463571
 20
1446.699454
 30
0.0
 10
150.125029
 20
1446.699454
 30
0.0
  0
SPLINE
  5
211
100
AcDbEntity
  8
0
 62
7
100
AcDbSpline
 70
8
 71
3
 72
8
 73
4
 74
0
 40
0
 40
0
 40
0
 40
0
 40
1
 40
1
 40
1
 40
1
 10
150.125029
 20
1446.699454
 30
0.0
 10
153.445288
 20
1446.037996
 30
0.0
 10
151.460914
 20
1445.363568
 30
0.0
 10
150.786487
 20
1444.715080
 30
0.0
  0
SPLINE
  5
212
100
AcDbEntity
  8
0
 62
7
100
AcDbSpline
 70
8
 71
3
 72
8
 73
4
 74
0
 40
0
 40
0
 40
0
 40
0
 40
1
 40
1
 40
1
 40
1
 10
150.786487
 20
1444.715080
 30
0.0
 10
134.846646
 20
1432.082529
 30
0.0
 10
158.101434
 20
1416.804146
 30
0.0
 10
163.419038
 20
1432.082529
 30
0.0
  0
SPLINE
  5
213
100
AcDbEntity
  8
0
 62
7
100
AcDbSpline
 70
8
 71
3
 72
8
 73
4
 74
0
 40
0
 40
0
 40
0
 40
0
 40
1
 40
1
 40
1
 40
1
 10
163.419038
 20
1432.082529
 30
0.0
 10
184.689452
 20
1429.423727
 30
0.0
 10
178.710390
 20
1446.037996
 30
0.0
 10
173.392787
 20
1448.696798
 30
0.0
  0
SPLINE
  5
214
100
AcDbEntity
  8
0
 62
7
100
AcDbSpline
 70
8
 71
3
 72
8
 73
4
 74
0
 40
0
 40
0
 40
0
 40
0
 40
1
 40
1
 40
1
 40
1
 10
173.392787
 20
1448.696798
 30
0.0
 10
169.398099
 20
1449.358256
 30
0.0
 10
172.056901
 20
1450.032684
 30
0.0
 10
173.392787
 20
1450.032684
 30
0.0
  0
SPLINE
  5
215
100
AcDbEntity
  8
0
 62
7
100
AcDbSpline
 70
8
 71
3
 72
8
 73
4
 74
0
 40
0
 40
0
 40
0
 40
0
 40
1
 40
1
 40
1
 40
1
 10
173.392787
 20
1450.032684
 30
0.0
 10
175.390131
 20
1451.368570
 30
0.0
 10
178.048932
 20
1451.368570
 30
0.0
 10
178.048932
 20
1449.371226
 30
0.0
  0
SPLINE
  5
216
100
AcDbEntity
  8
0
 62
7
100
AcDbSpline
 70
8
 71
3
 72
8
 73
4
 74
0
 40
0
 40
0
 40
0
 40
0
 40
1
 40
1
 40
1
 40
1
 10
178.048932
 20
1449.371226
 30
0.0
 10
178.048932
 20
1458.670547
 30
0.0
 10
178.710390
 20
1464.662579
 30
0.0
 10
183.366536
 20
1467.308411
 30
0.0
  0
SPLINE
  5
217
100
AcDbEntity
  8
0
 62
7
100
AcDbSpline
 70
8
 71
3
 72
8
 73
4
 74
0
 40
0
 40
0
 40
0
 40
0
 40
1
 40
1
 40
1
 40
1
 10
183.366536
 20
1467.308411
 30
0.0
 10
188.684140
 20
1463.988151
 30
0.0
 10
189.345598
 20
1458.670547
 30
0.0
 10
188.684140
 20
1449.371226
 30
0.0
  0
SPLINE
  5
218
100
AcDbEntity
  8
0
 62
7
100
AcDbSpline
 70
8
 71
3
 72
8
 73
4
 74
0
 40
0
 40
0
 40
0
 40
0
 40
1
 40
1
 40
1
 40
1
 10
188.684140
 20
1449.371226
 30
0.0
 10
189.345598
 20
1451.368570
 30
0.0
 10
191.342941
 20
1450.032684
 30
0.0
 10
193.327315
 20
1450.032684
 30
0.0
  0
SPLINE
  5
219
100
AcDbEntity
  8
0
 62
7
100
AcDbSpline
 70
8
 71
3
 72
8
 73
4
 74
0
 40
0
 40
0
 40
0
 40
0
 40
1
 40
1
 40
1
 40
1
 10
193.327315
 20
1450.032684
 30
0.0
 10
193.988773
 20
1449.371226
 30
0.0
 10
197.322003
 20
1449.371226
 30
0.0
 10
193.988773
 20
1448.035340
 30
0.0
  0
SPLINE
  5
21a
100
AcDbEntity
  8
0
 62
7
100
AcDbSpline
 70
8
 71
3
 72
8
 73
4
 74
0
 40
0
 40
0
 40
0
 40
0
 40
1
 40
1
 40
1
 40
1
 10
193.988773
 20
1448.035340
 30
0.0
 10
188.671170
 20
1446.050966
 30
0.0
 10
183.353566
 20
1428.100811
 30
0.0
 10
203.962523
 20
1432.095499
 30
0.0
  0
SPLINE
  5
21b
100
AcDbEntity
  8
0
 62
7
100
AcDbSpline
 70
8
 71
3
 72
8
 73
4
 74
0
 40
0
 40
0
 40
0
 40
0
 40
1
 40
1
 40
1
 40
1
 10
203.962523
 20
1432.095499
 30
0.0
 10
208.605698
 20
1416.791176
 30
0.0
 10
233.857831
 20
1433.405445
 30
0.0
 10
215.920646
 20
1444.702110
 30
0.0
  0
LWPOLYLINE
  5
21c
100
AcDbEntity
  8
0
 62
7
100
AcDbPolyline
 90
1
 70
1
 10
275.724232
 20
1156.306418
 30
0.0
  0
LWPOLYLINE
  5
21d
100
AcDbEntity
  8
0
 62
7
100
AcDbPolyline
 90
1
 70
1
 10
215.920646
 20
1444.702110
 30
0.0
  0
LWPOLYLINE
  5
21e
100
AcDbEntity
  8
0
 62
7
100
AcDbPolyline
 90
4
 70
1
 10
201.965179
 20
1427.426384
 30
0.0
 10
208.605698
 20
1420.124406
 30
0.0
 10
196.647575
 20
1422.121750
 30
0.0
 10
201.965179
 20
1427.426384
 30
0.0
  0
LWPOLYLINE
  5
21f
100
AcDbEntity
  8
0
 62
7
100
AcDbPolyline
 90
4
 70
1
 10
183.353566
 20
1435.402789
 30
0.0
 10
190.655544
 20
1422.121750
 30
0.0
 10
176.038619
 20
1422.121750
 30
0.0
 10
183.353566
 20
1435.402789
 30
0.0
  0
SPLINE
  5
220
100
AcDbEntity
  8
0
 62
7
100
AcDbSpline
 70
8
 71
3
 72
8
 73
4
 74
0
 40
0
 40
0
 40
0
 40
0
 40
1
 40
1
 40
1
 40
1
 10
156.778518
 20
1398.179564
 30
0.0
 10
154.119716
 20
1402.174251
 30
0.0
 10
151.460914
 20
1409.476229
 30
0.0
 10
150.137998
 20
1410.812115
 30
0.0
  0
SPLINE
  5
221
100
AcDbEntity
  8
0
 62
7
100
AcDbSpline
 70
8
 71
3
 72
8
 73
4
 74
0
 40
0
 40
0
 40
0
 40
0
 40
1
 40
1
 40
1
 40
1
 10
150.137998
 20
1410.812115
 30
0.0
 10
155.455602
 20
1415.468260
 30
0.0
 10
176.713047
 20
1416.129718
 30
0.0
 10
184.689452
 20
1416.129718
 30
0.0
  0
SPLINE
  5
222
100
AcDbEntity
  8
0
 62
7
100
AcDbSpline
 70
8
 71
3
 72
8
 73
4
 74
0
 40
0
 40
0
 40
0
 40
0
 40
1
 40
1
 40
1
 40
1
 10
184.689452
 20
1416.129718
 30
0.0
 10
195.986117
 20
1416.129718
 30
0.0
 10
211.938928
 20
1414.132375
 30
0.0
 10
217.256532
 20
1410.812115
 30
0.0
  0
SPLINE
  5
223
100
AcDbEntity
  8
0
 62
7
100
AcDbSpline
 70
8
 71
3
 72
8
 73
4
 74
0
 40
0
 40
0
 40
0
 40
0
 40
1
 40
1
 40
1
 40
1
 10
217.256532
 20
1410.812115
 30
0.0
 10
217.256532
 20
1410.812115
 30
0.0
 10
214.597730
 20
1402.835709
 30
0.0
 10
212.600386
 20
1397.518106
 30
0.0
  0
SPLINE
  5
224
100
AcDbEntity
  8
0
 62
7
100
AcDbSpline
 70
8
 71
3
 72
8
 73
4
 74
0
 40
0
 40
0
 40
0
 40
0
 40
1
 40
1
 40
1
 40
1
 10
212.600386
 20
1397.518106
 30
0.0
 10
203.962523
 20
1400.838366
 30
0.0
 10
191.342941
 20
1402.174251
 30
0.0
 10
183.366536
 20
1402.174251
 30
0.0
  0
SPLINE
  5
225
100
AcDbEntity
  8
0
 62
7
100
AcDbSpline
 70
8
 71
3
 72
8
 73
4
 74
0
 40
0
 40
0
 40
0
 40
0
 40
1
 40
1
 40
1
 40
1
 10
183.366536
 20
1402.174251
 30
0.0
 10
174.054245
 20
1402.174251
 30
0.0
 10
163.419038
 20
1400.838366
 30
0.0
 10
156.778518
 20
1398.179564
 30
0.0
  0
LWPOLYLINE
  5
226
100
AcDbEntity
  8
0
 62
7
100
AcDbPolyline
 90
4
 70
1
 10
164.754923
 20
1427.426384
 30
0.0
 10
158.775862
 20
1420.124406
 30
0.0
 10
170.733985
 20
1422.121750
 30
0.0
 10
164.754923
 20
1427.426384
 30
0.0
  0
SPLINE
  5
227
100
AcDbEntity
  8
0
 62
7
100
AcDbSpline
 70
8
 71
3
 72
8
 73
4
 74
0
 40
0
 40
0
 40
0
 40
0
 40
1
 40
1
 40
1
 40
1
 10
209.267156
 20
1409.476229
 30
0.0
 10
211.264500
 20
1409.476229
 30
0.0
 10
213.261844
 20
1407.491855
 30
0.0
 10
213.261844
 20
1406.155969
 30
0.0
  0
SPLINE
  5
228
100
AcDbEntity
  8
0
 62
7
100
AcDbSpline
 70
8
 71
3
 72
8
 73
4
 74
0
 40
0
 40
0
 40
0
 40
0
 40
1
 40
1
 40
1
 40
1
 10
213.261844
 20
1406.155969
 30
0.0
 10
213.117420
 20
1404.012434
 30
0.0
 10
211.410692
 20
1402.305706
 30
0.0
 10
209.267156
 20
1402.161282
 30
0.0
  0
SPLINE
  5
229
100
AcDbEntity
  8
0
 62
7
100
AcDbSpline
 70
8
 71
3
 72
8
 73
4
 74
0
 40
0
 40
0
 40
0
 40
0
 40
1
 40
1
 40
1
 40
1
 10
209.267156
 20
1402.161282
 30
0.0
 10
207.944240
 20
1402.161282
 30
0.0
 10
205.946897
 20
1404.158625
 30
0.0
 10
205.946897
 20
1406.155969
 30
0.0
  0
SPLINE
  5
22a
100
AcDbEntity
  8
0
 62
7
100
AcDbSpline
 70
8
 71
3
 72
8
 73
4
 74
0
 40
0
 40
0
 40
0
 40
0
 40
1
 40
1
 40
1
 40
1
 10
205.946897
 20
1406.155969
 30
0.0
 10
205.946897
 20
1407.491855
 30
0.0
 10
207.944240
 20
1409.476229
 30
0.0
 10
209.267156
 20
1409.476229
 30
0.0
  0
LWPOLYLINE
  5
22b
100
AcDbEntity
  8
0
 62
7
100
AcDbPolyline
 90
1
 70
1
 10
156.778518
 20
1398.179564
 30
0.0
  0
SPLINE
  5
22c
100
AcDbEntity
  8
0
 62
7
100
AcDbSpline
 70
8
 71
3
 72
8
 73
4
 74
0
 40
0
 40
0
 40
0
 40
0
 40
1
 40
1
 40
1
 40
1
 10
196.647575
 20
1412.148001
 30
0.0
 10
198.644919
 20
1412.148001
 30
0.0
 10
200.629293
 20
1410.163627
 30
0.0
 10
200.629293
 20
1408.827741
 30
0.0
  0
SPLINE
  5
22d
100
AcDbEntity
  8
0
 62
7
100
AcDbSpline
 70
8
 71
3
 72
8
 73
4
 74
0
 40
0
 40
0
 40
0
 40
0
 40
1
 40
1
 40
1
 40
1
 10
200.629293
 20
1408.827741
 30
0.0
 10
200.484926
 20
1406.691352
 30
0.0
 10
198.783964
 20
1404.990390
 30
0.0
 10
196.647575
 20
1404.846023
 30
0.0
  0
SPLINE
  5
22e
100
AcDbEntity
  8
0
 62
7
100
AcDbSpline
 70
8
 71
3
 72
8
 73
4
 74
0
 40
0
 40
0
 40
0
 40
0
 40
1
 40
1
 40
1
 40
1
 10
196.647575
 20
1404.846023
 30
0.0
 10
195.311689
 20
1404.846023
 30
0.0
 10
193.327315
 20
1406.830397
 30
0.0
 10
193.327315
 20
1408.827741
 30
0.0
  0
SPLINE
  5
22f
100
AcDbEntity
  8
0
 62
7
100
AcDbSpline
 70
8
 71
3
 72
8
 73
4
 74
0
 40
0
 40
0
 40
0
 40
0
 40
1
 40
1
 40
1
 40
1
 10
193.327315
 20
1408.827741
 30
0.0
 10
193.327315
 20
1410.150657
 30
0.0
 10
195.324659
 20
1412.148001
 30
0.0
 10
196.647575
 20
1412.148001
 30
0.0
  0
LWPOLYLINE
  5
230
100
AcDbEntity
  8
0
 62
7
100
AcDbPolyline
 90
1
 70
1
 10
209.267156
 20
1409.476229
 30
0.0
  0
SPLINE
  5
231
100
AcDbEntity
  8
0
 62
7
100
AcDbSpline
 70
8
 71
3
 72
8
 73
4
 74
0
 40
0
 40
0
 40
0
 40
0
 40
1
 40
1
 40
1
 40
1
 10
184.015024
 20
1413.470917
 30
0.0
 10
186.012368
 20
1413.470917
 30
0.0
 10
187.996742
 20
1411.473573
 30
0.0
 10
187.996742
 20
1409.476229
 30
0.0
  0
SPLINE
  5
232
100
AcDbEntity
  8
0
 62
7
100
AcDbSpline
 70
8
 71
3
 72
8
 73
4
 74
0
 40
0
 40
0
 40
0
 40
0
 40
1
 40
1
 40
1
 40
1
 10
187.996742
 20
1409.476229
 30
0.0
 10
187.996742
 20
1407.491855
 30
0.0
 10
186.012368
 20
1405.481541
 30
0.0
 10
184.015024
 20
1405.481541
 30
0.0
  0
SPLINE
  5
233
100
AcDbEntity
  8
0
 62
7
100
AcDbSpline
 70
8
 71
3
 72
8
 73
4
 74
0
 40
0
 40
0
 40
0
 40
0
 40
1
 40
1
 40
1
 40
1
 10
184.015024
 20
1405.481541
 30
0.0
 10
182.017680
 20
1405.481541
 30
0.0
 10
180.033306
 20
1407.478885
 30
0.0
 10
180.033306
 20
1409.476229
 30
0.0
  0
SPLINE
  5
234
100
AcDbEntity
  8
0
 62
7
100
AcDbSpline
 70
8
 71
3
 72
8
 73
4
 74
0
 40
0
 40
0
 40
0
 40
0
 40
1
 40
1
 40
1
 40
1
 10
180.033306
 20
1409.476229
 30
0.0
 10
180.033306
 20
1411.473573
 30
0.0
 10
182.030650
 20
1413.470917
 30
0.0
 10
184.015024
 20
1413.470917
 30
0.0
  0
LWPOLYLINE
  5
235
100
AcDbEntity
  8
0
 62
7
100
AcDbPolyline
 90
1
 70
1
 10
196.647575
 20
1412.148001
 30
0.0
  0
SPLINE
  5
236
100
AcDbEntity
  8
0
 62
7
100
AcDbSpline
 70
8
 71
3
 72
8
 73
4
 74
0
 40
0
 40
0
 40
0
 40
0
 40
1
 40
1
 40
1
 40
1
 10
170.733985
 20
1412.148001
 30
0.0
 10
172.731329
 20
1412.148001
 30
0.0
 10
174.728673
 20
1410.163627
 30
0.0
 10
174.728673
 20
1408.827741
 30
0.0
  0
SPLINE
  5
237
100
AcDbEntity
  8
0
 62
7
100
AcDbSpline
 70
8
 71
3
 72
8
 73
4
 74
0
 40
0
 40
0
 40
0
 40
0
 40
1
 40
1
 40
1
 40
1
 10
174.728673
 20
1408.827741
 30
0.0
 10
174.728673
 20
1406.830397
 30
0.0
 10
172.731329
 20
1404.846023
 30
0.0
 10
170.733985
 20
1404.846023
 30
0.0
  0
SPLINE
  5
238
100
AcDbEntity
  8
0
 62
7
100
AcDbSpline
 70
8
 71
3
 72
8
 73
4
 74
0
 40
0
 40
0
 40
0
 40
0
 40
1
 40
1
 40
1
 40
1
 10
170.733985
 20
1404.846023
 30
0.0
 10
168.597596
 20
1404.990390
 30
0.0
 10
166.896634
 20
1406.691352
 30
0.0
 10
166.752267
 20
1408.827741
 30
0.0
  0
SPLINE
  5
239
100
AcDbEntity
  8
0
 62
7
100
AcDbSpline
 70
8
 71
3
 72
8
 73
4
 74
0
 40
0
 40
0
 40
0
 40
0
 40
1
 40
1
 40
1
 40
1
 10
166.752267
 20
1408.827741
 30
0.0
 10
166.739297
 20
1410.150657
 30
0.0
 10
168.736641
 20
1412.148001
 30
0.0
 10
170.733985
 20
1412.148001
 30
0.0
  0
LWPOLYLINE
  5
23a
100
AcDbEntity
  8
0
 62
7
100
AcDbPolyline
 90
1
 70
1
 10
184.015024
 20
1413.470917
 30
0.0
  0
SPLINE
  5
23b
100
AcDbEntity
  8
0
 62
7
100
AcDbSpline
 70
8
 71
3
 72
8
 73
4
 74
0
 40
0
 40
0
 40
0
 40
0
 40
1
 40
1
 40
1
 40
1
 10
158.775862
 20
1409.476229
 30
0.0
 10
160.773206
 20
1409.476229
 30
0.0
 10
162.770549
 20
1407.491855
 30
0.0
 10
162.770549
 20
1406.155969
 30
0.0
  0
SPLINE
  5
23c
100
AcDbEntity
  8
0
 62
7
100
AcDbSpline
 70
8
 71
3
 72
8
 73
4
 74
0
 40
0
 40
0
 40
0
 40
0
 40
1
 40
1
 40
1
 40
1
 10
162.770549
 20
1406.155969
 30
0.0
 10
162.770549
 20
1404.158625
 30
0.0
 10
160.773206
 20
1402.161282
 30
0.0
 10
158.775862
 20
1402.161282
 30
0.0
  0
SPLINE
  5
23d
100
AcDbEntity
  8
0
 62
7
100
AcDbSpline
 70
8
 71
3
 72
8
 73
4
 74
0
 40
0
 40
0
 40
0
 40
0
 40
1
 40
1
 40
1
 40
1
 10
158.775862
 20
1402.161282
 30
0.0
 10
156.778518
 20
1402.161282
 30
0.0
 10
154.781174
 20
1404.158625
 30
0.0
 10
154.781174
 20
1406.155969
 30
0.0
  0
SPLINE
  5
23e
100
AcDbEntity
  8
0
 62
7
100
AcDbSpline
 70
8
 71
3
 72
8
 73
4
 74
0
 40
0
 40
0
 40
0
 40
0
 40
1
 40
1
 40
1
 40
1
 10
154.781174
 20
1406.155969
 30
0.0
 10
154.781174
 20
1407.491855
 30
0.0
 10
156.778518
 20
1409.476229
 30
0.0
 10
158.775862
 20
1409.476229
 30
0.0
  0
LWPOLYLINE
  5
23f
100
AcDbEntity
  8
0
 62
7
100
AcDbPolyline
 90
1
 70
1
 10
170.733985
 20
1412.148001
 30
0.0
  0
SPLINE
  5
240
100
AcDbEntity
  8
0
 62
7
100
AcDbSpline
 70
8
 71
3
 72
8
 73
4
 74
0
 40
0
 40
0
 40
0
 40
0
 40
1
 40
1
 40
1
 40
1
 10
183.353566
 20
1399.515450
 30
0.0
 10
197.970491
 20
1399.515450
 30
0.0
 10
211.925958
 20
1396.856648
 30
0.0
 10
211.925958
 20
1394.872274
 30
0.0
  0
SPLINE
  5
241
100
AcDbEntity
  8
0
 62
7
100
AcDbSpline
 70
8
 71
3
 72
8
 73
4
 74
0
 40
0
 40
0
 40
0
 40
0
 40
1
 40
1
 40
1
 40
1
 10
211.925958
 20
1394.872274
 30
0.0
 10
211.925958
 20
1393.536388
 30
0.0
 10
199.967835
 20
1392.213472
 30
0.0
 10
184.676482
 20
1392.213472
 30
0.0
  0
SPLINE
  5
242
100
AcDbEntity
  8
0
 62
7
100
AcDbSpline
 70
8
 71
3
 72
8
 73
4
 74
0
 40
0
 40
0
 40
0
 40
0
 40
1
 40
1
 40
1
 40
1
 10
184.676482
 20
1392.213472
 30
0.0
 10
169.385129
 20
1392.213472
 30
0.0
 10
156.765548
 20
1393.549358
 30
0.0
 10
156.765548
 20
1394.872274
 30
0.0
  0
SPLINE
  5
243
100
AcDbEntity
  8
0
 62
7
100
AcDbSpline
 70
8
 71
3
 72
8
 73
4
 74
0
 40
0
 40
0
 40
0
 40
0
 40
1
 40
1
 40
1
 40
1
 10
156.765548
 20
1394.872274
 30
0.0
 10
156.778518
 20
1396.856648
 30
0.0
 10
168.736641
 20
1399.515450
 30
0.0
 10
183.353566
 20
1399.515450
 30
0.0
  0
LWPOLYLINE
  5
244
100
AcDbEntity
  8
0
 62
7
100
AcDbPolyline
 90
1
 70
1
 10
158.775862
 20
1409.476229
 30
0.0
  0
SPLINE
  5
245
100
AcDbEntity
  8
0
 62
7
100
AcDbSpline
 70
8
 71
3
 72
8
 73
4
 74
0
 40
0
 40
0
 40
0
 40
0
 40
1
 40
1
 40
1
 40
1
 10
1970.236984
 20
1467.295441
 30
0.0
 10
1988.204277
 20
1467.266876
 30
0.0
 10
2002.762528
 20
1452.708624
 30
0.0
 10
2002.791093
 20
1434.741331
 30
0.0
  0
SPLINE
  5
246
100
AcDbEntity
  8
0
 62
7
100
AcDbSpline
 70
8
 71
3
 72
8
 73
4
 74
0
 40
0
 40
0
 40
0
 40
0
 40
1
 40
1
 40
1
 40
1
 10
2002.791093
 20
1434.741331
 30
0.0
 10
2002.791093
 20
1416.791176
 30
0.0
 10
1988.174168
 20
1401.512793
 30
0.0
 10
1970.236984
 20
1401.512793
 30
0.0
  0
SPLINE
  5
247
100
AcDbEntity
  8
0
 62
7
100
AcDbSpline
 70
8
 71
3
 72
8
 73
4
 74
0
 40
0
 40
0
 40
0
 40
0
 40
1
 40
1
 40
1
 40
1
 10
1970.236984
 20
1401.512793
 30
0.0
 10
1952.273859
 20
1401.512793
 30
0.0
 10
1937.656934
 20
1416.791176
 30
0.0
 10
1937.656934
 20
1434.741331
 30
0.0
  0
SPLINE
  5
248
100
AcDbEntity
  8
0
 62
7
100
AcDbSpline
 70
8
 71
3
 72
8
 73
4
 74
0
 40
0
 40
0
 40
0
 40
0
 40
1
 40
1
 40
1
 40
1
 10
1937.656934
 20
1434.741331
 30
0.0
 10
1937.692656
 20
1452.715776
 30
0.0
 10
1952.262515
 20
1467.274036
 30
0.0
 10
1970.236984
 20
1467.295441
 30
0.0
  0
LWPOLYLINE
  5
249
100
AcDbEntity
  8
0
 62
7
100
AcDbPolyline
 90
1
 70
1
 10
183.353566
 20
1399.515450
 30
0.0
  0
SPLINE
  5
24a
100
AcDbEntity
  8
0
 62
7
100
AcDbSpline
 70
8
 71
3
 72
8
 73
4
 74
0
 40
0
 40
0
 40
0
 40
0
 40
1
 40
1
 40
1
 40
1
 10
2279.228662
 20
1121.080537
 30
0.0
 10
2277.879807
 20
1106.463612
 30
0.0
 10
2271.252257
 20
1097.164291
 30
0.0
 10
2244.677208
 20
1089.849343
 30
0.0
  0
SPLINE
  5
24b
100
AcDbEntity
  8
0
 62
7
100
AcDbSpline
 70
8
 71
3
 72
8
 73
4
 74
0
 40
0
 40
0
 40
0
 40
0
 40
1
 40
1
 40
1
 40
1
 10
2244.677208
 20
1089.849343
 30
0.0
 10
2223.393824
 20
1083.208824
 30
0.0
 10
2226.052626
 20
1071.912158
 30
0.0
 10
2247.336010
 20
1070.602212
 30
0.0
  0
SPLINE
  5
24c
100
AcDbEntity
  8
0
 62
7
100
AcDbSpline
 70
8
 71
3
 72
8
 73
4
 74
0
 40
0
 40
0
 40
0
 40
0
 40
1
 40
1
 40
1
 40
1
 10
2247.336010
 20
1070.602212
 30
0.0
 10
2305.142252
 20
1079.240076
 30
0.0
 10
2323.079437
 20
1077.891220
 30
0.0
 10
2374.906618
 20
1071.925128
 30
0.0
  0
SPLINE
  5
24d
100
AcDbEntity
  8
0
 62
7
100
AcDbSpline
 70
8
 71
3
 72
8
 73
4
 74
0
 40
0
 40
0
 40
0
 40
0
 40
1
 40
1
 40
1
 40
1
 10
2374.906618
 20
1071.925128
 30
0.0
 10
2395.528544
 20
1072.586586
 30
0.0
 10
2392.182345
 20
1085.219137
 30
0.0
 10
2379.562763
 20
1091.198199
 30
0.0
  0
SPLINE
  5
24e
100
AcDbEntity
  8
0
 62
7
100
AcDbSpline
 70
8
 71
3
 72
8
 73
4
 74
0
 40
0
 40
0
 40
0
 40
0
 40
1
 40
1
 40
1
 40
1
 10
2379.562763
 20
1091.198199
 30
0.0
 10
2348.993027
 20
1103.156322
 30
0.0
 10
2344.349852
 20
1103.156322
 30
0.0
 10
2338.370790
 20
1133.726058
 30
0.0
  0
LWPOLYLINE
  5
24f
100
AcDbEntity
  8
0
 62
7
100
AcDbPolyline
 90
1
 70
1
 10
1970.236984
 20
1467.295441
 30
0.0
  0
SPLINE
  5
250
100
AcDbEntity
  8
0
 62
7
100
AcDbSpline
 70
8
 71
3
 72
8
 73
4
 74
0
 40
0
 40
0
 40
0
 40
0
 40
1
 40
1
 40
1
 40
1
 10
2335.711988
 20
1436.738675
 30
0.0
 10
2335.711988
 20
1454.014402
 30
0.0
 10
2342.352508
 20
1474.610388
 30
0.0
 10
2323.727925
 20
1469.967212
 30
0.0
  0
SPLINE
  5
251
100
AcDbEntity
  8
0
 62
7
100
AcDbSpline
 70
8
 71
3
 72
8
 73
4
 74
0
 40
0
 40
0
 40
0
 40
0
 40
1
 40
1
 40
1
 40
1
 10
2323.727925
 20
1469.967212
 30
0.0
 10
2289.176472
 20
1456.011745
 30
0.0
 10
2286.517670
 20
1455.350287
 30
0.0
 10
2254.625018
 20
1444.053622
 30
0.0
  0
SPLINE
  5
252
100
AcDbEntity
  8
0
 62
7
100
AcDbSpline
 70
8
 71
3
 72
8
 73
4
 74
0
 40
0
 40
0
 40
0
 40
0
 40
1
 40
1
 40
1
 40
1
 10
2254.625018
 20
1444.053622
 30
0.0
 10
2238.010749
 20
1437.400133
 30
0.0
 10
2244.664239
 20
1428.775239
 30
0.0
 10
2256.622362
 20
1424.780552
 30
0.0
  0
SPLINE
  5
253
100
AcDbEntity
  8
0
 62
7
100
AcDbSpline
 70
8
 71
3
 72
8
 73
4
 74
0
 40
0
 40
0
 40
0
 40
0
 40
1
 40
1
 40
1
 40
1
 10
2256.622362
 20
1424.780552
 30
0.0
 10
2273.236631
 20
1418.127062
 30
0.0
 10
2274.559547
 20
1408.166283
 30
0.0
 10
2275.895433
 20
1395.533732
 30
0.0
  0
LWPOLYLINE
  5
254
100
AcDbEntity
  8
0
 62
7
100
AcDbPolyline
 90
2
 70
0
 10
2338.370790
 20
1133.726058
 30
0.0
 10
2335.711988
 20
1436.738675
 30
0.0
  0
SPLINE
  5
255
100
AcDbEntity
  8
0
 62
7
100
AcDbSpline
 70
8
 71
3
 72
8
 73
4
 74
0
 40
0
 40
0
 40
0
 40
0
 40
1
 40
1
 40
1
 40
1
 10
2101.815248
 20
1122.416423
 30
0.0
 10
2099.817905
 20
1108.460956
 30
0.0
 10
2093.177385
 20
1099.161634
 30
0.0
 10
2066.576397
 20
1091.185229
 30
0.0
  0
SPLINE
  5
256
100
AcDbEntity
  8
0
 62
7
100
AcDbSpline
 70
8
 71
3
 72
8
 73
4
 74
0
 40
0
 40
0
 40
0
 40
0
 40
1
 40
1
 40
1
 40
1
 10
2066.576397
 20
1091.185229
 30
0.0
 10
2045.318952
 20
1084.518770
 30
0.0
 10
2047.977754
 20
1073.248044
 30
0.0
 10
2069.235199
 20
1072.560647
 30
0.0
  0
SPLINE
  5
257
100
AcDbEntity
  8
0
 62
7
100
AcDbSpline
 70
8
 71
3
 72
8
 73
4
 74
0
 40
0
 40
0
 40
0
 40
0
 40
1
 40
1
 40
1
 40
1
 10
2069.235199
 20
1072.560647
 30
0.0
 10
2127.067381
 20
1080.537052
 30
0.0
 10
2145.004565
 20
1079.227106
 30
0.0
 10
2196.831746
 20
1073.909502
 30
0.0
  0
SPLINE
  5
258
100
AcDbEntity
  8
0
 62
7
100
AcDbSpline
 70
8
 71
3
 72
8
 73
4
 74
0
 40
0
 40
0
 40
0
 40
0
 40
1
 40
1
 40
1
 40
1
 10
2196.831746
 20
1073.909502
 30
0.0
 10
2217.427732
 20
1073.909502
 30
0.0
 10
2214.107473
 20
1087.177572
 30
0.0
 10
2201.487891
 20
1093.182573
 30
0.0
  0
SPLINE
  5
259
100
AcDbEntity
  8
0
 62
7
100
AcDbSpline
 70
8
 71
3
 72
8
 73
4
 74
0
 40
0
 40
0
 40
0
 40
0
 40
1
 40
1
 40
1
 40
1
 10
2201.487891
 20
1093.182573
 30
0.0
 10
2170.918156
 20
1105.140696
 30
0.0
 10
2166.249040
 20
1105.140696
 30
0.0
 10
2160.269979
 20
1135.036004
 30
0.0
  0
LWPOLYLINE
  5
25a
100
AcDbEntity
  8
0
 62
7
100
AcDbPolyline
 90
3
 70
0
 10
2275.895433
 20
1395.533732
 30
0.0
 10
2279.228662
 20
1121.080537
 30
0.0
 10
2279.228662
 20
1121.080537
 30
0.0
  0
SPLINE
  5
25b
100
AcDbEntity
  8
0
 62
7
100
AcDbSpline
 70
8
 71
3
 72
8
 73
4
 74
0
 40
0
 40
0
 40
0
 40
0
 40
1
 40
1
 40
1
 40
1
 10
2157.611177
 20
1438.723049
 30
0.0
 10
2157.611177
 20
1455.998776
 30
0.0
 10
2164.277636
 20
1476.594762
 30
0.0
 10
2145.653054
 20
1471.951586
 30
0.0
  0
SPLINE
  5
25c
100
AcDbEntity
  8
0
 62
7
100
AcDbSpline
 70
8
 71
3
 72
8
 73
4
 74
0
 40
0
 40
0
 40
0
 40
0
 40
1
 40
1
 40
1
 40
1
 10
2145.653054
 20
1471.951586
 30
0.0
 10
2111.101600
 20
1457.996119
 30
0.0
 10
2108.442798
 20
1456.660234
 30
0.0
 10
2076.550146
 20
1446.037996
 30
0.0
  0
SPLINE
  5
25d
100
AcDbEntity
  8
0
 62
7
100
AcDbSpline
 70
8
 71
3
 72
8
 73
4
 74
0
 40
0
 40
0
 40
0
 40
0
 40
1
 40
1
 40
1
 40
1
 10
2076.550146
 20
1446.037996
 30
0.0
 10
2060.597335
 20
1438.723049
 30
0.0
 10
2066.563427
 20
1430.746643
 30
0.0
 10
2078.547490
 20
1426.764926
 30
0.0
  0
SPLINE
  5
25e
100
AcDbEntity
  8
0
 62
7
100
AcDbSpline
 70
8
 71
3
 72
8
 73
4
 74
0
 40
0
 40
0
 40
0
 40
0
 40
1
 40
1
 40
1
 40
1
 10
2078.547490
 20
1426.764926
 30
0.0
 10
2095.135819
 20
1420.124406
 30
0.0
 10
2097.146133
 20
1409.489199
 30
0.0
 10
2097.794621
 20
1397.531076
 30
0.0
  0
LWPOLYLINE
  5
25f
100
AcDbEntity
  8
0
 62
7
100
AcDbPolyline
 90
2
 70
0
 10
2160.269979
 20
1135.036004
 30
0.0
 10
2157.611177
 20
1438.723049
 30
0.0
  0
SPLINE
  5
260
100
AcDbEntity
  8
0
 62
7
100
AcDbSpline
 70
8
 71
3
 72
8
 73
4
 74
0
 40
0
 40
0
 40
0
 40
0
 40
1
 40
1
 40
1
 40
1
 10
1939.005790
 20
1242.036564
 30
0.0
 10
1937.656934
 20
1257.314947
 30
0.0
 10
1935.685530
 20
1269.273071
 30
0.0
 10
1918.409803
 20
1274.590674
 30
0.0
  0
SPLINE
  5
261
100
AcDbEntity
  8
0
 62
7
100
AcDbSpline
 70
8
 71
3
 72
8
 73
4
 74
0
 40
0
 40
0
 40
0
 40
0
 40
1
 40
1
 40
1
 40
1
 10
1918.409803
 20
1274.590674
 30
0.0
 10
1905.764282
 20
1275.926560
 30
0.0
 10
1899.785221
 20
1287.223225
 30
0.0
 10
1917.722406
 20
1293.863745
 30
0.0
  0
SPLINE
  5
262
100
AcDbEntity
  8
0
 62
7
100
AcDbSpline
 70
8
 71
3
 72
8
 73
4
 74
0
 40
0
 40
0
 40
0
 40
0
 40
1
 40
1
 40
1
 40
1
 10
1917.722406
 20
1293.863745
 30
0.0
 10
1953.622715
 20
1305.821868
 30
0.0
 10
1958.940318
 20
1307.819212
 30
0.0
 10
1986.163855
 20
1330.412542
 30
0.0
  0
SPLINE
  5
263
100
AcDbEntity
  8
0
 62
7
100
AcDbSpline
 70
8
 71
3
 72
8
 73
4
 74
0
 40
0
 40
0
 40
0
 40
0
 40
1
 40
1
 40
1
 40
1
 10
1986.163855
 20
1330.412542
 30
0.0
 10
1994.801718
 20
1334.394260
 30
0.0
 10
2004.788437
 20
1331.074000
 30
0.0
 10
2000.119322
 20
1315.795617
 30
0.0
  0
SPLINE
  5
264
100
AcDbEntity
  8
0
 62
7
100
AcDbSpline
 70
8
 71
3
 72
8
 73
4
 74
0
 40
0
 40
0
 40
0
 40
0
 40
1
 40
1
 40
1
 40
1
 10
2000.119322
 20
1315.795617
 30
0.0
 10
1998.121978
 20
1303.837494
 30
0.0
 10
1998.796406
 20
1298.519890
 30
0.0
 10
1997.460520
 20
1285.887339
 30
0.0
  0
LWPOLYLINE
  5
265
100
AcDbEntity
  8
0
 62
7
100
AcDbPolyline
 90
3
 70
0
 10
2097.794621
 20
1397.531076
 30
0.0
 10
2101.815248
 20
1122.416423
 30
0.0
 10
2101.815248
 20
1122.416423
 30
0.0
  0
SPLINE
  5
266
100
AcDbEntity
  8
0
 62
7
100
AcDbSpline
 70
8
 71
3
 72
8
 73
4
 74
0
 40
0
 40
0
 40
0
 40
0
 40
1
 40
1
 40
1
 40
1
 10
1998.121978
 20
1127.746996
 30
0.0
 10
1999.470834
 20
1101.833406
 30
0.0
 10
2019.405362
 20
1097.825749
 30
0.0
 10
2032.011974
 20
1092.508145
 30
0.0
  0
SPLINE
  5
267
100
AcDbEntity
  8
0
 62
7
100
AcDbSpline
 70
8
 71
3
 72
8
 73
4
 74
0
 40
0
 40
0
 40
0
 40
0
 40
1
 40
1
 40
1
 40
1
 10
2032.011974
 20
1092.508145
 30
0.0
 10
2045.305983
 20
1087.190541
 30
0.0
 10
2045.967441
 20
1072.573616
 30
0.0
 10
2031.350516
 20
1071.912158
 30
0.0
  0
SPLINE
  5
268
100
AcDbEntity
  8
0
 62
7
100
AcDbSpline
 70
8
 71
3
 72
8
 73
4
 74
0
 40
0
 40
0
 40
0
 40
0
 40
1
 40
1
 40
1
 40
1
 10
2031.350516
 20
1071.912158
 30
0.0
 10
1974.867190
 20
1079.888564
 30
0.0
 10
1962.909066
 20
1080.550022
 30
0.0
 10
1908.410114
 20
1069.914815
 30
0.0
  0
SPLINE
  5
269
100
AcDbEntity
  8
0
 62
7
100
AcDbSpline
 70
8
 71
3
 72
8
 73
4
 74
0
 40
0
 40
0
 40
0
 40
0
 40
1
 40
1
 40
1
 40
1
 10
1908.410114
 20
1069.914815
 30
0.0
 10
1890.472930
 20
1069.253357
 30
0.0
 10
1886.478242
 20
1083.208824
 30
0.0
 10
1909.071572
 20
1091.198199
 30
0.0
  0
SPLINE
  5
26a
100
AcDbEntity
  8
0
 62
7
100
AcDbSpline
 70
8
 71
3
 72
8
 73
4
 74
0
 40
0
 40
0
 40
0
 40
0
 40
1
 40
1
 40
1
 40
1
 10
1909.071572
 20
1091.198199
 30
0.0
 10
1931.003445
 20
1099.174604
 30
0.0
 10
1938.992820
 20
1103.156322
 30
0.0
 10
1939.641308
 20
1121.767935
 30
0.0
  0
LWPOLYLINE
  5
26b
100
AcDbEntity
  8
0
 62
7
100
AcDbPolyline
 90
2
 70
0
 10
1997.460520
 20
1285.887339
 30
0.0
 10
1998.121978
 20
1127.746996
 30
0.0
  0
SPLINE
  5
26c
100
AcDbEntity
  8
0
 62
7
100
AcDbSpline
 70
8
 71
3
 72
8
 73
4
 74
0
 40
0
 40
0
 40
0
 40
0
 40
1
 40
1
 40
1
 40
1
 10
1442.613978
 20
1271.257445
 30
0.0
 10
1455.259499
 20
1406.155969
 30
0.0
 10
1541.638133
 20
1461.977837
 30
0.0
 10
1663.229679
 20
1471.951586
 30
0.0
  0
SPLINE
  5
26d
100
AcDbEntity
  8
0
 62
7
100
AcDbSpline
 70
8
 71
3
 72
8
 73
4
 74
0
 40
0
 40
0
 40
0
 40
0
 40
1
 40
1
 40
1
 40
1
 10
1663.229679
 20
1471.951586
 30
0.0
 10
1791.487684
 20
1471.277159
 30
0.0
 10
1810.099297
 20
1462.652265
 30
0.0
 10
1808.101953
 20
1391.539044
 30
0.0
  0
SPLINE
  5
26e
100
AcDbEntity
  8
0
 62
7
100
AcDbSpline
 70
8
 71
3
 72
8
 73
4
 74
0
 40
0
 40
0
 40
0
 40
0
 40
1
 40
1
 40
1
 40
1
 10
1808.101953
 20
1391.539044
 30
0.0
 10
1808.763411
 20
1365.625454
 30
0.0
 10
1792.149142
 20
1359.646392
 30
0.0
 10
1780.191019
 20
1388.880242
 30
0.0
  0
SPLINE
  5
26f
100
AcDbEntity
  8
0
 62
7
100
AcDbSpline
 70
8
 71
3
 72
8
 73
4
 74
0
 40
0
 40
0
 40
0
 40
0
 40
1
 40
1
 40
1
 40
1
 10
1780.191019
 20
1388.880242
 30
0.0
 10
1766.235552
 20
1414.793833
 30
0.0
 10
1754.938886
 20
1430.072216
 30
0.0
 10
1722.384777
 20
1443.366225
 30
0.0
  0
SPLINE
  5
270
100
AcDbEntity
  8
0
 62
7
100
AcDbSpline
 70
8
 71
3
 72
8
 73
4
 74
0
 40
0
 40
0
 40
0
 40
0
 40
1
 40
1
 40
1
 40
1
 10
1722.384777
 20
1443.366225
 30
0.0
 10
1611.402498
 20
1468.618357
 30
0.0
 10
1529.667040
 20
1397.505136
 30
0.0
 10
1525.023864
 20
1276.575048
 30
0.0
  0
SPLINE
  5
271
100
AcDbEntity
  8
0
 62
7
100
AcDbSpline
 70
8
 71
3
 72
8
 73
4
 74
0
 40
0
 40
0
 40
0
 40
0
 40
1
 40
1
 40
1
 40
1
 10
1525.023864
 20
1276.575048
 30
0.0
 10
1517.047459
 20
1106.450642
 30
0.0
 10
1707.767852
 20
1056.633775
 30
0.0
 10
1746.975451
 20
1120.406109
 30
0.0
  0
SPLINE
  5
272
100
AcDbEntity
  8
0
 62
7
100
AcDbSpline
 70
8
 71
3
 72
8
 73
4
 74
0
 40
0
 40
0
 40
0
 40
0
 40
1
 40
1
 40
1
 40
1
 10
1746.975451
 20
1120.406109
 30
0.0
 10
1755.613314
 20
1137.020378
 30
0.0
 10
1755.613314
 20
1180.871153
 30
0.0
 10
1754.264459
 20
1217.419951
 30
0.0
  0
SPLINE
  5
273
100
AcDbEntity
  8
0
 62
7
100
AcDbSpline
 70
8
 71
3
 72
8
 73
4
 74
0
 40
0
 40
0
 40
0
 40
0
 40
1
 40
1
 40
1
 40
1
 10
1754.264459
 20
1217.419951
 30
0.0
 10
1747.623939
 20
1241.336197
 30
0.0
 10
1724.369151
 20
1239.351823
 30
0.0
 10
1702.437278
 20
1240.013281
 30
0.0
  0
SPLINE
  5
274
100
AcDbEntity
  8
0
 62
7
100
AcDbSpline
 70
8
 71
3
 72
8
 73
4
 74
0
 40
0
 40
0
 40
0
 40
0
 40
1
 40
1
 40
1
 40
1
 10
1702.437278
 20
1240.013281
 30
0.0
 10
1678.521032
 20
1238.015937
 30
0.0
 10
1669.883168
 20
1265.265413
 30
0.0
 10
1701.775820
 20
1265.265413
 30
0.0
  0
SPLINE
  5
275
100
AcDbEntity
  8
0
 62
7
100
AcDbSpline
 70
8
 71
3
 72
8
 73
4
 74
0
 40
0
 40
0
 40
0
 40
0
 40
1
 40
1
 40
1
 40
1
 10
1701.775820
 20
1265.265413
 30
0.0
 10
1733.007014
 20
1265.265413
 30
0.0
 10
1793.472058
 20
1261.945153
 30
0.0
 10
1870.564340
 20
1269.260101
 30
0.0
  0
SPLINE
  5
276
100
AcDbEntity
  8
0
 62
7
100
AcDbSpline
 70
8
 71
3
 72
8
 73
4
 74
0
 40
0
 40
0
 40
0
 40
0
 40
1
 40
1
 40
1
 40
1
 10
1870.564340
 20
1269.260101
 30
0.0
 10
1893.157671
 20
1268.598643
 30
0.0
 10
1895.142045
 20
1248.002656
 30
0.0
 10
1867.244081
 20
1244.682396
 30
0.0
  0
SPLINE
  5
277
100
AcDbEntity
  8
0
 62
7
100
AcDbSpline
 70
8
 71
3
 72
8
 73
4
 74
0
 40
0
 40
0
 40
0
 40
0
 40
1
 40
1
 40
1
 40
1
 10
1867.244081
 20
1244.682396
 30
0.0
 10
1855.285957
 20
1242.023595
 30
0.0
 10
1829.346428
 20
1242.685053
 30
0.0
 10
1826.026168
 20
1222.750524
 30
0.0
  0
SPLINE
  5
278
100
AcDbEntity
  8
0
 62
7
100
AcDbSpline
 70
8
 71
3
 72
8
 73
4
 74
0
 40
0
 40
0
 40
0
 40
0
 40
1
 40
1
 40
1
 40
1
 10
1826.026168
 20
1222.750524
 30
0.0
 10
1823.367366
 20
1119.096163
 30
0.0
 10
1847.309552
 20
1109.109444
 30
0.0
 10
1769.542842
 20
1080.537052
 30
0.0
  0
SPLINE
  5
279
100
AcDbEntity
  8
0
 62
7
100
AcDbSpline
 70
8
 71
3
 72
8
 73
4
 74
0
 40
0
 40
0
 40
0
 40
0
 40
1
 40
1
 40
1
 40
1
 10
1769.542842
 20
1080.537052
 30
0.0
 10
1669.883168
 20
1057.282264
 30
0.0
 10
1562.234120
 20
1067.917471
 30
0.0
 10
1501.769076
 20
1126.385171
 30
0.0
  0
SPLINE
  5
27a
100
AcDbEntity
  8
0
 62
7
100
AcDbSpline
 70
8
 71
3
 72
8
 73
4
 74
0
 40
0
 40
0
 40
0
 40
0
 40
1
 40
1
 40
1
 40
1
 10
1501.769076
 20
1126.385171
 30
0.0
 10
1474.506630
 20
1150.988815
 30
0.0
 10
1440.603665
 20
1206.136255
 30
0.0
 10
1442.613978
 20
1271.257445
 30
0.0
  0
LWPOLYLINE
  5
27b
100
AcDbEntity
  8
0
 62
7
100
AcDbPolyline
 90
3
 70
0
 10
1939.641308
 20
1121.767935
 30
0.0
 10
1939.005790
 20
1242.036564
 30
0.0
 10
1939.005790
 20
1242.036564
 30
0.0
  0
SPLINE
  5
27c
100
AcDbEntity
  8
0
 62
7
100
AcDbSpline
 70
8
 71
3
 72
8
 73
4
 74
0
 40
0
 40
0
 40
0
 40
0
 40
1
 40
1
 40
1
 40
1
 10
1185.436510
 20
1202.167507
 30
0.0
 10
1196.733176
 20
1313.798273
 30
0.0
 10
1289.778269
 20
1340.386291
 30
0.0
 10
1337.597792
 20
1340.386291
 30
0.0
  0
SPLINE
  5
27d
100
AcDbEntity
  8
0
 62
7
100
AcDbSpline
 70
8
 71
3
 72
8
 73
4
 74
0
 40
0
 40
0
 40
0
 40
0
 40
1
 40
1
 40
1
 40
1
 10
1337.597792
 20
1340.386291
 30
0.0
 10
1394.081118
 20
1339.050406
 30
0.0
 10
1412.018303
 20
1320.451763
 30
0.0
 10
1412.705700
 20
1301.178692
 30
0.0
  0
SPLINE
  5
27e
100
AcDbEntity
  8
0
 62
7
100
AcDbSpline
 70
8
 71
3
 72
8
 73
4
 74
0
 40
0
 40
0
 40
0
 40
0
 40
1
 40
1
 40
1
 40
1
 10
1412.705700
 20
1301.178692
 30
0.0
 10
1413.367158
 20
1282.567080
 30
0.0
 10
1400.060180
 20
1272.606300
 30
0.0
 10
1385.443255
 20
1276.588018
 30
0.0
  0
SPLINE
  5
27f
100
AcDbEntity
  8
0
 62
7
100
AcDbSpline
 70
8
 71
3
 72
8
 73
4
 74
0
 40
0
 40
0
 40
0
 40
0
 40
1
 40
1
 40
1
 40
1
 10
1385.443255
 20
1276.588018
 30
0.0
 10
1354.212061
 20
1284.564423
 30
0.0
 10
1360.191122
 20
1317.792961
 30
0.0
 10
1318.337691
 20
1319.790305
 30
0.0
  0
SPLINE
  5
280
100
AcDbEntity
  8
0
 62
7
100
AcDbSpline
 70
8
 71
3
 72
8
 73
4
 74
0
 40
0
 40
0
 40
0
 40
0
 40
1
 40
1
 40
1
 40
1
 10
1318.337691
 20
1319.790305
 30
0.0
 10
1271.802175
 20
1313.149785
 30
0.0
 10
1243.229783
 20
1260.648177
 30
0.0
 10
1251.206188
 20
1197.511362
 30
0.0
  0
SPLINE
  5
281
100
AcDbEntity
  8
0
 62
7
100
AcDbSpline
 70
8
 71
3
 72
8
 73
4
 74
0
 40
0
 40
0
 40
0
 40
0
 40
1
 40
1
 40
1
 40
1
 10
1251.206188
 20
1197.511362
 30
0.0
 10
1259.182594
 20
1134.387516
 30
0.0
 10
1320.309095
 20
1087.877939
 30
0.0
 10
1394.729606
 20
1126.411110
 30
0.0
  0
SPLINE
  5
282
100
AcDbEntity
  8
0
 62
7
100
AcDbSpline
 70
8
 71
3
 72
8
 73
4
 74
0
 40
0
 40
0
 40
0
 40
0
 40
1
 40
1
 40
1
 40
1
 10
1394.729606
 20
1126.411110
 30
0.0
 10
1412.692731
 20
1130.418768
 30
0.0
 10
1414.002677
 20
1115.114445
 30
0.0
 10
1399.385752
 20
1105.153666
 30
0.0
  0
SPLINE
  5
283
100
AcDbEntity
  8
0
 62
7
100
AcDbSpline
 70
8
 71
3
 72
8
 73
4
 74
0
 40
0
 40
0
 40
0
 40
0
 40
1
 40
1
 40
1
 40
1
 10
1399.385752
 20
1105.153666
 30
0.0
 10
1263.190251
 20
1020.733466
 30
0.0
 10
1180.131877
 20
1140.353608
 30
0.0
 10
1185.436510
 20
1202.167507
 30
0.0
  0
LWPOLYLINE
  5
284
100
AcDbEntity
  8
0
 62
7
100
AcDbPolyline
 90
1
 70
1
 10
1442.613978
 20
1271.257445
 30
0.0
  0
SPLINE
  5
285
100
AcDbEntity
  8
0
 62
7
100
AcDbSpline
 70
8
 71
3
 72
8
 73
4
 74
0
 40
0
 40
0
 40
0
 40
0
 40
1
 40
1
 40
1
 40
1
 10
763.478180
 20
1390.216128
 30
0.0
 10
760.157920
 20
1428.762269
 30
0.0
 10
748.199797
 20
1416.791176
 30
0.0
 10
718.952977
 20
1428.762269
 30
0.0
  0
SPLINE
  5
286
100
AcDbEntity
  8
0
 62
7
100
AcDbSpline
 70
8
 71
3
 72
8
 73
4
 74
0
 40
0
 40
0
 40
0
 40
0
 40
1
 40
1
 40
1
 40
1
 10
718.952977
 20
1428.762269
 30
0.0
 10
695.023761
 20
1433.405445
 30
0.0
 10
693.039387
 20
1450.681172
 30
0.0
 10
716.955633
 20
1451.355600
 30
0.0
  0
SPLINE
  5
287
100
AcDbEntity
  8
0
 62
7
100
AcDbSpline
 70
8
 71
3
 72
8
 73
4
 74
0
 40
0
 40
0
 40
0
 40
0
 40
1
 40
1
 40
1
 40
1
 10
716.955633
 20
1451.355600
 30
0.0
 10
758.822034
 20
1448.035340
 30
0.0
 10
780.092448
 20
1447.373882
 30
0.0
 10
815.305360
 20
1453.352944
 30
0.0
  0
SPLINE
  5
288
100
AcDbEntity
  8
0
 62
7
100
AcDbSpline
 70
8
 71
3
 72
8
 73
4
 74
0
 40
0
 40
0
 40
0
 40
0
 40
1
 40
1
 40
1
 40
1
 10
815.305360
 20
1453.352944
 30
0.0
 10
831.245201
 20
1450.694142
 30
0.0
 10
838.560149
 20
1444.053622
 30
0.0
 10
844.539210
 20
1428.762269
 30
0.0
  0
SPLINE
  5
289
100
AcDbEntity
  8
0
 62
7
100
AcDbSpline
 70
8
 71
3
 72
8
 73
4
 74
0
 40
0
 40
0
 40
0
 40
0
 40
1
 40
1
 40
1
 40
1
 10
844.539210
 20
1428.762269
 30
0.0
 10
873.773060
 20
1366.299882
 30
0.0
 10
916.962377
 20
1272.593330
 30
0.0
 10
946.209197
 20
1210.143913
 30
0.0
  0
SPLINE
  5
28a
100
AcDbEntity
  8
0
 62
7
100
AcDbSpline
 70
8
 71
3
 72
8
 73
4
 74
0
 40
0
 40
0
 40
0
 40
0
 40
1
 40
1
 40
1
 40
1
 10
946.209197
 20
1210.143913
 30
0.0
 10
951.526801
 20
1198.847247
 30
0.0
 10
954.185603
 20
1196.849904
 30
0.0
 10
960.826122
 20
1210.805371
 30
0.0
  0
LWPOLYLINE
  5
28b
100
AcDbEntity
  8
0
 62
7
100
AcDbPolyline
 90
1
 70
1
 10
1185.436510
 20
1202.167507
 30
0.0
  0
SPLINE
  5
28c
100
AcDbEntity
  8
0
 62
7
100
AcDbSpline
 70
8
 71
3
 72
8
 73
4
 74
0
 40
0
 40
0
 40
0
 40
0
 40
1
 40
1
 40
1
 40
1
 10
1047.879184
 20
1433.418415
 30
0.0
 10
1057.191475
 20
1452.030028
 30
0.0
 10
1067.813713
 20
1456.673203
 30
0.0
 10
1098.383449
 20
1454.014402
 30
0.0
  0
SPLINE
  5
28d
100
AcDbEntity
  8
0
 62
7
100
AcDbSpline
 70
8
 71
3
 72
8
 73
4
 74
0
 40
0
 40
0
 40
0
 40
0
 40
1
 40
1
 40
1
 40
1
 10
1098.383449
 20
1454.014402
 30
0.0
 10
1150.872087
 20
1453.352944
 30
0.0
 10
1163.504638
 20
1454.688829
 30
0.0
 10
1189.431198
 20
1457.334661
 30
0.0
  0
SPLINE
  5
28e
100
AcDbEntity
  8
0
 62
7
100
AcDbSpline
 70
8
 71
3
 72
8
 73
4
 74
0
 40
0
 40
0
 40
0
 40
0
 40
1
 40
1
 40
1
 40
1
 10
1189.431198
 20
1457.334661
 30
0.0
 10
1211.350101
 20
1456.673203
 30
0.0
 10
1210.027185
 20
1439.397477
 30
0.0
 10
1188.095312
 20
1433.418415
 30
0.0
  0
SPLINE
  5
28f
100
AcDbEntity
  8
0
 62
7
100
AcDbSpline
 70
8
 71
3
 72
8
 73
4
 74
0
 40
0
 40
0
 40
0
 40
0
 40
1
 40
1
 40
1
 40
1
 10
1188.095312
 20
1433.418415
 30
0.0
 10
1154.205317
 20
1433.418415
 30
0.0
 10
1136.929590
 20
1421.460292
 30
0.0
 10
1131.611986
 20
1396.208160
 30
0.0
  0
LWPOLYLINE
  5
290
100
AcDbEntity
  8
0
 62
7
100
AcDbPolyline
 90
2
 70
0
 10
960.826122
 20
1210.805371
 30
0.0
 10
1047.879184
 20
1433.418415
 30
0.0
  0
SPLINE
  5
291
100
AcDbEntity
  8
0
 62
7
100
AcDbSpline
 70
8
 71
3
 72
8
 73
4
 74
0
 40
0
 40
0
 40
0
 40
0
 40
1
 40
1
 40
1
 40
1
 10
1136.255162
 20
1141.028035
 30
0.0
 10
1141.572766
 20
1103.156322
 30
0.0
 10
1161.507294
 20
1101.846376
 30
0.0
 10
1196.733176
 20
1093.195543
 30
0.0
  0
SPLINE
  5
292
100
AcDbEntity
  8
0
 62
7
100
AcDbSpline
 70
8
 71
3
 72
8
 73
4
 74
0
 40
0
 40
0
 40
0
 40
0
 40
1
 40
1
 40
1
 40
1
 10
1196.733176
 20
1093.195543
 30
0.0
 10
1213.347444
 20
1085.880595
 30
0.0
 10
1209.352757
 20
1074.570960
 30
0.0
 10
1196.071718
 20
1070.602212
 30
0.0
  0
SPLINE
  5
293
100
AcDbEntity
  8
0
 62
7
100
AcDbSpline
 70
8
 71
3
 72
8
 73
4
 74
0
 40
0
 40
0
 40
0
 40
0
 40
1
 40
1
 40
1
 40
1
 10
1196.071718
 20
1070.602212
 30
0.0
 10
1121.651207
 20
1079.240076
 30
0.0
 10
1096.386105
 20
1078.552678
 30
0.0
 10
1022.627052
 20
1071.925128
 30
0.0
  0
SPLINE
  5
294
100
AcDbEntity
  8
0
 62
7
100
AcDbSpline
 70
8
 71
3
 72
8
 73
4
 74
0
 40
0
 40
0
 40
0
 40
0
 40
1
 40
1
 40
1
 40
1
 10
1022.627052
 20
1071.925128
 30
0.0
 10
1001.356637
 20
1069.927784
 30
0.0
 10
1000.033721
 20
1087.877939
 30
0.0
 10
1022.627052
 20
1093.208512
 30
0.0
  0
SPLINE
  5
295
100
AcDbEntity
  8
0
 62
7
100
AcDbSpline
 70
8
 71
3
 72
8
 73
4
 74
0
 40
0
 40
0
 40
0
 40
0
 40
1
 40
1
 40
1
 40
1
 10
1022.627052
 20
1093.208512
 30
0.0
 10
1049.876528
 20
1099.187574
 30
0.0
 10
1057.191475
 20
1103.817780
 30
0.0
 10
1063.157567
 20
1117.786217
 30
0.0
  0
LWPOLYLINE
  5
296
100
AcDbEntity
  8
0
 62
7
100
AcDbPolyline
 90
2
 70
0
 10
1131.611986
 20
1396.208160
 30
0.0
 10
1136.255162
 20
1141.028035
 30
0.0
  0
SPLINE
  5
297
100
AcDbEntity
  8
0
 62
7
100
AcDbSpline
 70
8
 71
3
 72
8
 73
4
 74
0
 40
0
 40
0
 40
0
 40
0
 40
1
 40
1
 40
1
 40
1
 10
1057.178505
 20
1364.328477
 30
0.0
 10
1056.504078
 20
1373.627799
 30
0.0
 10
1050.525016
 20
1373.627799
 30
0.0
 10
1046.543298
 20
1362.331134
 30
0.0
  0
LWPOLYLINE
  5
298
100
AcDbEntity
  8
0
 62
7
100
AcDbPolyline
 90
2
 70
0
 10
1063.157567
 20
1117.786217
 30
0.0
 10
1057.178505
 20
1364.328477
 30
0.0
  0
SPLINE
  5
299
100
AcDbEntity
  8
0
 62
7
100
AcDbSpline
 70
8
 71
3
 72
8
 73
4
 74
0
 40
0
 40
0
 40
0
 40
0
 40
1
 40
1
 40
1
 40
1
 10
942.875968
 20
1103.169292
 30
0.0
 10
933.576646
 20
1080.575961
 30
0.0
 10
928.920501
 20
1080.575961
 30
0.0
 10
918.285293
 20
1097.851688
 30
0.0
  0
LWPOLYLINE
  5
29a
100
AcDbEntity
  8
0
 62
7
100
AcDbPolyline
 90
2
 70
0
 10
1046.543298
 20
1362.331134
 30
0.0
 10
942.875968
 20
1103.169292
 30
0.0
  0
SPLINE
  5
29b
100
AcDbEntity
  8
0
 62
7
100
AcDbSpline
 70
8
 71
3
 72
8
 73
4
 74
0
 40
0
 40
0
 40
0
 40
0
 40
1
 40
1
 40
1
 40
1
 10
795.344892
 20
1363.667019
 30
0.0
 10
792.024632
 20
1372.966341
 30
0.0
 10
787.368487
 20
1370.320509
 30
0.0
 10
786.707029
 20
1364.328477
 30
0.0
  0
LWPOLYLINE
  5
29c
100
AcDbEntity
  8
0
 62
7
100
AcDbPolyline
 90
2
 70
0
 10
918.285293
 20
1097.851688
 30
0.0
 10
795.344892
 20
1363.667019
 30
0.0
  0
SPLINE
  5
29d
100
AcDbEntity
  8
0
 62
7
100
AcDbSpline
 70
8
 71
3
 72
8
 73
4
 74
0
 40
0
 40
0
 40
0
 40
0
 40
1
 40
1
 40
1
 40
1
 10
788.029945
 20
1129.744340
 30
0.0
 10
791.363174
 20
1102.507834
 30
0.0
 10
809.961817
 20
1101.171948
 30
0.0
 10
848.507958
 20
1089.213825
 30
0.0
  0
SPLINE
  5
29e
100
AcDbEntity
  8
0
 62
7
100
AcDbSpline
 70
8
 71
3
 72
8
 73
4
 74
0
 40
0
 40
0
 40
0
 40
0
 40
1
 40
1
 40
1
 40
1
 10
848.507958
 20
1089.213825
 30
0.0
 10
859.143165
 20
1085.232107
 30
0.0
 10
859.804623
 20
1076.594243
 30
0.0
 10
851.166760
 20
1070.615182
 30
0.0
  0
SPLINE
  5
29f
100
AcDbEntity
  8
0
 62
7
100
AcDbSpline
 70
8
 71
3
 72
8
 73
4
 74
0
 40
0
 40
0
 40
0
 40
0
 40
1
 40
1
 40
1
 40
1
 10
851.166760
 20
1070.615182
 30
0.0
 10
776.071821
 20
1076.594243
 30
0.0
 10
764.113698
 20
1076.594243
 30
0.0
 10
694.349333
 20
1067.956380
 30
0.0
  0
SPLINE
  5
2a0
100
AcDbEntity
  8
0
 62
7
100
AcDbSpline
 70
8
 71
3
 72
8
 73
4
 74
0
 40
0
 40
0
 40
0
 40
0
 40
1
 40
1
 40
1
 40
1
 10
694.349333
 20
1067.956380
 30
0.0
 10
683.714126
 20
1067.956380
 30
0.0
 10
678.409492
 20
1083.896221
 30
0.0
 10
695.672249
 20
1086.555023
 30
0.0
  0
SPLINE
  5
2a1
100
AcDbEntity
  8
0
 62
7
100
AcDbSpline
 70
8
 71
3
 72
8
 73
4
 74
0
 40
0
 40
0
 40
0
 40
0
 40
1
 40
1
 40
1
 40
1
 10
695.672249
 20
1086.555023
 30
0.0
 10
732.221046
 20
1097.190230
 30
0.0
 10
742.194795
 20
1097.190230
 30
0.0
 10
748.173857
 20
1118.447675
 30
0.0
  0
LWPOLYLINE
  5
2a2
100
AcDbEntity
  8
0
 62
7
100
AcDbPolyline
 90
2
 70
0
 10
786.707029
 20
1364.328477
 30
0.0
 10
788.029945
 20
1129.744340
 30
0.0
  0
LWPOLYLINE
  5
2a3
100
AcDbEntity
  8
0
 62
7
100
AcDbPolyline
 90
3
 70
0
 10
748.173857
 20
1118.447675
 30
0.0
 10
763.478180
 20
1390.216128
 30
0.0
 10
763.478180
 20
1390.216128
 30
0.0
  0
ENDSEC
  0
SECTION
  2
OBJECTS
  0
DICTIONARY
  5
C
330
0
100
AcDbDictionary
  3
ACAD_GROUP
350
D
  3
ACAD_MLINESTYLE
350
17
  0
DICTIONARY
  5
D
330
C
100
AcDbDictionary
  0
DICTIONARY
  5
1A
330
C
100
AcDbDictionary
  0
DICTIONARY
  5
17
330
C
100
AcDbDictionary
  3
STANDARD
350
18
  0
DICTIONARY
  5
19
330
C
100
AcDbDictionary
  0
ENDSEC
  0
EOF
